<?xml version="1.0" encoding="UTF-8" standalone="no"?>
<!DOCTYPE svg PUBLIC "-//W3C//DTD SVG 1.1//EN"
 "http://www.w3.org/Graphics/SVG/1.1/DTD/svg11.dtd">
<!-- Generated by graphviz version 2.44.0 (0)
 -->
<!-- Title: TravellersApp/src/collection/ArrayList.hpp Pages: 1 -->
<svg width="1058pt" height="575pt"
 viewBox="0.00 0.00 1057.66 575.00" xmlns="http://www.w3.org/2000/svg" xmlns:xlink="http://www.w3.org/1999/xlink">
<g id="graph0" class="graph" transform="scale(1 1) rotate(0) translate(4 571)">
<title>TravellersApp/src/collection/ArrayList.hpp</title>
<polygon fill="white" stroke="transparent" points="-4,4 -4,-571 1053.66,-571 1053.66,4 -4,4"/>
<!-- Node1 -->
<g id="node1" class="node">
<title>Node1</title>
<g id="a_node1"><a xlink:title=" ">
<polygon fill="#bfbfbf" stroke="black" points="461,-536.5 461,-566.5 598,-566.5 598,-536.5 461,-536.5"/>
<text text-anchor="start" x="469" y="-554.5" font-family="Helvetica,sans-Serif" font-size="10.00">TravellersApp/src/collection</text>
<text text-anchor="middle" x="529.5" y="-543.5" font-family="Helvetica,sans-Serif" font-size="10.00">/ArrayList.hpp</text>
</a>
</g>
</g>
<!-- Node2 -->
<g id="node2" class="node">
<title>Node2</title>
<g id="a_node2"><a xlink:href="ArraySet_8hpp.html" target="_top" xlink:title=" ">
<polygon fill="white" stroke="black" points="25,-469.5 25,-499.5 162,-499.5 162,-469.5 25,-469.5"/>
<text text-anchor="start" x="33" y="-487.5" font-family="Helvetica,sans-Serif" font-size="10.00">TravellersApp/src/collection</text>
<text text-anchor="middle" x="93.5" y="-476.5" font-family="Helvetica,sans-Serif" font-size="10.00">/ArraySet.hpp</text>
</a>
</g>
</g>
<!-- Node1&#45;&gt;Node2 -->
<g id="edge1" class="edge">
<title>Node1&#45;&gt;Node2</title>
<path fill="none" stroke="midnightblue" d="M450.45,-539.9C378.84,-530.13 270.47,-514.93 176.5,-500 171.88,-499.27 167.11,-498.49 162.32,-497.69"/>
<polygon fill="midnightblue" stroke="midnightblue" points="450.36,-543.42 460.74,-541.3 451.31,-536.49 450.36,-543.42"/>
</g>
<!-- Node3 -->
<g id="node3" class="node">
<title>Node3</title>
<g id="a_node3"><a xlink:href="BinaryNode_8hpp.html" target="_top" xlink:title=" ">
<polygon fill="white" stroke="black" points="219,-402.5 219,-432.5 356,-432.5 356,-402.5 219,-402.5"/>
<text text-anchor="start" x="227" y="-420.5" font-family="Helvetica,sans-Serif" font-size="10.00">TravellersApp/src/collection</text>
<text text-anchor="middle" x="287.5" y="-409.5" font-family="Helvetica,sans-Serif" font-size="10.00">/BinaryNode.hpp</text>
</a>
</g>
</g>
<!-- Node1&#45;&gt;Node3 -->
<g id="edge2" class="edge">
<title>Node1&#45;&gt;Node3</title>
<path fill="none" stroke="midnightblue" d="M475.87,-532.93C452.87,-524.41 426.14,-513.16 403.5,-500 384.36,-488.88 382.44,-481.97 364.5,-469 346.62,-456.07 325.64,-442.41 310.1,-432.56"/>
<polygon fill="midnightblue" stroke="midnightblue" points="474.88,-536.29 485.47,-536.41 477.27,-529.71 474.88,-536.29"/>
</g>
<!-- Node4 -->
<g id="node4" class="node">
<title>Node4</title>
<g id="a_node4"><a xlink:href="RangeBinaryTree_8hpp.html" target="_top" xlink:title=" ">
<polygon fill="white" stroke="black" points="0,-335.5 0,-365.5 137,-365.5 137,-335.5 0,-335.5"/>
<text text-anchor="start" x="8" y="-353.5" font-family="Helvetica,sans-Serif" font-size="10.00">TravellersApp/src/collection</text>
<text text-anchor="middle" x="68.5" y="-342.5" font-family="Helvetica,sans-Serif" font-size="10.00">/RangeBinaryTree.hpp</text>
</a>
</g>
</g>
<!-- Node1&#45;&gt;Node4 -->
<g id="edge37" class="edge">
<title>Node1&#45;&gt;Node4</title>
<path fill="none" stroke="midnightblue" d="M450.66,-543.9C369.8,-536.1 250.26,-521.42 209.5,-500 177.48,-483.17 107.27,-399.26 79.82,-365.55"/>
<polygon fill="midnightblue" stroke="midnightblue" points="450.53,-547.4 460.82,-544.86 451.19,-540.43 450.53,-547.4"/>
</g>
<!-- Node5 -->
<g id="node5" class="node">
<title>Node5</title>
<g id="a_node5"><a xlink:href="Stack_8hpp.html" target="_top" xlink:title=" ">
<polygon fill="white" stroke="black" points="219,-469.5 219,-499.5 356,-499.5 356,-469.5 219,-469.5"/>
<text text-anchor="start" x="227" y="-487.5" font-family="Helvetica,sans-Serif" font-size="10.00">TravellersApp/src/collection</text>
<text text-anchor="middle" x="287.5" y="-476.5" font-family="Helvetica,sans-Serif" font-size="10.00">/Stack.hpp</text>
</a>
</g>
</g>
<!-- Node1&#45;&gt;Node5 -->
<g id="edge4" class="edge">
<title>Node1&#45;&gt;Node5</title>
<path fill="none" stroke="midnightblue" d="M467.51,-533.85C428.05,-523.25 377.51,-509.68 340.04,-499.61"/>
<polygon fill="midnightblue" stroke="midnightblue" points="466.72,-537.26 477.29,-536.48 468.54,-530.5 466.72,-537.26"/>
</g>
<!-- Node6 -->
<g id="node6" class="node">
<title>Node6</title>
<g id="a_node6"><a xlink:href="HashMap_8hpp.html" target="_top" xlink:title=" ">
<polygon fill="white" stroke="black" points="413,-469.5 413,-499.5 550,-499.5 550,-469.5 413,-469.5"/>
<text text-anchor="start" x="421" y="-487.5" font-family="Helvetica,sans-Serif" font-size="10.00">TravellersApp/src/collection</text>
<text text-anchor="middle" x="481.5" y="-476.5" font-family="Helvetica,sans-Serif" font-size="10.00">/HashMap.hpp</text>
</a>
</g>
</g>
<!-- Node1&#45;&gt;Node6 -->
<g id="edge6" class="edge">
<title>Node1&#45;&gt;Node6</title>
<path fill="none" stroke="midnightblue" d="M513,-528.16C506,-518.68 498.06,-507.92 491.89,-499.58"/>
<polygon fill="midnightblue" stroke="midnightblue" points="510.33,-530.43 519.08,-536.4 515.96,-526.27 510.33,-530.43"/>
</g>
<!-- Node8 -->
<g id="node8" class="node">
<title>Node8</title>
<g id="a_node8"><a xlink:href="Scanner_8hpp.html" target="_top" xlink:title=" ">
<polygon fill="white" stroke="black" points="651,-335.5 651,-365.5 774,-365.5 774,-335.5 651,-335.5"/>
<text text-anchor="start" x="659" y="-353.5" font-family="Helvetica,sans-Serif" font-size="10.00">TravellersApp/src/parser</text>
<text text-anchor="middle" x="712.5" y="-342.5" font-family="Helvetica,sans-Serif" font-size="10.00">/Scanner.hpp</text>
</a>
</g>
</g>
<!-- Node1&#45;&gt;Node8 -->
<g id="edge40" class="edge">
<title>Node1&#45;&gt;Node8</title>
<path fill="none" stroke="midnightblue" d="M557.12,-530.44C568.54,-521.62 581.63,-510.83 592.5,-500 637.82,-454.85 683.01,-393.38 702.51,-365.85"/>
<polygon fill="midnightblue" stroke="midnightblue" points="555,-527.65 549.15,-536.48 559.23,-533.23 555,-527.65"/>
</g>
<!-- Node9 -->
<g id="node9" class="node">
<title>Node9</title>
<g id="a_node9"><a xlink:href="CSV_8hpp.html" target="_top" xlink:title=" ">
<polygon fill="white" stroke="black" points="881,-268.5 881,-298.5 1004,-298.5 1004,-268.5 881,-268.5"/>
<text text-anchor="start" x="889" y="-286.5" font-family="Helvetica,sans-Serif" font-size="10.00">TravellersApp/src/parser</text>
<text text-anchor="middle" x="942.5" y="-275.5" font-family="Helvetica,sans-Serif" font-size="10.00">/CSV.hpp</text>
</a>
</g>
</g>
<!-- Node1&#45;&gt;Node9 -->
<g id="edge39" class="edge">
<title>Node1&#45;&gt;Node9</title>
<path fill="none" stroke="midnightblue" d="M608.28,-546.21C720.64,-539.29 915.82,-523.96 937.5,-500 989.6,-442.42 960.53,-336.6 947.64,-298.57"/>
<polygon fill="midnightblue" stroke="midnightblue" points="607.78,-542.74 598.01,-546.84 608.2,-549.73 607.78,-542.74"/>
</g>
<!-- Node11 -->
<g id="node11" class="node">
<title>Node11</title>
<g id="a_node11"><a xlink:href="User_8hpp.html" target="_top" xlink:title=" ">
<polygon fill="white" stroke="black" points="663,-207 663,-226 798,-226 798,-207 663,-207"/>
<text text-anchor="middle" x="730.5" y="-214" font-family="Helvetica,sans-Serif" font-size="10.00">TravellersApp/src/User.hpp</text>
</a>
</g>
</g>
<!-- Node1&#45;&gt;Node11 -->
<g id="edge45" class="edge">
<title>Node1&#45;&gt;Node11</title>
<path fill="none" stroke="midnightblue" d="M575.91,-532.5C636.38,-506.22 739.55,-451.02 783.5,-366 803.53,-327.26 806.57,-307.69 788.5,-268 779.93,-249.17 760.47,-234.63 746.46,-226.08"/>
<polygon fill="midnightblue" stroke="midnightblue" points="574.42,-529.33 566.59,-536.47 577.16,-535.77 574.42,-529.33"/>
</g>
<!-- Node25 -->
<g id="node25" class="node">
<title>Node25</title>
<g id="a_node25"><a xlink:href="SortedArrayList_8hpp.html" target="_top" xlink:title=" ">
<polygon fill="white" stroke="black" points="791,-469.5 791,-499.5 928,-499.5 928,-469.5 791,-469.5"/>
<text text-anchor="start" x="799" y="-487.5" font-family="Helvetica,sans-Serif" font-size="10.00">TravellersApp/src/collection</text>
<text text-anchor="middle" x="859.5" y="-476.5" font-family="Helvetica,sans-Serif" font-size="10.00">/SortedArrayList.hpp</text>
</a>
</g>
</g>
<!-- Node1&#45;&gt;Node25 -->
<g id="edge38" class="edge">
<title>Node1&#45;&gt;Node25</title>
<path fill="none" stroke="midnightblue" d="M608.43,-534.95C664,-524.01 737.66,-509.5 790.81,-499.03"/>
<polygon fill="midnightblue" stroke="midnightblue" points="607.41,-531.59 598.28,-536.95 608.77,-538.45 607.41,-531.59"/>
</g>
<!-- Node26 -->
<g id="node26" class="node">
<title>Node26</title>
<g id="a_node26"><a xlink:href="VisitBuilder_8hpp.html" target="_top" xlink:title=" ">
<polygon fill="white" stroke="black" points="473.5,-274 473.5,-293 637.5,-293 637.5,-274 473.5,-274"/>
<text text-anchor="middle" x="555.5" y="-281" font-family="Helvetica,sans-Serif" font-size="10.00">TravellersApp/src/VisitBuilder.hpp</text>
</a>
</g>
</g>
<!-- Node1&#45;&gt;Node26 -->
<g id="edge41" class="edge">
<title>Node1&#45;&gt;Node26</title>
<path fill="none" stroke="midnightblue" d="M545.8,-527.95C550.91,-519.59 555.9,-509.76 558.5,-500 579.23,-422.27 563.02,-323.1 557.3,-293.33"/>
<polygon fill="midnightblue" stroke="midnightblue" points="542.84,-526.08 540.31,-536.37 548.7,-529.91 542.84,-526.08"/>
</g>
<!-- Node3&#45;&gt;Node4 -->
<g id="edge3" class="edge">
<title>Node3&#45;&gt;Node4</title>
<path fill="none" stroke="midnightblue" d="M230.49,-399.58C194.92,-389.02 149.67,-375.59 116.04,-365.61"/>
<polygon fill="midnightblue" stroke="midnightblue" points="229.67,-402.99 240.25,-402.48 231.66,-396.28 229.67,-402.99"/>
</g>
<!-- Node5&#45;&gt;Node3 -->
<g id="edge5" class="edge">
<title>Node5&#45;&gt;Node3</title>
<path fill="none" stroke="midnightblue" d="M287.5,-459.11C287.5,-450.15 287.5,-440.32 287.5,-432.58"/>
<polygon fill="midnightblue" stroke="midnightblue" points="284,-459.4 287.5,-469.4 291,-459.4 284,-459.4"/>
</g>
<!-- Node7 -->
<g id="node7" class="node">
<title>Node7</title>
<g id="a_node7"><a xlink:href="CommandList_8hpp.html" target="_top" xlink:title=" ">
<polygon fill="white" stroke="black" points="382,-402.5 382,-432.5 505,-432.5 505,-402.5 382,-402.5"/>
<text text-anchor="start" x="390" y="-420.5" font-family="Helvetica,sans-Serif" font-size="10.00">TravellersApp/src/parser</text>
<text text-anchor="middle" x="443.5" y="-409.5" font-family="Helvetica,sans-Serif" font-size="10.00">/CommandList.hpp</text>
</a>
</g>
</g>
<!-- Node6&#45;&gt;Node7 -->
<g id="edge7" class="edge">
<title>Node6&#45;&gt;Node7</title>
<path fill="none" stroke="midnightblue" d="M468.1,-460.58C462.64,-451.24 456.51,-440.75 451.73,-432.58"/>
<polygon fill="midnightblue" stroke="midnightblue" points="465.19,-462.53 473.25,-469.4 471.23,-459 465.19,-462.53"/>
</g>
<!-- Node7&#45;&gt;Node8 -->
<g id="edge8" class="edge">
<title>Node7&#45;&gt;Node8</title>
<path fill="none" stroke="midnightblue" d="M511.29,-400.12C555.31,-389.48 612.09,-375.76 654.1,-365.61"/>
<polygon fill="midnightblue" stroke="midnightblue" points="510.44,-396.73 501.54,-402.48 512.08,-403.53 510.44,-396.73"/>
</g>
<!-- Node13 -->
<g id="node13" class="node">
<title>Node13</title>
<g id="a_node13"><a xlink:href="HTLInterpreter_8hpp.html" target="_top" xlink:title=" ">
<polygon fill="white" stroke="black" points="412,-67.5 412,-97.5 535,-97.5 535,-67.5 412,-67.5"/>
<text text-anchor="start" x="420" y="-85.5" font-family="Helvetica,sans-Serif" font-size="10.00">TravellersApp/src/parser</text>
<text text-anchor="middle" x="473.5" y="-74.5" font-family="Helvetica,sans-Serif" font-size="10.00">/HTLInterpreter.hpp</text>
</a>
</g>
</g>
<!-- Node7&#45;&gt;Node13 -->
<g id="edge28" class="edge">
<title>Node7&#45;&gt;Node13</title>
<path fill="none" stroke="midnightblue" d="M402.68,-397.04C390.75,-389.18 379.14,-378.87 372.5,-366 366.18,-353.76 370.42,-348.62 372.5,-335 387.16,-239.19 443.63,-134.72 465.12,-97.57"/>
<polygon fill="midnightblue" stroke="midnightblue" points="400.99,-400.12 411.35,-402.34 404.64,-394.14 400.99,-400.12"/>
</g>
<!-- Node15 -->
<g id="node15" class="node">
<title>Node15</title>
<g id="a_node15"><a xlink:href="LoginInterpreter_8hpp.html" target="_top" xlink:title=" ">
<polygon fill="white" stroke="black" points="553,-67.5 553,-97.5 676,-97.5 676,-67.5 553,-67.5"/>
<text text-anchor="start" x="561" y="-85.5" font-family="Helvetica,sans-Serif" font-size="10.00">TravellersApp/src/parser</text>
<text text-anchor="middle" x="614.5" y="-74.5" font-family="Helvetica,sans-Serif" font-size="10.00">/LoginInterpreter.hpp</text>
</a>
</g>
</g>
<!-- Node7&#45;&gt;Node15 -->
<g id="edge34" class="edge">
<title>Node7&#45;&gt;Node15</title>
<path fill="none" stroke="midnightblue" d="M483.47,-397.12C495.33,-389.23 506.91,-378.88 513.5,-366 519.78,-353.73 519.72,-347.29 513.5,-335 501.3,-310.89 476.7,-323.11 464.5,-299 458.28,-286.71 460.87,-281.29 464.5,-268 482.7,-201.3 496.75,-184.93 543.5,-134 556.8,-119.51 574.9,-106.72 589.5,-97.63"/>
<polygon fill="midnightblue" stroke="midnightblue" points="481.52,-394.21 474.84,-402.44 485.19,-400.17 481.52,-394.21"/>
</g>
<!-- Node17 -->
<g id="node17" class="node">
<title>Node17</title>
<g id="a_node17"><a xlink:href="VisitInterpreter_8hpp.html" target="_top" xlink:title=" ">
<polygon fill="white" stroke="black" points="91,-67.5 91,-97.5 214,-97.5 214,-67.5 91,-67.5"/>
<text text-anchor="start" x="99" y="-85.5" font-family="Helvetica,sans-Serif" font-size="10.00">TravellersApp/src/parser</text>
<text text-anchor="middle" x="152.5" y="-74.5" font-family="Helvetica,sans-Serif" font-size="10.00">/VisitInterpreter.hpp</text>
</a>
</g>
</g>
<!-- Node7&#45;&gt;Node17 -->
<g id="edge36" class="edge">
<title>Node7&#45;&gt;Node17</title>
<path fill="none" stroke="midnightblue" d="M379.15,-399.7C297.04,-376.32 165.5,-331.54 165.5,-284.5 165.5,-284.5 165.5,-284.5 165.5,-215.5 165.5,-172.44 158.56,-121.85 154.82,-97.71"/>
<polygon fill="midnightblue" stroke="midnightblue" points="378.33,-403.1 388.91,-402.44 380.23,-396.36 378.33,-403.1"/>
</g>
<!-- Node22 -->
<g id="node22" class="node">
<title>Node22</title>
<g id="a_node22"><a xlink:href="Interpreter_8hpp.html" target="_top" xlink:title=" ">
<polygon fill="white" stroke="black" points="232,-134.5 232,-164.5 355,-164.5 355,-134.5 232,-134.5"/>
<text text-anchor="start" x="240" y="-152.5" font-family="Helvetica,sans-Serif" font-size="10.00">TravellersApp/src/parser</text>
<text text-anchor="middle" x="293.5" y="-141.5" font-family="Helvetica,sans-Serif" font-size="10.00">/Interpreter.hpp</text>
</a>
</g>
</g>
<!-- Node7&#45;&gt;Node22 -->
<g id="edge29" class="edge">
<title>Node7&#45;&gt;Node22</title>
<path fill="none" stroke="midnightblue" d="M383.23,-398.35C366.9,-390.75 350.67,-380.26 339.5,-366 290.78,-303.81 290.73,-201.73 292.53,-164.58"/>
<polygon fill="midnightblue" stroke="midnightblue" points="382.25,-401.73 392.82,-402.49 385.03,-395.31 382.25,-401.73"/>
</g>
<!-- Node24 -->
<g id="node24" class="node">
<title>Node24</title>
<g id="a_node24"><a xlink:href="CommandList_8cpp.html" target="_top" xlink:title=" ">
<polygon fill="white" stroke="black" points="382,-335.5 382,-365.5 505,-365.5 505,-335.5 382,-335.5"/>
<text text-anchor="start" x="390" y="-353.5" font-family="Helvetica,sans-Serif" font-size="10.00">TravellersApp/src/parser</text>
<text text-anchor="middle" x="443.5" y="-342.5" font-family="Helvetica,sans-Serif" font-size="10.00">/CommandList.cpp</text>
</a>
</g>
</g>
<!-- Node7&#45;&gt;Node24 -->
<g id="edge35" class="edge">
<title>Node7&#45;&gt;Node24</title>
<path fill="none" stroke="midnightblue" d="M443.5,-392.11C443.5,-383.15 443.5,-373.32 443.5,-365.58"/>
<polygon fill="midnightblue" stroke="midnightblue" points="440,-392.4 443.5,-402.4 447,-392.4 440,-392.4"/>
</g>
<!-- Node8&#45;&gt;Node9 -->
<g id="edge9" class="edge">
<title>Node8&#45;&gt;Node9</title>
<path fill="none" stroke="midnightblue" d="M771.89,-332.71C809.32,-322.14 857.1,-308.63 892.57,-298.61"/>
<polygon fill="midnightblue" stroke="midnightblue" points="770.79,-329.39 762.12,-335.48 772.7,-336.12 770.79,-329.39"/>
</g>
<!-- Node10 -->
<g id="node10" class="node">
<title>Node10</title>
<g id="a_node10"><a xlink:href="main_8cpp.html" target="_top" xlink:title=" ">
<polygon fill="white" stroke="black" points="736,-6 736,-25 871,-25 871,-6 736,-6"/>
<text text-anchor="middle" x="803.5" y="-13" font-family="Helvetica,sans-Serif" font-size="10.00">TravellersApp/src/main.cpp</text>
</a>
</g>
</g>
<!-- Node8&#45;&gt;Node10 -->
<g id="edge25" class="edge">
<title>Node8&#45;&gt;Node10</title>
<path fill="none" stroke="midnightblue" d="M752.78,-330.68C791.93,-309.29 845.5,-270.36 845.5,-217.5 845.5,-217.5 845.5,-217.5 845.5,-148.5 845.5,-99.92 819.35,-45.82 808.32,-25.16"/>
<polygon fill="midnightblue" stroke="midnightblue" points="750.89,-327.72 743.68,-335.49 754.16,-333.91 750.89,-327.72"/>
</g>
<!-- Node14 -->
<g id="node14" class="node">
<title>Node14</title>
<g id="a_node14"><a xlink:href="HTLInterpreter_8cpp.html" target="_top" xlink:title=" ">
<polygon fill="white" stroke="black" points="322,-0.5 322,-30.5 445,-30.5 445,-0.5 322,-0.5"/>
<text text-anchor="start" x="330" y="-18.5" font-family="Helvetica,sans-Serif" font-size="10.00">TravellersApp/src/parser</text>
<text text-anchor="middle" x="383.5" y="-7.5" font-family="Helvetica,sans-Serif" font-size="10.00">/HTLInterpreter.cpp</text>
</a>
</g>
</g>
<!-- Node8&#45;&gt;Node14 -->
<g id="edge26" class="edge">
<title>Node8&#45;&gt;Node14</title>
<path fill="none" stroke="midnightblue" d="M640.92,-343.02C577.12,-335.84 490,-322.11 464.5,-299 383.4,-225.51 381.34,-76.84 382.8,-30.57"/>
<polygon fill="midnightblue" stroke="midnightblue" points="640.63,-346.51 650.95,-344.12 641.39,-339.55 640.63,-346.51"/>
</g>
<!-- Node21 -->
<g id="node21" class="node">
<title>Node21</title>
<g id="a_node21"><a xlink:href="Scanner_8cpp.html" target="_top" xlink:title=" ">
<polygon fill="white" stroke="black" points="656,-268.5 656,-298.5 779,-298.5 779,-268.5 656,-268.5"/>
<text text-anchor="start" x="664" y="-286.5" font-family="Helvetica,sans-Serif" font-size="10.00">TravellersApp/src/parser</text>
<text text-anchor="middle" x="717.5" y="-275.5" font-family="Helvetica,sans-Serif" font-size="10.00">/Scanner.cpp</text>
</a>
</g>
</g>
<!-- Node8&#45;&gt;Node21 -->
<g id="edge27" class="edge">
<title>Node8&#45;&gt;Node21</title>
<path fill="none" stroke="midnightblue" d="M714.35,-325.4C715.05,-316.37 715.81,-306.41 716.42,-298.58"/>
<polygon fill="midnightblue" stroke="midnightblue" points="710.86,-325.16 713.58,-335.4 717.84,-325.69 710.86,-325.16"/>
</g>
<!-- Node9&#45;&gt;Node10 -->
<g id="edge10" class="edge">
<title>Node9&#45;&gt;Node10</title>
<path fill="none" stroke="midnightblue" d="M1006.22,-264.18C1021.32,-256.7 1035.61,-246.32 1044.5,-232 1051.77,-220.29 1050.6,-213.35 1044.5,-201 997.49,-105.8 875.17,-46.16 825.23,-25.08"/>
<polygon fill="midnightblue" stroke="midnightblue" points="1004.41,-261.16 996.75,-268.48 1007.3,-267.54 1004.41,-261.16"/>
</g>
<!-- Node9&#45;&gt;Node11 -->
<g id="edge11" class="edge">
<title>Node9&#45;&gt;Node11</title>
<path fill="none" stroke="midnightblue" d="M887.09,-265.51C845.71,-252.83 790.91,-236.02 758.32,-226.03"/>
<polygon fill="midnightblue" stroke="midnightblue" points="886.17,-268.89 896.76,-268.48 888.23,-262.2 886.17,-268.89"/>
</g>
<!-- Node12 -->
<g id="node12" class="node">
<title>Node12</title>
<g id="a_node12"><a xlink:href="TravelState_8hpp.html" target="_top" xlink:title=" ">
<polygon fill="white" stroke="black" points="553,-134.5 553,-164.5 676,-164.5 676,-134.5 553,-134.5"/>
<text text-anchor="start" x="561" y="-152.5" font-family="Helvetica,sans-Serif" font-size="10.00">TravellersApp/src/Travel</text>
<text text-anchor="middle" x="614.5" y="-141.5" font-family="Helvetica,sans-Serif" font-size="10.00">State.hpp</text>
</a>
</g>
</g>
<!-- Node9&#45;&gt;Node12 -->
<g id="edge23" class="edge">
<title>Node9&#45;&gt;Node12</title>
<path fill="none" stroke="midnightblue" d="M914.97,-262.63C888.54,-244.36 846.93,-217.65 807.5,-201 765.22,-183.15 715.01,-170.25 676.4,-161.96"/>
<polygon fill="midnightblue" stroke="midnightblue" points="913.13,-265.61 923.33,-268.47 917.14,-259.87 913.13,-265.61"/>
</g>
<!-- Node20 -->
<g id="node20" class="node">
<title>Node20</title>
<g id="a_node20"><a xlink:href="CSV_8cpp.html" target="_top" xlink:title=" ">
<polygon fill="white" stroke="black" points="912,-201.5 912,-231.5 1035,-231.5 1035,-201.5 912,-201.5"/>
<text text-anchor="start" x="920" y="-219.5" font-family="Helvetica,sans-Serif" font-size="10.00">TravellersApp/src/parser</text>
<text text-anchor="middle" x="973.5" y="-208.5" font-family="Helvetica,sans-Serif" font-size="10.00">/CSV.cpp</text>
</a>
</g>
</g>
<!-- Node9&#45;&gt;Node20 -->
<g id="edge24" class="edge">
<title>Node9&#45;&gt;Node20</title>
<path fill="none" stroke="midnightblue" d="M953.57,-259.28C957.99,-250.02 962.93,-239.66 966.79,-231.58"/>
<polygon fill="midnightblue" stroke="midnightblue" points="950.37,-257.86 949.23,-268.4 956.69,-260.88 950.37,-257.86"/>
</g>
<!-- Node11&#45;&gt;Node12 -->
<g id="edge12" class="edge">
<title>Node11&#45;&gt;Node12</title>
<path fill="none" stroke="midnightblue" d="M705.97,-201.75C686.47,-190.83 659.3,-175.6 639.64,-164.59"/>
<polygon fill="midnightblue" stroke="midnightblue" points="704.42,-204.9 714.86,-206.73 707.84,-198.79 704.42,-204.9"/>
</g>
<!-- Node12&#45;&gt;Node13 -->
<g id="edge13" class="edge">
<title>Node12&#45;&gt;Node13</title>
<path fill="none" stroke="midnightblue" d="M574.65,-130.13C552.25,-119.8 524.72,-107.11 504.04,-97.58"/>
<polygon fill="midnightblue" stroke="midnightblue" points="573.36,-133.39 583.91,-134.4 576.29,-127.03 573.36,-133.39"/>
</g>
<!-- Node12&#45;&gt;Node15 -->
<g id="edge16" class="edge">
<title>Node12&#45;&gt;Node15</title>
<path fill="none" stroke="midnightblue" d="M614.5,-124.11C614.5,-115.15 614.5,-105.32 614.5,-97.58"/>
<polygon fill="midnightblue" stroke="midnightblue" points="611,-124.4 614.5,-134.4 618,-124.4 611,-124.4"/>
</g>
<!-- Node12&#45;&gt;Node17 -->
<g id="edge19" class="edge">
<title>Node12&#45;&gt;Node17</title>
<path fill="none" stroke="midnightblue" d="M542.54,-140.89C463.73,-132.18 333.73,-116.66 222.5,-98 219.81,-97.55 217.06,-97.07 214.29,-96.57"/>
<polygon fill="midnightblue" stroke="midnightblue" points="542.52,-144.41 552.84,-142.03 543.28,-137.45 542.52,-144.41"/>
</g>
<!-- Node19 -->
<g id="node19" class="node">
<title>Node19</title>
<g id="a_node19"><a xlink:href="TravelState_8cpp.html" target="_top" xlink:title=" ">
<polygon fill="white" stroke="black" points="694,-67.5 694,-97.5 817,-97.5 817,-67.5 694,-67.5"/>
<text text-anchor="start" x="702" y="-85.5" font-family="Helvetica,sans-Serif" font-size="10.00">TravellersApp/src/Travel</text>
<text text-anchor="middle" x="755.5" y="-74.5" font-family="Helvetica,sans-Serif" font-size="10.00">State.cpp</text>
</a>
</g>
</g>
<!-- Node12&#45;&gt;Node19 -->
<g id="edge22" class="edge">
<title>Node12&#45;&gt;Node19</title>
<path fill="none" stroke="midnightblue" d="M654.35,-130.13C676.75,-119.8 704.28,-107.11 724.96,-97.58"/>
<polygon fill="midnightblue" stroke="midnightblue" points="652.71,-127.03 645.09,-134.4 655.64,-133.39 652.71,-127.03"/>
</g>
<!-- Node13&#45;&gt;Node10 -->
<g id="edge14" class="edge">
<title>Node13&#45;&gt;Node10</title>
<path fill="none" stroke="midnightblue" d="M545.62,-66.59C625.92,-50.52 708.62,-34.6 758.38,-25.09"/>
<polygon fill="midnightblue" stroke="midnightblue" points="544.45,-63.25 535.33,-68.65 545.82,-70.12 544.45,-63.25"/>
</g>
<!-- Node13&#45;&gt;Node14 -->
<g id="edge15" class="edge">
<title>Node13&#45;&gt;Node14</title>
<path fill="none" stroke="midnightblue" d="M445.74,-61.45C431.89,-51.45 415.48,-39.6 402.99,-30.58"/>
<polygon fill="midnightblue" stroke="midnightblue" points="443.82,-64.38 453.97,-67.4 447.91,-58.7 443.82,-64.38"/>
</g>
<!-- Node15&#45;&gt;Node10 -->
<g id="edge17" class="edge">
<title>Node15&#45;&gt;Node10</title>
<path fill="none" stroke="midnightblue" d="M665.07,-64.11C701.84,-51.46 750.02,-34.89 778.76,-25.01"/>
<polygon fill="midnightblue" stroke="midnightblue" points="663.83,-60.83 655.51,-67.4 666.1,-67.45 663.83,-60.83"/>
</g>
<!-- Node16 -->
<g id="node16" class="node">
<title>Node16</title>
<g id="a_node16"><a xlink:href="LoginInterpreter_8cpp.html" target="_top" xlink:title=" ">
<polygon fill="white" stroke="black" points="553,-0.5 553,-30.5 676,-30.5 676,-0.5 553,-0.5"/>
<text text-anchor="start" x="561" y="-18.5" font-family="Helvetica,sans-Serif" font-size="10.00">TravellersApp/src/parser</text>
<text text-anchor="middle" x="614.5" y="-7.5" font-family="Helvetica,sans-Serif" font-size="10.00">/LoginInterpreter.cpp</text>
</a>
</g>
</g>
<!-- Node15&#45;&gt;Node16 -->
<g id="edge18" class="edge">
<title>Node15&#45;&gt;Node16</title>
<path fill="none" stroke="midnightblue" d="M614.5,-57.11C614.5,-48.15 614.5,-38.32 614.5,-30.58"/>
<polygon fill="midnightblue" stroke="midnightblue" points="611,-57.4 614.5,-67.4 618,-57.4 611,-57.4"/>
</g>
<!-- Node17&#45;&gt;Node14 -->
<g id="edge20" class="edge">
<title>Node17&#45;&gt;Node14</title>
<path fill="none" stroke="midnightblue" d="M212.15,-64.71C249.74,-54.14 297.73,-40.63 333.35,-30.61"/>
<polygon fill="midnightblue" stroke="midnightblue" points="211.02,-61.4 202.34,-67.48 212.91,-68.14 211.02,-61.4"/>
</g>
<!-- Node18 -->
<g id="node18" class="node">
<title>Node18</title>
<g id="a_node18"><a xlink:href="VisitInterpreter_8cpp.html" target="_top" xlink:title=" ">
<polygon fill="white" stroke="black" points="91,-0.5 91,-30.5 214,-30.5 214,-0.5 91,-0.5"/>
<text text-anchor="start" x="99" y="-18.5" font-family="Helvetica,sans-Serif" font-size="10.00">TravellersApp/src/parser</text>
<text text-anchor="middle" x="152.5" y="-7.5" font-family="Helvetica,sans-Serif" font-size="10.00">/VisitInterpreter.cpp</text>
</a>
</g>
</g>
<!-- Node17&#45;&gt;Node18 -->
<g id="edge21" class="edge">
<title>Node17&#45;&gt;Node18</title>
<path fill="none" stroke="midnightblue" d="M152.5,-57.11C152.5,-48.15 152.5,-38.32 152.5,-30.58"/>
<polygon fill="midnightblue" stroke="midnightblue" points="149,-57.4 152.5,-67.4 156,-57.4 149,-57.4"/>
</g>
<!-- Node22&#45;&gt;Node13 -->
<g id="edge30" class="edge">
<title>Node22&#45;&gt;Node13</title>
<path fill="none" stroke="midnightblue" d="M342.09,-130.96C371.08,-120.48 407.41,-107.37 434.52,-97.58"/>
<polygon fill="midnightblue" stroke="midnightblue" points="340.77,-127.71 332.56,-134.4 343.15,-134.29 340.77,-127.71"/>
</g>
<!-- Node22&#45;&gt;Node15 -->
<g id="edge31" class="edge">
<title>Node22&#45;&gt;Node15</title>
<path fill="none" stroke="midnightblue" d="M365.21,-134.06C415.19,-123.98 483.42,-110.2 543.5,-98 546.58,-97.37 549.74,-96.73 552.93,-96.08"/>
<polygon fill="midnightblue" stroke="midnightblue" points="364.26,-130.68 355.15,-136.08 365.65,-137.54 364.26,-130.68"/>
</g>
<!-- Node22&#45;&gt;Node17 -->
<g id="edge32" class="edge">
<title>Node22&#45;&gt;Node17</title>
<path fill="none" stroke="midnightblue" d="M253.65,-130.13C231.25,-119.8 203.72,-107.11 183.04,-97.58"/>
<polygon fill="midnightblue" stroke="midnightblue" points="252.36,-133.39 262.91,-134.4 255.29,-127.03 252.36,-133.39"/>
</g>
<!-- Node23 -->
<g id="node23" class="node">
<title>Node23</title>
<g id="a_node23"><a xlink:href="Interpreter_8cpp.html" target="_top" xlink:title=" ">
<polygon fill="white" stroke="black" points="232,-67.5 232,-97.5 355,-97.5 355,-67.5 232,-67.5"/>
<text text-anchor="start" x="240" y="-85.5" font-family="Helvetica,sans-Serif" font-size="10.00">TravellersApp/src/parser</text>
<text text-anchor="middle" x="293.5" y="-74.5" font-family="Helvetica,sans-Serif" font-size="10.00">/Interpreter.cpp</text>
</a>
</g>
</g>
<!-- Node22&#45;&gt;Node23 -->
<g id="edge33" class="edge">
<title>Node22&#45;&gt;Node23</title>
<path fill="none" stroke="midnightblue" d="M293.5,-124.11C293.5,-115.15 293.5,-105.32 293.5,-97.58"/>
<polygon fill="midnightblue" stroke="midnightblue" points="290,-124.4 293.5,-134.4 297,-124.4 290,-124.4"/>
</g>
<!-- Node26&#45;&gt;Node11 -->
<g id="edge42" class="edge">
<title>Node26&#45;&gt;Node11</title>
<path fill="none" stroke="midnightblue" d="M588.43,-270.27C623.16,-257.37 676.99,-237.38 707.44,-226.06"/>
<polygon fill="midnightblue" stroke="midnightblue" points="586.89,-267.11 578.74,-273.87 589.33,-273.67 586.89,-267.11"/>
</g>
<!-- Node26&#45;&gt;Node12 -->
<g id="edge43" class="edge">
<title>Node26&#45;&gt;Node12</title>
<path fill="none" stroke="midnightblue" d="M563.5,-264.6C575.34,-238.11 597.29,-189.01 608.12,-164.78"/>
<polygon fill="midnightblue" stroke="midnightblue" points="560.26,-263.28 559.37,-273.84 566.65,-266.14 560.26,-263.28"/>
</g>
<!-- Node26&#45;&gt;Node17 -->
<g id="edge44" class="edge">
<title>Node26&#45;&gt;Node17</title>
<path fill="none" stroke="midnightblue" d="M498.46,-271.85C428.65,-256.78 309.05,-224.24 222.5,-165 195.72,-146.67 173,-115.61 161.2,-97.59"/>
<polygon fill="midnightblue" stroke="midnightblue" points="497.88,-275.3 508.39,-273.94 499.33,-268.45 497.88,-275.3"/>
</g>
</g>
</svg>
