<?xml version="1.0" encoding="UTF-8" standalone="no"?>
<!DOCTYPE svg PUBLIC "-//W3C//DTD SVG 1.1//EN"
 "http://www.w3.org/Graphics/SVG/1.1/DTD/svg11.dtd">
<!-- Generated by graphviz version 2.44.0 (0)
 -->
<!-- Title: TravellersApp/src/collection/ArraySet.hpp Pages: 1 -->
<svg width="798pt" height="319pt"
 viewBox="0.00 0.00 798.00 319.00" xmlns="http://www.w3.org/2000/svg" xmlns:xlink="http://www.w3.org/1999/xlink">
<g id="graph0" class="graph" transform="scale(1 1) rotate(0) translate(4 315)">
<title>TravellersApp/src/collection/ArraySet.hpp</title>
<polygon fill="white" stroke="transparent" points="-4,4 -4,-315 794,-315 794,4 -4,4"/>
<!-- Node1 -->
<g id="node1" class="node">
<title>Node1</title>
<g id="a_node1"><a xlink:title=" ">
<polygon fill="#bfbfbf" stroke="black" points="314,-280.5 314,-310.5 451,-310.5 451,-280.5 314,-280.5"/>
<text text-anchor="start" x="322" y="-298.5" font-family="Helvetica,sans-Serif" font-size="10.00">TravellersApp/src/collection</text>
<text text-anchor="middle" x="382.5" y="-287.5" font-family="Helvetica,sans-Serif" font-size="10.00">/ArraySet.hpp</text>
</a>
</g>
</g>
<!-- Node2 -->
<g id="node2" class="node">
<title>Node2</title>
<g id="a_node2"><a xlink:href="ArrayList_8hpp.html" target="_top" xlink:title=" ">
<polygon fill="white" stroke="black" points="345.5,-224.5 345.5,-243.5 419.5,-243.5 419.5,-224.5 345.5,-224.5"/>
<text text-anchor="middle" x="382.5" y="-231.5" font-family="Helvetica,sans-Serif" font-size="10.00">ArrayList.hpp</text>
</a>
</g>
</g>
<!-- Node1&#45;&gt;Node2 -->
<g id="edge1" class="edge">
<title>Node1&#45;&gt;Node2</title>
<path fill="none" stroke="midnightblue" d="M382.5,-280.4C382.5,-272.47 382.5,-262.46 382.5,-253.86"/>
<polygon fill="midnightblue" stroke="midnightblue" points="386,-253.66 382.5,-243.66 379,-253.66 386,-253.66"/>
</g>
<!-- Node3 -->
<g id="node3" class="node">
<title>Node3</title>
<g id="a_node3"><a xlink:title=" ">
<polygon fill="white" stroke="#bfbfbf" points="468,-112.5 468,-131.5 527,-131.5 527,-112.5 468,-112.5"/>
<text text-anchor="middle" x="497.5" y="-119.5" font-family="Helvetica,sans-Serif" font-size="10.00">functional</text>
</a>
</g>
</g>
<!-- Node2&#45;&gt;Node3 -->
<g id="edge2" class="edge">
<title>Node2&#45;&gt;Node3</title>
<path fill="none" stroke="midnightblue" d="M400.25,-224.4C415.53,-216.41 437.58,-203.45 453.5,-188 467.82,-174.1 480.16,-154.83 488.09,-140.89"/>
<polygon fill="midnightblue" stroke="midnightblue" points="491.32,-142.28 493.06,-131.82 485.18,-138.91 491.32,-142.28"/>
</g>
<!-- Node4 -->
<g id="node4" class="node">
<title>Node4</title>
<g id="a_node4"><a xlink:title=" ">
<polygon fill="white" stroke="#bfbfbf" points="288.5,-0.5 288.5,-19.5 342.5,-19.5 342.5,-0.5 288.5,-0.5"/>
<text text-anchor="middle" x="315.5" y="-7.5" font-family="Helvetica,sans-Serif" font-size="10.00">iostream</text>
</a>
</g>
</g>
<!-- Node2&#45;&gt;Node4 -->
<g id="edge3" class="edge">
<title>Node2&#45;&gt;Node4</title>
<path fill="none" stroke="midnightblue" d="M388.48,-224.43C406.57,-197.31 457.35,-111.89 420.5,-56 405.5,-33.25 376.36,-21.96 352.58,-16.38"/>
<polygon fill="midnightblue" stroke="midnightblue" points="353.28,-12.95 342.77,-14.32 351.84,-19.8 353.28,-12.95"/>
</g>
<!-- Node5 -->
<g id="node5" class="node">
<title>Node5</title>
<g id="a_node5"><a xlink:title=" ">
<polygon fill="white" stroke="#bfbfbf" points="322,-112.5 322,-131.5 373,-131.5 373,-112.5 322,-112.5"/>
<text text-anchor="middle" x="347.5" y="-119.5" font-family="Helvetica,sans-Serif" font-size="10.00">memory</text>
</a>
</g>
</g>
<!-- Node2&#45;&gt;Node5 -->
<g id="edge4" class="edge">
<title>Node2&#45;&gt;Node5</title>
<path fill="none" stroke="midnightblue" d="M379.75,-224.37C374.08,-206.54 360.96,-165.3 353.31,-141.27"/>
<polygon fill="midnightblue" stroke="midnightblue" points="356.6,-140.06 350.23,-131.59 349.93,-142.18 356.6,-140.06"/>
</g>
<!-- Node6 -->
<g id="node6" class="node">
<title>Node6</title>
<g id="a_node6"><a xlink:href="InvalidArgumentException_8hpp.html" target="_top" xlink:title=" ">
<polygon fill="white" stroke="black" points="0,-56.5 0,-75.5 155,-75.5 155,-56.5 0,-56.5"/>
<text text-anchor="middle" x="77.5" y="-63.5" font-family="Helvetica,sans-Serif" font-size="10.00">../InvalidArgumentException.hpp</text>
</a>
</g>
</g>
<!-- Node2&#45;&gt;Node6 -->
<g id="edge5" class="edge">
<title>Node2&#45;&gt;Node6</title>
<path fill="none" stroke="midnightblue" d="M353.61,-224.43C328.38,-216.46 291.11,-203.5 260.5,-188 197.14,-155.91 128.99,-106.37 96.64,-81.83"/>
<polygon fill="midnightblue" stroke="midnightblue" points="98.57,-78.9 88.5,-75.6 94.32,-84.46 98.57,-78.9"/>
</g>
<!-- Node9 -->
<g id="node9" class="node">
<title>Node9</title>
<g id="a_node9"><a xlink:href="debug_8hpp.html" target="_top" xlink:title=" ">
<polygon fill="white" stroke="black" points="343.5,-56.5 343.5,-75.5 411.5,-75.5 411.5,-56.5 343.5,-56.5"/>
<text text-anchor="middle" x="377.5" y="-63.5" font-family="Helvetica,sans-Serif" font-size="10.00">../debug.hpp</text>
</a>
</g>
</g>
<!-- Node2&#45;&gt;Node9 -->
<g id="edge9" class="edge">
<title>Node2&#45;&gt;Node9</title>
<path fill="none" stroke="midnightblue" d="M382.82,-224.48C383.5,-204.71 384.84,-154.16 382.5,-112 382.02,-103.36 381.03,-93.83 380.05,-85.77"/>
<polygon fill="midnightblue" stroke="midnightblue" points="383.49,-85.07 378.74,-75.6 376.55,-85.97 383.49,-85.07"/>
</g>
<!-- Node10 -->
<g id="node10" class="node">
<title>Node10</title>
<g id="a_node10"><a xlink:href="Nullable_8hpp.html" target="_top" xlink:title=" ">
<polygon fill="white" stroke="black" points="227,-112.5 227,-131.5 304,-131.5 304,-112.5 227,-112.5"/>
<text text-anchor="middle" x="265.5" y="-119.5" font-family="Helvetica,sans-Serif" font-size="10.00">../Nullable.hpp</text>
</a>
</g>
</g>
<!-- Node2&#45;&gt;Node10 -->
<g id="edge10" class="edge">
<title>Node2&#45;&gt;Node10</title>
<path fill="none" stroke="midnightblue" d="M345.38,-227.76C320.69,-222.22 289.74,-210.92 272.5,-188 262.59,-174.83 261.67,-155.69 262.73,-141.59"/>
<polygon fill="midnightblue" stroke="midnightblue" points="266.22,-141.9 263.87,-131.57 259.26,-141.11 266.22,-141.9"/>
</g>
<!-- Node12 -->
<g id="node12" class="node">
<title>Node12</title>
<g id="a_node12"><a xlink:href="IList_8hpp.html" target="_top" xlink:title=" ">
<polygon fill="white" stroke="black" points="281.5,-168.5 281.5,-187.5 335.5,-187.5 335.5,-168.5 281.5,-168.5"/>
<text text-anchor="middle" x="308.5" y="-175.5" font-family="Helvetica,sans-Serif" font-size="10.00">IList.hpp</text>
</a>
</g>
</g>
<!-- Node2&#45;&gt;Node12 -->
<g id="edge17" class="edge">
<title>Node2&#45;&gt;Node12</title>
<path fill="none" stroke="midnightblue" d="M370.61,-224.32C359.35,-216.11 342.21,-203.6 328.79,-193.81"/>
<polygon fill="midnightblue" stroke="midnightblue" points="330.75,-190.9 320.61,-187.83 326.62,-196.56 330.75,-190.9"/>
</g>
<!-- Node13 -->
<g id="node13" class="node">
<title>Node13</title>
<g id="a_node13"><a xlink:href="Tuple_8hpp.html" target="_top" xlink:title=" ">
<polygon fill="white" stroke="black" points="574,-168.5 574,-187.5 633,-187.5 633,-168.5 574,-168.5"/>
<text text-anchor="middle" x="603.5" y="-175.5" font-family="Helvetica,sans-Serif" font-size="10.00">Tuple.hpp</text>
</a>
</g>
</g>
<!-- Node2&#45;&gt;Node13 -->
<g id="edge20" class="edge">
<title>Node2&#45;&gt;Node13</title>
<path fill="none" stroke="midnightblue" d="M417.52,-224.44C457.43,-214.69 522.52,-198.79 564.16,-188.61"/>
<polygon fill="midnightblue" stroke="midnightblue" points="565.07,-191.99 573.95,-186.22 563.41,-185.19 565.07,-191.99"/>
</g>
<!-- Node6&#45;&gt;Node4 -->
<g id="edge8" class="edge">
<title>Node6&#45;&gt;Node4</title>
<path fill="none" stroke="midnightblue" d="M115.21,-56.44C159.96,-46.29 234.09,-29.47 278.52,-19.39"/>
<polygon fill="midnightblue" stroke="midnightblue" points="279.35,-22.79 288.33,-17.16 277.8,-15.96 279.35,-22.79"/>
</g>
<!-- Node7 -->
<g id="node7" class="node">
<title>Node7</title>
<g id="a_node7"><a xlink:title=" ">
<polygon fill="white" stroke="#bfbfbf" points="75.5,-0.5 75.5,-19.5 121.5,-19.5 121.5,-0.5 75.5,-0.5"/>
<text text-anchor="middle" x="98.5" y="-7.5" font-family="Helvetica,sans-Serif" font-size="10.00">cstring</text>
</a>
</g>
</g>
<!-- Node6&#45;&gt;Node7 -->
<g id="edge6" class="edge">
<title>Node6&#45;&gt;Node7</title>
<path fill="none" stroke="midnightblue" d="M80.97,-56.08C83.81,-48.77 87.93,-38.18 91.46,-29.1"/>
<polygon fill="midnightblue" stroke="midnightblue" points="94.73,-30.34 95.1,-19.75 88.21,-27.8 94.73,-30.34"/>
</g>
<!-- Node8 -->
<g id="node8" class="node">
<title>Node8</title>
<g id="a_node8"><a xlink:title=" ">
<polygon fill="white" stroke="#bfbfbf" points="180.5,-0.5 180.5,-19.5 238.5,-19.5 238.5,-0.5 180.5,-0.5"/>
<text text-anchor="middle" x="209.5" y="-7.5" font-family="Helvetica,sans-Serif" font-size="10.00">exception</text>
</a>
</g>
</g>
<!-- Node6&#45;&gt;Node8 -->
<g id="edge7" class="edge">
<title>Node6&#45;&gt;Node8</title>
<path fill="none" stroke="midnightblue" d="M98.42,-56.44C120.24,-47.52 154.65,-33.44 179.39,-23.32"/>
<polygon fill="midnightblue" stroke="midnightblue" points="180.75,-26.54 188.68,-19.52 178.1,-20.06 180.75,-26.54"/>
</g>
<!-- Node10&#45;&gt;Node4 -->
<g id="edge16" class="edge">
<title>Node10&#45;&gt;Node4</title>
<path fill="none" stroke="midnightblue" d="M272.82,-112.22C279.76,-103.51 290.06,-89.54 296.5,-76 303.6,-61.07 308.63,-42.93 311.73,-29.61"/>
<polygon fill="midnightblue" stroke="midnightblue" points="315.17,-30.25 313.87,-19.73 308.33,-28.76 315.17,-30.25"/>
</g>
<!-- Node10&#45;&gt;Node9 -->
<g id="edge15" class="edge">
<title>Node10&#45;&gt;Node9</title>
<path fill="none" stroke="midnightblue" d="M283.49,-112.32C301.54,-103.62 329.55,-90.12 350.3,-80.11"/>
<polygon fill="midnightblue" stroke="midnightblue" points="352.06,-83.15 359.55,-75.65 349.02,-76.84 352.06,-83.15"/>
</g>
<!-- Node11 -->
<g id="node11" class="node">
<title>Node11</title>
<g id="a_node11"><a xlink:href="NoValueException_8hpp.html" target="_top" xlink:title=" ">
<polygon fill="white" stroke="black" points="173.5,-56.5 173.5,-75.5 287.5,-75.5 287.5,-56.5 173.5,-56.5"/>
<text text-anchor="middle" x="230.5" y="-63.5" font-family="Helvetica,sans-Serif" font-size="10.00">NoValueException.hpp</text>
</a>
</g>
</g>
<!-- Node10&#45;&gt;Node11 -->
<g id="edge11" class="edge">
<title>Node10&#45;&gt;Node11</title>
<path fill="none" stroke="midnightblue" d="M259.72,-112.08C254.83,-104.53 247.67,-93.49 241.67,-84.23"/>
<polygon fill="midnightblue" stroke="midnightblue" points="244.55,-82.24 236.17,-75.75 238.67,-86.05 244.55,-82.24"/>
</g>
<!-- Node11&#45;&gt;Node4 -->
<g id="edge14" class="edge">
<title>Node11&#45;&gt;Node4</title>
<path fill="none" stroke="midnightblue" d="M244.16,-56.32C257.42,-47.9 277.77,-34.97 293.35,-25.07"/>
<polygon fill="midnightblue" stroke="midnightblue" points="295.31,-27.97 301.88,-19.65 291.56,-22.06 295.31,-27.97"/>
</g>
<!-- Node11&#45;&gt;Node7 -->
<g id="edge12" class="edge">
<title>Node11&#45;&gt;Node7</title>
<path fill="none" stroke="midnightblue" d="M209.58,-56.44C187.76,-47.52 153.35,-33.44 128.61,-23.32"/>
<polygon fill="midnightblue" stroke="midnightblue" points="129.9,-20.06 119.32,-19.52 127.25,-26.54 129.9,-20.06"/>
</g>
<!-- Node11&#45;&gt;Node8 -->
<g id="edge13" class="edge">
<title>Node11&#45;&gt;Node8</title>
<path fill="none" stroke="midnightblue" d="M227.03,-56.08C224.19,-48.77 220.07,-38.18 216.54,-29.1"/>
<polygon fill="midnightblue" stroke="midnightblue" points="219.79,-27.8 212.9,-19.75 213.27,-30.34 219.79,-27.8"/>
</g>
<!-- Node12&#45;&gt;Node5 -->
<g id="edge19" class="edge">
<title>Node12&#45;&gt;Node5</title>
<path fill="none" stroke="midnightblue" d="M314.94,-168.08C320.45,-160.46 328.53,-149.26 335.26,-139.94"/>
<polygon fill="midnightblue" stroke="midnightblue" points="338.16,-141.91 341.18,-131.75 332.49,-137.81 338.16,-141.91"/>
</g>
<!-- Node12&#45;&gt;Node10 -->
<g id="edge18" class="edge">
<title>Node12&#45;&gt;Node10</title>
<path fill="none" stroke="midnightblue" d="M301.4,-168.08C295.26,-160.38 286.23,-149.03 278.76,-139.65"/>
<polygon fill="midnightblue" stroke="midnightblue" points="281.44,-137.39 272.47,-131.75 275.96,-141.75 281.44,-137.39"/>
</g>
<!-- Node13&#45;&gt;Node3 -->
<g id="edge23" class="edge">
<title>Node13&#45;&gt;Node3</title>
<path fill="none" stroke="midnightblue" d="M586.47,-168.32C569.47,-159.66 543.12,-146.24 523.51,-136.25"/>
<polygon fill="midnightblue" stroke="midnightblue" points="524.99,-133.08 514.49,-131.65 521.81,-139.31 524.99,-133.08"/>
</g>
<!-- Node13&#45;&gt;Node4 -->
<g id="edge24" class="edge">
<title>Node13&#45;&gt;Node4</title>
<path fill="none" stroke="midnightblue" d="M628.02,-168.47C656.58,-157.19 697.68,-135.91 679.5,-112 639.54,-59.44 437.26,-27.08 352.72,-15.66"/>
<polygon fill="midnightblue" stroke="midnightblue" points="353.15,-12.18 342.77,-14.34 352.23,-19.12 353.15,-12.18"/>
</g>
<!-- Node14 -->
<g id="node14" class="node">
<title>Node14</title>
<g id="a_node14"><a xlink:href="ttype_8hpp.html" target="_top" xlink:title=" ">
<polygon fill="white" stroke="black" points="727,-112.5 727,-131.5 790,-131.5 790,-112.5 727,-112.5"/>
<text text-anchor="middle" x="758.5" y="-119.5" font-family="Helvetica,sans-Serif" font-size="10.00">../ttype.hpp</text>
</a>
</g>
</g>
<!-- Node13&#45;&gt;Node14 -->
<g id="edge21" class="edge">
<title>Node13&#45;&gt;Node14</title>
<path fill="none" stroke="midnightblue" d="M628.06,-168.44C654.02,-159.4 695.17,-145.06 724.3,-134.92"/>
<polygon fill="midnightblue" stroke="midnightblue" points="725.76,-138.11 734.05,-131.52 723.46,-131.5 725.76,-138.11"/>
</g>
<!-- Node15 -->
<g id="node15" class="node">
<title>Node15</title>
<g id="a_node15"><a xlink:title=" ">
<polygon fill="white" stroke="#bfbfbf" points="545,-112.5 545,-131.5 590,-131.5 590,-112.5 545,-112.5"/>
<text text-anchor="middle" x="567.5" y="-119.5" font-family="Helvetica,sans-Serif" font-size="10.00">cstdlib</text>
</a>
</g>
</g>
<!-- Node13&#45;&gt;Node15 -->
<g id="edge22" class="edge">
<title>Node13&#45;&gt;Node15</title>
<path fill="none" stroke="midnightblue" d="M597.56,-168.08C592.52,-160.53 585.16,-149.49 578.99,-140.23"/>
<polygon fill="midnightblue" stroke="midnightblue" points="581.79,-138.13 573.33,-131.75 575.97,-142.01 581.79,-138.13"/>
</g>
<!-- Node16 -->
<g id="node16" class="node">
<title>Node16</title>
<g id="a_node16"><a xlink:title=" ">
<polygon fill="white" stroke="#bfbfbf" points="608.5,-112.5 608.5,-131.5 670.5,-131.5 670.5,-112.5 608.5,-112.5"/>
<text text-anchor="middle" x="639.5" y="-119.5" font-family="Helvetica,sans-Serif" font-size="10.00">type_traits</text>
</a>
</g>
</g>
<!-- Node13&#45;&gt;Node16 -->
<g id="edge25" class="edge">
<title>Node13&#45;&gt;Node16</title>
<path fill="none" stroke="midnightblue" d="M609.44,-168.08C614.48,-160.53 621.84,-149.49 628.01,-140.23"/>
<polygon fill="midnightblue" stroke="midnightblue" points="631.03,-142.01 633.67,-131.75 625.21,-138.13 631.03,-142.01"/>
</g>
</g>
</svg>
