<?xml version="1.0" encoding="UTF-8" standalone="no"?>
<!DOCTYPE svg PUBLIC "-//W3C//DTD SVG 1.1//EN"
 "http://www.w3.org/Graphics/SVG/1.1/DTD/svg11.dtd">
<!-- Generated by graphviz version 2.44.0 (0)
 -->
<!-- Title: TravellersApp/src/collection/BinaryNode.hpp Pages: 1 -->
<svg width="679pt" height="375pt"
 viewBox="0.00 0.00 678.67 375.00" xmlns="http://www.w3.org/2000/svg" xmlns:xlink="http://www.w3.org/1999/xlink">
<g id="graph0" class="graph" transform="scale(1 1) rotate(0) translate(4 371)">
<title>TravellersApp/src/collection/BinaryNode.hpp</title>
<polygon fill="white" stroke="transparent" points="-4,4 -4,-371 674.67,-371 674.67,4 -4,4"/>
<!-- Node1 -->
<g id="node1" class="node">
<title>Node1</title>
<g id="a_node1"><a xlink:title=" ">
<polygon fill="#bfbfbf" stroke="black" points="346.5,-336.5 346.5,-366.5 483.5,-366.5 483.5,-336.5 346.5,-336.5"/>
<text text-anchor="start" x="354.5" y="-354.5" font-family="Helvetica,sans-Serif" font-size="10.00">TravellersApp/src/collection</text>
<text text-anchor="middle" x="415" y="-343.5" font-family="Helvetica,sans-Serif" font-size="10.00">/BinaryNode.hpp</text>
</a>
</g>
</g>
<!-- Node2 -->
<g id="node2" class="node">
<title>Node2</title>
<g id="a_node2"><a xlink:title=" ">
<polygon fill="white" stroke="#bfbfbf" points="610.5,-112.5 610.5,-131.5 661.5,-131.5 661.5,-112.5 610.5,-112.5"/>
<text text-anchor="middle" x="636" y="-119.5" font-family="Helvetica,sans-Serif" font-size="10.00">memory</text>
</a>
</g>
</g>
<!-- Node1&#45;&gt;Node2 -->
<g id="edge1" class="edge">
<title>Node1&#45;&gt;Node2</title>
<path fill="none" stroke="midnightblue" d="M483.57,-340.96C520.74,-333.67 566.42,-321.13 603,-300 633.48,-282.39 644.1,-275.89 659,-244 673.33,-213.33 673.3,-200.55 664,-168 661.1,-157.84 655.17,-147.75 649.51,-139.7"/>
<polygon fill="midnightblue" stroke="midnightblue" points="652.22,-137.48 643.41,-131.59 646.62,-141.69 652.22,-137.48"/>
</g>
<!-- Node3 -->
<g id="node3" class="node">
<title>Node3</title>
<g id="a_node3"><a xlink:title=" ">
<polygon fill="white" stroke="#bfbfbf" points="66.5,-112.5 66.5,-131.5 125.5,-131.5 125.5,-112.5 66.5,-112.5"/>
<text text-anchor="middle" x="96" y="-119.5" font-family="Helvetica,sans-Serif" font-size="10.00">functional</text>
</a>
</g>
</g>
<!-- Node1&#45;&gt;Node3 -->
<g id="edge2" class="edge">
<title>Node1&#45;&gt;Node3</title>
<path fill="none" stroke="midnightblue" d="M388.57,-336.46C340.55,-310.38 236.77,-251.32 159,-188 140.63,-173.05 122.05,-153.17 109.88,-139.35"/>
<polygon fill="midnightblue" stroke="midnightblue" points="112.38,-136.89 103.19,-131.63 107.09,-141.48 112.38,-136.89"/>
</g>
<!-- Node4 -->
<g id="node4" class="node">
<title>Node4</title>
<g id="a_node4"><a xlink:title=" ">
<polygon fill="white" stroke="#bfbfbf" points="364,-280.5 364,-299.5 414,-299.5 414,-280.5 364,-280.5"/>
<text text-anchor="middle" x="389" y="-287.5" font-family="Helvetica,sans-Serif" font-size="10.00">iomanip</text>
</a>
</g>
</g>
<!-- Node1&#45;&gt;Node4 -->
<g id="edge3" class="edge">
<title>Node1&#45;&gt;Node4</title>
<path fill="none" stroke="midnightblue" d="M408.84,-336.4C405.26,-328.2 400.7,-317.78 396.86,-308.99"/>
<polygon fill="midnightblue" stroke="midnightblue" points="399.99,-307.42 392.78,-299.66 393.58,-310.22 399.99,-307.42"/>
</g>
<!-- Node5 -->
<g id="node5" class="node">
<title>Node5</title>
<g id="a_node5"><a xlink:title=" ">
<polygon fill="white" stroke="#bfbfbf" points="146,-0.5 146,-19.5 200,-19.5 200,-0.5 146,-0.5"/>
<text text-anchor="middle" x="173" y="-7.5" font-family="Helvetica,sans-Serif" font-size="10.00">iostream</text>
</a>
</g>
</g>
<!-- Node1&#45;&gt;Node5 -->
<g id="edge4" class="edge">
<title>Node1&#45;&gt;Node5</title>
<path fill="none" stroke="midnightblue" d="M346.47,-345.59C228.6,-335.26 0,-306.05 0,-235 0,-235 0,-235 0,-121 0,-57.07 85.17,-28.7 135.99,-17.46"/>
<polygon fill="midnightblue" stroke="midnightblue" points="136.9,-20.85 145.97,-15.37 135.46,-13.99 136.9,-20.85"/>
</g>
<!-- Node6 -->
<g id="node6" class="node">
<title>Node6</title>
<g id="a_node6"><a xlink:href="ArrayList_8hpp.html" target="_top" xlink:title=" ">
<polygon fill="white" stroke="black" points="405,-224.5 405,-243.5 479,-243.5 479,-224.5 405,-224.5"/>
<text text-anchor="middle" x="442" y="-231.5" font-family="Helvetica,sans-Serif" font-size="10.00">ArrayList.hpp</text>
</a>
</g>
</g>
<!-- Node1&#45;&gt;Node6 -->
<g id="edge5" class="edge">
<title>Node1&#45;&gt;Node6</title>
<path fill="none" stroke="midnightblue" d="M418.31,-336.34C423.18,-315.53 432.26,-276.66 437.66,-253.58"/>
<polygon fill="midnightblue" stroke="midnightblue" points="441.11,-254.2 439.97,-243.67 434.29,-252.61 441.11,-254.2"/>
</g>
<!-- Node18 -->
<g id="node18" class="node">
<title>Node18</title>
<g id="a_node18"><a xlink:href="Stack_8hpp.html" target="_top" xlink:title=" ">
<polygon fill="white" stroke="black" points="534,-280.5 534,-299.5 594,-299.5 594,-280.5 534,-280.5"/>
<text text-anchor="middle" x="564" y="-287.5" font-family="Helvetica,sans-Serif" font-size="10.00">Stack.hpp</text>
</a>
</g>
</g>
<!-- Node1&#45;&gt;Node18 -->
<g id="edge30" class="edge">
<title>Node1&#45;&gt;Node18</title>
<path fill="none" stroke="midnightblue" d="M450.31,-336.4C475.42,-326.37 508.84,-313.03 532.94,-303.4"/>
<polygon fill="midnightblue" stroke="midnightblue" points="534.33,-306.62 542.32,-299.66 531.73,-300.12 534.33,-306.62"/>
</g>
<!-- Node6&#45;&gt;Node2 -->
<g id="edge8" class="edge">
<title>Node6&#45;&gt;Node2</title>
<path fill="none" stroke="midnightblue" d="M476.54,-224.49C502.39,-217.19 537.95,-205.13 566,-188 587.77,-174.71 608.65,-153.92 621.85,-139.45"/>
<polygon fill="midnightblue" stroke="midnightblue" points="624.66,-141.56 628.68,-131.76 619.42,-136.91 624.66,-141.56"/>
</g>
<!-- Node6&#45;&gt;Node3 -->
<g id="edge6" class="edge">
<title>Node6&#45;&gt;Node3</title>
<path fill="none" stroke="midnightblue" d="M404.67,-230.23C356.47,-225.71 270.63,-214.44 202,-188 169.36,-175.43 135.58,-152.73 115.17,-137.76"/>
<polygon fill="midnightblue" stroke="midnightblue" points="117.14,-134.87 107.04,-131.68 112.95,-140.47 117.14,-134.87"/>
</g>
<!-- Node6&#45;&gt;Node5 -->
<g id="edge7" class="edge">
<title>Node6&#45;&gt;Node5</title>
<path fill="none" stroke="midnightblue" d="M404.84,-231.16C349.8,-227.53 243.96,-217.09 159,-188 110.07,-171.25 83.34,-176.51 57,-132 29.93,-86.25 100.56,-44.18 143.24,-23.83"/>
<polygon fill="midnightblue" stroke="midnightblue" points="144.79,-26.97 152.39,-19.6 141.85,-20.62 144.79,-26.97"/>
</g>
<!-- Node7 -->
<g id="node7" class="node">
<title>Node7</title>
<g id="a_node7"><a xlink:href="InvalidArgumentException_8hpp.html" target="_top" xlink:title=" ">
<polygon fill="white" stroke="black" points="220.5,-56.5 220.5,-75.5 375.5,-75.5 375.5,-56.5 220.5,-56.5"/>
<text text-anchor="middle" x="298" y="-63.5" font-family="Helvetica,sans-Serif" font-size="10.00">../InvalidArgumentException.hpp</text>
</a>
</g>
</g>
<!-- Node6&#45;&gt;Node7 -->
<g id="edge9" class="edge">
<title>Node6&#45;&gt;Node7</title>
<path fill="none" stroke="midnightblue" d="M441.13,-224.19C438.55,-202.41 429.03,-145.42 398,-112 383.55,-96.44 362.7,-85.89 343.78,-78.95"/>
<polygon fill="midnightblue" stroke="midnightblue" points="344.7,-75.56 334.1,-75.64 342.43,-82.19 344.7,-75.56"/>
</g>
<!-- Node10 -->
<g id="node10" class="node">
<title>Node10</title>
<g id="a_node10"><a xlink:href="debug_8hpp.html" target="_top" xlink:title=" ">
<polygon fill="white" stroke="black" points="526,-56.5 526,-75.5 594,-75.5 594,-56.5 526,-56.5"/>
<text text-anchor="middle" x="560" y="-63.5" font-family="Helvetica,sans-Serif" font-size="10.00">../debug.hpp</text>
</a>
</g>
</g>
<!-- Node6&#45;&gt;Node10 -->
<g id="edge13" class="edge">
<title>Node6&#45;&gt;Node10</title>
<path fill="none" stroke="midnightblue" d="M475.26,-224.43C494.89,-217.69 518.63,-206.3 533,-188 556.51,-158.05 560.42,-111.71 560.59,-85.94"/>
<polygon fill="midnightblue" stroke="midnightblue" points="564.09,-85.63 560.47,-75.67 557.09,-85.72 564.09,-85.63"/>
</g>
<!-- Node11 -->
<g id="node11" class="node">
<title>Node11</title>
<g id="a_node11"><a xlink:href="Nullable_8hpp.html" target="_top" xlink:title=" ">
<polygon fill="white" stroke="black" points="446.5,-112.5 446.5,-131.5 523.5,-131.5 523.5,-112.5 446.5,-112.5"/>
<text text-anchor="middle" x="485" y="-119.5" font-family="Helvetica,sans-Serif" font-size="10.00">../Nullable.hpp</text>
</a>
</g>
</g>
<!-- Node6&#45;&gt;Node11 -->
<g id="edge14" class="edge">
<title>Node6&#45;&gt;Node11</title>
<path fill="none" stroke="midnightblue" d="M443.92,-224.4C446.86,-211.77 453.01,-187.6 461,-168 464.8,-158.67 469.96,-148.75 474.53,-140.6"/>
<polygon fill="midnightblue" stroke="midnightblue" points="477.7,-142.11 479.66,-131.7 471.63,-138.62 477.7,-142.11"/>
</g>
<!-- Node13 -->
<g id="node13" class="node">
<title>Node13</title>
<g id="a_node13"><a xlink:href="IList_8hpp.html" target="_top" xlink:title=" ">
<polygon fill="white" stroke="black" points="470,-168.5 470,-187.5 524,-187.5 524,-168.5 470,-168.5"/>
<text text-anchor="middle" x="497" y="-175.5" font-family="Helvetica,sans-Serif" font-size="10.00">IList.hpp</text>
</a>
</g>
</g>
<!-- Node6&#45;&gt;Node13 -->
<g id="edge21" class="edge">
<title>Node6&#45;&gt;Node13</title>
<path fill="none" stroke="midnightblue" d="M451.08,-224.08C459.17,-216.14 471.2,-204.34 480.91,-194.8"/>
<polygon fill="midnightblue" stroke="midnightblue" points="483.4,-197.25 488.09,-187.75 478.5,-192.26 483.4,-197.25"/>
</g>
<!-- Node14 -->
<g id="node14" class="node">
<title>Node14</title>
<g id="a_node14"><a xlink:href="Tuple_8hpp.html" target="_top" xlink:title=" ">
<polygon fill="white" stroke="black" points="211.5,-168.5 211.5,-187.5 270.5,-187.5 270.5,-168.5 211.5,-168.5"/>
<text text-anchor="middle" x="241" y="-175.5" font-family="Helvetica,sans-Serif" font-size="10.00">Tuple.hpp</text>
</a>
</g>
</g>
<!-- Node6&#45;&gt;Node14 -->
<g id="edge24" class="edge">
<title>Node6&#45;&gt;Node14</title>
<path fill="none" stroke="midnightblue" d="M410.15,-224.44C374.99,-215 318.36,-199.78 280.43,-189.59"/>
<polygon fill="midnightblue" stroke="midnightblue" points="281.3,-186.2 270.73,-186.99 279.48,-192.96 281.3,-186.2"/>
</g>
<!-- Node7&#45;&gt;Node5 -->
<g id="edge12" class="edge">
<title>Node7&#45;&gt;Node5</title>
<path fill="none" stroke="midnightblue" d="M278.19,-56.44C257.71,-47.6 225.52,-33.69 202.14,-23.59"/>
<polygon fill="midnightblue" stroke="midnightblue" points="203.28,-20.27 192.71,-19.52 200.51,-26.7 203.28,-20.27"/>
</g>
<!-- Node8 -->
<g id="node8" class="node">
<title>Node8</title>
<g id="a_node8"><a xlink:title=" ">
<polygon fill="white" stroke="#bfbfbf" points="296,-0.5 296,-19.5 342,-19.5 342,-0.5 296,-0.5"/>
<text text-anchor="middle" x="319" y="-7.5" font-family="Helvetica,sans-Serif" font-size="10.00">cstring</text>
</a>
</g>
</g>
<!-- Node7&#45;&gt;Node8 -->
<g id="edge10" class="edge">
<title>Node7&#45;&gt;Node8</title>
<path fill="none" stroke="midnightblue" d="M301.47,-56.08C304.31,-48.77 308.43,-38.18 311.96,-29.1"/>
<polygon fill="midnightblue" stroke="midnightblue" points="315.23,-30.34 315.6,-19.75 308.71,-27.8 315.23,-30.34"/>
</g>
<!-- Node9 -->
<g id="node9" class="node">
<title>Node9</title>
<g id="a_node9"><a xlink:title=" ">
<polygon fill="white" stroke="#bfbfbf" points="401,-0.5 401,-19.5 459,-19.5 459,-0.5 401,-0.5"/>
<text text-anchor="middle" x="430" y="-7.5" font-family="Helvetica,sans-Serif" font-size="10.00">exception</text>
</a>
</g>
</g>
<!-- Node7&#45;&gt;Node9 -->
<g id="edge11" class="edge">
<title>Node7&#45;&gt;Node9</title>
<path fill="none" stroke="midnightblue" d="M318.92,-56.44C340.74,-47.52 375.15,-33.44 399.89,-23.32"/>
<polygon fill="midnightblue" stroke="midnightblue" points="401.25,-26.54 409.18,-19.52 398.6,-20.06 401.25,-26.54"/>
</g>
<!-- Node11&#45;&gt;Node5 -->
<g id="edge20" class="edge">
<title>Node11&#45;&gt;Node5</title>
<path fill="none" stroke="midnightblue" d="M446.32,-116.49C375.41,-107.96 230.12,-89.14 211,-76 194.88,-64.92 184.62,-44.57 178.88,-29.59"/>
<polygon fill="midnightblue" stroke="midnightblue" points="182.07,-28.12 175.48,-19.83 175.46,-30.43 182.07,-28.12"/>
</g>
<!-- Node11&#45;&gt;Node10 -->
<g id="edge19" class="edge">
<title>Node11&#45;&gt;Node10</title>
<path fill="none" stroke="midnightblue" d="M497.05,-112.32C508.46,-104.11 525.83,-91.6 539.43,-81.81"/>
<polygon fill="midnightblue" stroke="midnightblue" points="541.66,-84.52 547.73,-75.83 537.57,-78.84 541.66,-84.52"/>
</g>
<!-- Node12 -->
<g id="node12" class="node">
<title>Node12</title>
<g id="a_node12"><a xlink:href="NoValueException_8hpp.html" target="_top" xlink:title=" ">
<polygon fill="white" stroke="black" points="394,-56.5 394,-75.5 508,-75.5 508,-56.5 394,-56.5"/>
<text text-anchor="middle" x="451" y="-63.5" font-family="Helvetica,sans-Serif" font-size="10.00">NoValueException.hpp</text>
</a>
</g>
</g>
<!-- Node11&#45;&gt;Node12 -->
<g id="edge15" class="edge">
<title>Node11&#45;&gt;Node12</title>
<path fill="none" stroke="midnightblue" d="M479.39,-112.08C474.63,-104.53 467.68,-93.49 461.85,-84.23"/>
<polygon fill="midnightblue" stroke="midnightblue" points="464.8,-82.35 456.51,-75.75 458.88,-86.08 464.8,-82.35"/>
</g>
<!-- Node12&#45;&gt;Node5 -->
<g id="edge18" class="edge">
<title>Node12&#45;&gt;Node5</title>
<path fill="none" stroke="midnightblue" d="M406.95,-56.44C352.52,-45.87 260.88,-28.07 209.95,-18.18"/>
<polygon fill="midnightblue" stroke="midnightblue" points="210.52,-14.72 200.03,-16.25 209.18,-21.59 210.52,-14.72"/>
</g>
<!-- Node12&#45;&gt;Node8 -->
<g id="edge16" class="edge">
<title>Node12&#45;&gt;Node8</title>
<path fill="none" stroke="midnightblue" d="M430.08,-56.44C408.26,-47.52 373.85,-33.44 349.11,-23.32"/>
<polygon fill="midnightblue" stroke="midnightblue" points="350.4,-20.06 339.82,-19.52 347.75,-26.54 350.4,-20.06"/>
</g>
<!-- Node12&#45;&gt;Node9 -->
<g id="edge17" class="edge">
<title>Node12&#45;&gt;Node9</title>
<path fill="none" stroke="midnightblue" d="M447.53,-56.08C444.69,-48.77 440.57,-38.18 437.04,-29.1"/>
<polygon fill="midnightblue" stroke="midnightblue" points="440.29,-27.8 433.4,-19.75 433.77,-30.34 440.29,-27.8"/>
</g>
<!-- Node13&#45;&gt;Node2 -->
<g id="edge23" class="edge">
<title>Node13&#45;&gt;Node2</title>
<path fill="none" stroke="midnightblue" d="M519.02,-168.44C542.1,-159.48 578.56,-145.31 604.64,-135.18"/>
<polygon fill="midnightblue" stroke="midnightblue" points="606.02,-138.4 614.08,-131.52 603.49,-131.88 606.02,-138.4"/>
</g>
<!-- Node13&#45;&gt;Node11 -->
<g id="edge22" class="edge">
<title>Node13&#45;&gt;Node11</title>
<path fill="none" stroke="midnightblue" d="M495.02,-168.08C493.43,-160.93 491.14,-150.64 489.15,-141.69"/>
<polygon fill="midnightblue" stroke="midnightblue" points="492.53,-140.75 486.94,-131.75 485.7,-142.27 492.53,-140.75"/>
</g>
<!-- Node14&#45;&gt;Node3 -->
<g id="edge27" class="edge">
<title>Node14&#45;&gt;Node3</title>
<path fill="none" stroke="midnightblue" d="M218.02,-168.44C193.84,-159.44 155.58,-145.19 128.35,-135.05"/>
<polygon fill="midnightblue" stroke="midnightblue" points="129.46,-131.73 118.87,-131.52 127.02,-138.29 129.46,-131.73"/>
</g>
<!-- Node14&#45;&gt;Node5 -->
<g id="edge28" class="edge">
<title>Node14&#45;&gt;Node5</title>
<path fill="none" stroke="midnightblue" d="M217.55,-168.41C201.84,-161.28 182.38,-149.46 173,-132 155.5,-99.43 162.06,-54.43 167.88,-29.51"/>
<polygon fill="midnightblue" stroke="midnightblue" points="171.33,-30.14 170.4,-19.58 164.54,-28.41 171.33,-30.14"/>
</g>
<!-- Node15 -->
<g id="node15" class="node">
<title>Node15</title>
<g id="a_node15"><a xlink:href="ttype_8hpp.html" target="_top" xlink:title=" ">
<polygon fill="white" stroke="black" points="326.5,-112.5 326.5,-131.5 389.5,-131.5 389.5,-112.5 326.5,-112.5"/>
<text text-anchor="middle" x="358" y="-119.5" font-family="Helvetica,sans-Serif" font-size="10.00">../ttype.hpp</text>
</a>
</g>
</g>
<!-- Node14&#45;&gt;Node15 -->
<g id="edge25" class="edge">
<title>Node14&#45;&gt;Node15</title>
<path fill="none" stroke="midnightblue" d="M259.54,-168.44C278.62,-159.64 308.57,-145.81 330.44,-135.72"/>
<polygon fill="midnightblue" stroke="midnightblue" points="331.93,-138.88 339.55,-131.52 329,-132.53 331.93,-138.88"/>
</g>
<!-- Node16 -->
<g id="node16" class="node">
<title>Node16</title>
<g id="a_node16"><a xlink:title=" ">
<polygon fill="white" stroke="#bfbfbf" points="182.5,-112.5 182.5,-131.5 227.5,-131.5 227.5,-112.5 182.5,-112.5"/>
<text text-anchor="middle" x="205" y="-119.5" font-family="Helvetica,sans-Serif" font-size="10.00">cstdlib</text>
</a>
</g>
</g>
<!-- Node14&#45;&gt;Node16 -->
<g id="edge26" class="edge">
<title>Node14&#45;&gt;Node16</title>
<path fill="none" stroke="midnightblue" d="M235.06,-168.08C230.02,-160.53 222.66,-149.49 216.49,-140.23"/>
<polygon fill="midnightblue" stroke="midnightblue" points="219.29,-138.13 210.83,-131.75 213.47,-142.01 219.29,-138.13"/>
</g>
<!-- Node17 -->
<g id="node17" class="node">
<title>Node17</title>
<g id="a_node17"><a xlink:title=" ">
<polygon fill="white" stroke="#bfbfbf" points="246,-112.5 246,-131.5 308,-131.5 308,-112.5 246,-112.5"/>
<text text-anchor="middle" x="277" y="-119.5" font-family="Helvetica,sans-Serif" font-size="10.00">type_traits</text>
</a>
</g>
</g>
<!-- Node14&#45;&gt;Node17 -->
<g id="edge29" class="edge">
<title>Node14&#45;&gt;Node17</title>
<path fill="none" stroke="midnightblue" d="M246.94,-168.08C251.98,-160.53 259.34,-149.49 265.51,-140.23"/>
<polygon fill="midnightblue" stroke="midnightblue" points="268.53,-142.01 271.17,-131.75 262.71,-138.13 268.53,-142.01"/>
</g>
<!-- Node18&#45;&gt;Node2 -->
<g id="edge31" class="edge">
<title>Node18&#45;&gt;Node2</title>
<path fill="none" stroke="midnightblue" d="M593.12,-280.44C610.64,-273.62 631.52,-262.14 642,-244 660.6,-211.79 650.64,-166.35 642.7,-141.32"/>
<polygon fill="midnightblue" stroke="midnightblue" points="645.95,-139.99 639.41,-131.66 639.32,-142.25 645.95,-139.99"/>
</g>
<!-- Node18&#45;&gt;Node6 -->
<g id="edge33" class="edge">
<title>Node18&#45;&gt;Node6</title>
<path fill="none" stroke="midnightblue" d="M544.67,-280.44C524.68,-271.6 493.26,-257.69 470.44,-247.59"/>
<polygon fill="midnightblue" stroke="midnightblue" points="471.8,-244.36 461.24,-243.52 468.97,-250.76 471.8,-244.36"/>
</g>
<!-- Node18&#45;&gt;Node11 -->
<g id="edge32" class="edge">
<title>Node18&#45;&gt;Node11</title>
<path fill="none" stroke="midnightblue" d="M563.45,-280.46C561.77,-259.77 555.41,-205.89 533,-168 526.07,-156.29 515.2,-145.74 505.55,-137.8"/>
<polygon fill="midnightblue" stroke="midnightblue" points="507.56,-134.92 497.52,-131.53 503.25,-140.44 507.56,-134.92"/>
</g>
</g>
</svg>
