<?xml version="1.0" encoding="UTF-8" standalone="no"?>
<!DOCTYPE svg PUBLIC "-//W3C//DTD SVG 1.1//EN"
 "http://www.w3.org/Graphics/SVG/1.1/DTD/svg11.dtd">
<!-- Generated by graphviz version 2.44.0 (0)
 -->
<!-- Title: Interpreter&lt; Controller &gt; Pages: 1 -->
<svg width="399pt" height="152pt"
 viewBox="0.00 0.00 398.50 152.00" xmlns="http://www.w3.org/2000/svg" xmlns:xlink="http://www.w3.org/1999/xlink">
<g id="graph0" class="graph" transform="scale(1 1) rotate(0) translate(4 148)">
<title>Interpreter&lt; Controller &gt;</title>
<polygon fill="white" stroke="transparent" points="-4,4 -4,-148 394.5,-148 394.5,4 -4,4"/>
<!-- Node1 -->
<g id="node1" class="node">
<title>Node1</title>
<g id="a_node1"><a xlink:title="A interface for command&#45;line interpreters.">
<polygon fill="#bfbfbf" stroke="black" points="193.5,-124.5 193.5,-143.5 312.5,-143.5 312.5,-124.5 193.5,-124.5"/>
<text text-anchor="middle" x="253" y="-131.5" font-family="Helvetica,sans-Serif" font-size="10.00">Interpreter&lt; Controller &gt;</text>
</a>
</g>
</g>
<!-- Node2 -->
<g id="node2" class="node">
<title>Node2</title>
<g id="a_node2"><a xlink:href="classInterpreter.html" target="_top" xlink:title=" ">
<polygon fill="white" stroke="black" points="117,-57.5 117,-76.5 245,-76.5 245,-57.5 117,-57.5"/>
<text text-anchor="middle" x="181" y="-64.5" font-family="Helvetica,sans-Serif" font-size="10.00">Interpreter&lt; TravelState &gt;</text>
</a>
</g>
</g>
<!-- Node1&#45;&gt;Node2 -->
<g id="edge1" class="edge">
<title>Node1&#45;&gt;Node2</title>
<path fill="none" stroke="orange" stroke-dasharray="5,2" d="M234.77,-117.94C230.23,-114.1 225.4,-109.94 221,-106 210.01,-96.16 197.77,-84.41 189.76,-76.6"/>
<polygon fill="orange" stroke="orange" points="232.58,-120.66 242.49,-124.4 237.07,-115.3 232.58,-120.66"/>
<text text-anchor="middle" x="256" y="-98" font-family="Helvetica,sans-Serif" font-size="10.00"> &lt; TravelState &gt;</text>
</g>
<!-- Node5 -->
<g id="node5" class="node">
<title>Node5</title>
<g id="a_node5"><a xlink:href="classInterpreter.html" target="_top" xlink:title=" ">
<polygon fill="white" stroke="black" points="263.5,-57.5 263.5,-76.5 390.5,-76.5 390.5,-57.5 263.5,-57.5"/>
<text text-anchor="middle" x="327" y="-64.5" font-family="Helvetica,sans-Serif" font-size="10.00">Interpreter&lt; VisitBuilder &gt;</text>
</a>
</g>
</g>
<!-- Node1&#45;&gt;Node5 -->
<g id="edge4" class="edge">
<title>Node1&#45;&gt;Node5</title>
<path fill="none" stroke="orange" stroke-dasharray="5,2" d="M274.72,-118.66C280.19,-114.76 285.95,-110.39 291,-106 301.7,-96.7 312.73,-84.63 319.71,-76.61"/>
<polygon fill="orange" stroke="orange" points="272.72,-115.79 266.49,-124.36 276.7,-121.55 272.72,-115.79"/>
<text text-anchor="middle" x="337.5" y="-98" font-family="Helvetica,sans-Serif" font-size="10.00"> &lt; VisitBuilder &gt;</text>
</g>
<!-- Node3 -->
<g id="node3" class="node">
<title>Node3</title>
<g id="a_node3"><a xlink:href="classTravel_1_1HTLInterpreter.html" target="_top" xlink:title="An interpreter for general commands.">
<polygon fill="white" stroke="black" points="0,-0.5 0,-19.5 112,-19.5 112,-0.5 0,-0.5"/>
<text text-anchor="middle" x="56" y="-7.5" font-family="Helvetica,sans-Serif" font-size="10.00">Travel::HTLInterpreter</text>
</a>
</g>
</g>
<!-- Node2&#45;&gt;Node3 -->
<g id="edge2" class="edge">
<title>Node2&#45;&gt;Node3</title>
<path fill="none" stroke="midnightblue" d="M152.3,-53.37C128.73,-43 95.98,-28.59 75.39,-19.53"/>
<polygon fill="midnightblue" stroke="midnightblue" points="150.91,-56.58 161.47,-57.41 153.73,-50.18 150.91,-56.58"/>
</g>
<!-- Node4 -->
<g id="node4" class="node">
<title>Node4</title>
<g id="a_node4"><a xlink:href="classTravel_1_1LoginInterpreter.html" target="_top" xlink:title="Interprets all commands in the ATOPEN ScannerContext.">
<polygon fill="white" stroke="black" points="130,-0.5 130,-19.5 246,-19.5 246,-0.5 130,-0.5"/>
<text text-anchor="middle" x="188" y="-7.5" font-family="Helvetica,sans-Serif" font-size="10.00">Travel::LoginInterpreter</text>
</a>
</g>
</g>
<!-- Node2&#45;&gt;Node4 -->
<g id="edge3" class="edge">
<title>Node2&#45;&gt;Node4</title>
<path fill="none" stroke="midnightblue" d="M183.36,-47.42C184.56,-38.05 185.95,-27.14 186.89,-19.71"/>
<polygon fill="midnightblue" stroke="midnightblue" points="179.88,-47.04 182.09,-57.41 186.83,-47.93 179.88,-47.04"/>
</g>
<!-- Node6 -->
<g id="node6" class="node">
<title>Node6</title>
<g id="a_node6"><a xlink:href="classTravel_1_1VisitInterpreter.html" target="_top" xlink:title="An interpreter for the visit mode started by the visit &lt;destination&gt; command.">
<polygon fill="white" stroke="black" points="271,-0.5 271,-19.5 383,-19.5 383,-0.5 271,-0.5"/>
<text text-anchor="middle" x="327" y="-7.5" font-family="Helvetica,sans-Serif" font-size="10.00">Travel::VisitInterpreter</text>
</a>
</g>
</g>
<!-- Node5&#45;&gt;Node6 -->
<g id="edge5" class="edge">
<title>Node5&#45;&gt;Node6</title>
<path fill="none" stroke="midnightblue" d="M327,-47.12C327,-37.82 327,-27.06 327,-19.71"/>
<polygon fill="midnightblue" stroke="midnightblue" points="323.5,-47.41 327,-57.41 330.5,-47.41 323.5,-47.41"/>
</g>
</g>
</svg>
