<?xml version="1.0" encoding="UTF-8" standalone="no"?>
<!DOCTYPE svg PUBLIC "-//W3C//DTD SVG 1.1//EN"
 "http://www.w3.org/Graphics/SVG/1.1/DTD/svg11.dtd">
<!-- Generated by graphviz version 2.44.0 (0)
 -->
<!-- Title: HashMap&lt; Key, Value &gt; Pages: 1 -->
<svg width="446pt" height="235pt"
 viewBox="0.00 0.00 446.00 235.00" xmlns="http://www.w3.org/2000/svg" xmlns:xlink="http://www.w3.org/1999/xlink">
<g id="graph0" class="graph" transform="scale(1 1) rotate(0) translate(4 231)">
<title>HashMap&lt; Key, Value &gt;</title>
<polygon fill="white" stroke="transparent" points="-4,4 -4,-231 442,-231 442,4 -4,4"/>
<!-- Node1 -->
<g id="node1" class="node">
<title>Node1</title>
<g id="a_node1"><a xlink:title="A generic implementation of a HashMap.">
<polygon fill="#bfbfbf" stroke="black" points="0,-104 0,-123 122,-123 122,-104 0,-104"/>
<text text-anchor="middle" x="61" y="-111" font-family="Helvetica,sans-Serif" font-size="10.00">HashMap&lt; Key, Value &gt;</text>
</a>
</g>
</g>
<!-- Node2 -->
<g id="node2" class="node">
<title>Node2</title>
<g id="a_node2"><a xlink:href="classHashMap.html" target="_top" xlink:title=" ">
<polygon fill="white" stroke="black" points="310,-196.5 310,-226.5 428,-226.5 428,-196.5 310,-196.5"/>
<text text-anchor="start" x="318" y="-214.5" font-family="Helvetica,sans-Serif" font-size="10.00">HashMap&lt; TokenType,</text>
<text text-anchor="middle" x="369" y="-203.5" font-family="Helvetica,sans-Serif" font-size="10.00"> ScannerContext &gt;</text>
</a>
</g>
</g>
<!-- Node1&#45;&gt;Node2 -->
<g id="edge1" class="edge">
<title>Node1&#45;&gt;Node2</title>
<path fill="none" stroke="orange" stroke-dasharray="5,2" d="M81.69,-129.39C96.8,-140.81 118.62,-155.68 140,-164.5 195.11,-187.23 262.4,-199.37 309.55,-205.58"/>
<polygon fill="orange" stroke="orange" points="83.68,-126.5 73.63,-123.14 79.39,-132.04 83.68,-126.5"/>
<text text-anchor="middle" x="211" y="-203.5" font-family="Helvetica,sans-Serif" font-size="10.00"> &lt; TokenType, ScannerContext &gt;</text>
</g>
<!-- Node3 -->
<g id="node3" class="node">
<title>Node3</title>
<g id="a_node3"><a xlink:href="classHashMap.html" target="_top" xlink:title=" ">
<polygon fill="white" stroke="black" points="306.5,-147.5 306.5,-177.5 431.5,-177.5 431.5,-147.5 306.5,-147.5"/>
<text text-anchor="start" x="314.5" y="-165.5" font-family="Helvetica,sans-Serif" font-size="10.00">HashMap&lt; SimpleString,</text>
<text text-anchor="middle" x="369" y="-154.5" font-family="Helvetica,sans-Serif" font-size="10.00"> User * &gt;</text>
</a>
</g>
</g>
<!-- Node1&#45;&gt;Node3 -->
<g id="edge2" class="edge">
<title>Node1&#45;&gt;Node3</title>
<path fill="none" stroke="orange" stroke-dasharray="5,2" d="M119.72,-124.88C126.55,-126.14 133.42,-127.38 140,-128.5 196.22,-138.09 260.49,-147.54 306.44,-154.03"/>
<polygon fill="orange" stroke="orange" points="120.27,-121.42 109.79,-123.02 118.98,-128.3 120.27,-121.42"/>
<text text-anchor="middle" x="211" y="-152.5" font-family="Helvetica,sans-Serif" font-size="10.00"> &lt; SimpleString, User * &gt;</text>
</g>
<!-- Node4 -->
<g id="node4" class="node">
<title>Node4</title>
<g id="a_node4"><a xlink:href="classHashMap.html" target="_top" xlink:title=" ">
<polygon fill="white" stroke="black" points="306.5,-98.5 306.5,-128.5 431.5,-128.5 431.5,-98.5 306.5,-98.5"/>
<text text-anchor="start" x="314.5" y="-116.5" font-family="Helvetica,sans-Serif" font-size="10.00">HashMap&lt; SimpleString,</text>
<text text-anchor="middle" x="369" y="-105.5" font-family="Helvetica,sans-Serif" font-size="10.00"> TokenType &gt;</text>
</a>
</g>
</g>
<!-- Node1&#45;&gt;Node4 -->
<g id="edge3" class="edge">
<title>Node1&#45;&gt;Node4</title>
<path fill="none" stroke="orange" stroke-dasharray="5,2" d="M132.35,-113.5C184.94,-113.5 256.14,-113.5 306.47,-113.5"/>
<polygon fill="orange" stroke="orange" points="132.09,-110 122.09,-113.5 132.09,-117 132.09,-110"/>
<text text-anchor="middle" x="211" y="-116.5" font-family="Helvetica,sans-Serif" font-size="10.00"> &lt; SimpleString, TokenType &gt;</text>
</g>
<!-- Node5 -->
<g id="node5" class="node">
<title>Node5</title>
<g id="a_node5"><a xlink:href="classHashMap.html" target="_top" xlink:title=" ">
<polygon fill="white" stroke="black" points="300,-49.5 300,-79.5 438,-79.5 438,-49.5 300,-49.5"/>
<text text-anchor="start" x="308" y="-67.5" font-family="Helvetica,sans-Serif" font-size="10.00">HashMap&lt; SimpleString,</text>
<text text-anchor="middle" x="369" y="-56.5" font-family="Helvetica,sans-Serif" font-size="10.00"> ArrayList&lt; SimpleString &gt; &gt;</text>
</a>
</g>
</g>
<!-- Node1&#45;&gt;Node5 -->
<g id="edge4" class="edge">
<title>Node1&#45;&gt;Node5</title>
<path fill="none" stroke="orange" stroke-dasharray="5,2" d="M95.63,-100.48C109.22,-95.69 125.17,-90.68 140,-87.5 193,-76.14 254.17,-70.36 299.8,-67.43"/>
<polygon fill="orange" stroke="orange" points="94.42,-97.19 86.2,-103.89 96.8,-103.78 94.42,-97.19"/>
<text text-anchor="start" x="155.5" y="-101.5" font-family="Helvetica,sans-Serif" font-size="10.00"> &lt; SimpleString, ArrayList</text>
<text text-anchor="middle" x="211" y="-90.5" font-family="Helvetica,sans-Serif" font-size="10.00">&lt; SimpleString &gt; &gt;</text>
</g>
<!-- Node6 -->
<g id="node6" class="node">
<title>Node6</title>
<g id="a_node6"><a xlink:href="classHashMap.html" target="_top" xlink:title=" ">
<polygon fill="white" stroke="black" points="306.5,-0.5 306.5,-30.5 431.5,-30.5 431.5,-0.5 306.5,-0.5"/>
<text text-anchor="start" x="314.5" y="-18.5" font-family="Helvetica,sans-Serif" font-size="10.00">HashMap&lt; SimpleString,</text>
<text text-anchor="middle" x="369" y="-7.5" font-family="Helvetica,sans-Serif" font-size="10.00"> const char * &gt;</text>
</a>
</g>
</g>
<!-- Node1&#45;&gt;Node6 -->
<g id="edge5" class="edge">
<title>Node1&#45;&gt;Node6</title>
<path fill="none" stroke="orange" stroke-dasharray="5,2" d="M75.64,-95.93C89.77,-79.12 113.47,-54.61 140,-42.5 192.58,-18.5 258.74,-13.03 306.23,-12.79"/>
<polygon fill="orange" stroke="orange" points="72.74,-93.94 69.16,-103.91 78.18,-98.35 72.74,-93.94"/>
<text text-anchor="start" x="163" y="-56.5" font-family="Helvetica,sans-Serif" font-size="10.00"> &lt; SimpleString, const</text>
<text text-anchor="middle" x="211" y="-45.5" font-family="Helvetica,sans-Serif" font-size="10.00"> char * &gt;</text>
</g>
</g>
</svg>
