<?xml version="1.0" encoding="UTF-8" standalone="no"?>
<!DOCTYPE svg PUBLIC "-//W3C//DTD SVG 1.1//EN"
 "http://www.w3.org/Graphics/SVG/1.1/DTD/svg11.dtd">
<!-- Generated by graphviz version 2.44.0 (0)
 -->
<!-- Title: Tuple&lt; Head, Tail... &gt; Pages: 1 -->
<svg width="116pt" height="152pt"
 viewBox="0.00 0.00 116.00 152.00" xmlns="http://www.w3.org/2000/svg" xmlns:xlink="http://www.w3.org/1999/xlink">
<g id="graph0" class="graph" transform="scale(1 1) rotate(0) translate(4 148)">
<title>Tuple&lt; Head, Tail... &gt;</title>
<polygon fill="white" stroke="transparent" points="-4,4 -4,-148 112,-148 112,4 -4,4"/>
<!-- Node1 -->
<g id="node1" class="node">
<title>Node1</title>
<g id="a_node1"><a xlink:title=" ">
<polygon fill="#bfbfbf" stroke="black" points="0,-0.5 0,-19.5 108,-19.5 108,-0.5 0,-0.5"/>
<text text-anchor="middle" x="54" y="-7.5" font-family="Helvetica,sans-Serif" font-size="10.00">Tuple&lt; Head, Tail... &gt;</text>
</a>
</g>
</g>
<!-- Node2 -->
<g id="node2" class="node">
<title>Node2</title>
<g id="a_node2"><a xlink:href="classTuple.html" target="_top" xlink:title=" ">
<polygon fill="white" stroke="black" points="14,-57.5 14,-76.5 94,-76.5 94,-57.5 14,-57.5"/>
<text text-anchor="middle" x="54" y="-64.5" font-family="Helvetica,sans-Serif" font-size="10.00">Tuple&lt; Tail... &gt;</text>
</a>
</g>
</g>
<!-- Node2&#45;&gt;Node1 -->
<g id="edge1" class="edge">
<title>Node2&#45;&gt;Node1</title>
<path fill="none" stroke="#8b1a1a" d="M54,-47.12C54,-37.82 54,-27.06 54,-19.71"/>
<polygon fill="#8b1a1a" stroke="#8b1a1a" points="50.5,-47.41 54,-57.41 57.5,-47.41 50.5,-47.41"/>
</g>
<!-- Node3 -->
<g id="node3" class="node">
<title>Node3</title>
<g id="a_node3"><a xlink:href="classTuple.html" target="_top" xlink:title="Tuple implementation partially taken from www.stroustrup.com/C++11FAQ.html::variadic&#45;templates It was...">
<polygon fill="white" stroke="black" points="17.5,-124.5 17.5,-143.5 90.5,-143.5 90.5,-124.5 17.5,-124.5"/>
<text text-anchor="middle" x="54" y="-131.5" font-family="Helvetica,sans-Serif" font-size="10.00">Tuple&lt; Tail &gt;</text>
</a>
</g>
</g>
<!-- Node3&#45;&gt;Node2 -->
<g id="edge2" class="edge">
<title>Node3&#45;&gt;Node2</title>
<path fill="none" stroke="orange" stroke-dasharray="5,2" d="M54,-114.04C54,-101.67 54,-86.12 54,-76.63"/>
<polygon fill="orange" stroke="orange" points="50.5,-114.23 54,-124.23 57.5,-114.23 50.5,-114.23"/>
<text text-anchor="middle" x="75" y="-98" font-family="Helvetica,sans-Serif" font-size="10.00"> &lt; Tail... &gt;</text>
</g>
</g>
</svg>
