<?xml version="1.0" encoding="UTF-8" standalone="no"?>
<!DOCTYPE svg PUBLIC "-//W3C//DTD SVG 1.1//EN"
 "http://www.w3.org/Graphics/SVG/1.1/DTD/svg11.dtd">
<!-- Generated by graphviz version 2.44.0 (0)
 -->
<!-- Title: ArrayList&lt; A &gt; Pages: 1 -->
<svg width="422pt" height="256pt"
 viewBox="0.00 0.00 422.00 256.00" xmlns="http://www.w3.org/2000/svg" xmlns:xlink="http://www.w3.org/1999/xlink">
<g id="graph0" class="graph" transform="scale(1 1) rotate(0) translate(4 252)">
<title>ArrayList&lt; A &gt;</title>
<polygon fill="white" stroke="transparent" points="-4,4 -4,-252 418,-252 418,4 -4,4"/>
<!-- Node1 -->
<g id="node1" class="node">
<title>Node1</title>
<g id="a_node1"><a xlink:title="An implementation of a list backed by a resizable array.">
<polygon fill="#bfbfbf" stroke="black" points="96,-114.5 96,-133.5 175,-133.5 175,-114.5 96,-114.5"/>
<text text-anchor="middle" x="135.5" y="-121.5" font-family="Helvetica,sans-Serif" font-size="10.00">ArrayList&lt; A &gt;</text>
</a>
</g>
</g>
<!-- Node3 -->
<g id="node3" class="node">
<title>Node3</title>
<g id="a_node3"><a xlink:href="classArraySet.html" target="_top" xlink:title="Literally an ArrayList but when adding items it checks if the element is already in the list.">
<polygon fill="white" stroke="black" points="311.5,-228.5 311.5,-247.5 388.5,-247.5 388.5,-228.5 311.5,-228.5"/>
<text text-anchor="middle" x="350" y="-235.5" font-family="Helvetica,sans-Serif" font-size="10.00">ArraySet&lt; A &gt;</text>
</a>
</g>
</g>
<!-- Node1&#45;&gt;Node3 -->
<g id="edge2" class="edge">
<title>Node1&#45;&gt;Node3</title>
<path fill="none" stroke="midnightblue" d="M149.85,-142.12C160.34,-155.26 175.97,-172.66 193,-184 229.49,-208.31 278.09,-222.85 311.28,-230.62"/>
<polygon fill="midnightblue" stroke="midnightblue" points="152.34,-139.61 143.46,-133.83 146.79,-143.88 152.34,-139.61"/>
</g>
<!-- Node4 -->
<g id="node4" class="node">
<title>Node4</title>
<g id="a_node4"><a xlink:href="classSortedArrayList.html" target="_top" xlink:title="NOT IMPLEMENTED An array list that keeps itself sorted at all times.">
<polygon fill="white" stroke="black" points="296.5,-190.5 296.5,-209.5 403.5,-209.5 403.5,-190.5 296.5,-190.5"/>
<text text-anchor="middle" x="350" y="-197.5" font-family="Helvetica,sans-Serif" font-size="10.00">SortedArrayList&lt; A &gt;</text>
</a>
</g>
</g>
<!-- Node1&#45;&gt;Node4 -->
<g id="edge3" class="edge">
<title>Node1&#45;&gt;Node4</title>
<path fill="none" stroke="midnightblue" d="M157.67,-139.21C167.95,-146.03 180.7,-153.72 193,-159 226.45,-173.37 266.15,-183.72 297.14,-190.42"/>
<polygon fill="midnightblue" stroke="midnightblue" points="159.59,-136.28 149.36,-133.52 155.63,-142.06 159.59,-136.28"/>
</g>
<!-- Node5 -->
<g id="node5" class="node">
<title>Node5</title>
<g id="a_node5"><a xlink:href="classStack.html" target="_top" xlink:title="An implementation of a stack leveraging ArrayList. Basically an ArrayList but most methods are privat...">
<polygon fill="white" stroke="black" points="317.5,-152.5 317.5,-171.5 382.5,-171.5 382.5,-152.5 317.5,-152.5"/>
<text text-anchor="middle" x="350" y="-159.5" font-family="Helvetica,sans-Serif" font-size="10.00">Stack&lt; A &gt;</text>
</a>
</g>
</g>
<!-- Node1&#45;&gt;Node5 -->
<g id="edge4" class="edge">
<title>Node1&#45;&gt;Node5</title>
<path fill="none" stroke="#8b1a1a" d="M179.59,-135.98C184.1,-137.07 188.63,-138.1 193,-139 235.77,-147.8 285.8,-154.56 317.44,-158.41"/>
<polygon fill="#8b1a1a" stroke="#8b1a1a" points="180.36,-132.56 169.81,-133.51 178.65,-139.35 180.36,-132.56"/>
</g>
<!-- Node6 -->
<g id="node6" class="node">
<title>Node6</title>
<g id="a_node6"><a xlink:href="classArrayList.html" target="_top" xlink:title=" ">
<polygon fill="white" stroke="black" points="286,-114.5 286,-133.5 414,-133.5 414,-114.5 286,-114.5"/>
<text text-anchor="middle" x="350" y="-121.5" font-family="Helvetica,sans-Serif" font-size="10.00">ArrayList&lt; SimpleString &gt;</text>
</a>
</g>
</g>
<!-- Node1&#45;&gt;Node6 -->
<g id="edge5" class="edge">
<title>Node1&#45;&gt;Node6</title>
<path fill="none" stroke="orange" stroke-dasharray="5,2" d="M185.62,-124C215.38,-124 253.64,-124 285.66,-124"/>
<polygon fill="orange" stroke="orange" points="185.48,-120.5 175.48,-124 185.48,-127.5 185.48,-120.5"/>
<text text-anchor="middle" x="230.5" y="-127" font-family="Helvetica,sans-Serif" font-size="10.00"> &lt; SimpleString &gt;</text>
</g>
<!-- Node7 -->
<g id="node7" class="node">
<title>Node7</title>
<g id="a_node7"><a xlink:href="classArrayList.html" target="_top" xlink:title=" ">
<polygon fill="white" stroke="black" points="300.5,-76.5 300.5,-95.5 399.5,-95.5 399.5,-76.5 300.5,-76.5"/>
<text text-anchor="middle" x="350" y="-83.5" font-family="Helvetica,sans-Serif" font-size="10.00">ArrayList&lt; Token &gt;</text>
</a>
</g>
</g>
<!-- Node1&#45;&gt;Node7 -->
<g id="edge6" class="edge">
<title>Node1&#45;&gt;Node7</title>
<path fill="none" stroke="orange" stroke-dasharray="5,2" d="M179.59,-112.02C184.1,-110.93 188.63,-109.9 193,-109 228.66,-101.66 269.38,-95.74 300.27,-91.74"/>
<polygon fill="orange" stroke="orange" points="178.65,-108.65 169.81,-114.49 180.36,-115.44 178.65,-108.65"/>
<text text-anchor="middle" x="230.5" y="-112" font-family="Helvetica,sans-Serif" font-size="10.00"> &lt; Token &gt;</text>
</g>
<!-- Node8 -->
<g id="node8" class="node">
<title>Node8</title>
<g id="a_node8"><a xlink:href="classArrayList.html" target="_top" xlink:title=" ">
<polygon fill="white" stroke="black" points="302,-38.5 302,-57.5 398,-57.5 398,-38.5 302,-38.5"/>
<text text-anchor="middle" x="350" y="-45.5" font-family="Helvetica,sans-Serif" font-size="10.00">ArrayList&lt; Tuple &gt;</text>
</a>
</g>
</g>
<!-- Node1&#45;&gt;Node8 -->
<g id="edge7" class="edge">
<title>Node1&#45;&gt;Node8</title>
<path fill="none" stroke="orange" stroke-dasharray="5,2" d="M154.11,-107.82C164.67,-98.95 178.78,-88.47 193,-82 227.69,-66.22 270.12,-57.58 301.97,-52.97"/>
<polygon fill="orange" stroke="orange" points="151.71,-105.28 146.47,-114.49 156.31,-110.55 151.71,-105.28"/>
<text text-anchor="middle" x="230.5" y="-85" font-family="Helvetica,sans-Serif" font-size="10.00"> &lt; Tuple &gt;</text>
</g>
<!-- Node9 -->
<g id="node9" class="node">
<title>Node9</title>
<g id="a_node9"><a xlink:href="classArrayList.html" target="_top" xlink:title=" ">
<polygon fill="white" stroke="black" points="301.5,-0.5 301.5,-19.5 398.5,-19.5 398.5,-0.5 301.5,-0.5"/>
<text text-anchor="middle" x="350" y="-7.5" font-family="Helvetica,sans-Serif" font-size="10.00">ArrayList&lt; char * &gt;</text>
</a>
</g>
</g>
<!-- Node1&#45;&gt;Node9 -->
<g id="edge8" class="edge">
<title>Node1&#45;&gt;Node9</title>
<path fill="none" stroke="orange" stroke-dasharray="5,2" d="M144.76,-105.14C153.86,-86.63 170.28,-59.06 193,-44 225.12,-22.72 268.35,-14.52 301.16,-11.48"/>
<polygon fill="orange" stroke="orange" points="141.51,-103.81 140.46,-114.35 147.86,-106.76 141.51,-103.81"/>
<text text-anchor="middle" x="230.5" y="-47" font-family="Helvetica,sans-Serif" font-size="10.00"> &lt; char * &gt;</text>
</g>
<!-- Node2 -->
<g id="node2" class="node">
<title>Node2</title>
<g id="a_node2"><a xlink:href="classIList.html" target="_top" xlink:title="An interface for a generic list.">
<polygon fill="white" stroke="black" points="0,-114.5 0,-133.5 59,-133.5 59,-114.5 0,-114.5"/>
<text text-anchor="middle" x="29.5" y="-121.5" font-family="Helvetica,sans-Serif" font-size="10.00">IList&lt; A &gt;</text>
</a>
</g>
</g>
<!-- Node2&#45;&gt;Node1 -->
<g id="edge1" class="edge">
<title>Node2&#45;&gt;Node1</title>
<path fill="none" stroke="midnightblue" d="M69.39,-124C78.02,-124 87.16,-124 95.78,-124"/>
<polygon fill="midnightblue" stroke="midnightblue" points="69.19,-120.5 59.19,-124 69.19,-127.5 69.19,-120.5"/>
</g>
</g>
</svg>
