<?xml version="1.0" encoding="UTF-8" standalone="no"?>
<!DOCTYPE svg PUBLIC "-//W3C//DTD SVG 1.1//EN"
 "http://www.w3.org/Graphics/SVG/1.1/DTD/svg11.dtd">
<!-- Generated by graphviz version 2.44.0 (0)
 -->
<!-- Title: Travel::CommandList Pages: 1 -->
<svg width="804pt" height="178pt"
 viewBox="0.00 0.00 804.00 177.76" xmlns="http://www.w3.org/2000/svg" xmlns:xlink="http://www.w3.org/1999/xlink">
<g id="graph0" class="graph" transform="scale(1 1) rotate(0) translate(4 173.76)">
<title>Travel::CommandList</title>
<polygon fill="white" stroke="transparent" points="-4,4 -4,-173.76 800,-173.76 800,4 -4,4"/>
<!-- Node1 -->
<g id="node1" class="node">
<title>Node1</title>
<g id="a_node1"><a xlink:title="This class represents a list of unique, reserved keywords for the scanner.">
<polygon fill="#bfbfbf" stroke="black" points="687,-91.26 687,-110.26 796,-110.26 796,-91.26 687,-91.26"/>
<text text-anchor="middle" x="741.5" y="-98.26" font-family="Helvetica,sans-Serif" font-size="10.00">Travel::CommandList</text>
</a>
</g>
</g>
<!-- Node1&#45;&gt;Node1 -->
<g id="edge8" class="edge">
<title>Node1&#45;&gt;Node1</title>
<path fill="none" stroke="#9a32cd" stroke-dasharray="5,2" d="M722.24,-120.16C723.53,-125.07 729.95,-128.76 741.5,-128.76 759.98,-128.76 765.33,-119.33 757.53,-110.52"/>
<polygon fill="#9a32cd" stroke="#9a32cd" points="725.61,-121.11 725.47,-110.52 718.98,-118.89 725.61,-121.11"/>
<text text-anchor="middle" x="741.5" y="-131.76" font-family="Helvetica,sans-Serif" font-size="10.00"> globalCommandList</text>
</g>
<!-- Node2 -->
<g id="node2" class="node">
<title>Node2</title>
<g id="a_node2"><a xlink:href="classHashMap.html" target="_top" xlink:title=" ">
<polygon fill="white" stroke="black" points="461,-134.76 461,-164.76 586,-164.76 586,-134.76 461,-134.76"/>
<text text-anchor="start" x="469" y="-152.76" font-family="Helvetica,sans-Serif" font-size="10.00">HashMap&lt; SimpleString,</text>
<text text-anchor="middle" x="523.5" y="-141.76" font-family="Helvetica,sans-Serif" font-size="10.00"> const char * &gt;</text>
</a>
</g>
</g>
<!-- Node2&#45;&gt;Node1 -->
<g id="edge1" class="edge">
<title>Node2&#45;&gt;Node1</title>
<path fill="none" stroke="#9a32cd" stroke-dasharray="5,2" d="M595.98,-133.55C629.89,-125.85 669.25,-116.92 698.32,-110.33"/>
<polygon fill="#9a32cd" stroke="#9a32cd" points="595.09,-130.16 586.11,-135.78 596.63,-136.99 595.09,-130.16"/>
<text text-anchor="middle" x="636.5" y="-133.76" font-family="Helvetica,sans-Serif" font-size="10.00"> nameToDescr</text>
</g>
<!-- Node3 -->
<g id="node3" class="node">
<title>Node3</title>
<g id="a_node3"><a xlink:href="structEntry.html" target="_top" xlink:title="An Entry describes a key&#45;value pair.">
<polygon fill="white" stroke="black" points="0,-65.26 0,-84.26 101,-84.26 101,-65.26 0,-65.26"/>
<text text-anchor="middle" x="50.5" y="-72.26" font-family="Helvetica,sans-Serif" font-size="10.00">Entry&lt; Key, Value &gt;</text>
</a>
</g>
</g>
<!-- Node3&#45;&gt;Node2 -->
<g id="edge2" class="edge">
<title>Node3&#45;&gt;Node2</title>
<path fill="none" stroke="#9a32cd" stroke-dasharray="5,2" d="M82.46,-88.43C104.22,-97.8 134.13,-110.22 161,-119.76 222.34,-141.55 236.63,-153.1 301,-162.76 363.41,-172.13 380.1,-167.87 443,-162.76 448.85,-162.28 454.93,-161.62 460.99,-160.83"/>
<polygon fill="#9a32cd" stroke="#9a32cd" points="83.64,-85.12 73.07,-84.36 80.85,-91.55 83.64,-85.12"/>
<text text-anchor="middle" x="222" y="-161.76" font-family="Helvetica,sans-Serif" font-size="10.00"> array</text>
</g>
<!-- Node4 -->
<g id="node4" class="node">
<title>Node4</title>
<g id="a_node4"><a xlink:href="classHashMap.html" target="_top" xlink:title="A generic implementation of a HashMap.">
<polygon fill="white" stroke="black" points="161,-91.26 161,-110.26 283,-110.26 283,-91.26 161,-91.26"/>
<text text-anchor="middle" x="222" y="-98.26" font-family="Helvetica,sans-Serif" font-size="10.00">HashMap&lt; Key, Value &gt;</text>
</a>
</g>
</g>
<!-- Node3&#45;&gt;Node4 -->
<g id="edge4" class="edge">
<title>Node3&#45;&gt;Node4</title>
<path fill="none" stroke="#9a32cd" stroke-dasharray="5,2" d="M111.73,-84C127.71,-86.45 144.96,-89.1 160.93,-91.55"/>
<polygon fill="#9a32cd" stroke="#9a32cd" points="111.85,-80.48 101.44,-82.42 110.79,-87.4 111.85,-80.48"/>
<text text-anchor="middle" x="131" y="-90.76" font-family="Helvetica,sans-Serif" font-size="10.00"> array</text>
</g>
<!-- Node5 -->
<g id="node5" class="node">
<title>Node5</title>
<g id="a_node5"><a xlink:href="classHashMap.html" target="_top" xlink:title=" ">
<polygon fill="white" stroke="black" points="464.5,-85.76 464.5,-115.76 582.5,-115.76 582.5,-85.76 464.5,-85.76"/>
<text text-anchor="start" x="472.5" y="-103.76" font-family="Helvetica,sans-Serif" font-size="10.00">HashMap&lt; TokenType,</text>
<text text-anchor="middle" x="523.5" y="-92.76" font-family="Helvetica,sans-Serif" font-size="10.00"> ScannerContext &gt;</text>
</a>
</g>
</g>
<!-- Node3&#45;&gt;Node5 -->
<g id="edge6" class="edge">
<title>Node3&#45;&gt;Node5</title>
<path fill="none" stroke="#9a32cd" stroke-dasharray="5,2" d="M92.96,-62.56C166.51,-43.19 323.32,-12.18 443,-59.76 453.23,-63.83 451.7,-70.87 461,-76.76 466.23,-80.07 471.99,-83.05 477.82,-85.7"/>
<polygon fill="#9a32cd" stroke="#9a32cd" points="91.89,-59.23 83.15,-65.21 93.72,-65.98 91.89,-59.23"/>
<text text-anchor="middle" x="222" y="-49.76" font-family="Helvetica,sans-Serif" font-size="10.00"> array</text>
</g>
<!-- Node6 -->
<g id="node6" class="node">
<title>Node6</title>
<g id="a_node6"><a xlink:href="classHashMap.html" target="_top" xlink:title=" ">
<polygon fill="white" stroke="black" points="461,-36.76 461,-66.76 586,-66.76 586,-36.76 461,-36.76"/>
<text text-anchor="start" x="469" y="-54.76" font-family="Helvetica,sans-Serif" font-size="10.00">HashMap&lt; SimpleString,</text>
<text text-anchor="middle" x="523.5" y="-43.76" font-family="Helvetica,sans-Serif" font-size="10.00"> TokenType &gt;</text>
</a>
</g>
</g>
<!-- Node3&#45;&gt;Node6 -->
<g id="edge10" class="edge">
<title>Node3&#45;&gt;Node6</title>
<path fill="none" stroke="#9a32cd" stroke-dasharray="5,2" d="M69.79,-58.44C90.27,-41.51 125.31,-16.46 161,-8.76 272.98,15.39 407.61,-16.21 476.68,-36.73"/>
<polygon fill="#9a32cd" stroke="#9a32cd" points="67.28,-55.98 61.94,-65.13 71.82,-61.31 67.28,-55.98"/>
<text text-anchor="middle" x="222" y="-11.76" font-family="Helvetica,sans-Serif" font-size="10.00"> array</text>
</g>
<!-- Node4&#45;&gt;Node2 -->
<g id="edge3" class="edge">
<title>Node4&#45;&gt;Node2</title>
<path fill="none" stroke="orange" stroke-dasharray="5,2" d="M281.48,-112.25C288.06,-113.47 294.67,-114.67 301,-115.76 354.86,-125.07 416.32,-134.4 460.81,-140.93"/>
<polygon fill="orange" stroke="orange" points="281.69,-108.73 271.21,-110.33 280.4,-115.61 281.69,-108.73"/>
<text text-anchor="start" x="324" y="-150.76" font-family="Helvetica,sans-Serif" font-size="10.00"> &lt; SimpleString, const</text>
<text text-anchor="middle" x="372" y="-139.76" font-family="Helvetica,sans-Serif" font-size="10.00"> char * &gt;</text>
</g>
<!-- Node4&#45;&gt;Node5 -->
<g id="edge7" class="edge">
<title>Node4&#45;&gt;Node5</title>
<path fill="none" stroke="orange" stroke-dasharray="5,2" d="M293.41,-100.76C345.46,-100.76 415.5,-100.76 464.39,-100.76"/>
<polygon fill="orange" stroke="orange" points="293.25,-97.26 283.25,-100.76 293.25,-104.26 293.25,-97.26"/>
<text text-anchor="middle" x="372" y="-103.76" font-family="Helvetica,sans-Serif" font-size="10.00"> &lt; TokenType, ScannerContext &gt;</text>
</g>
<!-- Node4&#45;&gt;Node6 -->
<g id="edge11" class="edge">
<title>Node4&#45;&gt;Node6</title>
<path fill="none" stroke="orange" stroke-dasharray="5,2" d="M281.48,-89.27C288.06,-88.05 294.67,-86.85 301,-85.76 354.86,-76.45 416.32,-67.12 460.81,-60.59"/>
<polygon fill="orange" stroke="orange" points="280.4,-85.91 271.21,-91.19 281.69,-92.79 280.4,-85.91"/>
<text text-anchor="middle" x="372" y="-88.76" font-family="Helvetica,sans-Serif" font-size="10.00"> &lt; SimpleString, TokenType &gt;</text>
</g>
<!-- Node5&#45;&gt;Node1 -->
<g id="edge5" class="edge">
<title>Node5&#45;&gt;Node1</title>
<path fill="none" stroke="#9a32cd" stroke-dasharray="5,2" d="M592.75,-100.76C623.07,-100.76 658.25,-100.76 686.68,-100.76"/>
<polygon fill="#9a32cd" stroke="#9a32cd" points="592.67,-97.26 582.67,-100.76 592.67,-104.26 592.67,-97.26"/>
<text text-anchor="middle" x="636.5" y="-103.76" font-family="Helvetica,sans-Serif" font-size="10.00"> commandMap</text>
</g>
<!-- Node6&#45;&gt;Node1 -->
<g id="edge9" class="edge">
<title>Node6&#45;&gt;Node1</title>
<path fill="none" stroke="#9a32cd" stroke-dasharray="5,2" d="M595.98,-67.97C629.89,-75.67 669.25,-84.6 698.32,-91.19"/>
<polygon fill="#9a32cd" stroke="#9a32cd" points="596.63,-64.54 586.11,-65.74 595.09,-71.36 596.63,-64.54"/>
<text text-anchor="middle" x="636.5" y="-85.76" font-family="Helvetica,sans-Serif" font-size="10.00"> nameToToken</text>
</g>
</g>
</svg>
