<?xml version="1.0" encoding="UTF-8" standalone="no"?>
<!DOCTYPE svg PUBLIC "-//W3C//DTD SVG 1.1//EN"
 "http://www.w3.org/Graphics/SVG/1.1/DTD/svg11.dtd">
<!-- Generated by graphviz version 2.44.0 (0)
 -->
<!-- Title: Stack&lt; A &gt; Pages: 1 -->
<svg width="87pt" height="140pt"
 viewBox="0.00 0.00 87.00 140.00" xmlns="http://www.w3.org/2000/svg" xmlns:xlink="http://www.w3.org/1999/xlink">
<g id="graph0" class="graph" transform="scale(1 1) rotate(0) translate(4 136)">
<title>Stack&lt; A &gt;</title>
<polygon fill="white" stroke="transparent" points="-4,4 -4,-136 83,-136 83,4 -4,4"/>
<!-- Node1 -->
<g id="node1" class="node">
<title>Node1</title>
<g id="a_node1"><a xlink:title="An implementation of a stack leveraging ArrayList. Basically an ArrayList but most methods are privat...">
<polygon fill="#bfbfbf" stroke="black" points="7,-0.5 7,-19.5 72,-19.5 72,-0.5 7,-0.5"/>
<text text-anchor="middle" x="39.5" y="-7.5" font-family="Helvetica,sans-Serif" font-size="10.00">Stack&lt; A &gt;</text>
</a>
</g>
</g>
<!-- Node2 -->
<g id="node2" class="node">
<title>Node2</title>
<g id="a_node2"><a xlink:href="classArrayList.html" target="_top" xlink:title="An implementation of a list backed by a resizable array.">
<polygon fill="white" stroke="black" points="0,-56.5 0,-75.5 79,-75.5 79,-56.5 0,-56.5"/>
<text text-anchor="middle" x="39.5" y="-63.5" font-family="Helvetica,sans-Serif" font-size="10.00">ArrayList&lt; A &gt;</text>
</a>
</g>
</g>
<!-- Node2&#45;&gt;Node1 -->
<g id="edge1" class="edge">
<title>Node2&#45;&gt;Node1</title>
<path fill="none" stroke="#8b1a1a" d="M39.5,-45.8C39.5,-36.91 39.5,-26.78 39.5,-19.75"/>
<polygon fill="#8b1a1a" stroke="#8b1a1a" points="36,-46.08 39.5,-56.08 43,-46.08 36,-46.08"/>
</g>
<!-- Node3 -->
<g id="node3" class="node">
<title>Node3</title>
<g id="a_node3"><a xlink:href="classIList.html" target="_top" xlink:title="An interface for a generic list.">
<polygon fill="white" stroke="black" points="10,-112.5 10,-131.5 69,-131.5 69,-112.5 10,-112.5"/>
<text text-anchor="middle" x="39.5" y="-119.5" font-family="Helvetica,sans-Serif" font-size="10.00">IList&lt; A &gt;</text>
</a>
</g>
</g>
<!-- Node3&#45;&gt;Node2 -->
<g id="edge2" class="edge">
<title>Node3&#45;&gt;Node2</title>
<path fill="none" stroke="midnightblue" d="M39.5,-101.8C39.5,-92.91 39.5,-82.78 39.5,-75.75"/>
<polygon fill="midnightblue" stroke="midnightblue" points="36,-102.08 39.5,-112.08 43,-102.08 36,-102.08"/>
</g>
</g>
</svg>
