<?xml version="1.0" encoding="UTF-8" standalone="no"?>
<!DOCTYPE svg PUBLIC "-//W3C//DTD SVG 1.1//EN"
 "http://www.w3.org/Graphics/SVG/1.1/DTD/svg11.dtd">
<!-- Generated by graphviz version 2.44.0 (0)
 -->
<!-- Title: Tuple&lt; Tail &gt; Pages: 1 -->
<svg width="228pt" height="152pt"
 viewBox="0.00 0.00 228.00 152.00" xmlns="http://www.w3.org/2000/svg" xmlns:xlink="http://www.w3.org/1999/xlink">
<g id="graph0" class="graph" transform="scale(1 1) rotate(0) translate(4 148)">
<title>Tuple&lt; Tail &gt;</title>
<polygon fill="white" stroke="transparent" points="-4,4 -4,-148 224,-148 224,4 -4,4"/>
<!-- Node1 -->
<g id="node1" class="node">
<title>Node1</title>
<g id="a_node1"><a xlink:title="Tuple implementation partially taken from www.stroustrup.com/C++11FAQ.html::variadic&#45;templates It was...">
<polygon fill="#bfbfbf" stroke="black" points="68.5,-124.5 68.5,-143.5 141.5,-143.5 141.5,-124.5 68.5,-124.5"/>
<text text-anchor="middle" x="105" y="-131.5" font-family="Helvetica,sans-Serif" font-size="10.00">Tuple&lt; Tail &gt;</text>
</a>
</g>
</g>
<!-- Node2 -->
<g id="node2" class="node">
<title>Node2</title>
<g id="a_node2"><a xlink:href="classTuple.html" target="_top" xlink:title=" ">
<polygon fill="white" stroke="black" points="0,-57.5 0,-76.5 108,-76.5 108,-57.5 0,-57.5"/>
<text text-anchor="middle" x="54" y="-64.5" font-family="Helvetica,sans-Serif" font-size="10.00">Tuple&lt; const char * &gt;</text>
</a>
</g>
</g>
<!-- Node1&#45;&gt;Node2 -->
<g id="edge1" class="edge">
<title>Node1&#45;&gt;Node2</title>
<path fill="none" stroke="orange" stroke-dasharray="5,2" d="M77.4,-118.89C72.36,-115.27 67.57,-110.97 64,-106 57.71,-97.25 55.38,-84.82 54.51,-76.59"/>
<polygon fill="orange" stroke="orange" points="75.65,-121.92 85.96,-124.34 79.41,-116.02 75.65,-121.92"/>
<text text-anchor="middle" x="99" y="-98" font-family="Helvetica,sans-Serif" font-size="10.00"> &lt; const char * &gt;</text>
</g>
<!-- Node3 -->
<g id="node3" class="node">
<title>Node3</title>
<g id="a_node3"><a xlink:href="classTuple.html" target="_top" xlink:title=" ">
<polygon fill="white" stroke="black" points="126,-57.5 126,-76.5 206,-76.5 206,-57.5 126,-57.5"/>
<text text-anchor="middle" x="166" y="-64.5" font-family="Helvetica,sans-Serif" font-size="10.00">Tuple&lt; Tail... &gt;</text>
</a>
</g>
</g>
<!-- Node1&#45;&gt;Node3 -->
<g id="edge2" class="edge">
<title>Node1&#45;&gt;Node3</title>
<path fill="none" stroke="orange" stroke-dasharray="5,2" d="M122.51,-117.34C126.38,-113.71 130.4,-109.79 134,-106 143.16,-96.38 152.88,-84.58 159.17,-76.71"/>
<polygon fill="orange" stroke="orange" points="119.95,-114.94 114.95,-124.28 124.68,-120.1 119.95,-114.94"/>
<text text-anchor="middle" x="164" y="-98" font-family="Helvetica,sans-Serif" font-size="10.00"> &lt; Tail... &gt;</text>
</g>
<!-- Node4 -->
<g id="node4" class="node">
<title>Node4</title>
<g id="a_node4"><a xlink:href="classTuple_3_01Head_00_01Tail_8_8_8_01_4.html" target="_top" xlink:title=" ">
<polygon fill="white" stroke="black" points="112,-0.5 112,-19.5 220,-19.5 220,-0.5 112,-0.5"/>
<text text-anchor="middle" x="166" y="-7.5" font-family="Helvetica,sans-Serif" font-size="10.00">Tuple&lt; Head, Tail... &gt;</text>
</a>
</g>
</g>
<!-- Node3&#45;&gt;Node4 -->
<g id="edge3" class="edge">
<title>Node3&#45;&gt;Node4</title>
<path fill="none" stroke="#8b1a1a" d="M166,-47.12C166,-37.82 166,-27.06 166,-19.71"/>
<polygon fill="#8b1a1a" stroke="#8b1a1a" points="162.5,-47.41 166,-57.41 169.5,-47.41 162.5,-47.41"/>
</g>
</g>
</svg>
