<?xml version="1.0" encoding="UTF-8" standalone="no"?>
<!DOCTYPE svg PUBLIC "-//W3C//DTD SVG 1.1//EN"
 "http://www.w3.org/Graphics/SVG/1.1/DTD/svg11.dtd">
<!-- Generated by graphviz version 2.44.0 (0)
 -->
<!-- Title: Travel::Scanner Pages: 1 -->
<!--zoomable 241 -->
<svg id="main" version="1.1" xmlns="http://www.w3.org/2000/svg" xmlns:xlink="http://www.w3.org/1999/xlink" xml:space="preserve" onload="init(evt)">
<style type="text/css"><![CDATA[
.edge:hover path { stroke: red; }
.edge:hover polygon { stroke: red; fill: red; }
]]></style>
<script type="text/javascript"><![CDATA[
var edges = document.getElementsByTagName('g');
if (edges && edges.length) {
  for (var i=0;i<edges.length;i++) {
    if (edges[i].id.substr(0,4)=='edge') {
      edges[i].setAttribute('class','edge');
    }
  }
}
]]></script>
        <defs>
                <circle id="rim" cx="0" cy="0" r="7"/>
                <circle id="rim2" cx="0" cy="0" r="3.5"/>
                <g id="zoomPlus">
                        <use xlink:href="#rim" fill="#404040">
                                <set attributeName="fill" to="#808080" begin="zoomplus.mouseover" end="zoomplus.mouseout"/>
                        </use>
                        <path d="M-4,0h8M0,-4v8" fill="none" stroke="white" stroke-width="1.5" pointer-events="none"/>
                </g>
                <g id="zoomMin">
                        <use xlink:href="#rim" fill="#404040">
                                <set attributeName="fill" to="#808080" begin="zoomminus.mouseover" end="zoomminus.mouseout"/>
                        </use>
                        <path d="M-4,0h8" fill="none" stroke="white" stroke-width="1.5" pointer-events="none"/>
                </g>
                <g id="dirArrow">
                        <path fill="none" stroke="white" stroke-width="1.5" d="M0,-3.0v7 M-2.5,-0.5L0,-3.0L2.5,-0.5"/>
                </g>
               <g id="resetDef">
                       <use xlink:href="#rim2" fill="#404040">
                               <set attributeName="fill" to="#808080" begin="reset.mouseover" end="reset.mouseout"/>
                       </use>
               </g>
        </defs>

<script type="text/javascript">
var viewWidth = 948;
var viewHeight = 241;
var sectionId = 'dynsection-0';
</script>
<script xlink:href="svgpan.js"/>
<svg id="graph" class="graph">
<g id="viewport">
<title>Travel::Scanner</title>
<polygon fill="white" stroke="transparent" points="-4,4 -4,-236.78 944,-236.78 944,4 -4,4"/>
<!-- Node1 -->
<g id="node1" class="node">
<title>Node1</title>
<g id="a_node1"><a xlink:title="A general&#45;purpose scanner that can be adopted to scan most forms of structured text files.">
<polygon fill="#bfbfbf" stroke="black" points="856,-138.28 856,-157.28 940,-157.28 940,-138.28 856,-138.28"/>
<text text-anchor="middle" x="898" y="-145.28" font-family="Helvetica,sans-Serif" font-size="10.00">Travel::Scanner</text>
</a>
</g>
</g>
<!-- Node2 -->
<g id="node2" class="node">
<title>Node2</title>
<g id="a_node2"><a xlink:title="STL class.">
<polygon fill="white" stroke="#bfbfbf" points="708,-173.28 708,-192.28 775,-192.28 775,-173.28 708,-173.28"/>
<text text-anchor="middle" x="741.5" y="-180.28" font-family="Helvetica,sans-Serif" font-size="10.00">std::istream</text>
</a>
</g>
</g>
<!-- Node2&#45;&gt;Node1 -->
<g id="edge1" class="edge">
<title>Node2&#45;&gt;Node1</title>
<path fill="none" stroke="#9a32cd" stroke-dasharray="5,2" d="M785.02,-173.15C807.07,-168.16 833.87,-162.08 855.73,-157.13"/>
<polygon fill="#9a32cd" stroke="#9a32cd" points="784.25,-169.74 775.27,-175.36 785.79,-176.56 784.25,-169.74"/>
<text text-anchor="middle" x="826" y="-168.78" font-family="Helvetica,sans-Serif" font-size="10.00"> input</text>
</g>
<!-- Node3 -->
<g id="node3" class="node">
<title>Node3</title>
<g id="a_node3"><a xlink:title="STL class.">
<polygon fill="white" stroke="#bfbfbf" points="476,-201.78 476,-231.78 571,-231.78 571,-201.78 476,-201.78"/>
<text text-anchor="start" x="484" y="-219.78" font-family="Helvetica,sans-Serif" font-size="10.00">std::basic_istream</text>
<text text-anchor="middle" x="523.5" y="-208.78" font-family="Helvetica,sans-Serif" font-size="10.00">&lt; char &gt;</text>
</a>
</g>
</g>
<!-- Node3&#45;&gt;Node2 -->
<g id="edge2" class="edge">
<title>Node3&#45;&gt;Node2</title>
<path fill="none" stroke="midnightblue" d="M581.06,-207.88C621.36,-201.54 674.12,-193.23 707.68,-187.95"/>
<polygon fill="midnightblue" stroke="midnightblue" points="580.44,-204.43 571.1,-209.45 581.53,-211.35 580.44,-204.43"/>
</g>
<!-- Node4 -->
<g id="node4" class="node">
<title>Node4</title>
<g id="a_node4"><a xlink:title="STL class.">
<polygon fill="white" stroke="#bfbfbf" points="165.5,-213.28 165.5,-232.28 278.5,-232.28 278.5,-213.28 165.5,-213.28"/>
<text text-anchor="middle" x="222" y="-220.28" font-family="Helvetica,sans-Serif" font-size="10.00">std::basic_ios&lt; Char &gt;</text>
</a>
</g>
</g>
<!-- Node4&#45;&gt;Node3 -->
<g id="edge3" class="edge">
<title>Node4&#45;&gt;Node3</title>
<path fill="none" stroke="midnightblue" d="M288.89,-221.46C345.37,-220.33 425.34,-218.73 475.53,-217.72"/>
<polygon fill="midnightblue" stroke="midnightblue" points="288.56,-217.97 278.63,-221.67 288.7,-224.97 288.56,-217.97"/>
</g>
<!-- Node5 -->
<g id="node5" class="node">
<title>Node5</title>
<g id="a_node5"><a xlink:title="STL class.">
<polygon fill="white" stroke="#bfbfbf" points="13.5,-213.28 13.5,-232.28 87.5,-232.28 87.5,-213.28 13.5,-213.28"/>
<text text-anchor="middle" x="50.5" y="-220.28" font-family="Helvetica,sans-Serif" font-size="10.00">std::ios_base</text>
</a>
</g>
</g>
<!-- Node5&#45;&gt;Node4 -->
<g id="edge4" class="edge">
<title>Node5&#45;&gt;Node4</title>
<path fill="none" stroke="midnightblue" d="M98.05,-222.78C118.86,-222.78 143.56,-222.78 165.35,-222.78"/>
<polygon fill="midnightblue" stroke="midnightblue" points="97.86,-219.28 87.86,-222.78 97.86,-226.28 97.86,-219.28"/>
</g>
<!-- Node6 -->
<g id="node6" class="node">
<title>Node6</title>
<g id="a_node6"><a xlink:href="classTravel_1_1CommandList.html" target="_top" xlink:title="This class represents a list of unique, reserved keywords for the scanner.">
<polygon fill="white" stroke="black" points="687,-105.28 687,-124.28 796,-124.28 796,-105.28 687,-105.28"/>
<text text-anchor="middle" x="741.5" y="-112.28" font-family="Helvetica,sans-Serif" font-size="10.00">Travel::CommandList</text>
</a>
</g>
</g>
<!-- Node6&#45;&gt;Node1 -->
<g id="edge5" class="edge">
<title>Node6&#45;&gt;Node1</title>
<path fill="none" stroke="#9a32cd" stroke-dasharray="5,2" d="M797.08,-126.44C816.41,-130.57 837.82,-135.14 855.85,-138.99"/>
<polygon fill="#9a32cd" stroke="#9a32cd" points="797.7,-122.99 787.19,-124.33 796.24,-129.84 797.7,-122.99"/>
<text text-anchor="middle" x="826" y="-136.78" font-family="Helvetica,sans-Serif" font-size="10.00"> cl</text>
</g>
<!-- Node6&#45;&gt;Node6 -->
<g id="edge13" class="edge">
<title>Node6&#45;&gt;Node6</title>
<path fill="none" stroke="#9a32cd" stroke-dasharray="5,2" d="M726.03,-134.55C727.25,-139.28 732.4,-142.78 741.5,-142.78 756.43,-142.78 760.75,-133.35 754.45,-124.54"/>
<polygon fill="#9a32cd" stroke="#9a32cd" points="729.5,-135.09 728.55,-124.54 722.72,-133.38 729.5,-135.09"/>
<text text-anchor="middle" x="741.5" y="-145.78" font-family="Helvetica,sans-Serif" font-size="10.00"> globalCommandList</text>
</g>
<!-- Node7 -->
<g id="node7" class="node">
<title>Node7</title>
<g id="a_node7"><a xlink:href="classHashMap.html" target="_top" xlink:title=" ">
<polygon fill="white" stroke="black" points="461,-97.78 461,-127.78 586,-127.78 586,-97.78 461,-97.78"/>
<text text-anchor="start" x="469" y="-115.78" font-family="Helvetica,sans-Serif" font-size="10.00">HashMap&lt; SimpleString,</text>
<text text-anchor="middle" x="523.5" y="-104.78" font-family="Helvetica,sans-Serif" font-size="10.00"> const char * &gt;</text>
</a>
</g>
</g>
<!-- Node7&#45;&gt;Node6 -->
<g id="edge6" class="edge">
<title>Node7&#45;&gt;Node6</title>
<path fill="none" stroke="#9a32cd" stroke-dasharray="5,2" d="M596.37,-113.45C625.92,-113.72 659.55,-114.03 686.89,-114.29"/>
<polygon fill="#9a32cd" stroke="#9a32cd" points="596.14,-109.95 586.11,-113.35 596.07,-116.95 596.14,-109.95"/>
<text text-anchor="middle" x="636.5" y="-116.78" font-family="Helvetica,sans-Serif" font-size="10.00"> nameToDescr</text>
</g>
<!-- Node8 -->
<g id="node8" class="node">
<title>Node8</title>
<g id="a_node8"><a xlink:href="structEntry.html" target="_top" xlink:title="An Entry describes a key&#45;value pair.">
<polygon fill="white" stroke="black" points="0,-45.28 0,-64.28 101,-64.28 101,-45.28 0,-45.28"/>
<text text-anchor="middle" x="50.5" y="-52.28" font-family="Helvetica,sans-Serif" font-size="10.00">Entry&lt; Key, Value &gt;</text>
</a>
</g>
</g>
<!-- Node8&#45;&gt;Node7 -->
<g id="edge7" class="edge">
<title>Node8&#45;&gt;Node7</title>
<path fill="none" stroke="#9a32cd" stroke-dasharray="5,2" d="M108.47,-43.52C187.66,-30.73 333.6,-17.7 443,-68.78 453.84,-73.84 451.16,-81.98 461,-88.78 465.81,-92.11 471.14,-95.06 476.6,-97.66"/>
<polygon fill="#9a32cd" stroke="#9a32cd" points="107.5,-40.14 98.21,-45.24 108.65,-47.04 107.5,-40.14"/>
<text text-anchor="middle" x="222" y="-38.78" font-family="Helvetica,sans-Serif" font-size="10.00"> array</text>
</g>
<!-- Node9 -->
<g id="node9" class="node">
<title>Node9</title>
<g id="a_node9"><a xlink:href="classHashMap.html" target="_top" xlink:title="A generic implementation of a HashMap.">
<polygon fill="white" stroke="black" points="161,-95.28 161,-114.28 283,-114.28 283,-95.28 161,-95.28"/>
<text text-anchor="middle" x="222" y="-102.28" font-family="Helvetica,sans-Serif" font-size="10.00">HashMap&lt; Key, Value &gt;</text>
</a>
</g>
</g>
<!-- Node8&#45;&gt;Node9 -->
<g id="edge9" class="edge">
<title>Node8&#45;&gt;Node9</title>
<path fill="none" stroke="#9a32cd" stroke-dasharray="5,2" d="M93.74,-67.24C123.09,-75.9 161.61,-87.26 188.55,-95.21"/>
<polygon fill="#9a32cd" stroke="#9a32cd" points="94.36,-63.78 83.78,-64.31 92.38,-70.49 94.36,-63.78"/>
<text text-anchor="middle" x="131" y="-83.78" font-family="Helvetica,sans-Serif" font-size="10.00"> array</text>
</g>
<!-- Node10 -->
<g id="node10" class="node">
<title>Node10</title>
<g id="a_node10"><a xlink:href="classHashMap.html" target="_top" xlink:title=" ">
<polygon fill="white" stroke="black" points="464.5,-146.78 464.5,-176.78 582.5,-176.78 582.5,-146.78 464.5,-146.78"/>
<text text-anchor="start" x="472.5" y="-164.78" font-family="Helvetica,sans-Serif" font-size="10.00">HashMap&lt; TokenType,</text>
<text text-anchor="middle" x="523.5" y="-153.78" font-family="Helvetica,sans-Serif" font-size="10.00"> ScannerContext &gt;</text>
</a>
</g>
</g>
<!-- Node8&#45;&gt;Node10 -->
<g id="edge11" class="edge">
<title>Node8&#45;&gt;Node10</title>
<path fill="none" stroke="#9a32cd" stroke-dasharray="5,2" d="M72.73,-70.37C94.15,-85.56 128.62,-108.55 161,-123.78 275.9,-177.86 316.17,-176.15 443,-169.78 449.93,-169.44 457.18,-168.92 464.37,-168.31"/>
<polygon fill="#9a32cd" stroke="#9a32cd" points="74.55,-67.37 64.38,-64.38 70.46,-73.06 74.55,-67.37"/>
<text text-anchor="middle" x="222" y="-169.78" font-family="Helvetica,sans-Serif" font-size="10.00"> array</text>
</g>
<!-- Node11 -->
<g id="node11" class="node">
<title>Node11</title>
<g id="a_node11"><a xlink:href="classHashMap.html" target="_top" xlink:title=" ">
<polygon fill="white" stroke="black" points="461,-48.78 461,-78.78 586,-78.78 586,-48.78 461,-48.78"/>
<text text-anchor="start" x="469" y="-66.78" font-family="Helvetica,sans-Serif" font-size="10.00">HashMap&lt; SimpleString,</text>
<text text-anchor="middle" x="523.5" y="-55.78" font-family="Helvetica,sans-Serif" font-size="10.00"> TokenType &gt;</text>
</a>
</g>
</g>
<!-- Node8&#45;&gt;Node11 -->
<g id="edge15" class="edge">
<title>Node8&#45;&gt;Node11</title>
<path fill="none" stroke="#9a32cd" stroke-dasharray="5,2" d="M79.5,-40.76C101.15,-30.74 132.18,-18.12 161,-12.78 284.52,10.09 321.3,-0.65 443,-31.78 459.14,-35.91 476.38,-42.55 490.66,-48.72"/>
<polygon fill="#9a32cd" stroke="#9a32cd" points="77.8,-37.69 70.26,-45.14 80.8,-44.02 77.8,-37.69"/>
<text text-anchor="middle" x="222" y="-15.78" font-family="Helvetica,sans-Serif" font-size="10.00"> array</text>
</g>
<!-- Node9&#45;&gt;Node7 -->
<g id="edge8" class="edge">
<title>Node9&#45;&gt;Node7</title>
<path fill="none" stroke="orange" stroke-dasharray="5,2" d="M293.49,-106.67C344.28,-108.02 412.16,-109.84 460.81,-111.13"/>
<polygon fill="orange" stroke="orange" points="293.34,-103.16 283.25,-106.39 293.15,-110.16 293.34,-103.16"/>
<text text-anchor="start" x="324" y="-123.78" font-family="Helvetica,sans-Serif" font-size="10.00"> &lt; SimpleString, const</text>
<text text-anchor="middle" x="372" y="-112.78" font-family="Helvetica,sans-Serif" font-size="10.00"> char * &gt;</text>
</g>
<!-- Node9&#45;&gt;Node10 -->
<g id="edge12" class="edge">
<title>Node9&#45;&gt;Node10</title>
<path fill="none" stroke="orange" stroke-dasharray="5,2" d="M252.1,-118.45C266.51,-124.68 284.36,-131.58 301,-135.78 355.43,-149.54 419.26,-156.05 464.38,-159.12"/>
<polygon fill="orange" stroke="orange" points="253.28,-115.15 242.72,-114.29 250.44,-121.55 253.28,-115.15"/>
<text text-anchor="middle" x="372" y="-159.78" font-family="Helvetica,sans-Serif" font-size="10.00"> &lt; TokenType, ScannerContext &gt;</text>
</g>
<!-- Node9&#45;&gt;Node11 -->
<g id="edge16" class="edge">
<title>Node9&#45;&gt;Node11</title>
<path fill="none" stroke="orange" stroke-dasharray="5,2" d="M288.35,-93.7C292.63,-93.03 296.87,-92.39 301,-91.78 354.88,-83.89 416.34,-76.23 460.83,-70.92"/>
<polygon fill="orange" stroke="orange" points="287.68,-90.26 278.35,-95.28 288.78,-97.17 287.68,-90.26"/>
<text text-anchor="middle" x="372" y="-94.78" font-family="Helvetica,sans-Serif" font-size="10.00"> &lt; SimpleString, TokenType &gt;</text>
</g>
<!-- Node10&#45;&gt;Node6 -->
<g id="edge10" class="edge">
<title>Node10&#45;&gt;Node6</title>
<path fill="none" stroke="#9a32cd" stroke-dasharray="5,2" d="M592.55,-146.98C626.56,-139.58 666.73,-130.83 696.62,-124.33"/>
<polygon fill="#9a32cd" stroke="#9a32cd" points="591.7,-143.58 582.67,-149.13 593.18,-150.42 591.7,-143.58"/>
<text text-anchor="middle" x="636.5" y="-146.78" font-family="Helvetica,sans-Serif" font-size="10.00"> commandMap</text>
</g>
<!-- Node11&#45;&gt;Node6 -->
<g id="edge14" class="edge">
<title>Node11&#45;&gt;Node6</title>
<path fill="none" stroke="#9a32cd" stroke-dasharray="5,2" d="M595.85,-80.54C619.17,-86.02 645.19,-92.15 669,-97.78 679.18,-100.19 690.18,-102.8 700.42,-105.24"/>
<polygon fill="#9a32cd" stroke="#9a32cd" points="596.57,-77.11 586.03,-78.23 594.97,-83.92 596.57,-77.11"/>
<text text-anchor="middle" x="636.5" y="-100.78" font-family="Helvetica,sans-Serif" font-size="10.00"> nameToToken</text>
</g>
</g>
</svg>
        <g id="navigator" transform="translate(0 0)" fill="#404254">
                <rect fill="#f2f5e9" fill-opacity="0.5" stroke="#606060" stroke-width=".5" x="0" y="0" width="60" height="60"/>
                <use id="zoomplus" xlink:href="#zoomPlus" x="17" y="9" onmousedown="handleZoom(evt,'in')"/>
                <use id="zoomminus" xlink:href="#zoomMin" x="42" y="9" onmousedown="handleZoom(evt,'out')"/>
                <use id="reset" xlink:href="#resetDef" x="30" y="36" onmousedown="handleReset()"/>
                <g id="arrowUp" xlink:href="#dirArrow" transform="translate(30 24)" onmousedown="handlePan(0,-1)">
                  <use xlink:href="#rim" fill="#404040">
                        <set attributeName="fill" to="#808080" begin="arrowUp.mouseover" end="arrowUp.mouseout"/>
                  </use>
                  <path fill="none" stroke="white" stroke-width="1.5" d="M0,-3.0v7 M-2.5,-0.5L0,-3.0L2.5,-0.5"/>
                </g>
                <g id="arrowRight" xlink:href="#dirArrow" transform="rotate(90) translate(36 -43)" onmousedown="handlePan(1,0)">
                  <use xlink:href="#rim" fill="#404040">
                        <set attributeName="fill" to="#808080" begin="arrowRight.mouseover" end="arrowRight.mouseout"/>
                  </use>
                  <path fill="none" stroke="white" stroke-width="1.5" d="M0,-3.0v7 M-2.5,-0.5L0,-3.0L2.5,-0.5"/>
                </g>
                <g id="arrowDown" xlink:href="#dirArrow" transform="rotate(180) translate(-30 -48)" onmousedown="handlePan(0,1)">
                  <use xlink:href="#rim" fill="#404040">
                        <set attributeName="fill" to="#808080" begin="arrowDown.mouseover" end="arrowDown.mouseout"/>
                  </use>
                  <path fill="none" stroke="white" stroke-width="1.5" d="M0,-3.0v7 M-2.5,-0.5L0,-3.0L2.5,-0.5"/>
                </g>
                <g id="arrowLeft" xlink:href="#dirArrow" transform="rotate(270) translate(-36 17)" onmousedown="handlePan(-1,0)">
                  <use xlink:href="#rim" fill="#404040">
                        <set attributeName="fill" to="#808080" begin="arrowLeft.mouseover" end="arrowLeft.mouseout"/>
                  </use>
                  <path fill="none" stroke="white" stroke-width="1.5" d="M0,-3.0v7 M-2.5,-0.5L0,-3.0L2.5,-0.5"/>
                </g>
        </g>
        <svg viewBox="0 0 15 15" width="100%" height="30px" preserveAspectRatio="xMaxYMin meet">
         <g id="arrow_out" transform="scale(0.3 0.3)">
          <a xlink:href="classTravel_1_1Scanner__coll__graph_org.svg" target="_base">
           <rect id="button" ry="5" rx="5" y="6" x="6" height="38" width="38"
                fill="#f2f5e9" fill-opacity="0.5" stroke="#606060" stroke-width="1.0"/>
           <path id="arrow"
             d="M 11.500037,31.436501 C 11.940474,20.09759 22.043105,11.32322 32.158766,21.979434 L 37.068811,17.246167 C 37.068811,17.246167 37.088388,32 37.088388,32 L 22.160133,31.978069 C 22.160133,31.978069 26.997745,27.140456 26.997745,27.140456 C 18.528582,18.264221 13.291696,25.230495 11.500037,31.436501 z"
             style="fill:#404040;"/>
          </a>
         </g>
        </svg>
</svg>
