<?xml version="1.0" encoding="UTF-8" standalone="no"?>
<!DOCTYPE svg PUBLIC "-//W3C//DTD SVG 1.1//EN"
 "http://www.w3.org/Graphics/SVG/1.1/DTD/svg11.dtd">
<!-- Generated by graphviz version 2.44.0 (0)
 -->
<!-- Title: Travel::VisitInterpreter Pages: 1 -->
<svg width="141pt" height="152pt"
 viewBox="0.00 0.00 140.50 152.00" xmlns="http://www.w3.org/2000/svg" xmlns:xlink="http://www.w3.org/1999/xlink">
<g id="graph0" class="graph" transform="scale(1 1) rotate(0) translate(4 148)">
<title>Travel::VisitInterpreter</title>
<polygon fill="white" stroke="transparent" points="-4,4 -4,-148 136.5,-148 136.5,4 -4,4"/>
<!-- Node1 -->
<g id="node1" class="node">
<title>Node1</title>
<g id="a_node1"><a xlink:title="An interpreter for the visit mode started by the visit &lt;destination&gt; command.">
<polygon fill="#bfbfbf" stroke="black" points="7.5,-0.5 7.5,-19.5 119.5,-19.5 119.5,-0.5 7.5,-0.5"/>
<text text-anchor="middle" x="63.5" y="-7.5" font-family="Helvetica,sans-Serif" font-size="10.00">Travel::VisitInterpreter</text>
</a>
</g>
</g>
<!-- Node2 -->
<g id="node2" class="node">
<title>Node2</title>
<g id="a_node2"><a xlink:href="classInterpreter.html" target="_top" xlink:title=" ">
<polygon fill="white" stroke="black" points="0,-57.5 0,-76.5 127,-76.5 127,-57.5 0,-57.5"/>
<text text-anchor="middle" x="63.5" y="-64.5" font-family="Helvetica,sans-Serif" font-size="10.00">Interpreter&lt; VisitBuilder &gt;</text>
</a>
</g>
</g>
<!-- Node2&#45;&gt;Node1 -->
<g id="edge1" class="edge">
<title>Node2&#45;&gt;Node1</title>
<path fill="none" stroke="midnightblue" d="M63.5,-47.12C63.5,-37.82 63.5,-27.06 63.5,-19.71"/>
<polygon fill="midnightblue" stroke="midnightblue" points="60,-47.41 63.5,-57.41 67,-47.41 60,-47.41"/>
</g>
<!-- Node3 -->
<g id="node3" class="node">
<title>Node3</title>
<g id="a_node3"><a xlink:href="classInterpreter.html" target="_top" xlink:title="A interface for command&#45;line interpreters.">
<polygon fill="white" stroke="black" points="4,-124.5 4,-143.5 123,-143.5 123,-124.5 4,-124.5"/>
<text text-anchor="middle" x="63.5" y="-131.5" font-family="Helvetica,sans-Serif" font-size="10.00">Interpreter&lt; Controller &gt;</text>
</a>
</g>
</g>
<!-- Node3&#45;&gt;Node2 -->
<g id="edge2" class="edge">
<title>Node3&#45;&gt;Node2</title>
<path fill="none" stroke="orange" stroke-dasharray="5,2" d="M63.5,-114.04C63.5,-101.67 63.5,-86.12 63.5,-76.63"/>
<polygon fill="orange" stroke="orange" points="60,-114.23 63.5,-124.23 67,-114.23 60,-114.23"/>
<text text-anchor="middle" x="98" y="-98" font-family="Helvetica,sans-Serif" font-size="10.00"> &lt; VisitBuilder &gt;</text>
</g>
</g>
</svg>
