<?xml version="1.0" encoding="UTF-8" standalone="no"?>
<!DOCTYPE svg PUBLIC "-//W3C//DTD SVG 1.1//EN"
 "http://www.w3.org/Graphics/SVG/1.1/DTD/svg11.dtd">
<!-- Generated by graphviz version 2.44.0 (0)
 -->
<!-- Title: Interpreter&lt; Controller &gt; Pages: 1 -->
<svg width="353pt" height="307pt"
 viewBox="0.00 0.00 353.00 307.00" xmlns="http://www.w3.org/2000/svg" xmlns:xlink="http://www.w3.org/1999/xlink">
<g id="graph0" class="graph" transform="scale(1 1) rotate(0) translate(4 303)">
<title>Interpreter&lt; Controller &gt;</title>
<polygon fill="white" stroke="transparent" points="-4,4 -4,-303 349,-303 349,4 -4,4"/>
<!-- Node1 -->
<g id="node1" class="node">
<title>Node1</title>
<g id="a_node1"><a xlink:title="A interface for command&#45;line interpreters.">
<polygon fill="#bfbfbf" stroke="black" points="146.5,-0.5 146.5,-19.5 265.5,-19.5 265.5,-0.5 146.5,-0.5"/>
<text text-anchor="middle" x="206" y="-7.5" font-family="Helvetica,sans-Serif" font-size="10.00">Interpreter&lt; Controller &gt;</text>
</a>
</g>
</g>
<!-- Node2 -->
<g id="node2" class="node">
<title>Node2</title>
<g id="a_node2"><a xlink:title=" ">
<polygon fill="white" stroke="#bfbfbf" points="142,-67.5 142,-97.5 270,-97.5 270,-67.5 142,-67.5"/>
<text text-anchor="start" x="150" y="-85.5" font-family="Helvetica,sans-Serif" font-size="10.00">std::shared_ptr&lt; ArrayList</text>
<text text-anchor="middle" x="206" y="-74.5" font-family="Helvetica,sans-Serif" font-size="10.00">&lt; Token &gt; &gt;</text>
</a>
</g>
</g>
<!-- Node2&#45;&gt;Node1 -->
<g id="edge1" class="edge">
<title>Node2&#45;&gt;Node1</title>
<path fill="none" stroke="#9a32cd" stroke-dasharray="5,2" d="M206,-57.09C206,-44.21 206,-29.2 206,-19.89"/>
<polygon fill="#9a32cd" stroke="#9a32cd" points="202.5,-57.23 206,-67.23 209.5,-57.23 202.5,-57.23"/>
<text text-anchor="middle" x="222" y="-41" font-family="Helvetica,sans-Serif" font-size="10.00"> tokens</text>
</g>
<!-- Node3 -->
<g id="node3" class="node">
<title>Node3</title>
<g id="a_node3"><a xlink:href="classArrayList.html" target="_top" xlink:title=" ">
<polygon fill="white" stroke="black" points="97.5,-145.5 97.5,-164.5 196.5,-164.5 196.5,-145.5 97.5,-145.5"/>
<text text-anchor="middle" x="147" y="-152.5" font-family="Helvetica,sans-Serif" font-size="10.00">ArrayList&lt; Token &gt;</text>
</a>
</g>
</g>
<!-- Node3&#45;&gt;Node2 -->
<g id="edge2" class="edge">
<title>Node3&#45;&gt;Node2</title>
<path fill="none" stroke="#9a32cd" stroke-dasharray="5,2" d="M160.9,-137.39C171.03,-125.28 184.62,-109.05 194.22,-97.58"/>
<polygon fill="#9a32cd" stroke="#9a32cd" points="157.97,-135.44 154.23,-145.36 163.34,-139.93 157.97,-135.44"/>
<text text-anchor="middle" x="186" y="-119" font-family="Helvetica,sans-Serif" font-size="10.00"> ptr</text>
</g>
<!-- Node4 -->
<g id="node4" class="node">
<title>Node4</title>
<g id="a_node4"><a xlink:href="classIList.html" target="_top" xlink:title=" ">
<polygon fill="white" stroke="black" points="0,-212.5 0,-231.5 80,-231.5 80,-212.5 0,-212.5"/>
<text text-anchor="middle" x="40" y="-219.5" font-family="Helvetica,sans-Serif" font-size="10.00">IList&lt; Token &gt;</text>
</a>
</g>
</g>
<!-- Node4&#45;&gt;Node3 -->
<g id="edge3" class="edge">
<title>Node4&#45;&gt;Node3</title>
<path fill="none" stroke="midnightblue" d="M63.14,-206.94C84.33,-194.07 115.02,-175.43 132.8,-164.63"/>
<polygon fill="midnightblue" stroke="midnightblue" points="61.16,-204.05 54.43,-212.23 64.79,-210.03 61.16,-204.05"/>
</g>
<!-- Node5 -->
<g id="node5" class="node">
<title>Node5</title>
<g id="a_node5"><a xlink:href="classIList.html" target="_top" xlink:title="An interface for a generic list.">
<polygon fill="white" stroke="black" points="58.5,-279.5 58.5,-298.5 117.5,-298.5 117.5,-279.5 58.5,-279.5"/>
<text text-anchor="middle" x="88" y="-286.5" font-family="Helvetica,sans-Serif" font-size="10.00">IList&lt; A &gt;</text>
</a>
</g>
</g>
<!-- Node5&#45;&gt;Node4 -->
<g id="edge4" class="edge">
<title>Node5&#45;&gt;Node4</title>
<path fill="none" stroke="orange" stroke-dasharray="5,2" d="M75.52,-271.17C73.03,-267.8 70.43,-264.29 68,-261 60.6,-250.98 52.12,-239.46 46.44,-231.76"/>
<polygon fill="orange" stroke="orange" points="72.92,-273.54 81.69,-279.49 78.55,-269.37 72.92,-273.54"/>
<text text-anchor="middle" x="91" y="-253" font-family="Helvetica,sans-Serif" font-size="10.00"> &lt; Token &gt;</text>
</g>
<!-- Node7 -->
<g id="node7" class="node">
<title>Node7</title>
<g id="a_node7"><a xlink:href="classArrayList.html" target="_top" xlink:title="An implementation of a list backed by a resizable array.">
<polygon fill="white" stroke="black" points="98.5,-212.5 98.5,-231.5 177.5,-231.5 177.5,-212.5 98.5,-212.5"/>
<text text-anchor="middle" x="138" y="-219.5" font-family="Helvetica,sans-Serif" font-size="10.00">ArrayList&lt; A &gt;</text>
</a>
</g>
</g>
<!-- Node5&#45;&gt;Node7 -->
<g id="edge7" class="edge">
<title>Node5&#45;&gt;Node7</title>
<path fill="none" stroke="midnightblue" d="M104.23,-272.21C107.6,-268.64 111.03,-264.79 114,-261 121.41,-251.54 128.59,-239.71 133.14,-231.79"/>
<polygon fill="midnightblue" stroke="midnightblue" points="101.66,-269.83 97.15,-279.42 106.65,-274.74 101.66,-269.83"/>
</g>
<!-- Node6 -->
<g id="node6" class="node">
<title>Node6</title>
<g id="a_node6"><a xlink:href="classToken.html" target="_top" xlink:title="Generic token for use in scanners/parsers.">
<polygon fill="white" stroke="black" points="195,-212.5 195,-231.5 239,-231.5 239,-212.5 195,-212.5"/>
<text text-anchor="middle" x="217" y="-219.5" font-family="Helvetica,sans-Serif" font-size="10.00">Token</text>
</a>
</g>
</g>
<!-- Node6&#45;&gt;Node3 -->
<g id="edge5" class="edge">
<title>Node6&#45;&gt;Node3</title>
<path fill="none" stroke="#9a32cd" stroke-dasharray="5,2" d="M208.6,-203.06C204.81,-196.23 199.85,-188.72 194,-183 186.19,-175.37 175.81,-169.11 166.79,-164.55"/>
<polygon fill="#9a32cd" stroke="#9a32cd" points="205.65,-204.97 213.3,-212.3 211.89,-201.8 205.65,-204.97"/>
<text text-anchor="middle" x="217.5" y="-186" font-family="Helvetica,sans-Serif" font-size="10.00"> elems</text>
</g>
<!-- Node7&#45;&gt;Node3 -->
<g id="edge6" class="edge">
<title>Node7&#45;&gt;Node3</title>
<path fill="none" stroke="orange" stroke-dasharray="5,2" d="M140.63,-202.04C142.34,-189.67 144.49,-174.12 145.81,-164.63"/>
<polygon fill="orange" stroke="orange" points="137.12,-201.85 139.21,-212.23 144.05,-202.81 137.12,-201.85"/>
<text text-anchor="middle" x="167" y="-186" font-family="Helvetica,sans-Serif" font-size="10.00"> &lt; Token &gt;</text>
</g>
<!-- Node8 -->
<g id="node8" class="node">
<title>Node8</title>
<g id="a_node8"><a xlink:title="STL class.">
<polygon fill="white" stroke="#bfbfbf" points="218.5,-145.5 218.5,-164.5 321.5,-164.5 321.5,-145.5 218.5,-145.5"/>
<text text-anchor="middle" x="270" y="-152.5" font-family="Helvetica,sans-Serif" font-size="10.00">std::shared_ptr&lt; T &gt;</text>
</a>
</g>
</g>
<!-- Node8&#45;&gt;Node2 -->
<g id="edge8" class="edge">
<title>Node8&#45;&gt;Node2</title>
<path fill="none" stroke="orange" stroke-dasharray="5,2" d="M255.24,-137.74C244.22,-125.6 229.3,-109.16 218.78,-97.58"/>
<polygon fill="orange" stroke="orange" points="252.84,-140.3 262.15,-145.36 258.02,-135.6 252.84,-140.3"/>
<text text-anchor="middle" x="294" y="-119" font-family="Helvetica,sans-Serif" font-size="10.00"> &lt; ArrayList&lt; Token &gt; &gt;</text>
</g>
<!-- Node9 -->
<g id="node9" class="node">
<title>Node9</title>
<g id="a_node9"><a xlink:title=" ">
<polygon fill="white" stroke="#bfbfbf" points="257.5,-212.5 257.5,-231.5 286.5,-231.5 286.5,-212.5 257.5,-212.5"/>
<text text-anchor="middle" x="272" y="-219.5" font-family="Helvetica,sans-Serif" font-size="10.00">T</text>
</a>
</g>
</g>
<!-- Node9&#45;&gt;Node8 -->
<g id="edge9" class="edge">
<title>Node9&#45;&gt;Node8</title>
<path fill="none" stroke="#9a32cd" stroke-dasharray="5,2" d="M271.42,-202.04C271.04,-189.67 270.56,-174.12 270.27,-164.63"/>
<polygon fill="#9a32cd" stroke="#9a32cd" points="267.92,-202.35 271.73,-212.23 274.92,-202.13 267.92,-202.35"/>
<text text-anchor="middle" x="278" y="-186" font-family="Helvetica,sans-Serif" font-size="10.00"> ptr</text>
</g>
</g>
</svg>
