<?xml version="1.0" encoding="UTF-8" standalone="no"?>
<!DOCTYPE svg PUBLIC "-//W3C//DTD SVG 1.1//EN"
 "http://www.w3.org/Graphics/SVG/1.1/DTD/svg11.dtd">
<!-- Generated by graphviz version 2.44.0 (0)
 -->
<!-- Title: User Pages: 1 -->
<svg width="725pt" height="189pt"
 viewBox="0.00 0.00 725.00 189.00" xmlns="http://www.w3.org/2000/svg" xmlns:xlink="http://www.w3.org/1999/xlink">
<g id="graph0" class="graph" transform="scale(1 1) rotate(0) translate(4 185)">
<title>User</title>
<polygon fill="white" stroke="transparent" points="-4,4 -4,-185 721,-185 721,4 -4,4"/>
<!-- Node1 -->
<g id="node1" class="node">
<title>Node1</title>
<g id="a_node1"><a xlink:title="This class is responsible for storing and loading information regarding the user.">
<polygon fill="#bfbfbf" stroke="black" points="679,-83.5 679,-102.5 717,-102.5 717,-83.5 679,-83.5"/>
<text text-anchor="middle" x="698" y="-90.5" font-family="Helvetica,sans-Serif" font-size="10.00">User</text>
</a>
</g>
</g>
<!-- Node2 -->
<g id="node2" class="node">
<title>Node2</title>
<g id="a_node2"><a xlink:href="structforType.html" target="_top" xlink:title=" ">
<polygon fill="white" stroke="black" points="474,-144.5 474,-163.5 564,-163.5 564,-144.5 474,-144.5"/>
<text text-anchor="middle" x="519" y="-151.5" font-family="Helvetica,sans-Serif" font-size="10.00">forType&lt; char * &gt;</text>
</a>
</g>
</g>
<!-- Node2&#45;&gt;Node1 -->
<g id="edge1" class="edge">
<title>Node2&#45;&gt;Node1</title>
<path fill="none" stroke="#9a32cd" stroke-dasharray="5,2" d="M561.17,-141.52C589.45,-132.71 627.74,-120.33 661,-108 666.84,-105.83 673.13,-103.29 678.8,-100.91"/>
<polygon fill="#9a32cd" stroke="#9a32cd" points="560.13,-138.18 551.61,-144.48 562.2,-144.86 560.13,-138.18"/>
<text text-anchor="middle" x="633.5" y="-129" font-family="Helvetica,sans-Serif" font-size="10.00"> destinations</text>
</g>
<!-- Node3 -->
<g id="node3" class="node">
<title>Node3</title>
<g id="a_node3"><a xlink:href="structforType.html" target="_top" xlink:title="A collection of template magic that operates on the provided type There is only a single piece of mag...">
<polygon fill="white" stroke="black" points="199,-161.5 199,-180.5 285,-180.5 285,-161.5 199,-161.5"/>
<text text-anchor="middle" x="242" y="-168.5" font-family="Helvetica,sans-Serif" font-size="10.00">forType&lt; Type &gt;</text>
</a>
</g>
</g>
<!-- Node3&#45;&gt;Node2 -->
<g id="edge2" class="edge">
<title>Node3&#45;&gt;Node2</title>
<path fill="none" stroke="orange" stroke-dasharray="5,2" d="M295.34,-167.76C346.96,-164.57 425,-159.75 473.66,-156.74"/>
<polygon fill="orange" stroke="orange" points="294.83,-164.29 285.07,-168.4 295.26,-171.28 294.83,-164.29"/>
<text text-anchor="middle" x="376.5" y="-168" font-family="Helvetica,sans-Serif" font-size="10.00"> &lt; char * &gt;</text>
</g>
<!-- Node4 -->
<g id="node4" class="node">
<title>Node4</title>
<g id="a_node4"><a xlink:href="classHashMap.html" target="_top" xlink:title=" ">
<polygon fill="white" stroke="black" points="450,-78 450,-108 588,-108 588,-78 450,-78"/>
<text text-anchor="start" x="458" y="-96" font-family="Helvetica,sans-Serif" font-size="10.00">HashMap&lt; SimpleString,</text>
<text text-anchor="middle" x="519" y="-85" font-family="Helvetica,sans-Serif" font-size="10.00"> ArrayList&lt; SimpleString &gt; &gt;</text>
</a>
</g>
</g>
<!-- Node4&#45;&gt;Node1 -->
<g id="edge3" class="edge">
<title>Node4&#45;&gt;Node1</title>
<path fill="none" stroke="#9a32cd" stroke-dasharray="5,2" d="M598.25,-93C628.19,-93 659.71,-93 678.86,-93"/>
<polygon fill="#9a32cd" stroke="#9a32cd" points="598.18,-89.5 588.18,-93 598.18,-96.5 598.18,-89.5"/>
<text text-anchor="middle" x="633.5" y="-96" font-family="Helvetica,sans-Serif" font-size="10.00"> pics</text>
</g>
<!-- Node5 -->
<g id="node5" class="node">
<title>Node5</title>
<g id="a_node5"><a xlink:href="structEntry.html" target="_top" xlink:title="An Entry describes a key&#45;value pair.">
<polygon fill="white" stroke="black" points="0,-88.5 0,-107.5 101,-107.5 101,-88.5 0,-88.5"/>
<text text-anchor="middle" x="50.5" y="-95.5" font-family="Helvetica,sans-Serif" font-size="10.00">Entry&lt; Key, Value &gt;</text>
</a>
</g>
</g>
<!-- Node5&#45;&gt;Node4 -->
<g id="edge4" class="edge">
<title>Node5&#45;&gt;Node4</title>
<path fill="none" stroke="#9a32cd" stroke-dasharray="5,2" d="M111.51,-107.39C186.73,-117.65 319.43,-130.79 432,-116 444.72,-114.33 458.23,-111.32 470.68,-108.02"/>
<polygon fill="#9a32cd" stroke="#9a32cd" points="111.68,-103.88 101.29,-105.96 110.71,-110.81 111.68,-103.88"/>
<text text-anchor="middle" x="242" y="-125" font-family="Helvetica,sans-Serif" font-size="10.00"> array</text>
</g>
<!-- Node6 -->
<g id="node6" class="node">
<title>Node6</title>
<g id="a_node6"><a xlink:href="classHashMap.html" target="_top" xlink:title="A generic implementation of a HashMap.">
<polygon fill="white" stroke="black" points="181,-76.5 181,-95.5 303,-95.5 303,-76.5 181,-76.5"/>
<text text-anchor="middle" x="242" y="-83.5" font-family="Helvetica,sans-Serif" font-size="10.00">HashMap&lt; Key, Value &gt;</text>
</a>
</g>
</g>
<!-- Node5&#45;&gt;Node6 -->
<g id="edge6" class="edge">
<title>Node5&#45;&gt;Node6</title>
<path fill="none" stroke="#9a32cd" stroke-dasharray="5,2" d="M111.54,-94.2C133.63,-92.8 158.63,-91.22 180.74,-89.82"/>
<polygon fill="#9a32cd" stroke="#9a32cd" points="111.05,-90.72 101.29,-94.85 111.49,-97.71 111.05,-90.72"/>
<text text-anchor="middle" x="141" y="-96" font-family="Helvetica,sans-Serif" font-size="10.00"> array</text>
</g>
<!-- Node6&#45;&gt;Node4 -->
<g id="edge5" class="edge">
<title>Node6&#45;&gt;Node4</title>
<path fill="none" stroke="orange" stroke-dasharray="5,2" d="M313.16,-87.79C355.15,-88.85 408.27,-90.21 449.89,-91.27"/>
<polygon fill="orange" stroke="orange" points="313.1,-84.28 303.01,-87.53 312.92,-91.28 313.1,-84.28"/>
<text text-anchor="start" x="321" y="-104" font-family="Helvetica,sans-Serif" font-size="10.00"> &lt; SimpleString, ArrayList</text>
<text text-anchor="middle" x="376.5" y="-93" font-family="Helvetica,sans-Serif" font-size="10.00">&lt; SimpleString &gt; &gt;</text>
</g>
<!-- Node7 -->
<g id="node7" class="node">
<title>Node7</title>
<g id="a_node7"><a xlink:href="classArrayList.html" target="_top" xlink:title=" ">
<polygon fill="white" stroke="black" points="470.5,-38.5 470.5,-57.5 567.5,-57.5 567.5,-38.5 470.5,-38.5"/>
<text text-anchor="middle" x="519" y="-45.5" font-family="Helvetica,sans-Serif" font-size="10.00">ArrayList&lt; char * &gt;</text>
</a>
</g>
</g>
<!-- Node7&#45;&gt;Node1 -->
<g id="edge7" class="edge">
<title>Node7&#45;&gt;Node1</title>
<path fill="none" stroke="#9a32cd" stroke-dasharray="5,2" d="M577.56,-57.75C603.36,-62.75 634,-69.58 661,-78 666.95,-79.85 673.27,-82.31 678.93,-84.7"/>
<polygon fill="#9a32cd" stroke="#9a32cd" points="578.04,-54.27 567.56,-55.85 576.74,-61.15 578.04,-54.27"/>
<text text-anchor="middle" x="633.5" y="-81" font-family="Helvetica,sans-Serif" font-size="10.00"> friends</text>
</g>
<!-- Node8 -->
<g id="node8" class="node">
<title>Node8</title>
<g id="a_node8"><a xlink:href="classIList.html" target="_top" xlink:title=" ">
<polygon fill="white" stroke="black" points="203.5,-38.5 203.5,-57.5 280.5,-57.5 280.5,-38.5 203.5,-38.5"/>
<text text-anchor="middle" x="242" y="-45.5" font-family="Helvetica,sans-Serif" font-size="10.00">IList&lt; char * &gt;</text>
</a>
</g>
</g>
<!-- Node8&#45;&gt;Node7 -->
<g id="edge8" class="edge">
<title>Node8&#45;&gt;Node7</title>
<path fill="none" stroke="midnightblue" d="M290.95,-48C341.27,-48 419.91,-48 470.19,-48"/>
<polygon fill="midnightblue" stroke="midnightblue" points="290.66,-44.5 280.66,-48 290.66,-51.5 290.66,-44.5"/>
</g>
<!-- Node9 -->
<g id="node9" class="node">
<title>Node9</title>
<g id="a_node9"><a xlink:href="classIList.html" target="_top" xlink:title="An interface for a generic list.">
<polygon fill="white" stroke="black" points="21,-34.5 21,-53.5 80,-53.5 80,-34.5 21,-34.5"/>
<text text-anchor="middle" x="50.5" y="-41.5" font-family="Helvetica,sans-Serif" font-size="10.00">IList&lt; A &gt;</text>
</a>
</g>
</g>
<!-- Node9&#45;&gt;Node8 -->
<g id="edge9" class="edge">
<title>Node9&#45;&gt;Node8</title>
<path fill="none" stroke="orange" stroke-dasharray="5,2" d="M90.49,-44.82C123.59,-45.52 170.77,-46.52 203.44,-47.21"/>
<polygon fill="orange" stroke="orange" points="90.35,-41.32 80.28,-44.61 90.2,-48.32 90.35,-41.32"/>
<text text-anchor="middle" x="141" y="-50" font-family="Helvetica,sans-Serif" font-size="10.00"> &lt; char * &gt;</text>
</g>
<!-- Node10 -->
<g id="node10" class="node">
<title>Node10</title>
<g id="a_node10"><a xlink:href="classArrayList.html" target="_top" xlink:title="An implementation of a list backed by a resizable array.">
<polygon fill="white" stroke="black" points="202.5,-0.5 202.5,-19.5 281.5,-19.5 281.5,-0.5 202.5,-0.5"/>
<text text-anchor="middle" x="242" y="-7.5" font-family="Helvetica,sans-Serif" font-size="10.00">ArrayList&lt; A &gt;</text>
</a>
</g>
</g>
<!-- Node9&#45;&gt;Node10 -->
<g id="edge11" class="edge">
<title>Node9&#45;&gt;Node10</title>
<path fill="none" stroke="midnightblue" d="M90.39,-37.02C123.15,-31.15 169.75,-22.78 202.41,-16.92"/>
<polygon fill="midnightblue" stroke="midnightblue" points="89.51,-33.63 80.28,-38.84 90.74,-40.52 89.51,-33.63"/>
</g>
<!-- Node10&#45;&gt;Node7 -->
<g id="edge10" class="edge">
<title>Node10&#45;&gt;Node7</title>
<path fill="none" stroke="orange" stroke-dasharray="5,2" d="M292.14,-15.28C330.34,-19.55 384.63,-25.99 432,-33 444.44,-34.84 457.86,-37.07 470.31,-39.23"/>
<polygon fill="orange" stroke="orange" points="292.13,-11.75 281.81,-14.13 291.36,-18.71 292.13,-11.75"/>
<text text-anchor="middle" x="376.5" y="-36" font-family="Helvetica,sans-Serif" font-size="10.00"> &lt; char * &gt;</text>
</g>
</g>
</svg>
