<?xml version="1.0" encoding="UTF-8" standalone="no"?>
<!DOCTYPE svg PUBLIC "-//W3C//DTD SVG 1.1//EN"
 "http://www.w3.org/Graphics/SVG/1.1/DTD/svg11.dtd">
<!-- Generated by graphviz version 2.44.0 (0)
 -->
<!-- Title: IList&lt; A &gt; Pages: 1 -->
<!--zoomable 298 -->
<svg id="main" version="1.1" xmlns="http://www.w3.org/2000/svg" xmlns:xlink="http://www.w3.org/1999/xlink" xml:space="preserve" onload="init(evt)">
<style type="text/css"><![CDATA[
.edge:hover path { stroke: red; }
.edge:hover polygon { stroke: red; fill: red; }
]]></style>
<script type="text/javascript"><![CDATA[
var edges = document.getElementsByTagName('g');
if (edges && edges.length) {
  for (var i=0;i<edges.length;i++) {
    if (edges[i].id.substr(0,4)=='edge') {
      edges[i].setAttribute('class','edge');
    }
  }
}
]]></script>
        <defs>
                <circle id="rim" cx="0" cy="0" r="7"/>
                <circle id="rim2" cx="0" cy="0" r="3.5"/>
                <g id="zoomPlus">
                        <use xlink:href="#rim" fill="#404040">
                                <set attributeName="fill" to="#808080" begin="zoomplus.mouseover" end="zoomplus.mouseout"/>
                        </use>
                        <path d="M-4,0h8M0,-4v8" fill="none" stroke="white" stroke-width="1.5" pointer-events="none"/>
                </g>
                <g id="zoomMin">
                        <use xlink:href="#rim" fill="#404040">
                                <set attributeName="fill" to="#808080" begin="zoomminus.mouseover" end="zoomminus.mouseout"/>
                        </use>
                        <path d="M-4,0h8" fill="none" stroke="white" stroke-width="1.5" pointer-events="none"/>
                </g>
                <g id="dirArrow">
                        <path fill="none" stroke="white" stroke-width="1.5" d="M0,-3.0v7 M-2.5,-0.5L0,-3.0L2.5,-0.5"/>
                </g>
               <g id="resetDef">
                       <use xlink:href="#rim2" fill="#404040">
                               <set attributeName="fill" to="#808080" begin="reset.mouseover" end="reset.mouseout"/>
                       </use>
               </g>
        </defs>

<script type="text/javascript">
var viewWidth = 525;
var viewHeight = 298;
var sectionId = 'dynsection-0';
</script>
<script xlink:href="svgpan.js"/>
<svg id="graph" class="graph">
<g id="viewport">
<title>IList&lt; A &gt;</title>
<polygon fill="white" stroke="transparent" points="-4,4 -4,-294 521,-294 521,4 -4,4"/>
<!-- Node1 -->
<g id="node1" class="node">
<title>Node1</title>
<g id="a_node1"><a xlink:title="An interface for a generic list.">
<polygon fill="#bfbfbf" stroke="black" points="0,-116.5 0,-135.5 59,-135.5 59,-116.5 0,-116.5"/>
<text text-anchor="middle" x="29.5" y="-123.5" font-family="Helvetica,sans-Serif" font-size="10.00">IList&lt; A &gt;</text>
</a>
</g>
</g>
<!-- Node2 -->
<g id="node2" class="node">
<title>Node2</title>
<g id="a_node2"><a xlink:href="classArrayList.html" target="_top" xlink:title="An implementation of a list backed by a resizable array.">
<polygon fill="white" stroke="black" points="184.5,-135.5 184.5,-154.5 263.5,-154.5 263.5,-135.5 184.5,-135.5"/>
<text text-anchor="middle" x="224" y="-142.5" font-family="Helvetica,sans-Serif" font-size="10.00">ArrayList&lt; A &gt;</text>
</a>
</g>
</g>
<!-- Node1&#45;&gt;Node2 -->
<g id="edge1" class="edge">
<title>Node1&#45;&gt;Node2</title>
<path fill="none" stroke="midnightblue" d="M69.64,-129.86C103.1,-133.17 151,-137.89 184.33,-141.18"/>
<polygon fill="midnightblue" stroke="midnightblue" points="69.61,-126.34 59.32,-128.84 68.93,-133.31 69.61,-126.34"/>
</g>
<!-- Node10 -->
<g id="node10" class="node">
<title>Node10</title>
<g id="a_node10"><a xlink:href="classLinkedList.html" target="_top" xlink:title="An implementation of a singly&#45;linked list.">
<polygon fill="white" stroke="black" points="181,-21.5 181,-40.5 267,-40.5 267,-21.5 181,-21.5"/>
<text text-anchor="middle" x="224" y="-28.5" font-family="Helvetica,sans-Serif" font-size="10.00">LinkedList&lt; A &gt;</text>
</a>
</g>
</g>
<!-- Node1&#45;&gt;Node10 -->
<g id="edge9" class="edge">
<title>Node1&#45;&gt;Node10</title>
<path fill="none" stroke="midnightblue" d="M41.55,-107.44C49.83,-95.09 62.24,-79.45 77,-70 108.49,-49.84 150.16,-40.04 180.92,-35.31"/>
<polygon fill="midnightblue" stroke="midnightblue" points="38.46,-105.78 36.06,-116.09 44.37,-109.53 38.46,-105.78"/>
</g>
<!-- Node11 -->
<g id="node11" class="node">
<title>Node11</title>
<g id="a_node11"><a xlink:href="classIList.html" target="_top" xlink:title=" ">
<polygon fill="white" stroke="black" points="170,-261.5 170,-280.5 278,-280.5 278,-261.5 170,-261.5"/>
<text text-anchor="middle" x="224" y="-268.5" font-family="Helvetica,sans-Serif" font-size="10.00">IList&lt; SimpleString &gt;</text>
</a>
</g>
</g>
<!-- Node1&#45;&gt;Node11 -->
<g id="edge10" class="edge">
<title>Node1&#45;&gt;Node11</title>
<path fill="none" stroke="orange" stroke-dasharray="5,2" d="M39.62,-144.48C47.77,-159.56 60.91,-180.64 77,-195 112.7,-226.88 164.19,-249.58 195.52,-261.46"/>
<polygon fill="orange" stroke="orange" points="42.71,-142.84 34.99,-135.57 36.49,-146.06 42.71,-142.84"/>
<text text-anchor="middle" x="114.5" y="-245" font-family="Helvetica,sans-Serif" font-size="10.00"> &lt; SimpleString &gt;</text>
</g>
<!-- Node12 -->
<g id="node12" class="node">
<title>Node12</title>
<g id="a_node12"><a xlink:href="classIList.html" target="_top" xlink:title=" ">
<polygon fill="white" stroke="black" points="184,-206.5 184,-225.5 264,-225.5 264,-206.5 184,-206.5"/>
<text text-anchor="middle" x="224" y="-213.5" font-family="Helvetica,sans-Serif" font-size="10.00">IList&lt; Token &gt;</text>
</a>
</g>
</g>
<!-- Node1&#45;&gt;Node12 -->
<g id="edge12" class="edge">
<title>Node1&#45;&gt;Node12</title>
<path fill="none" stroke="orange" stroke-dasharray="5,2" d="M60.03,-140C65.66,-142.67 71.51,-145.42 77,-148 121.55,-168.91 173.85,-193.21 202.19,-206.36"/>
<polygon fill="orange" stroke="orange" points="61.4,-136.78 50.86,-135.66 58.4,-143.11 61.4,-136.78"/>
<text text-anchor="middle" x="114.5" y="-184" font-family="Helvetica,sans-Serif" font-size="10.00"> &lt; Token &gt;</text>
</g>
<!-- Node13 -->
<g id="node13" class="node">
<title>Node13</title>
<g id="a_node13"><a xlink:href="classIList.html" target="_top" xlink:title=" ">
<polygon fill="white" stroke="black" points="185.5,-97.5 185.5,-116.5 262.5,-116.5 262.5,-97.5 185.5,-97.5"/>
<text text-anchor="middle" x="224" y="-104.5" font-family="Helvetica,sans-Serif" font-size="10.00">IList&lt; Tuple &gt;</text>
</a>
</g>
</g>
<!-- Node1&#45;&gt;Node13 -->
<g id="edge14" class="edge">
<title>Node1&#45;&gt;Node13</title>
<path fill="none" stroke="orange" stroke-dasharray="5,2" d="M69.32,-116.28C71.91,-115.8 74.49,-115.36 77,-115 113.56,-109.72 155.72,-107.86 185.31,-107.23"/>
<polygon fill="orange" stroke="orange" points="68.46,-112.88 59.37,-118.33 69.87,-119.74 68.46,-112.88"/>
<text text-anchor="middle" x="114.5" y="-118" font-family="Helvetica,sans-Serif" font-size="10.00"> &lt; Tuple &gt;</text>
</g>
<!-- Node14 -->
<g id="node14" class="node">
<title>Node14</title>
<g id="a_node14"><a xlink:href="classIList.html" target="_top" xlink:title=" ">
<polygon fill="white" stroke="black" points="185.5,-59.5 185.5,-78.5 262.5,-78.5 262.5,-59.5 185.5,-59.5"/>
<text text-anchor="middle" x="224" y="-66.5" font-family="Helvetica,sans-Serif" font-size="10.00">IList&lt; char * &gt;</text>
</a>
</g>
</g>
<!-- Node1&#45;&gt;Node14 -->
<g id="edge16" class="edge">
<title>Node1&#45;&gt;Node14</title>
<path fill="none" stroke="orange" stroke-dasharray="5,2" d="M49.09,-109.86C57.17,-103.66 67.05,-97.09 77,-93 112.04,-78.59 155.17,-72.82 185.44,-70.52"/>
<polygon fill="orange" stroke="orange" points="46.68,-107.3 41.11,-116.31 51.09,-112.74 46.68,-107.3"/>
<text text-anchor="middle" x="114.5" y="-96" font-family="Helvetica,sans-Serif" font-size="10.00"> &lt; char * &gt;</text>
</g>
<!-- Node3 -->
<g id="node3" class="node">
<title>Node3</title>
<g id="a_node3"><a xlink:href="classArraySet.html" target="_top" xlink:title="Literally an ArrayList but when adding items it checks if the element is already in the list.">
<polygon fill="white" stroke="black" points="414.5,-135.5 414.5,-154.5 491.5,-154.5 491.5,-135.5 414.5,-135.5"/>
<text text-anchor="middle" x="453" y="-142.5" font-family="Helvetica,sans-Serif" font-size="10.00">ArraySet&lt; A &gt;</text>
</a>
</g>
</g>
<!-- Node2&#45;&gt;Node3 -->
<g id="edge2" class="edge">
<title>Node2&#45;&gt;Node3</title>
<path fill="none" stroke="midnightblue" d="M273.54,-145C315.7,-145 375.87,-145 414.44,-145"/>
<polygon fill="midnightblue" stroke="midnightblue" points="273.51,-141.5 263.51,-145 273.51,-148.5 273.51,-141.5"/>
</g>
<!-- Node4 -->
<g id="node4" class="node">
<title>Node4</title>
<g id="a_node4"><a xlink:href="classSortedArrayList.html" target="_top" xlink:title="NOT IMPLEMENTED An array list that keeps itself sorted at all times.">
<polygon fill="white" stroke="black" points="399.5,-97.5 399.5,-116.5 506.5,-116.5 506.5,-97.5 399.5,-97.5"/>
<text text-anchor="middle" x="453" y="-104.5" font-family="Helvetica,sans-Serif" font-size="10.00">SortedArrayList&lt; A &gt;</text>
</a>
</g>
</g>
<!-- Node2&#45;&gt;Node4 -->
<g id="edge3" class="edge">
<title>Node2&#45;&gt;Node4</title>
<path fill="none" stroke="midnightblue" d="M273.54,-136.87C310.49,-130.69 361.28,-122.19 399.23,-115.83"/>
<polygon fill="midnightblue" stroke="midnightblue" points="272.79,-133.45 263.51,-138.55 273.95,-140.35 272.79,-133.45"/>
</g>
<!-- Node5 -->
<g id="node5" class="node">
<title>Node5</title>
<g id="a_node5"><a xlink:href="classStack.html" target="_top" xlink:title="An implementation of a stack leveraging ArrayList. Basically an ArrayList but most methods are privat...">
<polygon fill="white" stroke="black" points="420.5,-173.5 420.5,-192.5 485.5,-192.5 485.5,-173.5 420.5,-173.5"/>
<text text-anchor="middle" x="453" y="-180.5" font-family="Helvetica,sans-Serif" font-size="10.00">Stack&lt; A &gt;</text>
</a>
</g>
</g>
<!-- Node2&#45;&gt;Node5 -->
<g id="edge4" class="edge">
<title>Node2&#45;&gt;Node5</title>
<path fill="none" stroke="#8b1a1a" d="M273.49,-153.12C317.83,-160.54 382.16,-171.31 420.27,-177.69"/>
<polygon fill="#8b1a1a" stroke="#8b1a1a" points="273.95,-149.65 263.51,-151.45 272.79,-156.55 273.95,-149.65"/>
</g>
<!-- Node6 -->
<g id="node6" class="node">
<title>Node6</title>
<g id="a_node6"><a xlink:href="classArrayList.html" target="_top" xlink:title=" ">
<polygon fill="white" stroke="black" points="389,-270.5 389,-289.5 517,-289.5 517,-270.5 389,-270.5"/>
<text text-anchor="middle" x="453" y="-277.5" font-family="Helvetica,sans-Serif" font-size="10.00">ArrayList&lt; SimpleString &gt;</text>
</a>
</g>
</g>
<!-- Node2&#45;&gt;Node6 -->
<g id="edge5" class="edge">
<title>Node2&#45;&gt;Node6</title>
<path fill="none" stroke="orange" stroke-dasharray="5,2" d="M242.06,-161.66C252.47,-171.84 266.03,-185.14 278,-197 286.04,-204.96 286.61,-208.69 296,-215 333.21,-239.98 347.62,-236.78 389,-254 402.11,-259.45 416.77,-265.51 428.65,-270.4"/>
<polygon fill="orange" stroke="orange" points="244.39,-159.04 234.8,-154.56 239.5,-164.05 244.39,-159.04"/>
<text text-anchor="middle" x="333.5" y="-249" font-family="Helvetica,sans-Serif" font-size="10.00"> &lt; SimpleString &gt;</text>
</g>
<!-- Node7 -->
<g id="node7" class="node">
<title>Node7</title>
<g id="a_node7"><a xlink:href="classArrayList.html" target="_top" xlink:title=" ">
<polygon fill="white" stroke="black" points="403.5,-225.5 403.5,-244.5 502.5,-244.5 502.5,-225.5 403.5,-225.5"/>
<text text-anchor="middle" x="453" y="-232.5" font-family="Helvetica,sans-Serif" font-size="10.00">ArrayList&lt; Token &gt;</text>
</a>
</g>
</g>
<!-- Node2&#45;&gt;Node7 -->
<g id="edge6" class="edge">
<title>Node2&#45;&gt;Node7</title>
<path fill="none" stroke="orange" stroke-dasharray="5,2" d="M255.49,-158.75C267.98,-164.26 282.62,-170.59 296,-176 328.98,-189.35 337.72,-191.42 371,-204 389.87,-211.13 411.18,-219.29 427.2,-225.45"/>
<polygon fill="orange" stroke="orange" points="256.56,-155.39 246,-154.53 253.71,-161.79 256.56,-155.39"/>
<text text-anchor="middle" x="333.5" y="-207" font-family="Helvetica,sans-Serif" font-size="10.00"> &lt; Token &gt;</text>
</g>
<!-- Node8 -->
<g id="node8" class="node">
<title>Node8</title>
<g id="a_node8"><a xlink:href="classArrayList.html" target="_top" xlink:title=" ">
<polygon fill="white" stroke="black" points="405,-52.5 405,-71.5 501,-71.5 501,-52.5 405,-52.5"/>
<text text-anchor="middle" x="453" y="-59.5" font-family="Helvetica,sans-Serif" font-size="10.00">ArrayList&lt; Tuple &gt;</text>
</a>
</g>
</g>
<!-- Node2&#45;&gt;Node8 -->
<g id="edge7" class="edge">
<title>Node2&#45;&gt;Node8</title>
<path fill="none" stroke="orange" stroke-dasharray="5,2" d="M268.79,-131.31C272,-129.7 275.11,-127.94 278,-126 287.93,-119.34 285.85,-112.32 296,-106 329.21,-85.34 372.35,-74.14 404.84,-68.23"/>
<polygon fill="orange" stroke="orange" points="267.28,-128.15 259.56,-135.41 270.12,-134.55 267.28,-128.15"/>
<text text-anchor="middle" x="333.5" y="-109" font-family="Helvetica,sans-Serif" font-size="10.00"> &lt; Tuple &gt;</text>
</g>
<!-- Node9 -->
<g id="node9" class="node">
<title>Node9</title>
<g id="a_node9"><a xlink:href="classArrayList.html" target="_top" xlink:title=" ">
<polygon fill="white" stroke="black" points="404.5,-0.5 404.5,-19.5 501.5,-19.5 501.5,-0.5 404.5,-0.5"/>
<text text-anchor="middle" x="453" y="-7.5" font-family="Helvetica,sans-Serif" font-size="10.00">ArrayList&lt; char * &gt;</text>
</a>
</g>
</g>
<!-- Node2&#45;&gt;Node9 -->
<g id="edge8" class="edge">
<title>Node2&#45;&gt;Node9</title>
<path fill="none" stroke="orange" stroke-dasharray="5,2" d="M272.22,-131.1C274.31,-129.57 276.25,-127.88 278,-126 298.4,-104.03 275.29,-82.68 296,-61 311.55,-44.72 367.33,-29.11 407.76,-19.54"/>
<polygon fill="orange" stroke="orange" points="270.43,-128.09 263.61,-136.2 274,-134.12 270.43,-128.09"/>
<text text-anchor="middle" x="333.5" y="-64" font-family="Helvetica,sans-Serif" font-size="10.00"> &lt; char * &gt;</text>
</g>
<!-- Node11&#45;&gt;Node6 -->
<g id="edge11" class="edge">
<title>Node11&#45;&gt;Node6</title>
<path fill="none" stroke="midnightblue" d="M288.27,-273.69C290.88,-273.79 293.47,-273.9 296,-274 326.6,-275.24 360.58,-276.55 389,-277.63"/>
<polygon fill="midnightblue" stroke="midnightblue" points="288.25,-270.18 278.11,-273.27 287.96,-277.18 288.25,-270.18"/>
</g>
<!-- Node12&#45;&gt;Node7 -->
<g id="edge13" class="edge">
<title>Node12&#45;&gt;Node7</title>
<path fill="none" stroke="midnightblue" d="M249.32,-230.52C262.61,-237.62 279.66,-245.39 296,-249 336.23,-257.89 383.47,-251.36 415.35,-244.54"/>
<polygon fill="midnightblue" stroke="midnightblue" points="250.81,-227.35 240.37,-225.55 247.41,-233.47 250.81,-227.35"/>
</g>
<!-- Node13&#45;&gt;Node8 -->
<g id="edge15" class="edge">
<title>Node13&#45;&gt;Node8</title>
<path fill="none" stroke="midnightblue" d="M271.8,-93.04C274.02,-91.53 276.11,-89.85 278,-88 293.99,-72.35 277.57,-53.68 296,-41 338.55,-11.73 403.3,-37.12 434.28,-52.42"/>
<polygon fill="midnightblue" stroke="midnightblue" points="269.75,-90.18 262.72,-98.11 273.16,-96.29 269.75,-90.18"/>
</g>
<!-- Node14&#45;&gt;Node9 -->
<g id="edge17" class="edge">
<title>Node14&#45;&gt;Node9</title>
<path fill="none" stroke="midnightblue" d="M270.59,-54.94C273.19,-53.45 275.69,-51.81 278,-50 289.36,-41.12 283.58,-30.33 296,-23 328.54,-3.81 371.73,-1.62 404.42,-3.64"/>
<polygon fill="midnightblue" stroke="midnightblue" points="268.82,-51.91 261.4,-59.47 271.92,-58.19 268.82,-51.91"/>
</g>
</g>
</svg>
        <g id="navigator" transform="translate(0 0)" fill="#404254">
                <rect fill="#f2f5e9" fill-opacity="0.5" stroke="#606060" stroke-width=".5" x="0" y="0" width="60" height="60"/>
                <use id="zoomplus" xlink:href="#zoomPlus" x="17" y="9" onmousedown="handleZoom(evt,'in')"/>
                <use id="zoomminus" xlink:href="#zoomMin" x="42" y="9" onmousedown="handleZoom(evt,'out')"/>
                <use id="reset" xlink:href="#resetDef" x="30" y="36" onmousedown="handleReset()"/>
                <g id="arrowUp" xlink:href="#dirArrow" transform="translate(30 24)" onmousedown="handlePan(0,-1)">
                  <use xlink:href="#rim" fill="#404040">
                        <set attributeName="fill" to="#808080" begin="arrowUp.mouseover" end="arrowUp.mouseout"/>
                  </use>
                  <path fill="none" stroke="white" stroke-width="1.5" d="M0,-3.0v7 M-2.5,-0.5L0,-3.0L2.5,-0.5"/>
                </g>
                <g id="arrowRight" xlink:href="#dirArrow" transform="rotate(90) translate(36 -43)" onmousedown="handlePan(1,0)">
                  <use xlink:href="#rim" fill="#404040">
                        <set attributeName="fill" to="#808080" begin="arrowRight.mouseover" end="arrowRight.mouseout"/>
                  </use>
                  <path fill="none" stroke="white" stroke-width="1.5" d="M0,-3.0v7 M-2.5,-0.5L0,-3.0L2.5,-0.5"/>
                </g>
                <g id="arrowDown" xlink:href="#dirArrow" transform="rotate(180) translate(-30 -48)" onmousedown="handlePan(0,1)">
                  <use xlink:href="#rim" fill="#404040">
                        <set attributeName="fill" to="#808080" begin="arrowDown.mouseover" end="arrowDown.mouseout"/>
                  </use>
                  <path fill="none" stroke="white" stroke-width="1.5" d="M0,-3.0v7 M-2.5,-0.5L0,-3.0L2.5,-0.5"/>
                </g>
                <g id="arrowLeft" xlink:href="#dirArrow" transform="rotate(270) translate(-36 17)" onmousedown="handlePan(-1,0)">
                  <use xlink:href="#rim" fill="#404040">
                        <set attributeName="fill" to="#808080" begin="arrowLeft.mouseover" end="arrowLeft.mouseout"/>
                  </use>
                  <path fill="none" stroke="white" stroke-width="1.5" d="M0,-3.0v7 M-2.5,-0.5L0,-3.0L2.5,-0.5"/>
                </g>
        </g>
        <svg viewBox="0 0 15 15" width="100%" height="30px" preserveAspectRatio="xMaxYMin meet">
         <g id="arrow_out" transform="scale(0.3 0.3)">
          <a xlink:href="classIList__inherit__graph_org.svg" target="_base">
           <rect id="button" ry="5" rx="5" y="6" x="6" height="38" width="38"
                fill="#f2f5e9" fill-opacity="0.5" stroke="#606060" stroke-width="1.0"/>
           <path id="arrow"
             d="M 11.500037,31.436501 C 11.940474,20.09759 22.043105,11.32322 32.158766,21.979434 L 37.068811,17.246167 C 37.068811,17.246167 37.088388,32 37.088388,32 L 22.160133,31.978069 C 22.160133,31.978069 26.997745,27.140456 26.997745,27.140456 C 18.528582,18.264221 13.291696,25.230495 11.500037,31.436501 z"
             style="fill:#404040;"/>
          </a>
         </g>
        </svg>
</svg>
