<?xml version="1.0" encoding="UTF-8" standalone="no"?>
<!DOCTYPE svg PUBLIC "-//W3C//DTD SVG 1.1//EN"
 "http://www.w3.org/Graphics/SVG/1.1/DTD/svg11.dtd">
<!-- Generated by graphviz version 2.44.0 (0)
 -->
<!-- Title: Travel::HTLInterpreter Pages: 1 -->
<svg width="142pt" height="152pt"
 viewBox="0.00 0.00 142.00 152.00" xmlns="http://www.w3.org/2000/svg" xmlns:xlink="http://www.w3.org/1999/xlink">
<g id="graph0" class="graph" transform="scale(1 1) rotate(0) translate(4 148)">
<title>Travel::HTLInterpreter</title>
<polygon fill="white" stroke="transparent" points="-4,4 -4,-148 138,-148 138,4 -4,4"/>
<!-- Node1 -->
<g id="node1" class="node">
<title>Node1</title>
<g id="a_node1"><a xlink:title="An interpreter for general commands.">
<polygon fill="#bfbfbf" stroke="black" points="8,-0.5 8,-19.5 120,-19.5 120,-0.5 8,-0.5"/>
<text text-anchor="middle" x="64" y="-7.5" font-family="Helvetica,sans-Serif" font-size="10.00">Travel::HTLInterpreter</text>
</a>
</g>
</g>
<!-- Node2 -->
<g id="node2" class="node">
<title>Node2</title>
<g id="a_node2"><a xlink:href="classInterpreter.html" target="_top" xlink:title=" ">
<polygon fill="white" stroke="black" points="0,-57.5 0,-76.5 128,-76.5 128,-57.5 0,-57.5"/>
<text text-anchor="middle" x="64" y="-64.5" font-family="Helvetica,sans-Serif" font-size="10.00">Interpreter&lt; TravelState &gt;</text>
</a>
</g>
</g>
<!-- Node2&#45;&gt;Node1 -->
<g id="edge1" class="edge">
<title>Node2&#45;&gt;Node1</title>
<path fill="none" stroke="midnightblue" d="M64,-47.12C64,-37.82 64,-27.06 64,-19.71"/>
<polygon fill="midnightblue" stroke="midnightblue" points="60.5,-47.41 64,-57.41 67.5,-47.41 60.5,-47.41"/>
</g>
<!-- Node3 -->
<g id="node3" class="node">
<title>Node3</title>
<g id="a_node3"><a xlink:href="classInterpreter.html" target="_top" xlink:title="A interface for command&#45;line interpreters.">
<polygon fill="white" stroke="black" points="4.5,-124.5 4.5,-143.5 123.5,-143.5 123.5,-124.5 4.5,-124.5"/>
<text text-anchor="middle" x="64" y="-131.5" font-family="Helvetica,sans-Serif" font-size="10.00">Interpreter&lt; Controller &gt;</text>
</a>
</g>
</g>
<!-- Node3&#45;&gt;Node2 -->
<g id="edge2" class="edge">
<title>Node3&#45;&gt;Node2</title>
<path fill="none" stroke="orange" stroke-dasharray="5,2" d="M64,-114.04C64,-101.67 64,-86.12 64,-76.63"/>
<polygon fill="orange" stroke="orange" points="60.5,-114.23 64,-124.23 67.5,-114.23 60.5,-114.23"/>
<text text-anchor="middle" x="99" y="-98" font-family="Helvetica,sans-Serif" font-size="10.00"> &lt; TravelState &gt;</text>
</g>
</g>
</svg>
