<?xml version="1.0" encoding="UTF-8" standalone="no"?>
<!DOCTYPE svg PUBLIC "-//W3C//DTD SVG 1.1//EN"
 "http://www.w3.org/Graphics/SVG/1.1/DTD/svg11.dtd">
<!-- Generated by graphviz version 2.44.0 (0)
 -->
<!-- Title: Nullable&lt; A &gt; Pages: 1 -->
<svg width="156pt" height="84pt"
 viewBox="0.00 0.00 156.00 84.00" xmlns="http://www.w3.org/2000/svg" xmlns:xlink="http://www.w3.org/1999/xlink">
<g id="graph0" class="graph" transform="scale(1 1) rotate(0) translate(4 80)">
<title>Nullable&lt; A &gt;</title>
<polygon fill="white" stroke="transparent" points="-4,4 -4,-80 152,-80 152,4 -4,4"/>
<!-- Node1 -->
<g id="node1" class="node">
<title>Node1</title>
<g id="a_node1"><a xlink:title="An optional value container inspired by Haskell&#39;s Maybe and Scala&#39;s Option.">
<polygon fill="#bfbfbf" stroke="black" points="40,-56.5 40,-75.5 115,-75.5 115,-56.5 40,-56.5"/>
<text text-anchor="middle" x="77.5" y="-63.5" font-family="Helvetica,sans-Serif" font-size="10.00">Nullable&lt; A &gt;</text>
</a>
</g>
</g>
<!-- Node2 -->
<g id="node2" class="node">
<title>Node2</title>
<g id="a_node2"><a xlink:href="classNotNull.html" target="_top" xlink:title="This class represents a wrapper around a concrete value.">
<polygon fill="white" stroke="black" points="0,-0.5 0,-19.5 73,-19.5 73,-0.5 0,-0.5"/>
<text text-anchor="middle" x="36.5" y="-7.5" font-family="Helvetica,sans-Serif" font-size="10.00">NotNull&lt; A &gt;</text>
</a>
</g>
</g>
<!-- Node1&#45;&gt;Node2 -->
<g id="edge1" class="edge">
<title>Node1&#45;&gt;Node2</title>
<path fill="none" stroke="midnightblue" d="M64.48,-47.86C57.38,-38.5 48.9,-27.33 43.14,-19.75"/>
<polygon fill="midnightblue" stroke="midnightblue" points="61.89,-50.24 70.73,-56.08 67.47,-46 61.89,-50.24"/>
</g>
<!-- Node3 -->
<g id="node3" class="node">
<title>Node3</title>
<g id="a_node3"><a xlink:href="classNull.html" target="_top" xlink:title="This class represents nothing (null).">
<polygon fill="white" stroke="black" points="91,-0.5 91,-19.5 148,-19.5 148,-0.5 91,-0.5"/>
<text text-anchor="middle" x="119.5" y="-7.5" font-family="Helvetica,sans-Serif" font-size="10.00">Null&lt; A &gt;</text>
</a>
</g>
</g>
<!-- Node1&#45;&gt;Node3 -->
<g id="edge2" class="edge">
<title>Node1&#45;&gt;Node3</title>
<path fill="none" stroke="midnightblue" d="M90.61,-48.14C97.93,-38.74 106.74,-27.4 112.69,-19.75"/>
<polygon fill="midnightblue" stroke="midnightblue" points="87.81,-46.04 84.44,-56.08 93.34,-50.34 87.81,-46.04"/>
</g>
</g>
</svg>
