<?xml version="1.0" encoding="UTF-8" standalone="no"?>
<!DOCTYPE svg PUBLIC "-//W3C//DTD SVG 1.1//EN"
 "http://www.w3.org/Graphics/SVG/1.1/DTD/svg11.dtd">
<!-- Generated by graphviz version 2.44.0 (0)
 -->
<!-- Title: Travel::TravelState Pages: 1 -->
<!--zoomable 330 -->
<svg id="main" version="1.1" xmlns="http://www.w3.org/2000/svg" xmlns:xlink="http://www.w3.org/1999/xlink" xml:space="preserve" onload="init(evt)">
<style type="text/css"><![CDATA[
.edge:hover path { stroke: red; }
.edge:hover polygon { stroke: red; fill: red; }
]]></style>
<script type="text/javascript"><![CDATA[
var edges = document.getElementsByTagName('g');
if (edges && edges.length) {
  for (var i=0;i<edges.length;i++) {
    if (edges[i].id.substr(0,4)=='edge') {
      edges[i].setAttribute('class','edge');
    }
  }
}
]]></script>
        <defs>
                <circle id="rim" cx="0" cy="0" r="7"/>
                <circle id="rim2" cx="0" cy="0" r="3.5"/>
                <g id="zoomPlus">
                        <use xlink:href="#rim" fill="#404040">
                                <set attributeName="fill" to="#808080" begin="zoomplus.mouseover" end="zoomplus.mouseout"/>
                        </use>
                        <path d="M-4,0h8M0,-4v8" fill="none" stroke="white" stroke-width="1.5" pointer-events="none"/>
                </g>
                <g id="zoomMin">
                        <use xlink:href="#rim" fill="#404040">
                                <set attributeName="fill" to="#808080" begin="zoomminus.mouseover" end="zoomminus.mouseout"/>
                        </use>
                        <path d="M-4,0h8" fill="none" stroke="white" stroke-width="1.5" pointer-events="none"/>
                </g>
                <g id="dirArrow">
                        <path fill="none" stroke="white" stroke-width="1.5" d="M0,-3.0v7 M-2.5,-0.5L0,-3.0L2.5,-0.5"/>
                </g>
               <g id="resetDef">
                       <use xlink:href="#rim2" fill="#404040">
                               <set attributeName="fill" to="#808080" begin="reset.mouseover" end="reset.mouseout"/>
                       </use>
               </g>
        </defs>

<script type="text/javascript">
var viewWidth = 1183;
var viewHeight = 330;
var sectionId = 'dynsection-0';
</script>
<script xlink:href="svgpan.js"/>
<svg id="graph" class="graph">
<g id="viewport">
<title>Travel::TravelState</title>
<polygon fill="white" stroke="transparent" points="-4,4 -4,-325.88 1179,-325.88 1179,4 -4,4"/>
<!-- Node1 -->
<g id="node1" class="node">
<title>Node1</title>
<g id="a_node1"><a xlink:title=" ">
<polygon fill="#bfbfbf" stroke="black" points="1077,-115.38 1077,-134.38 1175,-134.38 1175,-115.38 1077,-115.38"/>
<text text-anchor="middle" x="1126" y="-122.38" font-family="Helvetica,sans-Serif" font-size="10.00">Travel::TravelState</text>
</a>
</g>
</g>
<!-- Node2 -->
<g id="node2" class="node">
<title>Node2</title>
<g id="a_node2"><a xlink:href="classCSV.html" target="_top" xlink:title=" ">
<polygon fill="white" stroke="black" points="881,-215.38 881,-256.38 980,-256.38 980,-215.38 881,-215.38"/>
<text text-anchor="start" x="889" y="-244.38" font-family="Helvetica,sans-Serif" font-size="10.00">CSV&lt; const char *,</text>
<text text-anchor="start" x="889" y="-233.38" font-family="Helvetica,sans-Serif" font-size="10.00"> const char *, const</text>
<text text-anchor="middle" x="930.5" y="-222.38" font-family="Helvetica,sans-Serif" font-size="10.00"> char * &gt;</text>
</a>
</g>
</g>
<!-- Node2&#45;&gt;Node1 -->
<g id="edge1" class="edge">
<title>Node2&#45;&gt;Node1</title>
<path fill="none" stroke="#9a32cd" stroke-dasharray="5,2" d="M976.12,-210.28C1018.23,-186.12 1079.12,-151.2 1108.25,-134.49"/>
<polygon fill="#9a32cd" stroke="#9a32cd" points="974.37,-207.25 967.44,-215.26 977.86,-213.32 974.37,-207.25"/>
<text text-anchor="middle" x="1028.5" y="-198.88" font-family="Helvetica,sans-Serif" font-size="10.00"> csv</text>
</g>
<!-- Node3 -->
<g id="node3" class="node">
<title>Node3</title>
<g id="a_node3"><a xlink:href="classArrayList.html" target="_top" xlink:title=" ">
<polygon fill="white" stroke="black" points="359,-227.38 359,-246.38 455,-246.38 455,-227.38 359,-227.38"/>
<text text-anchor="middle" x="407" y="-234.38" font-family="Helvetica,sans-Serif" font-size="10.00">ArrayList&lt; Tuple &gt;</text>
</a>
</g>
</g>
<!-- Node3&#45;&gt;Node2 -->
<g id="edge2" class="edge">
<title>Node3&#45;&gt;Node2</title>
<path fill="none" stroke="#9a32cd" stroke-dasharray="5,2" d="M465.45,-233.36C506.98,-231 564.43,-228.1 615,-226.88 676.32,-225.4 691.69,-225.32 753,-226.88 796.25,-227.98 845.4,-230.6 880.83,-232.73"/>
<polygon fill="#9a32cd" stroke="#9a32cd" points="465.03,-229.88 455.25,-233.95 465.43,-236.87 465.03,-229.88"/>
<text text-anchor="middle" x="684" y="-229.88" font-family="Helvetica,sans-Serif" font-size="10.00"> entries</text>
</g>
<!-- Node9 -->
<g id="node9" class="node">
<title>Node9</title>
<g id="a_node9"><a xlink:href="classCSV.html" target="_top" xlink:title="An ill&#45;conceived attempt to create a csv file.">
<polygon fill="white" stroke="black" points="644,-247.38 644,-266.38 724,-266.38 724,-247.38 644,-247.38"/>
<text text-anchor="middle" x="684" y="-254.38" font-family="Helvetica,sans-Serif" font-size="10.00">CSV&lt; Types &gt;</text>
</a>
</g>
</g>
<!-- Node3&#45;&gt;Node9 -->
<g id="edge11" class="edge">
<title>Node3&#45;&gt;Node9</title>
<path fill="none" stroke="#9a32cd" stroke-dasharray="5,2" d="M465.29,-241.05C518.8,-244.94 597.23,-250.64 643.89,-254.04"/>
<polygon fill="#9a32cd" stroke="#9a32cd" points="465.5,-237.55 455.27,-240.32 464.99,-244.53 465.5,-237.55"/>
<text text-anchor="middle" x="541.5" y="-252.88" font-family="Helvetica,sans-Serif" font-size="10.00"> entries</text>
</g>
<!-- Node4 -->
<g id="node4" class="node">
<title>Node4</title>
<g id="a_node4"><a xlink:href="classIList.html" target="_top" xlink:title=" ">
<polygon fill="white" stroke="black" points="151,-223.38 151,-242.38 228,-242.38 228,-223.38 151,-223.38"/>
<text text-anchor="middle" x="189.5" y="-230.38" font-family="Helvetica,sans-Serif" font-size="10.00">IList&lt; Tuple &gt;</text>
</a>
</g>
</g>
<!-- Node4&#45;&gt;Node3 -->
<g id="edge3" class="edge">
<title>Node4&#45;&gt;Node3</title>
<path fill="none" stroke="midnightblue" d="M238.25,-233.77C274.11,-234.43 322.99,-235.34 358.73,-236"/>
<polygon fill="midnightblue" stroke="midnightblue" points="238.1,-230.26 228.04,-233.58 237.97,-237.26 238.1,-230.26"/>
</g>
<!-- Node5 -->
<g id="node5" class="node">
<title>Node5</title>
<g id="a_node5"><a xlink:href="classIList.html" target="_top" xlink:title="An interface for a generic list.">
<polygon fill="white" stroke="black" points="0,-179.38 0,-198.38 59,-198.38 59,-179.38 0,-179.38"/>
<text text-anchor="middle" x="29.5" y="-186.38" font-family="Helvetica,sans-Serif" font-size="10.00">IList&lt; A &gt;</text>
</a>
</g>
</g>
<!-- Node5&#45;&gt;Node4 -->
<g id="edge4" class="edge">
<title>Node5&#45;&gt;Node4</title>
<path fill="none" stroke="orange" stroke-dasharray="5,2" d="M69.11,-200.6C71.78,-201.38 74.43,-202.15 77,-202.88 101.97,-209.99 130.21,-217.59 152.02,-223.35"/>
<polygon fill="orange" stroke="orange" points="70.06,-197.23 59.48,-197.75 68.08,-203.94 70.06,-197.23"/>
<text text-anchor="middle" x="99" y="-216.88" font-family="Helvetica,sans-Serif" font-size="10.00"> &lt; Tuple &gt;</text>
</g>
<!-- Node7 -->
<g id="node7" class="node">
<title>Node7</title>
<g id="a_node7"><a xlink:href="classArrayList.html" target="_top" xlink:title="An implementation of a list backed by a resizable array.">
<polygon fill="white" stroke="black" points="150,-179.38 150,-198.38 229,-198.38 229,-179.38 150,-179.38"/>
<text text-anchor="middle" x="189.5" y="-186.38" font-family="Helvetica,sans-Serif" font-size="10.00">ArrayList&lt; A &gt;</text>
</a>
</g>
</g>
<!-- Node5&#45;&gt;Node7 -->
<g id="edge7" class="edge">
<title>Node5&#45;&gt;Node7</title>
<path fill="none" stroke="midnightblue" d="M69.17,-188.88C93.75,-188.88 125.44,-188.88 149.99,-188.88"/>
<polygon fill="midnightblue" stroke="midnightblue" points="69.11,-185.38 59.11,-188.88 69.11,-192.38 69.11,-185.38"/>
</g>
<!-- Node18 -->
<g id="node18" class="node">
<title>Node18</title>
<g id="a_node18"><a xlink:href="classIList.html" target="_top" xlink:title=" ">
<polygon fill="white" stroke="black" points="151,-137.38 151,-156.38 228,-156.38 228,-137.38 151,-137.38"/>
<text text-anchor="middle" x="189.5" y="-144.38" font-family="Helvetica,sans-Serif" font-size="10.00">IList&lt; char * &gt;</text>
</a>
</g>
</g>
<!-- Node5&#45;&gt;Node18 -->
<g id="edge25" class="edge">
<title>Node5&#45;&gt;Node18</title>
<path fill="none" stroke="orange" stroke-dasharray="5,2" d="M68.56,-176.35C71.41,-175.49 74.24,-174.66 77,-173.88 101.44,-166.99 129.19,-160.26 150.9,-155.25"/>
<polygon fill="orange" stroke="orange" points="67.44,-173.03 58.92,-179.34 69.51,-179.72 67.44,-173.03"/>
<text text-anchor="middle" x="99" y="-176.88" font-family="Helvetica,sans-Serif" font-size="10.00"> &lt; char * &gt;</text>
</g>
<!-- Node6 -->
<g id="node6" class="node">
<title>Node6</title>
<g id="a_node6"><a xlink:href="classTuple.html" target="_top" xlink:title="Tuple implementation partially taken from www.stroustrup.com/C++11FAQ.html::variadic&#45;templates It was...">
<polygon fill="white" stroke="black" points="153,-263.38 153,-282.38 226,-282.38 226,-263.38 153,-263.38"/>
<text text-anchor="middle" x="189.5" y="-270.38" font-family="Helvetica,sans-Serif" font-size="10.00">Tuple&lt; Tail &gt;</text>
</a>
</g>
</g>
<!-- Node6&#45;&gt;Node3 -->
<g id="edge5" class="edge">
<title>Node6&#45;&gt;Node3</title>
<path fill="none" stroke="#9a32cd" stroke-dasharray="5,2" d="M236.31,-265.23C272.3,-259.21 322.26,-250.87 358.65,-244.79"/>
<polygon fill="#9a32cd" stroke="#9a32cd" points="235.37,-261.83 226.09,-266.93 236.53,-268.74 235.37,-261.83"/>
<text text-anchor="middle" x="293" y="-263.88" font-family="Helvetica,sans-Serif" font-size="10.00"> elems</text>
</g>
<!-- Node8 -->
<g id="node8" class="node">
<title>Node8</title>
<g id="a_node8"><a xlink:href="classTuple.html" target="_top" xlink:title=" ">
<polygon fill="white" stroke="black" points="353,-294.38 353,-313.38 461,-313.38 461,-294.38 353,-294.38"/>
<text text-anchor="middle" x="407" y="-301.38" font-family="Helvetica,sans-Serif" font-size="10.00">Tuple&lt; const char * &gt;</text>
</a>
</g>
</g>
<!-- Node6&#45;&gt;Node8 -->
<g id="edge9" class="edge">
<title>Node6&#45;&gt;Node8</title>
<path fill="none" stroke="orange" stroke-dasharray="5,2" d="M236.22,-279.46C270.27,-284.35 316.84,-291.05 352.59,-296.2"/>
<polygon fill="orange" stroke="orange" points="236.48,-275.96 226.09,-278 235.49,-282.89 236.48,-275.96"/>
<text text-anchor="middle" x="293" y="-294.88" font-family="Helvetica,sans-Serif" font-size="10.00"> &lt; const char * &gt;</text>
</g>
<!-- Node7&#45;&gt;Node3 -->
<g id="edge6" class="edge">
<title>Node7&#45;&gt;Node3</title>
<path fill="none" stroke="orange" stroke-dasharray="5,2" d="M239.15,-199.35C265.47,-205.05 298.54,-212.27 328,-218.88 340.07,-221.59 353.17,-224.59 365.13,-227.35"/>
<polygon fill="orange" stroke="orange" points="239.57,-195.85 229.05,-197.16 238.09,-202.7 239.57,-195.85"/>
<text text-anchor="middle" x="293" y="-221.88" font-family="Helvetica,sans-Serif" font-size="10.00"> &lt; Tuple &gt;</text>
</g>
<!-- Node17 -->
<g id="node17" class="node">
<title>Node17</title>
<g id="a_node17"><a xlink:href="classArrayList.html" target="_top" xlink:title=" ">
<polygon fill="white" stroke="black" points="358.5,-161.38 358.5,-180.38 455.5,-180.38 455.5,-161.38 358.5,-161.38"/>
<text text-anchor="middle" x="407" y="-168.38" font-family="Helvetica,sans-Serif" font-size="10.00">ArrayList&lt; char * &gt;</text>
</a>
</g>
</g>
<!-- Node7&#45;&gt;Node17 -->
<g id="edge26" class="edge">
<title>Node7&#45;&gt;Node17</title>
<path fill="none" stroke="orange" stroke-dasharray="5,2" d="M239.59,-180.21C245.77,-179.31 252.02,-178.51 258,-177.88 291.39,-174.38 329.19,-172.63 358.24,-171.75"/>
<polygon fill="orange" stroke="orange" points="238.66,-176.81 229.3,-181.78 239.72,-183.73 238.66,-176.81"/>
<text text-anchor="middle" x="293" y="-180.88" font-family="Helvetica,sans-Serif" font-size="10.00"> &lt; char * &gt;</text>
</g>
<!-- Node8&#45;&gt;Node2 -->
<g id="edge8" class="edge">
<title>Node8&#45;&gt;Node2</title>
<path fill="none" stroke="#9a32cd" stroke-dasharray="5,2" d="M471,-309.25C560.46,-314.79 728.39,-317.47 863,-274.88 876.14,-270.72 889.48,-263.59 900.72,-256.56"/>
<polygon fill="#9a32cd" stroke="#9a32cd" points="471.22,-305.75 461.02,-308.59 470.77,-312.74 471.22,-305.75"/>
<text text-anchor="middle" x="684" y="-313.88" font-family="Helvetica,sans-Serif" font-size="10.00"> _header</text>
</g>
<!-- Node8&#45;&gt;Node9 -->
<g id="edge12" class="edge">
<title>Node8&#45;&gt;Node9</title>
<path fill="none" stroke="#9a32cd" stroke-dasharray="5,2" d="M456.65,-292.01C466.34,-289.83 476.47,-287.68 486,-285.88 540.52,-275.59 604.11,-266.81 643.97,-261.68"/>
<polygon fill="#9a32cd" stroke="#9a32cd" points="455.72,-288.64 446.75,-294.29 457.28,-295.46 455.72,-288.64"/>
<text text-anchor="middle" x="541.5" y="-288.88" font-family="Helvetica,sans-Serif" font-size="10.00"> _header</text>
</g>
<!-- Node9&#45;&gt;Node2 -->
<g id="edge10" class="edge">
<title>Node9&#45;&gt;Node2</title>
<path fill="none" stroke="orange" stroke-dasharray="5,2" d="M734.17,-252.66C776.89,-248.99 838.41,-243.7 880.95,-240.05"/>
<polygon fill="orange" stroke="orange" points="733.68,-249.19 724.01,-253.53 734.27,-256.16 733.68,-249.19"/>
<text text-anchor="start" x="771" y="-262.88" font-family="Helvetica,sans-Serif" font-size="10.00"> &lt; const char *, const</text>
<text text-anchor="middle" x="817" y="-251.88" font-family="Helvetica,sans-Serif" font-size="10.00"> char *, const char * &gt;</text>
</g>
<!-- Node10 -->
<g id="node10" class="node">
<title>Node10</title>
<g id="a_node10"><a xlink:href="classHashMap.html" target="_top" xlink:title=" ">
<polygon fill="white" stroke="black" points="621.5,-65.88 621.5,-95.88 746.5,-95.88 746.5,-65.88 621.5,-65.88"/>
<text text-anchor="start" x="629.5" y="-83.88" font-family="Helvetica,sans-Serif" font-size="10.00">HashMap&lt; SimpleString,</text>
<text text-anchor="middle" x="684" y="-72.88" font-family="Helvetica,sans-Serif" font-size="10.00"> User * &gt;</text>
</a>
</g>
</g>
<!-- Node10&#45;&gt;Node1 -->
<g id="edge13" class="edge">
<title>Node10&#45;&gt;Node1</title>
<path fill="none" stroke="#9a32cd" stroke-dasharray="5,2" d="M756.66,-81.15C816.56,-82.12 904.14,-85.29 980,-94.88 1016.73,-99.52 1058.01,-108.43 1087.11,-115.34"/>
<polygon fill="#9a32cd" stroke="#9a32cd" points="756.59,-77.65 746.54,-81 756.49,-84.65 756.59,-77.65"/>
<text text-anchor="middle" x="930.5" y="-97.88" font-family="Helvetica,sans-Serif" font-size="10.00"> users</text>
</g>
<!-- Node11 -->
<g id="node11" class="node">
<title>Node11</title>
<g id="a_node11"><a xlink:href="structEntry.html" target="_top" xlink:title="An Entry describes a key&#45;value pair.">
<polygon fill="white" stroke="black" points="139,-25.38 139,-44.38 240,-44.38 240,-25.38 139,-25.38"/>
<text text-anchor="middle" x="189.5" y="-32.38" font-family="Helvetica,sans-Serif" font-size="10.00">Entry&lt; Key, Value &gt;</text>
</a>
</g>
</g>
<!-- Node11&#45;&gt;Node10 -->
<g id="edge14" class="edge">
<title>Node11&#45;&gt;Node10</title>
<path fill="none" stroke="#9a32cd" stroke-dasharray="5,2" d="M240.03,-46.51C246.06,-47.74 252.16,-48.9 258,-49.88 358.59,-66.74 384.26,-68.8 486,-75.88 531.22,-79.03 582.41,-80.25 621.27,-80.71"/>
<polygon fill="#9a32cd" stroke="#9a32cd" points="240.49,-43.03 229.98,-44.38 239.04,-49.88 240.49,-43.03"/>
<text text-anchor="middle" x="407" y="-77.88" font-family="Helvetica,sans-Serif" font-size="10.00"> array</text>
</g>
<!-- Node12 -->
<g id="node12" class="node">
<title>Node12</title>
<g id="a_node12"><a xlink:href="classHashMap.html" target="_top" xlink:title="A generic implementation of a HashMap.">
<polygon fill="white" stroke="black" points="346,-25.38 346,-44.38 468,-44.38 468,-25.38 346,-25.38"/>
<text text-anchor="middle" x="407" y="-32.38" font-family="Helvetica,sans-Serif" font-size="10.00">HashMap&lt; Key, Value &gt;</text>
</a>
</g>
</g>
<!-- Node11&#45;&gt;Node12 -->
<g id="edge16" class="edge">
<title>Node11&#45;&gt;Node12</title>
<path fill="none" stroke="#9a32cd" stroke-dasharray="5,2" d="M250.45,-34.88C280.19,-34.88 316.02,-34.88 345.79,-34.88"/>
<polygon fill="#9a32cd" stroke="#9a32cd" points="250.21,-31.38 240.21,-34.88 250.21,-38.38 250.21,-31.38"/>
<text text-anchor="middle" x="293" y="-37.88" font-family="Helvetica,sans-Serif" font-size="10.00"> array</text>
</g>
<!-- Node16 -->
<g id="node16" class="node">
<title>Node16</title>
<g id="a_node16"><a xlink:href="classHashMap.html" target="_top" xlink:title=" ">
<polygon fill="white" stroke="black" points="615,-3.88 615,-33.88 753,-33.88 753,-3.88 615,-3.88"/>
<text text-anchor="start" x="623" y="-21.88" font-family="Helvetica,sans-Serif" font-size="10.00">HashMap&lt; SimpleString,</text>
<text text-anchor="middle" x="684" y="-10.88" font-family="Helvetica,sans-Serif" font-size="10.00"> ArrayList&lt; SimpleString &gt; &gt;</text>
</a>
</g>
</g>
<!-- Node11&#45;&gt;Node16 -->
<g id="edge21" class="edge">
<title>Node11&#45;&gt;Node16</title>
<path fill="none" stroke="#9a32cd" stroke-dasharray="5,2" d="M238.82,-23.09C269.34,-16.26 309.73,-8.35 346,-4.88 457.09,5.74 485.66,-4.33 597,-11.88 602.83,-12.27 608.88,-12.71 614.94,-13.17"/>
<polygon fill="#9a32cd" stroke="#9a32cd" points="237.84,-19.73 228.87,-25.36 239.39,-26.55 237.84,-19.73"/>
<text text-anchor="middle" x="407" y="-7.88" font-family="Helvetica,sans-Serif" font-size="10.00"> array</text>
</g>
<!-- Node12&#45;&gt;Node10 -->
<g id="edge15" class="edge">
<title>Node12&#45;&gt;Node10</title>
<path fill="none" stroke="orange" stroke-dasharray="5,2" d="M478.36,-45.59C513.96,-51.13 557.81,-58.13 597,-64.88 604.93,-66.25 613.27,-67.73 621.5,-69.23"/>
<polygon fill="orange" stroke="orange" points="478.49,-42.07 468.08,-44 477.42,-48.99 478.49,-42.07"/>
<text text-anchor="middle" x="541.5" y="-67.88" font-family="Helvetica,sans-Serif" font-size="10.00"> &lt; SimpleString, User * &gt;</text>
</g>
<!-- Node12&#45;&gt;Node16 -->
<g id="edge22" class="edge">
<title>Node12&#45;&gt;Node16</title>
<path fill="none" stroke="orange" stroke-dasharray="5,2" d="M459.91,-23.51C468.58,-22.01 477.52,-20.71 486,-19.88 528.72,-15.7 576.9,-15.38 614.92,-16.14"/>
<polygon fill="orange" stroke="orange" points="459.1,-20.1 449.89,-25.35 460.36,-26.99 459.1,-20.1"/>
<text text-anchor="start" x="486" y="-33.88" font-family="Helvetica,sans-Serif" font-size="10.00"> &lt; SimpleString, ArrayList</text>
<text text-anchor="middle" x="541.5" y="-22.88" font-family="Helvetica,sans-Serif" font-size="10.00">&lt; SimpleString &gt; &gt;</text>
</g>
<!-- Node13 -->
<g id="node13" class="node">
<title>Node13</title>
<g id="a_node13"><a xlink:href="classUser.html" target="_top" xlink:title="This class is responsible for storing and loading information regarding the user.">
<polygon fill="white" stroke="black" points="911.5,-115.38 911.5,-134.38 949.5,-134.38 949.5,-115.38 911.5,-115.38"/>
<text text-anchor="middle" x="930.5" y="-122.38" font-family="Helvetica,sans-Serif" font-size="10.00">User</text>
</a>
</g>
</g>
<!-- Node13&#45;&gt;Node1 -->
<g id="edge17" class="edge">
<title>Node13&#45;&gt;Node1</title>
<path fill="none" stroke="#9a32cd" stroke-dasharray="5,2" d="M960.1,-124.88C990.77,-124.88 1039.99,-124.88 1076.68,-124.88"/>
<polygon fill="#9a32cd" stroke="#9a32cd" points="959.7,-121.38 949.7,-124.88 959.7,-128.38 959.7,-121.38"/>
<text text-anchor="middle" x="1028.5" y="-127.88" font-family="Helvetica,sans-Serif" font-size="10.00"> loggedInUser</text>
</g>
<!-- Node14 -->
<g id="node14" class="node">
<title>Node14</title>
<g id="a_node14"><a xlink:href="structforType.html" target="_top" xlink:title=" ">
<polygon fill="white" stroke="black" points="639,-115.38 639,-134.38 729,-134.38 729,-115.38 639,-115.38"/>
<text text-anchor="middle" x="684" y="-122.38" font-family="Helvetica,sans-Serif" font-size="10.00">forType&lt; char * &gt;</text>
</a>
</g>
</g>
<!-- Node14&#45;&gt;Node13 -->
<g id="edge18" class="edge">
<title>Node14&#45;&gt;Node13</title>
<path fill="none" stroke="#9a32cd" stroke-dasharray="5,2" d="M739.52,-124.88C794.3,-124.88 875.6,-124.88 911.43,-124.88"/>
<polygon fill="#9a32cd" stroke="#9a32cd" points="739.28,-121.38 729.28,-124.88 739.28,-128.38 739.28,-121.38"/>
<text text-anchor="middle" x="817" y="-127.88" font-family="Helvetica,sans-Serif" font-size="10.00"> destinations</text>
</g>
<!-- Node15 -->
<g id="node15" class="node">
<title>Node15</title>
<g id="a_node15"><a xlink:href="structforType.html" target="_top" xlink:title="A collection of template magic that operates on the provided type There is only a single piece of mag...">
<polygon fill="white" stroke="black" points="364,-119.38 364,-138.38 450,-138.38 450,-119.38 364,-119.38"/>
<text text-anchor="middle" x="407" y="-126.38" font-family="Helvetica,sans-Serif" font-size="10.00">forType&lt; Type &gt;</text>
</a>
</g>
</g>
<!-- Node15&#45;&gt;Node14 -->
<g id="edge19" class="edge">
<title>Node15&#45;&gt;Node14</title>
<path fill="none" stroke="orange" stroke-dasharray="5,2" d="M460.34,-128.12C511.96,-127.37 590,-126.23 638.66,-125.52"/>
<polygon fill="orange" stroke="orange" points="460.01,-124.62 450.07,-128.27 460.12,-131.62 460.01,-124.62"/>
<text text-anchor="middle" x="541.5" y="-130.88" font-family="Helvetica,sans-Serif" font-size="10.00"> &lt; char * &gt;</text>
</g>
<!-- Node16&#45;&gt;Node13 -->
<g id="edge20" class="edge">
<title>Node16&#45;&gt;Node13</title>
<path fill="none" stroke="#9a32cd" stroke-dasharray="5,2" d="M729.15,-38.02C783.46,-61.57 873.15,-100.45 911.35,-117.01"/>
<polygon fill="#9a32cd" stroke="#9a32cd" points="730.34,-34.72 719.77,-33.95 727.55,-41.14 730.34,-34.72"/>
<text text-anchor="middle" x="817" y="-96.88" font-family="Helvetica,sans-Serif" font-size="10.00"> pics</text>
</g>
<!-- Node17&#45;&gt;Node13 -->
<g id="edge23" class="edge">
<title>Node17&#45;&gt;Node13</title>
<path fill="none" stroke="#9a32cd" stroke-dasharray="5,2" d="M465.91,-169.78C552.65,-167.5 721.27,-160.57 863,-139.88 879.51,-137.47 898.01,-133.16 911.29,-129.78"/>
<polygon fill="#9a32cd" stroke="#9a32cd" points="465.65,-166.29 455.75,-170.04 465.83,-173.28 465.65,-166.29"/>
<text text-anchor="middle" x="684" y="-165.88" font-family="Helvetica,sans-Serif" font-size="10.00"> friends</text>
</g>
<!-- Node18&#45;&gt;Node17 -->
<g id="edge24" class="edge">
<title>Node18&#45;&gt;Node17</title>
<path fill="none" stroke="midnightblue" d="M238.22,-152.19C273.95,-156.17 322.62,-161.59 358.34,-165.57"/>
<polygon fill="midnightblue" stroke="midnightblue" points="238.36,-148.69 228.04,-151.06 237.59,-155.65 238.36,-148.69"/>
</g>
</g>
</svg>
        <g id="navigator" transform="translate(0 0)" fill="#404254">
                <rect fill="#f2f5e9" fill-opacity="0.5" stroke="#606060" stroke-width=".5" x="0" y="0" width="60" height="60"/>
                <use id="zoomplus" xlink:href="#zoomPlus" x="17" y="9" onmousedown="handleZoom(evt,'in')"/>
                <use id="zoomminus" xlink:href="#zoomMin" x="42" y="9" onmousedown="handleZoom(evt,'out')"/>
                <use id="reset" xlink:href="#resetDef" x="30" y="36" onmousedown="handleReset()"/>
                <g id="arrowUp" xlink:href="#dirArrow" transform="translate(30 24)" onmousedown="handlePan(0,-1)">
                  <use xlink:href="#rim" fill="#404040">
                        <set attributeName="fill" to="#808080" begin="arrowUp.mouseover" end="arrowUp.mouseout"/>
                  </use>
                  <path fill="none" stroke="white" stroke-width="1.5" d="M0,-3.0v7 M-2.5,-0.5L0,-3.0L2.5,-0.5"/>
                </g>
                <g id="arrowRight" xlink:href="#dirArrow" transform="rotate(90) translate(36 -43)" onmousedown="handlePan(1,0)">
                  <use xlink:href="#rim" fill="#404040">
                        <set attributeName="fill" to="#808080" begin="arrowRight.mouseover" end="arrowRight.mouseout"/>
                  </use>
                  <path fill="none" stroke="white" stroke-width="1.5" d="M0,-3.0v7 M-2.5,-0.5L0,-3.0L2.5,-0.5"/>
                </g>
                <g id="arrowDown" xlink:href="#dirArrow" transform="rotate(180) translate(-30 -48)" onmousedown="handlePan(0,1)">
                  <use xlink:href="#rim" fill="#404040">
                        <set attributeName="fill" to="#808080" begin="arrowDown.mouseover" end="arrowDown.mouseout"/>
                  </use>
                  <path fill="none" stroke="white" stroke-width="1.5" d="M0,-3.0v7 M-2.5,-0.5L0,-3.0L2.5,-0.5"/>
                </g>
                <g id="arrowLeft" xlink:href="#dirArrow" transform="rotate(270) translate(-36 17)" onmousedown="handlePan(-1,0)">
                  <use xlink:href="#rim" fill="#404040">
                        <set attributeName="fill" to="#808080" begin="arrowLeft.mouseover" end="arrowLeft.mouseout"/>
                  </use>
                  <path fill="none" stroke="white" stroke-width="1.5" d="M0,-3.0v7 M-2.5,-0.5L0,-3.0L2.5,-0.5"/>
                </g>
        </g>
        <svg viewBox="0 0 15 15" width="100%" height="30px" preserveAspectRatio="xMaxYMin meet">
         <g id="arrow_out" transform="scale(0.3 0.3)">
          <a xlink:href="classTravel_1_1TravelState__coll__graph_org.svg" target="_base">
           <rect id="button" ry="5" rx="5" y="6" x="6" height="38" width="38"
                fill="#f2f5e9" fill-opacity="0.5" stroke="#606060" stroke-width="1.0"/>
           <path id="arrow"
             d="M 11.500037,31.436501 C 11.940474,20.09759 22.043105,11.32322 32.158766,21.979434 L 37.068811,17.246167 C 37.068811,17.246167 37.088388,32 37.088388,32 L 22.160133,31.978069 C 22.160133,31.978069 26.997745,27.140456 26.997745,27.140456 C 18.528582,18.264221 13.291696,25.230495 11.500037,31.436501 z"
             style="fill:#404040;"/>
          </a>
         </g>
        </svg>
</svg>
