<?xml version="1.0" encoding="UTF-8" standalone="no"?>
<!DOCTYPE svg PUBLIC "-//W3C//DTD SVG 1.1//EN"
 "http://www.w3.org/Graphics/SVG/1.1/DTD/svg11.dtd">
<!-- Generated by graphviz version 2.44.0 (0)
 -->
<!-- Title: Travel::VisitBuilder Pages: 1 -->
<svg width="322pt" height="240pt"
 viewBox="0.00 0.00 322.00 240.00" xmlns="http://www.w3.org/2000/svg" xmlns:xlink="http://www.w3.org/1999/xlink">
<g id="graph0" class="graph" transform="scale(1 1) rotate(0) translate(4 236)">
<title>Travel::VisitBuilder</title>
<polygon fill="white" stroke="transparent" points="-4,4 -4,-236 318,-236 318,4 -4,4"/>
<!-- Node1 -->
<g id="node1" class="node">
<title>Node1</title>
<g id="a_node1"><a xlink:title="Holds all information necessary to construct a visit.">
<polygon fill="#bfbfbf" stroke="black" points="173,-0.5 173,-19.5 271,-19.5 271,-0.5 173,-0.5"/>
<text text-anchor="middle" x="222" y="-7.5" font-family="Helvetica,sans-Serif" font-size="10.00">Travel::VisitBuilder</text>
</a>
</g>
</g>
<!-- Node2 -->
<g id="node2" class="node">
<title>Node2</title>
<g id="a_node2"><a xlink:href="classArrayList.html" target="_top" xlink:title=" ">
<polygon fill="white" stroke="black" points="100,-78.5 100,-97.5 228,-97.5 228,-78.5 100,-78.5"/>
<text text-anchor="middle" x="164" y="-85.5" font-family="Helvetica,sans-Serif" font-size="10.00">ArrayList&lt; SimpleString &gt;</text>
</a>
</g>
</g>
<!-- Node2&#45;&gt;Node1 -->
<g id="edge1" class="edge">
<title>Node2&#45;&gt;Node1</title>
<path fill="none" stroke="#9a32cd" stroke-dasharray="5,2" d="M176.97,-70.01C188.9,-54.37 206.12,-31.81 215.42,-19.62"/>
<polygon fill="#9a32cd" stroke="#9a32cd" points="173.94,-68.21 170.65,-78.28 179.5,-72.46 173.94,-68.21"/>
<text text-anchor="middle" x="218.5" y="-46.5" font-family="Helvetica,sans-Serif" font-size="10.00"> _photos</text>
</g>
<!-- Node3 -->
<g id="node3" class="node">
<title>Node3</title>
<g id="a_node3"><a xlink:href="classIList.html" target="_top" xlink:title=" ">
<polygon fill="white" stroke="black" points="0,-145.5 0,-164.5 108,-164.5 108,-145.5 0,-145.5"/>
<text text-anchor="middle" x="54" y="-152.5" font-family="Helvetica,sans-Serif" font-size="10.00">IList&lt; SimpleString &gt;</text>
</a>
</g>
</g>
<!-- Node3&#45;&gt;Node2 -->
<g id="edge2" class="edge">
<title>Node3&#45;&gt;Node2</title>
<path fill="none" stroke="midnightblue" d="M77.5,-140.12C99.29,-127.24 131.04,-108.48 149.4,-97.63"/>
<polygon fill="midnightblue" stroke="midnightblue" points="75.66,-137.13 68.84,-145.23 79.22,-143.16 75.66,-137.13"/>
</g>
<!-- Node4 -->
<g id="node4" class="node">
<title>Node4</title>
<g id="a_node4"><a xlink:href="classIList.html" target="_top" xlink:title="An interface for a generic list.">
<polygon fill="white" stroke="black" points="80.5,-212.5 80.5,-231.5 139.5,-231.5 139.5,-212.5 80.5,-212.5"/>
<text text-anchor="middle" x="110" y="-219.5" font-family="Helvetica,sans-Serif" font-size="10.00">IList&lt; A &gt;</text>
</a>
</g>
</g>
<!-- Node4&#45;&gt;Node3 -->
<g id="edge3" class="edge">
<title>Node4&#45;&gt;Node3</title>
<path fill="none" stroke="orange" stroke-dasharray="5,2" d="M85.12,-206.81C80.01,-203.1 74.98,-198.79 71,-194 63.71,-185.21 58.94,-172.8 56.36,-164.58"/>
<polygon fill="orange" stroke="orange" points="83.36,-209.84 93.63,-212.44 87.22,-204 83.36,-209.84"/>
<text text-anchor="middle" x="108.5" y="-186" font-family="Helvetica,sans-Serif" font-size="10.00"> &lt; SimpleString &gt;</text>
</g>
<!-- Node6 -->
<g id="node6" class="node">
<title>Node6</title>
<g id="a_node6"><a xlink:href="classArrayList.html" target="_top" xlink:title="An implementation of a list backed by a resizable array.">
<polygon fill="white" stroke="black" points="126.5,-145.5 126.5,-164.5 205.5,-164.5 205.5,-145.5 126.5,-145.5"/>
<text text-anchor="middle" x="166" y="-152.5" font-family="Helvetica,sans-Serif" font-size="10.00">ArrayList&lt; A &gt;</text>
</a>
</g>
</g>
<!-- Node4&#45;&gt;Node6 -->
<g id="edge6" class="edge">
<title>Node4&#45;&gt;Node6</title>
<path fill="none" stroke="midnightblue" d="M132.84,-206.28C137.54,-202.62 142.2,-198.46 146,-194 153.64,-185.04 159.47,-172.66 162.81,-164.5"/>
<polygon fill="midnightblue" stroke="midnightblue" points="130.6,-203.59 124.54,-212.28 134.69,-209.26 130.6,-203.59"/>
</g>
<!-- Node5 -->
<g id="node5" class="node">
<title>Node5</title>
<g id="a_node5"><a xlink:href="classSimpleString.html" target="_top" xlink:title="An exceedingly simple implementation of a string class.">
<polygon fill="white" stroke="black" points="226,-145.5 226,-164.5 298,-164.5 298,-145.5 226,-145.5"/>
<text text-anchor="middle" x="262" y="-152.5" font-family="Helvetica,sans-Serif" font-size="10.00">SimpleString</text>
</a>
</g>
</g>
<!-- Node5&#45;&gt;Node2 -->
<g id="edge4" class="edge">
<title>Node5&#45;&gt;Node2</title>
<path fill="none" stroke="#9a32cd" stroke-dasharray="5,2" d="M254.74,-135.76C251.19,-128.78 246.3,-121.24 240,-116 229.77,-107.49 216.67,-101.58 204.23,-97.51"/>
<polygon fill="#9a32cd" stroke="#9a32cd" points="251.71,-137.57 259,-145.27 258.1,-134.71 251.71,-137.57"/>
<text text-anchor="middle" x="263.5" y="-119" font-family="Helvetica,sans-Serif" font-size="10.00"> elems</text>
</g>
<!-- Node6&#45;&gt;Node2 -->
<g id="edge5" class="edge">
<title>Node6&#45;&gt;Node2</title>
<path fill="none" stroke="orange" stroke-dasharray="5,2" d="M165.28,-135.37C165.18,-132.57 165.09,-129.71 165,-127 164.68,-116.97 164.39,-105.46 164.2,-97.75"/>
<polygon fill="orange" stroke="orange" points="161.79,-135.63 165.66,-145.49 168.79,-135.36 161.79,-135.63"/>
<text text-anchor="middle" x="202.5" y="-119" font-family="Helvetica,sans-Serif" font-size="10.00"> &lt; SimpleString &gt;</text>
</g>
<!-- Node7 -->
<g id="node7" class="node">
<title>Node7</title>
<g id="a_node7"><a xlink:href="classTravel_1_1Date.html" target="_top" xlink:title="Stores a date (in ISO 8601) and has some useful methods for working with dates.">
<polygon fill="white" stroke="black" points="246,-78.5 246,-97.5 314,-97.5 314,-78.5 246,-78.5"/>
<text text-anchor="middle" x="280" y="-85.5" font-family="Helvetica,sans-Serif" font-size="10.00">Travel::Date</text>
</a>
</g>
</g>
<!-- Node7&#45;&gt;Node1 -->
<g id="edge7" class="edge">
<title>Node7&#45;&gt;Node1</title>
<path fill="none" stroke="#9a32cd" stroke-dasharray="5,2" d="M267.03,-70.01C255.1,-54.37 237.88,-31.81 228.58,-19.62"/>
<polygon fill="#9a32cd" stroke="#9a32cd" points="264.5,-72.46 273.35,-78.28 270.06,-68.21 264.5,-72.46"/>
<text text-anchor="middle" x="271" y="-52" font-family="Helvetica,sans-Serif" font-size="10.00"> _from</text>
<text text-anchor="middle" x="271" y="-41" font-family="Helvetica,sans-Serif" font-size="10.00">_to</text>
</g>
</g>
</svg>
