<?xml version="1.0" encoding="UTF-8" standalone="no"?>
<!DOCTYPE svg PUBLIC "-//W3C//DTD SVG 1.1//EN"
 "http://www.w3.org/Graphics/SVG/1.1/DTD/svg11.dtd">
<!-- Generated by graphviz version 2.44.0 (0)
 -->
<!-- Title: Travel::VisitInterpreter Pages: 1 -->
<svg width="368pt" height="431pt"
 viewBox="0.00 0.00 367.50 431.00" xmlns="http://www.w3.org/2000/svg" xmlns:xlink="http://www.w3.org/1999/xlink">
<g id="graph0" class="graph" transform="scale(1 1) rotate(0) translate(4 427)">
<title>Travel::VisitInterpreter</title>
<polygon fill="white" stroke="transparent" points="-4,4 -4,-427 363.5,-427 363.5,4 -4,4"/>
<!-- Node1 -->
<g id="node1" class="node">
<title>Node1</title>
<g id="a_node1"><a xlink:title="An interpreter for the visit mode started by the visit &lt;destination&gt; command.">
<polygon fill="#bfbfbf" stroke="black" points="150,-0.5 150,-19.5 262,-19.5 262,-0.5 150,-0.5"/>
<text text-anchor="middle" x="206" y="-7.5" font-family="Helvetica,sans-Serif" font-size="10.00">Travel::VisitInterpreter</text>
</a>
</g>
</g>
<!-- Node2 -->
<g id="node2" class="node">
<title>Node2</title>
<g id="a_node2"><a xlink:href="classInterpreter.html" target="_top" xlink:title=" ">
<polygon fill="white" stroke="black" points="142.5,-57.5 142.5,-76.5 269.5,-76.5 269.5,-57.5 142.5,-57.5"/>
<text text-anchor="middle" x="206" y="-64.5" font-family="Helvetica,sans-Serif" font-size="10.00">Interpreter&lt; VisitBuilder &gt;</text>
</a>
</g>
</g>
<!-- Node2&#45;&gt;Node1 -->
<g id="edge1" class="edge">
<title>Node2&#45;&gt;Node1</title>
<path fill="none" stroke="midnightblue" d="M206,-47.12C206,-37.82 206,-27.06 206,-19.71"/>
<polygon fill="midnightblue" stroke="midnightblue" points="202.5,-47.41 206,-57.41 209.5,-47.41 202.5,-47.41"/>
</g>
<!-- Node3 -->
<g id="node3" class="node">
<title>Node3</title>
<g id="a_node3"><a xlink:title=" ">
<polygon fill="white" stroke="#bfbfbf" points="142,-191.5 142,-221.5 270,-221.5 270,-191.5 142,-191.5"/>
<text text-anchor="start" x="150" y="-209.5" font-family="Helvetica,sans-Serif" font-size="10.00">std::shared_ptr&lt; ArrayList</text>
<text text-anchor="middle" x="206" y="-198.5" font-family="Helvetica,sans-Serif" font-size="10.00">&lt; Token &gt; &gt;</text>
</a>
</g>
</g>
<!-- Node3&#45;&gt;Node2 -->
<g id="edge2" class="edge">
<title>Node3&#45;&gt;Node2</title>
<path fill="none" stroke="#9a32cd" stroke-dasharray="5,2" d="M202.02,-181.16C199.84,-164.97 197.8,-143.23 199,-124 200.05,-107.18 202.85,-87.68 204.57,-76.7"/>
<polygon fill="#9a32cd" stroke="#9a32cd" points="198.61,-181.99 203.52,-191.38 205.53,-180.98 198.61,-181.99"/>
<text text-anchor="middle" x="215" y="-131.5" font-family="Helvetica,sans-Serif" font-size="10.00"> tokens</text>
</g>
<!-- Node11 -->
<g id="node11" class="node">
<title>Node11</title>
<g id="a_node11"><a xlink:href="classInterpreter.html" target="_top" xlink:title="A interface for command&#45;line interpreters.">
<polygon fill="white" stroke="black" points="240.5,-124.5 240.5,-143.5 359.5,-143.5 359.5,-124.5 240.5,-124.5"/>
<text text-anchor="middle" x="300" y="-131.5" font-family="Helvetica,sans-Serif" font-size="10.00">Interpreter&lt; Controller &gt;</text>
</a>
</g>
</g>
<!-- Node3&#45;&gt;Node11 -->
<g id="edge12" class="edge">
<title>Node3&#45;&gt;Node11</title>
<path fill="none" stroke="#9a32cd" stroke-dasharray="5,2" d="M233.04,-185.22C251.38,-171.47 274.69,-153.98 288.41,-143.69"/>
<polygon fill="#9a32cd" stroke="#9a32cd" points="230.92,-182.43 225.02,-191.23 235.12,-188.03 230.92,-182.43"/>
<text text-anchor="middle" x="277" y="-165" font-family="Helvetica,sans-Serif" font-size="10.00"> tokens</text>
</g>
<!-- Node4 -->
<g id="node4" class="node">
<title>Node4</title>
<g id="a_node4"><a xlink:href="classArrayList.html" target="_top" xlink:title=" ">
<polygon fill="white" stroke="black" points="97.5,-269.5 97.5,-288.5 196.5,-288.5 196.5,-269.5 97.5,-269.5"/>
<text text-anchor="middle" x="147" y="-276.5" font-family="Helvetica,sans-Serif" font-size="10.00">ArrayList&lt; Token &gt;</text>
</a>
</g>
</g>
<!-- Node4&#45;&gt;Node3 -->
<g id="edge3" class="edge">
<title>Node4&#45;&gt;Node3</title>
<path fill="none" stroke="#9a32cd" stroke-dasharray="5,2" d="M160.9,-261.39C171.03,-249.28 184.62,-233.05 194.22,-221.58"/>
<polygon fill="#9a32cd" stroke="#9a32cd" points="157.97,-259.44 154.23,-269.36 163.34,-263.93 157.97,-259.44"/>
<text text-anchor="middle" x="186" y="-243" font-family="Helvetica,sans-Serif" font-size="10.00"> ptr</text>
</g>
<!-- Node5 -->
<g id="node5" class="node">
<title>Node5</title>
<g id="a_node5"><a xlink:href="classIList.html" target="_top" xlink:title=" ">
<polygon fill="white" stroke="black" points="0,-336.5 0,-355.5 80,-355.5 80,-336.5 0,-336.5"/>
<text text-anchor="middle" x="40" y="-343.5" font-family="Helvetica,sans-Serif" font-size="10.00">IList&lt; Token &gt;</text>
</a>
</g>
</g>
<!-- Node5&#45;&gt;Node4 -->
<g id="edge4" class="edge">
<title>Node5&#45;&gt;Node4</title>
<path fill="none" stroke="midnightblue" d="M63.14,-330.94C84.33,-318.07 115.02,-299.43 132.8,-288.63"/>
<polygon fill="midnightblue" stroke="midnightblue" points="61.16,-328.05 54.43,-336.23 64.79,-334.03 61.16,-328.05"/>
</g>
<!-- Node6 -->
<g id="node6" class="node">
<title>Node6</title>
<g id="a_node6"><a xlink:href="classIList.html" target="_top" xlink:title="An interface for a generic list.">
<polygon fill="white" stroke="black" points="58.5,-403.5 58.5,-422.5 117.5,-422.5 117.5,-403.5 58.5,-403.5"/>
<text text-anchor="middle" x="88" y="-410.5" font-family="Helvetica,sans-Serif" font-size="10.00">IList&lt; A &gt;</text>
</a>
</g>
</g>
<!-- Node6&#45;&gt;Node5 -->
<g id="edge5" class="edge">
<title>Node6&#45;&gt;Node5</title>
<path fill="none" stroke="orange" stroke-dasharray="5,2" d="M75.52,-395.17C73.03,-391.8 70.43,-388.29 68,-385 60.6,-374.98 52.12,-363.46 46.44,-355.76"/>
<polygon fill="orange" stroke="orange" points="72.92,-397.54 81.69,-403.49 78.55,-393.37 72.92,-397.54"/>
<text text-anchor="middle" x="91" y="-377" font-family="Helvetica,sans-Serif" font-size="10.00"> &lt; Token &gt;</text>
</g>
<!-- Node8 -->
<g id="node8" class="node">
<title>Node8</title>
<g id="a_node8"><a xlink:href="classArrayList.html" target="_top" xlink:title="An implementation of a list backed by a resizable array.">
<polygon fill="white" stroke="black" points="98.5,-336.5 98.5,-355.5 177.5,-355.5 177.5,-336.5 98.5,-336.5"/>
<text text-anchor="middle" x="138" y="-343.5" font-family="Helvetica,sans-Serif" font-size="10.00">ArrayList&lt; A &gt;</text>
</a>
</g>
</g>
<!-- Node6&#45;&gt;Node8 -->
<g id="edge8" class="edge">
<title>Node6&#45;&gt;Node8</title>
<path fill="none" stroke="midnightblue" d="M104.23,-396.21C107.6,-392.64 111.03,-388.79 114,-385 121.41,-375.54 128.59,-363.71 133.14,-355.79"/>
<polygon fill="midnightblue" stroke="midnightblue" points="101.66,-393.83 97.15,-403.42 106.65,-398.74 101.66,-393.83"/>
</g>
<!-- Node7 -->
<g id="node7" class="node">
<title>Node7</title>
<g id="a_node7"><a xlink:href="classToken.html" target="_top" xlink:title="Generic token for use in scanners/parsers.">
<polygon fill="white" stroke="black" points="195,-336.5 195,-355.5 239,-355.5 239,-336.5 195,-336.5"/>
<text text-anchor="middle" x="217" y="-343.5" font-family="Helvetica,sans-Serif" font-size="10.00">Token</text>
</a>
</g>
</g>
<!-- Node7&#45;&gt;Node4 -->
<g id="edge6" class="edge">
<title>Node7&#45;&gt;Node4</title>
<path fill="none" stroke="#9a32cd" stroke-dasharray="5,2" d="M208.6,-327.06C204.81,-320.23 199.85,-312.72 194,-307 186.19,-299.37 175.81,-293.11 166.79,-288.55"/>
<polygon fill="#9a32cd" stroke="#9a32cd" points="205.65,-328.97 213.3,-336.3 211.89,-325.8 205.65,-328.97"/>
<text text-anchor="middle" x="217.5" y="-310" font-family="Helvetica,sans-Serif" font-size="10.00"> elems</text>
</g>
<!-- Node8&#45;&gt;Node4 -->
<g id="edge7" class="edge">
<title>Node8&#45;&gt;Node4</title>
<path fill="none" stroke="orange" stroke-dasharray="5,2" d="M140.63,-326.04C142.34,-313.67 144.49,-298.12 145.81,-288.63"/>
<polygon fill="orange" stroke="orange" points="137.12,-325.85 139.21,-336.23 144.05,-326.81 137.12,-325.85"/>
<text text-anchor="middle" x="167" y="-310" font-family="Helvetica,sans-Serif" font-size="10.00"> &lt; Token &gt;</text>
</g>
<!-- Node9 -->
<g id="node9" class="node">
<title>Node9</title>
<g id="a_node9"><a xlink:title="STL class.">
<polygon fill="white" stroke="#bfbfbf" points="218.5,-269.5 218.5,-288.5 321.5,-288.5 321.5,-269.5 218.5,-269.5"/>
<text text-anchor="middle" x="270" y="-276.5" font-family="Helvetica,sans-Serif" font-size="10.00">std::shared_ptr&lt; T &gt;</text>
</a>
</g>
</g>
<!-- Node9&#45;&gt;Node3 -->
<g id="edge9" class="edge">
<title>Node9&#45;&gt;Node3</title>
<path fill="none" stroke="orange" stroke-dasharray="5,2" d="M255.24,-261.74C244.22,-249.6 229.3,-233.16 218.78,-221.58"/>
<polygon fill="orange" stroke="orange" points="252.84,-264.3 262.15,-269.36 258.02,-259.6 252.84,-264.3"/>
<text text-anchor="middle" x="294" y="-243" font-family="Helvetica,sans-Serif" font-size="10.00"> &lt; ArrayList&lt; Token &gt; &gt;</text>
</g>
<!-- Node10 -->
<g id="node10" class="node">
<title>Node10</title>
<g id="a_node10"><a xlink:title=" ">
<polygon fill="white" stroke="#bfbfbf" points="257.5,-336.5 257.5,-355.5 286.5,-355.5 286.5,-336.5 257.5,-336.5"/>
<text text-anchor="middle" x="272" y="-343.5" font-family="Helvetica,sans-Serif" font-size="10.00">T</text>
</a>
</g>
</g>
<!-- Node10&#45;&gt;Node9 -->
<g id="edge10" class="edge">
<title>Node10&#45;&gt;Node9</title>
<path fill="none" stroke="#9a32cd" stroke-dasharray="5,2" d="M271.42,-326.04C271.04,-313.67 270.56,-298.12 270.27,-288.63"/>
<polygon fill="#9a32cd" stroke="#9a32cd" points="267.92,-326.35 271.73,-336.23 274.92,-326.13 267.92,-326.35"/>
<text text-anchor="middle" x="278" y="-310" font-family="Helvetica,sans-Serif" font-size="10.00"> ptr</text>
</g>
<!-- Node11&#45;&gt;Node2 -->
<g id="edge11" class="edge">
<title>Node11&#45;&gt;Node2</title>
<path fill="none" stroke="orange" stroke-dasharray="5,2" d="M278.91,-118.42C260.33,-105.57 233.88,-87.28 218.48,-76.63"/>
<polygon fill="orange" stroke="orange" points="277.11,-121.43 287.32,-124.23 281.09,-115.67 277.11,-121.43"/>
<text text-anchor="middle" x="292.5" y="-98" font-family="Helvetica,sans-Serif" font-size="10.00"> &lt; VisitBuilder &gt;</text>
</g>
</g>
</svg>
