<?xml version="1.0" encoding="UTF-8" standalone="no"?>
<!DOCTYPE svg PUBLIC "-//W3C//DTD SVG 1.1//EN"
 "http://www.w3.org/Graphics/SVG/1.1/DTD/svg11.dtd">
<!-- Generated by graphviz version 2.44.0 (0)
 -->
<!-- Title: CSV&lt; Types &gt; Pages: 1 -->
<svg width="322pt" height="229pt"
 viewBox="0.00 0.00 321.50 229.00" xmlns="http://www.w3.org/2000/svg" xmlns:xlink="http://www.w3.org/1999/xlink">
<g id="graph0" class="graph" transform="scale(1 1) rotate(0) translate(4 225)">
<title>CSV&lt; Types &gt;</title>
<polygon fill="white" stroke="transparent" points="-4,4 -4,-225 317.5,-225 317.5,4 -4,4"/>
<!-- Node1 -->
<g id="node1" class="node">
<title>Node1</title>
<g id="a_node1"><a xlink:title="An ill&#45;conceived attempt to create a csv file.">
<polygon fill="#bfbfbf" stroke="black" points="145.5,-0.5 145.5,-19.5 225.5,-19.5 225.5,-0.5 145.5,-0.5"/>
<text text-anchor="middle" x="185.5" y="-7.5" font-family="Helvetica,sans-Serif" font-size="10.00">CSV&lt; Types &gt;</text>
</a>
</g>
</g>
<!-- Node2 -->
<g id="node2" class="node">
<title>Node2</title>
<g id="a_node2"><a xlink:href="classArrayList.html" target="_top" xlink:title=" ">
<polygon fill="white" stroke="black" points="78.5,-67.5 78.5,-86.5 174.5,-86.5 174.5,-67.5 78.5,-67.5"/>
<text text-anchor="middle" x="126.5" y="-74.5" font-family="Helvetica,sans-Serif" font-size="10.00">ArrayList&lt; Tuple &gt;</text>
</a>
</g>
</g>
<!-- Node2&#45;&gt;Node1 -->
<g id="edge1" class="edge">
<title>Node2&#45;&gt;Node1</title>
<path fill="none" stroke="#9a32cd" stroke-dasharray="5,2" d="M141.35,-59.63C152.89,-46.92 168.44,-29.8 177.67,-19.63"/>
<polygon fill="#9a32cd" stroke="#9a32cd" points="138.59,-57.48 134.46,-67.23 143.77,-62.18 138.59,-57.48"/>
<text text-anchor="middle" x="176.5" y="-41" font-family="Helvetica,sans-Serif" font-size="10.00"> entries</text>
</g>
<!-- Node3 -->
<g id="node3" class="node">
<title>Node3</title>
<g id="a_node3"><a xlink:href="classIList.html" target="_top" xlink:title=" ">
<polygon fill="white" stroke="black" points="0,-134.5 0,-153.5 77,-153.5 77,-134.5 0,-134.5"/>
<text text-anchor="middle" x="38.5" y="-141.5" font-family="Helvetica,sans-Serif" font-size="10.00">IList&lt; Tuple &gt;</text>
</a>
</g>
</g>
<!-- Node3&#45;&gt;Node2 -->
<g id="edge2" class="edge">
<title>Node3&#45;&gt;Node2</title>
<path fill="none" stroke="midnightblue" d="M58.72,-128.07C76.09,-115.24 100.53,-97.19 114.82,-86.63"/>
<polygon fill="midnightblue" stroke="midnightblue" points="56.33,-125.48 50.37,-134.23 60.49,-131.11 56.33,-125.48"/>
</g>
<!-- Node4 -->
<g id="node4" class="node">
<title>Node4</title>
<g id="a_node4"><a xlink:href="classIList.html" target="_top" xlink:title="An interface for a generic list.">
<polygon fill="white" stroke="black" points="57,-201.5 57,-220.5 116,-220.5 116,-201.5 57,-201.5"/>
<text text-anchor="middle" x="86.5" y="-208.5" font-family="Helvetica,sans-Serif" font-size="10.00">IList&lt; A &gt;</text>
</a>
</g>
</g>
<!-- Node4&#45;&gt;Node3 -->
<g id="edge3" class="edge">
<title>Node4&#45;&gt;Node3</title>
<path fill="none" stroke="orange" stroke-dasharray="5,2" d="M73.88,-192.9C64.55,-180.27 52.24,-163.6 44.87,-153.63"/>
<polygon fill="orange" stroke="orange" points="71.27,-195.27 80.03,-201.23 76.9,-191.11 71.27,-195.27"/>
<text text-anchor="middle" x="87" y="-175" font-family="Helvetica,sans-Serif" font-size="10.00"> &lt; Tuple &gt;</text>
</g>
<!-- Node6 -->
<g id="node6" class="node">
<title>Node6</title>
<g id="a_node6"><a xlink:href="classArrayList.html" target="_top" xlink:title="An implementation of a list backed by a resizable array.">
<polygon fill="white" stroke="black" points="95,-134.5 95,-153.5 174,-153.5 174,-134.5 95,-134.5"/>
<text text-anchor="middle" x="134.5" y="-141.5" font-family="Helvetica,sans-Serif" font-size="10.00">ArrayList&lt; A &gt;</text>
</a>
</g>
</g>
<!-- Node4&#45;&gt;Node6 -->
<g id="edge6" class="edge">
<title>Node4&#45;&gt;Node6</title>
<path fill="none" stroke="midnightblue" d="M101.67,-193.8C104.7,-190.32 107.79,-186.61 110.5,-183 117.72,-173.4 124.94,-161.6 129.55,-153.72"/>
<polygon fill="midnightblue" stroke="midnightblue" points="98.99,-191.54 94.88,-201.31 104.18,-196.24 98.99,-191.54"/>
</g>
<!-- Node5 -->
<g id="node5" class="node">
<title>Node5</title>
<g id="a_node5"><a xlink:href="classTuple.html" target="_top" xlink:title="Tuple implementation partially taken from www.stroustrup.com/C++11FAQ.html::variadic&#45;templates It was...">
<polygon fill="white" stroke="black" points="204,-134.5 204,-153.5 277,-153.5 277,-134.5 204,-134.5"/>
<text text-anchor="middle" x="240.5" y="-141.5" font-family="Helvetica,sans-Serif" font-size="10.00">Tuple&lt; Tail &gt;</text>
</a>
</g>
</g>
<!-- Node5&#45;&gt;Node2 -->
<g id="edge4" class="edge">
<title>Node5&#45;&gt;Node2</title>
<path fill="none" stroke="#9a32cd" stroke-dasharray="5,2" d="M216.15,-129.12C193.56,-116.24 160.66,-97.48 141.63,-86.63"/>
<polygon fill="#9a32cd" stroke="#9a32cd" points="214.7,-132.32 225.13,-134.23 218.17,-126.24 214.7,-132.32"/>
<text text-anchor="middle" x="204" y="-108" font-family="Helvetica,sans-Serif" font-size="10.00"> elems</text>
</g>
<!-- Node7 -->
<g id="node7" class="node">
<title>Node7</title>
<g id="a_node7"><a xlink:href="classTuple.html" target="_top" xlink:title=" ">
<polygon fill="white" stroke="black" points="192.5,-67.5 192.5,-86.5 300.5,-86.5 300.5,-67.5 192.5,-67.5"/>
<text text-anchor="middle" x="246.5" y="-74.5" font-family="Helvetica,sans-Serif" font-size="10.00">Tuple&lt; const char * &gt;</text>
</a>
</g>
</g>
<!-- Node5&#45;&gt;Node7 -->
<g id="edge8" class="edge">
<title>Node5&#45;&gt;Node7</title>
<path fill="none" stroke="orange" stroke-dasharray="5,2" d="M242.25,-124.04C243.39,-111.67 244.83,-96.12 245.7,-86.63"/>
<polygon fill="orange" stroke="orange" points="238.74,-123.95 241.31,-134.23 245.71,-124.6 238.74,-123.95"/>
<text text-anchor="middle" x="278.5" y="-108" font-family="Helvetica,sans-Serif" font-size="10.00"> &lt; const char * &gt;</text>
</g>
<!-- Node6&#45;&gt;Node2 -->
<g id="edge5" class="edge">
<title>Node6&#45;&gt;Node2</title>
<path fill="none" stroke="orange" stroke-dasharray="5,2" d="M130.75,-124.16C130.28,-121.43 129.85,-118.65 129.5,-116 128.19,-106.03 127.38,-94.5 126.93,-86.78"/>
<polygon fill="orange" stroke="orange" points="127.32,-124.85 132.6,-134.04 134.2,-123.56 127.32,-124.85"/>
<text text-anchor="middle" x="151" y="-108" font-family="Helvetica,sans-Serif" font-size="10.00"> &lt; Tuple &gt;</text>
</g>
<!-- Node7&#45;&gt;Node1 -->
<g id="edge7" class="edge">
<title>Node7&#45;&gt;Node1</title>
<path fill="none" stroke="#9a32cd" stroke-dasharray="5,2" d="M231.14,-59.63C219.21,-46.92 203.14,-29.8 193.6,-19.63"/>
<polygon fill="#9a32cd" stroke="#9a32cd" points="228.88,-62.34 238.27,-67.23 233.98,-57.55 228.88,-62.34"/>
<text text-anchor="middle" x="238" y="-41" font-family="Helvetica,sans-Serif" font-size="10.00"> _header</text>
</g>
</g>
</svg>
