<?xml version="1.0" encoding="UTF-8" standalone="no"?>
<!DOCTYPE svg PUBLIC "-//W3C//DTD SVG 1.1//EN"
 "http://www.w3.org/Graphics/SVG/1.1/DTD/svg11.dtd">
<!-- Generated by graphviz version 2.44.0 (0)
 -->
<!-- Title: TravellersApp/src/parser/CommandList.hpp Pages: 1 -->
<!--zoomable 441 -->
<svg id="main" version="1.1" xmlns="http://www.w3.org/2000/svg" xmlns:xlink="http://www.w3.org/1999/xlink" xml:space="preserve" onload="init(evt)">
<style type="text/css"><![CDATA[
.edge:hover path { stroke: red; }
.edge:hover polygon { stroke: red; fill: red; }
]]></style>
<script type="text/javascript"><![CDATA[
var edges = document.getElementsByTagName('g');
if (edges && edges.length) {
  for (var i=0;i<edges.length;i++) {
    if (edges[i].id.substr(0,4)=='edge') {
      edges[i].setAttribute('class','edge');
    }
  }
}
]]></script>
        <defs>
                <circle id="rim" cx="0" cy="0" r="7"/>
                <circle id="rim2" cx="0" cy="0" r="3.5"/>
                <g id="zoomPlus">
                        <use xlink:href="#rim" fill="#404040">
                                <set attributeName="fill" to="#808080" begin="zoomplus.mouseover" end="zoomplus.mouseout"/>
                        </use>
                        <path d="M-4,0h8M0,-4v8" fill="none" stroke="white" stroke-width="1.5" pointer-events="none"/>
                </g>
                <g id="zoomMin">
                        <use xlink:href="#rim" fill="#404040">
                                <set attributeName="fill" to="#808080" begin="zoomminus.mouseover" end="zoomminus.mouseout"/>
                        </use>
                        <path d="M-4,0h8" fill="none" stroke="white" stroke-width="1.5" pointer-events="none"/>
                </g>
                <g id="dirArrow">
                        <path fill="none" stroke="white" stroke-width="1.5" d="M0,-3.0v7 M-2.5,-0.5L0,-3.0L2.5,-0.5"/>
                </g>
               <g id="resetDef">
                       <use xlink:href="#rim2" fill="#404040">
                               <set attributeName="fill" to="#808080" begin="reset.mouseover" end="reset.mouseout"/>
                       </use>
               </g>
        </defs>

<script type="text/javascript">
var viewWidth = 838;
var viewHeight = 441;
var sectionId = 'dynsection-1';
</script>
<script xlink:href="svgpan.js"/>
<svg id="graph" class="graph">
<g id="viewport">
<title>TravellersApp/src/parser/CommandList.hpp</title>
<polygon fill="white" stroke="transparent" points="-4,4 -4,-437 833.5,-437 833.5,4 -4,4"/>
<!-- Node1 -->
<g id="node1" class="node">
<title>Node1</title>
<g id="a_node1"><a xlink:title=" ">
<polygon fill="#bfbfbf" stroke="black" points="404.5,-402.5 404.5,-432.5 527.5,-432.5 527.5,-402.5 404.5,-402.5"/>
<text text-anchor="start" x="412.5" y="-420.5" font-family="Helvetica,sans-Serif" font-size="10.00">TravellersApp/src/parser</text>
<text text-anchor="middle" x="466" y="-409.5" font-family="Helvetica,sans-Serif" font-size="10.00">/CommandList.hpp</text>
</a>
</g>
</g>
<!-- Node2 -->
<g id="node2" class="node">
<title>Node2</title>
<g id="a_node2"><a xlink:href="Scanner_8hpp.html" target="_top" xlink:title=" ">
<polygon fill="white" stroke="black" points="257.5,-335.5 257.5,-365.5 380.5,-365.5 380.5,-335.5 257.5,-335.5"/>
<text text-anchor="start" x="265.5" y="-353.5" font-family="Helvetica,sans-Serif" font-size="10.00">TravellersApp/src/parser</text>
<text text-anchor="middle" x="319" y="-342.5" font-family="Helvetica,sans-Serif" font-size="10.00">/Scanner.hpp</text>
</a>
</g>
</g>
<!-- Node1&#45;&gt;Node2 -->
<g id="edge1" class="edge">
<title>Node1&#45;&gt;Node2</title>
<path fill="none" stroke="midnightblue" d="M424.77,-398.27C401.36,-387.92 372.49,-375.15 350.83,-365.58"/>
<polygon fill="midnightblue" stroke="midnightblue" points="423.54,-401.55 434.1,-402.4 426.37,-395.15 423.54,-401.55"/>
</g>
<!-- Node7 -->
<g id="node7" class="node">
<title>Node7</title>
<g id="a_node7"><a xlink:href="HTLInterpreter_8hpp.html" target="_top" xlink:title=" ">
<polygon fill="white" stroke="black" points="244.5,-67.5 244.5,-97.5 367.5,-97.5 367.5,-67.5 244.5,-67.5"/>
<text text-anchor="start" x="252.5" y="-85.5" font-family="Helvetica,sans-Serif" font-size="10.00">TravellersApp/src/parser</text>
<text text-anchor="middle" x="306" y="-74.5" font-family="Helvetica,sans-Serif" font-size="10.00">/HTLInterpreter.hpp</text>
</a>
</g>
</g>
<!-- Node1&#45;&gt;Node7 -->
<g id="edge21" class="edge">
<title>Node1&#45;&gt;Node7</title>
<path fill="none" stroke="midnightblue" d="M393.79,-411.06C262.92,-399.21 0,-365.35 0,-284.5 0,-284.5 0,-284.5 0,-215.5 0,-162.78 155.09,-118.22 244.44,-96.93"/>
<polygon fill="midnightblue" stroke="midnightblue" points="393.85,-414.58 404.12,-411.98 394.47,-407.61 393.85,-414.58"/>
</g>
<!-- Node9 -->
<g id="node9" class="node">
<title>Node9</title>
<g id="a_node9"><a xlink:href="LoginInterpreter_8hpp.html" target="_top" xlink:title=" ">
<polygon fill="white" stroke="black" points="424.5,-67.5 424.5,-97.5 547.5,-97.5 547.5,-67.5 424.5,-67.5"/>
<text text-anchor="start" x="432.5" y="-85.5" font-family="Helvetica,sans-Serif" font-size="10.00">TravellersApp/src/parser</text>
<text text-anchor="middle" x="486" y="-74.5" font-family="Helvetica,sans-Serif" font-size="10.00">/LoginInterpreter.hpp</text>
</a>
</g>
</g>
<!-- Node1&#45;&gt;Node9 -->
<g id="edge27" class="edge">
<title>Node1&#45;&gt;Node9</title>
<path fill="none" stroke="midnightblue" d="M460.44,-392.49C454.83,-366.15 447,-322.55 447,-284.5 447,-284.5 447,-284.5 447,-215.5 447,-171.05 467.59,-121.51 478.85,-97.74"/>
<polygon fill="midnightblue" stroke="midnightblue" points="457.04,-393.32 462.6,-402.34 463.87,-391.82 457.04,-393.32"/>
</g>
<!-- Node11 -->
<g id="node11" class="node">
<title>Node11</title>
<g id="a_node11"><a xlink:href="VisitInterpreter_8hpp.html" target="_top" xlink:title=" ">
<polygon fill="white" stroke="black" points="565.5,-67.5 565.5,-97.5 688.5,-97.5 688.5,-67.5 565.5,-67.5"/>
<text text-anchor="start" x="573.5" y="-85.5" font-family="Helvetica,sans-Serif" font-size="10.00">TravellersApp/src/parser</text>
<text text-anchor="middle" x="627" y="-74.5" font-family="Helvetica,sans-Serif" font-size="10.00">/VisitInterpreter.hpp</text>
</a>
</g>
</g>
<!-- Node1&#45;&gt;Node11 -->
<g id="edge29" class="edge">
<title>Node1&#45;&gt;Node11</title>
<path fill="none" stroke="midnightblue" d="M518.21,-398.6C565.22,-378.77 627,-341.82 627,-284.5 627,-284.5 627,-284.5 627,-215.5 627,-172.65 627,-121.97 627,-97.76"/>
<polygon fill="midnightblue" stroke="midnightblue" points="516.67,-395.45 508.72,-402.46 519.3,-401.93 516.67,-395.45"/>
</g>
<!-- Node16 -->
<g id="node16" class="node">
<title>Node16</title>
<g id="a_node16"><a xlink:href="Interpreter_8hpp.html" target="_top" xlink:title=" ">
<polygon fill="white" stroke="black" points="475.5,-134.5 475.5,-164.5 598.5,-164.5 598.5,-134.5 475.5,-134.5"/>
<text text-anchor="start" x="483.5" y="-152.5" font-family="Helvetica,sans-Serif" font-size="10.00">TravellersApp/src/parser</text>
<text text-anchor="middle" x="537" y="-141.5" font-family="Helvetica,sans-Serif" font-size="10.00">/Interpreter.hpp</text>
</a>
</g>
</g>
<!-- Node1&#45;&gt;Node16 -->
<g id="edge22" class="edge">
<title>Node1&#45;&gt;Node16</title>
<path fill="none" stroke="midnightblue" d="M472.43,-392.41C486.92,-338.12 521.76,-207.61 533.25,-164.55"/>
<polygon fill="midnightblue" stroke="midnightblue" points="469.01,-391.63 469.82,-402.2 475.78,-393.44 469.01,-391.63"/>
</g>
<!-- Node18 -->
<g id="node18" class="node">
<title>Node18</title>
<g id="a_node18"><a xlink:href="CommandList_8cpp.html" target="_top" xlink:title=" ">
<polygon fill="white" stroke="black" points="655.5,-335.5 655.5,-365.5 778.5,-365.5 778.5,-335.5 655.5,-335.5"/>
<text text-anchor="start" x="663.5" y="-353.5" font-family="Helvetica,sans-Serif" font-size="10.00">TravellersApp/src/parser</text>
<text text-anchor="middle" x="717" y="-342.5" font-family="Helvetica,sans-Serif" font-size="10.00">/CommandList.cpp</text>
</a>
</g>
</g>
<!-- Node1&#45;&gt;Node18 -->
<g id="edge28" class="edge">
<title>Node1&#45;&gt;Node18</title>
<path fill="none" stroke="midnightblue" d="M530.04,-399.92C571,-389.31 623.56,-375.7 662.51,-365.61"/>
<polygon fill="midnightblue" stroke="midnightblue" points="528.96,-396.58 520.15,-402.48 530.71,-403.36 528.96,-396.58"/>
</g>
<!-- Node3 -->
<g id="node3" class="node">
<title>Node3</title>
<g id="a_node3"><a xlink:href="CSV_8hpp.html" target="_top" xlink:title=" ">
<polygon fill="white" stroke="black" points="116.5,-268.5 116.5,-298.5 239.5,-298.5 239.5,-268.5 116.5,-268.5"/>
<text text-anchor="start" x="124.5" y="-286.5" font-family="Helvetica,sans-Serif" font-size="10.00">TravellersApp/src/parser</text>
<text text-anchor="middle" x="178" y="-275.5" font-family="Helvetica,sans-Serif" font-size="10.00">/CSV.hpp</text>
</a>
</g>
</g>
<!-- Node2&#45;&gt;Node3 -->
<g id="edge2" class="edge">
<title>Node2&#45;&gt;Node3</title>
<path fill="none" stroke="midnightblue" d="M279.15,-331.13C256.75,-320.8 229.22,-308.11 208.54,-298.58"/>
<polygon fill="midnightblue" stroke="midnightblue" points="277.86,-334.39 288.41,-335.4 280.79,-328.03 277.86,-334.39"/>
</g>
<!-- Node4 -->
<g id="node4" class="node">
<title>Node4</title>
<g id="a_node4"><a xlink:href="main_8cpp.html" target="_top" xlink:title=" ">
<polygon fill="white" stroke="black" points="50.5,-6 50.5,-25 185.5,-25 185.5,-6 50.5,-6"/>
<text text-anchor="middle" x="118" y="-13" font-family="Helvetica,sans-Serif" font-size="10.00">TravellersApp/src/main.cpp</text>
</a>
</g>
</g>
<!-- Node2&#45;&gt;Node4 -->
<g id="edge18" class="edge">
<title>Node2&#45;&gt;Node4</title>
<path fill="none" stroke="midnightblue" d="M247.18,-345.2C176.35,-336.4 74.03,-310.08 41,-232 12.2,-163.92 21.66,-128.95 62,-67 73.43,-49.45 92.45,-34.11 105.1,-25.07"/>
<polygon fill="midnightblue" stroke="midnightblue" points="247.06,-348.7 257.39,-346.37 247.86,-341.75 247.06,-348.7"/>
</g>
<!-- Node8 -->
<g id="node8" class="node">
<title>Node8</title>
<g id="a_node8"><a xlink:href="HTLInterpreter_8cpp.html" target="_top" xlink:title=" ">
<polygon fill="white" stroke="black" points="283.5,-0.5 283.5,-30.5 406.5,-30.5 406.5,-0.5 283.5,-0.5"/>
<text text-anchor="start" x="291.5" y="-18.5" font-family="Helvetica,sans-Serif" font-size="10.00">TravellersApp/src/parser</text>
<text text-anchor="middle" x="345" y="-7.5" font-family="Helvetica,sans-Serif" font-size="10.00">/HTLInterpreter.cpp</text>
</a>
</g>
</g>
<!-- Node2&#45;&gt;Node8 -->
<g id="edge19" class="edge">
<title>Node2&#45;&gt;Node8</title>
<path fill="none" stroke="midnightblue" d="M359.82,-330.04C371.75,-322.18 383.36,-311.87 390,-299 437.35,-207.22 410.18,-164.8 377,-67 372.47,-53.63 363.72,-40.22 356.51,-30.57"/>
<polygon fill="midnightblue" stroke="midnightblue" points="357.86,-327.14 351.15,-335.34 361.51,-333.12 357.86,-327.14"/>
</g>
<!-- Node15 -->
<g id="node15" class="node">
<title>Node15</title>
<g id="a_node15"><a xlink:href="Scanner_8cpp.html" target="_top" xlink:title=" ">
<polygon fill="white" stroke="black" points="257.5,-268.5 257.5,-298.5 380.5,-298.5 380.5,-268.5 257.5,-268.5"/>
<text text-anchor="start" x="265.5" y="-286.5" font-family="Helvetica,sans-Serif" font-size="10.00">TravellersApp/src/parser</text>
<text text-anchor="middle" x="319" y="-275.5" font-family="Helvetica,sans-Serif" font-size="10.00">/Scanner.cpp</text>
</a>
</g>
</g>
<!-- Node2&#45;&gt;Node15 -->
<g id="edge20" class="edge">
<title>Node2&#45;&gt;Node15</title>
<path fill="none" stroke="midnightblue" d="M319,-325.11C319,-316.15 319,-306.32 319,-298.58"/>
<polygon fill="midnightblue" stroke="midnightblue" points="315.5,-325.4 319,-335.4 322.5,-325.4 315.5,-325.4"/>
</g>
<!-- Node3&#45;&gt;Node4 -->
<g id="edge3" class="edge">
<title>Node3&#45;&gt;Node4</title>
<path fill="none" stroke="midnightblue" d="M106.92,-268.32C87.49,-260.84 68.61,-249.42 57,-232 10.22,-161.78 86.58,-55.76 110.93,-25.09"/>
<polygon fill="midnightblue" stroke="midnightblue" points="105.87,-271.67 116.47,-271.69 108.2,-265.07 105.87,-271.67"/>
</g>
<!-- Node5 -->
<g id="node5" class="node">
<title>Node5</title>
<g id="a_node5"><a xlink:href="User_8hpp.html" target="_top" xlink:title=" ">
<polygon fill="white" stroke="black" points="207.5,-207 207.5,-226 342.5,-226 342.5,-207 207.5,-207"/>
<text text-anchor="middle" x="275" y="-214" font-family="Helvetica,sans-Serif" font-size="10.00">TravellersApp/src/User.hpp</text>
</a>
</g>
</g>
<!-- Node3&#45;&gt;Node5 -->
<g id="edge4" class="edge">
<title>Node3&#45;&gt;Node5</title>
<path fill="none" stroke="midnightblue" d="M207.64,-262.64C225.94,-250.37 248.49,-235.26 262.3,-226.01"/>
<polygon fill="midnightblue" stroke="midnightblue" points="205.41,-259.92 199.05,-268.4 209.3,-265.74 205.41,-259.92"/>
</g>
<!-- Node6 -->
<g id="node6" class="node">
<title>Node6</title>
<g id="a_node6"><a xlink:href="TravelState_8hpp.html" target="_top" xlink:title=" ">
<polygon fill="white" stroke="black" points="250.5,-134.5 250.5,-164.5 373.5,-164.5 373.5,-134.5 250.5,-134.5"/>
<text text-anchor="start" x="258.5" y="-152.5" font-family="Helvetica,sans-Serif" font-size="10.00">TravellersApp/src/Travel</text>
<text text-anchor="middle" x="312" y="-141.5" font-family="Helvetica,sans-Serif" font-size="10.00">State.hpp</text>
</a>
</g>
</g>
<!-- Node3&#45;&gt;Node6 -->
<g id="edge16" class="edge">
<title>Node3&#45;&gt;Node6</title>
<path fill="none" stroke="midnightblue" d="M249.43,-266.04C294.5,-254.93 345.42,-240.76 352,-232 368.09,-210.57 345.17,-181.67 327.96,-164.66"/>
<polygon fill="midnightblue" stroke="midnightblue" points="248.51,-262.66 239.62,-268.43 250.17,-269.46 248.51,-262.66"/>
</g>
<!-- Node14 -->
<g id="node14" class="node">
<title>Node14</title>
<g id="a_node14"><a xlink:href="CSV_8cpp.html" target="_top" xlink:title=" ">
<polygon fill="white" stroke="black" points="66.5,-201.5 66.5,-231.5 189.5,-231.5 189.5,-201.5 66.5,-201.5"/>
<text text-anchor="start" x="74.5" y="-219.5" font-family="Helvetica,sans-Serif" font-size="10.00">TravellersApp/src/parser</text>
<text text-anchor="middle" x="128" y="-208.5" font-family="Helvetica,sans-Serif" font-size="10.00">/CSV.cpp</text>
</a>
</g>
</g>
<!-- Node3&#45;&gt;Node14 -->
<g id="edge17" class="edge">
<title>Node3&#45;&gt;Node14</title>
<path fill="none" stroke="midnightblue" d="M161.04,-260.45C153.69,-250.9 145.31,-240 138.83,-231.58"/>
<polygon fill="midnightblue" stroke="midnightblue" points="158.28,-262.6 167.15,-268.4 163.83,-258.34 158.28,-262.6"/>
</g>
<!-- Node5&#45;&gt;Node6 -->
<g id="edge5" class="edge">
<title>Node5&#45;&gt;Node6</title>
<path fill="none" stroke="midnightblue" d="M284.94,-198.03C290.91,-187.56 298.39,-174.4 303.98,-164.59"/>
<polygon fill="midnightblue" stroke="midnightblue" points="281.9,-196.31 279.99,-206.73 287.98,-199.77 281.9,-196.31"/>
</g>
<!-- Node6&#45;&gt;Node7 -->
<g id="edge6" class="edge">
<title>Node6&#45;&gt;Node7</title>
<path fill="none" stroke="midnightblue" d="M309.78,-124.4C308.94,-115.37 308.02,-105.41 307.3,-97.58"/>
<polygon fill="midnightblue" stroke="midnightblue" points="306.29,-124.76 310.7,-134.4 313.26,-124.12 306.29,-124.76"/>
</g>
<!-- Node6&#45;&gt;Node9 -->
<g id="edge9" class="edge">
<title>Node6&#45;&gt;Node9</title>
<path fill="none" stroke="midnightblue" d="M359.33,-130.82C387.3,-120.37 422.23,-107.32 448.32,-97.58"/>
<polygon fill="midnightblue" stroke="midnightblue" points="357.9,-127.62 349.76,-134.4 360.35,-134.18 357.9,-127.62"/>
</g>
<!-- Node6&#45;&gt;Node11 -->
<g id="edge12" class="edge">
<title>Node6&#45;&gt;Node11</title>
<path fill="none" stroke="midnightblue" d="M383.52,-133.78C432.38,-123.71 498.61,-110.07 557,-98 559.67,-97.45 562.41,-96.88 565.16,-96.31"/>
<polygon fill="midnightblue" stroke="midnightblue" points="382.76,-130.36 373.68,-135.8 384.18,-137.22 382.76,-130.36"/>
</g>
<!-- Node13 -->
<g id="node13" class="node">
<title>Node13</title>
<g id="a_node13"><a xlink:href="TravelState_8cpp.html" target="_top" xlink:title=" ">
<polygon fill="white" stroke="black" points="103.5,-67.5 103.5,-97.5 226.5,-97.5 226.5,-67.5 103.5,-67.5"/>
<text text-anchor="start" x="111.5" y="-85.5" font-family="Helvetica,sans-Serif" font-size="10.00">TravellersApp/src/Travel</text>
<text text-anchor="middle" x="165" y="-74.5" font-family="Helvetica,sans-Serif" font-size="10.00">State.cpp</text>
</a>
</g>
</g>
<!-- Node6&#45;&gt;Node13 -->
<g id="edge15" class="edge">
<title>Node6&#45;&gt;Node13</title>
<path fill="none" stroke="midnightblue" d="M270.77,-130.27C247.36,-119.92 218.49,-107.15 196.83,-97.58"/>
<polygon fill="midnightblue" stroke="midnightblue" points="269.54,-133.55 280.1,-134.4 272.37,-127.15 269.54,-133.55"/>
</g>
<!-- Node7&#45;&gt;Node4 -->
<g id="edge7" class="edge">
<title>Node7&#45;&gt;Node4</title>
<path fill="none" stroke="midnightblue" d="M255.7,-64.11C219.12,-51.46 171.2,-34.89 142.6,-25.01"/>
<polygon fill="midnightblue" stroke="midnightblue" points="254.61,-67.44 265.21,-67.4 256.9,-60.82 254.61,-67.44"/>
</g>
<!-- Node7&#45;&gt;Node8 -->
<g id="edge8" class="edge">
<title>Node7&#45;&gt;Node8</title>
<path fill="none" stroke="midnightblue" d="M319.75,-58.58C325.36,-49.24 331.65,-38.75 336.55,-30.58"/>
<polygon fill="midnightblue" stroke="midnightblue" points="316.61,-57.02 314.46,-67.4 322.61,-60.62 316.61,-57.02"/>
</g>
<!-- Node9&#45;&gt;Node4 -->
<g id="edge10" class="edge">
<title>Node9&#45;&gt;Node4</title>
<path fill="none" stroke="midnightblue" d="M414.34,-68.84C341.16,-55.92 229.58,-36.21 166.27,-25.03"/>
<polygon fill="midnightblue" stroke="midnightblue" points="413.95,-72.33 424.41,-70.62 415.17,-65.43 413.95,-72.33"/>
</g>
<!-- Node10 -->
<g id="node10" class="node">
<title>Node10</title>
<g id="a_node10"><a xlink:href="LoginInterpreter_8cpp.html" target="_top" xlink:title=" ">
<polygon fill="white" stroke="black" points="424.5,-0.5 424.5,-30.5 547.5,-30.5 547.5,-0.5 424.5,-0.5"/>
<text text-anchor="start" x="432.5" y="-18.5" font-family="Helvetica,sans-Serif" font-size="10.00">TravellersApp/src/parser</text>
<text text-anchor="middle" x="486" y="-7.5" font-family="Helvetica,sans-Serif" font-size="10.00">/LoginInterpreter.cpp</text>
</a>
</g>
</g>
<!-- Node9&#45;&gt;Node10 -->
<g id="edge11" class="edge">
<title>Node9&#45;&gt;Node10</title>
<path fill="none" stroke="midnightblue" d="M486,-57.11C486,-48.15 486,-38.32 486,-30.58"/>
<polygon fill="midnightblue" stroke="midnightblue" points="482.5,-57.4 486,-67.4 489.5,-57.4 482.5,-57.4"/>
</g>
<!-- Node11&#45;&gt;Node8 -->
<g id="edge13" class="edge">
<title>Node11&#45;&gt;Node8</title>
<path fill="none" stroke="midnightblue" d="M556.22,-65.19C510.04,-54.54 450.36,-40.78 406.22,-30.61"/>
<polygon fill="midnightblue" stroke="midnightblue" points="555.63,-68.64 566.16,-67.48 557.2,-61.82 555.63,-68.64"/>
</g>
<!-- Node12 -->
<g id="node12" class="node">
<title>Node12</title>
<g id="a_node12"><a xlink:href="VisitInterpreter_8cpp.html" target="_top" xlink:title=" ">
<polygon fill="white" stroke="black" points="565.5,-0.5 565.5,-30.5 688.5,-30.5 688.5,-0.5 565.5,-0.5"/>
<text text-anchor="start" x="573.5" y="-18.5" font-family="Helvetica,sans-Serif" font-size="10.00">TravellersApp/src/parser</text>
<text text-anchor="middle" x="627" y="-7.5" font-family="Helvetica,sans-Serif" font-size="10.00">/VisitInterpreter.cpp</text>
</a>
</g>
</g>
<!-- Node11&#45;&gt;Node12 -->
<g id="edge14" class="edge">
<title>Node11&#45;&gt;Node12</title>
<path fill="none" stroke="midnightblue" d="M627,-57.11C627,-48.15 627,-38.32 627,-30.58"/>
<polygon fill="midnightblue" stroke="midnightblue" points="623.5,-57.4 627,-67.4 630.5,-57.4 623.5,-57.4"/>
</g>
<!-- Node16&#45;&gt;Node7 -->
<g id="edge23" class="edge">
<title>Node16&#45;&gt;Node7</title>
<path fill="none" stroke="midnightblue" d="M477.35,-131.71C439.76,-121.14 391.77,-107.63 356.15,-97.61"/>
<polygon fill="midnightblue" stroke="midnightblue" points="476.59,-135.14 487.16,-134.48 478.48,-128.4 476.59,-135.14"/>
</g>
<!-- Node16&#45;&gt;Node9 -->
<g id="edge24" class="edge">
<title>Node16&#45;&gt;Node9</title>
<path fill="none" stroke="midnightblue" d="M519.7,-126.45C512.21,-116.9 503.66,-106 497.04,-97.58"/>
<polygon fill="midnightblue" stroke="midnightblue" points="517.01,-128.69 525.93,-134.4 522.51,-124.37 517.01,-128.69"/>
</g>
<!-- Node16&#45;&gt;Node11 -->
<g id="edge25" class="edge">
<title>Node16&#45;&gt;Node11</title>
<path fill="none" stroke="midnightblue" d="M564.76,-128.45C578.61,-118.45 595.02,-106.6 607.51,-97.58"/>
<polygon fill="midnightblue" stroke="midnightblue" points="562.59,-125.7 556.53,-134.4 566.68,-131.38 562.59,-125.7"/>
</g>
<!-- Node17 -->
<g id="node17" class="node">
<title>Node17</title>
<g id="a_node17"><a xlink:href="Interpreter_8cpp.html" target="_top" xlink:title=" ">
<polygon fill="white" stroke="black" points="706.5,-67.5 706.5,-97.5 829.5,-97.5 829.5,-67.5 706.5,-67.5"/>
<text text-anchor="start" x="714.5" y="-85.5" font-family="Helvetica,sans-Serif" font-size="10.00">TravellersApp/src/parser</text>
<text text-anchor="middle" x="768" y="-74.5" font-family="Helvetica,sans-Serif" font-size="10.00">/Interpreter.cpp</text>
</a>
</g>
</g>
<!-- Node16&#45;&gt;Node17 -->
<g id="edge26" class="edge">
<title>Node16&#45;&gt;Node17</title>
<path fill="none" stroke="midnightblue" d="M596.65,-131.71C634.24,-121.14 682.23,-107.63 717.85,-97.61"/>
<polygon fill="midnightblue" stroke="midnightblue" points="595.52,-128.4 586.84,-134.48 597.41,-135.14 595.52,-128.4"/>
</g>
</g>
</svg>
        <g id="navigator" transform="translate(0 0)" fill="#404254">
                <rect fill="#f2f5e9" fill-opacity="0.5" stroke="#606060" stroke-width=".5" x="0" y="0" width="60" height="60"/>
                <use id="zoomplus" xlink:href="#zoomPlus" x="17" y="9" onmousedown="handleZoom(evt,'in')"/>
                <use id="zoomminus" xlink:href="#zoomMin" x="42" y="9" onmousedown="handleZoom(evt,'out')"/>
                <use id="reset" xlink:href="#resetDef" x="30" y="36" onmousedown="handleReset()"/>
                <g id="arrowUp" xlink:href="#dirArrow" transform="translate(30 24)" onmousedown="handlePan(0,-1)">
                  <use xlink:href="#rim" fill="#404040">
                        <set attributeName="fill" to="#808080" begin="arrowUp.mouseover" end="arrowUp.mouseout"/>
                  </use>
                  <path fill="none" stroke="white" stroke-width="1.5" d="M0,-3.0v7 M-2.5,-0.5L0,-3.0L2.5,-0.5"/>
                </g>
                <g id="arrowRight" xlink:href="#dirArrow" transform="rotate(90) translate(36 -43)" onmousedown="handlePan(1,0)">
                  <use xlink:href="#rim" fill="#404040">
                        <set attributeName="fill" to="#808080" begin="arrowRight.mouseover" end="arrowRight.mouseout"/>
                  </use>
                  <path fill="none" stroke="white" stroke-width="1.5" d="M0,-3.0v7 M-2.5,-0.5L0,-3.0L2.5,-0.5"/>
                </g>
                <g id="arrowDown" xlink:href="#dirArrow" transform="rotate(180) translate(-30 -48)" onmousedown="handlePan(0,1)">
                  <use xlink:href="#rim" fill="#404040">
                        <set attributeName="fill" to="#808080" begin="arrowDown.mouseover" end="arrowDown.mouseout"/>
                  </use>
                  <path fill="none" stroke="white" stroke-width="1.5" d="M0,-3.0v7 M-2.5,-0.5L0,-3.0L2.5,-0.5"/>
                </g>
                <g id="arrowLeft" xlink:href="#dirArrow" transform="rotate(270) translate(-36 17)" onmousedown="handlePan(-1,0)">
                  <use xlink:href="#rim" fill="#404040">
                        <set attributeName="fill" to="#808080" begin="arrowLeft.mouseover" end="arrowLeft.mouseout"/>
                  </use>
                  <path fill="none" stroke="white" stroke-width="1.5" d="M0,-3.0v7 M-2.5,-0.5L0,-3.0L2.5,-0.5"/>
                </g>
        </g>
        <svg viewBox="0 0 15 15" width="100%" height="30px" preserveAspectRatio="xMaxYMin meet">
         <g id="arrow_out" transform="scale(0.3 0.3)">
          <a xlink:href="CommandList_8hpp__dep__incl_org.svg" target="_base">
           <rect id="button" ry="5" rx="5" y="6" x="6" height="38" width="38"
                fill="#f2f5e9" fill-opacity="0.5" stroke="#606060" stroke-width="1.0"/>
           <path id="arrow"
             d="M 11.500037,31.436501 C 11.940474,20.09759 22.043105,11.32322 32.158766,21.979434 L 37.068811,17.246167 C 37.068811,17.246167 37.088388,32 37.088388,32 L 22.160133,31.978069 C 22.160133,31.978069 26.997745,27.140456 26.997745,27.140456 C 18.528582,18.264221 13.291696,25.230495 11.500037,31.436501 z"
             style="fill:#404040;"/>
          </a>
         </g>
        </svg>
</svg>
