<?xml version="1.0" encoding="UTF-8" standalone="no"?>
<!DOCTYPE svg PUBLIC "-//W3C//DTD SVG 1.1//EN"
 "http://www.w3.org/Graphics/SVG/1.1/DTD/svg11.dtd">
<!-- Generated by graphviz version 2.44.0 (0)
 -->
<!-- Title: TravellersApp/src/parser/CommandList.cpp Pages: 1 -->
<svg width="1074pt" height="431pt"
 viewBox="0.00 0.00 1074.00 431.00" xmlns="http://www.w3.org/2000/svg" xmlns:xlink="http://www.w3.org/1999/xlink">
<g id="graph0" class="graph" transform="scale(1 1) rotate(0) translate(4 427)">
<title>TravellersApp/src/parser/CommandList.cpp</title>
<polygon fill="white" stroke="transparent" points="-4,4 -4,-427 1070,-427 1070,4 -4,4"/>
<!-- Node1 -->
<g id="node1" class="node">
<title>Node1</title>
<g id="a_node1"><a xlink:title=" ">
<polygon fill="#bfbfbf" stroke="black" points="688.5,-392.5 688.5,-422.5 811.5,-422.5 811.5,-392.5 688.5,-392.5"/>
<text text-anchor="start" x="696.5" y="-410.5" font-family="Helvetica,sans-Serif" font-size="10.00">TravellersApp/src/parser</text>
<text text-anchor="middle" x="750" y="-399.5" font-family="Helvetica,sans-Serif" font-size="10.00">/CommandList.cpp</text>
</a>
</g>
</g>
<!-- Node2 -->
<g id="node2" class="node">
<title>Node2</title>
<g id="a_node2"><a xlink:href="CommandList_8hpp.html" target="_top" xlink:title=" ">
<polygon fill="white" stroke="black" points="513.5,-336.5 513.5,-355.5 608.5,-355.5 608.5,-336.5 513.5,-336.5"/>
<text text-anchor="middle" x="561" y="-343.5" font-family="Helvetica,sans-Serif" font-size="10.00">CommandList.hpp</text>
</a>
</g>
</g>
<!-- Node1&#45;&gt;Node2 -->
<g id="edge1" class="edge">
<title>Node1&#45;&gt;Node2</title>
<path fill="none" stroke="midnightblue" d="M705.21,-392.4C672.55,-382.12 628.82,-368.35 598.11,-358.68"/>
<polygon fill="midnightblue" stroke="midnightblue" points="598.81,-355.24 588.23,-355.57 596.71,-361.91 598.81,-355.24"/>
</g>
<!-- Node4 -->
<g id="node4" class="node">
<title>Node4</title>
<g id="a_node4"><a xlink:href="debug_8hpp.html" target="_top" xlink:title=" ">
<polygon fill="white" stroke="black" points="486.5,-56.5 486.5,-75.5 547.5,-75.5 547.5,-56.5 486.5,-56.5"/>
<text text-anchor="middle" x="517" y="-63.5" font-family="Helvetica,sans-Serif" font-size="10.00">debug.hpp</text>
</a>
</g>
</g>
<!-- Node1&#45;&gt;Node4 -->
<g id="edge45" class="edge">
<title>Node1&#45;&gt;Node4</title>
<path fill="none" stroke="midnightblue" d="M800.22,-392.4C845.82,-376.16 906,-344.58 906,-291 906,-291 906,-291 906,-177 906,-143.76 896.62,-130.5 869,-112 818.91,-78.45 639.68,-69.9 558.04,-67.73"/>
<polygon fill="midnightblue" stroke="midnightblue" points="557.73,-64.22 547.65,-67.47 557.56,-71.22 557.73,-64.22"/>
</g>
<!-- Node3 -->
<g id="node3" class="node">
<title>Node3</title>
<g id="a_node3"><a xlink:href="SimpleString_8hpp.html" target="_top" xlink:title=" ">
<polygon fill="white" stroke="black" points="70,-112.5 70,-131.5 168,-131.5 168,-112.5 70,-112.5"/>
<text text-anchor="middle" x="119" y="-119.5" font-family="Helvetica,sans-Serif" font-size="10.00">../SimpleString.hpp</text>
</a>
</g>
</g>
<!-- Node2&#45;&gt;Node3 -->
<g id="edge2" class="edge">
<title>Node2&#45;&gt;Node3</title>
<path fill="none" stroke="midnightblue" d="M513.35,-338.52C472.82,-331.96 413.63,-319.91 365,-300 267.68,-260.15 172.36,-174.62 135.25,-139.04"/>
<polygon fill="midnightblue" stroke="midnightblue" points="137.47,-136.32 127.85,-131.87 132.59,-141.34 137.47,-136.32"/>
</g>
<!-- Node7 -->
<g id="node7" class="node">
<title>Node7</title>
<g id="a_node7"><a xlink:href="Nullable_8hpp.html" target="_top" xlink:title=" ">
<polygon fill="white" stroke="black" points="383.5,-112.5 383.5,-131.5 460.5,-131.5 460.5,-112.5 383.5,-112.5"/>
<text text-anchor="middle" x="422" y="-119.5" font-family="Helvetica,sans-Serif" font-size="10.00">../Nullable.hpp</text>
</a>
</g>
</g>
<!-- Node2&#45;&gt;Node7 -->
<g id="edge6" class="edge">
<title>Node2&#45;&gt;Node7</title>
<path fill="none" stroke="midnightblue" d="M532.46,-336.39C479.39,-318.63 366.86,-272.38 322,-188 307.95,-161.57 341.65,-144.27 373.65,-134.21"/>
<polygon fill="midnightblue" stroke="midnightblue" points="374.87,-137.5 383.48,-131.31 372.89,-130.78 374.87,-137.5"/>
</g>
<!-- Node10 -->
<g id="node10" class="node">
<title>Node10</title>
<g id="a_node10"><a xlink:href="HashMap_8hpp.html" target="_top" xlink:title=" ">
<polygon fill="white" stroke="black" points="497,-280.5 497,-299.5 625,-299.5 625,-280.5 497,-280.5"/>
<text text-anchor="middle" x="561" y="-287.5" font-family="Helvetica,sans-Serif" font-size="10.00">../collection/HashMap.hpp</text>
</a>
</g>
</g>
<!-- Node2&#45;&gt;Node10 -->
<g id="edge13" class="edge">
<title>Node2&#45;&gt;Node10</title>
<path fill="none" stroke="midnightblue" d="M561,-336.08C561,-329.01 561,-318.86 561,-309.99"/>
<polygon fill="midnightblue" stroke="midnightblue" points="564.5,-309.75 561,-299.75 557.5,-309.75 564.5,-309.75"/>
</g>
<!-- Node12 -->
<g id="node12" class="node">
<title>Node12</title>
<g id="a_node12"><a xlink:title=" ">
<polygon fill="white" stroke="#bfbfbf" points="196.5,-112.5 196.5,-131.5 247.5,-131.5 247.5,-112.5 196.5,-112.5"/>
<text text-anchor="middle" x="222" y="-119.5" font-family="Helvetica,sans-Serif" font-size="10.00">memory</text>
</a>
</g>
</g>
<!-- Node2&#45;&gt;Node12 -->
<g id="edge44" class="edge">
<title>Node2&#45;&gt;Node12</title>
<path fill="none" stroke="midnightblue" d="M523.88,-336.43C492.81,-328.67 447.63,-316.01 410,-300 363.48,-280.21 353.06,-272.04 311,-244 277.27,-221.52 261.31,-221.85 239,-188 229.87,-174.15 225.64,-155.64 223.68,-141.91"/>
<polygon fill="midnightblue" stroke="midnightblue" points="227.13,-141.25 222.51,-131.71 220.17,-142.04 227.13,-141.25"/>
</g>
<!-- Node20 -->
<g id="node20" class="node">
<title>Node20</title>
<g id="a_node20"><a xlink:href="ScannerContext_8hpp.html" target="_top" xlink:title=" ">
<polygon fill="white" stroke="black" points="934,-224.5 934,-243.5 1038,-243.5 1038,-224.5 934,-224.5"/>
<text text-anchor="middle" x="986" y="-231.5" font-family="Helvetica,sans-Serif" font-size="10.00">ScannerContext.hpp</text>
</a>
</g>
</g>
<!-- Node2&#45;&gt;Node20 -->
<g id="edge40" class="edge">
<title>Node2&#45;&gt;Node20</title>
<path fill="none" stroke="midnightblue" d="M594,-336.46C670.18,-316.74 858.29,-268.05 943.2,-246.08"/>
<polygon fill="midnightblue" stroke="midnightblue" points="944.22,-249.43 953.03,-243.53 942.47,-242.65 944.22,-249.43"/>
</g>
<!-- Node21 -->
<g id="node21" class="node">
<title>Node21</title>
<g id="a_node21"><a xlink:href="Token_8hpp.html" target="_top" xlink:title=" ">
<polygon fill="white" stroke="black" points="984,-280.5 984,-299.5 1046,-299.5 1046,-280.5 984,-280.5"/>
<text text-anchor="middle" x="1015" y="-287.5" font-family="Helvetica,sans-Serif" font-size="10.00">Token.hpp</text>
</a>
</g>
</g>
<!-- Node2&#45;&gt;Node21 -->
<g id="edge42" class="edge">
<title>Node2&#45;&gt;Node21</title>
<path fill="none" stroke="midnightblue" d="M608.73,-339.32C698.22,-328.68 889.79,-305.89 973.93,-295.89"/>
<polygon fill="midnightblue" stroke="midnightblue" points="974.36,-299.36 983.88,-294.7 973.54,-292.41 974.36,-299.36"/>
</g>
<!-- Node3&#45;&gt;Node4 -->
<g id="edge3" class="edge">
<title>Node3&#45;&gt;Node4</title>
<path fill="none" stroke="midnightblue" d="M168.2,-114.32C247.59,-103.55 402.49,-82.54 476.17,-72.54"/>
<polygon fill="midnightblue" stroke="midnightblue" points="476.99,-75.96 486.43,-71.15 476.05,-69.02 476.99,-75.96"/>
</g>
<!-- Node5 -->
<g id="node5" class="node">
<title>Node5</title>
<g id="a_node5"><a xlink:title=" ">
<polygon fill="white" stroke="#bfbfbf" points="68,-0.5 68,-19.5 114,-19.5 114,-0.5 68,-0.5"/>
<text text-anchor="middle" x="91" y="-7.5" font-family="Helvetica,sans-Serif" font-size="10.00">cstring</text>
</a>
</g>
</g>
<!-- Node3&#45;&gt;Node5 -->
<g id="edge4" class="edge">
<title>Node3&#45;&gt;Node5</title>
<path fill="none" stroke="midnightblue" d="M98.78,-112.49C84.23,-105.17 65.7,-93.06 57,-76 48.47,-59.28 61.04,-40.26 73.23,-27.14"/>
<polygon fill="midnightblue" stroke="midnightblue" points="75.98,-29.34 80.59,-19.8 71.04,-24.39 75.98,-29.34"/>
</g>
<!-- Node6 -->
<g id="node6" class="node">
<title>Node6</title>
<g id="a_node6"><a xlink:title=" ">
<polygon fill="white" stroke="#bfbfbf" points="412,-0.5 412,-19.5 466,-19.5 466,-0.5 412,-0.5"/>
<text text-anchor="middle" x="439" y="-7.5" font-family="Helvetica,sans-Serif" font-size="10.00">iostream</text>
</a>
</g>
</g>
<!-- Node3&#45;&gt;Node6 -->
<g id="edge5" class="edge">
<title>Node3&#45;&gt;Node6</title>
<path fill="none" stroke="midnightblue" d="M168.05,-113.36C234.18,-102.84 345.67,-84.26 363,-76 387.59,-64.27 410.6,-42.5 424.71,-27.4"/>
<polygon fill="midnightblue" stroke="midnightblue" points="427.48,-29.56 431.6,-19.8 422.29,-24.86 427.48,-29.56"/>
</g>
<!-- Node7&#45;&gt;Node4 -->
<g id="edge11" class="edge">
<title>Node7&#45;&gt;Node4</title>
<path fill="none" stroke="midnightblue" d="M437.26,-112.32C452.22,-103.82 475.25,-90.73 492.73,-80.8"/>
<polygon fill="midnightblue" stroke="midnightblue" points="494.81,-83.64 501.77,-75.65 491.35,-77.55 494.81,-83.64"/>
</g>
<!-- Node7&#45;&gt;Node6 -->
<g id="edge12" class="edge">
<title>Node7&#45;&gt;Node6</title>
<path fill="none" stroke="midnightblue" d="M424.78,-112.48C427.58,-103.5 431.8,-88.91 434,-76 436.62,-60.64 437.86,-43 438.46,-29.98"/>
<polygon fill="midnightblue" stroke="midnightblue" points="441.96,-30.02 438.83,-19.89 434.97,-29.76 441.96,-30.02"/>
</g>
<!-- Node8 -->
<g id="node8" class="node">
<title>Node8</title>
<g id="a_node8"><a xlink:href="NoValueException_8hpp.html" target="_top" xlink:title=" ">
<polygon fill="white" stroke="black" points="240,-56.5 240,-75.5 354,-75.5 354,-56.5 240,-56.5"/>
<text text-anchor="middle" x="297" y="-63.5" font-family="Helvetica,sans-Serif" font-size="10.00">NoValueException.hpp</text>
</a>
</g>
</g>
<!-- Node7&#45;&gt;Node8 -->
<g id="edge7" class="edge">
<title>Node7&#45;&gt;Node8</title>
<path fill="none" stroke="midnightblue" d="M402.19,-112.44C381.71,-103.6 349.52,-89.69 326.14,-79.59"/>
<polygon fill="midnightblue" stroke="midnightblue" points="327.28,-76.27 316.71,-75.52 324.51,-82.7 327.28,-76.27"/>
</g>
<!-- Node8&#45;&gt;Node5 -->
<g id="edge8" class="edge">
<title>Node8&#45;&gt;Node5</title>
<path fill="none" stroke="midnightblue" d="M264.36,-56.44C225.93,-46.37 162.47,-29.74 123.92,-19.63"/>
<polygon fill="midnightblue" stroke="midnightblue" points="124.78,-16.24 114.22,-17.09 123,-23.01 124.78,-16.24"/>
</g>
<!-- Node8&#45;&gt;Node6 -->
<g id="edge10" class="edge">
<title>Node8&#45;&gt;Node6</title>
<path fill="none" stroke="midnightblue" d="M319.5,-56.44C343.08,-47.48 380.32,-33.31 406.96,-23.18"/>
<polygon fill="midnightblue" stroke="midnightblue" points="408.5,-26.34 416.6,-19.52 406.01,-19.8 408.5,-26.34"/>
</g>
<!-- Node9 -->
<g id="node9" class="node">
<title>Node9</title>
<g id="a_node9"><a xlink:title=" ">
<polygon fill="white" stroke="#bfbfbf" points="227,-0.5 227,-19.5 285,-19.5 285,-0.5 227,-0.5"/>
<text text-anchor="middle" x="256" y="-7.5" font-family="Helvetica,sans-Serif" font-size="10.00">exception</text>
</a>
</g>
</g>
<!-- Node8&#45;&gt;Node9 -->
<g id="edge9" class="edge">
<title>Node8&#45;&gt;Node9</title>
<path fill="none" stroke="midnightblue" d="M290.23,-56.08C284.44,-48.46 275.94,-37.26 268.86,-27.94"/>
<polygon fill="midnightblue" stroke="midnightblue" points="271.48,-25.6 262.64,-19.75 265.9,-29.83 271.48,-25.6"/>
</g>
<!-- Node10&#45;&gt;Node4 -->
<g id="edge18" class="edge">
<title>Node10&#45;&gt;Node4</title>
<path fill="none" stroke="midnightblue" d="M605.18,-280.46C703.7,-259.58 926.8,-201.06 849,-112 811.64,-69.24 638.17,-65.53 557.92,-66.17"/>
<polygon fill="midnightblue" stroke="midnightblue" points="557.66,-62.68 547.7,-66.29 557.74,-69.68 557.66,-62.68"/>
</g>
<!-- Node10&#45;&gt;Node5 -->
<g id="edge15" class="edge">
<title>Node10&#45;&gt;Node5</title>
<path fill="none" stroke="midnightblue" d="M496.92,-289.76C349.72,-289.79 0,-279.3 0,-179 0,-179 0,-179 0,-121 0,-78.47 40.89,-43.53 67.85,-25.12"/>
<polygon fill="midnightblue" stroke="midnightblue" points="69.94,-27.93 76.38,-19.52 66.1,-22.08 69.94,-27.93"/>
</g>
<!-- Node10&#45;&gt;Node7 -->
<g id="edge39" class="edge">
<title>Node10&#45;&gt;Node7</title>
<path fill="none" stroke="midnightblue" d="M553.53,-280.08C531.17,-253.38 464.59,-173.87 435.67,-139.32"/>
<polygon fill="midnightblue" stroke="midnightblue" points="438.28,-136.99 429.17,-131.57 432.91,-141.48 438.28,-136.99"/>
</g>
<!-- Node11 -->
<g id="node11" class="node">
<title>Node11</title>
<g id="a_node11"><a xlink:title=" ">
<polygon fill="white" stroke="#bfbfbf" points="794.5,-112.5 794.5,-131.5 839.5,-131.5 839.5,-112.5 794.5,-112.5"/>
<text text-anchor="middle" x="817" y="-119.5" font-family="Helvetica,sans-Serif" font-size="10.00">cstdlib</text>
</a>
</g>
</g>
<!-- Node10&#45;&gt;Node11 -->
<g id="edge14" class="edge">
<title>Node10&#45;&gt;Node11</title>
<path fill="none" stroke="midnightblue" d="M575.35,-280.34C590.13,-271.37 613.8,-256.9 634,-244 692.98,-206.34 761.56,-160.41 795.58,-137.48"/>
<polygon fill="midnightblue" stroke="midnightblue" points="797.89,-140.14 804.22,-131.65 793.98,-134.34 797.89,-140.14"/>
</g>
<!-- Node10&#45;&gt;Node12 -->
<g id="edge16" class="edge">
<title>Node10&#45;&gt;Node12</title>
<path fill="none" stroke="midnightblue" d="M496.84,-281.85C430.46,-271.46 327.14,-246.54 259,-188 244.42,-175.47 234.33,-155.69 228.41,-141.24"/>
<polygon fill="midnightblue" stroke="midnightblue" points="231.66,-139.94 224.83,-131.84 225.12,-142.43 231.66,-139.94"/>
</g>
<!-- Node13 -->
<g id="node13" class="node">
<title>Node13</title>
<g id="a_node13"><a xlink:title=" ">
<polygon fill="white" stroke="#bfbfbf" points="714,-112.5 714,-131.5 776,-131.5 776,-112.5 714,-112.5"/>
<text text-anchor="middle" x="745" y="-119.5" font-family="Helvetica,sans-Serif" font-size="10.00">type_traits</text>
</a>
</g>
</g>
<!-- Node10&#45;&gt;Node13 -->
<g id="edge17" class="edge">
<title>Node10&#45;&gt;Node13</title>
<path fill="none" stroke="midnightblue" d="M570.63,-280.31C600.19,-253.64 689.89,-172.72 727.8,-138.52"/>
<polygon fill="midnightblue" stroke="midnightblue" points="730.38,-140.9 735.46,-131.61 725.69,-135.7 730.38,-140.9"/>
</g>
<!-- Node14 -->
<g id="node14" class="node">
<title>Node14</title>
<g id="a_node14"><a xlink:href="ArrayList_8hpp.html" target="_top" xlink:title=" ">
<polygon fill="white" stroke="black" points="414,-224.5 414,-243.5 488,-243.5 488,-224.5 414,-224.5"/>
<text text-anchor="middle" x="451" y="-231.5" font-family="Helvetica,sans-Serif" font-size="10.00">ArrayList.hpp</text>
</a>
</g>
</g>
<!-- Node10&#45;&gt;Node14 -->
<g id="edge19" class="edge">
<title>Node10&#45;&gt;Node14</title>
<path fill="none" stroke="midnightblue" d="M543.33,-280.32C525.61,-271.62 498.1,-258.12 477.71,-248.11"/>
<polygon fill="midnightblue" stroke="midnightblue" points="479.15,-244.92 468.63,-243.65 476.06,-251.2 479.15,-244.92"/>
</g>
<!-- Node18 -->
<g id="node18" class="node">
<title>Node18</title>
<g id="a_node18"><a xlink:href="Tuple_8hpp.html" target="_top" xlink:title=" ">
<polygon fill="white" stroke="black" points="596.5,-168.5 596.5,-187.5 655.5,-187.5 655.5,-168.5 596.5,-168.5"/>
<text text-anchor="middle" x="626" y="-175.5" font-family="Helvetica,sans-Serif" font-size="10.00">Tuple.hpp</text>
</a>
</g>
</g>
<!-- Node10&#45;&gt;Node18 -->
<g id="edge38" class="edge">
<title>Node10&#45;&gt;Node18</title>
<path fill="none" stroke="midnightblue" d="M566.1,-280.37C576.78,-262.3 601.67,-220.18 615.77,-196.31"/>
<polygon fill="midnightblue" stroke="midnightblue" points="618.85,-197.98 620.92,-187.59 612.82,-194.42 618.85,-197.98"/>
</g>
<!-- Node14&#45;&gt;Node4 -->
<g id="edge27" class="edge">
<title>Node14&#45;&gt;Node4</title>
<path fill="none" stroke="midnightblue" d="M454.55,-224.08C464.98,-197.83 495.71,-120.55 509.8,-85.12"/>
<polygon fill="midnightblue" stroke="midnightblue" points="513.15,-86.15 513.59,-75.57 506.65,-83.57 513.15,-86.15"/>
</g>
<!-- Node14&#45;&gt;Node6 -->
<g id="edge21" class="edge">
<title>Node14&#45;&gt;Node6</title>
<path fill="none" stroke="midnightblue" d="M443.12,-224.23C424.95,-203.79 381.13,-153.1 374,-132 371.16,-123.58 371.49,-120.53 374,-112 379.29,-93.99 409.28,-51.37 426.62,-27.66"/>
<polygon fill="midnightblue" stroke="midnightblue" points="429.45,-29.71 432.56,-19.58 423.81,-25.56 429.45,-29.71"/>
</g>
<!-- Node14&#45;&gt;Node7 -->
<g id="edge28" class="edge">
<title>Node14&#45;&gt;Node7</title>
<path fill="none" stroke="midnightblue" d="M448.72,-224.37C444.02,-206.54 433.15,-165.3 426.82,-141.27"/>
<polygon fill="midnightblue" stroke="midnightblue" points="430.2,-140.37 424.27,-131.59 423.43,-142.15 430.2,-140.37"/>
</g>
<!-- Node14&#45;&gt;Node12 -->
<g id="edge22" class="edge">
<title>Node14&#45;&gt;Node12</title>
<path fill="none" stroke="midnightblue" d="M413.91,-228.08C379.69,-222.33 328.38,-210.58 289,-188 267.14,-175.47 247.12,-154.18 234.77,-139.4"/>
<polygon fill="midnightblue" stroke="midnightblue" points="237.43,-137.13 228.42,-131.56 231.99,-141.53 237.43,-137.13"/>
</g>
<!-- Node15 -->
<g id="node15" class="node">
<title>Node15</title>
<g id="a_node15"><a xlink:title=" ">
<polygon fill="white" stroke="#bfbfbf" points="517.5,-112.5 517.5,-131.5 576.5,-131.5 576.5,-112.5 517.5,-112.5"/>
<text text-anchor="middle" x="547" y="-119.5" font-family="Helvetica,sans-Serif" font-size="10.00">functional</text>
</a>
</g>
</g>
<!-- Node14&#45;&gt;Node15 -->
<g id="edge20" class="edge">
<title>Node14&#45;&gt;Node15</title>
<path fill="none" stroke="midnightblue" d="M462.52,-224.47C473.6,-215.94 490.47,-202.1 503,-188 516.25,-173.08 528.74,-153.96 537,-140.32"/>
<polygon fill="midnightblue" stroke="midnightblue" points="540.14,-141.89 542.22,-131.51 534.12,-138.33 540.14,-141.89"/>
</g>
<!-- Node16 -->
<g id="node16" class="node">
<title>Node16</title>
<g id="a_node16"><a xlink:href="InvalidArgumentException_8hpp.html" target="_top" xlink:title=" ">
<polygon fill="white" stroke="black" points="66.5,-56.5 66.5,-75.5 221.5,-75.5 221.5,-56.5 66.5,-56.5"/>
<text text-anchor="middle" x="144" y="-63.5" font-family="Helvetica,sans-Serif" font-size="10.00">../InvalidArgumentException.hpp</text>
</a>
</g>
</g>
<!-- Node14&#45;&gt;Node16 -->
<g id="edge23" class="edge">
<title>Node14&#45;&gt;Node16</title>
<path fill="none" stroke="midnightblue" d="M413.91,-225.49C386.78,-218.76 349.98,-206.96 322,-188 284.97,-162.9 292.44,-137.95 256,-112 234.98,-97.03 208.27,-86.05 186.2,-78.68"/>
<polygon fill="midnightblue" stroke="midnightblue" points="187.02,-75.27 176.43,-75.55 184.89,-81.94 187.02,-75.27"/>
</g>
<!-- Node17 -->
<g id="node17" class="node">
<title>Node17</title>
<g id="a_node17"><a xlink:href="IList_8hpp.html" target="_top" xlink:title=" ">
<polygon fill="white" stroke="black" points="331,-168.5 331,-187.5 385,-187.5 385,-168.5 331,-168.5"/>
<text text-anchor="middle" x="358" y="-175.5" font-family="Helvetica,sans-Serif" font-size="10.00">IList.hpp</text>
</a>
</g>
</g>
<!-- Node14&#45;&gt;Node17 -->
<g id="edge29" class="edge">
<title>Node14&#45;&gt;Node17</title>
<path fill="none" stroke="midnightblue" d="M436.06,-224.32C421.41,-215.82 398.87,-202.73 381.76,-192.8"/>
<polygon fill="midnightblue" stroke="midnightblue" points="383.31,-189.65 372.9,-187.65 379.8,-195.7 383.31,-189.65"/>
</g>
<!-- Node14&#45;&gt;Node18 -->
<g id="edge32" class="edge">
<title>Node14&#45;&gt;Node18</title>
<path fill="none" stroke="midnightblue" d="M478.73,-224.44C508.43,-215.28 555.72,-200.69 588.67,-190.52"/>
<polygon fill="midnightblue" stroke="midnightblue" points="589.88,-193.81 598.4,-187.52 587.81,-187.12 589.88,-193.81"/>
</g>
<!-- Node16&#45;&gt;Node5 -->
<g id="edge24" class="edge">
<title>Node16&#45;&gt;Node5</title>
<path fill="none" stroke="midnightblue" d="M135.25,-56.08C127.53,-48.22 116.1,-36.57 106.78,-27.08"/>
<polygon fill="midnightblue" stroke="midnightblue" points="109.09,-24.44 99.59,-19.75 104.1,-29.34 109.09,-24.44"/>
</g>
<!-- Node16&#45;&gt;Node6 -->
<g id="edge26" class="edge">
<title>Node16&#45;&gt;Node6</title>
<path fill="none" stroke="midnightblue" d="M190.74,-56.44C249.23,-45.74 348.2,-27.62 401.82,-17.81"/>
<polygon fill="midnightblue" stroke="midnightblue" points="402.7,-21.2 411.91,-15.96 401.44,-14.32 402.7,-21.2"/>
</g>
<!-- Node16&#45;&gt;Node9 -->
<g id="edge25" class="edge">
<title>Node16&#45;&gt;Node9</title>
<path fill="none" stroke="midnightblue" d="M161.99,-56.32C180.04,-47.62 208.05,-34.12 228.8,-24.11"/>
<polygon fill="midnightblue" stroke="midnightblue" points="230.56,-27.15 238.05,-19.65 227.52,-20.84 230.56,-27.15"/>
</g>
<!-- Node17&#45;&gt;Node7 -->
<g id="edge30" class="edge">
<title>Node17&#45;&gt;Node7</title>
<path fill="none" stroke="midnightblue" d="M368.28,-168.32C377.84,-160.26 392.28,-148.08 403.78,-138.37"/>
<polygon fill="midnightblue" stroke="midnightblue" points="406.14,-140.96 411.53,-131.83 401.63,-135.61 406.14,-140.96"/>
</g>
<!-- Node17&#45;&gt;Node12 -->
<g id="edge31" class="edge">
<title>Node17&#45;&gt;Node12</title>
<path fill="none" stroke="midnightblue" d="M336.45,-168.44C313.97,-159.52 278.51,-145.44 253.02,-135.32"/>
<polygon fill="midnightblue" stroke="midnightblue" points="254.03,-131.95 243.45,-131.52 251.45,-138.46 254.03,-131.95"/>
</g>
<!-- Node18&#45;&gt;Node6 -->
<g id="edge36" class="edge">
<title>Node18&#45;&gt;Node6</title>
<path fill="none" stroke="midnightblue" d="M638.28,-168.42C654.46,-156.03 679.48,-132.36 667,-112 626.17,-45.39 529.6,-22.5 476.17,-14.79"/>
<polygon fill="midnightblue" stroke="midnightblue" points="476.46,-11.3 466.09,-13.45 475.53,-18.24 476.46,-11.3"/>
</g>
<!-- Node18&#45;&gt;Node11 -->
<g id="edge34" class="edge">
<title>Node18&#45;&gt;Node11</title>
<path fill="none" stroke="midnightblue" d="M655.84,-168.56C690.7,-158.71 748.17,-142.46 784.23,-132.26"/>
<polygon fill="midnightblue" stroke="midnightblue" points="785.57,-135.52 794.25,-129.43 783.67,-128.79 785.57,-135.52"/>
</g>
<!-- Node18&#45;&gt;Node13 -->
<g id="edge37" class="edge">
<title>Node18&#45;&gt;Node13</title>
<path fill="none" stroke="midnightblue" d="M644.86,-168.44C664.27,-159.64 694.73,-145.81 716.96,-135.72"/>
<polygon fill="midnightblue" stroke="midnightblue" points="718.57,-138.84 726.23,-131.52 715.68,-132.46 718.57,-138.84"/>
</g>
<!-- Node18&#45;&gt;Node15 -->
<g id="edge35" class="edge">
<title>Node18&#45;&gt;Node15</title>
<path fill="none" stroke="midnightblue" d="M613.31,-168.32C601.1,-159.98 582.42,-147.21 568,-137.35"/>
<polygon fill="midnightblue" stroke="midnightblue" points="569.89,-134.41 559.66,-131.65 565.94,-140.19 569.89,-134.41"/>
</g>
<!-- Node19 -->
<g id="node19" class="node">
<title>Node19</title>
<g id="a_node19"><a xlink:href="ttype_8hpp.html" target="_top" xlink:title=" ">
<polygon fill="white" stroke="black" points="594.5,-112.5 594.5,-131.5 657.5,-131.5 657.5,-112.5 594.5,-112.5"/>
<text text-anchor="middle" x="626" y="-119.5" font-family="Helvetica,sans-Serif" font-size="10.00">../ttype.hpp</text>
</a>
</g>
</g>
<!-- Node18&#45;&gt;Node19 -->
<g id="edge33" class="edge">
<title>Node18&#45;&gt;Node19</title>
<path fill="none" stroke="midnightblue" d="M626,-168.08C626,-161.01 626,-150.86 626,-141.99"/>
<polygon fill="midnightblue" stroke="midnightblue" points="629.5,-141.75 626,-131.75 622.5,-141.75 629.5,-141.75"/>
</g>
<!-- Node20&#45;&gt;Node6 -->
<g id="edge41" class="edge">
<title>Node20&#45;&gt;Node6</title>
<path fill="none" stroke="midnightblue" d="M983.96,-224.32C978.19,-201.84 959.56,-141.41 920,-112 848.82,-59.09 576.04,-25.51 476.03,-14.75"/>
<polygon fill="midnightblue" stroke="midnightblue" points="476.39,-11.27 466.08,-13.7 475.66,-18.23 476.39,-11.27"/>
</g>
<!-- Node21&#45;&gt;Node6 -->
<g id="edge43" class="edge">
<title>Node21&#45;&gt;Node6</title>
<path fill="none" stroke="midnightblue" d="M1022.57,-280.26C1029.75,-271.58 1040.39,-257.63 1047,-244 1060.13,-216.92 1066,-209.1 1066,-179 1066,-179 1066,-179 1066,-121 1066,-60.81 611.95,-23.4 476.62,-13.59"/>
<polygon fill="midnightblue" stroke="midnightblue" points="476.57,-10.08 466.34,-12.85 476.07,-17.06 476.57,-10.08"/>
</g>
</g>
</svg>
