<?xml version="1.0" encoding="UTF-8" standalone="no"?>
<!DOCTYPE svg PUBLIC "-//W3C//DTD SVG 1.1//EN"
 "http://www.w3.org/Graphics/SVG/1.1/DTD/svg11.dtd">
<!-- Generated by graphviz version 2.44.0 (0)
 -->
<!-- Title: TravellersApp/src/parser/CommandList.hpp Pages: 1 -->
<!--zoomable 375 -->
<svg id="main" version="1.1" xmlns="http://www.w3.org/2000/svg" xmlns:xlink="http://www.w3.org/1999/xlink" xml:space="preserve" onload="init(evt)">
<style type="text/css"><![CDATA[
.edge:hover path { stroke: red; }
.edge:hover polygon { stroke: red; fill: red; }
]]></style>
<script type="text/javascript"><![CDATA[
var edges = document.getElementsByTagName('g');
if (edges && edges.length) {
  for (var i=0;i<edges.length;i++) {
    if (edges[i].id.substr(0,4)=='edge') {
      edges[i].setAttribute('class','edge');
    }
  }
}
]]></script>
        <defs>
                <circle id="rim" cx="0" cy="0" r="7"/>
                <circle id="rim2" cx="0" cy="0" r="3.5"/>
                <g id="zoomPlus">
                        <use xlink:href="#rim" fill="#404040">
                                <set attributeName="fill" to="#808080" begin="zoomplus.mouseover" end="zoomplus.mouseout"/>
                        </use>
                        <path d="M-4,0h8M0,-4v8" fill="none" stroke="white" stroke-width="1.5" pointer-events="none"/>
                </g>
                <g id="zoomMin">
                        <use xlink:href="#rim" fill="#404040">
                                <set attributeName="fill" to="#808080" begin="zoomminus.mouseover" end="zoomminus.mouseout"/>
                        </use>
                        <path d="M-4,0h8" fill="none" stroke="white" stroke-width="1.5" pointer-events="none"/>
                </g>
                <g id="dirArrow">
                        <path fill="none" stroke="white" stroke-width="1.5" d="M0,-3.0v7 M-2.5,-0.5L0,-3.0L2.5,-0.5"/>
                </g>
               <g id="resetDef">
                       <use xlink:href="#rim2" fill="#404040">
                               <set attributeName="fill" to="#808080" begin="reset.mouseover" end="reset.mouseout"/>
                       </use>
               </g>
        </defs>

<script type="text/javascript">
var viewWidth = 1071;
var viewHeight = 375;
var sectionId = 'dynsection-0';
</script>
<script xlink:href="svgpan.js"/>
<svg id="graph" class="graph">
<g id="viewport">
<title>TravellersApp/src/parser/CommandList.hpp</title>
<polygon fill="white" stroke="transparent" points="-4,4 -4,-371 1067,-371 1067,4 -4,4"/>
<!-- Node1 -->
<g id="node1" class="node">
<title>Node1</title>
<g id="a_node1"><a xlink:title=" ">
<polygon fill="#bfbfbf" stroke="black" points="616.5,-336.5 616.5,-366.5 739.5,-366.5 739.5,-336.5 616.5,-336.5"/>
<text text-anchor="start" x="624.5" y="-354.5" font-family="Helvetica,sans-Serif" font-size="10.00">TravellersApp/src/parser</text>
<text text-anchor="middle" x="678" y="-343.5" font-family="Helvetica,sans-Serif" font-size="10.00">/CommandList.hpp</text>
</a>
</g>
</g>
<!-- Node2 -->
<g id="node2" class="node">
<title>Node2</title>
<g id="a_node2"><a xlink:href="SimpleString_8hpp.html" target="_top" xlink:title=" ">
<polygon fill="white" stroke="black" points="108,-112.5 108,-131.5 206,-131.5 206,-112.5 108,-112.5"/>
<text text-anchor="middle" x="157" y="-119.5" font-family="Helvetica,sans-Serif" font-size="10.00">../SimpleString.hpp</text>
</a>
</g>
</g>
<!-- Node1&#45;&gt;Node2 -->
<g id="edge1" class="edge">
<title>Node1&#45;&gt;Node2</title>
<path fill="none" stroke="midnightblue" d="M616.4,-338.33C577.9,-329.76 527.7,-316.83 485,-300 363.72,-252.21 230.19,-170.02 178.8,-137.17"/>
<polygon fill="midnightblue" stroke="midnightblue" points="180.49,-134.09 170.19,-131.63 176.71,-139.98 180.49,-134.09"/>
</g>
<!-- Node6 -->
<g id="node6" class="node">
<title>Node6</title>
<g id="a_node6"><a xlink:href="Nullable_8hpp.html" target="_top" xlink:title=" ">
<polygon fill="white" stroke="black" points="376.5,-112.5 376.5,-131.5 453.5,-131.5 453.5,-112.5 376.5,-112.5"/>
<text text-anchor="middle" x="415" y="-119.5" font-family="Helvetica,sans-Serif" font-size="10.00">../Nullable.hpp</text>
</a>
</g>
</g>
<!-- Node1&#45;&gt;Node6 -->
<g id="edge5" class="edge">
<title>Node1&#45;&gt;Node6</title>
<path fill="none" stroke="midnightblue" d="M618.58,-336.47C566.57,-321.44 492,-292.89 444,-244 416.98,-216.47 413.54,-168.47 413.94,-141.96"/>
<polygon fill="midnightblue" stroke="midnightblue" points="417.44,-141.85 414.3,-131.73 410.45,-141.6 417.44,-141.85"/>
</g>
<!-- Node9 -->
<g id="node9" class="node">
<title>Node9</title>
<g id="a_node9"><a xlink:href="HashMap_8hpp.html" target="_top" xlink:title=" ">
<polygon fill="white" stroke="black" points="568,-280.5 568,-299.5 696,-299.5 696,-280.5 568,-280.5"/>
<text text-anchor="middle" x="632" y="-287.5" font-family="Helvetica,sans-Serif" font-size="10.00">../collection/HashMap.hpp</text>
</a>
</g>
</g>
<!-- Node1&#45;&gt;Node9 -->
<g id="edge12" class="edge">
<title>Node1&#45;&gt;Node9</title>
<path fill="none" stroke="midnightblue" d="M667.1,-336.4C660.41,-327.75 651.82,-316.64 644.82,-307.58"/>
<polygon fill="midnightblue" stroke="midnightblue" points="647.58,-305.43 638.69,-299.66 642.04,-309.71 647.58,-305.43"/>
</g>
<!-- Node11 -->
<g id="node11" class="node">
<title>Node11</title>
<g id="a_node11"><a xlink:title=" ">
<polygon fill="white" stroke="#bfbfbf" points="510.5,-112.5 510.5,-131.5 561.5,-131.5 561.5,-112.5 510.5,-112.5"/>
<text text-anchor="middle" x="536" y="-119.5" font-family="Helvetica,sans-Serif" font-size="10.00">memory</text>
</a>
</g>
</g>
<!-- Node1&#45;&gt;Node11 -->
<g id="edge43" class="edge">
<title>Node1&#45;&gt;Node11</title>
<path fill="none" stroke="midnightblue" d="M690.03,-336.32C700.66,-321.99 713.28,-299.27 705,-280 675.66,-211.7 600.02,-159.9 560.64,-136.59"/>
<polygon fill="midnightblue" stroke="midnightblue" points="562.32,-133.52 551.92,-131.54 558.82,-139.57 562.32,-133.52"/>
</g>
<!-- Node19 -->
<g id="node19" class="node">
<title>Node19</title>
<g id="a_node19"><a xlink:href="ScannerContext_8hpp.html" target="_top" xlink:title=" ">
<polygon fill="white" stroke="black" points="959,-224.5 959,-243.5 1063,-243.5 1063,-224.5 959,-224.5"/>
<text text-anchor="middle" x="1011" y="-231.5" font-family="Helvetica,sans-Serif" font-size="10.00">ScannerContext.hpp</text>
</a>
</g>
</g>
<!-- Node1&#45;&gt;Node19 -->
<g id="edge39" class="edge">
<title>Node1&#45;&gt;Node19</title>
<path fill="none" stroke="midnightblue" d="M739.85,-341.2C784.52,-333.31 845.76,-320.02 897,-300 931.35,-286.58 967.84,-264.14 990.03,-249.46"/>
<polygon fill="midnightblue" stroke="midnightblue" points="992.27,-252.17 998.62,-243.69 988.36,-246.36 992.27,-252.17"/>
</g>
<!-- Node20 -->
<g id="node20" class="node">
<title>Node20</title>
<g id="a_node20"><a xlink:href="Token_8hpp.html" target="_top" xlink:title=" ">
<polygon fill="white" stroke="black" points="826,-280.5 826,-299.5 888,-299.5 888,-280.5 826,-280.5"/>
<text text-anchor="middle" x="857" y="-287.5" font-family="Helvetica,sans-Serif" font-size="10.00">Token.hpp</text>
</a>
</g>
</g>
<!-- Node1&#45;&gt;Node20 -->
<g id="edge41" class="edge">
<title>Node1&#45;&gt;Node20</title>
<path fill="none" stroke="midnightblue" d="M720.42,-336.4C751.22,-326.16 792.41,-312.47 821.48,-302.81"/>
<polygon fill="midnightblue" stroke="midnightblue" points="822.83,-306.05 831.22,-299.57 820.62,-299.4 822.83,-306.05"/>
</g>
<!-- Node3 -->
<g id="node3" class="node">
<title>Node3</title>
<g id="a_node3"><a xlink:href="debug_8hpp.html" target="_top" xlink:title=" ">
<polygon fill="white" stroke="black" points="278.5,-56.5 278.5,-75.5 339.5,-75.5 339.5,-56.5 278.5,-56.5"/>
<text text-anchor="middle" x="309" y="-63.5" font-family="Helvetica,sans-Serif" font-size="10.00">debug.hpp</text>
</a>
</g>
</g>
<!-- Node2&#45;&gt;Node3 -->
<g id="edge2" class="edge">
<title>Node2&#45;&gt;Node3</title>
<path fill="none" stroke="midnightblue" d="M181.08,-112.44C206.54,-103.4 246.89,-89.06 275.46,-78.92"/>
<polygon fill="midnightblue" stroke="midnightblue" points="276.78,-82.16 285.03,-75.52 274.43,-75.57 276.78,-82.16"/>
</g>
<!-- Node4 -->
<g id="node4" class="node">
<title>Node4</title>
<g id="a_node4"><a xlink:title=" ">
<polygon fill="white" stroke="#bfbfbf" points="33,-0.5 33,-19.5 79,-19.5 79,-0.5 33,-0.5"/>
<text text-anchor="middle" x="56" y="-7.5" font-family="Helvetica,sans-Serif" font-size="10.00">cstring</text>
</a>
</g>
</g>
<!-- Node2&#45;&gt;Node4 -->
<g id="edge3" class="edge">
<title>Node2&#45;&gt;Node4</title>
<path fill="none" stroke="midnightblue" d="M112.69,-112.48C92.12,-106.08 69.5,-95.01 57,-76 48.1,-62.46 48.87,-43.65 51.26,-29.75"/>
<polygon fill="midnightblue" stroke="midnightblue" points="54.71,-30.36 53.37,-19.85 47.86,-28.9 54.71,-30.36"/>
</g>
<!-- Node5 -->
<g id="node5" class="node">
<title>Node5</title>
<g id="a_node5"><a xlink:title=" ">
<polygon fill="white" stroke="#bfbfbf" points="492,-0.5 492,-19.5 546,-19.5 546,-0.5 492,-0.5"/>
<text text-anchor="middle" x="519" y="-7.5" font-family="Helvetica,sans-Serif" font-size="10.00">iostream</text>
</a>
</g>
</g>
<!-- Node2&#45;&gt;Node5 -->
<g id="edge4" class="edge">
<title>Node2&#45;&gt;Node5</title>
<path fill="none" stroke="midnightblue" d="M170.31,-112.49C195.32,-96.63 248.64,-63.48 269,-56 341.66,-29.32 432.2,-18.07 481.95,-13.63"/>
<polygon fill="midnightblue" stroke="midnightblue" points="482.26,-17.12 491.93,-12.79 481.67,-10.15 482.26,-17.12"/>
</g>
<!-- Node6&#45;&gt;Node3 -->
<g id="edge10" class="edge">
<title>Node6&#45;&gt;Node3</title>
<path fill="none" stroke="midnightblue" d="M397.97,-112.32C380.97,-103.66 354.62,-90.24 335.01,-80.25"/>
<polygon fill="midnightblue" stroke="midnightblue" points="336.49,-77.08 325.99,-75.65 333.31,-83.31 336.49,-77.08"/>
</g>
<!-- Node6&#45;&gt;Node5 -->
<g id="edge11" class="edge">
<title>Node6&#45;&gt;Node5</title>
<path fill="none" stroke="midnightblue" d="M431.71,-112.39C446.05,-104.39 466.62,-91.41 481,-76 493.93,-62.14 504.41,-43.12 511.06,-29.24"/>
<polygon fill="midnightblue" stroke="midnightblue" points="514.4,-30.34 515.38,-19.79 508.04,-27.43 514.4,-30.34"/>
</g>
<!-- Node7 -->
<g id="node7" class="node">
<title>Node7</title>
<g id="a_node7"><a xlink:href="NoValueException_8hpp.html" target="_top" xlink:title=" ">
<polygon fill="white" stroke="black" points="358,-56.5 358,-75.5 472,-75.5 472,-56.5 358,-56.5"/>
<text text-anchor="middle" x="415" y="-63.5" font-family="Helvetica,sans-Serif" font-size="10.00">NoValueException.hpp</text>
</a>
</g>
</g>
<!-- Node6&#45;&gt;Node7 -->
<g id="edge6" class="edge">
<title>Node6&#45;&gt;Node7</title>
<path fill="none" stroke="midnightblue" d="M415,-112.08C415,-105.01 415,-94.86 415,-85.99"/>
<polygon fill="midnightblue" stroke="midnightblue" points="418.5,-85.75 415,-75.75 411.5,-85.75 418.5,-85.75"/>
</g>
<!-- Node7&#45;&gt;Node4 -->
<g id="edge7" class="edge">
<title>Node7&#45;&gt;Node4</title>
<path fill="none" stroke="midnightblue" d="M358.12,-56.44C282.23,-45.03 150.35,-25.19 89.07,-15.97"/>
<polygon fill="midnightblue" stroke="midnightblue" points="89.57,-12.51 79.16,-14.48 88.53,-19.43 89.57,-12.51"/>
</g>
<!-- Node7&#45;&gt;Node5 -->
<g id="edge9" class="edge">
<title>Node7&#45;&gt;Node5</title>
<path fill="none" stroke="midnightblue" d="M431.71,-56.32C448.31,-47.7 474,-34.36 493.22,-24.39"/>
<polygon fill="midnightblue" stroke="midnightblue" points="495.07,-27.37 502.33,-19.65 491.84,-21.16 495.07,-27.37"/>
</g>
<!-- Node8 -->
<g id="node8" class="node">
<title>Node8</title>
<g id="a_node8"><a xlink:title=" ">
<polygon fill="white" stroke="#bfbfbf" points="250,-0.5 250,-19.5 308,-19.5 308,-0.5 250,-0.5"/>
<text text-anchor="middle" x="279" y="-7.5" font-family="Helvetica,sans-Serif" font-size="10.00">exception</text>
</a>
</g>
</g>
<!-- Node7&#45;&gt;Node8 -->
<g id="edge8" class="edge">
<title>Node7&#45;&gt;Node8</title>
<path fill="none" stroke="midnightblue" d="M393.45,-56.44C370.97,-47.52 335.51,-33.44 310.02,-23.32"/>
<polygon fill="midnightblue" stroke="midnightblue" points="311.03,-19.95 300.45,-19.52 308.45,-26.46 311.03,-19.95"/>
</g>
<!-- Node9&#45;&gt;Node3 -->
<g id="edge17" class="edge">
<title>Node9&#45;&gt;Node3</title>
<path fill="none" stroke="midnightblue" d="M567.86,-283.35C529.72,-277.71 481.6,-266.46 444,-244 379.07,-205.22 334.53,-122.31 317.14,-85.39"/>
<polygon fill="midnightblue" stroke="midnightblue" points="320.13,-83.52 312.79,-75.89 313.77,-86.44 320.13,-83.52"/>
</g>
<!-- Node9&#45;&gt;Node4 -->
<g id="edge14" class="edge">
<title>Node9&#45;&gt;Node4</title>
<path fill="none" stroke="midnightblue" d="M567.92,-284.53C407.25,-272.46 0,-236.22 0,-179 0,-179 0,-179 0,-121 0,-84.44 24.88,-47.75 41.47,-27.34"/>
<polygon fill="midnightblue" stroke="midnightblue" points="44.2,-29.54 47.98,-19.64 38.85,-25.02 44.2,-29.54"/>
</g>
<!-- Node9&#45;&gt;Node6 -->
<g id="edge38" class="edge">
<title>Node9&#45;&gt;Node6</title>
<path fill="none" stroke="midnightblue" d="M567.81,-281.1C536.49,-274.86 499.51,-263.75 471,-244 445.64,-226.44 442.84,-216.05 430,-188 423.22,-173.19 419.36,-155.04 417.26,-141.68"/>
<polygon fill="midnightblue" stroke="midnightblue" points="420.73,-141.2 415.89,-131.77 413.8,-142.16 420.73,-141.2"/>
</g>
<!-- Node10 -->
<g id="node10" class="node">
<title>Node10</title>
<g id="a_node10"><a xlink:title=" ">
<polygon fill="white" stroke="#bfbfbf" points="857.5,-112.5 857.5,-131.5 902.5,-131.5 902.5,-112.5 857.5,-112.5"/>
<text text-anchor="middle" x="880" y="-119.5" font-family="Helvetica,sans-Serif" font-size="10.00">cstdlib</text>
</a>
</g>
</g>
<!-- Node9&#45;&gt;Node10 -->
<g id="edge13" class="edge">
<title>Node9&#45;&gt;Node10</title>
<path fill="none" stroke="midnightblue" d="M654.33,-280.39C691.47,-265.39 767.19,-231.8 821,-188 838.65,-173.64 855.78,-153.92 866.99,-139.98"/>
<polygon fill="midnightblue" stroke="midnightblue" points="870.02,-141.79 873.45,-131.76 864.52,-137.46 870.02,-141.79"/>
</g>
<!-- Node9&#45;&gt;Node11 -->
<g id="edge15" class="edge">
<title>Node9&#45;&gt;Node11</title>
<path fill="none" stroke="midnightblue" d="M627.88,-280.28C618.22,-260.07 593.06,-208.66 568,-168 562.09,-158.41 554.86,-148.14 548.77,-139.84"/>
<polygon fill="midnightblue" stroke="midnightblue" points="551.51,-137.66 542.73,-131.73 545.9,-141.84 551.51,-137.66"/>
</g>
<!-- Node12 -->
<g id="node12" class="node">
<title>Node12</title>
<g id="a_node12"><a xlink:title=" ">
<polygon fill="white" stroke="#bfbfbf" points="657,-112.5 657,-131.5 719,-131.5 719,-112.5 657,-112.5"/>
<text text-anchor="middle" x="688" y="-119.5" font-family="Helvetica,sans-Serif" font-size="10.00">type_traits</text>
</a>
</g>
</g>
<!-- Node9&#45;&gt;Node12 -->
<g id="edge16" class="edge">
<title>Node9&#45;&gt;Node12</title>
<path fill="none" stroke="midnightblue" d="M639.28,-280.27C646.15,-271.6 656.23,-257.67 662,-244 676.59,-209.49 683.36,-165.85 686.2,-141.53"/>
<polygon fill="midnightblue" stroke="midnightblue" points="689.69,-141.86 687.27,-131.54 682.73,-141.11 689.69,-141.86"/>
</g>
<!-- Node13 -->
<g id="node13" class="node">
<title>Node13</title>
<g id="a_node13"><a xlink:href="ArrayList_8hpp.html" target="_top" xlink:title=" ">
<polygon fill="white" stroke="black" points="480,-224.5 480,-243.5 554,-243.5 554,-224.5 480,-224.5"/>
<text text-anchor="middle" x="517" y="-231.5" font-family="Helvetica,sans-Serif" font-size="10.00">ArrayList.hpp</text>
</a>
</g>
</g>
<!-- Node9&#45;&gt;Node13 -->
<g id="edge18" class="edge">
<title>Node9&#45;&gt;Node13</title>
<path fill="none" stroke="midnightblue" d="M613.78,-280.44C595.1,-271.68 565.84,-257.94 544.38,-247.86"/>
<polygon fill="midnightblue" stroke="midnightblue" points="545.68,-244.6 535.14,-243.52 542.7,-250.93 545.68,-244.6"/>
</g>
<!-- Node17 -->
<g id="node17" class="node">
<title>Node17</title>
<g id="a_node17"><a xlink:href="Tuple_8hpp.html" target="_top" xlink:title=" ">
<polygon fill="white" stroke="black" points="752.5,-168.5 752.5,-187.5 811.5,-187.5 811.5,-168.5 752.5,-168.5"/>
<text text-anchor="middle" x="782" y="-175.5" font-family="Helvetica,sans-Serif" font-size="10.00">Tuple.hpp</text>
</a>
</g>
</g>
<!-- Node9&#45;&gt;Node17 -->
<g id="edge37" class="edge">
<title>Node9&#45;&gt;Node17</title>
<path fill="none" stroke="midnightblue" d="M645.78,-280.37C659.69,-271.55 681.66,-257.3 700,-244 722.54,-227.65 747.49,-207.58 763.88,-194.1"/>
<polygon fill="midnightblue" stroke="midnightblue" points="766.13,-196.78 771.61,-187.71 761.67,-191.38 766.13,-196.78"/>
</g>
<!-- Node13&#45;&gt;Node3 -->
<g id="edge26" class="edge">
<title>Node13&#45;&gt;Node3</title>
<path fill="none" stroke="midnightblue" d="M496.82,-224.36C478.64,-216.17 451.53,-202.92 430,-188 385.44,-157.12 342.92,-108.78 322.18,-83.57"/>
<polygon fill="midnightblue" stroke="midnightblue" points="324.8,-81.24 315.78,-75.68 319.36,-85.65 324.8,-81.24"/>
</g>
<!-- Node13&#45;&gt;Node5 -->
<g id="edge20" class="edge">
<title>Node13&#45;&gt;Node5</title>
<path fill="none" stroke="midnightblue" d="M506.84,-224.19C498.09,-215.87 486.1,-202.54 481,-188 478.06,-179.61 479.95,-176.83 481,-168 482.64,-154.25 504.37,-68.27 514.21,-29.69"/>
<polygon fill="midnightblue" stroke="midnightblue" points="517.66,-30.32 516.75,-19.77 510.88,-28.59 517.66,-30.32"/>
</g>
<!-- Node13&#45;&gt;Node6 -->
<g id="edge27" class="edge">
<title>Node13&#45;&gt;Node6</title>
<path fill="none" stroke="midnightblue" d="M498.68,-224.46C483.55,-216.67 462.33,-203.97 448,-188 435.74,-174.34 426.78,-155.29 421.32,-141.35"/>
<polygon fill="midnightblue" stroke="midnightblue" points="424.56,-140.03 417.82,-131.86 417.99,-142.45 424.56,-140.03"/>
</g>
<!-- Node13&#45;&gt;Node11 -->
<g id="edge21" class="edge">
<title>Node13&#45;&gt;Node11</title>
<path fill="none" stroke="midnightblue" d="M527.16,-224.19C535.91,-215.87 547.9,-202.54 553,-188 558.54,-172.21 552.53,-153.71 546.18,-140.49"/>
<polygon fill="midnightblue" stroke="midnightblue" points="549.22,-138.74 541.44,-131.55 543.03,-142.02 549.22,-138.74"/>
</g>
<!-- Node14 -->
<g id="node14" class="node">
<title>Node14</title>
<g id="a_node14"><a xlink:title=" ">
<polygon fill="white" stroke="#bfbfbf" points="579.5,-112.5 579.5,-131.5 638.5,-131.5 638.5,-112.5 579.5,-112.5"/>
<text text-anchor="middle" x="609" y="-119.5" font-family="Helvetica,sans-Serif" font-size="10.00">functional</text>
</a>
</g>
</g>
<!-- Node13&#45;&gt;Node14 -->
<g id="edge19" class="edge">
<title>Node13&#45;&gt;Node14</title>
<path fill="none" stroke="midnightblue" d="M528.8,-224.19C539.73,-215.67 556.06,-202.03 568,-188 580.67,-173.12 592.26,-153.99 599.86,-140.35"/>
<polygon fill="midnightblue" stroke="midnightblue" points="602.96,-141.98 604.65,-131.52 596.8,-138.64 602.96,-141.98"/>
</g>
<!-- Node15 -->
<g id="node15" class="node">
<title>Node15</title>
<g id="a_node15"><a xlink:href="InvalidArgumentException_8hpp.html" target="_top" xlink:title=" ">
<polygon fill="white" stroke="black" points="66.5,-56.5 66.5,-75.5 221.5,-75.5 221.5,-56.5 66.5,-56.5"/>
<text text-anchor="middle" x="144" y="-63.5" font-family="Helvetica,sans-Serif" font-size="10.00">../InvalidArgumentException.hpp</text>
</a>
</g>
</g>
<!-- Node13&#45;&gt;Node15 -->
<g id="edge22" class="edge">
<title>Node13&#45;&gt;Node15</title>
<path fill="none" stroke="midnightblue" d="M493.91,-224.47C470.56,-215.73 433.52,-201.54 402,-188 316.28,-151.17 216.84,-102.94 170.42,-80.09"/>
<polygon fill="midnightblue" stroke="midnightblue" points="171.86,-76.9 161.34,-75.61 168.76,-83.18 171.86,-76.9"/>
</g>
<!-- Node16 -->
<g id="node16" class="node">
<title>Node16</title>
<g id="a_node16"><a xlink:href="IList_8hpp.html" target="_top" xlink:title=" ">
<polygon fill="white" stroke="black" points="490,-168.5 490,-187.5 544,-187.5 544,-168.5 490,-168.5"/>
<text text-anchor="middle" x="517" y="-175.5" font-family="Helvetica,sans-Serif" font-size="10.00">IList.hpp</text>
</a>
</g>
</g>
<!-- Node13&#45;&gt;Node16 -->
<g id="edge28" class="edge">
<title>Node13&#45;&gt;Node16</title>
<path fill="none" stroke="midnightblue" d="M517,-224.08C517,-217.01 517,-206.86 517,-197.99"/>
<polygon fill="midnightblue" stroke="midnightblue" points="520.5,-197.75 517,-187.75 513.5,-197.75 520.5,-197.75"/>
</g>
<!-- Node13&#45;&gt;Node17 -->
<g id="edge31" class="edge">
<title>Node13&#45;&gt;Node17</title>
<path fill="none" stroke="midnightblue" d="M554.13,-225.43C603.83,-215.31 691.64,-197.41 742.52,-187.05"/>
<polygon fill="midnightblue" stroke="midnightblue" points="743.38,-190.44 752.48,-185.02 741.98,-183.58 743.38,-190.44"/>
</g>
<!-- Node15&#45;&gt;Node4 -->
<g id="edge23" class="edge">
<title>Node15&#45;&gt;Node4</title>
<path fill="none" stroke="midnightblue" d="M129.86,-56.32C116.13,-47.9 95.06,-34.97 78.94,-25.07"/>
<polygon fill="midnightblue" stroke="midnightblue" points="80.46,-21.9 70.1,-19.65 76.8,-27.87 80.46,-21.9"/>
</g>
<!-- Node15&#45;&gt;Node5 -->
<g id="edge25" class="edge">
<title>Node15&#45;&gt;Node5</title>
<path fill="none" stroke="midnightblue" d="M203.42,-56.44C281.48,-45.2 416.26,-25.79 481.49,-16.4"/>
<polygon fill="midnightblue" stroke="midnightblue" points="482.31,-19.82 491.71,-14.93 481.31,-12.89 482.31,-19.82"/>
</g>
<!-- Node15&#45;&gt;Node8 -->
<g id="edge24" class="edge">
<title>Node15&#45;&gt;Node8</title>
<path fill="none" stroke="midnightblue" d="M165.39,-56.44C187.71,-47.52 222.9,-33.44 248.21,-23.32"/>
<polygon fill="midnightblue" stroke="midnightblue" points="249.72,-26.48 257.71,-19.52 247.12,-19.98 249.72,-26.48"/>
</g>
<!-- Node16&#45;&gt;Node6 -->
<g id="edge29" class="edge">
<title>Node16&#45;&gt;Node6</title>
<path fill="none" stroke="midnightblue" d="M500.61,-168.32C484.33,-159.7 459.13,-146.36 440.28,-136.39"/>
<polygon fill="midnightblue" stroke="midnightblue" points="441.82,-133.24 431.35,-131.65 438.55,-139.43 441.82,-133.24"/>
</g>
<!-- Node16&#45;&gt;Node11 -->
<g id="edge30" class="edge">
<title>Node16&#45;&gt;Node11</title>
<path fill="none" stroke="midnightblue" d="M520.14,-168.08C522.68,-160.85 526.36,-150.41 529.53,-141.4"/>
<polygon fill="midnightblue" stroke="midnightblue" points="532.9,-142.35 532.92,-131.75 526.3,-140.02 532.9,-142.35"/>
</g>
<!-- Node17&#45;&gt;Node5 -->
<g id="edge35" class="edge">
<title>Node17&#45;&gt;Node5</title>
<path fill="none" stroke="midnightblue" d="M790.92,-168.41C803.34,-155.39 822.96,-130.22 810,-112 751.41,-29.65 620.75,-13.84 556.35,-11.21"/>
<polygon fill="midnightblue" stroke="midnightblue" points="556.34,-7.71 546.23,-10.88 556.11,-14.71 556.34,-7.71"/>
</g>
<!-- Node17&#45;&gt;Node10 -->
<g id="edge33" class="edge">
<title>Node17&#45;&gt;Node10</title>
<path fill="none" stroke="midnightblue" d="M797.75,-168.32C813.32,-159.74 837.38,-146.49 855.46,-136.52"/>
<polygon fill="midnightblue" stroke="midnightblue" points="857.22,-139.55 864.29,-131.65 853.85,-133.42 857.22,-139.55"/>
</g>
<!-- Node17&#45;&gt;Node12 -->
<g id="edge36" class="edge">
<title>Node17&#45;&gt;Node12</title>
<path fill="none" stroke="midnightblue" d="M766.9,-168.32C752.1,-159.82 729.31,-146.73 712.02,-136.8"/>
<polygon fill="midnightblue" stroke="midnightblue" points="713.48,-133.6 703.07,-131.65 709.99,-139.67 713.48,-133.6"/>
</g>
<!-- Node17&#45;&gt;Node14 -->
<g id="edge34" class="edge">
<title>Node17&#45;&gt;Node14</title>
<path fill="none" stroke="midnightblue" d="M754.59,-168.44C725.23,-159.28 678.48,-144.69 645.9,-134.52"/>
<polygon fill="midnightblue" stroke="midnightblue" points="646.87,-131.16 636.28,-131.52 644.79,-137.84 646.87,-131.16"/>
</g>
<!-- Node18 -->
<g id="node18" class="node">
<title>Node18</title>
<g id="a_node18"><a xlink:href="ttype_8hpp.html" target="_top" xlink:title=" ">
<polygon fill="white" stroke="black" points="737.5,-112.5 737.5,-131.5 800.5,-131.5 800.5,-112.5 737.5,-112.5"/>
<text text-anchor="middle" x="769" y="-119.5" font-family="Helvetica,sans-Serif" font-size="10.00">../ttype.hpp</text>
</a>
</g>
</g>
<!-- Node17&#45;&gt;Node18 -->
<g id="edge32" class="edge">
<title>Node17&#45;&gt;Node18</title>
<path fill="none" stroke="midnightblue" d="M779.85,-168.08C778.13,-160.93 775.65,-150.64 773.5,-141.69"/>
<polygon fill="midnightblue" stroke="midnightblue" points="776.85,-140.65 771.11,-131.75 770.04,-142.29 776.85,-140.65"/>
</g>
<!-- Node19&#45;&gt;Node5 -->
<g id="edge40" class="edge">
<title>Node19&#45;&gt;Node5</title>
<path fill="none" stroke="midnightblue" d="M1010.75,-224.16C1009.4,-194.68 1000.72,-99.21 945,-56 914.56,-32.39 654.33,-17.52 556.22,-12.71"/>
<polygon fill="midnightblue" stroke="midnightblue" points="556.32,-9.21 546.16,-12.22 555.98,-16.2 556.32,-9.21"/>
</g>
<!-- Node20&#45;&gt;Node5 -->
<g id="edge42" class="edge">
<title>Node20&#45;&gt;Node5</title>
<path fill="none" stroke="midnightblue" d="M868.24,-280.36C888.94,-263.38 931,-223.42 931,-179 931,-179 931,-179 931,-121 931,-43.78 657.4,-19.36 556.12,-12.97"/>
<polygon fill="midnightblue" stroke="midnightblue" points="556.23,-9.47 546.03,-12.36 555.8,-16.46 556.23,-9.47"/>
</g>
</g>
</svg>
        <g id="navigator" transform="translate(0 0)" fill="#404254">
                <rect fill="#f2f5e9" fill-opacity="0.5" stroke="#606060" stroke-width=".5" x="0" y="0" width="60" height="60"/>
                <use id="zoomplus" xlink:href="#zoomPlus" x="17" y="9" onmousedown="handleZoom(evt,'in')"/>
                <use id="zoomminus" xlink:href="#zoomMin" x="42" y="9" onmousedown="handleZoom(evt,'out')"/>
                <use id="reset" xlink:href="#resetDef" x="30" y="36" onmousedown="handleReset()"/>
                <g id="arrowUp" xlink:href="#dirArrow" transform="translate(30 24)" onmousedown="handlePan(0,-1)">
                  <use xlink:href="#rim" fill="#404040">
                        <set attributeName="fill" to="#808080" begin="arrowUp.mouseover" end="arrowUp.mouseout"/>
                  </use>
                  <path fill="none" stroke="white" stroke-width="1.5" d="M0,-3.0v7 M-2.5,-0.5L0,-3.0L2.5,-0.5"/>
                </g>
                <g id="arrowRight" xlink:href="#dirArrow" transform="rotate(90) translate(36 -43)" onmousedown="handlePan(1,0)">
                  <use xlink:href="#rim" fill="#404040">
                        <set attributeName="fill" to="#808080" begin="arrowRight.mouseover" end="arrowRight.mouseout"/>
                  </use>
                  <path fill="none" stroke="white" stroke-width="1.5" d="M0,-3.0v7 M-2.5,-0.5L0,-3.0L2.5,-0.5"/>
                </g>
                <g id="arrowDown" xlink:href="#dirArrow" transform="rotate(180) translate(-30 -48)" onmousedown="handlePan(0,1)">
                  <use xlink:href="#rim" fill="#404040">
                        <set attributeName="fill" to="#808080" begin="arrowDown.mouseover" end="arrowDown.mouseout"/>
                  </use>
                  <path fill="none" stroke="white" stroke-width="1.5" d="M0,-3.0v7 M-2.5,-0.5L0,-3.0L2.5,-0.5"/>
                </g>
                <g id="arrowLeft" xlink:href="#dirArrow" transform="rotate(270) translate(-36 17)" onmousedown="handlePan(-1,0)">
                  <use xlink:href="#rim" fill="#404040">
                        <set attributeName="fill" to="#808080" begin="arrowLeft.mouseover" end="arrowLeft.mouseout"/>
                  </use>
                  <path fill="none" stroke="white" stroke-width="1.5" d="M0,-3.0v7 M-2.5,-0.5L0,-3.0L2.5,-0.5"/>
                </g>
        </g>
        <svg viewBox="0 0 15 15" width="100%" height="30px" preserveAspectRatio="xMaxYMin meet">
         <g id="arrow_out" transform="scale(0.3 0.3)">
          <a xlink:href="CommandList_8hpp__incl_org.svg" target="_base">
           <rect id="button" ry="5" rx="5" y="6" x="6" height="38" width="38"
                fill="#f2f5e9" fill-opacity="0.5" stroke="#606060" stroke-width="1.0"/>
           <path id="arrow"
             d="M 11.500037,31.436501 C 11.940474,20.09759 22.043105,11.32322 32.158766,21.979434 L 37.068811,17.246167 C 37.068811,17.246167 37.088388,32 37.088388,32 L 22.160133,31.978069 C 22.160133,31.978069 26.997745,27.140456 26.997745,27.140456 C 18.528582,18.264221 13.291696,25.230495 11.500037,31.436501 z"
             style="fill:#404040;"/>
          </a>
         </g>
        </svg>
</svg>
