<?xml version="1.0" encoding="UTF-8" standalone="no"?>
<!DOCTYPE svg PUBLIC "-//W3C//DTD SVG 1.1//EN"
 "http://www.w3.org/Graphics/SVG/1.1/DTD/svg11.dtd">
<!-- Generated by graphviz version 2.44.0 (0)
 -->
<!-- Title: TravellersApp/src/parser/CSV.cpp Pages: 1 -->
<svg width="1088pt" height="543pt"
 viewBox="0.00 0.00 1088.00 543.00" xmlns="http://www.w3.org/2000/svg" xmlns:xlink="http://www.w3.org/1999/xlink">
<g id="graph0" class="graph" transform="scale(1 1) rotate(0) translate(4 539)">
<title>TravellersApp/src/parser/CSV.cpp</title>
<polygon fill="white" stroke="transparent" points="-4,4 -4,-539 1084,-539 1084,4 -4,4"/>
<!-- Node1 -->
<g id="node1" class="node">
<title>Node1</title>
<g id="a_node1"><a xlink:title=" ">
<polygon fill="#bfbfbf" stroke="black" points="678.5,-504.5 678.5,-534.5 801.5,-534.5 801.5,-504.5 678.5,-504.5"/>
<text text-anchor="start" x="686.5" y="-522.5" font-family="Helvetica,sans-Serif" font-size="10.00">TravellersApp/src/parser</text>
<text text-anchor="middle" x="740" y="-511.5" font-family="Helvetica,sans-Serif" font-size="10.00">/CSV.cpp</text>
</a>
</g>
</g>
<!-- Node2 -->
<g id="node2" class="node">
<title>Node2</title>
<g id="a_node2"><a xlink:href="CSV_8hpp.html" target="_top" xlink:title=" ">
<polygon fill="white" stroke="black" points="712.5,-448.5 712.5,-467.5 767.5,-467.5 767.5,-448.5 712.5,-448.5"/>
<text text-anchor="middle" x="740" y="-455.5" font-family="Helvetica,sans-Serif" font-size="10.00">CSV.hpp</text>
</a>
</g>
</g>
<!-- Node1&#45;&gt;Node2 -->
<g id="edge1" class="edge">
<title>Node1&#45;&gt;Node2</title>
<path fill="none" stroke="midnightblue" d="M740,-504.4C740,-496.47 740,-486.46 740,-477.86"/>
<polygon fill="midnightblue" stroke="midnightblue" points="743.5,-477.66 740,-467.66 736.5,-477.66 743.5,-477.66"/>
</g>
<!-- Node3 -->
<g id="node3" class="node">
<title>Node3</title>
<g id="a_node3"><a xlink:href="SimpleString_8hpp.html" target="_top" xlink:title=" ">
<polygon fill="white" stroke="black" points="876,-112.5 876,-131.5 974,-131.5 974,-112.5 876,-112.5"/>
<text text-anchor="middle" x="925" y="-119.5" font-family="Helvetica,sans-Serif" font-size="10.00">../SimpleString.hpp</text>
</a>
</g>
</g>
<!-- Node2&#45;&gt;Node3 -->
<g id="edge2" class="edge">
<title>Node2&#45;&gt;Node3</title>
<path fill="none" stroke="midnightblue" d="M767.54,-457.68C834.81,-457.78 1002,-447.88 1002,-347 1002,-347 1002,-347 1002,-233 1002,-192.93 967.29,-157.08 944.47,-137.84"/>
<polygon fill="midnightblue" stroke="midnightblue" points="946.67,-135.11 936.69,-131.53 942.26,-140.55 946.67,-135.11"/>
</g>
<!-- Node7 -->
<g id="node7" class="node">
<title>Node7</title>
<g id="a_node7"><a xlink:href="ArrayList_8hpp.html" target="_top" xlink:title=" ">
<polygon fill="white" stroke="black" points="578.5,-224.5 578.5,-243.5 703.5,-243.5 703.5,-224.5 578.5,-224.5"/>
<text text-anchor="middle" x="641" y="-231.5" font-family="Helvetica,sans-Serif" font-size="10.00">../collection/ArrayList.hpp</text>
</a>
</g>
</g>
<!-- Node2&#45;&gt;Node7 -->
<g id="edge6" class="edge">
<title>Node2&#45;&gt;Node7</title>
<path fill="none" stroke="midnightblue" d="M736.33,-448.5C725.28,-422.93 691.27,-344.53 662,-280 657.9,-270.96 653.24,-260.94 649.35,-252.66"/>
<polygon fill="midnightblue" stroke="midnightblue" points="652.51,-251.16 645.08,-243.6 646.18,-254.14 652.51,-251.16"/>
</g>
<!-- Node15 -->
<g id="node15" class="node">
<title>Node15</title>
<g id="a_node15"><a xlink:href="Tuple_8hpp.html" target="_top" xlink:title=" ">
<polygon fill="white" stroke="black" points="259.5,-168.5 259.5,-187.5 318.5,-187.5 318.5,-168.5 259.5,-168.5"/>
<text text-anchor="middle" x="289" y="-175.5" font-family="Helvetica,sans-Serif" font-size="10.00">Tuple.hpp</text>
</a>
</g>
</g>
<!-- Node2&#45;&gt;Node15 -->
<g id="edge31" class="edge">
<title>Node2&#45;&gt;Node15</title>
<path fill="none" stroke="midnightblue" d="M712.43,-454.81C596.18,-445.21 152,-404.77 152,-347 152,-347 152,-347 152,-289 152,-238 210.45,-206.69 250.99,-191.11"/>
<polygon fill="midnightblue" stroke="midnightblue" points="252.43,-194.31 260.61,-187.58 250.02,-187.74 252.43,-194.31"/>
</g>
<!-- Node16 -->
<g id="node16" class="node">
<title>Node16</title>
<g id="a_node16"><a xlink:href="ttype_8hpp.html" target="_top" xlink:title=" ">
<polygon fill="white" stroke="black" points="142.5,-112.5 142.5,-131.5 205.5,-131.5 205.5,-112.5 142.5,-112.5"/>
<text text-anchor="middle" x="174" y="-119.5" font-family="Helvetica,sans-Serif" font-size="10.00">../ttype.hpp</text>
</a>
</g>
</g>
<!-- Node2&#45;&gt;Node16 -->
<g id="edge32" class="edge">
<title>Node2&#45;&gt;Node16</title>
<path fill="none" stroke="midnightblue" d="M712.34,-455.87C578,-449.99 0,-420.47 0,-347 0,-347 0,-347 0,-233 0,-170.51 81.17,-142.07 132.63,-130.32"/>
<polygon fill="midnightblue" stroke="midnightblue" points="133.46,-133.72 142.49,-128.18 131.98,-126.88 133.46,-133.72"/>
</g>
<!-- Node19 -->
<g id="node19" class="node">
<title>Node19</title>
<g id="a_node19"><a xlink:href="Scanner_8hpp.html" target="_top" xlink:title=" ">
<polygon fill="white" stroke="black" points="520.5,-392.5 520.5,-411.5 591.5,-411.5 591.5,-392.5 520.5,-392.5"/>
<text text-anchor="middle" x="556" y="-399.5" font-family="Helvetica,sans-Serif" font-size="10.00">Scanner.hpp</text>
</a>
</g>
</g>
<!-- Node2&#45;&gt;Node19 -->
<g id="edge33" class="edge">
<title>Node2&#45;&gt;Node19</title>
<path fill="none" stroke="midnightblue" d="M712.45,-448.92C681.34,-439.78 630.46,-424.85 595.21,-414.51"/>
<polygon fill="midnightblue" stroke="midnightblue" points="595.84,-411.04 585.26,-411.59 593.87,-417.76 595.84,-411.04"/>
</g>
<!-- Node25 -->
<g id="node25" class="node">
<title>Node25</title>
<g id="a_node25"><a xlink:title=" ">
<polygon fill="white" stroke="#bfbfbf" points="1030,-392.5 1030,-411.5 1080,-411.5 1080,-392.5 1030,-392.5"/>
<text text-anchor="middle" x="1055" y="-399.5" font-family="Helvetica,sans-Serif" font-size="10.00">fstream</text>
</a>
</g>
</g>
<!-- Node2&#45;&gt;Node25 -->
<g id="edge57" class="edge">
<title>Node2&#45;&gt;Node25</title>
<path fill="none" stroke="midnightblue" d="M767.53,-453.12C817.3,-445.97 925.49,-429.8 1016,-412 1017.27,-411.75 1018.55,-411.49 1019.85,-411.22"/>
<polygon fill="midnightblue" stroke="midnightblue" points="1020.84,-414.59 1029.88,-409.05 1019.36,-407.75 1020.84,-414.59"/>
</g>
<!-- Node4 -->
<g id="node4" class="node">
<title>Node4</title>
<g id="a_node4"><a xlink:href="debug_8hpp.html" target="_top" xlink:title=" ">
<polygon fill="white" stroke="black" points="530.5,-56.5 530.5,-75.5 591.5,-75.5 591.5,-56.5 530.5,-56.5"/>
<text text-anchor="middle" x="561" y="-63.5" font-family="Helvetica,sans-Serif" font-size="10.00">debug.hpp</text>
</a>
</g>
</g>
<!-- Node3&#45;&gt;Node4 -->
<g id="edge3" class="edge">
<title>Node3&#45;&gt;Node4</title>
<path fill="none" stroke="midnightblue" d="M875.95,-114.97C813.21,-107.05 701.25,-92.23 606,-76 604.72,-75.78 603.42,-75.55 602.11,-75.32"/>
<polygon fill="midnightblue" stroke="midnightblue" points="602.41,-71.82 591.94,-73.43 601.13,-78.7 602.41,-71.82"/>
</g>
<!-- Node5 -->
<g id="node5" class="node">
<title>Node5</title>
<g id="a_node5"><a xlink:title=" ">
<polygon fill="white" stroke="#bfbfbf" points="941,-0.5 941,-19.5 987,-19.5 987,-0.5 941,-0.5"/>
<text text-anchor="middle" x="964" y="-7.5" font-family="Helvetica,sans-Serif" font-size="10.00">cstring</text>
</a>
</g>
</g>
<!-- Node3&#45;&gt;Node5 -->
<g id="edge4" class="edge">
<title>Node3&#45;&gt;Node5</title>
<path fill="none" stroke="midnightblue" d="M928.9,-112.48C932.94,-103.5 939.3,-88.91 944,-76 949.68,-60.4 955.15,-42.32 958.93,-29.2"/>
<polygon fill="midnightblue" stroke="midnightblue" points="962.32,-30.08 961.68,-19.5 955.59,-28.17 962.32,-30.08"/>
</g>
<!-- Node6 -->
<g id="node6" class="node">
<title>Node6</title>
<g id="a_node6"><a xlink:title=" ">
<polygon fill="white" stroke="#bfbfbf" points="437,-0.5 437,-19.5 491,-19.5 491,-0.5 437,-0.5"/>
<text text-anchor="middle" x="464" y="-7.5" font-family="Helvetica,sans-Serif" font-size="10.00">iostream</text>
</a>
</g>
</g>
<!-- Node3&#45;&gt;Node6 -->
<g id="edge5" class="edge">
<title>Node3&#45;&gt;Node6</title>
<path fill="none" stroke="midnightblue" d="M875.72,-115.16C805.93,-106.57 682.01,-90.01 639,-76 620.48,-69.97 617.97,-63.53 600,-56 567.11,-42.22 528.4,-29.76 500.7,-21.46"/>
<polygon fill="midnightblue" stroke="midnightblue" points="501.61,-18.08 491.03,-18.6 499.62,-24.79 501.61,-18.08"/>
</g>
<!-- Node7&#45;&gt;Node4 -->
<g id="edge14" class="edge">
<title>Node7&#45;&gt;Node4</title>
<path fill="none" stroke="midnightblue" d="M640.25,-224.47C638.11,-203.81 630.6,-149.99 608,-112 601.12,-100.44 590.47,-89.89 581.04,-81.92"/>
<polygon fill="midnightblue" stroke="midnightblue" points="583.19,-79.16 573.2,-75.62 578.8,-84.61 583.19,-79.16"/>
</g>
<!-- Node7&#45;&gt;Node6 -->
<g id="edge8" class="edge">
<title>Node7&#45;&gt;Node6</title>
<path fill="none" stroke="midnightblue" d="M625.47,-224.42C599,-209.08 544.94,-174.57 513,-132 489.05,-100.09 474.87,-54.85 468.35,-29.7"/>
<polygon fill="midnightblue" stroke="midnightblue" points="471.67,-28.55 465.88,-19.68 464.87,-30.23 471.67,-28.55"/>
</g>
<!-- Node8 -->
<g id="node8" class="node">
<title>Node8</title>
<g id="a_node8"><a xlink:title=" ">
<polygon fill="white" stroke="#bfbfbf" points="406.5,-112.5 406.5,-131.5 465.5,-131.5 465.5,-112.5 406.5,-112.5"/>
<text text-anchor="middle" x="436" y="-119.5" font-family="Helvetica,sans-Serif" font-size="10.00">functional</text>
</a>
</g>
</g>
<!-- Node7&#45;&gt;Node8 -->
<g id="edge7" class="edge">
<title>Node7&#45;&gt;Node8</title>
<path fill="none" stroke="midnightblue" d="M578.45,-231.76C540.04,-227.84 492.2,-216.84 460,-188 446.72,-176.1 440.77,-156.19 438.12,-141.54"/>
<polygon fill="midnightblue" stroke="midnightblue" points="441.57,-140.96 436.66,-131.57 434.64,-141.97 441.57,-140.96"/>
</g>
<!-- Node9 -->
<g id="node9" class="node">
<title>Node9</title>
<g id="a_node9"><a xlink:title=" ">
<polygon fill="white" stroke="#bfbfbf" points="715.5,-112.5 715.5,-131.5 766.5,-131.5 766.5,-112.5 715.5,-112.5"/>
<text text-anchor="middle" x="741" y="-119.5" font-family="Helvetica,sans-Serif" font-size="10.00">memory</text>
</a>
</g>
</g>
<!-- Node7&#45;&gt;Node9 -->
<g id="edge9" class="edge">
<title>Node7&#45;&gt;Node9</title>
<path fill="none" stroke="midnightblue" d="M663.79,-224.44C680.58,-217.08 702.86,-204.96 717,-188 728.06,-174.73 734.27,-155.89 737.58,-141.91"/>
<polygon fill="midnightblue" stroke="midnightblue" points="741.05,-142.44 739.66,-131.94 734.19,-141.01 741.05,-142.44"/>
</g>
<!-- Node10 -->
<g id="node10" class="node">
<title>Node10</title>
<g id="a_node10"><a xlink:href="InvalidArgumentException_8hpp.html" target="_top" xlink:title=" ">
<polygon fill="white" stroke="black" points="780.5,-56.5 780.5,-75.5 935.5,-75.5 935.5,-56.5 780.5,-56.5"/>
<text text-anchor="middle" x="858" y="-63.5" font-family="Helvetica,sans-Serif" font-size="10.00">../InvalidArgumentException.hpp</text>
</a>
</g>
</g>
<!-- Node7&#45;&gt;Node10 -->
<g id="edge10" class="edge">
<title>Node7&#45;&gt;Node10</title>
<path fill="none" stroke="midnightblue" d="M665.12,-224.4C685.32,-216.58 714.4,-203.86 737,-188 781.38,-156.86 823.97,-108.63 844.77,-83.5"/>
<polygon fill="midnightblue" stroke="midnightblue" points="847.58,-85.6 851.19,-75.64 842.16,-81.17 847.58,-85.6"/>
</g>
<!-- Node12 -->
<g id="node12" class="node">
<title>Node12</title>
<g id="a_node12"><a xlink:href="Nullable_8hpp.html" target="_top" xlink:title=" ">
<polygon fill="white" stroke="black" points="522.5,-112.5 522.5,-131.5 599.5,-131.5 599.5,-112.5 522.5,-112.5"/>
<text text-anchor="middle" x="561" y="-119.5" font-family="Helvetica,sans-Serif" font-size="10.00">../Nullable.hpp</text>
</a>
</g>
</g>
<!-- Node7&#45;&gt;Node12 -->
<g id="edge15" class="edge">
<title>Node7&#45;&gt;Node12</title>
<path fill="none" stroke="midnightblue" d="M634.72,-224.37C621.52,-206.22 590.67,-163.8 573.36,-139.99"/>
<polygon fill="midnightblue" stroke="midnightblue" points="575.96,-137.62 567.25,-131.59 570.3,-141.74 575.96,-137.62"/>
</g>
<!-- Node14 -->
<g id="node14" class="node">
<title>Node14</title>
<g id="a_node14"><a xlink:href="IList_8hpp.html" target="_top" xlink:title=" ">
<polygon fill="white" stroke="black" points="654,-168.5 654,-187.5 708,-187.5 708,-168.5 654,-168.5"/>
<text text-anchor="middle" x="681" y="-175.5" font-family="Helvetica,sans-Serif" font-size="10.00">IList.hpp</text>
</a>
</g>
</g>
<!-- Node7&#45;&gt;Node14 -->
<g id="edge22" class="edge">
<title>Node7&#45;&gt;Node14</title>
<path fill="none" stroke="midnightblue" d="M647.61,-224.08C653.26,-216.46 661.54,-205.26 668.45,-195.94"/>
<polygon fill="midnightblue" stroke="midnightblue" points="671.38,-197.87 674.52,-187.75 665.75,-193.7 671.38,-197.87"/>
</g>
<!-- Node7&#45;&gt;Node15 -->
<g id="edge25" class="edge">
<title>Node7&#45;&gt;Node15</title>
<path fill="none" stroke="midnightblue" d="M585.22,-224.44C513.61,-213.46 391.12,-194.67 328.45,-185.05"/>
<polygon fill="midnightblue" stroke="midnightblue" points="328.98,-181.59 318.56,-183.54 327.92,-188.51 328.98,-181.59"/>
</g>
<!-- Node10&#45;&gt;Node5 -->
<g id="edge11" class="edge">
<title>Node10&#45;&gt;Node5</title>
<path fill="none" stroke="midnightblue" d="M875.03,-56.32C892.03,-47.66 918.38,-34.24 937.99,-24.25"/>
<polygon fill="midnightblue" stroke="midnightblue" points="939.69,-27.31 947.01,-19.65 936.51,-21.08 939.69,-27.31"/>
</g>
<!-- Node10&#45;&gt;Node6 -->
<g id="edge13" class="edge">
<title>Node10&#45;&gt;Node6</title>
<path fill="none" stroke="midnightblue" d="M795.57,-56.44C712.77,-45.1 569.22,-25.42 501.46,-16.13"/>
<polygon fill="midnightblue" stroke="midnightblue" points="501.64,-12.63 491.26,-14.74 500.69,-19.56 501.64,-12.63"/>
</g>
<!-- Node11 -->
<g id="node11" class="node">
<title>Node11</title>
<g id="a_node11"><a xlink:title=" ">
<polygon fill="white" stroke="#bfbfbf" points="752,-0.5 752,-19.5 810,-19.5 810,-0.5 752,-0.5"/>
<text text-anchor="middle" x="781" y="-7.5" font-family="Helvetica,sans-Serif" font-size="10.00">exception</text>
</a>
</g>
</g>
<!-- Node10&#45;&gt;Node11 -->
<g id="edge12" class="edge">
<title>Node10&#45;&gt;Node11</title>
<path fill="none" stroke="midnightblue" d="M845.63,-56.32C833.84,-48.06 815.87,-35.45 801.86,-25.63"/>
<polygon fill="midnightblue" stroke="midnightblue" points="803.54,-22.53 793.34,-19.65 799.52,-28.26 803.54,-22.53"/>
</g>
<!-- Node12&#45;&gt;Node4 -->
<g id="edge20" class="edge">
<title>Node12&#45;&gt;Node4</title>
<path fill="none" stroke="midnightblue" d="M561,-112.08C561,-105.01 561,-94.86 561,-85.99"/>
<polygon fill="midnightblue" stroke="midnightblue" points="564.5,-85.75 561,-75.75 557.5,-85.75 564.5,-85.75"/>
</g>
<!-- Node12&#45;&gt;Node6 -->
<g id="edge21" class="edge">
<title>Node12&#45;&gt;Node6</title>
<path fill="none" stroke="midnightblue" d="M553.31,-112.39C545.25,-103.34 532.21,-88.69 521,-76 506.5,-59.57 489.99,-40.74 478.49,-27.59"/>
<polygon fill="midnightblue" stroke="midnightblue" points="480.94,-25.07 471.73,-19.85 475.67,-29.68 480.94,-25.07"/>
</g>
<!-- Node13 -->
<g id="node13" class="node">
<title>Node13</title>
<g id="a_node13"><a xlink:href="NoValueException_8hpp.html" target="_top" xlink:title=" ">
<polygon fill="white" stroke="black" points="648,-56.5 648,-75.5 762,-75.5 762,-56.5 648,-56.5"/>
<text text-anchor="middle" x="705" y="-63.5" font-family="Helvetica,sans-Serif" font-size="10.00">NoValueException.hpp</text>
</a>
</g>
</g>
<!-- Node12&#45;&gt;Node13 -->
<g id="edge16" class="edge">
<title>Node12&#45;&gt;Node13</title>
<path fill="none" stroke="midnightblue" d="M583.82,-112.44C607.83,-103.44 645.83,-89.19 672.87,-79.05"/>
<polygon fill="midnightblue" stroke="midnightblue" points="674.16,-82.3 682.29,-75.52 671.7,-75.75 674.16,-82.3"/>
</g>
<!-- Node13&#45;&gt;Node5 -->
<g id="edge17" class="edge">
<title>Node13&#45;&gt;Node5</title>
<path fill="none" stroke="midnightblue" d="M746.04,-56.44C797.23,-45.77 883.73,-27.73 930.9,-17.9"/>
<polygon fill="midnightblue" stroke="midnightblue" points="931.82,-21.28 940.9,-15.82 930.4,-14.43 931.82,-21.28"/>
</g>
<!-- Node13&#45;&gt;Node6 -->
<g id="edge19" class="edge">
<title>Node13&#45;&gt;Node6</title>
<path fill="none" stroke="midnightblue" d="M666.81,-56.44C621.38,-46.26 546.03,-29.38 501.08,-19.31"/>
<polygon fill="midnightblue" stroke="midnightblue" points="501.69,-15.86 491.16,-17.09 500.16,-22.69 501.69,-15.86"/>
</g>
<!-- Node13&#45;&gt;Node11 -->
<g id="edge18" class="edge">
<title>Node13&#45;&gt;Node11</title>
<path fill="none" stroke="midnightblue" d="M717.21,-56.32C728.78,-48.11 746.38,-35.6 760.16,-25.81"/>
<polygon fill="midnightblue" stroke="midnightblue" points="762.44,-28.48 768.57,-19.83 758.39,-22.77 762.44,-28.48"/>
</g>
<!-- Node14&#45;&gt;Node9 -->
<g id="edge24" class="edge">
<title>Node14&#45;&gt;Node9</title>
<path fill="none" stroke="midnightblue" d="M690.64,-168.32C699.51,-160.34 712.87,-148.31 723.61,-138.65"/>
<polygon fill="midnightblue" stroke="midnightblue" points="726.09,-141.13 731.18,-131.83 721.41,-135.92 726.09,-141.13"/>
</g>
<!-- Node14&#45;&gt;Node12 -->
<g id="edge23" class="edge">
<title>Node14&#45;&gt;Node12</title>
<path fill="none" stroke="midnightblue" d="M661.99,-168.44C642.41,-159.64 611.69,-145.81 589.27,-135.72"/>
<polygon fill="midnightblue" stroke="midnightblue" points="590.48,-132.43 579.93,-131.52 587.61,-138.81 590.48,-132.43"/>
</g>
<!-- Node15&#45;&gt;Node6 -->
<g id="edge29" class="edge">
<title>Node15&#45;&gt;Node6</title>
<path fill="none" stroke="midnightblue" d="M278.09,-168.41C263.45,-155.8 240.62,-131.65 253,-112 291.3,-51.21 377.43,-26.2 427,-16.56"/>
<polygon fill="midnightblue" stroke="midnightblue" points="427.78,-19.97 436.99,-14.72 426.52,-13.09 427.78,-19.97"/>
</g>
<!-- Node15&#45;&gt;Node8 -->
<g id="edge28" class="edge">
<title>Node15&#45;&gt;Node8</title>
<path fill="none" stroke="midnightblue" d="M312.29,-168.44C336.81,-159.44 375.6,-145.19 403.2,-135.05"/>
<polygon fill="midnightblue" stroke="midnightblue" points="404.64,-138.25 412.82,-131.52 402.22,-131.68 404.64,-138.25"/>
</g>
<!-- Node15&#45;&gt;Node16 -->
<g id="edge26" class="edge">
<title>Node15&#45;&gt;Node16</title>
<path fill="none" stroke="midnightblue" d="M270.78,-168.44C252.1,-159.68 222.84,-145.94 201.38,-135.86"/>
<polygon fill="midnightblue" stroke="midnightblue" points="202.68,-132.6 192.14,-131.52 199.7,-138.93 202.68,-132.6"/>
</g>
<!-- Node17 -->
<g id="node17" class="node">
<title>Node17</title>
<g id="a_node17"><a xlink:title=" ">
<polygon fill="white" stroke="#bfbfbf" points="262.5,-112.5 262.5,-131.5 307.5,-131.5 307.5,-112.5 262.5,-112.5"/>
<text text-anchor="middle" x="285" y="-119.5" font-family="Helvetica,sans-Serif" font-size="10.00">cstdlib</text>
</a>
</g>
</g>
<!-- Node15&#45;&gt;Node17 -->
<g id="edge27" class="edge">
<title>Node15&#45;&gt;Node17</title>
<path fill="none" stroke="midnightblue" d="M288.34,-168.08C287.82,-161.01 287.06,-150.86 286.41,-141.99"/>
<polygon fill="midnightblue" stroke="midnightblue" points="289.88,-141.47 285.65,-131.75 282.9,-141.98 289.88,-141.47"/>
</g>
<!-- Node18 -->
<g id="node18" class="node">
<title>Node18</title>
<g id="a_node18"><a xlink:title=" ">
<polygon fill="white" stroke="#bfbfbf" points="326,-112.5 326,-131.5 388,-131.5 388,-112.5 326,-112.5"/>
<text text-anchor="middle" x="357" y="-119.5" font-family="Helvetica,sans-Serif" font-size="10.00">type_traits</text>
</a>
</g>
</g>
<!-- Node15&#45;&gt;Node18 -->
<g id="edge30" class="edge">
<title>Node15&#45;&gt;Node18</title>
<path fill="none" stroke="midnightblue" d="M299.93,-168.32C310.17,-160.18 325.72,-147.84 338,-138.09"/>
<polygon fill="midnightblue" stroke="midnightblue" points="340.22,-140.79 345.88,-131.83 335.87,-135.31 340.22,-140.79"/>
</g>
<!-- Node19&#45;&gt;Node5 -->
<g id="edge55" class="edge">
<title>Node19&#45;&gt;Node5</title>
<path fill="none" stroke="midnightblue" d="M591.59,-396.63C703.36,-381.94 1040,-329.83 1040,-235 1040,-235 1040,-235 1040,-121 1040,-81.28 1006.04,-45.5 983.52,-26.15"/>
<polygon fill="midnightblue" stroke="midnightblue" points="985.48,-23.24 975.54,-19.57 981.02,-28.63 985.48,-23.24"/>
</g>
<!-- Node19&#45;&gt;Node6 -->
<g id="edge56" class="edge">
<title>Node19&#45;&gt;Node6</title>
<path fill="none" stroke="midnightblue" d="M520.4,-401.93C403.36,-402.97 38,-389.36 38,-179 38,-179 38,-179 38,-121 38,-80.77 64.99,-73.94 101,-56 157.57,-27.82 345.65,-16.25 426.51,-12.51"/>
<polygon fill="midnightblue" stroke="midnightblue" points="426.9,-15.99 436.74,-12.05 426.59,-9 426.9,-15.99"/>
</g>
<!-- Node19&#45;&gt;Node7 -->
<g id="edge34" class="edge">
<title>Node19&#45;&gt;Node7</title>
<path fill="none" stroke="midnightblue" d="M581.36,-392.41C598.22,-385.34 619.32,-373.58 631,-356 651.63,-324.93 648.52,-279.02 644.63,-253.62"/>
<polygon fill="midnightblue" stroke="midnightblue" points="648.04,-252.77 642.87,-243.51 641.14,-253.97 648.04,-252.77"/>
</g>
<!-- Node20 -->
<g id="node20" class="node">
<title>Node20</title>
<g id="a_node20"><a xlink:href="CommandList_8hpp.html" target="_top" xlink:title=" ">
<polygon fill="white" stroke="black" points="464.5,-336.5 464.5,-355.5 559.5,-355.5 559.5,-336.5 464.5,-336.5"/>
<text text-anchor="middle" x="512" y="-343.5" font-family="Helvetica,sans-Serif" font-size="10.00">CommandList.hpp</text>
</a>
</g>
</g>
<!-- Node19&#45;&gt;Node20 -->
<g id="edge35" class="edge">
<title>Node19&#45;&gt;Node20</title>
<path fill="none" stroke="midnightblue" d="M548.73,-392.08C542.46,-384.38 533.21,-373.03 525.57,-363.65"/>
<polygon fill="midnightblue" stroke="midnightblue" points="528.16,-361.29 519.13,-355.75 522.73,-365.71 528.16,-361.29"/>
</g>
<!-- Node22 -->
<g id="node22" class="node">
<title>Node22</title>
<g id="a_node22"><a xlink:href="ScannerContext_8hpp.html" target="_top" xlink:title=" ">
<polygon fill="white" stroke="black" points="262,-280.5 262,-299.5 366,-299.5 366,-280.5 262,-280.5"/>
<text text-anchor="middle" x="314" y="-287.5" font-family="Helvetica,sans-Serif" font-size="10.00">ScannerContext.hpp</text>
</a>
</g>
</g>
<!-- Node19&#45;&gt;Node22 -->
<g id="edge52" class="edge">
<title>Node19&#45;&gt;Node22</title>
<path fill="none" stroke="midnightblue" d="M529.62,-392.36C504.82,-383.96 466.86,-370.4 435,-356 400.09,-340.22 361.33,-318.64 337.32,-304.76"/>
<polygon fill="midnightblue" stroke="midnightblue" points="338.98,-301.68 328.57,-299.67 335.45,-307.73 338.98,-301.68"/>
</g>
<!-- Node23 -->
<g id="node23" class="node">
<title>Node23</title>
<g id="a_node23"><a xlink:href="Token_8hpp.html" target="_top" xlink:title=" ">
<polygon fill="white" stroke="black" points="384,-280.5 384,-299.5 446,-299.5 446,-280.5 384,-280.5"/>
<text text-anchor="middle" x="415" y="-287.5" font-family="Helvetica,sans-Serif" font-size="10.00">Token.hpp</text>
</a>
</g>
</g>
<!-- Node19&#45;&gt;Node23 -->
<g id="edge53" class="edge">
<title>Node19&#45;&gt;Node23</title>
<path fill="none" stroke="midnightblue" d="M524.57,-392.41C503.13,-385.33 475.08,-373.58 455,-356 440.24,-343.08 429.17,-323.36 422.46,-309.03"/>
<polygon fill="midnightblue" stroke="midnightblue" points="425.6,-307.46 418.36,-299.72 419.19,-310.28 425.6,-307.46"/>
</g>
<!-- Node24 -->
<g id="node24" class="node">
<title>Node24</title>
<g id="a_node24"><a xlink:title=" ">
<polygon fill="white" stroke="#bfbfbf" points="577.5,-336.5 577.5,-355.5 622.5,-355.5 622.5,-336.5 577.5,-336.5"/>
<text text-anchor="middle" x="600" y="-343.5" font-family="Helvetica,sans-Serif" font-size="10.00">cctype</text>
</a>
</g>
</g>
<!-- Node19&#45;&gt;Node24 -->
<g id="edge54" class="edge">
<title>Node19&#45;&gt;Node24</title>
<path fill="none" stroke="midnightblue" d="M563.27,-392.08C569.54,-384.38 578.79,-373.03 586.43,-363.65"/>
<polygon fill="midnightblue" stroke="midnightblue" points="589.27,-365.71 592.87,-355.75 583.84,-361.29 589.27,-365.71"/>
</g>
<!-- Node20&#45;&gt;Node3 -->
<g id="edge36" class="edge">
<title>Node20&#45;&gt;Node3</title>
<path fill="none" stroke="midnightblue" d="M554.57,-336.43C599.78,-326.96 667.97,-311.53 692,-300 783.16,-256.26 873.42,-173.54 909.07,-138.89"/>
<polygon fill="midnightblue" stroke="midnightblue" points="911.88,-141.04 916.56,-131.53 906.98,-136.04 911.88,-141.04"/>
</g>
<!-- Node20&#45;&gt;Node9 -->
<g id="edge51" class="edge">
<title>Node20&#45;&gt;Node9</title>
<path fill="none" stroke="midnightblue" d="M557.81,-336.39C608.39,-324.48 688.66,-297.99 734,-244 756.53,-217.16 760.26,-202.65 755,-168 753.63,-159 750.81,-149.33 748.05,-141.26"/>
<polygon fill="midnightblue" stroke="midnightblue" points="751.31,-139.98 744.6,-131.78 744.73,-142.37 751.31,-139.98"/>
</g>
<!-- Node20&#45;&gt;Node12 -->
<g id="edge37" class="edge">
<title>Node20&#45;&gt;Node12</title>
<path fill="none" stroke="midnightblue" d="M506.6,-336.28C499.6,-323.91 488.75,-300.49 493,-280 504.11,-226.4 534.46,-168.62 550.59,-140.45"/>
<polygon fill="midnightblue" stroke="midnightblue" points="553.64,-142.17 555.65,-131.77 547.59,-138.65 553.64,-142.17"/>
</g>
<!-- Node21 -->
<g id="node21" class="node">
<title>Node21</title>
<g id="a_node21"><a xlink:href="HashMap_8hpp.html" target="_top" xlink:title=" ">
<polygon fill="white" stroke="black" points="502,-280.5 502,-299.5 630,-299.5 630,-280.5 502,-280.5"/>
<text text-anchor="middle" x="566" y="-287.5" font-family="Helvetica,sans-Serif" font-size="10.00">../collection/HashMap.hpp</text>
</a>
</g>
</g>
<!-- Node20&#45;&gt;Node21 -->
<g id="edge38" class="edge">
<title>Node20&#45;&gt;Node21</title>
<path fill="none" stroke="midnightblue" d="M520.92,-336.08C528.78,-328.22 540.43,-316.57 549.92,-307.08"/>
<polygon fill="midnightblue" stroke="midnightblue" points="552.65,-309.3 557.25,-299.75 547.7,-304.35 552.65,-309.3"/>
</g>
<!-- Node20&#45;&gt;Node22 -->
<g id="edge47" class="edge">
<title>Node20&#45;&gt;Node22</title>
<path fill="none" stroke="midnightblue" d="M480.63,-336.44C446.74,-327.2 392.6,-312.44 355.28,-302.26"/>
<polygon fill="midnightblue" stroke="midnightblue" points="355.8,-298.77 345.23,-299.52 353.95,-305.52 355.8,-298.77"/>
</g>
<!-- Node20&#45;&gt;Node23 -->
<g id="edge49" class="edge">
<title>Node20&#45;&gt;Node23</title>
<path fill="none" stroke="midnightblue" d="M496.42,-336.32C481,-327.74 457.19,-314.49 439.29,-304.52"/>
<polygon fill="midnightblue" stroke="midnightblue" points="440.99,-301.46 430.55,-299.65 437.58,-307.58 440.99,-301.46"/>
</g>
<!-- Node21&#45;&gt;Node4 -->
<g id="edge43" class="edge">
<title>Node21&#45;&gt;Node4</title>
<path fill="none" stroke="midnightblue" d="M630.17,-285.75C664.69,-280.87 705.82,-269.57 734,-244 779.49,-202.72 813.92,-159.53 775,-112 725.7,-51.79 679.08,-90.61 601.63,-77"/>
<polygon fill="midnightblue" stroke="midnightblue" points="602.01,-73.5 591.52,-74.95 600.63,-80.36 602.01,-73.5"/>
</g>
<!-- Node21&#45;&gt;Node5 -->
<g id="edge40" class="edge">
<title>Node21&#45;&gt;Node5</title>
<path fill="none" stroke="midnightblue" d="M630.23,-287.36C727.47,-280.9 908.58,-252.42 983,-132 1002.95,-99.73 985.86,-53.67 973.67,-28.71"/>
<polygon fill="midnightblue" stroke="midnightblue" points="976.72,-26.98 969.02,-19.69 970.49,-30.18 976.72,-26.98"/>
</g>
<!-- Node21&#45;&gt;Node7 -->
<g id="edge44" class="edge">
<title>Node21&#45;&gt;Node7</title>
<path fill="none" stroke="midnightblue" d="M578.05,-280.32C589.46,-272.11 606.83,-259.6 620.43,-249.81"/>
<polygon fill="midnightblue" stroke="midnightblue" points="622.66,-252.52 628.73,-243.83 618.57,-246.84 622.66,-252.52"/>
</g>
<!-- Node21&#45;&gt;Node9 -->
<g id="edge41" class="edge">
<title>Node21&#45;&gt;Node9</title>
<path fill="none" stroke="midnightblue" d="M630.04,-281.33C657.94,-275.17 689.37,-264.05 712,-244 741.15,-218.18 743.63,-168.73 742.54,-141.73"/>
<polygon fill="midnightblue" stroke="midnightblue" points="746.03,-141.44 741.93,-131.67 739.04,-141.86 746.03,-141.44"/>
</g>
<!-- Node21&#45;&gt;Node12 -->
<g id="edge46" class="edge">
<title>Node21&#45;&gt;Node12</title>
<path fill="none" stroke="midnightblue" d="M565.73,-280.08C564.94,-253.95 562.63,-177.21 561.56,-141.58"/>
<polygon fill="midnightblue" stroke="midnightblue" points="565.06,-141.46 561.26,-131.57 558.06,-141.67 565.06,-141.46"/>
</g>
<!-- Node21&#45;&gt;Node15 -->
<g id="edge45" class="edge">
<title>Node21&#45;&gt;Node15</title>
<path fill="none" stroke="midnightblue" d="M501.84,-281.53C444.26,-273.89 364.79,-260.79 338,-244 319.9,-232.66 306.1,-212.06 297.82,-197.08"/>
<polygon fill="midnightblue" stroke="midnightblue" points="300.71,-195.05 292.99,-187.79 294.5,-198.28 300.71,-195.05"/>
</g>
<!-- Node21&#45;&gt;Node17 -->
<g id="edge39" class="edge">
<title>Node21&#45;&gt;Node17</title>
<path fill="none" stroke="midnightblue" d="M550.07,-280.38C533.67,-271.44 507.4,-256.99 485,-244 420.23,-206.43 344.93,-160.16 307.93,-137.25"/>
<polygon fill="midnightblue" stroke="midnightblue" points="309.3,-133.98 298.96,-131.69 305.61,-139.93 309.3,-133.98"/>
</g>
<!-- Node21&#45;&gt;Node18 -->
<g id="edge42" class="edge">
<title>Node21&#45;&gt;Node18</title>
<path fill="none" stroke="midnightblue" d="M555.06,-280.31C521.27,-253.47 418.31,-171.69 375.73,-137.88"/>
<polygon fill="midnightblue" stroke="midnightblue" points="377.84,-135.08 367.83,-131.61 373.49,-140.57 377.84,-135.08"/>
</g>
<!-- Node22&#45;&gt;Node6 -->
<g id="edge48" class="edge">
<title>Node22&#45;&gt;Node6</title>
<path fill="none" stroke="midnightblue" d="M261.77,-287.2C191.71,-281.68 76,-260.25 76,-179 76,-179 76,-179 76,-121 76,-75.87 112.79,-74.38 154,-56 245.84,-15.05 366.73,-9.78 426.8,-10.01"/>
<polygon fill="midnightblue" stroke="midnightblue" points="426.91,-13.51 436.94,-10.1 426.97,-6.51 426.91,-13.51"/>
</g>
<!-- Node23&#45;&gt;Node6 -->
<g id="edge50" class="edge">
<title>Node23&#45;&gt;Node6</title>
<path fill="none" stroke="midnightblue" d="M383.92,-281.04C307.02,-260.9 114,-207.51 114,-179 114,-179 114,-179 114,-121 114,-55.98 336.62,-24.7 426.76,-14.71"/>
<polygon fill="midnightblue" stroke="midnightblue" points="427.26,-18.17 436.83,-13.62 426.51,-11.21 427.26,-18.17"/>
</g>
</g>
</svg>
