<?xml version="1.0" encoding="UTF-8" standalone="no"?>
<!DOCTYPE svg PUBLIC "-//W3C//DTD SVG 1.1//EN"
 "http://www.w3.org/Graphics/SVG/1.1/DTD/svg11.dtd">
<!-- Generated by graphviz version 2.44.0 (0)
 -->
<!-- Title: TravellersApp/src/parser/CSV.hpp Pages: 1 -->
<svg width="584pt" height="307pt"
 viewBox="0.00 0.00 584.06 307.00" xmlns="http://www.w3.org/2000/svg" xmlns:xlink="http://www.w3.org/1999/xlink">
<g id="graph0" class="graph" transform="scale(1 1) rotate(0) translate(4 303)">
<title>TravellersApp/src/parser/CSV.hpp</title>
<polygon fill="white" stroke="transparent" points="-4,4 -4,-303 580.06,-303 580.06,4 -4,4"/>
<!-- Node1 -->
<g id="node1" class="node">
<title>Node1</title>
<g id="a_node1"><a xlink:title=" ">
<polygon fill="#bfbfbf" stroke="black" points="117.06,-268.5 117.06,-298.5 240.06,-298.5 240.06,-268.5 117.06,-268.5"/>
<text text-anchor="start" x="125.06" y="-286.5" font-family="Helvetica,sans-Serif" font-size="10.00">TravellersApp/src/parser</text>
<text text-anchor="middle" x="178.56" y="-275.5" font-family="Helvetica,sans-Serif" font-size="10.00">/CSV.hpp</text>
</a>
</g>
</g>
<!-- Node2 -->
<g id="node2" class="node">
<title>Node2</title>
<g id="a_node2"><a xlink:href="main_8cpp.html" target="_top" xlink:title=" ">
<polygon fill="white" stroke="black" points="159.06,-6 159.06,-25 294.06,-25 294.06,-6 159.06,-6"/>
<text text-anchor="middle" x="226.56" y="-13" font-family="Helvetica,sans-Serif" font-size="10.00">TravellersApp/src/main.cpp</text>
</a>
</g>
</g>
<!-- Node1&#45;&gt;Node2 -->
<g id="edge1" class="edge">
<title>Node1&#45;&gt;Node2</title>
<path fill="none" stroke="midnightblue" d="M143.91,-262.99C80.71,-224.97 -41.82,-138.39 14.56,-67 19.9,-60.25 124.8,-37.57 185,-25.03"/>
<polygon fill="midnightblue" stroke="midnightblue" points="142.39,-266.16 152.78,-268.25 145.96,-260.14 142.39,-266.16"/>
</g>
<!-- Node3 -->
<g id="node3" class="node">
<title>Node3</title>
<g id="a_node3"><a xlink:href="User_8hpp.html" target="_top" xlink:title=" ">
<polygon fill="white" stroke="black" points="159.06,-207 159.06,-226 294.06,-226 294.06,-207 159.06,-207"/>
<text text-anchor="middle" x="226.56" y="-214" font-family="Helvetica,sans-Serif" font-size="10.00">TravellersApp/src/User.hpp</text>
</a>
</g>
</g>
<!-- Node1&#45;&gt;Node3 -->
<g id="edge2" class="edge">
<title>Node1&#45;&gt;Node3</title>
<path fill="none" stroke="midnightblue" d="M194.94,-260.32C203.6,-248.6 213.72,-234.88 220.14,-226.19"/>
<polygon fill="midnightblue" stroke="midnightblue" points="192.1,-258.27 188.98,-268.4 197.73,-262.43 192.1,-258.27"/>
</g>
<!-- Node4 -->
<g id="node4" class="node">
<title>Node4</title>
<g id="a_node4"><a xlink:href="TravelState_8hpp.html" target="_top" xlink:title=" ">
<polygon fill="white" stroke="black" points="165.06,-134.5 165.06,-164.5 288.06,-164.5 288.06,-134.5 165.06,-134.5"/>
<text text-anchor="start" x="173.06" y="-152.5" font-family="Helvetica,sans-Serif" font-size="10.00">TravellersApp/src/Travel</text>
<text text-anchor="middle" x="226.56" y="-141.5" font-family="Helvetica,sans-Serif" font-size="10.00">State.hpp</text>
</a>
</g>
</g>
<!-- Node1&#45;&gt;Node4 -->
<g id="edge14" class="edge">
<title>Node1&#45;&gt;Node4</title>
<path fill="none" stroke="midnightblue" d="M160.54,-259.78C149.54,-242.98 139.39,-219.84 149.56,-201 158.37,-184.68 175.01,-172.78 190.57,-164.65"/>
<polygon fill="midnightblue" stroke="midnightblue" points="157.99,-262.24 166.61,-268.4 163.71,-258.21 157.99,-262.24"/>
</g>
<!-- Node12 -->
<g id="node12" class="node">
<title>Node12</title>
<g id="a_node12"><a xlink:href="CSV_8cpp.html" target="_top" xlink:title=" ">
<polygon fill="white" stroke="black" points="312.06,-201.5 312.06,-231.5 435.06,-231.5 435.06,-201.5 312.06,-201.5"/>
<text text-anchor="start" x="320.06" y="-219.5" font-family="Helvetica,sans-Serif" font-size="10.00">TravellersApp/src/parser</text>
<text text-anchor="middle" x="373.56" y="-208.5" font-family="Helvetica,sans-Serif" font-size="10.00">/CSV.cpp</text>
</a>
</g>
</g>
<!-- Node1&#45;&gt;Node12 -->
<g id="edge15" class="edge">
<title>Node1&#45;&gt;Node12</title>
<path fill="none" stroke="midnightblue" d="M230.38,-265.23C261.92,-254.71 301.71,-241.45 331.33,-231.58"/>
<polygon fill="midnightblue" stroke="midnightblue" points="229.25,-261.91 220.87,-268.4 231.47,-268.55 229.25,-261.91"/>
</g>
<!-- Node3&#45;&gt;Node4 -->
<g id="edge3" class="edge">
<title>Node3&#45;&gt;Node4</title>
<path fill="none" stroke="midnightblue" d="M226.56,-196.41C226.56,-186.22 226.56,-173.9 226.56,-164.59"/>
<polygon fill="midnightblue" stroke="midnightblue" points="223.06,-196.73 226.56,-206.73 230.06,-196.73 223.06,-196.73"/>
</g>
<!-- Node5 -->
<g id="node5" class="node">
<title>Node5</title>
<g id="a_node5"><a xlink:href="HTLInterpreter_8hpp.html" target="_top" xlink:title=" ">
<polygon fill="white" stroke="black" points="306.06,-67.5 306.06,-97.5 429.06,-97.5 429.06,-67.5 306.06,-67.5"/>
<text text-anchor="start" x="314.06" y="-85.5" font-family="Helvetica,sans-Serif" font-size="10.00">TravellersApp/src/parser</text>
<text text-anchor="middle" x="367.56" y="-74.5" font-family="Helvetica,sans-Serif" font-size="10.00">/HTLInterpreter.hpp</text>
</a>
</g>
</g>
<!-- Node4&#45;&gt;Node5 -->
<g id="edge4" class="edge">
<title>Node4&#45;&gt;Node5</title>
<path fill="none" stroke="midnightblue" d="M266.41,-130.13C288.81,-119.8 316.34,-107.11 337.03,-97.58"/>
<polygon fill="midnightblue" stroke="midnightblue" points="264.77,-127.03 257.16,-134.4 267.7,-133.39 264.77,-127.03"/>
</g>
<!-- Node7 -->
<g id="node7" class="node">
<title>Node7</title>
<g id="a_node7"><a xlink:href="LoginInterpreter_8hpp.html" target="_top" xlink:title=" ">
<polygon fill="white" stroke="black" points="165.06,-67.5 165.06,-97.5 288.06,-97.5 288.06,-67.5 165.06,-67.5"/>
<text text-anchor="start" x="173.06" y="-85.5" font-family="Helvetica,sans-Serif" font-size="10.00">TravellersApp/src/parser</text>
<text text-anchor="middle" x="226.56" y="-74.5" font-family="Helvetica,sans-Serif" font-size="10.00">/LoginInterpreter.hpp</text>
</a>
</g>
</g>
<!-- Node4&#45;&gt;Node7 -->
<g id="edge7" class="edge">
<title>Node4&#45;&gt;Node7</title>
<path fill="none" stroke="midnightblue" d="M226.56,-124.11C226.56,-115.15 226.56,-105.32 226.56,-97.58"/>
<polygon fill="midnightblue" stroke="midnightblue" points="223.06,-124.4 226.56,-134.4 230.06,-124.4 223.06,-124.4"/>
</g>
<!-- Node9 -->
<g id="node9" class="node">
<title>Node9</title>
<g id="a_node9"><a xlink:href="VisitInterpreter_8hpp.html" target="_top" xlink:title=" ">
<polygon fill="white" stroke="black" points="447.06,-67.5 447.06,-97.5 570.06,-97.5 570.06,-67.5 447.06,-67.5"/>
<text text-anchor="start" x="455.06" y="-85.5" font-family="Helvetica,sans-Serif" font-size="10.00">TravellersApp/src/parser</text>
<text text-anchor="middle" x="508.56" y="-74.5" font-family="Helvetica,sans-Serif" font-size="10.00">/VisitInterpreter.hpp</text>
</a>
</g>
</g>
<!-- Node4&#45;&gt;Node9 -->
<g id="edge10" class="edge">
<title>Node4&#45;&gt;Node9</title>
<path fill="none" stroke="midnightblue" d="M297.34,-132.19C343.52,-121.54 403.21,-107.78 447.34,-97.61"/>
<polygon fill="midnightblue" stroke="midnightblue" points="296.36,-128.82 287.4,-134.48 297.93,-135.64 296.36,-128.82"/>
</g>
<!-- Node11 -->
<g id="node11" class="node">
<title>Node11</title>
<g id="a_node11"><a xlink:href="TravelState_8cpp.html" target="_top" xlink:title=" ">
<polygon fill="white" stroke="black" points="24.06,-67.5 24.06,-97.5 147.06,-97.5 147.06,-67.5 24.06,-67.5"/>
<text text-anchor="start" x="32.06" y="-85.5" font-family="Helvetica,sans-Serif" font-size="10.00">TravellersApp/src/Travel</text>
<text text-anchor="middle" x="85.56" y="-74.5" font-family="Helvetica,sans-Serif" font-size="10.00">State.cpp</text>
</a>
</g>
</g>
<!-- Node4&#45;&gt;Node11 -->
<g id="edge13" class="edge">
<title>Node4&#45;&gt;Node11</title>
<path fill="none" stroke="midnightblue" d="M186.71,-130.13C164.31,-119.8 136.78,-107.11 116.1,-97.58"/>
<polygon fill="midnightblue" stroke="midnightblue" points="185.42,-133.39 195.97,-134.4 188.35,-127.03 185.42,-133.39"/>
</g>
<!-- Node5&#45;&gt;Node2 -->
<g id="edge5" class="edge">
<title>Node5&#45;&gt;Node2</title>
<path fill="none" stroke="midnightblue" d="M327.72,-63.13C300.58,-50.62 265.91,-34.64 245.01,-25.01"/>
<polygon fill="midnightblue" stroke="midnightblue" points="326.42,-66.39 336.97,-67.4 329.35,-60.03 326.42,-66.39"/>
</g>
<!-- Node6 -->
<g id="node6" class="node">
<title>Node6</title>
<g id="a_node6"><a xlink:href="HTLInterpreter_8cpp.html" target="_top" xlink:title=" ">
<polygon fill="white" stroke="black" points="312.06,-0.5 312.06,-30.5 435.06,-30.5 435.06,-0.5 312.06,-0.5"/>
<text text-anchor="start" x="320.06" y="-18.5" font-family="Helvetica,sans-Serif" font-size="10.00">TravellersApp/src/parser</text>
<text text-anchor="middle" x="373.56" y="-7.5" font-family="Helvetica,sans-Serif" font-size="10.00">/HTLInterpreter.cpp</text>
</a>
</g>
</g>
<!-- Node5&#45;&gt;Node6 -->
<g id="edge6" class="edge">
<title>Node5&#45;&gt;Node6</title>
<path fill="none" stroke="midnightblue" d="M369.79,-57.4C370.62,-48.37 371.54,-38.41 372.26,-30.58"/>
<polygon fill="midnightblue" stroke="midnightblue" points="366.3,-57.12 368.86,-67.4 373.27,-57.76 366.3,-57.12"/>
</g>
<!-- Node7&#45;&gt;Node2 -->
<g id="edge8" class="edge">
<title>Node7&#45;&gt;Node2</title>
<path fill="none" stroke="midnightblue" d="M226.56,-57.25C226.56,-46.02 226.56,-33.38 226.56,-25.19"/>
<polygon fill="midnightblue" stroke="midnightblue" points="223.06,-57.4 226.56,-67.4 230.06,-57.4 223.06,-57.4"/>
</g>
<!-- Node8 -->
<g id="node8" class="node">
<title>Node8</title>
<g id="a_node8"><a xlink:href="LoginInterpreter_8cpp.html" target="_top" xlink:title=" ">
<polygon fill="white" stroke="black" points="18.06,-0.5 18.06,-30.5 141.06,-30.5 141.06,-0.5 18.06,-0.5"/>
<text text-anchor="start" x="26.06" y="-18.5" font-family="Helvetica,sans-Serif" font-size="10.00">TravellersApp/src/parser</text>
<text text-anchor="middle" x="79.56" y="-7.5" font-family="Helvetica,sans-Serif" font-size="10.00">/LoginInterpreter.cpp</text>
</a>
</g>
</g>
<!-- Node7&#45;&gt;Node8 -->
<g id="edge9" class="edge">
<title>Node7&#45;&gt;Node8</title>
<path fill="none" stroke="midnightblue" d="M185.33,-63.27C161.92,-52.92 133.05,-40.15 111.4,-30.58"/>
<polygon fill="midnightblue" stroke="midnightblue" points="184.1,-66.55 194.66,-67.4 186.93,-60.15 184.1,-66.55"/>
</g>
<!-- Node9&#45;&gt;Node6 -->
<g id="edge11" class="edge">
<title>Node9&#45;&gt;Node6</title>
<path fill="none" stroke="midnightblue" d="M470.12,-62.99C448.72,-52.69 422.51,-40.07 402.8,-30.58"/>
<polygon fill="midnightblue" stroke="midnightblue" points="468.74,-66.21 479.27,-67.4 471.78,-59.9 468.74,-66.21"/>
</g>
<!-- Node10 -->
<g id="node10" class="node">
<title>Node10</title>
<g id="a_node10"><a xlink:href="VisitInterpreter_8cpp.html" target="_top" xlink:title=" ">
<polygon fill="white" stroke="black" points="453.06,-0.5 453.06,-30.5 576.06,-30.5 576.06,-0.5 453.06,-0.5"/>
<text text-anchor="start" x="461.06" y="-18.5" font-family="Helvetica,sans-Serif" font-size="10.00">TravellersApp/src/parser</text>
<text text-anchor="middle" x="514.56" y="-7.5" font-family="Helvetica,sans-Serif" font-size="10.00">/VisitInterpreter.cpp</text>
</a>
</g>
</g>
<!-- Node9&#45;&gt;Node10 -->
<g id="edge12" class="edge">
<title>Node9&#45;&gt;Node10</title>
<path fill="none" stroke="midnightblue" d="M510.79,-57.4C511.62,-48.37 512.54,-38.41 513.26,-30.58"/>
<polygon fill="midnightblue" stroke="midnightblue" points="507.3,-57.12 509.86,-67.4 514.27,-57.76 507.3,-57.12"/>
</g>
</g>
</svg>
