<?xml version="1.0" encoding="UTF-8" standalone="no"?>
<!DOCTYPE svg PUBLIC "-//W3C//DTD SVG 1.1//EN"
 "http://www.w3.org/Graphics/SVG/1.1/DTD/svg11.dtd">
<!-- Generated by graphviz version 2.44.0 (0)
 -->
<!-- Title: TravellersApp/src/debug.hpp Pages: 1 -->
<svg width="1246pt" height="765pt"
 viewBox="0.00 0.00 1245.50 765.00" xmlns="http://www.w3.org/2000/svg" xmlns:xlink="http://www.w3.org/1999/xlink">
<g id="graph0" class="graph" transform="scale(1 1) rotate(0) translate(4 761)">
<title>TravellersApp/src/debug.hpp</title>
<polygon fill="white" stroke="transparent" points="-4,4 -4,-761 1241.5,-761 1241.5,4 -4,4"/>
<!-- Node1 -->
<g id="node1" class="node">
<title>Node1</title>
<g id="a_node1"><a xlink:title=" ">
<polygon fill="#bfbfbf" stroke="black" points="451,-737.5 451,-756.5 591,-756.5 591,-737.5 451,-737.5"/>
<text text-anchor="middle" x="521" y="-744.5" font-family="Helvetica,sans-Serif" font-size="10.00">TravellersApp/src/debug.hpp</text>
</a>
</g>
</g>
<!-- Node2 -->
<g id="node2" class="node">
<title>Node2</title>
<g id="a_node2"><a xlink:href="ArrayList_8hpp.html" target="_top" xlink:title=" ">
<polygon fill="white" stroke="black" points="471.5,-536.5 471.5,-566.5 608.5,-566.5 608.5,-536.5 471.5,-536.5"/>
<text text-anchor="start" x="479.5" y="-554.5" font-family="Helvetica,sans-Serif" font-size="10.00">TravellersApp/src/collection</text>
<text text-anchor="middle" x="540" y="-543.5" font-family="Helvetica,sans-Serif" font-size="10.00">/ArrayList.hpp</text>
</a>
</g>
</g>
<!-- Node1&#45;&gt;Node2 -->
<g id="edge1" class="edge">
<title>Node1&#45;&gt;Node2</title>
<path fill="none" stroke="midnightblue" d="M522.86,-727.11C526.66,-688.41 535.25,-600.89 538.61,-566.63"/>
<polygon fill="midnightblue" stroke="midnightblue" points="519.33,-727.14 521.84,-737.44 526.3,-727.83 519.33,-727.14"/>
</g>
<!-- Node7 -->
<g id="node7" class="node">
<title>Node7</title>
<g id="a_node7"><a xlink:href="HashMap_8hpp.html" target="_top" xlink:title=" ">
<polygon fill="white" stroke="black" points="944.5,-469.5 944.5,-499.5 1081.5,-499.5 1081.5,-469.5 944.5,-469.5"/>
<text text-anchor="start" x="952.5" y="-487.5" font-family="Helvetica,sans-Serif" font-size="10.00">TravellersApp/src/collection</text>
<text text-anchor="middle" x="1013" y="-476.5" font-family="Helvetica,sans-Serif" font-size="10.00">/HashMap.hpp</text>
</a>
</g>
</g>
<!-- Node1&#45;&gt;Node7 -->
<g id="edge56" class="edge">
<title>Node1&#45;&gt;Node7</title>
<path fill="none" stroke="midnightblue" d="M601.34,-739.89C677.16,-733.07 784.63,-720.38 822,-701 914.76,-652.9 983.36,-539.7 1005.43,-499.76"/>
<polygon fill="midnightblue" stroke="midnightblue" points="600.98,-736.4 591.33,-740.77 601.6,-743.38 600.98,-736.4"/>
</g>
<!-- Node11 -->
<g id="node11" class="node">
<title>Node11</title>
<g id="a_node11"><a xlink:href="main_8cpp.html" target="_top" xlink:title=" ">
<polygon fill="white" stroke="black" points="400.5,-6 400.5,-25 535.5,-25 535.5,-6 400.5,-6"/>
<text text-anchor="middle" x="468" y="-13" font-family="Helvetica,sans-Serif" font-size="10.00">TravellersApp/src/main.cpp</text>
</a>
</g>
</g>
<!-- Node1&#45;&gt;Node11 -->
<g id="edge57" class="edge">
<title>Node1&#45;&gt;Node11</title>
<path fill="none" stroke="midnightblue" d="M440.5,-746.09C325.5,-744.91 121.1,-737.52 58,-701 19.52,-678.73 0,-663.96 0,-619.5 0,-619.5 0,-619.5 0,-148.5 0,-66.3 270.85,-32.77 400.45,-21.44"/>
<polygon fill="midnightblue" stroke="midnightblue" points="440.63,-749.59 450.66,-746.18 440.69,-742.59 440.63,-749.59"/>
</g>
<!-- Node22 -->
<g id="node22" class="node">
<title>Node22</title>
<g id="a_node22"><a xlink:href="Scanner_8cpp.html" target="_top" xlink:title=" ">
<polygon fill="white" stroke="black" points="134.5,-268.5 134.5,-298.5 257.5,-298.5 257.5,-268.5 134.5,-268.5"/>
<text text-anchor="start" x="142.5" y="-286.5" font-family="Helvetica,sans-Serif" font-size="10.00">TravellersApp/src/parser</text>
<text text-anchor="middle" x="196" y="-275.5" font-family="Helvetica,sans-Serif" font-size="10.00">/Scanner.cpp</text>
</a>
</g>
</g>
<!-- Node1&#45;&gt;Node22 -->
<g id="edge63" class="edge">
<title>Node1&#45;&gt;Node22</title>
<path fill="none" stroke="midnightblue" d="M440.66,-743.29C340,-738.82 174.02,-727.58 119,-701 73.01,-678.79 38,-670.57 38,-619.5 38,-619.5 38,-619.5 38,-416.5 38,-379.2 33.12,-362.78 58,-335 77.57,-313.14 107.41,-300.73 134.34,-293.69"/>
<polygon fill="midnightblue" stroke="midnightblue" points="440.65,-746.79 450.79,-743.73 440.95,-739.8 440.65,-746.79"/>
</g>
<!-- Node25 -->
<g id="node25" class="node">
<title>Node25</title>
<g id="a_node25"><a xlink:href="CommandList_8cpp.html" target="_top" xlink:title=" ">
<polygon fill="white" stroke="black" points="67.5,-335.5 67.5,-365.5 190.5,-365.5 190.5,-335.5 67.5,-335.5"/>
<text text-anchor="start" x="75.5" y="-353.5" font-family="Helvetica,sans-Serif" font-size="10.00">TravellersApp/src/parser</text>
<text text-anchor="middle" x="129" y="-342.5" font-family="Helvetica,sans-Serif" font-size="10.00">/CommandList.cpp</text>
</a>
</g>
</g>
<!-- Node1&#45;&gt;Node25 -->
<g id="edge62" class="edge">
<title>Node1&#45;&gt;Node25</title>
<path fill="none" stroke="midnightblue" d="M440.81,-739.69C312.67,-727.37 76,-694.47 76,-619.5 76,-619.5 76,-619.5 76,-483.5 76,-437.81 103.68,-389.22 119.03,-365.79"/>
<polygon fill="midnightblue" stroke="midnightblue" points="440.7,-743.19 450.98,-740.65 441.35,-736.23 440.7,-743.19"/>
</g>
<!-- Node28 -->
<g id="node28" class="node">
<title>Node28</title>
<g id="a_node28"><a xlink:href="Nullable_8hpp.html" target="_top" xlink:title=" ">
<polygon fill="white" stroke="black" points="664.5,-676 664.5,-695 813.5,-695 813.5,-676 664.5,-676"/>
<text text-anchor="middle" x="739" y="-683" font-family="Helvetica,sans-Serif" font-size="10.00">TravellersApp/src/Nullable.hpp</text>
</a>
</g>
</g>
<!-- Node1&#45;&gt;Node28 -->
<g id="edge47" class="edge">
<title>Node1&#45;&gt;Node28</title>
<path fill="none" stroke="midnightblue" d="M561.95,-734.82C604.3,-723.26 669.48,-705.47 707.82,-695.01"/>
<polygon fill="midnightblue" stroke="midnightblue" points="560.96,-731.47 552.23,-737.48 562.8,-738.22 560.96,-731.47"/>
</g>
<!-- Node31 -->
<g id="node31" class="node">
<title>Node31</title>
<g id="a_node31"><a xlink:href="SimpleString_8hpp.html" target="_top" xlink:title=" ">
<polygon fill="white" stroke="black" points="800,-469.5 800,-499.5 926,-499.5 926,-469.5 800,-469.5"/>
<text text-anchor="start" x="808" y="-487.5" font-family="Helvetica,sans-Serif" font-size="10.00">TravellersApp/src/Simple</text>
<text text-anchor="middle" x="863" y="-476.5" font-family="Helvetica,sans-Serif" font-size="10.00">String.hpp</text>
</a>
</g>
</g>
<!-- Node1&#45;&gt;Node31 -->
<g id="edge58" class="edge">
<title>Node1&#45;&gt;Node31</title>
<path fill="none" stroke="midnightblue" d="M532.87,-729.09C561.44,-689.61 638.13,-590.56 725,-536 750.71,-519.85 782.34,-507.81 808.82,-499.54"/>
<polygon fill="midnightblue" stroke="midnightblue" points="529.91,-727.22 526.95,-737.39 535.61,-731.28 529.91,-727.22"/>
</g>
<!-- Node32 -->
<g id="node32" class="node">
<title>Node32</title>
<g id="a_node32"><a xlink:href="Token_8cpp.html" target="_top" xlink:title=" ">
<polygon fill="white" stroke="black" points="1056.5,-670.5 1056.5,-700.5 1179.5,-700.5 1179.5,-670.5 1056.5,-670.5"/>
<text text-anchor="start" x="1064.5" y="-688.5" font-family="Helvetica,sans-Serif" font-size="10.00">TravellersApp/src/parser</text>
<text text-anchor="middle" x="1118" y="-677.5" font-family="Helvetica,sans-Serif" font-size="10.00">/Token.cpp</text>
</a>
</g>
</g>
<!-- Node1&#45;&gt;Node32 -->
<g id="edge64" class="edge">
<title>Node1&#45;&gt;Node32</title>
<path fill="none" stroke="midnightblue" d="M601.48,-741.61C704.09,-735.43 886.8,-722.45 1042,-701 1046.66,-700.36 1051.46,-699.62 1056.29,-698.82"/>
<polygon fill="midnightblue" stroke="midnightblue" points="600.97,-738.14 591.2,-742.22 601.39,-745.12 600.97,-738.14"/>
</g>
<!-- Node3 -->
<g id="node3" class="node">
<title>Node3</title>
<g id="a_node3"><a xlink:href="ArraySet_8hpp.html" target="_top" xlink:title=" ">
<polygon fill="white" stroke="black" points="568.5,-469.5 568.5,-499.5 705.5,-499.5 705.5,-469.5 568.5,-469.5"/>
<text text-anchor="start" x="576.5" y="-487.5" font-family="Helvetica,sans-Serif" font-size="10.00">TravellersApp/src/collection</text>
<text text-anchor="middle" x="637" y="-476.5" font-family="Helvetica,sans-Serif" font-size="10.00">/ArraySet.hpp</text>
</a>
</g>
</g>
<!-- Node2&#45;&gt;Node3 -->
<g id="edge2" class="edge">
<title>Node2&#45;&gt;Node3</title>
<path fill="none" stroke="midnightblue" d="M569.5,-530.73C584.51,-520.68 602.4,-508.68 615.99,-499.58"/>
<polygon fill="midnightblue" stroke="midnightblue" points="567.41,-527.92 561.05,-536.4 571.3,-533.74 567.41,-527.92"/>
</g>
<!-- Node4 -->
<g id="node4" class="node">
<title>Node4</title>
<g id="a_node4"><a xlink:href="BinaryNode_8hpp.html" target="_top" xlink:title=" ">
<polygon fill="white" stroke="black" points="142.5,-402.5 142.5,-432.5 279.5,-432.5 279.5,-402.5 142.5,-402.5"/>
<text text-anchor="start" x="150.5" y="-420.5" font-family="Helvetica,sans-Serif" font-size="10.00">TravellersApp/src/collection</text>
<text text-anchor="middle" x="211" y="-409.5" font-family="Helvetica,sans-Serif" font-size="10.00">/BinaryNode.hpp</text>
</a>
</g>
</g>
<!-- Node2&#45;&gt;Node4 -->
<g id="edge3" class="edge">
<title>Node2&#45;&gt;Node4</title>
<path fill="none" stroke="midnightblue" d="M461.44,-536.67C395.19,-524.63 308.85,-507.91 294,-500 262.63,-483.29 235.16,-451.04 221.06,-432.51"/>
<polygon fill="midnightblue" stroke="midnightblue" points="461.01,-540.15 471.47,-538.49 462.25,-533.26 461.01,-540.15"/>
</g>
<!-- Node5 -->
<g id="node5" class="node">
<title>Node5</title>
<g id="a_node5"><a xlink:href="RangeBinaryTree_8hpp.html" target="_top" xlink:title=" ">
<polygon fill="white" stroke="black" points="211.5,-335.5 211.5,-365.5 348.5,-365.5 348.5,-335.5 211.5,-335.5"/>
<text text-anchor="start" x="219.5" y="-353.5" font-family="Helvetica,sans-Serif" font-size="10.00">TravellersApp/src/collection</text>
<text text-anchor="middle" x="280" y="-342.5" font-family="Helvetica,sans-Serif" font-size="10.00">/RangeBinaryTree.hpp</text>
</a>
</g>
</g>
<!-- Node2&#45;&gt;Node5 -->
<g id="edge38" class="edge">
<title>Node2&#45;&gt;Node5</title>
<path fill="none" stroke="midnightblue" d="M461.62,-536.42C417.62,-527.21 368.19,-514.27 351,-500 307.69,-464.04 288.99,-395.49 282.67,-365.8"/>
<polygon fill="midnightblue" stroke="midnightblue" points="460.99,-539.86 471.49,-538.44 462.4,-533 460.99,-539.86"/>
</g>
<!-- Node6 -->
<g id="node6" class="node">
<title>Node6</title>
<g id="a_node6"><a xlink:href="Stack_8hpp.html" target="_top" xlink:title=" ">
<polygon fill="white" stroke="black" points="104.5,-469.5 104.5,-499.5 241.5,-499.5 241.5,-469.5 104.5,-469.5"/>
<text text-anchor="start" x="112.5" y="-487.5" font-family="Helvetica,sans-Serif" font-size="10.00">TravellersApp/src/collection</text>
<text text-anchor="middle" x="173" y="-476.5" font-family="Helvetica,sans-Serif" font-size="10.00">/Stack.hpp</text>
</a>
</g>
</g>
<!-- Node2&#45;&gt;Node6 -->
<g id="edge5" class="edge">
<title>Node2&#45;&gt;Node6</title>
<path fill="none" stroke="midnightblue" d="M461.15,-536.54C395.82,-524.96 303.89,-508.68 241.57,-497.65"/>
<polygon fill="midnightblue" stroke="midnightblue" points="460.94,-540.05 471.4,-538.35 462.16,-533.16 460.94,-540.05"/>
</g>
<!-- Node2&#45;&gt;Node7 -->
<g id="edge7" class="edge">
<title>Node2&#45;&gt;Node7</title>
<path fill="none" stroke="midnightblue" d="M618.65,-541.77C698.5,-532.6 825.62,-517.15 935,-500 937.99,-499.53 941.05,-499.04 944.13,-498.52"/>
<polygon fill="midnightblue" stroke="midnightblue" points="618.21,-538.3 608.67,-542.92 619,-545.26 618.21,-538.3"/>
</g>
<!-- Node9 -->
<g id="node9" class="node">
<title>Node9</title>
<g id="a_node9"><a xlink:href="Scanner_8hpp.html" target="_top" xlink:title=" ">
<polygon fill="white" stroke="black" points="367.5,-335.5 367.5,-365.5 490.5,-365.5 490.5,-335.5 367.5,-335.5"/>
<text text-anchor="start" x="375.5" y="-353.5" font-family="Helvetica,sans-Serif" font-size="10.00">TravellersApp/src/parser</text>
<text text-anchor="middle" x="429" y="-342.5" font-family="Helvetica,sans-Serif" font-size="10.00">/Scanner.hpp</text>
</a>
</g>
</g>
<!-- Node2&#45;&gt;Node9 -->
<g id="edge41" class="edge">
<title>Node2&#45;&gt;Node9</title>
<path fill="none" stroke="midnightblue" d="M468.16,-534.07C422.84,-522.97 371.62,-508.8 365,-500 332.26,-456.48 385.9,-393.64 413.8,-365.75"/>
<polygon fill="midnightblue" stroke="midnightblue" points="467.48,-537.5 478.03,-536.46 469.13,-530.7 467.48,-537.5"/>
</g>
<!-- Node10 -->
<g id="node10" class="node">
<title>Node10</title>
<g id="a_node10"><a xlink:href="CSV_8hpp.html" target="_top" xlink:title=" ">
<polygon fill="white" stroke="black" points="496.5,-268.5 496.5,-298.5 619.5,-298.5 619.5,-268.5 496.5,-268.5"/>
<text text-anchor="start" x="504.5" y="-286.5" font-family="Helvetica,sans-Serif" font-size="10.00">TravellersApp/src/parser</text>
<text text-anchor="middle" x="558" y="-275.5" font-family="Helvetica,sans-Serif" font-size="10.00">/CSV.hpp</text>
</a>
</g>
</g>
<!-- Node2&#45;&gt;Node10 -->
<g id="edge40" class="edge">
<title>Node2&#45;&gt;Node10</title>
<path fill="none" stroke="midnightblue" d="M541.65,-526.07C545.34,-471.57 554.14,-341.52 557.05,-298.55"/>
<polygon fill="midnightblue" stroke="midnightblue" points="538.15,-525.99 540.97,-536.2 545.14,-526.46 538.15,-525.99"/>
</g>
<!-- Node12 -->
<g id="node12" class="node">
<title>Node12</title>
<g id="a_node12"><a xlink:href="User_8hpp.html" target="_top" xlink:title=" ">
<polygon fill="white" stroke="black" points="676.5,-207 676.5,-226 811.5,-226 811.5,-207 676.5,-207"/>
<text text-anchor="middle" x="744" y="-214" font-family="Helvetica,sans-Serif" font-size="10.00">TravellersApp/src/User.hpp</text>
</a>
</g>
</g>
<!-- Node2&#45;&gt;Node12 -->
<g id="edge46" class="edge">
<title>Node2&#45;&gt;Node12</title>
<path fill="none" stroke="midnightblue" d="M618.83,-537.11C659.04,-528.5 701.97,-515.95 714,-500 776.1,-417.68 688.21,-367.57 715,-268 719.31,-251.99 730,-235.77 737.12,-226.17"/>
<polygon fill="midnightblue" stroke="midnightblue" points="618.04,-533.7 608.96,-539.15 619.46,-540.55 618.04,-533.7"/>
</g>
<!-- Node26 -->
<g id="node26" class="node">
<title>Node26</title>
<g id="a_node26"><a xlink:href="SortedArrayList_8hpp.html" target="_top" xlink:title=" ">
<polygon fill="white" stroke="black" points="374.5,-469.5 374.5,-499.5 511.5,-499.5 511.5,-469.5 374.5,-469.5"/>
<text text-anchor="start" x="382.5" y="-487.5" font-family="Helvetica,sans-Serif" font-size="10.00">TravellersApp/src/collection</text>
<text text-anchor="middle" x="443" y="-476.5" font-family="Helvetica,sans-Serif" font-size="10.00">/SortedArrayList.hpp</text>
</a>
</g>
</g>
<!-- Node2&#45;&gt;Node26 -->
<g id="edge39" class="edge">
<title>Node2&#45;&gt;Node26</title>
<path fill="none" stroke="midnightblue" d="M510.5,-530.73C495.49,-520.68 477.6,-508.68 464.01,-499.58"/>
<polygon fill="midnightblue" stroke="midnightblue" points="508.7,-533.74 518.95,-536.4 512.59,-527.92 508.7,-533.74"/>
</g>
<!-- Node27 -->
<g id="node27" class="node">
<title>Node27</title>
<g id="a_node27"><a xlink:href="VisitBuilder_8hpp.html" target="_top" xlink:title=" ">
<polygon fill="white" stroke="black" points="724,-274 724,-293 888,-293 888,-274 724,-274"/>
<text text-anchor="middle" x="806" y="-281" font-family="Helvetica,sans-Serif" font-size="10.00">TravellersApp/src/VisitBuilder.hpp</text>
</a>
</g>
</g>
<!-- Node2&#45;&gt;Node27 -->
<g id="edge42" class="edge">
<title>Node2&#45;&gt;Node27</title>
<path fill="none" stroke="midnightblue" d="M618.79,-535.39C673.57,-524.21 738.41,-509.36 748,-500 808.46,-441.02 808.01,-326.22 806.54,-293.44"/>
<polygon fill="midnightblue" stroke="midnightblue" points="617.81,-532.02 608.7,-537.43 619.2,-538.88 617.81,-532.02"/>
</g>
<!-- Node4&#45;&gt;Node5 -->
<g id="edge4" class="edge">
<title>Node4&#45;&gt;Node5</title>
<path fill="none" stroke="midnightblue" d="M233.49,-395.31C243.84,-385.56 255.84,-374.26 265.06,-365.58"/>
<polygon fill="midnightblue" stroke="midnightblue" points="230.85,-392.99 225.97,-402.4 235.65,-398.09 230.85,-392.99"/>
</g>
<!-- Node6&#45;&gt;Node4 -->
<g id="edge6" class="edge">
<title>Node6&#45;&gt;Node4</title>
<path fill="none" stroke="midnightblue" d="M186.4,-460.58C191.86,-451.24 197.99,-440.75 202.77,-432.58"/>
<polygon fill="midnightblue" stroke="midnightblue" points="183.27,-459 181.25,-469.4 189.31,-462.53 183.27,-459"/>
</g>
<!-- Node8 -->
<g id="node8" class="node">
<title>Node8</title>
<g id="a_node8"><a xlink:href="CommandList_8hpp.html" target="_top" xlink:title=" ">
<polygon fill="white" stroke="black" points="892.5,-402.5 892.5,-432.5 1015.5,-432.5 1015.5,-402.5 892.5,-402.5"/>
<text text-anchor="start" x="900.5" y="-420.5" font-family="Helvetica,sans-Serif" font-size="10.00">TravellersApp/src/parser</text>
<text text-anchor="middle" x="954" y="-409.5" font-family="Helvetica,sans-Serif" font-size="10.00">/CommandList.hpp</text>
</a>
</g>
</g>
<!-- Node7&#45;&gt;Node8 -->
<g id="edge8" class="edge">
<title>Node7&#45;&gt;Node8</title>
<path fill="none" stroke="midnightblue" d="M993.25,-461.74C984.52,-452.12 974.5,-441.09 966.78,-432.58"/>
<polygon fill="midnightblue" stroke="midnightblue" points="990.89,-464.34 1000.2,-469.4 996.07,-459.64 990.89,-464.34"/>
</g>
<!-- Node8&#45;&gt;Node9 -->
<g id="edge9" class="edge">
<title>Node8&#45;&gt;Node9</title>
<path fill="none" stroke="midnightblue" d="M882.42,-407.64C778.72,-394.8 588.4,-371.24 490.6,-359.13"/>
<polygon fill="midnightblue" stroke="midnightblue" points="882.14,-411.13 892.49,-408.88 883,-404.18 882.14,-411.13"/>
</g>
<!-- Node14 -->
<g id="node14" class="node">
<title>Node14</title>
<g id="a_node14"><a xlink:href="HTLInterpreter_8hpp.html" target="_top" xlink:title=" ">
<polygon fill="white" stroke="black" points="691.5,-67.5 691.5,-97.5 814.5,-97.5 814.5,-67.5 691.5,-67.5"/>
<text text-anchor="start" x="699.5" y="-85.5" font-family="Helvetica,sans-Serif" font-size="10.00">TravellersApp/src/parser</text>
<text text-anchor="middle" x="753" y="-74.5" font-family="Helvetica,sans-Serif" font-size="10.00">/HTLInterpreter.hpp</text>
</a>
</g>
</g>
<!-- Node8&#45;&gt;Node14 -->
<g id="edge29" class="edge">
<title>Node8&#45;&gt;Node14</title>
<path fill="none" stroke="midnightblue" d="M948.1,-392.52C934.23,-340.24 895.23,-214.29 824,-134 811.05,-119.4 793.12,-106.69 778.52,-97.68"/>
<polygon fill="midnightblue" stroke="midnightblue" points="944.72,-393.43 950.61,-402.24 951.5,-391.68 944.72,-393.43"/>
</g>
<!-- Node16 -->
<g id="node16" class="node">
<title>Node16</title>
<g id="a_node16"><a xlink:href="LoginInterpreter_8hpp.html" target="_top" xlink:title=" ">
<polygon fill="white" stroke="black" points="1114.5,-67.5 1114.5,-97.5 1237.5,-97.5 1237.5,-67.5 1114.5,-67.5"/>
<text text-anchor="start" x="1122.5" y="-85.5" font-family="Helvetica,sans-Serif" font-size="10.00">TravellersApp/src/parser</text>
<text text-anchor="middle" x="1176" y="-74.5" font-family="Helvetica,sans-Serif" font-size="10.00">/LoginInterpreter.hpp</text>
</a>
</g>
</g>
<!-- Node8&#45;&gt;Node16 -->
<g id="edge35" class="edge">
<title>Node8&#45;&gt;Node16</title>
<path fill="none" stroke="midnightblue" d="M1025.33,-399.54C1081.37,-381.47 1150,-346.65 1150,-284.5 1150,-284.5 1150,-284.5 1150,-215.5 1150,-171.82 1163.87,-121.52 1171.35,-97.58"/>
<polygon fill="midnightblue" stroke="midnightblue" points="1024.26,-396.2 1015.75,-402.51 1026.33,-402.89 1024.26,-396.2"/>
</g>
<!-- Node18 -->
<g id="node18" class="node">
<title>Node18</title>
<g id="a_node18"><a xlink:href="VisitInterpreter_8hpp.html" target="_top" xlink:title=" ">
<polygon fill="white" stroke="black" points="832.5,-67.5 832.5,-97.5 955.5,-97.5 955.5,-67.5 832.5,-67.5"/>
<text text-anchor="start" x="840.5" y="-85.5" font-family="Helvetica,sans-Serif" font-size="10.00">TravellersApp/src/parser</text>
<text text-anchor="middle" x="894" y="-74.5" font-family="Helvetica,sans-Serif" font-size="10.00">/VisitInterpreter.hpp</text>
</a>
</g>
</g>
<!-- Node8&#45;&gt;Node18 -->
<g id="edge37" class="edge">
<title>Node8&#45;&gt;Node18</title>
<path fill="none" stroke="midnightblue" d="M954,-391.99C954,-365.49 954,-322 954,-284.5 954,-284.5 954,-284.5 954,-215.5 954,-168.93 922.67,-120.73 905.29,-97.58"/>
<polygon fill="midnightblue" stroke="midnightblue" points="950.5,-392.24 954,-402.24 957.5,-392.24 950.5,-392.24"/>
</g>
<!-- Node23 -->
<g id="node23" class="node">
<title>Node23</title>
<g id="a_node23"><a xlink:href="Interpreter_8hpp.html" target="_top" xlink:title=" ">
<polygon fill="white" stroke="black" points="982.5,-134.5 982.5,-164.5 1105.5,-164.5 1105.5,-134.5 982.5,-134.5"/>
<text text-anchor="start" x="990.5" y="-152.5" font-family="Helvetica,sans-Serif" font-size="10.00">TravellersApp/src/parser</text>
<text text-anchor="middle" x="1044" y="-141.5" font-family="Helvetica,sans-Serif" font-size="10.00">/Interpreter.hpp</text>
</a>
</g>
</g>
<!-- Node8&#45;&gt;Node23 -->
<g id="edge30" class="edge">
<title>Node8&#45;&gt;Node23</title>
<path fill="none" stroke="midnightblue" d="M962.15,-392.41C980.52,-338.12 1024.68,-207.61 1039.25,-164.55"/>
<polygon fill="midnightblue" stroke="midnightblue" points="958.73,-391.6 958.84,-402.2 965.36,-393.85 958.73,-391.6"/>
</g>
<!-- Node8&#45;&gt;Node25 -->
<g id="edge36" class="edge">
<title>Node8&#45;&gt;Node25</title>
<path fill="none" stroke="midnightblue" d="M882.17,-414.76C748.01,-410.82 450.43,-398.87 202,-366 198.29,-365.51 194.48,-364.94 190.64,-364.32"/>
<polygon fill="midnightblue" stroke="midnightblue" points="882.23,-418.26 892.32,-415.05 882.43,-411.26 882.23,-418.26"/>
</g>
<!-- Node9&#45;&gt;Node10 -->
<g id="edge10" class="edge">
<title>Node9&#45;&gt;Node10</title>
<path fill="none" stroke="midnightblue" d="M466.01,-330.85C486.4,-320.58 511.31,-308.03 530.06,-298.58"/>
<polygon fill="midnightblue" stroke="midnightblue" points="464.35,-327.77 456.99,-335.4 467.5,-334.02 464.35,-327.77"/>
</g>
<!-- Node9&#45;&gt;Node11 -->
<g id="edge26" class="edge">
<title>Node9&#45;&gt;Node11</title>
<path fill="none" stroke="midnightblue" d="M418.14,-325.83C407.22,-299.83 392,-256.58 392,-217.5 392,-217.5 392,-217.5 392,-148.5 392,-95.61 438.39,-44.8 458.68,-25.09"/>
<polygon fill="midnightblue" stroke="midnightblue" points="415.02,-327.44 422.21,-335.22 421.44,-324.65 415.02,-327.44"/>
</g>
<!-- Node15 -->
<g id="node15" class="node">
<title>Node15</title>
<g id="a_node15"><a xlink:href="HTLInterpreter_8cpp.html" target="_top" xlink:title=" ">
<polygon fill="white" stroke="black" points="691.5,-0.5 691.5,-30.5 814.5,-30.5 814.5,-0.5 691.5,-0.5"/>
<text text-anchor="start" x="699.5" y="-18.5" font-family="Helvetica,sans-Serif" font-size="10.00">TravellersApp/src/parser</text>
<text text-anchor="middle" x="753" y="-7.5" font-family="Helvetica,sans-Serif" font-size="10.00">/HTLInterpreter.cpp</text>
</a>
</g>
</g>
<!-- Node9&#45;&gt;Node15 -->
<g id="edge27" class="edge">
<title>Node9&#45;&gt;Node15</title>
<path fill="none" stroke="midnightblue" d="M431.19,-325.3C437.5,-270.45 460.76,-136.08 541,-67 563.37,-47.75 637.2,-33.21 691.46,-24.78"/>
<polygon fill="midnightblue" stroke="midnightblue" points="427.69,-325.14 430.11,-335.46 434.65,-325.88 427.69,-325.14"/>
</g>
<!-- Node9&#45;&gt;Node22 -->
<g id="edge28" class="edge">
<title>Node9&#45;&gt;Node22</title>
<path fill="none" stroke="midnightblue" d="M368.83,-332.71C330.92,-322.14 282.51,-308.63 246.58,-298.61"/>
<polygon fill="midnightblue" stroke="midnightblue" points="368.16,-336.16 378.73,-335.48 370.04,-329.42 368.16,-336.16"/>
</g>
<!-- Node10&#45;&gt;Node11 -->
<g id="edge11" class="edge">
<title>Node10&#45;&gt;Node11</title>
<path fill="none" stroke="midnightblue" d="M518.43,-263.08C506.34,-255.14 494.32,-244.78 487,-232 446.49,-161.28 461,-55.61 466.37,-25.06"/>
<polygon fill="midnightblue" stroke="midnightblue" points="516.82,-266.2 527.18,-268.43 520.48,-260.23 516.82,-266.2"/>
</g>
<!-- Node10&#45;&gt;Node12 -->
<g id="edge12" class="edge">
<title>Node10&#45;&gt;Node12</title>
<path fill="none" stroke="midnightblue" d="M608.23,-264.95C644.36,-252.32 691.49,-235.85 719.66,-226.01"/>
<polygon fill="midnightblue" stroke="midnightblue" points="606.64,-261.79 598.36,-268.4 608.95,-268.4 606.64,-261.79"/>
</g>
<!-- Node13 -->
<g id="node13" class="node">
<title>Node13</title>
<g id="a_node13"><a xlink:href="TravelState_8hpp.html" target="_top" xlink:title=" ">
<polygon fill="white" stroke="black" points="691.5,-134.5 691.5,-164.5 814.5,-164.5 814.5,-134.5 691.5,-134.5"/>
<text text-anchor="start" x="699.5" y="-152.5" font-family="Helvetica,sans-Serif" font-size="10.00">TravellersApp/src/Travel</text>
<text text-anchor="middle" x="753" y="-141.5" font-family="Helvetica,sans-Serif" font-size="10.00">State.hpp</text>
</a>
</g>
</g>
<!-- Node10&#45;&gt;Node13 -->
<g id="edge24" class="edge">
<title>Node10&#45;&gt;Node13</title>
<path fill="none" stroke="midnightblue" d="M586.51,-262.39C599.3,-253.25 614.51,-242.22 628,-232 645.65,-218.63 648.74,-213.53 667,-201 686.42,-187.68 709.48,-174.26 726.83,-164.61"/>
<polygon fill="midnightblue" stroke="midnightblue" points="584.21,-259.73 578.1,-268.38 588.27,-265.43 584.21,-259.73"/>
</g>
<!-- Node21 -->
<g id="node21" class="node">
<title>Node21</title>
<g id="a_node21"><a xlink:href="CSV_8cpp.html" target="_top" xlink:title=" ">
<polygon fill="white" stroke="black" points="496.5,-201.5 496.5,-231.5 619.5,-231.5 619.5,-201.5 496.5,-201.5"/>
<text text-anchor="start" x="504.5" y="-219.5" font-family="Helvetica,sans-Serif" font-size="10.00">TravellersApp/src/parser</text>
<text text-anchor="middle" x="558" y="-208.5" font-family="Helvetica,sans-Serif" font-size="10.00">/CSV.cpp</text>
</a>
</g>
</g>
<!-- Node10&#45;&gt;Node21 -->
<g id="edge25" class="edge">
<title>Node10&#45;&gt;Node21</title>
<path fill="none" stroke="midnightblue" d="M558,-258.11C558,-249.15 558,-239.32 558,-231.58"/>
<polygon fill="midnightblue" stroke="midnightblue" points="554.5,-258.4 558,-268.4 561.5,-258.4 554.5,-258.4"/>
</g>
<!-- Node12&#45;&gt;Node13 -->
<g id="edge13" class="edge">
<title>Node12&#45;&gt;Node13</title>
<path fill="none" stroke="midnightblue" d="M746.6,-196.74C748.02,-186.49 749.75,-174 751.05,-164.59"/>
<polygon fill="midnightblue" stroke="midnightblue" points="743.12,-196.35 745.21,-206.73 750.05,-197.31 743.12,-196.35"/>
</g>
<!-- Node13&#45;&gt;Node14 -->
<g id="edge14" class="edge">
<title>Node13&#45;&gt;Node14</title>
<path fill="none" stroke="midnightblue" d="M753,-124.11C753,-115.15 753,-105.32 753,-97.58"/>
<polygon fill="midnightblue" stroke="midnightblue" points="749.5,-124.4 753,-134.4 756.5,-124.4 749.5,-124.4"/>
</g>
<!-- Node13&#45;&gt;Node16 -->
<g id="edge17" class="edge">
<title>Node13&#45;&gt;Node16</title>
<path fill="none" stroke="midnightblue" d="M824.96,-139.54C896.44,-130.32 1009.08,-114.95 1106,-98 1108.69,-97.53 1111.43,-97.03 1114.2,-96.52"/>
<polygon fill="midnightblue" stroke="midnightblue" points="824.19,-136.11 814.72,-140.85 825.08,-143.05 824.19,-136.11"/>
</g>
<!-- Node13&#45;&gt;Node18 -->
<g id="edge20" class="edge">
<title>Node13&#45;&gt;Node18</title>
<path fill="none" stroke="midnightblue" d="M792.85,-130.13C815.25,-119.8 842.78,-107.11 863.46,-97.58"/>
<polygon fill="midnightblue" stroke="midnightblue" points="791.21,-127.03 783.59,-134.4 794.14,-133.39 791.21,-127.03"/>
</g>
<!-- Node20 -->
<g id="node20" class="node">
<title>Node20</title>
<g id="a_node20"><a xlink:href="TravelState_8cpp.html" target="_top" xlink:title=" ">
<polygon fill="white" stroke="black" points="550.5,-67.5 550.5,-97.5 673.5,-97.5 673.5,-67.5 550.5,-67.5"/>
<text text-anchor="start" x="558.5" y="-85.5" font-family="Helvetica,sans-Serif" font-size="10.00">TravellersApp/src/Travel</text>
<text text-anchor="middle" x="612" y="-74.5" font-family="Helvetica,sans-Serif" font-size="10.00">State.cpp</text>
</a>
</g>
</g>
<!-- Node13&#45;&gt;Node20 -->
<g id="edge23" class="edge">
<title>Node13&#45;&gt;Node20</title>
<path fill="none" stroke="midnightblue" d="M713.15,-130.13C690.75,-119.8 663.22,-107.11 642.54,-97.58"/>
<polygon fill="midnightblue" stroke="midnightblue" points="711.86,-133.39 722.41,-134.4 714.79,-127.03 711.86,-133.39"/>
</g>
<!-- Node14&#45;&gt;Node11 -->
<g id="edge15" class="edge">
<title>Node14&#45;&gt;Node11</title>
<path fill="none" stroke="midnightblue" d="M681.65,-65.23C625.7,-52.47 550.04,-35.21 505.39,-25.03"/>
<polygon fill="midnightblue" stroke="midnightblue" points="680.98,-68.66 691.51,-67.48 682.54,-61.84 680.98,-68.66"/>
</g>
<!-- Node14&#45;&gt;Node15 -->
<g id="edge16" class="edge">
<title>Node14&#45;&gt;Node15</title>
<path fill="none" stroke="midnightblue" d="M753,-57.11C753,-48.15 753,-38.32 753,-30.58"/>
<polygon fill="midnightblue" stroke="midnightblue" points="749.5,-57.4 753,-67.4 756.5,-57.4 749.5,-57.4"/>
</g>
<!-- Node16&#45;&gt;Node11 -->
<g id="edge18" class="edge">
<title>Node16&#45;&gt;Node11</title>
<path fill="none" stroke="midnightblue" d="M1104.17,-66.96C1019.26,-56.8 681.78,-31.96 535.75,-21.38"/>
<polygon fill="midnightblue" stroke="midnightblue" points="1103.87,-70.45 1114.24,-68.27 1104.77,-63.51 1103.87,-70.45"/>
</g>
<!-- Node17 -->
<g id="node17" class="node">
<title>Node17</title>
<g id="a_node17"><a xlink:href="LoginInterpreter_8cpp.html" target="_top" xlink:title=" ">
<polygon fill="white" stroke="black" points="1114.5,-0.5 1114.5,-30.5 1237.5,-30.5 1237.5,-0.5 1114.5,-0.5"/>
<text text-anchor="start" x="1122.5" y="-18.5" font-family="Helvetica,sans-Serif" font-size="10.00">TravellersApp/src/parser</text>
<text text-anchor="middle" x="1176" y="-7.5" font-family="Helvetica,sans-Serif" font-size="10.00">/LoginInterpreter.cpp</text>
</a>
</g>
</g>
<!-- Node16&#45;&gt;Node17 -->
<g id="edge19" class="edge">
<title>Node16&#45;&gt;Node17</title>
<path fill="none" stroke="midnightblue" d="M1176,-57.11C1176,-48.15 1176,-38.32 1176,-30.58"/>
<polygon fill="midnightblue" stroke="midnightblue" points="1172.5,-57.4 1176,-67.4 1179.5,-57.4 1172.5,-57.4"/>
</g>
<!-- Node18&#45;&gt;Node15 -->
<g id="edge21" class="edge">
<title>Node18&#45;&gt;Node15</title>
<path fill="none" stroke="midnightblue" d="M854.15,-63.13C831.75,-52.8 804.22,-40.11 783.54,-30.58"/>
<polygon fill="midnightblue" stroke="midnightblue" points="852.86,-66.39 863.41,-67.4 855.79,-60.03 852.86,-66.39"/>
</g>
<!-- Node19 -->
<g id="node19" class="node">
<title>Node19</title>
<g id="a_node19"><a xlink:href="VisitInterpreter_8cpp.html" target="_top" xlink:title=" ">
<polygon fill="white" stroke="black" points="832.5,-0.5 832.5,-30.5 955.5,-30.5 955.5,-0.5 832.5,-0.5"/>
<text text-anchor="start" x="840.5" y="-18.5" font-family="Helvetica,sans-Serif" font-size="10.00">TravellersApp/src/parser</text>
<text text-anchor="middle" x="894" y="-7.5" font-family="Helvetica,sans-Serif" font-size="10.00">/VisitInterpreter.cpp</text>
</a>
</g>
</g>
<!-- Node18&#45;&gt;Node19 -->
<g id="edge22" class="edge">
<title>Node18&#45;&gt;Node19</title>
<path fill="none" stroke="midnightblue" d="M894,-57.11C894,-48.15 894,-38.32 894,-30.58"/>
<polygon fill="midnightblue" stroke="midnightblue" points="890.5,-57.4 894,-67.4 897.5,-57.4 890.5,-57.4"/>
</g>
<!-- Node23&#45;&gt;Node14 -->
<g id="edge31" class="edge">
<title>Node23&#45;&gt;Node14</title>
<path fill="none" stroke="midnightblue" d="M972.5,-132.53C924.1,-121.72 860.8,-107.58 814.62,-97.26"/>
<polygon fill="midnightblue" stroke="midnightblue" points="971.76,-135.95 982.29,-134.72 973.29,-129.12 971.76,-135.95"/>
</g>
<!-- Node23&#45;&gt;Node16 -->
<g id="edge32" class="edge">
<title>Node23&#45;&gt;Node16</title>
<path fill="none" stroke="midnightblue" d="M1081.87,-129.85C1102.74,-119.58 1128.23,-107.03 1147.41,-97.58"/>
<polygon fill="midnightblue" stroke="midnightblue" points="1080.07,-126.84 1072.64,-134.4 1083.16,-133.12 1080.07,-126.84"/>
</g>
<!-- Node23&#45;&gt;Node18 -->
<g id="edge33" class="edge">
<title>Node23&#45;&gt;Node18</title>
<path fill="none" stroke="midnightblue" d="M1002.25,-130.41C978.3,-120.03 948.68,-107.2 926.48,-97.58"/>
<polygon fill="midnightblue" stroke="midnightblue" points="1000.89,-133.63 1011.45,-134.4 1003.67,-127.21 1000.89,-133.63"/>
</g>
<!-- Node24 -->
<g id="node24" class="node">
<title>Node24</title>
<g id="a_node24"><a xlink:href="Interpreter_8cpp.html" target="_top" xlink:title=" ">
<polygon fill="white" stroke="black" points="973.5,-67.5 973.5,-97.5 1096.5,-97.5 1096.5,-67.5 973.5,-67.5"/>
<text text-anchor="start" x="981.5" y="-85.5" font-family="Helvetica,sans-Serif" font-size="10.00">TravellersApp/src/parser</text>
<text text-anchor="middle" x="1035" y="-74.5" font-family="Helvetica,sans-Serif" font-size="10.00">/Interpreter.cpp</text>
</a>
</g>
</g>
<!-- Node23&#45;&gt;Node24 -->
<g id="edge34" class="edge">
<title>Node23&#45;&gt;Node24</title>
<path fill="none" stroke="midnightblue" d="M1040.66,-124.4C1039.41,-115.37 1038.03,-105.41 1036.95,-97.58"/>
<polygon fill="midnightblue" stroke="midnightblue" points="1037.21,-124.97 1042.05,-134.4 1044.14,-124.01 1037.21,-124.97"/>
</g>
<!-- Node27&#45;&gt;Node12 -->
<g id="edge43" class="edge">
<title>Node27&#45;&gt;Node12</title>
<path fill="none" stroke="midnightblue" d="M790.74,-266.5C778.58,-253.75 762.02,-236.39 752.23,-226.13"/>
<polygon fill="midnightblue" stroke="midnightblue" points="788.2,-268.91 797.64,-273.73 793.27,-264.08 788.2,-268.91"/>
</g>
<!-- Node27&#45;&gt;Node13 -->
<g id="edge44" class="edge">
<title>Node27&#45;&gt;Node13</title>
<path fill="none" stroke="midnightblue" d="M815.5,-264.53C823.17,-247.37 831.17,-221.22 821,-201 813.01,-185.1 797.38,-172.95 783.12,-164.56"/>
<polygon fill="midnightblue" stroke="midnightblue" points="812.16,-263.39 810.93,-273.91 818.45,-266.45 812.16,-263.39"/>
</g>
<!-- Node27&#45;&gt;Node18 -->
<g id="edge45" class="edge">
<title>Node27&#45;&gt;Node18</title>
<path fill="none" stroke="midnightblue" d="M817.65,-265.31C823.84,-255.74 831.33,-243.48 837,-232 860.47,-184.46 880.8,-124.7 889.49,-97.79"/>
<polygon fill="midnightblue" stroke="midnightblue" points="814.6,-263.57 812,-273.84 820.44,-267.44 814.6,-263.57"/>
</g>
<!-- Node28&#45;&gt;Node2 -->
<g id="edge48" class="edge">
<title>Node28&#45;&gt;Node2</title>
<path fill="none" stroke="midnightblue" d="M715.04,-670.49C698.32,-660.58 675.58,-646.82 656,-634 621.4,-611.36 582.26,-583.33 559.43,-566.74"/>
<polygon fill="midnightblue" stroke="midnightblue" points="713.73,-673.78 724.12,-675.85 717.29,-667.75 713.73,-673.78"/>
</g>
<!-- Node28&#45;&gt;Node6 -->
<g id="edge52" class="edge">
<title>Node28&#45;&gt;Node6</title>
<path fill="none" stroke="midnightblue" d="M705.19,-672.61C606.48,-637.91 318.98,-536.82 212.91,-499.53"/>
<polygon fill="midnightblue" stroke="midnightblue" points="704.08,-675.93 714.68,-675.95 706.41,-669.33 704.08,-675.93"/>
</g>
<!-- Node28&#45;&gt;Node7 -->
<g id="edge53" class="edge">
<title>Node28&#45;&gt;Node7</title>
<path fill="none" stroke="midnightblue" d="M765.22,-671.06C783.3,-661.44 807.66,-647.8 828,-634 894.11,-589.13 966.27,-526.99 997.34,-499.52"/>
<polygon fill="midnightblue" stroke="midnightblue" points="763.11,-668.21 755.88,-675.96 766.36,-674.41 763.11,-668.21"/>
</g>
<!-- Node28&#45;&gt;Node8 -->
<g id="edge55" class="edge">
<title>Node28&#45;&gt;Node8</title>
<path fill="none" stroke="midnightblue" d="M797.4,-673.84C880.4,-655.15 1029.24,-607.7 1091,-500 1111.65,-463.99 1061.07,-442.2 1015.64,-430.33"/>
<polygon fill="midnightblue" stroke="midnightblue" points="796.64,-670.42 787.62,-675.98 798.14,-677.26 796.64,-670.42"/>
</g>
<!-- Node29 -->
<g id="node29" class="node">
<title>Node29</title>
<g id="a_node29"><a xlink:href="IList_8hpp.html" target="_top" xlink:title=" ">
<polygon fill="white" stroke="black" points="665.5,-603.5 665.5,-633.5 802.5,-633.5 802.5,-603.5 665.5,-603.5"/>
<text text-anchor="start" x="673.5" y="-621.5" font-family="Helvetica,sans-Serif" font-size="10.00">TravellersApp/src/collection</text>
<text text-anchor="middle" x="734" y="-610.5" font-family="Helvetica,sans-Serif" font-size="10.00">/IList.hpp</text>
</a>
</g>
</g>
<!-- Node28&#45;&gt;Node29 -->
<g id="edge49" class="edge">
<title>Node28&#45;&gt;Node29</title>
<path fill="none" stroke="midnightblue" d="M737.56,-665.74C736.77,-655.49 735.81,-643 735.08,-633.59"/>
<polygon fill="midnightblue" stroke="midnightblue" points="734.07,-666.03 738.33,-675.73 741.05,-665.49 734.07,-666.03"/>
</g>
<!-- Node30 -->
<g id="node30" class="node">
<title>Node30</title>
<g id="a_node30"><a xlink:href="LinkedList_8hpp.html" target="_top" xlink:title=" ">
<polygon fill="white" stroke="black" points="733.5,-536.5 733.5,-566.5 870.5,-566.5 870.5,-536.5 733.5,-536.5"/>
<text text-anchor="start" x="741.5" y="-554.5" font-family="Helvetica,sans-Serif" font-size="10.00">TravellersApp/src/collection</text>
<text text-anchor="middle" x="802" y="-543.5" font-family="Helvetica,sans-Serif" font-size="10.00">/LinkedList.hpp</text>
</a>
</g>
</g>
<!-- Node28&#45;&gt;Node30 -->
<g id="edge54" class="edge">
<title>Node28&#45;&gt;Node30</title>
<path fill="none" stroke="midnightblue" d="M770.68,-671.28C786.13,-663.01 803.23,-650.73 812,-634 823.25,-612.54 815.15,-583.64 808.44,-566.65"/>
<polygon fill="midnightblue" stroke="midnightblue" points="768.76,-668.32 761.36,-675.91 771.87,-674.59 768.76,-668.32"/>
</g>
<!-- Node29&#45;&gt;Node2 -->
<g id="edge50" class="edge">
<title>Node29&#45;&gt;Node2</title>
<path fill="none" stroke="midnightblue" d="M682.04,-600.09C650.73,-589.6 611.36,-576.41 582.01,-566.58"/>
<polygon fill="midnightblue" stroke="midnightblue" points="681.31,-603.54 691.9,-603.4 683.53,-596.9 681.31,-603.54"/>
</g>
<!-- Node29&#45;&gt;Node30 -->
<g id="edge51" class="edge">
<title>Node29&#45;&gt;Node30</title>
<path fill="none" stroke="midnightblue" d="M756.17,-596.31C766.37,-586.56 778.19,-575.26 787.27,-566.58"/>
<polygon fill="midnightblue" stroke="midnightblue" points="753.57,-593.96 748.75,-603.4 758.4,-599.02 753.57,-593.96"/>
</g>
<!-- Node31&#45;&gt;Node8 -->
<g id="edge60" class="edge">
<title>Node31&#45;&gt;Node8</title>
<path fill="none" stroke="midnightblue" d="M891.07,-463.45C905.07,-453.45 921.66,-441.6 934.29,-432.58"/>
<polygon fill="midnightblue" stroke="midnightblue" points="888.85,-460.74 882.75,-469.4 892.92,-466.43 888.85,-460.74"/>
</g>
<!-- Node31&#45;&gt;Node10 -->
<g id="edge59" class="edge">
<title>Node31&#45;&gt;Node10</title>
<path fill="none" stroke="midnightblue" d="M832.56,-463.64C771.03,-423.49 633.16,-333.54 579.74,-298.68"/>
<polygon fill="midnightblue" stroke="midnightblue" points="830.78,-466.66 841.07,-469.19 834.6,-460.79 830.78,-466.66"/>
</g>
<!-- Node31&#45;&gt;Node27 -->
<g id="edge61" class="edge">
<title>Node31&#45;&gt;Node27</title>
<path fill="none" stroke="midnightblue" d="M856.13,-459.53C843.44,-415.21 816.85,-322.38 808.54,-293.36"/>
<polygon fill="midnightblue" stroke="midnightblue" points="852.78,-460.54 858.9,-469.19 859.51,-458.61 852.78,-460.54"/>
</g>
</g>
</svg>
