<?xml version="1.0" encoding="UTF-8" standalone="no"?>
<!DOCTYPE svg PUBLIC "-//W3C//DTD SVG 1.1//EN"
 "http://www.w3.org/Graphics/SVG/1.1/DTD/svg11.dtd">
<!-- Generated by graphviz version 2.44.0 (0)
 -->
<!-- Title: TravellersApp/src Pages: 1 -->
<svg width="114pt" height="255pt"
 viewBox="0.00 0.00 114.00 255.00" xmlns="http://www.w3.org/2000/svg" xmlns:xlink="http://www.w3.org/1999/xlink">
<g id="graph0" class="graph" transform="scale(1 1) rotate(0) translate(4 251)">
<title>TravellersApp/src</title>
<polygon fill="white" stroke="transparent" points="-4,4 -4,-251 110,-251 110,4 -4,4"/>
<g id="clust1" class="cluster">
<title>clusterdir_37df6e3c4fca7f1248c8845453070d62</title>
<g id="a_clust1"><a xlink:href="dir_37df6e3c4fca7f1248c8845453070d62.html" target="_top" xlink:title="TravellersApp">
<polygon fill="#ddddee" stroke="black" points="8,-8 8,-239 98,-239 98,-8 8,-8"/>
<text text-anchor="middle" x="53" y="-227" font-family="Helvetica,sans-Serif" font-size="10.00">TravellersApp</text>
</a>
</g>
</g>
<g id="clust2" class="cluster">
<title>clusterdir_cb736564799f59987435f5296b0fd944</title>
<g id="a_clust2"><a xlink:href="dir_cb736564799f59987435f5296b0fd944.html" target="_top">
<polygon fill="#eeeeff" stroke="black" points="16,-16 16,-212 90,-212 90,-16 16,-16"/>
</a>
</g>
</g>
<!-- dir_cb736564799f59987435f5296b0fd944 -->
<g id="node1" class="node">
<title>dir_cb736564799f59987435f5296b0fd944</title>
<text text-anchor="middle" x="53" y="-183.5" font-family="Helvetica,sans-Serif" font-size="10.00">src</text>
</g>
<!-- dir_e6ed9b7cbbb6ea97d45497b43add9f3b -->
<g id="node3" class="node">
<title>dir_e6ed9b7cbbb6ea97d45497b43add9f3b</title>
<g id="a_node3"><a xlink:href="dir_e6ed9b7cbbb6ea97d45497b43add9f3b.html" target="_top" xlink:title="parser">
<polygon fill="white" stroke="black" points="80,-132 26,-132 26,-96 80,-96 80,-132"/>
<text text-anchor="middle" x="53" y="-111.5" font-family="Helvetica,sans-Serif" font-size="10.00">parser</text>
</a>
</g>
</g>
<!-- dir_cb736564799f59987435f5296b0fd944&#45;&gt;dir_e6ed9b7cbbb6ea97d45497b43add9f3b -->
<g id="edge1" class="edge">
<title>dir_cb736564799f59987435f5296b0fd944&#45;&gt;dir_e6ed9b7cbbb6ea97d45497b43add9f3b</title>
<path fill="none" stroke="black" d="M53,-167.7C53,-159.98 53,-150.71 53,-142.11"/>
<polygon fill="black" stroke="black" points="56.5,-142.1 53,-132.1 49.5,-142.1 56.5,-142.1"/>
<g id="a_edge1&#45;headlabel"><a xlink:href="dir_000001_000003.html" target="_top" xlink:title="7">
<text text-anchor="middle" x="59.34" y="-143.2" font-family="Helvetica,sans-Serif" font-size="10.00">7</text>
</a>
</g>
</g>
<!-- dir_078e8a36bc177679eb3774784a029817 -->
<g id="node2" class="node">
<title>dir_078e8a36bc177679eb3774784a029817</title>
<g id="a_node2"><a xlink:href="dir_078e8a36bc177679eb3774784a029817.html" target="_top" xlink:title="collection">
<polygon fill="white" stroke="black" points="82,-60 24,-60 24,-24 82,-24 82,-60"/>
<text text-anchor="middle" x="53" y="-39.5" font-family="Helvetica,sans-Serif" font-size="10.00">collection</text>
</a>
</g>
</g>
<!-- dir_e6ed9b7cbbb6ea97d45497b43add9f3b&#45;&gt;dir_078e8a36bc177679eb3774784a029817 -->
<g id="edge2" class="edge">
<title>dir_e6ed9b7cbbb6ea97d45497b43add9f3b&#45;&gt;dir_078e8a36bc177679eb3774784a029817</title>
<path fill="none" stroke="black" d="M53,-95.7C53,-87.98 53,-78.71 53,-70.11"/>
<polygon fill="black" stroke="black" points="56.5,-70.1 53,-60.1 49.5,-70.1 56.5,-70.1"/>
<g id="a_edge2&#45;headlabel"><a xlink:href="dir_000003_000002.html" target="_top" xlink:title="4">
<text text-anchor="middle" x="59.34" y="-71.2" font-family="Helvetica,sans-Serif" font-size="10.00">4</text>
</a>
</g>
</g>
</g>
</svg>
