<?xml version="1.0" encoding="UTF-8" standalone="no"?>
<!DOCTYPE svg PUBLIC "-//W3C//DTD SVG 1.1//EN"
 "http://www.w3.org/Graphics/SVG/1.1/DTD/svg11.dtd">
<!-- Generated by graphviz version 2.44.0 (0)
 -->
<!-- Title: TravellersApp/src/parser Pages: 1 -->
<svg width="94pt" height="151pt"
 viewBox="0.00 0.00 94.00 151.00" xmlns="http://www.w3.org/2000/svg" xmlns:xlink="http://www.w3.org/1999/xlink">
<g id="graph0" class="graph" transform="scale(1 1) rotate(0) translate(4 147)">
<title>TravellersApp/src/parser</title>
<polygon fill="white" stroke="transparent" points="-4,4 -4,-147 90,-147 90,4 -4,4"/>
<g id="clust1" class="cluster">
<title>clusterdir_cb736564799f59987435f5296b0fd944</title>
<g id="a_clust1"><a xlink:href="dir_cb736564799f59987435f5296b0fd944.html" target="_top" xlink:title="src">
<polygon fill="#ddddee" stroke="black" points="8,-64 8,-135 78,-135 78,-64 8,-64"/>
<text text-anchor="middle" x="43" y="-123" font-family="Helvetica,sans-Serif" font-size="10.00">src</text>
</a>
</g>
</g>
<!-- dir_e6ed9b7cbbb6ea97d45497b43add9f3b -->
<g id="node1" class="node">
<title>dir_e6ed9b7cbbb6ea97d45497b43add9f3b</title>
<g id="a_node1"><a xlink:href="dir_e6ed9b7cbbb6ea97d45497b43add9f3b.html" target="_top" xlink:title="parser">
<polygon fill="#eeeeff" stroke="black" points="70,-108 16,-108 16,-72 70,-72 70,-108"/>
<text text-anchor="middle" x="43" y="-87.5" font-family="Helvetica,sans-Serif" font-size="10.00">parser</text>
</a>
</g>
</g>
<!-- dir_078e8a36bc177679eb3774784a029817 -->
<g id="node2" class="node">
<title>dir_078e8a36bc177679eb3774784a029817</title>
<g id="a_node2"><a xlink:href="dir_078e8a36bc177679eb3774784a029817.html" target="_top" xlink:title="collection">
<polygon fill="none" stroke="black" points="72,-36 14,-36 14,0 72,0 72,-36"/>
<text text-anchor="middle" x="43" y="-15.5" font-family="Helvetica,sans-Serif" font-size="10.00">collection</text>
</a>
</g>
</g>
<!-- dir_e6ed9b7cbbb6ea97d45497b43add9f3b&#45;&gt;dir_078e8a36bc177679eb3774784a029817 -->
<g id="edge1" class="edge">
<title>dir_e6ed9b7cbbb6ea97d45497b43add9f3b&#45;&gt;dir_078e8a36bc177679eb3774784a029817</title>
<path fill="none" stroke="black" d="M43,-71.7C43,-63.98 43,-54.71 43,-46.11"/>
<polygon fill="black" stroke="black" points="46.5,-46.1 43,-36.1 39.5,-46.1 46.5,-46.1"/>
<g id="a_edge1&#45;headlabel"><a xlink:href="dir_000003_000002.html" target="_top" xlink:title="4">
<text text-anchor="middle" x="49.34" y="-47.2" font-family="Helvetica,sans-Serif" font-size="10.00">4</text>
</a>
</g>
</g>
</g>
</svg>
