<?xml version="1.0" encoding="UTF-8" standalone="no"?>
<!DOCTYPE svg PUBLIC "-//W3C//DTD SVG 1.1//EN"
 "http://www.w3.org/Graphics/SVG/1.1/DTD/svg11.dtd">
<!-- Generated by graphviz version 2.44.0 (0)
 -->
<!-- Title: TravellersApp/src/collection/HashMap.hpp Pages: 1 -->
<svg width="760pt" height="319pt"
 viewBox="0.00 0.00 760.06 319.00" xmlns="http://www.w3.org/2000/svg" xmlns:xlink="http://www.w3.org/1999/xlink">
<g id="graph0" class="graph" transform="scale(1 1) rotate(0) translate(4 315)">
<title>TravellersApp/src/collection/HashMap.hpp</title>
<polygon fill="white" stroke="transparent" points="-4,4 -4,-315 756.06,-315 756.06,4 -4,4"/>
<!-- Node1 -->
<g id="node1" class="node">
<title>Node1</title>
<g id="a_node1"><a xlink:title=" ">
<polygon fill="#bfbfbf" stroke="black" points="452,-280.5 452,-310.5 589,-310.5 589,-280.5 452,-280.5"/>
<text text-anchor="start" x="460" y="-298.5" font-family="Helvetica,sans-Serif" font-size="10.00">TravellersApp/src/collection</text>
<text text-anchor="middle" x="520.5" y="-287.5" font-family="Helvetica,sans-Serif" font-size="10.00">/HashMap.hpp</text>
</a>
</g>
</g>
<!-- Node2 -->
<g id="node2" class="node">
<title>Node2</title>
<g id="a_node2"><a xlink:title=" ">
<polygon fill="white" stroke="#bfbfbf" points="0,-112.5 0,-131.5 45,-131.5 45,-112.5 0,-112.5"/>
<text text-anchor="middle" x="22.5" y="-119.5" font-family="Helvetica,sans-Serif" font-size="10.00">cstdlib</text>
</a>
</g>
</g>
<!-- Node1&#45;&gt;Node2 -->
<g id="edge1" class="edge">
<title>Node1&#45;&gt;Node2</title>
<path fill="none" stroke="midnightblue" d="M451.87,-284.46C402.81,-276.26 335.65,-262.91 278.5,-244 222.24,-225.38 211.09,-213.3 157.5,-188 120,-170.3 76.85,-149.43 49.63,-136.21"/>
<polygon fill="midnightblue" stroke="midnightblue" points="50.89,-132.93 40.37,-131.71 47.83,-139.23 50.89,-132.93"/>
</g>
<!-- Node3 -->
<g id="node3" class="node">
<title>Node3</title>
<g id="a_node3"><a xlink:title=" ">
<polygon fill="white" stroke="#bfbfbf" points="557.5,-0.5 557.5,-19.5 603.5,-19.5 603.5,-0.5 557.5,-0.5"/>
<text text-anchor="middle" x="580.5" y="-7.5" font-family="Helvetica,sans-Serif" font-size="10.00">cstring</text>
</a>
</g>
</g>
<!-- Node1&#45;&gt;Node3 -->
<g id="edge2" class="edge">
<title>Node1&#45;&gt;Node3</title>
<path fill="none" stroke="midnightblue" d="M589.18,-288.87C657.27,-279.09 751.5,-252.31 751.5,-179 751.5,-179 751.5,-179 751.5,-121 751.5,-90.9 753.75,-77.32 732.5,-56 700.9,-24.29 648.08,-14.71 613.78,-11.94"/>
<polygon fill="midnightblue" stroke="midnightblue" points="613.97,-8.44 603.77,-11.28 613.51,-15.43 613.97,-8.44"/>
</g>
<!-- Node4 -->
<g id="node4" class="node">
<title>Node4</title>
<g id="a_node4"><a xlink:title=" ">
<polygon fill="white" stroke="#bfbfbf" points="473,-112.5 473,-131.5 524,-131.5 524,-112.5 473,-112.5"/>
<text text-anchor="middle" x="498.5" y="-119.5" font-family="Helvetica,sans-Serif" font-size="10.00">memory</text>
</a>
</g>
</g>
<!-- Node1&#45;&gt;Node4 -->
<g id="edge3" class="edge">
<title>Node1&#45;&gt;Node4</title>
<path fill="none" stroke="midnightblue" d="M531.03,-280.24C547.42,-256.17 575.28,-206.35 556.5,-168 549.98,-154.68 537.4,-144.18 525.63,-136.68"/>
<polygon fill="midnightblue" stroke="midnightblue" points="527.28,-133.59 516.89,-131.53 523.73,-139.62 527.28,-133.59"/>
</g>
<!-- Node5 -->
<g id="node5" class="node">
<title>Node5</title>
<g id="a_node5"><a xlink:title=" ">
<polygon fill="white" stroke="#bfbfbf" points="63.5,-112.5 63.5,-131.5 125.5,-131.5 125.5,-112.5 63.5,-112.5"/>
<text text-anchor="middle" x="94.5" y="-119.5" font-family="Helvetica,sans-Serif" font-size="10.00">type_traits</text>
</a>
</g>
</g>
<!-- Node1&#45;&gt;Node5 -->
<g id="edge4" class="edge">
<title>Node1&#45;&gt;Node5</title>
<path fill="none" stroke="midnightblue" d="M458.76,-280.5C391.78,-263.89 282.87,-232.71 196.5,-188 166.91,-172.68 134.81,-151.38 114.68,-137.39"/>
<polygon fill="midnightblue" stroke="midnightblue" points="116.52,-134.41 106.33,-131.53 112.5,-140.14 116.52,-134.41"/>
</g>
<!-- Node6 -->
<g id="node6" class="node">
<title>Node6</title>
<g id="a_node6"><a xlink:href="debug_8hpp.html" target="_top" xlink:title=" ">
<polygon fill="white" stroke="black" points="655.5,-56.5 655.5,-75.5 723.5,-75.5 723.5,-56.5 655.5,-56.5"/>
<text text-anchor="middle" x="689.5" y="-63.5" font-family="Helvetica,sans-Serif" font-size="10.00">../debug.hpp</text>
</a>
</g>
</g>
<!-- Node1&#45;&gt;Node6 -->
<g id="edge5" class="edge">
<title>Node1&#45;&gt;Node6</title>
<path fill="none" stroke="midnightblue" d="M543.78,-280.36C557.61,-271.19 574.86,-258.3 587.5,-244 632.64,-192.93 667.5,-118.77 682.06,-84.98"/>
<polygon fill="midnightblue" stroke="midnightblue" points="685.4,-86.09 686.07,-75.51 678.95,-83.36 685.4,-86.09"/>
</g>
<!-- Node7 -->
<g id="node7" class="node">
<title>Node7</title>
<g id="a_node7"><a xlink:href="ArrayList_8hpp.html" target="_top" xlink:title=" ">
<polygon fill="white" stroke="black" points="390.5,-224.5 390.5,-243.5 464.5,-243.5 464.5,-224.5 390.5,-224.5"/>
<text text-anchor="middle" x="427.5" y="-231.5" font-family="Helvetica,sans-Serif" font-size="10.00">ArrayList.hpp</text>
</a>
</g>
</g>
<!-- Node1&#45;&gt;Node7 -->
<g id="edge6" class="edge">
<title>Node1&#45;&gt;Node7</title>
<path fill="none" stroke="midnightblue" d="M498.46,-280.4C483.69,-270.95 464.32,-258.56 449.55,-249.11"/>
<polygon fill="midnightblue" stroke="midnightblue" points="451.34,-246.1 441.03,-243.66 447.57,-252 451.34,-246.1"/>
</g>
<!-- Node12 -->
<g id="node12" class="node">
<title>Node12</title>
<g id="a_node12"><a xlink:href="Nullable_8hpp.html" target="_top" xlink:title=" ">
<polygon fill="white" stroke="black" points="542,-112.5 542,-131.5 619,-131.5 619,-112.5 542,-112.5"/>
<text text-anchor="middle" x="580.5" y="-119.5" font-family="Helvetica,sans-Serif" font-size="10.00">../Nullable.hpp</text>
</a>
</g>
</g>
<!-- Node1&#45;&gt;Node12 -->
<g id="edge32" class="edge">
<title>Node1&#45;&gt;Node12</title>
<path fill="none" stroke="midnightblue" d="M539.61,-280.33C550.34,-271.23 562.87,-258.43 569.5,-244 584.85,-210.57 584.39,-166.54 582.54,-141.86"/>
<polygon fill="midnightblue" stroke="midnightblue" points="586.01,-141.35 581.61,-131.71 579.04,-141.99 586.01,-141.35"/>
</g>
<!-- Node15 -->
<g id="node15" class="node">
<title>Node15</title>
<g id="a_node15"><a xlink:href="Tuple_8hpp.html" target="_top" xlink:title=" ">
<polygon fill="white" stroke="black" points="206,-168.5 206,-187.5 265,-187.5 265,-168.5 206,-168.5"/>
<text text-anchor="middle" x="235.5" y="-175.5" font-family="Helvetica,sans-Serif" font-size="10.00">Tuple.hpp</text>
</a>
</g>
</g>
<!-- Node1&#45;&gt;Node15 -->
<g id="edge31" class="edge">
<title>Node1&#45;&gt;Node15</title>
<path fill="none" stroke="midnightblue" d="M479.46,-280.44C451.63,-270.7 414.12,-257.17 381.5,-244 339.66,-227.11 292.06,-205.45 262.91,-191.9"/>
<polygon fill="midnightblue" stroke="midnightblue" points="264.3,-188.68 253.76,-187.63 261.34,-195.03 264.3,-188.68"/>
</g>
<!-- Node7&#45;&gt;Node4 -->
<g id="edge9" class="edge">
<title>Node7&#45;&gt;Node4</title>
<path fill="none" stroke="midnightblue" d="M433.07,-224.37C444.74,-206.3 471.92,-164.18 487.33,-140.31"/>
<polygon fill="midnightblue" stroke="midnightblue" points="490.47,-141.89 492.95,-131.59 484.59,-138.1 490.47,-141.89"/>
</g>
<!-- Node7&#45;&gt;Node6 -->
<g id="edge14" class="edge">
<title>Node7&#45;&gt;Node6</title>
<path fill="none" stroke="midnightblue" d="M427.26,-224.43C427.14,-202.22 430.1,-142.37 463.5,-112 522.49,-58.36 562.15,-89.86 645.17,-76.07"/>
<polygon fill="midnightblue" stroke="midnightblue" points="646.04,-79.47 655.24,-74.21 644.77,-72.58 646.04,-79.47"/>
</g>
<!-- Node8 -->
<g id="node8" class="node">
<title>Node8</title>
<g id="a_node8"><a xlink:title=" ">
<polygon fill="white" stroke="#bfbfbf" points="264,-112.5 264,-131.5 323,-131.5 323,-112.5 264,-112.5"/>
<text text-anchor="middle" x="293.5" y="-119.5" font-family="Helvetica,sans-Serif" font-size="10.00">functional</text>
</a>
</g>
</g>
<!-- Node7&#45;&gt;Node8 -->
<g id="edge7" class="edge">
<title>Node7&#45;&gt;Node8</title>
<path fill="none" stroke="midnightblue" d="M402.16,-224.37C382.89,-216.92 356.55,-204.7 337.5,-188 322.33,-174.7 309.99,-155.04 302.28,-140.83"/>
<polygon fill="midnightblue" stroke="midnightblue" points="305.21,-138.88 297.51,-131.61 299,-142.1 305.21,-138.88"/>
</g>
<!-- Node9 -->
<g id="node9" class="node">
<title>Node9</title>
<g id="a_node9"><a xlink:title=" ">
<polygon fill="white" stroke="#bfbfbf" points="294.5,-0.5 294.5,-19.5 348.5,-19.5 348.5,-0.5 294.5,-0.5"/>
<text text-anchor="middle" x="321.5" y="-7.5" font-family="Helvetica,sans-Serif" font-size="10.00">iostream</text>
</a>
</g>
</g>
<!-- Node7&#45;&gt;Node9 -->
<g id="edge8" class="edge">
<title>Node7&#45;&gt;Node9</title>
<path fill="none" stroke="midnightblue" d="M419.32,-224.36C398.76,-202.01 345.1,-139.57 324.5,-76 319.65,-61.04 319.19,-43.13 319.78,-29.9"/>
<polygon fill="midnightblue" stroke="midnightblue" points="323.29,-29.89 320.48,-19.67 316.3,-29.41 323.29,-29.89"/>
</g>
<!-- Node10 -->
<g id="node10" class="node">
<title>Node10</title>
<g id="a_node10"><a xlink:href="InvalidArgumentException_8hpp.html" target="_top" xlink:title=" ">
<polygon fill="white" stroke="black" points="350,-56.5 350,-75.5 505,-75.5 505,-56.5 350,-56.5"/>
<text text-anchor="middle" x="427.5" y="-63.5" font-family="Helvetica,sans-Serif" font-size="10.00">../InvalidArgumentException.hpp</text>
</a>
</g>
</g>
<!-- Node7&#45;&gt;Node10 -->
<g id="edge10" class="edge">
<title>Node7&#45;&gt;Node10</title>
<path fill="none" stroke="midnightblue" d="M423.9,-224.22C420.44,-215.28 415.47,-200.94 413.5,-188 408.43,-154.61 408.43,-145.39 413.5,-112 414.87,-103 417.69,-93.33 420.45,-85.26"/>
<polygon fill="midnightblue" stroke="midnightblue" points="423.77,-86.37 423.9,-75.78 417.19,-83.98 423.77,-86.37"/>
</g>
<!-- Node7&#45;&gt;Node12 -->
<g id="edge15" class="edge">
<title>Node7&#45;&gt;Node12</title>
<path fill="none" stroke="midnightblue" d="M464.51,-228.71C493.05,-223.57 531.71,-212.35 556.5,-188 568.96,-175.76 575.01,-156.5 577.91,-142.11"/>
<polygon fill="midnightblue" stroke="midnightblue" points="581.43,-142.29 579.62,-131.85 574.52,-141.14 581.43,-142.29"/>
</g>
<!-- Node14 -->
<g id="node14" class="node">
<title>Node14</title>
<g id="a_node14"><a xlink:href="IList_8hpp.html" target="_top" xlink:title=" ">
<polygon fill="white" stroke="black" points="493.5,-168.5 493.5,-187.5 547.5,-187.5 547.5,-168.5 493.5,-168.5"/>
<text text-anchor="middle" x="520.5" y="-175.5" font-family="Helvetica,sans-Serif" font-size="10.00">IList.hpp</text>
</a>
</g>
</g>
<!-- Node7&#45;&gt;Node14 -->
<g id="edge22" class="edge">
<title>Node7&#45;&gt;Node14</title>
<path fill="none" stroke="midnightblue" d="M442.44,-224.32C457.09,-215.82 479.63,-202.73 496.74,-192.8"/>
<polygon fill="midnightblue" stroke="midnightblue" points="498.7,-195.7 505.6,-187.65 495.19,-189.65 498.7,-195.7"/>
</g>
<!-- Node7&#45;&gt;Node15 -->
<g id="edge25" class="edge">
<title>Node7&#45;&gt;Node15</title>
<path fill="none" stroke="midnightblue" d="M397.08,-224.44C364.02,-215.15 311.1,-200.26 274.89,-190.08"/>
<polygon fill="midnightblue" stroke="midnightblue" points="275.72,-186.68 265.15,-187.34 273.83,-193.42 275.72,-186.68"/>
</g>
<!-- Node10&#45;&gt;Node3 -->
<g id="edge11" class="edge">
<title>Node10&#45;&gt;Node3</title>
<path fill="none" stroke="midnightblue" d="M451.74,-56.44C477.67,-47.29 518.94,-32.73 547.75,-22.56"/>
<polygon fill="midnightblue" stroke="midnightblue" points="549.11,-25.79 557.37,-19.16 546.78,-19.19 549.11,-25.79"/>
</g>
<!-- Node10&#45;&gt;Node9 -->
<g id="edge13" class="edge">
<title>Node10&#45;&gt;Node9</title>
<path fill="none" stroke="midnightblue" d="M410.47,-56.32C393.47,-47.66 367.12,-34.24 347.51,-24.25"/>
<polygon fill="midnightblue" stroke="midnightblue" points="348.99,-21.08 338.49,-19.65 345.81,-27.31 348.99,-21.08"/>
</g>
<!-- Node11 -->
<g id="node11" class="node">
<title>Node11</title>
<g id="a_node11"><a xlink:title=" ">
<polygon fill="white" stroke="#bfbfbf" points="439.5,-0.5 439.5,-19.5 497.5,-19.5 497.5,-0.5 439.5,-0.5"/>
<text text-anchor="middle" x="468.5" y="-7.5" font-family="Helvetica,sans-Serif" font-size="10.00">exception</text>
</a>
</g>
</g>
<!-- Node10&#45;&gt;Node11 -->
<g id="edge12" class="edge">
<title>Node10&#45;&gt;Node11</title>
<path fill="none" stroke="midnightblue" d="M434.27,-56.08C440.06,-48.46 448.56,-37.26 455.64,-27.94"/>
<polygon fill="midnightblue" stroke="midnightblue" points="458.6,-29.83 461.86,-19.75 453.02,-25.6 458.6,-29.83"/>
</g>
<!-- Node12&#45;&gt;Node6 -->
<g id="edge20" class="edge">
<title>Node12&#45;&gt;Node6</title>
<path fill="none" stroke="midnightblue" d="M598.01,-112.32C615.57,-103.62 642.83,-90.12 663.03,-80.11"/>
<polygon fill="midnightblue" stroke="midnightblue" points="664.62,-83.23 672.03,-75.65 661.52,-76.96 664.62,-83.23"/>
</g>
<!-- Node12&#45;&gt;Node9 -->
<g id="edge21" class="edge">
<title>Node12&#45;&gt;Node9</title>
<path fill="none" stroke="midnightblue" d="M541.94,-113.77C474.1,-101.05 340.5,-76 340.5,-76 327.58,-64.3 323.25,-44.36 321.9,-29.64"/>
<polygon fill="midnightblue" stroke="midnightblue" points="325.39,-29.42 321.35,-19.63 318.4,-29.81 325.39,-29.42"/>
</g>
<!-- Node13 -->
<g id="node13" class="node">
<title>Node13</title>
<g id="a_node13"><a xlink:href="NoValueException_8hpp.html" target="_top" xlink:title=" ">
<polygon fill="white" stroke="black" points="523.5,-56.5 523.5,-75.5 637.5,-75.5 637.5,-56.5 523.5,-56.5"/>
<text text-anchor="middle" x="580.5" y="-63.5" font-family="Helvetica,sans-Serif" font-size="10.00">NoValueException.hpp</text>
</a>
</g>
</g>
<!-- Node12&#45;&gt;Node13 -->
<g id="edge16" class="edge">
<title>Node12&#45;&gt;Node13</title>
<path fill="none" stroke="midnightblue" d="M580.5,-112.08C580.5,-105.01 580.5,-94.86 580.5,-85.99"/>
<polygon fill="midnightblue" stroke="midnightblue" points="584,-85.75 580.5,-75.75 577,-85.75 584,-85.75"/>
</g>
<!-- Node13&#45;&gt;Node3 -->
<g id="edge17" class="edge">
<title>Node13&#45;&gt;Node3</title>
<path fill="none" stroke="midnightblue" d="M580.5,-56.08C580.5,-49.01 580.5,-38.86 580.5,-29.99"/>
<polygon fill="midnightblue" stroke="midnightblue" points="584,-29.75 580.5,-19.75 577,-29.75 584,-29.75"/>
</g>
<!-- Node13&#45;&gt;Node9 -->
<g id="edge19" class="edge">
<title>Node13&#45;&gt;Node9</title>
<path fill="none" stroke="midnightblue" d="M539.46,-56.44C489.76,-46.08 406.76,-28.78 358.8,-18.78"/>
<polygon fill="midnightblue" stroke="midnightblue" points="359.34,-15.32 348.84,-16.7 357.92,-22.17 359.34,-15.32"/>
</g>
<!-- Node13&#45;&gt;Node11 -->
<g id="edge18" class="edge">
<title>Node13&#45;&gt;Node11</title>
<path fill="none" stroke="midnightblue" d="M562.51,-56.32C544.46,-47.62 516.45,-34.12 495.7,-24.11"/>
<polygon fill="midnightblue" stroke="midnightblue" points="496.98,-20.84 486.45,-19.65 493.94,-27.15 496.98,-20.84"/>
</g>
<!-- Node14&#45;&gt;Node4 -->
<g id="edge24" class="edge">
<title>Node14&#45;&gt;Node4</title>
<path fill="none" stroke="midnightblue" d="M516.87,-168.08C513.89,-160.77 509.57,-150.18 505.88,-141.1"/>
<polygon fill="midnightblue" stroke="midnightblue" points="509.08,-139.69 502.07,-131.75 502.6,-142.33 509.08,-139.69"/>
</g>
<!-- Node14&#45;&gt;Node12 -->
<g id="edge23" class="edge">
<title>Node14&#45;&gt;Node12</title>
<path fill="none" stroke="midnightblue" d="M530.14,-168.32C539.01,-160.34 552.37,-148.31 563.11,-138.65"/>
<polygon fill="midnightblue" stroke="midnightblue" points="565.59,-141.13 570.68,-131.83 560.91,-135.92 565.59,-141.13"/>
</g>
<!-- Node15&#45;&gt;Node2 -->
<g id="edge27" class="edge">
<title>Node15&#45;&gt;Node2</title>
<path fill="none" stroke="midnightblue" d="M205.96,-169.95C171.96,-161.77 114.21,-147.68 55.09,-132.09"/>
<polygon fill="midnightblue" stroke="midnightblue" points="55.76,-128.65 45.2,-129.48 53.97,-135.42 55.76,-128.65"/>
</g>
<!-- Node15&#45;&gt;Node5 -->
<g id="edge30" class="edge">
<title>Node15&#45;&gt;Node5</title>
<path fill="none" stroke="midnightblue" d="M213.16,-168.44C189.75,-159.48 152.76,-145.31 126.31,-135.18"/>
<polygon fill="midnightblue" stroke="midnightblue" points="127.33,-131.82 116.74,-131.52 124.82,-138.36 127.33,-131.82"/>
</g>
<!-- Node15&#45;&gt;Node8 -->
<g id="edge28" class="edge">
<title>Node15&#45;&gt;Node8</title>
<path fill="none" stroke="midnightblue" d="M244.82,-168.32C253.39,-160.34 266.31,-148.31 276.69,-138.65"/>
<polygon fill="midnightblue" stroke="midnightblue" points="279.08,-141.21 284.01,-131.83 274.31,-136.09 279.08,-141.21"/>
</g>
<!-- Node15&#45;&gt;Node9 -->
<g id="edge29" class="edge">
<title>Node15&#45;&gt;Node9</title>
<path fill="none" stroke="midnightblue" d="M236.22,-168.4C238.29,-147.57 245.76,-93.4 269.5,-56 277.1,-44.03 288.84,-33.48 299.24,-25.61"/>
<polygon fill="midnightblue" stroke="midnightblue" points="301.45,-28.33 307.54,-19.66 297.38,-22.64 301.45,-28.33"/>
</g>
<!-- Node16 -->
<g id="node16" class="node">
<title>Node16</title>
<g id="a_node16"><a xlink:href="ttype_8hpp.html" target="_top" xlink:title=" ">
<polygon fill="white" stroke="black" points="144,-112.5 144,-131.5 207,-131.5 207,-112.5 144,-112.5"/>
<text text-anchor="middle" x="175.5" y="-119.5" font-family="Helvetica,sans-Serif" font-size="10.00">../ttype.hpp</text>
</a>
</g>
</g>
<!-- Node15&#45;&gt;Node16 -->
<g id="edge26" class="edge">
<title>Node15&#45;&gt;Node16</title>
<path fill="none" stroke="midnightblue" d="M225.86,-168.32C216.99,-160.34 203.63,-148.31 192.89,-138.65"/>
<polygon fill="midnightblue" stroke="midnightblue" points="195.09,-135.92 185.32,-131.83 190.41,-141.13 195.09,-135.92"/>
</g>
</g>
</svg>
