<?xml version="1.0" encoding="UTF-8" standalone="no"?>
<!DOCTYPE svg PUBLIC "-//W3C//DTD SVG 1.1//EN"
 "http://www.w3.org/Graphics/SVG/1.1/DTD/svg11.dtd">
<!-- Generated by graphviz version 2.44.0 (0)
 -->
<!-- Title: Graphical Class Hierarchy Pages: 1 -->
<svg width="288pt" height="66pt"
 viewBox="0.00 0.00 288.00 66.00" xmlns="http://www.w3.org/2000/svg" xmlns:xlink="http://www.w3.org/1999/xlink">
<g id="graph0" class="graph" transform="scale(1 1) rotate(0) translate(4 62)">
<title>Graphical Class Hierarchy</title>
<polygon fill="white" stroke="transparent" points="-4,4 -4,-62 284,-62 284,4 -4,4"/>
<!-- Node0 -->
<g id="node1" class="node">
<title>Node0</title>
<g id="a_node1"><a xlink:href="classInterpreter.html" target="_top" xlink:title=" ">
<polygon fill="white" stroke="black" points="0,-19.5 0,-38.5 128,-38.5 128,-19.5 0,-19.5"/>
<text text-anchor="middle" x="64" y="-26.5" font-family="Helvetica,sans-Serif" font-size="10.00">Interpreter&lt; TravelState &gt;</text>
</a>
</g>
</g>
<!-- Node1 -->
<g id="node2" class="node">
<title>Node1</title>
<g id="a_node2"><a xlink:href="classTravel_1_1HTLInterpreter.html" target="_top" xlink:title="An interpreter for general commands.">
<polygon fill="white" stroke="black" points="166,-38.5 166,-57.5 278,-57.5 278,-38.5 166,-38.5"/>
<text text-anchor="middle" x="222" y="-45.5" font-family="Helvetica,sans-Serif" font-size="10.00">Travel::HTLInterpreter</text>
</a>
</g>
</g>
<!-- Node0&#45;&gt;Node1 -->
<g id="edge1" class="edge">
<title>Node0&#45;&gt;Node1</title>
<path fill="none" stroke="midnightblue" d="M138.06,-37.9C147.39,-39.03 156.82,-40.18 165.8,-41.28"/>
<polygon fill="midnightblue" stroke="midnightblue" points="138.35,-34.41 128,-36.67 137.5,-41.36 138.35,-34.41"/>
</g>
<!-- Node2 -->
<g id="node3" class="node">
<title>Node2</title>
<g id="a_node3"><a xlink:href="classTravel_1_1LoginInterpreter.html" target="_top" xlink:title="Interprets all commands in the ATOPEN ScannerContext.">
<polygon fill="white" stroke="black" points="164,-0.5 164,-19.5 280,-19.5 280,-0.5 164,-0.5"/>
<text text-anchor="middle" x="222" y="-7.5" font-family="Helvetica,sans-Serif" font-size="10.00">Travel::LoginInterpreter</text>
</a>
</g>
</g>
<!-- Node0&#45;&gt;Node2 -->
<g id="edge2" class="edge">
<title>Node0&#45;&gt;Node2</title>
<path fill="none" stroke="midnightblue" d="M138.08,-20.1C146.72,-19.05 155.43,-17.99 163.81,-16.97"/>
<polygon fill="midnightblue" stroke="midnightblue" points="137.5,-16.64 128,-21.33 138.35,-23.59 137.5,-16.64"/>
</g>
</g>
</svg>
