<?xml version="1.0" encoding="UTF-8" standalone="no"?>
<!DOCTYPE svg PUBLIC "-//W3C//DTD SVG 1.1//EN"
 "http://www.w3.org/Graphics/SVG/1.1/DTD/svg11.dtd">
<!-- Generated by graphviz version 2.44.0 (0)
 -->
<!-- Title: Graphical Class Hierarchy Pages: 1 -->
<svg width="275pt" height="142pt"
 viewBox="0.00 0.00 275.00 142.00" xmlns="http://www.w3.org/2000/svg" xmlns:xlink="http://www.w3.org/1999/xlink">
<g id="graph0" class="graph" transform="scale(1 1) rotate(0) translate(4 138)">
<title>Graphical Class Hierarchy</title>
<polygon fill="white" stroke="transparent" points="-4,4 -4,-138 271,-138 271,4 -4,4"/>
<!-- Node50 -->
<g id="node1" class="node">
<title>Node50</title>
<g id="a_node1"><a xlink:title="STL class.">
<polygon fill="white" stroke="#bfbfbf" points="0,-57.5 0,-76.5 76,-76.5 76,-57.5 0,-57.5"/>
<text text-anchor="middle" x="38" y="-64.5" font-family="Helvetica,sans-Serif" font-size="10.00">std::exception</text>
</a>
</g>
</g>
<!-- Node0 -->
<g id="node2" class="node">
<title>Node0</title>
<g id="a_node2"><a xlink:href="classInvalidArgumentException.html" target="_top" xlink:title="An exception thrown when an invalid argument is passed to a function.">
<polygon fill="white" stroke="black" points="125,-114.5 125,-133.5 254,-133.5 254,-114.5 125,-114.5"/>
<text text-anchor="middle" x="189.5" y="-121.5" font-family="Helvetica,sans-Serif" font-size="10.00">InvalidArgumentException</text>
</a>
</g>
</g>
<!-- Node50&#45;&gt;Node0 -->
<g id="edge1" class="edge">
<title>Node50&#45;&gt;Node0</title>
<path fill="none" stroke="midnightblue" d="M63.62,-81.68C77.46,-89.45 95.28,-98.67 112,-105 121.73,-108.68 132.42,-111.85 142.65,-114.49"/>
<polygon fill="midnightblue" stroke="midnightblue" points="65.15,-78.52 54.73,-76.58 61.66,-84.59 65.15,-78.52"/>
</g>
<!-- Node52 -->
<g id="node3" class="node">
<title>Node52</title>
<g id="a_node3"><a xlink:href="classNoValueException.html" target="_top" xlink:title="An exception thrown when there was an attempt to access a value when no value exists.">
<polygon fill="white" stroke="black" points="141.5,-76.5 141.5,-95.5 237.5,-95.5 237.5,-76.5 141.5,-76.5"/>
<text text-anchor="middle" x="189.5" y="-83.5" font-family="Helvetica,sans-Serif" font-size="10.00">NoValueException</text>
</a>
</g>
</g>
<!-- Node50&#45;&gt;Node52 -->
<g id="edge2" class="edge">
<title>Node50&#45;&gt;Node52</title>
<path fill="none" stroke="midnightblue" d="M86.39,-73.02C103.97,-75.26 123.9,-77.79 141.46,-80.02"/>
<polygon fill="midnightblue" stroke="midnightblue" points="86.7,-69.53 76.34,-71.75 85.82,-76.48 86.7,-69.53"/>
</g>
<!-- Node53 -->
<g id="node4" class="node">
<title>Node53</title>
<g id="a_node4"><a xlink:href="classReachedEndOfStreamException.html" target="_top" xlink:title="An exception throw when Interpreter reaches the end of stream unexpectedly.">
<polygon fill="white" stroke="black" points="112,-38.5 112,-57.5 267,-57.5 267,-38.5 112,-38.5"/>
<text text-anchor="middle" x="189.5" y="-45.5" font-family="Helvetica,sans-Serif" font-size="10.00">ReachedEndOfStreamException</text>
</a>
</g>
</g>
<!-- Node50&#45;&gt;Node53 -->
<g id="edge3" class="edge">
<title>Node50&#45;&gt;Node53</title>
<path fill="none" stroke="midnightblue" d="M86.31,-60.99C95.06,-59.88 104.39,-58.69 113.73,-57.5"/>
<polygon fill="midnightblue" stroke="midnightblue" points="85.82,-57.52 76.34,-62.25 86.7,-64.47 85.82,-57.52"/>
</g>
<!-- Node54 -->
<g id="node5" class="node">
<title>Node54</title>
<g id="a_node5"><a xlink:href="classWrongTokenTypeException.html" target="_top" xlink:title="Thrown when Interpreter encounters a different token than the one it was expecting.">
<polygon fill="white" stroke="black" points="122.5,-0.5 122.5,-19.5 256.5,-19.5 256.5,-0.5 122.5,-0.5"/>
<text text-anchor="middle" x="189.5" y="-7.5" font-family="Helvetica,sans-Serif" font-size="10.00">WrongTokenTypeException</text>
</a>
</g>
</g>
<!-- Node50&#45;&gt;Node54 -->
<g id="edge4" class="edge">
<title>Node50&#45;&gt;Node54</title>
<path fill="none" stroke="midnightblue" d="M63.62,-52.32C77.46,-44.55 95.28,-35.33 112,-29 121.73,-25.32 132.42,-22.15 142.65,-19.51"/>
<polygon fill="midnightblue" stroke="midnightblue" points="61.66,-49.41 54.73,-57.42 65.15,-55.48 61.66,-49.41"/>
</g>
</g>
</svg>
