<?xml version="1.0" encoding="UTF-8" standalone="no"?>
<!DOCTYPE svg PUBLIC "-//W3C//DTD SVG 1.1//EN"
 "http://www.w3.org/Graphics/SVG/1.1/DTD/svg11.dtd">
<!-- Generated by graphviz version 2.44.0 (0)
 -->
<!-- Title: Graphical Class Hierarchy Pages: 1 -->
<svg width="192pt" height="66pt"
 viewBox="0.00 0.00 192.00 66.00" xmlns="http://www.w3.org/2000/svg" xmlns:xlink="http://www.w3.org/1999/xlink">
<g id="graph0" class="graph" transform="scale(1 1) rotate(0) translate(4 62)">
<title>Graphical Class Hierarchy</title>
<polygon fill="white" stroke="transparent" points="-4,4 -4,-62 188,-62 188,4 -4,4"/>
<!-- Node0 -->
<g id="node1" class="node">
<title>Node0</title>
<g id="a_node1"><a xlink:href="classNullable.html" target="_top" xlink:title="An optional value container inspired by Haskell&#39;s Maybe and Scala&#39;s Option.">
<polygon fill="white" stroke="black" points="0,-19.5 0,-38.5 75,-38.5 75,-19.5 0,-19.5"/>
<text text-anchor="middle" x="37.5" y="-26.5" font-family="Helvetica,sans-Serif" font-size="10.00">Nullable&lt; A &gt;</text>
</a>
</g>
</g>
<!-- Node1 -->
<g id="node2" class="node">
<title>Node1</title>
<g id="a_node2"><a xlink:href="classNotNull.html" target="_top" xlink:title="This class represents a wrapper around a concrete value.">
<polygon fill="white" stroke="black" points="111,-38.5 111,-57.5 184,-57.5 184,-38.5 111,-38.5"/>
<text text-anchor="middle" x="147.5" y="-45.5" font-family="Helvetica,sans-Serif" font-size="10.00">NotNull&lt; A &gt;</text>
</a>
</g>
</g>
<!-- Node0&#45;&gt;Node1 -->
<g id="edge1" class="edge">
<title>Node0&#45;&gt;Node1</title>
<path fill="none" stroke="midnightblue" d="M85,-37.18C93.61,-38.69 102.48,-40.26 110.71,-41.7"/>
<polygon fill="midnightblue" stroke="midnightblue" points="85.52,-33.72 75.06,-35.43 84.31,-40.61 85.52,-33.72"/>
</g>
<!-- Node2 -->
<g id="node3" class="node">
<title>Node2</title>
<g id="a_node3"><a xlink:href="classNull.html" target="_top" xlink:title="This class represents nothing (null).">
<polygon fill="white" stroke="black" points="119,-0.5 119,-19.5 176,-19.5 176,-0.5 119,-0.5"/>
<text text-anchor="middle" x="147.5" y="-7.5" font-family="Helvetica,sans-Serif" font-size="10.00">Null&lt; A &gt;</text>
</a>
</g>
</g>
<!-- Node0&#45;&gt;Node2 -->
<g id="edge2" class="edge">
<title>Node0&#45;&gt;Node2</title>
<path fill="none" stroke="midnightblue" d="M85.02,-20.82C96.56,-18.79 108.55,-16.68 118.85,-14.86"/>
<polygon fill="midnightblue" stroke="midnightblue" points="84.31,-17.39 75.06,-22.57 85.52,-24.28 84.31,-17.39"/>
</g>
</g>
</svg>
