<?xml version="1.0" encoding="UTF-8" standalone="no"?>
<!DOCTYPE svg PUBLIC "-//W3C//DTD SVG 1.1//EN"
 "http://www.w3.org/Graphics/SVG/1.1/DTD/svg11.dtd">
<!-- Generated by graphviz version 2.44.0 (0)
 -->
<!-- Title: Graphical Class Hierarchy Pages: 1 -->
<svg width="332pt" height="104pt"
 viewBox="0.00 0.00 332.00 104.00" xmlns="http://www.w3.org/2000/svg" xmlns:xlink="http://www.w3.org/1999/xlink">
<g id="graph0" class="graph" transform="scale(1 1) rotate(0) translate(4 100)">
<title>Graphical Class Hierarchy</title>
<polygon fill="white" stroke="transparent" points="-4,4 -4,-100 328,-100 328,4 -4,4"/>
<!-- Node0 -->
<g id="node1" class="node">
<title>Node0</title>
<g id="a_node1"><a xlink:href="classIList.html" target="_top" xlink:title="An interface for a generic list.">
<polygon fill="white" stroke="black" points="0,-19.5 0,-38.5 59,-38.5 59,-19.5 0,-19.5"/>
<text text-anchor="middle" x="29.5" y="-26.5" font-family="Helvetica,sans-Serif" font-size="10.00">IList&lt; A &gt;</text>
</a>
</g>
</g>
<!-- Node1 -->
<g id="node2" class="node">
<title>Node1</title>
<g id="a_node2"><a xlink:href="classArrayList.html" target="_top" xlink:title="An implementation of a list backed by a resizable array.">
<polygon fill="white" stroke="black" points="98.5,-38.5 98.5,-57.5 177.5,-57.5 177.5,-38.5 98.5,-38.5"/>
<text text-anchor="middle" x="138" y="-45.5" font-family="Helvetica,sans-Serif" font-size="10.00">ArrayList&lt; A &gt;</text>
</a>
</g>
</g>
<!-- Node0&#45;&gt;Node1 -->
<g id="edge1" class="edge">
<title>Node0&#45;&gt;Node1</title>
<path fill="none" stroke="midnightblue" d="M69.06,-35.88C78.6,-37.58 88.82,-39.41 98.37,-41.11"/>
<polygon fill="midnightblue" stroke="midnightblue" points="69.5,-32.4 59.04,-34.09 68.27,-39.29 69.5,-32.4"/>
</g>
<!-- Node5 -->
<g id="node6" class="node">
<title>Node5</title>
<g id="a_node6"><a xlink:href="classLinkedList.html" target="_top" xlink:title="An implementation of a singly&#45;linked list.">
<polygon fill="white" stroke="black" points="95,-0.5 95,-19.5 181,-19.5 181,-0.5 95,-0.5"/>
<text text-anchor="middle" x="138" y="-7.5" font-family="Helvetica,sans-Serif" font-size="10.00">LinkedList&lt; A &gt;</text>
</a>
</g>
</g>
<!-- Node0&#45;&gt;Node5 -->
<g id="edge5" class="edge">
<title>Node0&#45;&gt;Node5</title>
<path fill="none" stroke="midnightblue" d="M68.94,-22.14C77.32,-20.65 86.24,-19.06 94.76,-17.54"/>
<polygon fill="midnightblue" stroke="midnightblue" points="68.27,-18.71 59.04,-23.91 69.5,-25.6 68.27,-18.71"/>
</g>
<!-- Node2 -->
<g id="node3" class="node">
<title>Node2</title>
<g id="a_node3"><a xlink:href="classArraySet.html" target="_top" xlink:title="Literally an ArrayList but when adding items it checks if the element is already in the list.">
<polygon fill="white" stroke="black" points="232,-76.5 232,-95.5 309,-95.5 309,-76.5 232,-76.5"/>
<text text-anchor="middle" x="270.5" y="-83.5" font-family="Helvetica,sans-Serif" font-size="10.00">ArraySet&lt; A &gt;</text>
</a>
</g>
</g>
<!-- Node1&#45;&gt;Node2 -->
<g id="edge2" class="edge">
<title>Node1&#45;&gt;Node2</title>
<path fill="none" stroke="midnightblue" d="M181.55,-60.39C199.42,-65.59 219.89,-71.55 236.58,-76.41"/>
<polygon fill="midnightblue" stroke="midnightblue" points="182.51,-57.02 171.93,-57.59 180.55,-63.75 182.51,-57.02"/>
</g>
<!-- Node3 -->
<g id="node4" class="node">
<title>Node3</title>
<g id="a_node4"><a xlink:href="classSortedArrayList.html" target="_top" xlink:title="NOT IMPLEMENTED An array list that keeps itself sorted at all times.">
<polygon fill="white" stroke="black" points="217,-38.5 217,-57.5 324,-57.5 324,-38.5 217,-38.5"/>
<text text-anchor="middle" x="270.5" y="-45.5" font-family="Helvetica,sans-Serif" font-size="10.00">SortedArrayList&lt; A &gt;</text>
</a>
</g>
</g>
<!-- Node1&#45;&gt;Node3 -->
<g id="edge3" class="edge">
<title>Node1&#45;&gt;Node3</title>
<path fill="none" stroke="midnightblue" d="M188.07,-48C197.39,-48 207.17,-48 216.6,-48"/>
<polygon fill="midnightblue" stroke="midnightblue" points="187.8,-44.5 177.8,-48 187.8,-51.5 187.8,-44.5"/>
</g>
<!-- Node4 -->
<g id="node5" class="node">
<title>Node4</title>
<g id="a_node5"><a xlink:href="classStack.html" target="_top" xlink:title="An implementation of a stack leveraging ArrayList. Basically an ArrayList but most methods are privat...">
<polygon fill="white" stroke="black" points="238,-0.5 238,-19.5 303,-19.5 303,-0.5 238,-0.5"/>
<text text-anchor="middle" x="270.5" y="-7.5" font-family="Helvetica,sans-Serif" font-size="10.00">Stack&lt; A &gt;</text>
</a>
</g>
</g>
<!-- Node1&#45;&gt;Node4 -->
<g id="edge4" class="edge">
<title>Node1&#45;&gt;Node4</title>
<path fill="none" stroke="#8b1a1a" d="M181.78,-35.54C200.08,-30.21 221.07,-24.1 237.93,-19.19"/>
<polygon fill="#8b1a1a" stroke="#8b1a1a" points="180.55,-32.25 171.93,-38.41 182.51,-38.98 180.55,-32.25"/>
</g>
</g>
</svg>
