<?xml version="1.0" encoding="UTF-8" standalone="no"?>
<!DOCTYPE svg PUBLIC "-//W3C//DTD SVG 1.1//EN"
 "http://www.w3.org/Graphics/SVG/1.1/DTD/svg11.dtd">
<!-- Generated by graphviz version 2.44.0 (0)
 -->
<!-- Title: TravellersApp/src/parser/Interpreter.hpp Pages: 1 -->
<!--zoomable 431 -->
<svg id="main" version="1.1" xmlns="http://www.w3.org/2000/svg" xmlns:xlink="http://www.w3.org/1999/xlink" xml:space="preserve" onload="init(evt)">
<style type="text/css"><![CDATA[
.edge:hover path { stroke: red; }
.edge:hover polygon { stroke: red; fill: red; }
]]></style>
<script type="text/javascript"><![CDATA[
var edges = document.getElementsByTagName('g');
if (edges && edges.length) {
  for (var i=0;i<edges.length;i++) {
    if (edges[i].id.substr(0,4)=='edge') {
      edges[i].setAttribute('class','edge');
    }
  }
}
]]></script>
        <defs>
                <circle id="rim" cx="0" cy="0" r="7"/>
                <circle id="rim2" cx="0" cy="0" r="3.5"/>
                <g id="zoomPlus">
                        <use xlink:href="#rim" fill="#404040">
                                <set attributeName="fill" to="#808080" begin="zoomplus.mouseover" end="zoomplus.mouseout"/>
                        </use>
                        <path d="M-4,0h8M0,-4v8" fill="none" stroke="white" stroke-width="1.5" pointer-events="none"/>
                </g>
                <g id="zoomMin">
                        <use xlink:href="#rim" fill="#404040">
                                <set attributeName="fill" to="#808080" begin="zoomminus.mouseover" end="zoomminus.mouseout"/>
                        </use>
                        <path d="M-4,0h8" fill="none" stroke="white" stroke-width="1.5" pointer-events="none"/>
                </g>
                <g id="dirArrow">
                        <path fill="none" stroke="white" stroke-width="1.5" d="M0,-3.0v7 M-2.5,-0.5L0,-3.0L2.5,-0.5"/>
                </g>
               <g id="resetDef">
                       <use xlink:href="#rim2" fill="#404040">
                               <set attributeName="fill" to="#808080" begin="reset.mouseover" end="reset.mouseout"/>
                       </use>
               </g>
        </defs>

<script type="text/javascript">
var viewWidth = 1441;
var viewHeight = 431;
var sectionId = 'dynsection-0';
</script>
<script xlink:href="svgpan.js"/>
<svg id="graph" class="graph">
<g id="viewport">
<title>TravellersApp/src/parser/Interpreter.hpp</title>
<polygon fill="white" stroke="transparent" points="-4,4 -4,-427 1437,-427 1437,4 -4,4"/>
<!-- Node1 -->
<g id="node1" class="node">
<title>Node1</title>
<g id="a_node1"><a xlink:title=" ">
<polygon fill="#bfbfbf" stroke="black" points="702.5,-392.5 702.5,-422.5 825.5,-422.5 825.5,-392.5 702.5,-392.5"/>
<text text-anchor="start" x="710.5" y="-410.5" font-family="Helvetica,sans-Serif" font-size="10.00">TravellersApp/src/parser</text>
<text text-anchor="middle" x="764" y="-399.5" font-family="Helvetica,sans-Serif" font-size="10.00">/Interpreter.hpp</text>
</a>
</g>
</g>
<!-- Node2 -->
<g id="node2" class="node">
<title>Node2</title>
<g id="a_node2"><a xlink:href="InvalidArgumentException_8hpp.html" target="_top" xlink:title=" ">
<polygon fill="white" stroke="black" points="482.5,-56.5 482.5,-75.5 637.5,-75.5 637.5,-56.5 482.5,-56.5"/>
<text text-anchor="middle" x="560" y="-63.5" font-family="Helvetica,sans-Serif" font-size="10.00">../InvalidArgumentException.hpp</text>
</a>
</g>
</g>
<!-- Node1&#45;&gt;Node2 -->
<g id="edge1" class="edge">
<title>Node1&#45;&gt;Node2</title>
<path fill="none" stroke="midnightblue" d="M702.36,-404.68C626.61,-398.77 508,-375.96 508,-291 508,-291 508,-291 508,-177 508,-141.12 530.89,-104.42 546.3,-83.79"/>
<polygon fill="midnightblue" stroke="midnightblue" points="549.18,-85.79 552.55,-75.74 543.65,-81.5 549.18,-85.79"/>
</g>
<!-- Node3 -->
<g id="node3" class="node">
<title>Node3</title>
<g id="a_node3"><a xlink:title=" ">
<polygon fill="white" stroke="#bfbfbf" points="172,-0.5 172,-19.5 218,-19.5 218,-0.5 172,-0.5"/>
<text text-anchor="middle" x="195" y="-7.5" font-family="Helvetica,sans-Serif" font-size="10.00">cstring</text>
</a>
</g>
</g>
<!-- Node1&#45;&gt;Node3 -->
<g id="edge56" class="edge">
<title>Node1&#45;&gt;Node3</title>
<path fill="none" stroke="midnightblue" d="M702.35,-404.82C563.62,-400.53 230.61,-387.22 123,-356 63.62,-338.77 0,-352.83 0,-291 0,-291 0,-291 0,-121 0,-47.6 106.1,-22.64 161.77,-14.59"/>
<polygon fill="midnightblue" stroke="midnightblue" points="162.42,-18.03 171.87,-13.23 161.49,-11.09 162.42,-18.03"/>
</g>
<!-- Node5 -->
<g id="node5" class="node">
<title>Node5</title>
<g id="a_node5"><a xlink:title=" ">
<polygon fill="white" stroke="#bfbfbf" points="889,-0.5 889,-19.5 943,-19.5 943,-0.5 889,-0.5"/>
<text text-anchor="middle" x="916" y="-7.5" font-family="Helvetica,sans-Serif" font-size="10.00">iostream</text>
</a>
</g>
</g>
<!-- Node1&#45;&gt;Node5 -->
<g id="edge57" class="edge">
<title>Node1&#45;&gt;Node5</title>
<path fill="none" stroke="midnightblue" d="M825.67,-406.41C923.36,-404.94 1119,-396.61 1279,-356 1351.01,-337.72 1433,-365.29 1433,-291 1433,-291 1433,-291 1433,-121 1433,-22.79 1071.59,-11.91 953.11,-10.98"/>
<polygon fill="midnightblue" stroke="midnightblue" points="953.09,-7.48 943.07,-10.92 953.05,-14.48 953.09,-7.48"/>
</g>
<!-- Node6 -->
<g id="node6" class="node">
<title>Node6</title>
<g id="a_node6"><a xlink:href="ReachedEndOfStreamException_8hpp.html" target="_top" xlink:title=" ">
<polygon fill="white" stroke="black" points="104.5,-56.5 104.5,-75.5 285.5,-75.5 285.5,-56.5 104.5,-56.5"/>
<text text-anchor="middle" x="195" y="-63.5" font-family="Helvetica,sans-Serif" font-size="10.00">../ReachedEndOfStreamException.hpp</text>
</a>
</g>
</g>
<!-- Node1&#45;&gt;Node6 -->
<g id="edge5" class="edge">
<title>Node1&#45;&gt;Node6</title>
<path fill="none" stroke="midnightblue" d="M702.41,-403.16C527.12,-392.84 38,-358.04 38,-291 38,-291 38,-291 38,-177 38,-122.74 101.68,-92.98 147.93,-78.52"/>
<polygon fill="midnightblue" stroke="midnightblue" points="149.21,-81.79 157.79,-75.58 147.21,-75.08 149.21,-81.79"/>
</g>
<!-- Node7 -->
<g id="node7" class="node">
<title>Node7</title>
<g id="a_node7"><a xlink:href="WrongTokenTypeException_8hpp.html" target="_top" xlink:title=" ">
<polygon fill="white" stroke="black" points="304,-56.5 304,-75.5 464,-75.5 464,-56.5 304,-56.5"/>
<text text-anchor="middle" x="384" y="-63.5" font-family="Helvetica,sans-Serif" font-size="10.00">../WrongTokenTypeException.hpp</text>
</a>
</g>
</g>
<!-- Node1&#45;&gt;Node7 -->
<g id="edge9" class="edge">
<title>Node1&#45;&gt;Node7</title>
<path fill="none" stroke="midnightblue" d="M702.3,-401.17C651.76,-395.07 579.34,-382.28 521,-356 476.99,-336.17 434,-339.27 434,-291 434,-291 434,-291 434,-177 434,-141.18 411.76,-104.21 396.95,-83.56"/>
<polygon fill="midnightblue" stroke="midnightblue" points="399.73,-81.45 390.95,-75.52 394.12,-85.63 399.73,-81.45"/>
</g>
<!-- Node8 -->
<g id="node8" class="node">
<title>Node8</title>
<g id="a_node8"><a xlink:href="CommandList_8hpp.html" target="_top" xlink:title=" ">
<polygon fill="white" stroke="black" points="909.5,-336.5 909.5,-355.5 1004.5,-355.5 1004.5,-336.5 909.5,-336.5"/>
<text text-anchor="middle" x="957" y="-343.5" font-family="Helvetica,sans-Serif" font-size="10.00">CommandList.hpp</text>
</a>
</g>
</g>
<!-- Node1&#45;&gt;Node8 -->
<g id="edge13" class="edge">
<title>Node1&#45;&gt;Node8</title>
<path fill="none" stroke="midnightblue" d="M809.74,-392.4C843.23,-382.07 888.13,-368.23 919.52,-358.56"/>
<polygon fill="midnightblue" stroke="midnightblue" points="920.67,-361.86 929.2,-355.57 918.61,-355.17 920.67,-361.86"/>
</g>
<!-- Node14 -->
<g id="node14" class="node">
<title>Node14</title>
<g id="a_node14"><a xlink:title=" ">
<polygon fill="white" stroke="#bfbfbf" points="1246.5,-112.5 1246.5,-131.5 1291.5,-131.5 1291.5,-112.5 1246.5,-112.5"/>
<text text-anchor="middle" x="1269" y="-119.5" font-family="Helvetica,sans-Serif" font-size="10.00">cstdlib</text>
</a>
</g>
</g>
<!-- Node1&#45;&gt;Node14 -->
<g id="edge55" class="edge">
<title>Node1&#45;&gt;Node14</title>
<path fill="none" stroke="midnightblue" d="M825.58,-403.26C878.12,-398.4 954.38,-386.27 1014,-356 1124.32,-299.98 1222.45,-182.91 1256.38,-139.59"/>
<polygon fill="midnightblue" stroke="midnightblue" points="1259.28,-141.56 1262.63,-131.51 1253.74,-137.28 1259.28,-141.56"/>
</g>
<!-- Node23 -->
<g id="node23" class="node">
<title>Node23</title>
<g id="a_node23"><a xlink:href="Token_8hpp.html" target="_top" xlink:title=" ">
<polygon fill="white" stroke="black" points="1301,-280.5 1301,-299.5 1363,-299.5 1363,-280.5 1301,-280.5"/>
<text text-anchor="middle" x="1332" y="-287.5" font-family="Helvetica,sans-Serif" font-size="10.00">Token.hpp</text>
</a>
</g>
</g>
<!-- Node1&#45;&gt;Node23 -->
<g id="edge54" class="edge">
<title>Node1&#45;&gt;Node23</title>
<path fill="none" stroke="midnightblue" d="M825.65,-404.32C938.51,-399.63 1173.65,-386.45 1249,-356 1276.17,-345.02 1301.82,-322.35 1317.22,-306.91"/>
<polygon fill="midnightblue" stroke="midnightblue" points="1319.86,-309.21 1324.3,-299.59 1314.83,-304.35 1319.86,-309.21"/>
</g>
<!-- Node2&#45;&gt;Node3 -->
<g id="edge2" class="edge">
<title>Node2&#45;&gt;Node3</title>
<path fill="none" stroke="midnightblue" d="M502.16,-56.44C424.83,-45 290.27,-25.09 228.16,-15.91"/>
<polygon fill="midnightblue" stroke="midnightblue" points="228.54,-12.42 218.13,-14.42 227.51,-19.35 228.54,-12.42"/>
</g>
<!-- Node4 -->
<g id="node4" class="node">
<title>Node4</title>
<g id="a_node4"><a xlink:title=" ">
<polygon fill="white" stroke="#bfbfbf" points="443,-0.5 443,-19.5 501,-19.5 501,-0.5 443,-0.5"/>
<text text-anchor="middle" x="472" y="-7.5" font-family="Helvetica,sans-Serif" font-size="10.00">exception</text>
</a>
</g>
</g>
<!-- Node2&#45;&gt;Node4 -->
<g id="edge3" class="edge">
<title>Node2&#45;&gt;Node4</title>
<path fill="none" stroke="midnightblue" d="M545.86,-56.32C532.13,-47.9 511.06,-34.97 494.94,-25.07"/>
<polygon fill="midnightblue" stroke="midnightblue" points="496.46,-21.9 486.1,-19.65 492.8,-27.87 496.46,-21.9"/>
</g>
<!-- Node2&#45;&gt;Node5 -->
<g id="edge4" class="edge">
<title>Node2&#45;&gt;Node5</title>
<path fill="none" stroke="midnightblue" d="M616.41,-56.44C689.8,-45.31 816.03,-26.16 878.59,-16.67"/>
<polygon fill="midnightblue" stroke="midnightblue" points="879.43,-20.09 888.79,-15.13 878.38,-13.17 879.43,-20.09"/>
</g>
<!-- Node6&#45;&gt;Node3 -->
<g id="edge6" class="edge">
<title>Node6&#45;&gt;Node3</title>
<path fill="none" stroke="midnightblue" d="M195,-56.08C195,-49.01 195,-38.86 195,-29.99"/>
<polygon fill="midnightblue" stroke="midnightblue" points="198.5,-29.75 195,-19.75 191.5,-29.75 198.5,-29.75"/>
</g>
<!-- Node6&#45;&gt;Node4 -->
<g id="edge7" class="edge">
<title>Node6&#45;&gt;Node4</title>
<path fill="none" stroke="midnightblue" d="M238.89,-56.44C292.27,-46.04 381.56,-28.63 432.75,-18.65"/>
<polygon fill="midnightblue" stroke="midnightblue" points="433.61,-22.05 442.76,-16.7 432.27,-15.18 433.61,-22.05"/>
</g>
<!-- Node6&#45;&gt;Node5 -->
<g id="edge8" class="edge">
<title>Node6&#45;&gt;Node5</title>
<path fill="none" stroke="midnightblue" d="M285.75,-56.76C288.87,-56.5 291.96,-56.25 295,-56 516.19,-38.03 782,-19.94 878.61,-13.48"/>
<polygon fill="midnightblue" stroke="midnightblue" points="879,-16.96 888.75,-12.8 878.54,-9.98 879,-16.96"/>
</g>
<!-- Node7&#45;&gt;Node3 -->
<g id="edge10" class="edge">
<title>Node7&#45;&gt;Node3</title>
<path fill="none" stroke="midnightblue" d="M354.05,-56.44C319.76,-46.65 263.74,-30.64 228.15,-20.47"/>
<polygon fill="midnightblue" stroke="midnightblue" points="228.83,-17.03 218.25,-17.64 226.91,-23.76 228.83,-17.03"/>
</g>
<!-- Node7&#45;&gt;Node4 -->
<g id="edge11" class="edge">
<title>Node7&#45;&gt;Node4</title>
<path fill="none" stroke="midnightblue" d="M398.14,-56.32C411.87,-47.9 432.94,-34.97 449.06,-25.07"/>
<polygon fill="midnightblue" stroke="midnightblue" points="451.2,-27.87 457.9,-19.65 447.54,-21.9 451.2,-27.87"/>
</g>
<!-- Node7&#45;&gt;Node5 -->
<g id="edge12" class="edge">
<title>Node7&#45;&gt;Node5</title>
<path fill="none" stroke="midnightblue" d="M464.22,-56.86C580.98,-45.01 793.11,-23.47 878.7,-14.79"/>
<polygon fill="midnightblue" stroke="midnightblue" points="879.14,-18.26 888.74,-13.77 878.43,-11.3 879.14,-18.26"/>
</g>
<!-- Node9 -->
<g id="node9" class="node">
<title>Node9</title>
<g id="a_node9"><a xlink:href="SimpleString_8hpp.html" target="_top" xlink:title=" ">
<polygon fill="white" stroke="black" points="574,-112.5 574,-131.5 672,-131.5 672,-112.5 574,-112.5"/>
<text text-anchor="middle" x="623" y="-119.5" font-family="Helvetica,sans-Serif" font-size="10.00">../SimpleString.hpp</text>
</a>
</g>
</g>
<!-- Node8&#45;&gt;Node9 -->
<g id="edge14" class="edge">
<title>Node8&#45;&gt;Node9</title>
<path fill="none" stroke="midnightblue" d="M934.92,-336.45C914.6,-328.21 883.93,-314.84 859,-300 771.86,-248.12 678.32,-170.59 640.42,-138.14"/>
<polygon fill="midnightblue" stroke="midnightblue" points="642.67,-135.45 632.8,-131.58 638.1,-140.76 642.67,-135.45"/>
</g>
<!-- Node11 -->
<g id="node11" class="node">
<title>Node11</title>
<g id="a_node11"><a xlink:href="Nullable_8hpp.html" target="_top" xlink:title=" ">
<polygon fill="white" stroke="black" points="766.5,-112.5 766.5,-131.5 843.5,-131.5 843.5,-112.5 766.5,-112.5"/>
<text text-anchor="middle" x="805" y="-119.5" font-family="Helvetica,sans-Serif" font-size="10.00">../Nullable.hpp</text>
</a>
</g>
</g>
<!-- Node8&#45;&gt;Node11 -->
<g id="edge18" class="edge">
<title>Node8&#45;&gt;Node11</title>
<path fill="none" stroke="midnightblue" d="M939.31,-336.37C923.75,-328.28 901,-315.17 884,-300 839.67,-260.44 827.7,-245.02 811,-188 806.57,-172.86 805.18,-154.96 804.84,-141.79"/>
<polygon fill="midnightblue" stroke="midnightblue" points="808.34,-141.58 804.76,-131.61 801.34,-141.64 808.34,-141.58"/>
</g>
<!-- Node13 -->
<g id="node13" class="node">
<title>Node13</title>
<g id="a_node13"><a xlink:href="HashMap_8hpp.html" target="_top" xlink:title=" ">
<polygon fill="white" stroke="black" points="893,-280.5 893,-299.5 1021,-299.5 1021,-280.5 893,-280.5"/>
<text text-anchor="middle" x="957" y="-287.5" font-family="Helvetica,sans-Serif" font-size="10.00">../collection/HashMap.hpp</text>
</a>
</g>
</g>
<!-- Node8&#45;&gt;Node13 -->
<g id="edge25" class="edge">
<title>Node8&#45;&gt;Node13</title>
<path fill="none" stroke="midnightblue" d="M957,-336.08C957,-329.01 957,-318.86 957,-309.99"/>
<polygon fill="midnightblue" stroke="midnightblue" points="960.5,-309.75 957,-299.75 953.5,-309.75 960.5,-309.75"/>
</g>
<!-- Node15 -->
<g id="node15" class="node">
<title>Node15</title>
<g id="a_node15"><a xlink:title=" ">
<polygon fill="white" stroke="#bfbfbf" points="1177.5,-112.5 1177.5,-131.5 1228.5,-131.5 1228.5,-112.5 1177.5,-112.5"/>
<text text-anchor="middle" x="1203" y="-119.5" font-family="Helvetica,sans-Serif" font-size="10.00">memory</text>
</a>
</g>
</g>
<!-- Node8&#45;&gt;Node15 -->
<g id="edge53" class="edge">
<title>Node8&#45;&gt;Node15</title>
<path fill="none" stroke="midnightblue" d="M973.39,-336.38C988.68,-327.99 1011.81,-314.44 1030,-300 1095.49,-248 1161.38,-172.77 1189.22,-139.68"/>
<polygon fill="midnightblue" stroke="midnightblue" points="1192.02,-141.79 1195.75,-131.87 1186.65,-137.3 1192.02,-141.79"/>
</g>
<!-- Node22 -->
<g id="node22" class="node">
<title>Node22</title>
<g id="a_node22"><a xlink:href="ScannerContext_8hpp.html" target="_top" xlink:title=" ">
<polygon fill="white" stroke="black" points="1263,-224.5 1263,-243.5 1367,-243.5 1367,-224.5 1263,-224.5"/>
<text text-anchor="middle" x="1315" y="-231.5" font-family="Helvetica,sans-Serif" font-size="10.00">ScannerContext.hpp</text>
</a>
</g>
</g>
<!-- Node8&#45;&gt;Node22 -->
<g id="edge49" class="edge">
<title>Node8&#45;&gt;Node22</title>
<path fill="none" stroke="midnightblue" d="M1004.8,-341.99C1056.97,-337.48 1142.24,-326.43 1211,-300 1243.23,-287.61 1276.36,-264.84 1296.31,-249.8"/>
<polygon fill="midnightblue" stroke="midnightblue" points="1298.71,-252.38 1304.51,-243.51 1294.45,-246.83 1298.71,-252.38"/>
</g>
<!-- Node8&#45;&gt;Node23 -->
<g id="edge51" class="edge">
<title>Node8&#45;&gt;Node23</title>
<path fill="none" stroke="midnightblue" d="M1004.68,-339.44C1068.97,-331.72 1186.93,-316.81 1287,-300 1288.1,-299.82 1289.21,-299.62 1290.34,-299.43"/>
<polygon fill="midnightblue" stroke="midnightblue" points="1291.37,-302.8 1300.57,-297.54 1290.11,-295.91 1291.37,-302.8"/>
</g>
<!-- Node9&#45;&gt;Node3 -->
<g id="edge16" class="edge">
<title>Node9&#45;&gt;Node3</title>
<path fill="none" stroke="midnightblue" d="M573.75,-120.5C448.96,-118.73 127.95,-110.79 96,-76 72.17,-50.04 124.62,-29.71 161.89,-19.1"/>
<polygon fill="midnightblue" stroke="midnightblue" points="163.2,-22.37 171.93,-16.37 161.36,-15.62 163.2,-22.37"/>
</g>
<!-- Node9&#45;&gt;Node5 -->
<g id="edge17" class="edge">
<title>Node9&#45;&gt;Node5</title>
<path fill="none" stroke="midnightblue" d="M628.79,-112.2C638.69,-97.94 660.31,-69.94 686,-56 747.84,-22.45 831.08,-13.69 878.59,-11.54"/>
<polygon fill="midnightblue" stroke="midnightblue" points="878.87,-15.03 888.73,-11.16 878.61,-8.04 878.87,-15.03"/>
</g>
<!-- Node10 -->
<g id="node10" class="node">
<title>Node10</title>
<g id="a_node10"><a xlink:href="debug_8hpp.html" target="_top" xlink:title=" ">
<polygon fill="white" stroke="black" points="694.5,-56.5 694.5,-75.5 755.5,-75.5 755.5,-56.5 694.5,-56.5"/>
<text text-anchor="middle" x="725" y="-63.5" font-family="Helvetica,sans-Serif" font-size="10.00">debug.hpp</text>
</a>
</g>
</g>
<!-- Node9&#45;&gt;Node10 -->
<g id="edge15" class="edge">
<title>Node9&#45;&gt;Node10</title>
<path fill="none" stroke="midnightblue" d="M639.39,-112.32C655.67,-103.7 680.87,-90.36 699.72,-80.39"/>
<polygon fill="midnightblue" stroke="midnightblue" points="701.45,-83.43 708.65,-75.65 698.18,-77.24 701.45,-83.43"/>
</g>
<!-- Node11&#45;&gt;Node5 -->
<g id="edge24" class="edge">
<title>Node11&#45;&gt;Node5</title>
<path fill="none" stroke="midnightblue" d="M837.31,-112.5C857.16,-105.7 881.65,-94.22 897,-76 908,-62.95 912.63,-43.79 914.58,-29.66"/>
<polygon fill="midnightblue" stroke="midnightblue" points="918.08,-29.92 915.64,-19.61 911.11,-29.18 918.08,-29.92"/>
</g>
<!-- Node11&#45;&gt;Node10 -->
<g id="edge23" class="edge">
<title>Node11&#45;&gt;Node10</title>
<path fill="none" stroke="midnightblue" d="M792.15,-112.32C779.78,-103.98 760.87,-91.21 746.26,-81.35"/>
<polygon fill="midnightblue" stroke="midnightblue" points="748.07,-78.35 737.82,-75.65 744.15,-84.15 748.07,-78.35"/>
</g>
<!-- Node12 -->
<g id="node12" class="node">
<title>Node12</title>
<g id="a_node12"><a xlink:href="NoValueException_8hpp.html" target="_top" xlink:title=" ">
<polygon fill="white" stroke="black" points="774,-56.5 774,-75.5 888,-75.5 888,-56.5 774,-56.5"/>
<text text-anchor="middle" x="831" y="-63.5" font-family="Helvetica,sans-Serif" font-size="10.00">NoValueException.hpp</text>
</a>
</g>
</g>
<!-- Node11&#45;&gt;Node12 -->
<g id="edge19" class="edge">
<title>Node11&#45;&gt;Node12</title>
<path fill="none" stroke="midnightblue" d="M809.29,-112.08C812.85,-104.69 818.02,-93.95 822.42,-84.81"/>
<polygon fill="midnightblue" stroke="midnightblue" points="825.6,-86.28 826.79,-75.75 819.29,-83.24 825.6,-86.28"/>
</g>
<!-- Node12&#45;&gt;Node3 -->
<g id="edge20" class="edge">
<title>Node12&#45;&gt;Node3</title>
<path fill="none" stroke="midnightblue" d="M773.79,-57C770.82,-56.64 767.87,-56.31 765,-56 561.53,-34.11 316.13,-18.3 228.28,-12.96"/>
<polygon fill="midnightblue" stroke="midnightblue" points="228.31,-9.46 218.12,-12.35 227.89,-16.45 228.31,-9.46"/>
</g>
<!-- Node12&#45;&gt;Node4 -->
<g id="edge21" class="edge">
<title>Node12&#45;&gt;Node4</title>
<path fill="none" stroke="midnightblue" d="M774.12,-56.44C700.7,-45.4 574.86,-26.47 511.26,-16.91"/>
<polygon fill="midnightblue" stroke="midnightblue" points="511.65,-13.42 501.24,-15.4 510.6,-20.35 511.65,-13.42"/>
</g>
<!-- Node12&#45;&gt;Node5 -->
<g id="edge22" class="edge">
<title>Node12&#45;&gt;Node5</title>
<path fill="none" stroke="midnightblue" d="M844.66,-56.32C857.92,-47.9 878.27,-34.97 893.85,-25.07"/>
<polygon fill="midnightblue" stroke="midnightblue" points="895.81,-27.97 902.38,-19.65 892.06,-22.06 895.81,-27.97"/>
</g>
<!-- Node13&#45;&gt;Node3 -->
<g id="edge27" class="edge">
<title>Node13&#45;&gt;Node3</title>
<path fill="none" stroke="midnightblue" d="M892.84,-283.33C709,-265.61 186.98,-204.65 86,-76 62.22,-45.71 121.72,-26.48 161.87,-17.33"/>
<polygon fill="midnightblue" stroke="midnightblue" points="162.81,-20.71 171.85,-15.17 161.33,-13.86 162.81,-20.71"/>
</g>
<!-- Node13&#45;&gt;Node10 -->
<g id="edge30" class="edge">
<title>Node13&#45;&gt;Node10</title>
<path fill="none" stroke="midnightblue" d="M922.38,-280.44C897.9,-273.29 865.11,-261.44 840,-244 785.43,-206.1 771.83,-190.85 741,-132 733.42,-117.52 729.34,-99.34 727.2,-85.89"/>
<polygon fill="midnightblue" stroke="midnightblue" points="730.65,-85.32 725.83,-75.89 723.72,-86.27 730.65,-85.32"/>
</g>
<!-- Node13&#45;&gt;Node11 -->
<g id="edge48" class="edge">
<title>Node13&#45;&gt;Node11</title>
<path fill="none" stroke="midnightblue" d="M932.45,-280.42C913.05,-272.84 886.02,-260.44 866,-244 841.75,-224.08 837,-216.08 823,-188 815.65,-173.26 810.95,-155.1 808.2,-141.73"/>
<polygon fill="midnightblue" stroke="midnightblue" points="811.62,-140.98 806.33,-131.8 804.74,-142.27 811.62,-140.98"/>
</g>
<!-- Node13&#45;&gt;Node14 -->
<g id="edge26" class="edge">
<title>Node13&#45;&gt;Node14</title>
<path fill="none" stroke="midnightblue" d="M977.35,-280.39C997.54,-271.69 1029.26,-257.64 1056,-244 1126.55,-208.02 1207.17,-160.36 1245.88,-137.05"/>
<polygon fill="midnightblue" stroke="midnightblue" points="1248.03,-139.84 1254.78,-131.67 1244.41,-133.84 1248.03,-139.84"/>
</g>
<!-- Node13&#45;&gt;Node15 -->
<g id="edge28" class="edge">
<title>Node13&#45;&gt;Node15</title>
<path fill="none" stroke="midnightblue" d="M971.2,-280.41C985.82,-271.5 1009.19,-257.07 1029,-244 1085.43,-206.78 1150.48,-160.66 1182.72,-137.59"/>
<polygon fill="midnightblue" stroke="midnightblue" points="1184.82,-140.39 1190.91,-131.72 1180.74,-134.7 1184.82,-140.39"/>
</g>
<!-- Node16 -->
<g id="node16" class="node">
<title>Node16</title>
<g id="a_node16"><a xlink:title=" ">
<polygon fill="white" stroke="#bfbfbf" points="1097,-112.5 1097,-131.5 1159,-131.5 1159,-112.5 1097,-112.5"/>
<text text-anchor="middle" x="1128" y="-119.5" font-family="Helvetica,sans-Serif" font-size="10.00">type_traits</text>
</a>
</g>
</g>
<!-- Node13&#45;&gt;Node16 -->
<g id="edge29" class="edge">
<title>Node13&#45;&gt;Node16</title>
<path fill="none" stroke="midnightblue" d="M966.22,-280.39C975.89,-271.35 991.54,-256.7 1005,-244 1031.3,-219.19 1038.2,-213.33 1064,-188 1080.84,-171.46 1099.77,-152.14 1112.65,-138.89"/>
<polygon fill="midnightblue" stroke="midnightblue" points="1115.36,-141.12 1119.81,-131.5 1110.33,-136.25 1115.36,-141.12"/>
</g>
<!-- Node17 -->
<g id="node17" class="node">
<title>Node17</title>
<g id="a_node17"><a xlink:href="ArrayList_8hpp.html" target="_top" xlink:title=" ">
<polygon fill="white" stroke="black" points="875,-224.5 875,-243.5 949,-243.5 949,-224.5 875,-224.5"/>
<text text-anchor="middle" x="912" y="-231.5" font-family="Helvetica,sans-Serif" font-size="10.00">ArrayList.hpp</text>
</a>
</g>
</g>
<!-- Node13&#45;&gt;Node17 -->
<g id="edge31" class="edge">
<title>Node13&#45;&gt;Node17</title>
<path fill="none" stroke="midnightblue" d="M949.57,-280.08C943.15,-272.38 933.69,-261.03 925.88,-251.65"/>
<polygon fill="midnightblue" stroke="midnightblue" points="928.38,-249.19 919.29,-243.75 923.01,-253.67 928.38,-249.19"/>
</g>
<!-- Node20 -->
<g id="node20" class="node">
<title>Node20</title>
<g id="a_node20"><a xlink:href="Tuple_8hpp.html" target="_top" xlink:title=" ">
<polygon fill="white" stroke="black" points="995.5,-168.5 995.5,-187.5 1054.5,-187.5 1054.5,-168.5 995.5,-168.5"/>
<text text-anchor="middle" x="1025" y="-175.5" font-family="Helvetica,sans-Serif" font-size="10.00">Tuple.hpp</text>
</a>
</g>
</g>
<!-- Node13&#45;&gt;Node20 -->
<g id="edge47" class="edge">
<title>Node13&#45;&gt;Node20</title>
<path fill="none" stroke="midnightblue" d="M962.34,-280.37C973.51,-262.3 999.55,-220.18 1014.3,-196.31"/>
<polygon fill="midnightblue" stroke="midnightblue" points="1017.41,-197.94 1019.69,-187.59 1011.45,-194.26 1017.41,-197.94"/>
</g>
<!-- Node17&#45;&gt;Node2 -->
<g id="edge35" class="edge">
<title>Node17&#45;&gt;Node2</title>
<path fill="none" stroke="midnightblue" d="M874.83,-227.56C793.62,-214.87 604.51,-180.64 565,-132 554.64,-119.24 554.42,-100.05 556.18,-85.82"/>
<polygon fill="midnightblue" stroke="midnightblue" points="559.67,-86.13 557.85,-75.7 552.77,-84.99 559.67,-86.13"/>
</g>
<!-- Node17&#45;&gt;Node5 -->
<g id="edge33" class="edge">
<title>Node17&#45;&gt;Node5</title>
<path fill="none" stroke="midnightblue" d="M901.84,-224.19C893.09,-215.87 881.1,-202.54 876,-188 867.7,-164.33 891.59,-112.88 892,-112 900.07,-94.55 910.43,-94.4 916,-76 920.55,-60.96 920.15,-43.06 918.84,-29.85"/>
<polygon fill="midnightblue" stroke="midnightblue" points="922.28,-29.13 917.56,-19.64 915.33,-30 922.28,-29.13"/>
</g>
<!-- Node17&#45;&gt;Node10 -->
<g id="edge36" class="edge">
<title>Node17&#45;&gt;Node10</title>
<path fill="none" stroke="midnightblue" d="M890.65,-224.4C857.62,-210.05 794.19,-178.18 758,-132 746.68,-117.55 737.59,-98.61 731.84,-84.91"/>
<polygon fill="midnightblue" stroke="midnightblue" points="735.09,-83.59 728.12,-75.61 728.59,-86.19 735.09,-83.59"/>
</g>
<!-- Node17&#45;&gt;Node11 -->
<g id="edge37" class="edge">
<title>Node17&#45;&gt;Node11</title>
<path fill="none" stroke="midnightblue" d="M894.21,-224.39C879.22,-216.48 857.89,-203.64 843,-188 829.93,-174.27 819.47,-155.24 812.86,-141.31"/>
<polygon fill="midnightblue" stroke="midnightblue" points="815.89,-139.51 808.58,-131.84 809.51,-142.39 815.89,-139.51"/>
</g>
<!-- Node17&#45;&gt;Node15 -->
<g id="edge34" class="edge">
<title>Node17&#45;&gt;Node15</title>
<path fill="none" stroke="midnightblue" d="M946.29,-224.42C977.42,-216.26 1024.37,-203.03 1064,-188 1104.77,-172.53 1150.24,-150.27 1177.72,-136.22"/>
<polygon fill="midnightblue" stroke="midnightblue" points="1179.37,-139.31 1186.66,-131.62 1176.16,-133.09 1179.37,-139.31"/>
</g>
<!-- Node18 -->
<g id="node18" class="node">
<title>Node18</title>
<g id="a_node18"><a xlink:title=" ">
<polygon fill="white" stroke="#bfbfbf" points="900.5,-112.5 900.5,-131.5 959.5,-131.5 959.5,-112.5 900.5,-112.5"/>
<text text-anchor="middle" x="930" y="-119.5" font-family="Helvetica,sans-Serif" font-size="10.00">functional</text>
</a>
</g>
</g>
<!-- Node17&#45;&gt;Node18 -->
<g id="edge32" class="edge">
<title>Node17&#45;&gt;Node18</title>
<path fill="none" stroke="midnightblue" d="M922.16,-224.19C930.91,-215.87 942.9,-202.54 948,-188 953.56,-172.15 947.24,-153.66 940.6,-140.46"/>
<polygon fill="midnightblue" stroke="midnightblue" points="943.57,-138.58 935.66,-131.53 937.44,-141.97 943.57,-138.58"/>
</g>
<!-- Node19 -->
<g id="node19" class="node">
<title>Node19</title>
<g id="a_node19"><a xlink:href="IList_8hpp.html" target="_top" xlink:title=" ">
<polygon fill="white" stroke="black" points="885,-168.5 885,-187.5 939,-187.5 939,-168.5 885,-168.5"/>
<text text-anchor="middle" x="912" y="-175.5" font-family="Helvetica,sans-Serif" font-size="10.00">IList.hpp</text>
</a>
</g>
</g>
<!-- Node17&#45;&gt;Node19 -->
<g id="edge38" class="edge">
<title>Node17&#45;&gt;Node19</title>
<path fill="none" stroke="midnightblue" d="M912,-224.08C912,-217.01 912,-206.86 912,-197.99"/>
<polygon fill="midnightblue" stroke="midnightblue" points="915.5,-197.75 912,-187.75 908.5,-197.75 915.5,-197.75"/>
</g>
<!-- Node17&#45;&gt;Node20 -->
<g id="edge41" class="edge">
<title>Node17&#45;&gt;Node20</title>
<path fill="none" stroke="midnightblue" d="M929.91,-224.44C948.25,-215.68 977.01,-201.94 998.09,-191.86"/>
<polygon fill="midnightblue" stroke="midnightblue" points="999.67,-194.99 1007.18,-187.52 996.65,-188.67 999.67,-194.99"/>
</g>
<!-- Node19&#45;&gt;Node11 -->
<g id="edge39" class="edge">
<title>Node19&#45;&gt;Node11</title>
<path fill="none" stroke="midnightblue" d="M894.81,-168.32C877.65,-159.66 851.05,-146.24 831.25,-136.25"/>
<polygon fill="midnightblue" stroke="midnightblue" points="832.65,-133.04 822.15,-131.65 829.5,-139.28 832.65,-133.04"/>
</g>
<!-- Node19&#45;&gt;Node15 -->
<g id="edge40" class="edge">
<title>Node19&#45;&gt;Node15</title>
<path fill="none" stroke="midnightblue" d="M939.04,-172.95C984.19,-166.05 1077.98,-151.06 1167.4,-131.98"/>
<polygon fill="midnightblue" stroke="midnightblue" points="1168.4,-135.34 1177.44,-129.82 1166.93,-128.5 1168.4,-135.34"/>
</g>
<!-- Node20&#45;&gt;Node5 -->
<g id="edge45" class="edge">
<title>Node20&#45;&gt;Node5</title>
<path fill="none" stroke="midnightblue" d="M1032.87,-168.37C1043.41,-155.7 1059.71,-131.48 1050,-112 1028.56,-69 979.12,-39.48 946.67,-23.92"/>
<polygon fill="midnightblue" stroke="midnightblue" points="947.73,-20.56 937.19,-19.54 944.8,-26.92 947.73,-20.56"/>
</g>
<!-- Node20&#45;&gt;Node14 -->
<g id="edge43" class="edge">
<title>Node20&#45;&gt;Node14</title>
<path fill="none" stroke="midnightblue" d="M1054.79,-171.43C1094.27,-163.9 1166.26,-149.61 1236.47,-132.25"/>
<polygon fill="midnightblue" stroke="midnightblue" points="1237.51,-135.6 1246.37,-129.78 1235.82,-128.81 1237.51,-135.6"/>
</g>
<!-- Node20&#45;&gt;Node16 -->
<g id="edge46" class="edge">
<title>Node20&#45;&gt;Node16</title>
<path fill="none" stroke="midnightblue" d="M1041.55,-168.32C1057.99,-159.7 1083.43,-146.36 1102.47,-136.39"/>
<polygon fill="midnightblue" stroke="midnightblue" points="1104.26,-139.4 1111.49,-131.65 1101.01,-133.2 1104.26,-139.4"/>
</g>
<!-- Node20&#45;&gt;Node18 -->
<g id="edge44" class="edge">
<title>Node20&#45;&gt;Node18</title>
<path fill="none" stroke="midnightblue" d="M1009.74,-168.32C994.78,-159.82 971.75,-146.73 954.27,-136.8"/>
<polygon fill="midnightblue" stroke="midnightblue" points="955.65,-133.55 945.23,-131.65 952.19,-139.64 955.65,-133.55"/>
</g>
<!-- Node21 -->
<g id="node21" class="node">
<title>Node21</title>
<g id="a_node21"><a xlink:href="ttype_8hpp.html" target="_top" xlink:title=" ">
<polygon fill="white" stroke="black" points="977.5,-112.5 977.5,-131.5 1040.5,-131.5 1040.5,-112.5 977.5,-112.5"/>
<text text-anchor="middle" x="1009" y="-119.5" font-family="Helvetica,sans-Serif" font-size="10.00">../ttype.hpp</text>
</a>
</g>
</g>
<!-- Node20&#45;&gt;Node21 -->
<g id="edge42" class="edge">
<title>Node20&#45;&gt;Node21</title>
<path fill="none" stroke="midnightblue" d="M1022.36,-168.08C1020.21,-160.85 1017.12,-150.41 1014.45,-141.4"/>
<polygon fill="midnightblue" stroke="midnightblue" points="1017.79,-140.34 1011.59,-131.75 1011.08,-142.33 1017.79,-140.34"/>
</g>
<!-- Node22&#45;&gt;Node5 -->
<g id="edge50" class="edge">
<title>Node22&#45;&gt;Node5</title>
<path fill="none" stroke="midnightblue" d="M1316.94,-224.41C1321.3,-202.64 1329.41,-144.74 1301,-112 1255.09,-59.09 1040.39,-26.63 953.07,-15.42"/>
<polygon fill="midnightblue" stroke="midnightblue" points="953.44,-11.94 943.08,-14.16 952.56,-18.89 953.44,-11.94"/>
</g>
<!-- Node23&#45;&gt;Node5 -->
<g id="edge52" class="edge">
<title>Node23&#45;&gt;Node5</title>
<path fill="none" stroke="midnightblue" d="M1343.34,-280.18C1353.31,-271.86 1367.5,-258.52 1376,-244 1391.2,-218.02 1395,-209.1 1395,-179 1395,-179 1395,-179 1395,-121 1395,-30.49 1066.02,-14.45 953.34,-11.61"/>
<polygon fill="midnightblue" stroke="midnightblue" points="953.2,-8.11 943.13,-11.37 953.04,-15.1 953.2,-8.11"/>
</g>
</g>
</svg>
        <g id="navigator" transform="translate(0 0)" fill="#404254">
                <rect fill="#f2f5e9" fill-opacity="0.5" stroke="#606060" stroke-width=".5" x="0" y="0" width="60" height="60"/>
                <use id="zoomplus" xlink:href="#zoomPlus" x="17" y="9" onmousedown="handleZoom(evt,'in')"/>
                <use id="zoomminus" xlink:href="#zoomMin" x="42" y="9" onmousedown="handleZoom(evt,'out')"/>
                <use id="reset" xlink:href="#resetDef" x="30" y="36" onmousedown="handleReset()"/>
                <g id="arrowUp" xlink:href="#dirArrow" transform="translate(30 24)" onmousedown="handlePan(0,-1)">
                  <use xlink:href="#rim" fill="#404040">
                        <set attributeName="fill" to="#808080" begin="arrowUp.mouseover" end="arrowUp.mouseout"/>
                  </use>
                  <path fill="none" stroke="white" stroke-width="1.5" d="M0,-3.0v7 M-2.5,-0.5L0,-3.0L2.5,-0.5"/>
                </g>
                <g id="arrowRight" xlink:href="#dirArrow" transform="rotate(90) translate(36 -43)" onmousedown="handlePan(1,0)">
                  <use xlink:href="#rim" fill="#404040">
                        <set attributeName="fill" to="#808080" begin="arrowRight.mouseover" end="arrowRight.mouseout"/>
                  </use>
                  <path fill="none" stroke="white" stroke-width="1.5" d="M0,-3.0v7 M-2.5,-0.5L0,-3.0L2.5,-0.5"/>
                </g>
                <g id="arrowDown" xlink:href="#dirArrow" transform="rotate(180) translate(-30 -48)" onmousedown="handlePan(0,1)">
                  <use xlink:href="#rim" fill="#404040">
                        <set attributeName="fill" to="#808080" begin="arrowDown.mouseover" end="arrowDown.mouseout"/>
                  </use>
                  <path fill="none" stroke="white" stroke-width="1.5" d="M0,-3.0v7 M-2.5,-0.5L0,-3.0L2.5,-0.5"/>
                </g>
                <g id="arrowLeft" xlink:href="#dirArrow" transform="rotate(270) translate(-36 17)" onmousedown="handlePan(-1,0)">
                  <use xlink:href="#rim" fill="#404040">
                        <set attributeName="fill" to="#808080" begin="arrowLeft.mouseover" end="arrowLeft.mouseout"/>
                  </use>
                  <path fill="none" stroke="white" stroke-width="1.5" d="M0,-3.0v7 M-2.5,-0.5L0,-3.0L2.5,-0.5"/>
                </g>
        </g>
        <svg viewBox="0 0 15 15" width="100%" height="30px" preserveAspectRatio="xMaxYMin meet">
         <g id="arrow_out" transform="scale(0.3 0.3)">
          <a xlink:href="Interpreter_8hpp__incl_org.svg" target="_base">
           <rect id="button" ry="5" rx="5" y="6" x="6" height="38" width="38"
                fill="#f2f5e9" fill-opacity="0.5" stroke="#606060" stroke-width="1.0"/>
           <path id="arrow"
             d="M 11.500037,31.436501 C 11.940474,20.09759 22.043105,11.32322 32.158766,21.979434 L 37.068811,17.246167 C 37.068811,17.246167 37.088388,32 37.088388,32 L 22.160133,31.978069 C 22.160133,31.978069 26.997745,27.140456 26.997745,27.140456 C 18.528582,18.264221 13.291696,25.230495 11.500037,31.436501 z"
             style="fill:#404040;"/>
          </a>
         </g>
        </svg>
</svg>
