<?xml version="1.0" encoding="UTF-8" standalone="no"?>
<!DOCTYPE svg PUBLIC "-//W3C//DTD SVG 1.1//EN"
 "http://www.w3.org/Graphics/SVG/1.1/DTD/svg11.dtd">
<!-- Generated by graphviz version 2.44.0 (0)
 -->
<!-- Title: TravellersApp/src/InvalidArgumentException.hpp Pages: 1 -->
<svg width="1388pt" height="642pt"
 viewBox="0.00 0.00 1387.50 642.00" xmlns="http://www.w3.org/2000/svg" xmlns:xlink="http://www.w3.org/1999/xlink">
<g id="graph0" class="graph" transform="scale(1 1) rotate(0) translate(4 638)">
<title>TravellersApp/src/InvalidArgumentException.hpp</title>
<polygon fill="white" stroke="transparent" points="-4,4 -4,-638 1383.5,-638 1383.5,4 -4,4"/>
<!-- Node1 -->
<g id="node1" class="node">
<title>Node1</title>
<g id="a_node1"><a xlink:title=" ">
<polygon fill="#bfbfbf" stroke="black" points="658.5,-603.5 658.5,-633.5 783.5,-633.5 783.5,-603.5 658.5,-603.5"/>
<text text-anchor="start" x="666.5" y="-621.5" font-family="Helvetica,sans-Serif" font-size="10.00">TravellersApp/src/Invalid</text>
<text text-anchor="middle" x="721" y="-610.5" font-family="Helvetica,sans-Serif" font-size="10.00">ArgumentException.hpp</text>
</a>
</g>
</g>
<!-- Node2 -->
<g id="node2" class="node">
<title>Node2</title>
<g id="a_node2"><a xlink:href="ArrayList_8hpp.html" target="_top" xlink:title=" ">
<polygon fill="white" stroke="black" points="652.5,-536.5 652.5,-566.5 789.5,-566.5 789.5,-536.5 652.5,-536.5"/>
<text text-anchor="start" x="660.5" y="-554.5" font-family="Helvetica,sans-Serif" font-size="10.00">TravellersApp/src/collection</text>
<text text-anchor="middle" x="721" y="-543.5" font-family="Helvetica,sans-Serif" font-size="10.00">/ArrayList.hpp</text>
</a>
</g>
</g>
<!-- Node1&#45;&gt;Node2 -->
<g id="edge1" class="edge">
<title>Node1&#45;&gt;Node2</title>
<path fill="none" stroke="midnightblue" d="M721,-593.11C721,-584.15 721,-574.32 721,-566.58"/>
<polygon fill="midnightblue" stroke="midnightblue" points="717.5,-593.4 721,-603.4 724.5,-593.4 717.5,-593.4"/>
</g>
<!-- Node14 -->
<g id="node14" class="node">
<title>Node14</title>
<g id="a_node14"><a xlink:href="HTLInterpreter_8hpp.html" target="_top" xlink:title=" ">
<polygon fill="white" stroke="black" points="229.5,-67.5 229.5,-97.5 352.5,-97.5 352.5,-67.5 229.5,-67.5"/>
<text text-anchor="start" x="237.5" y="-85.5" font-family="Helvetica,sans-Serif" font-size="10.00">TravellersApp/src/parser</text>
<text text-anchor="middle" x="291" y="-74.5" font-family="Helvetica,sans-Serif" font-size="10.00">/HTLInterpreter.hpp</text>
</a>
</g>
</g>
<!-- Node1&#45;&gt;Node14 -->
<g id="edge49" class="edge">
<title>Node1&#45;&gt;Node14</title>
<path fill="none" stroke="midnightblue" d="M647.98,-615.53C485.68,-610.65 105.28,-596.22 55,-567 17.22,-545.04 0,-529.2 0,-485.5 0,-485.5 0,-485.5 0,-349.5 0,-214.15 173.64,-129.18 252.66,-97.52"/>
<polygon fill="midnightblue" stroke="midnightblue" points="648.25,-619.04 658.35,-615.84 648.46,-612.05 648.25,-619.04"/>
</g>
<!-- Node16 -->
<g id="node16" class="node">
<title>Node16</title>
<g id="a_node16"><a xlink:href="LoginInterpreter_8hpp.html" target="_top" xlink:title=" ">
<polygon fill="white" stroke="black" points="511.5,-67.5 511.5,-97.5 634.5,-97.5 634.5,-67.5 511.5,-67.5"/>
<text text-anchor="start" x="519.5" y="-85.5" font-family="Helvetica,sans-Serif" font-size="10.00">TravellersApp/src/parser</text>
<text text-anchor="middle" x="573" y="-74.5" font-family="Helvetica,sans-Serif" font-size="10.00">/LoginInterpreter.hpp</text>
</a>
</g>
</g>
<!-- Node1&#45;&gt;Node16 -->
<g id="edge51" class="edge">
<title>Node1&#45;&gt;Node16</title>
<path fill="none" stroke="midnightblue" d="M648.02,-618.39C506.28,-619.02 199.55,-614.62 107,-567 64.8,-545.29 38,-532.96 38,-485.5 38,-485.5 38,-485.5 38,-349.5 38,-310.08 43.64,-294.31 73,-268 113.84,-231.41 142.63,-257.81 191,-232 210.23,-221.74 210.37,-212.32 229,-201 293.13,-162.02 313.11,-158.64 384,-134 425.87,-119.45 474.16,-106.61 511.45,-97.52"/>
<polygon fill="midnightblue" stroke="midnightblue" points="648.36,-621.89 658.34,-618.34 648.32,-614.89 648.36,-621.89"/>
</g>
<!-- Node18 -->
<g id="node18" class="node">
<title>Node18</title>
<g id="a_node18"><a xlink:href="VisitInterpreter_8hpp.html" target="_top" xlink:title=" ">
<polygon fill="white" stroke="black" points="893.5,-67.5 893.5,-97.5 1016.5,-97.5 1016.5,-67.5 893.5,-67.5"/>
<text text-anchor="start" x="901.5" y="-85.5" font-family="Helvetica,sans-Serif" font-size="10.00">TravellersApp/src/parser</text>
<text text-anchor="middle" x="955" y="-74.5" font-family="Helvetica,sans-Serif" font-size="10.00">/VisitInterpreter.hpp</text>
</a>
</g>
</g>
<!-- Node1&#45;&gt;Node18 -->
<g id="edge52" class="edge">
<title>Node1&#45;&gt;Node18</title>
<path fill="none" stroke="midnightblue" d="M793.77,-605.47C897.12,-586.28 1074,-544.78 1074,-485.5 1074,-485.5 1074,-485.5 1074,-215.5 1074,-160.73 1016.79,-118.45 981.71,-97.67"/>
<polygon fill="midnightblue" stroke="midnightblue" points="792.91,-602.06 783.7,-607.31 794.17,-608.95 792.91,-602.06"/>
</g>
<!-- Node23 -->
<g id="node23" class="node">
<title>Node23</title>
<g id="a_node23"><a xlink:href="Interpreter_8hpp.html" target="_top" xlink:title=" ">
<polygon fill="white" stroke="black" points="392.5,-134.5 392.5,-164.5 515.5,-164.5 515.5,-134.5 392.5,-134.5"/>
<text text-anchor="start" x="400.5" y="-152.5" font-family="Helvetica,sans-Serif" font-size="10.00">TravellersApp/src/parser</text>
<text text-anchor="middle" x="454" y="-141.5" font-family="Helvetica,sans-Serif" font-size="10.00">/Interpreter.hpp</text>
</a>
</g>
</g>
<!-- Node1&#45;&gt;Node23 -->
<g id="edge50" class="edge">
<title>Node1&#45;&gt;Node23</title>
<path fill="none" stroke="midnightblue" d="M648.24,-617.78C479.53,-616.46 76,-601.22 76,-485.5 76,-485.5 76,-485.5 76,-349.5 76,-312.31 69.14,-294.74 95,-268 137.87,-223.67 170.18,-250.52 229,-232 296.57,-210.73 373.94,-181.64 418.08,-164.58"/>
<polygon fill="midnightblue" stroke="midnightblue" points="648.25,-621.28 658.27,-617.84 648.3,-614.28 648.25,-621.28"/>
</g>
<!-- Node28 -->
<g id="node28" class="node">
<title>Node28</title>
<g id="a_node28"><a xlink:href="Date_8cpp.html" target="_top" xlink:title=" ">
<polygon fill="white" stroke="black" points="1102,-542 1102,-561 1236,-561 1236,-542 1102,-542"/>
<text text-anchor="middle" x="1169" y="-549" font-family="Helvetica,sans-Serif" font-size="10.00">TravellersApp/src/Date.cpp</text>
</a>
</g>
</g>
<!-- Node1&#45;&gt;Node28 -->
<g id="edge47" class="edge">
<title>Node1&#45;&gt;Node28</title>
<path fill="none" stroke="midnightblue" d="M793.94,-608.35C868.09,-598.83 986.22,-583.11 1088,-567 1099.43,-565.19 1111.74,-563.08 1123.22,-561.03"/>
<polygon fill="midnightblue" stroke="midnightblue" points="793.25,-604.9 783.78,-609.65 794.14,-611.85 793.25,-604.9"/>
</g>
<!-- Node29 -->
<g id="node29" class="node">
<title>Node29</title>
<g id="a_node29"><a xlink:href="InvalidArgumentException_8cpp.html" target="_top" xlink:title=" ">
<polygon fill="white" stroke="black" points="1254.5,-536.5 1254.5,-566.5 1379.5,-566.5 1379.5,-536.5 1254.5,-536.5"/>
<text text-anchor="start" x="1262.5" y="-554.5" font-family="Helvetica,sans-Serif" font-size="10.00">TravellersApp/src/Invalid</text>
<text text-anchor="middle" x="1317" y="-543.5" font-family="Helvetica,sans-Serif" font-size="10.00">ArgumentException.cpp</text>
</a>
</g>
</g>
<!-- Node1&#45;&gt;Node29 -->
<g id="edge48" class="edge">
<title>Node1&#45;&gt;Node29</title>
<path fill="none" stroke="midnightblue" d="M793.9,-612.85C895.39,-605.83 1084.84,-590.78 1245,-567 1248.03,-566.55 1251.12,-566.06 1254.24,-565.53"/>
<polygon fill="midnightblue" stroke="midnightblue" points="793.5,-609.37 783.76,-613.54 793.98,-616.35 793.5,-609.37"/>
</g>
<!-- Node3 -->
<g id="node3" class="node">
<title>Node3</title>
<g id="a_node3"><a xlink:href="ArraySet_8hpp.html" target="_top" xlink:title=" ">
<polygon fill="white" stroke="black" points="225.5,-469.5 225.5,-499.5 362.5,-499.5 362.5,-469.5 225.5,-469.5"/>
<text text-anchor="start" x="233.5" y="-487.5" font-family="Helvetica,sans-Serif" font-size="10.00">TravellersApp/src/collection</text>
<text text-anchor="middle" x="294" y="-476.5" font-family="Helvetica,sans-Serif" font-size="10.00">/ArraySet.hpp</text>
</a>
</g>
</g>
<!-- Node2&#45;&gt;Node3 -->
<g id="edge2" class="edge">
<title>Node2&#45;&gt;Node3</title>
<path fill="none" stroke="midnightblue" d="M642.15,-540.01C571.33,-530.37 464.55,-515.29 372,-500 369.01,-499.51 365.96,-498.99 362.88,-498.46"/>
<polygon fill="midnightblue" stroke="midnightblue" points="641.95,-543.51 652.33,-541.39 642.9,-536.58 641.95,-543.51"/>
</g>
<!-- Node4 -->
<g id="node4" class="node">
<title>Node4</title>
<g id="a_node4"><a xlink:href="BinaryNode_8hpp.html" target="_top" xlink:title=" ">
<polygon fill="white" stroke="black" points="767.5,-402.5 767.5,-432.5 904.5,-432.5 904.5,-402.5 767.5,-402.5"/>
<text text-anchor="start" x="775.5" y="-420.5" font-family="Helvetica,sans-Serif" font-size="10.00">TravellersApp/src/collection</text>
<text text-anchor="middle" x="836" y="-409.5" font-family="Helvetica,sans-Serif" font-size="10.00">/BinaryNode.hpp</text>
</a>
</g>
</g>
<!-- Node2&#45;&gt;Node4 -->
<g id="edge3" class="edge">
<title>Node2&#45;&gt;Node4</title>
<path fill="none" stroke="midnightblue" d="M799.77,-543.89C828.52,-537.22 858.3,-524.38 876,-500 891.74,-478.32 868.94,-449.49 851.84,-432.57"/>
<polygon fill="midnightblue" stroke="midnightblue" points="798.73,-540.53 789.66,-546.01 800.17,-547.39 798.73,-540.53"/>
</g>
<!-- Node5 -->
<g id="node5" class="node">
<title>Node5</title>
<g id="a_node5"><a xlink:href="RangeBinaryTree_8hpp.html" target="_top" xlink:title=" ">
<polygon fill="white" stroke="black" points="777.5,-335.5 777.5,-365.5 914.5,-365.5 914.5,-335.5 777.5,-335.5"/>
<text text-anchor="start" x="785.5" y="-353.5" font-family="Helvetica,sans-Serif" font-size="10.00">TravellersApp/src/collection</text>
<text text-anchor="middle" x="846" y="-342.5" font-family="Helvetica,sans-Serif" font-size="10.00">/RangeBinaryTree.hpp</text>
</a>
</g>
</g>
<!-- Node2&#45;&gt;Node5 -->
<g id="edge38" class="edge">
<title>Node2&#45;&gt;Node5</title>
<path fill="none" stroke="midnightblue" d="M799.69,-543.28C831.91,-536.6 867.34,-523.93 892,-500 924.04,-468.91 934.06,-441.88 914,-402 906.01,-386.1 890.38,-373.95 876.12,-365.56"/>
<polygon fill="midnightblue" stroke="midnightblue" points="798.97,-539.85 789.81,-545.17 800.28,-546.73 798.97,-539.85"/>
</g>
<!-- Node6 -->
<g id="node6" class="node">
<title>Node6</title>
<g id="a_node6"><a xlink:href="Stack_8hpp.html" target="_top" xlink:title=" ">
<polygon fill="white" stroke="black" points="729.5,-469.5 729.5,-499.5 866.5,-499.5 866.5,-469.5 729.5,-469.5"/>
<text text-anchor="start" x="737.5" y="-487.5" font-family="Helvetica,sans-Serif" font-size="10.00">TravellersApp/src/collection</text>
<text text-anchor="middle" x="798" y="-476.5" font-family="Helvetica,sans-Serif" font-size="10.00">/Stack.hpp</text>
</a>
</g>
</g>
<!-- Node2&#45;&gt;Node6 -->
<g id="edge5" class="edge">
<title>Node2&#45;&gt;Node6</title>
<path fill="none" stroke="midnightblue" d="M745.42,-529.88C757.12,-520.01 770.84,-508.43 781.32,-499.58"/>
<polygon fill="midnightblue" stroke="midnightblue" points="743.09,-527.27 737.71,-536.4 747.61,-532.62 743.09,-527.27"/>
</g>
<!-- Node7 -->
<g id="node7" class="node">
<title>Node7</title>
<g id="a_node7"><a xlink:href="HashMap_8hpp.html" target="_top" xlink:title=" ">
<polygon fill="white" stroke="black" points="380.5,-469.5 380.5,-499.5 517.5,-499.5 517.5,-469.5 380.5,-469.5"/>
<text text-anchor="start" x="388.5" y="-487.5" font-family="Helvetica,sans-Serif" font-size="10.00">TravellersApp/src/collection</text>
<text text-anchor="middle" x="449" y="-476.5" font-family="Helvetica,sans-Serif" font-size="10.00">/HashMap.hpp</text>
</a>
</g>
</g>
<!-- Node2&#45;&gt;Node7 -->
<g id="edge7" class="edge">
<title>Node2&#45;&gt;Node7</title>
<path fill="none" stroke="midnightblue" d="M652.45,-534.12C607.94,-523.48 550.53,-509.76 508.05,-499.61"/>
<polygon fill="midnightblue" stroke="midnightblue" points="651.78,-537.56 662.31,-536.48 653.4,-530.75 651.78,-537.56"/>
</g>
<!-- Node9 -->
<g id="node9" class="node">
<title>Node9</title>
<g id="a_node9"><a xlink:href="Scanner_8hpp.html" target="_top" xlink:title=" ">
<polygon fill="white" stroke="black" points="180.5,-335.5 180.5,-365.5 303.5,-365.5 303.5,-335.5 180.5,-335.5"/>
<text text-anchor="start" x="188.5" y="-353.5" font-family="Helvetica,sans-Serif" font-size="10.00">TravellersApp/src/parser</text>
<text text-anchor="middle" x="242" y="-342.5" font-family="Helvetica,sans-Serif" font-size="10.00">/Scanner.hpp</text>
</a>
</g>
</g>
<!-- Node2&#45;&gt;Node9 -->
<g id="edge41" class="edge">
<title>Node2&#45;&gt;Node9</title>
<path fill="none" stroke="midnightblue" d="M642.17,-548.3C507.52,-543.71 244.94,-530.88 217,-500 182.62,-462 215.54,-395.14 232.86,-365.89"/>
<polygon fill="midnightblue" stroke="midnightblue" points="642.32,-551.8 652.43,-548.64 642.55,-544.81 642.32,-551.8"/>
</g>
<!-- Node10 -->
<g id="node10" class="node">
<title>Node10</title>
<g id="a_node10"><a xlink:href="CSV_8hpp.html" target="_top" xlink:title=" ">
<polygon fill="white" stroke="black" points="597.5,-268.5 597.5,-298.5 720.5,-298.5 720.5,-268.5 597.5,-268.5"/>
<text text-anchor="start" x="605.5" y="-286.5" font-family="Helvetica,sans-Serif" font-size="10.00">TravellersApp/src/parser</text>
<text text-anchor="middle" x="659" y="-275.5" font-family="Helvetica,sans-Serif" font-size="10.00">/CSV.hpp</text>
</a>
</g>
</g>
<!-- Node2&#45;&gt;Node10 -->
<g id="edge40" class="edge">
<title>Node2&#45;&gt;Node10</title>
<path fill="none" stroke="midnightblue" d="M642.23,-543.89C613.48,-537.22 583.7,-524.38 566,-500 516.93,-432.4 606.08,-334.88 643.55,-298.7"/>
<polygon fill="midnightblue" stroke="midnightblue" points="641.83,-547.39 652.34,-546.01 643.27,-540.53 641.83,-547.39"/>
</g>
<!-- Node12 -->
<g id="node12" class="node">
<title>Node12</title>
<g id="a_node12"><a xlink:href="User_8hpp.html" target="_top" xlink:title=" ">
<polygon fill="white" stroke="black" points="796.5,-207 796.5,-226 931.5,-226 931.5,-207 796.5,-207"/>
<text text-anchor="middle" x="864" y="-214" font-family="Helvetica,sans-Serif" font-size="10.00">TravellersApp/src/User.hpp</text>
</a>
</g>
</g>
<!-- Node2&#45;&gt;Node12 -->
<g id="edge46" class="edge">
<title>Node2&#45;&gt;Node12</title>
<path fill="none" stroke="midnightblue" d="M799.51,-539.02C846.98,-530.49 901.43,-517.33 918,-500 968.71,-446.96 968.56,-393.3 924,-335 898.09,-301.1 858.85,-334.38 835,-299 819.05,-275.34 842.75,-241.91 856.03,-226.24"/>
<polygon fill="midnightblue" stroke="midnightblue" points="798.75,-535.6 789.5,-540.77 799.96,-542.5 798.75,-535.6"/>
</g>
<!-- Node26 -->
<g id="node26" class="node">
<title>Node26</title>
<g id="a_node26"><a xlink:href="SortedArrayList_8hpp.html" target="_top" xlink:title=" ">
<polygon fill="white" stroke="black" points="574.5,-469.5 574.5,-499.5 711.5,-499.5 711.5,-469.5 574.5,-469.5"/>
<text text-anchor="start" x="582.5" y="-487.5" font-family="Helvetica,sans-Serif" font-size="10.00">TravellersApp/src/collection</text>
<text text-anchor="middle" x="643" y="-476.5" font-family="Helvetica,sans-Serif" font-size="10.00">/SortedArrayList.hpp</text>
</a>
</g>
</g>
<!-- Node2&#45;&gt;Node26 -->
<g id="edge39" class="edge">
<title>Node2&#45;&gt;Node26</title>
<path fill="none" stroke="midnightblue" d="M696.26,-529.88C684.41,-520.01 670.52,-508.43 659.89,-499.58"/>
<polygon fill="midnightblue" stroke="midnightblue" points="694.15,-532.68 704.08,-536.4 698.63,-527.31 694.15,-532.68"/>
</g>
<!-- Node27 -->
<g id="node27" class="node">
<title>Node27</title>
<g id="a_node27"><a xlink:href="VisitBuilder_8hpp.html" target="_top" xlink:title=" ">
<polygon fill="white" stroke="black" points="844,-274 844,-293 1008,-293 1008,-274 844,-274"/>
<text text-anchor="middle" x="926" y="-281" font-family="Helvetica,sans-Serif" font-size="10.00">TravellersApp/src/VisitBuilder.hpp</text>
</a>
</g>
</g>
<!-- Node2&#45;&gt;Node27 -->
<g id="edge42" class="edge">
<title>Node2&#45;&gt;Node27</title>
<path fill="none" stroke="midnightblue" d="M799.66,-546.25C868.76,-540.68 961.8,-528.06 985,-500 1031.8,-443.4 1008.41,-400.91 976,-335 967.29,-317.29 949.94,-301.99 938.15,-293.01"/>
<polygon fill="midnightblue" stroke="midnightblue" points="799.35,-542.77 789.65,-547.02 799.89,-549.74 799.35,-542.77"/>
</g>
<!-- Node4&#45;&gt;Node5 -->
<g id="edge4" class="edge">
<title>Node4&#45;&gt;Node5</title>
<path fill="none" stroke="midnightblue" d="M839.71,-392.4C841.1,-383.37 842.63,-373.41 843.83,-365.58"/>
<polygon fill="midnightblue" stroke="midnightblue" points="836.23,-391.98 838.17,-402.4 843.15,-393.04 836.23,-391.98"/>
</g>
<!-- Node6&#45;&gt;Node4 -->
<g id="edge6" class="edge">
<title>Node6&#45;&gt;Node4</title>
<path fill="none" stroke="midnightblue" d="M811.4,-460.58C816.86,-451.24 822.99,-440.75 827.77,-432.58"/>
<polygon fill="midnightblue" stroke="midnightblue" points="808.27,-459 806.25,-469.4 814.31,-462.53 808.27,-459"/>
</g>
<!-- Node8 -->
<g id="node8" class="node">
<title>Node8</title>
<g id="a_node8"><a xlink:href="CommandList_8hpp.html" target="_top" xlink:title=" ">
<polygon fill="white" stroke="black" points="387.5,-402.5 387.5,-432.5 510.5,-432.5 510.5,-402.5 387.5,-402.5"/>
<text text-anchor="start" x="395.5" y="-420.5" font-family="Helvetica,sans-Serif" font-size="10.00">TravellersApp/src/parser</text>
<text text-anchor="middle" x="449" y="-409.5" font-family="Helvetica,sans-Serif" font-size="10.00">/CommandList.hpp</text>
</a>
</g>
</g>
<!-- Node7&#45;&gt;Node8 -->
<g id="edge8" class="edge">
<title>Node7&#45;&gt;Node8</title>
<path fill="none" stroke="midnightblue" d="M449,-459.11C449,-450.15 449,-440.32 449,-432.58"/>
<polygon fill="midnightblue" stroke="midnightblue" points="445.5,-459.4 449,-469.4 452.5,-459.4 445.5,-459.4"/>
</g>
<!-- Node8&#45;&gt;Node9 -->
<g id="edge9" class="edge">
<title>Node8&#45;&gt;Node9</title>
<path fill="none" stroke="midnightblue" d="M394.68,-399.44C361.13,-388.91 318.59,-375.55 286.94,-365.61"/>
<polygon fill="midnightblue" stroke="midnightblue" points="393.75,-402.82 404.34,-402.48 395.85,-396.14 393.75,-402.82"/>
</g>
<!-- Node8&#45;&gt;Node14 -->
<g id="edge29" class="edge">
<title>Node8&#45;&gt;Node14</title>
<path fill="none" stroke="midnightblue" d="M394.02,-398.17C378.37,-390.49 362.69,-380.01 352,-366 318.9,-322.62 298.01,-149.03 292.48,-97.8"/>
<polygon fill="midnightblue" stroke="midnightblue" points="392.65,-401.39 403.2,-402.37 395.56,-395.03 392.65,-401.39"/>
</g>
<!-- Node8&#45;&gt;Node16 -->
<g id="edge35" class="edge">
<title>Node8&#45;&gt;Node16</title>
<path fill="none" stroke="midnightblue" d="M478.47,-396.17C508.28,-372.95 550,-331.98 550,-284.5 550,-284.5 550,-284.5 550,-215.5 550,-172 562.27,-121.62 568.89,-97.62"/>
<polygon fill="midnightblue" stroke="midnightblue" points="476.3,-393.42 470.42,-402.24 480.51,-399.01 476.3,-393.42"/>
</g>
<!-- Node8&#45;&gt;Node18 -->
<g id="edge37" class="edge">
<title>Node8&#45;&gt;Node18</title>
<path fill="none" stroke="midnightblue" d="M507.3,-399.68C571.12,-381.73 676.67,-353.41 769,-335 823.61,-324.11 980.56,-341.11 1017,-299 1069.6,-238.21 997,-135.27 966.96,-97.74"/>
<polygon fill="midnightblue" stroke="midnightblue" points="506.1,-396.38 497.43,-402.47 508,-403.12 506.1,-396.38"/>
</g>
<!-- Node8&#45;&gt;Node23 -->
<g id="edge30" class="edge">
<title>Node8&#45;&gt;Node23</title>
<path fill="none" stroke="midnightblue" d="M473.91,-394.86C481.54,-386.68 488.98,-376.73 493,-366 520.2,-293.36 479.29,-199.65 461.54,-164.57"/>
<polygon fill="midnightblue" stroke="midnightblue" points="471.23,-392.59 466.63,-402.13 476.18,-397.54 471.23,-392.59"/>
</g>
<!-- Node25 -->
<g id="node25" class="node">
<title>Node25</title>
<g id="a_node25"><a xlink:href="CommandList_8cpp.html" target="_top" xlink:title=" ">
<polygon fill="white" stroke="black" points="360.5,-335.5 360.5,-365.5 483.5,-365.5 483.5,-335.5 360.5,-335.5"/>
<text text-anchor="start" x="368.5" y="-353.5" font-family="Helvetica,sans-Serif" font-size="10.00">TravellersApp/src/parser</text>
<text text-anchor="middle" x="422" y="-342.5" font-family="Helvetica,sans-Serif" font-size="10.00">/CommandList.cpp</text>
</a>
</g>
</g>
<!-- Node8&#45;&gt;Node25 -->
<g id="edge36" class="edge">
<title>Node8&#45;&gt;Node25</title>
<path fill="none" stroke="midnightblue" d="M439.23,-392.99C435.42,-383.8 431.17,-373.58 427.85,-365.58"/>
<polygon fill="midnightblue" stroke="midnightblue" points="436.07,-394.5 443.14,-402.4 442.54,-391.82 436.07,-394.5"/>
</g>
<!-- Node9&#45;&gt;Node10 -->
<g id="edge10" class="edge">
<title>Node9&#45;&gt;Node10</title>
<path fill="none" stroke="midnightblue" d="M313.51,-338.35C393.42,-325.9 521.49,-305.93 597.22,-294.13"/>
<polygon fill="midnightblue" stroke="midnightblue" points="312.87,-334.91 303.53,-339.91 313.95,-341.83 312.87,-334.91"/>
</g>
<!-- Node11 -->
<g id="node11" class="node">
<title>Node11</title>
<g id="a_node11"><a xlink:href="main_8cpp.html" target="_top" xlink:title=" ">
<polygon fill="white" stroke="black" points="220.5,-6 220.5,-25 355.5,-25 355.5,-6 220.5,-6"/>
<text text-anchor="middle" x="288" y="-13" font-family="Helvetica,sans-Serif" font-size="10.00">TravellersApp/src/main.cpp</text>
</a>
</g>
</g>
<!-- Node9&#45;&gt;Node11 -->
<g id="edge26" class="edge">
<title>Node9&#45;&gt;Node11</title>
<path fill="none" stroke="midnightblue" d="M241.93,-324.97C241.53,-308.7 240.32,-286.95 237,-268 221.09,-177.33 138.6,-145.31 187,-67 200.6,-44.99 227.03,-32.25 249.44,-25.07"/>
<polygon fill="midnightblue" stroke="midnightblue" points="238.43,-325.31 242.09,-335.25 245.43,-325.2 238.43,-325.31"/>
</g>
<!-- Node15 -->
<g id="node15" class="node">
<title>Node15</title>
<g id="a_node15"><a xlink:href="HTLInterpreter_8cpp.html" target="_top" xlink:title=" ">
<polygon fill="white" stroke="black" points="373.5,-0.5 373.5,-30.5 496.5,-30.5 496.5,-0.5 373.5,-0.5"/>
<text text-anchor="start" x="381.5" y="-18.5" font-family="Helvetica,sans-Serif" font-size="10.00">TravellersApp/src/parser</text>
<text text-anchor="middle" x="435" y="-7.5" font-family="Helvetica,sans-Serif" font-size="10.00">/HTLInterpreter.cpp</text>
</a>
</g>
</g>
<!-- Node9&#45;&gt;Node15 -->
<g id="edge27" class="edge">
<title>Node9&#45;&gt;Node15</title>
<path fill="none" stroke="midnightblue" d="M247.73,-325.61C249.46,-317.24 251.14,-307.76 252,-299 253.34,-285.29 253.24,-281.72 252,-268 243.86,-177.98 164.9,-137.88 221,-67 223.44,-63.92 311.1,-43.95 373.46,-30.06"/>
<polygon fill="midnightblue" stroke="midnightblue" points="244.29,-324.94 245.55,-335.46 251.12,-326.45 244.29,-324.94"/>
</g>
<!-- Node22 -->
<g id="node22" class="node">
<title>Node22</title>
<g id="a_node22"><a xlink:href="Scanner_8cpp.html" target="_top" xlink:title=" ">
<polygon fill="white" stroke="black" points="104.5,-268.5 104.5,-298.5 227.5,-298.5 227.5,-268.5 104.5,-268.5"/>
<text text-anchor="start" x="112.5" y="-286.5" font-family="Helvetica,sans-Serif" font-size="10.00">TravellersApp/src/parser</text>
<text text-anchor="middle" x="166" y="-275.5" font-family="Helvetica,sans-Serif" font-size="10.00">/Scanner.cpp</text>
</a>
</g>
</g>
<!-- Node9&#45;&gt;Node22 -->
<g id="edge28" class="edge">
<title>Node9&#45;&gt;Node22</title>
<path fill="none" stroke="midnightblue" d="M217.89,-328.88C206.34,-319.01 192.81,-307.43 182.46,-298.58"/>
<polygon fill="midnightblue" stroke="midnightblue" points="215.63,-331.56 225.51,-335.4 220.18,-326.24 215.63,-331.56"/>
</g>
<!-- Node10&#45;&gt;Node11 -->
<g id="edge11" class="edge">
<title>Node10&#45;&gt;Node11</title>
<path fill="none" stroke="midnightblue" d="M630.55,-261.85C621.59,-253.68 612.79,-243.47 608,-232 579.11,-162.73 693.56,-123.37 644,-67 602.72,-20.05 426.74,-40.79 365,-31 353.98,-29.25 342.12,-27.14 331.09,-25.07"/>
<polygon fill="midnightblue" stroke="midnightblue" points="628.48,-264.69 638.37,-268.5 633.02,-259.36 628.48,-264.69"/>
</g>
<!-- Node10&#45;&gt;Node12 -->
<g id="edge12" class="edge">
<title>Node10&#45;&gt;Node12</title>
<path fill="none" stroke="midnightblue" d="M712.84,-265.43C752.81,-252.75 805.65,-236 837.1,-226.03"/>
<polygon fill="midnightblue" stroke="midnightblue" points="711.7,-262.12 703.23,-268.48 713.82,-268.79 711.7,-262.12"/>
</g>
<!-- Node13 -->
<g id="node13" class="node">
<title>Node13</title>
<g id="a_node13"><a xlink:href="TravelState_8hpp.html" target="_top" xlink:title=" ">
<polygon fill="white" stroke="black" points="732.5,-134.5 732.5,-164.5 855.5,-164.5 855.5,-134.5 732.5,-134.5"/>
<text text-anchor="start" x="740.5" y="-152.5" font-family="Helvetica,sans-Serif" font-size="10.00">TravellersApp/src/Travel</text>
<text text-anchor="middle" x="794" y="-141.5" font-family="Helvetica,sans-Serif" font-size="10.00">State.hpp</text>
</a>
</g>
</g>
<!-- Node10&#45;&gt;Node13 -->
<g id="edge24" class="edge">
<title>Node10&#45;&gt;Node13</title>
<path fill="none" stroke="midnightblue" d="M703.16,-263.93C718.95,-255.79 736.02,-245.07 749,-232 768.59,-212.28 782.17,-182.27 788.97,-164.69"/>
<polygon fill="midnightblue" stroke="midnightblue" points="701.48,-260.86 694.06,-268.43 704.58,-267.14 701.48,-260.86"/>
</g>
<!-- Node21 -->
<g id="node21" class="node">
<title>Node21</title>
<g id="a_node21"><a xlink:href="CSV_8cpp.html" target="_top" xlink:title=" ">
<polygon fill="white" stroke="black" points="616.5,-201.5 616.5,-231.5 739.5,-231.5 739.5,-201.5 616.5,-201.5"/>
<text text-anchor="start" x="624.5" y="-219.5" font-family="Helvetica,sans-Serif" font-size="10.00">TravellersApp/src/parser</text>
<text text-anchor="middle" x="678" y="-208.5" font-family="Helvetica,sans-Serif" font-size="10.00">/CSV.cpp</text>
</a>
</g>
</g>
<!-- Node10&#45;&gt;Node21 -->
<g id="edge25" class="edge">
<title>Node10&#45;&gt;Node21</title>
<path fill="none" stroke="midnightblue" d="M665.96,-258.7C668.62,-249.59 671.57,-239.49 673.89,-231.58"/>
<polygon fill="midnightblue" stroke="midnightblue" points="662.57,-257.82 663.12,-268.4 669.29,-259.78 662.57,-257.82"/>
</g>
<!-- Node12&#45;&gt;Node13 -->
<g id="edge13" class="edge">
<title>Node12&#45;&gt;Node13</title>
<path fill="none" stroke="midnightblue" d="M847.23,-199.93C835.65,-189.18 820.39,-175 809.17,-164.59"/>
<polygon fill="midnightblue" stroke="midnightblue" points="844.85,-202.49 854.56,-206.73 849.61,-197.36 844.85,-202.49"/>
</g>
<!-- Node13&#45;&gt;Node14 -->
<g id="edge14" class="edge">
<title>Node13&#45;&gt;Node14</title>
<path fill="none" stroke="midnightblue" d="M722.08,-141.98C636.13,-133.76 488.1,-118.21 362,-98 358.89,-97.5 355.72,-96.96 352.52,-96.4"/>
<polygon fill="midnightblue" stroke="midnightblue" points="721.96,-145.49 732.25,-142.95 722.63,-138.52 721.96,-145.49"/>
</g>
<!-- Node13&#45;&gt;Node16 -->
<g id="edge17" class="edge">
<title>Node13&#45;&gt;Node16</title>
<path fill="none" stroke="midnightblue" d="M736.47,-131.58C700.58,-121.02 654.91,-107.59 620.98,-97.61"/>
<polygon fill="midnightblue" stroke="midnightblue" points="735.74,-135.01 746.32,-134.48 737.71,-128.3 735.74,-135.01"/>
</g>
<!-- Node13&#45;&gt;Node18 -->
<g id="edge20" class="edge">
<title>Node13&#45;&gt;Node18</title>
<path fill="none" stroke="midnightblue" d="M838.48,-130.54C864.24,-120.14 896.2,-107.24 920.13,-97.58"/>
<polygon fill="midnightblue" stroke="midnightblue" points="836.9,-127.41 828.93,-134.4 839.52,-133.9 836.9,-127.41"/>
</g>
<!-- Node20 -->
<g id="node20" class="node">
<title>Node20</title>
<g id="a_node20"><a xlink:href="TravelState_8cpp.html" target="_top" xlink:title=" ">
<polygon fill="white" stroke="black" points="732.5,-67.5 732.5,-97.5 855.5,-97.5 855.5,-67.5 732.5,-67.5"/>
<text text-anchor="start" x="740.5" y="-85.5" font-family="Helvetica,sans-Serif" font-size="10.00">TravellersApp/src/Travel</text>
<text text-anchor="middle" x="794" y="-74.5" font-family="Helvetica,sans-Serif" font-size="10.00">State.cpp</text>
</a>
</g>
</g>
<!-- Node13&#45;&gt;Node20 -->
<g id="edge23" class="edge">
<title>Node13&#45;&gt;Node20</title>
<path fill="none" stroke="midnightblue" d="M794,-124.11C794,-115.15 794,-105.32 794,-97.58"/>
<polygon fill="midnightblue" stroke="midnightblue" points="790.5,-124.4 794,-134.4 797.5,-124.4 790.5,-124.4"/>
</g>
<!-- Node14&#45;&gt;Node11 -->
<g id="edge15" class="edge">
<title>Node14&#45;&gt;Node11</title>
<path fill="none" stroke="midnightblue" d="M289.88,-57.25C289.36,-46.02 288.78,-33.38 288.4,-25.19"/>
<polygon fill="midnightblue" stroke="midnightblue" points="286.39,-57.57 290.35,-67.4 293.38,-57.25 286.39,-57.57"/>
</g>
<!-- Node14&#45;&gt;Node15 -->
<g id="edge16" class="edge">
<title>Node14&#45;&gt;Node15</title>
<path fill="none" stroke="midnightblue" d="M331.39,-63.27C354.32,-52.92 382.6,-40.15 403.82,-30.58"/>
<polygon fill="midnightblue" stroke="midnightblue" points="329.92,-60.09 322.25,-67.4 332.8,-66.47 329.92,-60.09"/>
</g>
<!-- Node16&#45;&gt;Node11 -->
<g id="edge18" class="edge">
<title>Node16&#45;&gt;Node11</title>
<path fill="none" stroke="midnightblue" d="M501.65,-65.23C445.7,-52.47 370.04,-35.21 325.39,-25.03"/>
<polygon fill="midnightblue" stroke="midnightblue" points="500.98,-68.66 511.51,-67.48 502.54,-61.84 500.98,-68.66"/>
</g>
<!-- Node17 -->
<g id="node17" class="node">
<title>Node17</title>
<g id="a_node17"><a xlink:href="LoginInterpreter_8cpp.html" target="_top" xlink:title=" ">
<polygon fill="white" stroke="black" points="514.5,-0.5 514.5,-30.5 637.5,-30.5 637.5,-0.5 514.5,-0.5"/>
<text text-anchor="start" x="522.5" y="-18.5" font-family="Helvetica,sans-Serif" font-size="10.00">TravellersApp/src/parser</text>
<text text-anchor="middle" x="576" y="-7.5" font-family="Helvetica,sans-Serif" font-size="10.00">/LoginInterpreter.cpp</text>
</a>
</g>
</g>
<!-- Node16&#45;&gt;Node17 -->
<g id="edge19" class="edge">
<title>Node16&#45;&gt;Node17</title>
<path fill="none" stroke="midnightblue" d="M574.11,-57.4C574.53,-48.37 574.99,-38.41 575.35,-30.58"/>
<polygon fill="midnightblue" stroke="midnightblue" points="570.62,-57.25 573.65,-67.4 577.61,-57.57 570.62,-57.25"/>
</g>
<!-- Node18&#45;&gt;Node15 -->
<g id="edge21" class="edge">
<title>Node18&#45;&gt;Node15</title>
<path fill="none" stroke="midnightblue" d="M882.92,-69.5C876.87,-68.61 870.83,-67.76 865,-67 705.99,-46.24 664.54,-55.07 506,-31 502.89,-30.53 499.71,-30.01 496.51,-29.46"/>
<polygon fill="midnightblue" stroke="midnightblue" points="882.69,-73 893.1,-71.03 883.73,-66.08 882.69,-73"/>
</g>
<!-- Node19 -->
<g id="node19" class="node">
<title>Node19</title>
<g id="a_node19"><a xlink:href="VisitInterpreter_8cpp.html" target="_top" xlink:title=" ">
<polygon fill="white" stroke="black" points="893.5,-0.5 893.5,-30.5 1016.5,-30.5 1016.5,-0.5 893.5,-0.5"/>
<text text-anchor="start" x="901.5" y="-18.5" font-family="Helvetica,sans-Serif" font-size="10.00">TravellersApp/src/parser</text>
<text text-anchor="middle" x="955" y="-7.5" font-family="Helvetica,sans-Serif" font-size="10.00">/VisitInterpreter.cpp</text>
</a>
</g>
</g>
<!-- Node18&#45;&gt;Node19 -->
<g id="edge22" class="edge">
<title>Node18&#45;&gt;Node19</title>
<path fill="none" stroke="midnightblue" d="M955,-57.11C955,-48.15 955,-38.32 955,-30.58"/>
<polygon fill="midnightblue" stroke="midnightblue" points="951.5,-57.4 955,-67.4 958.5,-57.4 951.5,-57.4"/>
</g>
<!-- Node23&#45;&gt;Node14 -->
<g id="edge31" class="edge">
<title>Node23&#45;&gt;Node14</title>
<path fill="none" stroke="midnightblue" d="M409.32,-130.68C383.17,-120.26 350.63,-107.28 326.3,-97.58"/>
<polygon fill="midnightblue" stroke="midnightblue" points="408.05,-133.94 418.63,-134.4 410.64,-127.44 408.05,-133.94"/>
</g>
<!-- Node23&#45;&gt;Node16 -->
<g id="edge32" class="edge">
<title>Node23&#45;&gt;Node16</title>
<path fill="none" stroke="midnightblue" d="M488.65,-129.57C507.37,-119.35 530.09,-106.94 547.23,-97.58"/>
<polygon fill="midnightblue" stroke="midnightblue" points="486.92,-126.53 479.82,-134.4 490.28,-132.67 486.92,-126.53"/>
</g>
<!-- Node23&#45;&gt;Node18 -->
<g id="edge33" class="edge">
<title>Node23&#45;&gt;Node18</title>
<path fill="none" stroke="midnightblue" d="M525.69,-140.52C607.79,-131.18 746.28,-114.85 865,-98 874.09,-96.71 883.68,-95.26 893.08,-93.79"/>
<polygon fill="midnightblue" stroke="midnightblue" points="525.26,-137.04 515.72,-141.65 526.05,-144 525.26,-137.04"/>
</g>
<!-- Node24 -->
<g id="node24" class="node">
<title>Node24</title>
<g id="a_node24"><a xlink:href="Interpreter_8cpp.html" target="_top" xlink:title=" ">
<polygon fill="white" stroke="black" points="370.5,-67.5 370.5,-97.5 493.5,-97.5 493.5,-67.5 370.5,-67.5"/>
<text text-anchor="start" x="378.5" y="-85.5" font-family="Helvetica,sans-Serif" font-size="10.00">TravellersApp/src/parser</text>
<text text-anchor="middle" x="432" y="-74.5" font-family="Helvetica,sans-Serif" font-size="10.00">/Interpreter.cpp</text>
</a>
</g>
</g>
<!-- Node23&#45;&gt;Node24 -->
<g id="edge34" class="edge">
<title>Node23&#45;&gt;Node24</title>
<path fill="none" stroke="midnightblue" d="M445.94,-124.7C442.86,-115.59 439.44,-105.49 436.76,-97.58"/>
<polygon fill="midnightblue" stroke="midnightblue" points="442.71,-126.05 449.23,-134.4 449.34,-123.8 442.71,-126.05"/>
</g>
<!-- Node27&#45;&gt;Node12 -->
<g id="edge43" class="edge">
<title>Node27&#45;&gt;Node12</title>
<path fill="none" stroke="midnightblue" d="M910.74,-266.5C898.58,-253.75 882.02,-236.39 872.23,-226.13"/>
<polygon fill="midnightblue" stroke="midnightblue" points="908.2,-268.91 917.64,-273.73 913.27,-264.08 908.2,-268.91"/>
</g>
<!-- Node27&#45;&gt;Node13 -->
<g id="edge44" class="edge">
<title>Node27&#45;&gt;Node13</title>
<path fill="none" stroke="midnightblue" d="M936.31,-264.78C945.11,-247.06 954.42,-219.79 941,-201 921.64,-173.88 886.75,-161.17 855.81,-155.28"/>
<polygon fill="midnightblue" stroke="midnightblue" points="933.01,-263.52 931.35,-273.98 939.18,-266.84 933.01,-263.52"/>
</g>
<!-- Node27&#45;&gt;Node18 -->
<g id="edge45" class="edge">
<title>Node27&#45;&gt;Node18</title>
<path fill="none" stroke="midnightblue" d="M939.84,-265.99C946.76,-256.65 954.41,-244.39 958,-232 971.8,-184.45 963.21,-124.69 958.06,-97.79"/>
<polygon fill="midnightblue" stroke="midnightblue" points="937.01,-263.93 933.59,-273.96 942.52,-268.25 937.01,-263.93"/>
</g>
</g>
</svg>
