<?xml version="1.0" encoding="UTF-8" standalone="no"?>
<!DOCTYPE svg PUBLIC "-//W3C//DTD SVG 1.1//EN"
 "http://www.w3.org/Graphics/SVG/1.1/DTD/svg11.dtd">
<!-- Generated by graphviz version 2.44.0 (0)
 -->
<!-- Title: TravellersApp/src/InvalidArgumentException.hpp Pages: 1 -->
<svg width="202pt" height="95pt"
 viewBox="0.00 0.00 202.00 95.00" xmlns="http://www.w3.org/2000/svg" xmlns:xlink="http://www.w3.org/1999/xlink">
<g id="graph0" class="graph" transform="scale(1 1) rotate(0) translate(4 91)">
<title>TravellersApp/src/InvalidArgumentException.hpp</title>
<polygon fill="white" stroke="transparent" points="-4,4 -4,-91 198,-91 198,4 -4,4"/>
<!-- Node1 -->
<g id="node1" class="node">
<title>Node1</title>
<g id="a_node1"><a xlink:title=" ">
<polygon fill="#bfbfbf" stroke="black" points="30.5,-56.5 30.5,-86.5 155.5,-86.5 155.5,-56.5 30.5,-56.5"/>
<text text-anchor="start" x="38.5" y="-74.5" font-family="Helvetica,sans-Serif" font-size="10.00">TravellersApp/src/Invalid</text>
<text text-anchor="middle" x="93" y="-63.5" font-family="Helvetica,sans-Serif" font-size="10.00">ArgumentException.hpp</text>
</a>
</g>
</g>
<!-- Node2 -->
<g id="node2" class="node">
<title>Node2</title>
<g id="a_node2"><a xlink:title=" ">
<polygon fill="white" stroke="#bfbfbf" points="0,-0.5 0,-19.5 46,-19.5 46,-0.5 0,-0.5"/>
<text text-anchor="middle" x="23" y="-7.5" font-family="Helvetica,sans-Serif" font-size="10.00">cstring</text>
</a>
</g>
</g>
<!-- Node1&#45;&gt;Node2 -->
<g id="edge1" class="edge">
<title>Node1&#45;&gt;Node2</title>
<path fill="none" stroke="midnightblue" d="M76.41,-56.4C65.71,-47.31 51.81,-35.49 40.87,-26.19"/>
<polygon fill="midnightblue" stroke="midnightblue" points="43.07,-23.47 33.19,-19.66 38.54,-28.8 43.07,-23.47"/>
</g>
<!-- Node3 -->
<g id="node3" class="node">
<title>Node3</title>
<g id="a_node3"><a xlink:title=" ">
<polygon fill="white" stroke="#bfbfbf" points="64,-0.5 64,-19.5 122,-19.5 122,-0.5 64,-0.5"/>
<text text-anchor="middle" x="93" y="-7.5" font-family="Helvetica,sans-Serif" font-size="10.00">exception</text>
</a>
</g>
</g>
<!-- Node1&#45;&gt;Node3 -->
<g id="edge2" class="edge">
<title>Node1&#45;&gt;Node3</title>
<path fill="none" stroke="midnightblue" d="M93,-56.4C93,-48.47 93,-38.46 93,-29.86"/>
<polygon fill="midnightblue" stroke="midnightblue" points="96.5,-29.66 93,-19.66 89.5,-29.66 96.5,-29.66"/>
</g>
<!-- Node4 -->
<g id="node4" class="node">
<title>Node4</title>
<g id="a_node4"><a xlink:title=" ">
<polygon fill="white" stroke="#bfbfbf" points="140,-0.5 140,-19.5 194,-19.5 194,-0.5 140,-0.5"/>
<text text-anchor="middle" x="167" y="-7.5" font-family="Helvetica,sans-Serif" font-size="10.00">iostream</text>
</a>
</g>
</g>
<!-- Node1&#45;&gt;Node4 -->
<g id="edge3" class="edge">
<title>Node1&#45;&gt;Node4</title>
<path fill="none" stroke="midnightblue" d="M110.54,-56.4C121.84,-47.31 136.54,-35.49 148.11,-26.19"/>
<polygon fill="midnightblue" stroke="midnightblue" points="150.63,-28.65 156.23,-19.66 146.25,-23.2 150.63,-28.65"/>
</g>
</g>
</svg>
