<?xml version="1.0" encoding="UTF-8" standalone="no"?>
<!DOCTYPE svg PUBLIC "-//W3C//DTD SVG 1.1//EN"
 "http://www.w3.org/Graphics/SVG/1.1/DTD/svg11.dtd">
<!-- Generated by graphviz version 2.44.0 (0)
 -->
<!-- Title: TravellersApp/src/collection/LinkedList.hpp Pages: 1 -->
<svg width="277pt" height="263pt"
 viewBox="0.00 0.00 277.00 263.00" xmlns="http://www.w3.org/2000/svg" xmlns:xlink="http://www.w3.org/1999/xlink">
<g id="graph0" class="graph" transform="scale(1 1) rotate(0) translate(4 259)">
<title>TravellersApp/src/collection/LinkedList.hpp</title>
<polygon fill="white" stroke="transparent" points="-4,4 -4,-259 273,-259 273,4 -4,4"/>
<!-- Node1 -->
<g id="node1" class="node">
<title>Node1</title>
<g id="a_node1"><a xlink:title=" ">
<polygon fill="#bfbfbf" stroke="black" points="0,-224.5 0,-254.5 137,-254.5 137,-224.5 0,-224.5"/>
<text text-anchor="start" x="8" y="-242.5" font-family="Helvetica,sans-Serif" font-size="10.00">TravellersApp/src/collection</text>
<text text-anchor="middle" x="68.5" y="-231.5" font-family="Helvetica,sans-Serif" font-size="10.00">/LinkedList.hpp</text>
</a>
</g>
</g>
<!-- Node2 -->
<g id="node2" class="node">
<title>Node2</title>
<g id="a_node2"><a xlink:title=" ">
<polygon fill="white" stroke="#bfbfbf" points="20.5,-0.5 20.5,-19.5 74.5,-19.5 74.5,-0.5 20.5,-0.5"/>
<text text-anchor="middle" x="47.5" y="-7.5" font-family="Helvetica,sans-Serif" font-size="10.00">iostream</text>
</a>
</g>
</g>
<!-- Node1&#45;&gt;Node2 -->
<g id="edge1" class="edge">
<title>Node1&#45;&gt;Node2</title>
<path fill="none" stroke="midnightblue" d="M60.12,-224.31C48.94,-204.46 29.72,-166.91 22.5,-132 14.93,-95.38 29.26,-52.54 39.17,-28.92"/>
<polygon fill="midnightblue" stroke="midnightblue" points="42.49,-30.07 43.33,-19.51 36.09,-27.24 42.49,-30.07"/>
</g>
<!-- Node3 -->
<g id="node3" class="node">
<title>Node3</title>
<g id="a_node3"><a xlink:title=" ">
<polygon fill="white" stroke="#bfbfbf" points="32,-112.5 32,-131.5 83,-131.5 83,-112.5 32,-112.5"/>
<text text-anchor="middle" x="57.5" y="-119.5" font-family="Helvetica,sans-Serif" font-size="10.00">memory</text>
</a>
</g>
</g>
<!-- Node1&#45;&gt;Node3 -->
<g id="edge2" class="edge">
<title>Node1&#45;&gt;Node3</title>
<path fill="none" stroke="midnightblue" d="M65.84,-224.41C64.04,-214.31 61.76,-200.36 60.5,-188 58.92,-172.53 58.17,-154.9 57.82,-141.91"/>
<polygon fill="midnightblue" stroke="midnightblue" points="61.32,-141.77 57.6,-131.85 54.32,-141.93 61.32,-141.77"/>
</g>
<!-- Node4 -->
<g id="node4" class="node">
<title>Node4</title>
<g id="a_node4"><a xlink:href="IList_8hpp.html" target="_top" xlink:title=" ">
<polygon fill="white" stroke="black" points="69.5,-168.5 69.5,-187.5 123.5,-187.5 123.5,-168.5 69.5,-168.5"/>
<text text-anchor="middle" x="96.5" y="-175.5" font-family="Helvetica,sans-Serif" font-size="10.00">IList.hpp</text>
</a>
</g>
</g>
<!-- Node1&#45;&gt;Node4 -->
<g id="edge3" class="edge">
<title>Node1&#45;&gt;Node4</title>
<path fill="none" stroke="midnightblue" d="M75.14,-224.4C79.04,-216.11 84,-205.55 88.17,-196.71"/>
<polygon fill="midnightblue" stroke="midnightblue" points="91.33,-198.2 92.43,-187.66 85,-195.22 91.33,-198.2"/>
</g>
<!-- Node5 -->
<g id="node5" class="node">
<title>Node5</title>
<g id="a_node5"><a xlink:href="Nullable_8hpp.html" target="_top" xlink:title=" ">
<polygon fill="white" stroke="black" points="101,-112.5 101,-131.5 178,-131.5 178,-112.5 101,-112.5"/>
<text text-anchor="middle" x="139.5" y="-119.5" font-family="Helvetica,sans-Serif" font-size="10.00">../Nullable.hpp</text>
</a>
</g>
</g>
<!-- Node1&#45;&gt;Node5 -->
<g id="edge12" class="edge">
<title>Node1&#45;&gt;Node5</title>
<path fill="none" stroke="midnightblue" d="M95.23,-224.32C108.73,-215.69 124.01,-203.36 132.5,-188 140.31,-173.88 141.6,-155.39 141.21,-141.74"/>
<polygon fill="midnightblue" stroke="midnightblue" points="144.69,-141.39 140.59,-131.62 137.71,-141.82 144.69,-141.39"/>
</g>
<!-- Node4&#45;&gt;Node3 -->
<g id="edge11" class="edge">
<title>Node4&#45;&gt;Node3</title>
<path fill="none" stroke="midnightblue" d="M90.06,-168.08C84.55,-160.46 76.47,-149.26 69.74,-139.94"/>
<polygon fill="midnightblue" stroke="midnightblue" points="72.51,-137.81 63.82,-131.75 66.84,-141.91 72.51,-137.81"/>
</g>
<!-- Node4&#45;&gt;Node5 -->
<g id="edge4" class="edge">
<title>Node4&#45;&gt;Node5</title>
<path fill="none" stroke="midnightblue" d="M103.6,-168.08C109.74,-160.38 118.77,-149.03 126.24,-139.65"/>
<polygon fill="midnightblue" stroke="midnightblue" points="129.04,-141.75 132.53,-131.75 123.56,-137.39 129.04,-141.75"/>
</g>
<!-- Node5&#45;&gt;Node2 -->
<g id="edge10" class="edge">
<title>Node5&#45;&gt;Node2</title>
<path fill="none" stroke="midnightblue" d="M117.27,-112.49C100.97,-105.16 79.5,-93.05 66.5,-76 56.26,-62.57 51.53,-43.76 49.35,-29.82"/>
<polygon fill="midnightblue" stroke="midnightblue" points="52.82,-29.37 48.09,-19.89 45.88,-30.25 52.82,-29.37"/>
</g>
<!-- Node6 -->
<g id="node6" class="node">
<title>Node6</title>
<g id="a_node6"><a xlink:href="NoValueException_8hpp.html" target="_top" xlink:title=" ">
<polygon fill="white" stroke="black" points="75.5,-56.5 75.5,-75.5 189.5,-75.5 189.5,-56.5 75.5,-56.5"/>
<text text-anchor="middle" x="132.5" y="-63.5" font-family="Helvetica,sans-Serif" font-size="10.00">NoValueException.hpp</text>
</a>
</g>
</g>
<!-- Node5&#45;&gt;Node6 -->
<g id="edge5" class="edge">
<title>Node5&#45;&gt;Node6</title>
<path fill="none" stroke="midnightblue" d="M138.34,-112.08C137.42,-104.93 136.08,-94.64 134.92,-85.69"/>
<polygon fill="midnightblue" stroke="midnightblue" points="138.39,-85.22 133.63,-75.75 131.45,-86.12 138.39,-85.22"/>
</g>
<!-- Node9 -->
<g id="node9" class="node">
<title>Node9</title>
<g id="a_node9"><a xlink:href="debug_8hpp.html" target="_top" xlink:title=" ">
<polygon fill="white" stroke="black" points="208,-56.5 208,-75.5 269,-75.5 269,-56.5 208,-56.5"/>
<text text-anchor="middle" x="238.5" y="-63.5" font-family="Helvetica,sans-Serif" font-size="10.00">debug.hpp</text>
</a>
</g>
</g>
<!-- Node5&#45;&gt;Node9 -->
<g id="edge9" class="edge">
<title>Node5&#45;&gt;Node9</title>
<path fill="none" stroke="midnightblue" d="M155.41,-112.32C171.14,-103.74 195.44,-90.49 213.71,-80.52"/>
<polygon fill="midnightblue" stroke="midnightblue" points="215.53,-83.52 222.63,-75.65 212.18,-77.37 215.53,-83.52"/>
</g>
<!-- Node6&#45;&gt;Node2 -->
<g id="edge8" class="edge">
<title>Node6&#45;&gt;Node2</title>
<path fill="none" stroke="midnightblue" d="M118.84,-56.32C105.58,-47.9 85.23,-34.97 69.65,-25.07"/>
<polygon fill="midnightblue" stroke="midnightblue" points="71.44,-22.06 61.12,-19.65 67.69,-27.97 71.44,-22.06"/>
</g>
<!-- Node7 -->
<g id="node7" class="node">
<title>Node7</title>
<g id="a_node7"><a xlink:title=" ">
<polygon fill="white" stroke="#bfbfbf" points="100.5,-0.5 100.5,-19.5 146.5,-19.5 146.5,-0.5 100.5,-0.5"/>
<text text-anchor="middle" x="123.5" y="-7.5" font-family="Helvetica,sans-Serif" font-size="10.00">cstring</text>
</a>
</g>
</g>
<!-- Node6&#45;&gt;Node7 -->
<g id="edge6" class="edge">
<title>Node6&#45;&gt;Node7</title>
<path fill="none" stroke="midnightblue" d="M131.01,-56.08C129.82,-48.93 128.11,-38.64 126.62,-29.69"/>
<polygon fill="midnightblue" stroke="midnightblue" points="130.05,-29.04 124.96,-19.75 123.15,-30.19 130.05,-29.04"/>
</g>
<!-- Node8 -->
<g id="node8" class="node">
<title>Node8</title>
<g id="a_node8"><a xlink:title=" ">
<polygon fill="white" stroke="#bfbfbf" points="164.5,-0.5 164.5,-19.5 222.5,-19.5 222.5,-0.5 164.5,-0.5"/>
<text text-anchor="middle" x="193.5" y="-7.5" font-family="Helvetica,sans-Serif" font-size="10.00">exception</text>
</a>
</g>
</g>
<!-- Node6&#45;&gt;Node8 -->
<g id="edge7" class="edge">
<title>Node6&#45;&gt;Node8</title>
<path fill="none" stroke="midnightblue" d="M142.3,-56.32C151.32,-48.34 164.91,-36.31 175.82,-26.65"/>
<polygon fill="midnightblue" stroke="midnightblue" points="178.35,-29.08 183.52,-19.83 173.71,-23.84 178.35,-29.08"/>
</g>
</g>
</svg>
