<?xml version="1.0" encoding="UTF-8" standalone="no"?>
<!DOCTYPE svg PUBLIC "-//W3C//DTD SVG 1.1//EN"
 "http://www.w3.org/Graphics/SVG/1.1/DTD/svg11.dtd">
<!-- Generated by graphviz version 2.44.0 (0)
 -->
<!-- Title: TravellersApp/src/Nullable.hpp Pages: 1 -->
<svg width="1132pt" height="698pt"
 viewBox="0.00 0.00 1132.24 698.00" xmlns="http://www.w3.org/2000/svg" xmlns:xlink="http://www.w3.org/1999/xlink">
<g id="graph0" class="graph" transform="scale(1 1) rotate(0) translate(4 694)">
<title>TravellersApp/src/Nullable.hpp</title>
<polygon fill="white" stroke="transparent" points="-4,4 -4,-694 1128.24,-694 1128.24,4 -4,4"/>
<!-- Node1 -->
<g id="node1" class="node">
<title>Node1</title>
<g id="a_node1"><a xlink:title=" ">
<polygon fill="#bfbfbf" stroke="black" points="690,-670.5 690,-689.5 839,-689.5 839,-670.5 690,-670.5"/>
<text text-anchor="middle" x="764.5" y="-677.5" font-family="Helvetica,sans-Serif" font-size="10.00">TravellersApp/src/Nullable.hpp</text>
</a>
</g>
</g>
<!-- Node2 -->
<g id="node2" class="node">
<title>Node2</title>
<g id="a_node2"><a xlink:href="ArrayList_8hpp.html" target="_top" xlink:title=" ">
<polygon fill="white" stroke="black" points="687,-536.5 687,-566.5 824,-566.5 824,-536.5 687,-536.5"/>
<text text-anchor="start" x="695" y="-554.5" font-family="Helvetica,sans-Serif" font-size="10.00">TravellersApp/src/collection</text>
<text text-anchor="middle" x="755.5" y="-543.5" font-family="Helvetica,sans-Serif" font-size="10.00">/ArrayList.hpp</text>
</a>
</g>
</g>
<!-- Node1&#45;&gt;Node2 -->
<g id="edge1" class="edge">
<title>Node1&#45;&gt;Node2</title>
<path fill="none" stroke="midnightblue" d="M750.51,-662.37C744.65,-654.34 738.51,-644.24 735.5,-634 728.63,-610.66 739.23,-583.09 747.44,-566.74"/>
<polygon fill="midnightblue" stroke="midnightblue" points="747.91,-664.73 756.83,-670.46 753.43,-660.42 747.91,-664.73"/>
</g>
<!-- Node6 -->
<g id="node6" class="node">
<title>Node6</title>
<g id="a_node6"><a xlink:href="Stack_8hpp.html" target="_top" xlink:title=" ">
<polygon fill="white" stroke="black" points="957,-469.5 957,-499.5 1094,-499.5 1094,-469.5 957,-469.5"/>
<text text-anchor="start" x="965" y="-487.5" font-family="Helvetica,sans-Serif" font-size="10.00">TravellersApp/src/collection</text>
<text text-anchor="middle" x="1025.5" y="-476.5" font-family="Helvetica,sans-Serif" font-size="10.00">/Stack.hpp</text>
</a>
</g>
</g>
<!-- Node1&#45;&gt;Node6 -->
<g id="edge50" class="edge">
<title>Node1&#45;&gt;Node6</title>
<path fill="none" stroke="midnightblue" d="M819.79,-668.14C848.62,-661.03 883.76,-650.03 912.5,-634 951.82,-612.06 961.71,-603.19 988.5,-567 1004.22,-545.77 1015.38,-516.79 1021.1,-499.72"/>
<polygon fill="midnightblue" stroke="midnightblue" points="818.8,-664.77 809.88,-670.49 820.42,-671.58 818.8,-664.77"/>
</g>
<!-- Node7 -->
<g id="node7" class="node">
<title>Node7</title>
<g id="a_node7"><a xlink:href="HashMap_8hpp.html" target="_top" xlink:title=" ">
<polygon fill="white" stroke="black" points="299,-469.5 299,-499.5 436,-499.5 436,-469.5 299,-469.5"/>
<text text-anchor="start" x="307" y="-487.5" font-family="Helvetica,sans-Serif" font-size="10.00">TravellersApp/src/collection</text>
<text text-anchor="middle" x="367.5" y="-476.5" font-family="Helvetica,sans-Serif" font-size="10.00">/HashMap.hpp</text>
</a>
</g>
</g>
<!-- Node1&#45;&gt;Node7 -->
<g id="edge51" class="edge">
<title>Node1&#45;&gt;Node7</title>
<path fill="none" stroke="midnightblue" d="M737.66,-665.92C666,-630.99 470.57,-535.74 396.49,-499.63"/>
<polygon fill="midnightblue" stroke="midnightblue" points="736.41,-669.2 746.93,-670.44 739.47,-662.91 736.41,-669.2"/>
</g>
<!-- Node8 -->
<g id="node8" class="node">
<title>Node8</title>
<g id="a_node8"><a xlink:href="CommandList_8hpp.html" target="_top" xlink:title=" ">
<polygon fill="white" stroke="black" points="257,-402.5 257,-432.5 380,-432.5 380,-402.5 257,-402.5"/>
<text text-anchor="start" x="265" y="-420.5" font-family="Helvetica,sans-Serif" font-size="10.00">TravellersApp/src/parser</text>
<text text-anchor="middle" x="318.5" y="-409.5" font-family="Helvetica,sans-Serif" font-size="10.00">/CommandList.hpp</text>
</a>
</g>
</g>
<!-- Node1&#45;&gt;Node8 -->
<g id="edge53" class="edge">
<title>Node1&#45;&gt;Node8</title>
<path fill="none" stroke="midnightblue" d="M679.6,-675.26C567.9,-665.19 375.71,-628.94 289.5,-500 275.31,-478.78 292.75,-449.8 306.08,-432.73"/>
<polygon fill="midnightblue" stroke="midnightblue" points="679.56,-678.77 689.82,-676.13 680.15,-671.79 679.56,-678.77"/>
</g>
<!-- Node28 -->
<g id="node28" class="node">
<title>Node28</title>
<g id="a_node28"><a xlink:href="IList_8hpp.html" target="_top" xlink:title=" ">
<polygon fill="white" stroke="black" points="745,-603.5 745,-633.5 882,-633.5 882,-603.5 745,-603.5"/>
<text text-anchor="start" x="753" y="-621.5" font-family="Helvetica,sans-Serif" font-size="10.00">TravellersApp/src/collection</text>
<text text-anchor="middle" x="813.5" y="-610.5" font-family="Helvetica,sans-Serif" font-size="10.00">/IList.hpp</text>
</a>
</g>
</g>
<!-- Node1&#45;&gt;Node28 -->
<g id="edge47" class="edge">
<title>Node1&#45;&gt;Node28</title>
<path fill="none" stroke="midnightblue" d="M778.06,-662.53C785.57,-653.42 794.79,-642.21 801.95,-633.52"/>
<polygon fill="midnightblue" stroke="midnightblue" points="775.18,-660.53 771.52,-670.48 780.58,-664.98 775.18,-660.53"/>
</g>
<!-- Node29 -->
<g id="node29" class="node">
<title>Node29</title>
<g id="a_node29"><a xlink:href="LinkedList_8hpp.html" target="_top" xlink:title=" ">
<polygon fill="white" stroke="black" points="842,-536.5 842,-566.5 979,-566.5 979,-536.5 842,-536.5"/>
<text text-anchor="start" x="850" y="-554.5" font-family="Helvetica,sans-Serif" font-size="10.00">TravellersApp/src/collection</text>
<text text-anchor="middle" x="910.5" y="-543.5" font-family="Helvetica,sans-Serif" font-size="10.00">/LinkedList.hpp</text>
</a>
</g>
</g>
<!-- Node1&#45;&gt;Node29 -->
<g id="edge52" class="edge">
<title>Node1&#45;&gt;Node29</title>
<path fill="none" stroke="midnightblue" d="M834.75,-667.55C855.59,-660.93 876.76,-650.48 891.5,-634 908.26,-615.26 911.04,-584.63 911.09,-566.74"/>
<polygon fill="midnightblue" stroke="midnightblue" points="833.52,-664.26 824.9,-670.41 835.48,-670.98 833.52,-664.26"/>
</g>
<!-- Node3 -->
<g id="node3" class="node">
<title>Node3</title>
<g id="a_node3"><a xlink:href="ArraySet_8hpp.html" target="_top" xlink:title=" ">
<polygon fill="white" stroke="black" points="687,-469.5 687,-499.5 824,-499.5 824,-469.5 687,-469.5"/>
<text text-anchor="start" x="695" y="-487.5" font-family="Helvetica,sans-Serif" font-size="10.00">TravellersApp/src/collection</text>
<text text-anchor="middle" x="755.5" y="-476.5" font-family="Helvetica,sans-Serif" font-size="10.00">/ArraySet.hpp</text>
</a>
</g>
</g>
<!-- Node2&#45;&gt;Node3 -->
<g id="edge2" class="edge">
<title>Node2&#45;&gt;Node3</title>
<path fill="none" stroke="midnightblue" d="M755.5,-526.11C755.5,-517.15 755.5,-507.32 755.5,-499.58"/>
<polygon fill="midnightblue" stroke="midnightblue" points="752,-526.4 755.5,-536.4 759,-526.4 752,-526.4"/>
</g>
<!-- Node4 -->
<g id="node4" class="node">
<title>Node4</title>
<g id="a_node4"><a xlink:href="BinaryNode_8hpp.html" target="_top" xlink:title=" ">
<polygon fill="white" stroke="black" points="926,-402.5 926,-432.5 1063,-432.5 1063,-402.5 926,-402.5"/>
<text text-anchor="start" x="934" y="-420.5" font-family="Helvetica,sans-Serif" font-size="10.00">TravellersApp/src/collection</text>
<text text-anchor="middle" x="994.5" y="-409.5" font-family="Helvetica,sans-Serif" font-size="10.00">/BinaryNode.hpp</text>
</a>
</g>
</g>
<!-- Node2&#45;&gt;Node4 -->
<g id="edge3" class="edge">
<title>Node2&#45;&gt;Node4</title>
<path fill="none" stroke="midnightblue" d="M824.66,-533.5C850.72,-525.47 879.97,-514.42 904.5,-500 936.12,-481.42 966.34,-450.44 982.45,-432.51"/>
<polygon fill="midnightblue" stroke="midnightblue" points="823.43,-530.21 814.85,-536.43 825.43,-536.92 823.43,-530.21"/>
</g>
<!-- Node5 -->
<g id="node5" class="node">
<title>Node5</title>
<g id="a_node5"><a xlink:href="RangeBinaryTree_8hpp.html" target="_top" xlink:title=" ">
<polygon fill="white" stroke="black" points="926,-335.5 926,-365.5 1063,-365.5 1063,-335.5 926,-335.5"/>
<text text-anchor="start" x="934" y="-353.5" font-family="Helvetica,sans-Serif" font-size="10.00">TravellersApp/src/collection</text>
<text text-anchor="middle" x="994.5" y="-342.5" font-family="Helvetica,sans-Serif" font-size="10.00">/RangeBinaryTree.hpp</text>
</a>
</g>
</g>
<!-- Node2&#45;&gt;Node5 -->
<g id="edge38" class="edge">
<title>Node2&#45;&gt;Node5</title>
<path fill="none" stroke="midnightblue" d="M803.02,-532.08C820.16,-523.95 838.87,-513.2 853.5,-500 892.12,-465.15 880.75,-438.82 917.5,-402 932.07,-387.4 951.51,-374.69 967.21,-365.68"/>
<polygon fill="midnightblue" stroke="midnightblue" points="801.34,-529 793.69,-536.33 804.24,-535.37 801.34,-529"/>
</g>
<!-- Node2&#45;&gt;Node6 -->
<g id="edge5" class="edge">
<title>Node2&#45;&gt;Node6</title>
<path fill="none" stroke="midnightblue" d="M823.55,-534.12C867.73,-523.48 924.72,-509.76 966.89,-499.61"/>
<polygon fill="midnightblue" stroke="midnightblue" points="822.66,-530.73 813.75,-536.48 824.3,-537.54 822.66,-530.73"/>
</g>
<!-- Node2&#45;&gt;Node7 -->
<g id="edge7" class="edge">
<title>Node2&#45;&gt;Node7</title>
<path fill="none" stroke="midnightblue" d="M676.69,-537.65C615.09,-527.55 527.31,-513.07 450.5,-500 445.89,-499.21 441.13,-498.4 436.33,-497.57"/>
<polygon fill="midnightblue" stroke="midnightblue" points="676.29,-541.13 686.73,-539.29 677.42,-534.22 676.29,-541.13"/>
</g>
<!-- Node9 -->
<g id="node9" class="node">
<title>Node9</title>
<g id="a_node9"><a xlink:href="Scanner_8hpp.html" target="_top" xlink:title=" ">
<polygon fill="white" stroke="black" points="785,-335.5 785,-365.5 908,-365.5 908,-335.5 785,-335.5"/>
<text text-anchor="start" x="793" y="-353.5" font-family="Helvetica,sans-Serif" font-size="10.00">TravellersApp/src/parser</text>
<text text-anchor="middle" x="846.5" y="-342.5" font-family="Helvetica,sans-Serif" font-size="10.00">/Scanner.hpp</text>
</a>
</g>
</g>
<!-- Node2&#45;&gt;Node9 -->
<g id="edge41" class="edge">
<title>Node2&#45;&gt;Node9</title>
<path fill="none" stroke="midnightblue" d="M799.85,-531.3C812.8,-523.48 825.59,-513.14 833.5,-500 859.39,-456.98 853.51,-393.88 849.14,-365.84"/>
<polygon fill="midnightblue" stroke="midnightblue" points="797.92,-528.36 790.91,-536.31 801.34,-534.47 797.92,-528.36"/>
</g>
<!-- Node10 -->
<g id="node10" class="node">
<title>Node10</title>
<g id="a_node10"><a xlink:href="CSV_8hpp.html" target="_top" xlink:title=" ">
<polygon fill="white" stroke="black" points="965,-268.5 965,-298.5 1088,-298.5 1088,-268.5 965,-268.5"/>
<text text-anchor="start" x="973" y="-286.5" font-family="Helvetica,sans-Serif" font-size="10.00">TravellersApp/src/parser</text>
<text text-anchor="middle" x="1026.5" y="-275.5" font-family="Helvetica,sans-Serif" font-size="10.00">/CSV.hpp</text>
</a>
</g>
</g>
<!-- Node2&#45;&gt;Node10 -->
<g id="edge40" class="edge">
<title>Node2&#45;&gt;Node10</title>
<path fill="none" stroke="midnightblue" d="M834.7,-536.14C908.96,-528.11 1065.5,-543.41 1103.5,-500 1129.17,-470.68 1141.96,-467.42 1072.5,-335 1065.23,-321.14 1053.23,-308.14 1043.3,-298.81"/>
<polygon fill="midnightblue" stroke="midnightblue" points="833.83,-532.72 824.37,-537.5 834.74,-539.66 833.83,-532.72"/>
</g>
<!-- Node12 -->
<g id="node12" class="node">
<title>Node12</title>
<g id="a_node12"><a xlink:href="User_8hpp.html" target="_top" xlink:title=" ">
<polygon fill="white" stroke="black" points="578,-207 578,-226 713,-226 713,-207 578,-207"/>
<text text-anchor="middle" x="645.5" y="-214" font-family="Helvetica,sans-Serif" font-size="10.00">TravellersApp/src/User.hpp</text>
</a>
</g>
</g>
<!-- Node2&#45;&gt;Node12 -->
<g id="edge46" class="edge">
<title>Node2&#45;&gt;Node12</title>
<path fill="none" stroke="midnightblue" d="M713.23,-531.19C700.01,-523.26 686.54,-512.87 677.5,-500 656.11,-469.57 658.5,-455.69 658.5,-418.5 658.5,-418.5 658.5,-418.5 658.5,-349.5 658.5,-302.75 650.33,-247.14 646.94,-226.12"/>
<polygon fill="midnightblue" stroke="midnightblue" points="711.84,-534.43 722.27,-536.3 715.28,-528.34 711.84,-534.43"/>
</g>
<!-- Node26 -->
<g id="node26" class="node">
<title>Node26</title>
<g id="a_node26"><a xlink:href="SortedArrayList_8hpp.html" target="_top" xlink:title=" ">
<polygon fill="white" stroke="black" points="493,-469.5 493,-499.5 630,-499.5 630,-469.5 493,-469.5"/>
<text text-anchor="start" x="501" y="-487.5" font-family="Helvetica,sans-Serif" font-size="10.00">TravellersApp/src/collection</text>
<text text-anchor="middle" x="561.5" y="-476.5" font-family="Helvetica,sans-Serif" font-size="10.00">/SortedArrayList.hpp</text>
</a>
</g>
</g>
<!-- Node2&#45;&gt;Node26 -->
<g id="edge39" class="edge">
<title>Node2&#45;&gt;Node26</title>
<path fill="none" stroke="midnightblue" d="M703.54,-533.09C672.23,-522.6 632.86,-509.41 603.51,-499.58"/>
<polygon fill="midnightblue" stroke="midnightblue" points="702.81,-536.54 713.4,-536.4 705.03,-529.9 702.81,-536.54"/>
</g>
<!-- Node27 -->
<g id="node27" class="node">
<title>Node27</title>
<g id="a_node27"><a xlink:href="VisitBuilder_8hpp.html" target="_top" xlink:title=" ">
<polygon fill="white" stroke="black" points="454.5,-274 454.5,-293 618.5,-293 618.5,-274 454.5,-274"/>
<text text-anchor="middle" x="536.5" y="-281" font-family="Helvetica,sans-Serif" font-size="10.00">TravellersApp/src/VisitBuilder.hpp</text>
</a>
</g>
</g>
<!-- Node2&#45;&gt;Node27 -->
<g id="edge42" class="edge">
<title>Node2&#45;&gt;Node27</title>
<path fill="none" stroke="midnightblue" d="M676.43,-546.74C605.07,-541.5 507.68,-529.08 483.5,-500 429.8,-435.42 505.99,-324.55 529.79,-293.07"/>
<polygon fill="midnightblue" stroke="midnightblue" points="676.54,-550.26 686.76,-547.46 677.02,-543.28 676.54,-550.26"/>
</g>
<!-- Node4&#45;&gt;Node5 -->
<g id="edge4" class="edge">
<title>Node4&#45;&gt;Node5</title>
<path fill="none" stroke="midnightblue" d="M994.5,-392.11C994.5,-383.15 994.5,-373.32 994.5,-365.58"/>
<polygon fill="midnightblue" stroke="midnightblue" points="991,-392.4 994.5,-402.4 998,-392.4 991,-392.4"/>
</g>
<!-- Node6&#45;&gt;Node4 -->
<g id="edge6" class="edge">
<title>Node6&#45;&gt;Node4</title>
<path fill="none" stroke="midnightblue" d="M1014.43,-460.28C1010.01,-451.02 1005.07,-440.66 1001.21,-432.58"/>
<polygon fill="midnightblue" stroke="midnightblue" points="1011.31,-461.88 1018.77,-469.4 1017.63,-458.86 1011.31,-461.88"/>
</g>
<!-- Node7&#45;&gt;Node8 -->
<g id="edge8" class="edge">
<title>Node7&#45;&gt;Node8</title>
<path fill="none" stroke="midnightblue" d="M350.66,-461.16C343.51,-451.68 335.4,-440.92 329.11,-432.58"/>
<polygon fill="midnightblue" stroke="midnightblue" points="348.05,-463.52 356.87,-469.4 353.64,-459.3 348.05,-463.52"/>
</g>
<!-- Node8&#45;&gt;Node9 -->
<g id="edge9" class="edge">
<title>Node8&#45;&gt;Node9</title>
<path fill="none" stroke="midnightblue" d="M390.23,-407.67C494.59,-394.82 686.54,-371.19 784.88,-359.09"/>
<polygon fill="midnightblue" stroke="midnightblue" points="389.6,-404.22 380.1,-408.92 390.45,-411.17 389.6,-404.22"/>
</g>
<!-- Node14 -->
<g id="node14" class="node">
<title>Node14</title>
<g id="a_node14"><a xlink:href="HTLInterpreter_8hpp.html" target="_top" xlink:title=" ">
<polygon fill="white" stroke="black" points="333,-67.5 333,-97.5 456,-97.5 456,-67.5 333,-67.5"/>
<text text-anchor="start" x="341" y="-85.5" font-family="Helvetica,sans-Serif" font-size="10.00">TravellersApp/src/parser</text>
<text text-anchor="middle" x="394.5" y="-74.5" font-family="Helvetica,sans-Serif" font-size="10.00">/HTLInterpreter.hpp</text>
</a>
</g>
</g>
<!-- Node8&#45;&gt;Node14 -->
<g id="edge29" class="edge">
<title>Node8&#45;&gt;Node14</title>
<path fill="none" stroke="midnightblue" d="M338.63,-394.69C359.31,-369.92 388.5,-327.38 388.5,-284.5 388.5,-284.5 388.5,-284.5 388.5,-215.5 388.5,-172.6 391.7,-121.94 393.43,-97.75"/>
<polygon fill="midnightblue" stroke="midnightblue" points="335.88,-392.52 332,-402.38 341.18,-397.09 335.88,-392.52"/>
</g>
<!-- Node16 -->
<g id="node16" class="node">
<title>Node16</title>
<g id="a_node16"><a xlink:href="LoginInterpreter_8hpp.html" target="_top" xlink:title=" ">
<polygon fill="white" stroke="black" points="474,-67.5 474,-97.5 597,-97.5 597,-67.5 474,-67.5"/>
<text text-anchor="start" x="482" y="-85.5" font-family="Helvetica,sans-Serif" font-size="10.00">TravellersApp/src/parser</text>
<text text-anchor="middle" x="535.5" y="-74.5" font-family="Helvetica,sans-Serif" font-size="10.00">/LoginInterpreter.hpp</text>
</a>
</g>
</g>
<!-- Node8&#45;&gt;Node16 -->
<g id="edge35" class="edge">
<title>Node8&#45;&gt;Node16</title>
<path fill="none" stroke="midnightblue" d="M350.28,-396.46C382.14,-373.61 426.5,-333.08 426.5,-284.5 426.5,-284.5 426.5,-284.5 426.5,-215.5 426.5,-175.34 439.75,-164.81 465.5,-134 477.9,-119.17 495.57,-106.46 510.06,-97.5"/>
<polygon fill="midnightblue" stroke="midnightblue" points="347.89,-393.85 341.67,-402.42 351.88,-399.6 347.89,-393.85"/>
</g>
<!-- Node18 -->
<g id="node18" class="node">
<title>Node18</title>
<g id="a_node18"><a xlink:href="VisitInterpreter_8hpp.html" target="_top" xlink:title=" ">
<polygon fill="white" stroke="black" points="51,-67.5 51,-97.5 174,-97.5 174,-67.5 51,-67.5"/>
<text text-anchor="start" x="59" y="-85.5" font-family="Helvetica,sans-Serif" font-size="10.00">TravellersApp/src/parser</text>
<text text-anchor="middle" x="112.5" y="-74.5" font-family="Helvetica,sans-Serif" font-size="10.00">/VisitInterpreter.hpp</text>
</a>
</g>
</g>
<!-- Node8&#45;&gt;Node18 -->
<g id="edge37" class="edge">
<title>Node8&#45;&gt;Node18</title>
<path fill="none" stroke="midnightblue" d="M263.36,-398.76C214.71,-379.26 151.5,-342.71 151.5,-284.5 151.5,-284.5 151.5,-284.5 151.5,-215.5 151.5,-171.05 130.91,-121.51 119.65,-97.74"/>
<polygon fill="midnightblue" stroke="midnightblue" points="262.28,-402.1 272.87,-402.44 264.8,-395.57 262.28,-402.1"/>
</g>
<!-- Node23 -->
<g id="node23" class="node">
<title>Node23</title>
<g id="a_node23"><a xlink:href="Interpreter_8hpp.html" target="_top" xlink:title=" ">
<polygon fill="white" stroke="black" points="237,-134.5 237,-164.5 360,-164.5 360,-134.5 237,-134.5"/>
<text text-anchor="start" x="245" y="-152.5" font-family="Helvetica,sans-Serif" font-size="10.00">TravellersApp/src/parser</text>
<text text-anchor="middle" x="298.5" y="-141.5" font-family="Helvetica,sans-Serif" font-size="10.00">/Interpreter.hpp</text>
</a>
</g>
</g>
<!-- Node8&#45;&gt;Node23 -->
<g id="edge30" class="edge">
<title>Node8&#45;&gt;Node23</title>
<path fill="none" stroke="midnightblue" d="M316.66,-392.07C312.57,-337.57 302.79,-207.52 299.56,-164.55"/>
<polygon fill="midnightblue" stroke="midnightblue" points="313.18,-392.49 317.42,-402.2 320.17,-391.96 313.18,-392.49"/>
</g>
<!-- Node25 -->
<g id="node25" class="node">
<title>Node25</title>
<g id="a_node25"><a xlink:href="CommandList_8cpp.html" target="_top" xlink:title=" ">
<polygon fill="white" stroke="black" points="0,-335.5 0,-365.5 123,-365.5 123,-335.5 0,-335.5"/>
<text text-anchor="start" x="8" y="-353.5" font-family="Helvetica,sans-Serif" font-size="10.00">TravellersApp/src/parser</text>
<text text-anchor="middle" x="61.5" y="-342.5" font-family="Helvetica,sans-Serif" font-size="10.00">/CommandList.cpp</text>
</a>
</g>
</g>
<!-- Node8&#45;&gt;Node25 -->
<g id="edge36" class="edge">
<title>Node8&#45;&gt;Node25</title>
<path fill="none" stroke="midnightblue" d="M253.2,-399.98C211.22,-389.37 157.26,-375.72 117.29,-365.61"/>
<polygon fill="midnightblue" stroke="midnightblue" points="252.5,-403.42 263.05,-402.48 254.21,-396.63 252.5,-403.42"/>
</g>
<!-- Node9&#45;&gt;Node10 -->
<g id="edge10" class="edge">
<title>Node9&#45;&gt;Node10</title>
<path fill="none" stroke="midnightblue" d="M895.09,-331.96C924.08,-321.48 960.41,-308.37 987.52,-298.58"/>
<polygon fill="midnightblue" stroke="midnightblue" points="893.77,-328.71 885.56,-335.4 896.15,-335.29 893.77,-328.71"/>
</g>
<!-- Node11 -->
<g id="node11" class="node">
<title>Node11</title>
<g id="a_node11"><a xlink:href="main_8cpp.html" target="_top" xlink:title=" ">
<polygon fill="white" stroke="black" points="744,-6 744,-25 879,-25 879,-6 744,-6"/>
<text text-anchor="middle" x="811.5" y="-13" font-family="Helvetica,sans-Serif" font-size="10.00">TravellersApp/src/main.cpp</text>
</a>
</g>
</g>
<!-- Node9&#45;&gt;Node11 -->
<g id="edge26" class="edge">
<title>Node9&#45;&gt;Node11</title>
<path fill="none" stroke="midnightblue" d="M884.16,-330.04C896.45,-321.97 909.09,-311.53 917.5,-299 938.22,-268.11 936.5,-254.69 936.5,-217.5 936.5,-217.5 936.5,-217.5 936.5,-148.5 936.5,-87.11 864.34,-42.81 829.68,-25.07"/>
<polygon fill="midnightblue" stroke="midnightblue" points="882,-327.26 875.33,-335.49 885.68,-333.21 882,-327.26"/>
</g>
<!-- Node15 -->
<g id="node15" class="node">
<title>Node15</title>
<g id="a_node15"><a xlink:href="HTLInterpreter_8cpp.html" target="_top" xlink:title=" ">
<polygon fill="white" stroke="black" points="333,-0.5 333,-30.5 456,-30.5 456,-0.5 333,-0.5"/>
<text text-anchor="start" x="341" y="-18.5" font-family="Helvetica,sans-Serif" font-size="10.00">TravellersApp/src/parser</text>
<text text-anchor="middle" x="394.5" y="-7.5" font-family="Helvetica,sans-Serif" font-size="10.00">/HTLInterpreter.cpp</text>
</a>
</g>
</g>
<!-- Node9&#45;&gt;Node15 -->
<g id="edge27" class="edge">
<title>Node9&#45;&gt;Node15</title>
<path fill="none" stroke="midnightblue" d="M807.5,-330.12C795.33,-322.15 783.12,-311.75 775.5,-299 722.21,-209.79 819.88,-140.57 746.5,-67 701.89,-22.27 526.81,-41.41 464.5,-31 461.81,-30.55 459.06,-30.07 456.29,-29.57"/>
<polygon fill="midnightblue" stroke="midnightblue" points="805.93,-333.26 816.28,-335.5 809.58,-327.29 805.93,-333.26"/>
</g>
<!-- Node22 -->
<g id="node22" class="node">
<title>Node22</title>
<g id="a_node22"><a xlink:href="Scanner_8cpp.html" target="_top" xlink:title=" ">
<polygon fill="white" stroke="black" points="785,-268.5 785,-298.5 908,-298.5 908,-268.5 785,-268.5"/>
<text text-anchor="start" x="793" y="-286.5" font-family="Helvetica,sans-Serif" font-size="10.00">TravellersApp/src/parser</text>
<text text-anchor="middle" x="846.5" y="-275.5" font-family="Helvetica,sans-Serif" font-size="10.00">/Scanner.cpp</text>
</a>
</g>
</g>
<!-- Node9&#45;&gt;Node22 -->
<g id="edge28" class="edge">
<title>Node9&#45;&gt;Node22</title>
<path fill="none" stroke="midnightblue" d="M846.5,-325.11C846.5,-316.15 846.5,-306.32 846.5,-298.58"/>
<polygon fill="midnightblue" stroke="midnightblue" points="843,-325.4 846.5,-335.4 850,-325.4 843,-325.4"/>
</g>
<!-- Node10&#45;&gt;Node11 -->
<g id="edge11" class="edge">
<title>Node10&#45;&gt;Node11</title>
<path fill="none" stroke="midnightblue" d="M1067.32,-263.04C1079.25,-255.18 1090.86,-244.87 1097.5,-232 1103.82,-219.76 1103.07,-213.6 1097.5,-201 1051.02,-95.73 909.74,-43.85 844.8,-25.05"/>
<polygon fill="midnightblue" stroke="midnightblue" points="1065.36,-260.14 1058.65,-268.34 1069.01,-266.12 1065.36,-260.14"/>
</g>
<!-- Node10&#45;&gt;Node12 -->
<g id="edge12" class="edge">
<title>Node10&#45;&gt;Node12</title>
<path fill="none" stroke="midnightblue" d="M954.93,-270.29C879.24,-257.38 761.8,-237.34 695.5,-226.03"/>
<polygon fill="midnightblue" stroke="midnightblue" points="954.42,-273.75 964.86,-271.98 955.59,-266.85 954.42,-273.75"/>
</g>
<!-- Node13 -->
<g id="node13" class="node">
<title>Node13</title>
<g id="a_node13"><a xlink:href="TravelState_8hpp.html" target="_top" xlink:title=" ">
<polygon fill="white" stroke="black" points="475,-134.5 475,-164.5 598,-164.5 598,-134.5 475,-134.5"/>
<text text-anchor="start" x="483" y="-152.5" font-family="Helvetica,sans-Serif" font-size="10.00">TravellersApp/src/Travel</text>
<text text-anchor="middle" x="536.5" y="-141.5" font-family="Helvetica,sans-Serif" font-size="10.00">State.hpp</text>
</a>
</g>
</g>
<!-- Node10&#45;&gt;Node13 -->
<g id="edge24" class="edge">
<title>Node10&#45;&gt;Node13</title>
<path fill="none" stroke="midnightblue" d="M964.82,-265.88C867.43,-239.65 679.79,-189.1 588.68,-164.56"/>
<polygon fill="midnightblue" stroke="midnightblue" points="963.96,-269.28 974.53,-268.5 965.78,-262.52 963.96,-269.28"/>
</g>
<!-- Node21 -->
<g id="node21" class="node">
<title>Node21</title>
<g id="a_node21"><a xlink:href="CSV_8cpp.html" target="_top" xlink:title=" ">
<polygon fill="white" stroke="black" points="965,-201.5 965,-231.5 1088,-231.5 1088,-201.5 965,-201.5"/>
<text text-anchor="start" x="973" y="-219.5" font-family="Helvetica,sans-Serif" font-size="10.00">TravellersApp/src/parser</text>
<text text-anchor="middle" x="1026.5" y="-208.5" font-family="Helvetica,sans-Serif" font-size="10.00">/CSV.cpp</text>
</a>
</g>
</g>
<!-- Node10&#45;&gt;Node21 -->
<g id="edge25" class="edge">
<title>Node10&#45;&gt;Node21</title>
<path fill="none" stroke="midnightblue" d="M1026.5,-258.11C1026.5,-249.15 1026.5,-239.32 1026.5,-231.58"/>
<polygon fill="midnightblue" stroke="midnightblue" points="1023,-258.4 1026.5,-268.4 1030,-258.4 1023,-258.4"/>
</g>
<!-- Node12&#45;&gt;Node13 -->
<g id="edge13" class="edge">
<title>Node12&#45;&gt;Node13</title>
<path fill="none" stroke="midnightblue" d="M622.2,-201.6C603.89,-190.69 578.51,-175.55 560.13,-164.59"/>
<polygon fill="midnightblue" stroke="midnightblue" points="620.42,-204.62 630.8,-206.73 624,-198.61 620.42,-204.62"/>
</g>
<!-- Node13&#45;&gt;Node14 -->
<g id="edge14" class="edge">
<title>Node13&#45;&gt;Node14</title>
<path fill="none" stroke="midnightblue" d="M496.37,-130.13C473.81,-119.8 446.08,-107.11 425.25,-97.58"/>
<polygon fill="midnightblue" stroke="midnightblue" points="495.14,-133.42 505.69,-134.4 498.05,-127.05 495.14,-133.42"/>
</g>
<!-- Node13&#45;&gt;Node16 -->
<g id="edge17" class="edge">
<title>Node13&#45;&gt;Node16</title>
<path fill="none" stroke="midnightblue" d="M536.12,-124.11C535.99,-115.15 535.84,-105.32 535.72,-97.58"/>
<polygon fill="midnightblue" stroke="midnightblue" points="532.63,-124.45 536.28,-134.4 539.63,-124.34 532.63,-124.45"/>
</g>
<!-- Node13&#45;&gt;Node18 -->
<g id="edge20" class="edge">
<title>Node13&#45;&gt;Node18</title>
<path fill="none" stroke="midnightblue" d="M464.66,-139.59C392.99,-130.39 279.84,-115.01 182.5,-98 179.81,-97.53 177.07,-97.03 174.3,-96.52"/>
<polygon fill="midnightblue" stroke="midnightblue" points="464.56,-143.11 474.92,-140.9 465.45,-136.16 464.56,-143.11"/>
</g>
<!-- Node20 -->
<g id="node20" class="node">
<title>Node20</title>
<g id="a_node20"><a xlink:href="TravelState_8cpp.html" target="_top" xlink:title=" ">
<polygon fill="white" stroke="black" points="615,-67.5 615,-97.5 738,-97.5 738,-67.5 615,-67.5"/>
<text text-anchor="start" x="623" y="-85.5" font-family="Helvetica,sans-Serif" font-size="10.00">TravellersApp/src/Travel</text>
<text text-anchor="middle" x="676.5" y="-74.5" font-family="Helvetica,sans-Serif" font-size="10.00">State.cpp</text>
</a>
</g>
</g>
<!-- Node13&#45;&gt;Node20 -->
<g id="edge23" class="edge">
<title>Node13&#45;&gt;Node20</title>
<path fill="none" stroke="midnightblue" d="M576.07,-130.13C598.31,-119.8 625.65,-107.11 646.18,-97.58"/>
<polygon fill="midnightblue" stroke="midnightblue" points="574.47,-127.01 566.88,-134.4 577.42,-133.36 574.47,-127.01"/>
</g>
<!-- Node14&#45;&gt;Node11 -->
<g id="edge15" class="edge">
<title>Node14&#45;&gt;Node11</title>
<path fill="none" stroke="midnightblue" d="M466.19,-66.76C568.66,-48.92 676.97,-33.92 744.79,-25"/>
<polygon fill="midnightblue" stroke="midnightblue" points="465.54,-63.32 456.3,-68.49 466.75,-70.21 465.54,-63.32"/>
</g>
<!-- Node14&#45;&gt;Node15 -->
<g id="edge16" class="edge">
<title>Node14&#45;&gt;Node15</title>
<path fill="none" stroke="midnightblue" d="M394.5,-57.11C394.5,-48.15 394.5,-38.32 394.5,-30.58"/>
<polygon fill="midnightblue" stroke="midnightblue" points="391,-57.4 394.5,-67.4 398,-57.4 391,-57.4"/>
</g>
<!-- Node16&#45;&gt;Node11 -->
<g id="edge18" class="edge">
<title>Node16&#45;&gt;Node11</title>
<path fill="none" stroke="midnightblue" d="M604.93,-65.15C659.09,-52.39 732.14,-35.19 775.29,-25.03"/>
<polygon fill="midnightblue" stroke="midnightblue" points="603.98,-61.78 595.05,-67.48 605.58,-68.59 603.98,-61.78"/>
</g>
<!-- Node17 -->
<g id="node17" class="node">
<title>Node17</title>
<g id="a_node17"><a xlink:href="LoginInterpreter_8cpp.html" target="_top" xlink:title=" ">
<polygon fill="white" stroke="black" points="474,-0.5 474,-30.5 597,-30.5 597,-0.5 474,-0.5"/>
<text text-anchor="start" x="482" y="-18.5" font-family="Helvetica,sans-Serif" font-size="10.00">TravellersApp/src/parser</text>
<text text-anchor="middle" x="535.5" y="-7.5" font-family="Helvetica,sans-Serif" font-size="10.00">/LoginInterpreter.cpp</text>
</a>
</g>
</g>
<!-- Node16&#45;&gt;Node17 -->
<g id="edge19" class="edge">
<title>Node16&#45;&gt;Node17</title>
<path fill="none" stroke="midnightblue" d="M535.5,-57.11C535.5,-48.15 535.5,-38.32 535.5,-30.58"/>
<polygon fill="midnightblue" stroke="midnightblue" points="532,-57.4 535.5,-67.4 539,-57.4 532,-57.4"/>
</g>
<!-- Node18&#45;&gt;Node15 -->
<g id="edge21" class="edge">
<title>Node18&#45;&gt;Node15</title>
<path fill="none" stroke="midnightblue" d="M183.28,-65.19C229.46,-54.54 289.14,-40.78 333.28,-30.61"/>
<polygon fill="midnightblue" stroke="midnightblue" points="182.3,-61.82 173.34,-67.48 183.87,-68.64 182.3,-61.82"/>
</g>
<!-- Node19 -->
<g id="node19" class="node">
<title>Node19</title>
<g id="a_node19"><a xlink:href="VisitInterpreter_8cpp.html" target="_top" xlink:title=" ">
<polygon fill="white" stroke="black" points="51,-0.5 51,-30.5 174,-30.5 174,-0.5 51,-0.5"/>
<text text-anchor="start" x="59" y="-18.5" font-family="Helvetica,sans-Serif" font-size="10.00">TravellersApp/src/parser</text>
<text text-anchor="middle" x="112.5" y="-7.5" font-family="Helvetica,sans-Serif" font-size="10.00">/VisitInterpreter.cpp</text>
</a>
</g>
</g>
<!-- Node18&#45;&gt;Node19 -->
<g id="edge22" class="edge">
<title>Node18&#45;&gt;Node19</title>
<path fill="none" stroke="midnightblue" d="M112.5,-57.11C112.5,-48.15 112.5,-38.32 112.5,-30.58"/>
<polygon fill="midnightblue" stroke="midnightblue" points="109,-57.4 112.5,-67.4 116,-57.4 109,-57.4"/>
</g>
<!-- Node23&#45;&gt;Node14 -->
<g id="edge31" class="edge">
<title>Node23&#45;&gt;Node14</title>
<path fill="none" stroke="midnightblue" d="M327.69,-128.73C342.55,-118.68 360.26,-106.68 373.71,-97.58"/>
<polygon fill="midnightblue" stroke="midnightblue" points="325.65,-125.89 319.33,-134.4 329.57,-131.69 325.65,-125.89"/>
</g>
<!-- Node23&#45;&gt;Node16 -->
<g id="edge32" class="edge">
<title>Node23&#45;&gt;Node16</title>
<path fill="none" stroke="midnightblue" d="M359.7,-131.71C398.27,-121.14 447.5,-107.63 484.05,-97.61"/>
<polygon fill="midnightblue" stroke="midnightblue" points="358.35,-128.46 349.63,-134.48 360.2,-135.21 358.35,-128.46"/>
</g>
<!-- Node23&#45;&gt;Node18 -->
<g id="edge33" class="edge">
<title>Node23&#45;&gt;Node18</title>
<path fill="none" stroke="midnightblue" d="M248.69,-131.09C218.66,-120.6 180.91,-107.41 152.78,-97.58"/>
<polygon fill="midnightblue" stroke="midnightblue" points="247.55,-134.4 258.14,-134.4 249.86,-127.79 247.55,-134.4"/>
</g>
<!-- Node24 -->
<g id="node24" class="node">
<title>Node24</title>
<g id="a_node24"><a xlink:href="Interpreter_8cpp.html" target="_top" xlink:title=" ">
<polygon fill="white" stroke="black" points="192,-67.5 192,-97.5 315,-97.5 315,-67.5 192,-67.5"/>
<text text-anchor="start" x="200" y="-85.5" font-family="Helvetica,sans-Serif" font-size="10.00">TravellersApp/src/parser</text>
<text text-anchor="middle" x="253.5" y="-74.5" font-family="Helvetica,sans-Serif" font-size="10.00">/Interpreter.cpp</text>
</a>
</g>
</g>
<!-- Node23&#45;&gt;Node24 -->
<g id="edge34" class="edge">
<title>Node23&#45;&gt;Node24</title>
<path fill="none" stroke="midnightblue" d="M283.03,-126.16C276.47,-116.68 269.02,-105.92 263.25,-97.58"/>
<polygon fill="midnightblue" stroke="midnightblue" points="280.17,-128.17 288.74,-134.4 285.92,-124.18 280.17,-128.17"/>
</g>
<!-- Node27&#45;&gt;Node12 -->
<g id="edge43" class="edge">
<title>Node27&#45;&gt;Node12</title>
<path fill="none" stroke="midnightblue" d="M560.07,-268.44C581.66,-255.57 612.92,-236.93 631.03,-226.13"/>
<polygon fill="midnightblue" stroke="midnightblue" points="558,-265.61 551.2,-273.73 561.58,-271.62 558,-265.61"/>
</g>
<!-- Node27&#45;&gt;Node13 -->
<g id="edge44" class="edge">
<title>Node27&#45;&gt;Node13</title>
<path fill="none" stroke="midnightblue" d="M536.5,-263.53C536.5,-236.81 536.5,-188.69 536.5,-164.78"/>
<polygon fill="midnightblue" stroke="midnightblue" points="533,-263.84 536.5,-273.84 540,-263.84 533,-263.84"/>
</g>
<!-- Node27&#45;&gt;Node18 -->
<g id="edge45" class="edge">
<title>Node27&#45;&gt;Node18</title>
<path fill="none" stroke="midnightblue" d="M497.05,-271.04C436.93,-252.79 319.65,-214.15 227.5,-165 190.36,-145.19 151.22,-115.21 129.52,-97.67"/>
<polygon fill="midnightblue" stroke="midnightblue" points="496.31,-274.47 506.89,-273.99 498.32,-267.76 496.31,-274.47"/>
</g>
<!-- Node28&#45;&gt;Node2 -->
<g id="edge48" class="edge">
<title>Node28&#45;&gt;Node2</title>
<path fill="none" stroke="midnightblue" d="M794.08,-595.74C785.5,-586.12 775.66,-575.09 768.06,-566.58"/>
<polygon fill="midnightblue" stroke="midnightblue" points="791.65,-598.26 800.91,-603.4 796.87,-593.6 791.65,-598.26"/>
</g>
<!-- Node28&#45;&gt;Node29 -->
<g id="edge49" class="edge">
<title>Node28&#45;&gt;Node29</title>
<path fill="none" stroke="midnightblue" d="M843,-597.73C858.01,-587.68 875.9,-575.68 889.49,-566.58"/>
<polygon fill="midnightblue" stroke="midnightblue" points="840.91,-594.92 834.55,-603.4 844.8,-600.74 840.91,-594.92"/>
</g>
</g>
</svg>
