<?xml version="1.0" encoding="UTF-8" standalone="no"?>
<!DOCTYPE svg PUBLIC "-//W3C//DTD SVG 1.1//EN"
 "http://www.w3.org/Graphics/SVG/1.1/DTD/svg11.dtd">
<!-- Generated by graphviz version 2.44.0 (0)
 -->
<!-- Title: TravellersApp/src/collection/RangeBinaryTree.hpp Pages: 1 -->
<svg width="837pt" height="431pt"
 viewBox="0.00 0.00 836.50 431.00" xmlns="http://www.w3.org/2000/svg" xmlns:xlink="http://www.w3.org/1999/xlink">
<g id="graph0" class="graph" transform="scale(1 1) rotate(0) translate(4 427)">
<title>TravellersApp/src/collection/RangeBinaryTree.hpp</title>
<polygon fill="white" stroke="transparent" points="-4,4 -4,-427 832.5,-427 832.5,4 -4,4"/>
<!-- Node1 -->
<g id="node1" class="node">
<title>Node1</title>
<g id="a_node1"><a xlink:title=" ">
<polygon fill="#bfbfbf" stroke="black" points="436,-392.5 436,-422.5 573,-422.5 573,-392.5 436,-392.5"/>
<text text-anchor="start" x="444" y="-410.5" font-family="Helvetica,sans-Serif" font-size="10.00">TravellersApp/src/collection</text>
<text text-anchor="middle" x="504.5" y="-399.5" font-family="Helvetica,sans-Serif" font-size="10.00">/RangeBinaryTree.hpp</text>
</a>
</g>
</g>
<!-- Node2 -->
<g id="node2" class="node">
<title>Node2</title>
<g id="a_node2"><a xlink:title=" ">
<polygon fill="white" stroke="#bfbfbf" points="359.5,-280.5 359.5,-299.5 409.5,-299.5 409.5,-280.5 359.5,-280.5"/>
<text text-anchor="middle" x="384.5" y="-287.5" font-family="Helvetica,sans-Serif" font-size="10.00">iomanip</text>
</a>
</g>
</g>
<!-- Node1&#45;&gt;Node2 -->
<g id="edge1" class="edge">
<title>Node1&#45;&gt;Node2</title>
<path fill="none" stroke="midnightblue" d="M489.79,-392.34C467.28,-370.68 424.45,-329.45 400.95,-306.83"/>
<polygon fill="midnightblue" stroke="midnightblue" points="403.14,-304.08 393.51,-299.67 398.28,-309.13 403.14,-304.08"/>
</g>
<!-- Node3 -->
<g id="node3" class="node">
<title>Node3</title>
<g id="a_node3"><a xlink:title=" ">
<polygon fill="white" stroke="#bfbfbf" points="412.5,-0.5 412.5,-19.5 466.5,-19.5 466.5,-0.5 412.5,-0.5"/>
<text text-anchor="middle" x="439.5" y="-7.5" font-family="Helvetica,sans-Serif" font-size="10.00">iostream</text>
</a>
</g>
</g>
<!-- Node1&#45;&gt;Node3 -->
<g id="edge2" class="edge">
<title>Node1&#45;&gt;Node3</title>
<path fill="none" stroke="midnightblue" d="M573.21,-396.22C668.32,-380.01 828.5,-344.75 828.5,-291 828.5,-291 828.5,-291 828.5,-121 828.5,-48.29 573.67,-21.22 476.52,-13.54"/>
<polygon fill="midnightblue" stroke="midnightblue" points="476.78,-10.05 466.54,-12.78 476.25,-17.03 476.78,-10.05"/>
</g>
<!-- Node4 -->
<g id="node4" class="node">
<title>Node4</title>
<g id="a_node4"><a xlink:title=" ">
<polygon fill="white" stroke="#bfbfbf" points="651,-112.5 651,-131.5 702,-131.5 702,-112.5 651,-112.5"/>
<text text-anchor="middle" x="676.5" y="-119.5" font-family="Helvetica,sans-Serif" font-size="10.00">memory</text>
</a>
</g>
</g>
<!-- Node1&#45;&gt;Node4 -->
<g id="edge3" class="edge">
<title>Node1&#45;&gt;Node4</title>
<path fill="none" stroke="midnightblue" d="M573,-393.04C657.61,-374.41 790.5,-337.72 790.5,-291 790.5,-291 790.5,-291 790.5,-233 790.5,-186.11 739.95,-152.89 706.17,-135.93"/>
<polygon fill="midnightblue" stroke="midnightblue" points="707.67,-132.77 697.14,-131.58 704.63,-139.07 707.67,-132.77"/>
</g>
<!-- Node5 -->
<g id="node5" class="node">
<title>Node5</title>
<g id="a_node5"><a xlink:href="BinaryNode_8hpp.html" target="_top" xlink:title=" ">
<polygon fill="white" stroke="black" points="462,-336.5 462,-355.5 547,-355.5 547,-336.5 462,-336.5"/>
<text text-anchor="middle" x="504.5" y="-343.5" font-family="Helvetica,sans-Serif" font-size="10.00">BinaryNode.hpp</text>
</a>
</g>
</g>
<!-- Node1&#45;&gt;Node5 -->
<g id="edge4" class="edge">
<title>Node1&#45;&gt;Node5</title>
<path fill="none" stroke="midnightblue" d="M504.5,-392.4C504.5,-384.47 504.5,-374.46 504.5,-365.86"/>
<polygon fill="midnightblue" stroke="midnightblue" points="508,-365.66 504.5,-355.66 501,-365.66 508,-365.66"/>
</g>
<!-- Node7 -->
<g id="node7" class="node">
<title>Node7</title>
<g id="a_node7"><a xlink:href="ArrayList_8hpp.html" target="_top" xlink:title=" ">
<polygon fill="white" stroke="black" points="373.5,-224.5 373.5,-243.5 447.5,-243.5 447.5,-224.5 373.5,-224.5"/>
<text text-anchor="middle" x="410.5" y="-231.5" font-family="Helvetica,sans-Serif" font-size="10.00">ArrayList.hpp</text>
</a>
</g>
</g>
<!-- Node1&#45;&gt;Node7 -->
<g id="edge38" class="edge">
<title>Node1&#45;&gt;Node7</title>
<path fill="none" stroke="midnightblue" d="M466.26,-392.42C429.01,-376.39 374.59,-346.28 350.5,-300 339.81,-279.47 362.5,-260.59 382.97,-248.53"/>
<polygon fill="midnightblue" stroke="midnightblue" points="384.75,-251.54 391.8,-243.64 381.36,-245.42 384.75,-251.54"/>
</g>
<!-- Node5&#45;&gt;Node2 -->
<g id="edge7" class="edge">
<title>Node5&#45;&gt;Node2</title>
<path fill="none" stroke="midnightblue" d="M485.49,-336.44C465.91,-327.64 435.19,-313.81 412.77,-303.72"/>
<polygon fill="midnightblue" stroke="midnightblue" points="413.98,-300.43 403.43,-299.52 411.11,-306.81 413.98,-300.43"/>
</g>
<!-- Node5&#45;&gt;Node3 -->
<g id="edge8" class="edge">
<title>Node5&#45;&gt;Node3</title>
<path fill="none" stroke="midnightblue" d="M547.13,-344.61C618.04,-341.46 752.5,-323.78 752.5,-235 752.5,-235 752.5,-235 752.5,-121 752.5,-63.14 559.72,-28.35 476.75,-16.05"/>
<polygon fill="midnightblue" stroke="midnightblue" points="477.13,-12.57 466.73,-14.6 476.12,-19.5 477.13,-12.57"/>
</g>
<!-- Node5&#45;&gt;Node4 -->
<g id="edge5" class="edge">
<title>Node5&#45;&gt;Node4</title>
<path fill="none" stroke="midnightblue" d="M520.29,-336.38C534.71,-328.09 556.21,-314.7 572.5,-300 620.34,-256.86 637.35,-246.42 664.5,-188 671.23,-173.51 674.19,-155.56 675.49,-142.19"/>
<polygon fill="midnightblue" stroke="midnightblue" points="679.01,-142.06 676.26,-131.83 672.03,-141.55 679.01,-142.06"/>
</g>
<!-- Node6 -->
<g id="node6" class="node">
<title>Node6</title>
<g id="a_node6"><a xlink:title=" ">
<polygon fill="white" stroke="#bfbfbf" points="468,-112.5 468,-131.5 527,-131.5 527,-112.5 468,-112.5"/>
<text text-anchor="middle" x="497.5" y="-119.5" font-family="Helvetica,sans-Serif" font-size="10.00">functional</text>
</a>
</g>
</g>
<!-- Node5&#45;&gt;Node6 -->
<g id="edge6" class="edge">
<title>Node5&#45;&gt;Node6</title>
<path fill="none" stroke="midnightblue" d="M502.02,-336.47C499.54,-327.48 495.91,-312.89 494.5,-300 488.2,-242.59 492.76,-174.09 495.64,-141.71"/>
<polygon fill="midnightblue" stroke="midnightblue" points="499.15,-141.79 496.6,-131.51 492.18,-141.14 499.15,-141.79"/>
</g>
<!-- Node5&#45;&gt;Node7 -->
<g id="edge9" class="edge">
<title>Node5&#45;&gt;Node7</title>
<path fill="none" stroke="midnightblue" d="M495.67,-336.27C486.79,-327.38 472.82,-313.07 461.5,-300 447.76,-284.15 433.08,-265.19 423.01,-251.85"/>
<polygon fill="midnightblue" stroke="midnightblue" points="425.64,-249.53 416.85,-243.63 420.04,-253.73 425.64,-249.53"/>
</g>
<!-- Node19 -->
<g id="node19" class="node">
<title>Node19</title>
<g id="a_node19"><a xlink:href="Stack_8hpp.html" target="_top" xlink:title=" ">
<polygon fill="white" stroke="black" points="503.5,-280.5 503.5,-299.5 563.5,-299.5 563.5,-280.5 503.5,-280.5"/>
<text text-anchor="middle" x="533.5" y="-287.5" font-family="Helvetica,sans-Serif" font-size="10.00">Stack.hpp</text>
</a>
</g>
</g>
<!-- Node5&#45;&gt;Node19 -->
<g id="edge34" class="edge">
<title>Node5&#45;&gt;Node19</title>
<path fill="none" stroke="midnightblue" d="M509.29,-336.08C513.26,-328.69 519.03,-317.95 523.93,-308.81"/>
<polygon fill="midnightblue" stroke="midnightblue" points="527.15,-310.22 528.8,-299.75 520.99,-306.91 527.15,-310.22"/>
</g>
<!-- Node7&#45;&gt;Node3 -->
<g id="edge11" class="edge">
<title>Node7&#45;&gt;Node3</title>
<path fill="none" stroke="midnightblue" d="M373.18,-231.82C333.3,-228.88 269.85,-219.18 225.5,-188 194.77,-166.39 183.91,-149.29 188.5,-112 191.63,-86.54 183.85,-73.61 202.5,-56 216.89,-42.42 339.18,-24.36 402.23,-15.84"/>
<polygon fill="midnightblue" stroke="midnightblue" points="402.74,-19.31 412.18,-14.51 401.81,-12.37 402.74,-19.31"/>
</g>
<!-- Node7&#45;&gt;Node4 -->
<g id="edge12" class="edge">
<title>Node7&#45;&gt;Node4</title>
<path fill="none" stroke="midnightblue" d="M447.77,-231.96C491.66,-229.22 565.43,-219.79 619.5,-188 639.24,-176.39 655.7,-155.53 665.77,-140.57"/>
<polygon fill="midnightblue" stroke="midnightblue" points="668.98,-142.05 671.44,-131.75 663.09,-138.27 668.98,-142.05"/>
</g>
<!-- Node7&#45;&gt;Node6 -->
<g id="edge10" class="edge">
<title>Node7&#45;&gt;Node6</title>
<path fill="none" stroke="midnightblue" d="M412.72,-224.26C416.39,-211.04 424.74,-185.63 438.5,-168 448.1,-155.7 461.83,-144.97 473.62,-137.07"/>
<polygon fill="midnightblue" stroke="midnightblue" points="475.63,-139.94 482.17,-131.6 471.86,-134.04 475.63,-139.94"/>
</g>
<!-- Node8 -->
<g id="node8" class="node">
<title>Node8</title>
<g id="a_node8"><a xlink:href="InvalidArgumentException_8hpp.html" target="_top" xlink:title=" ">
<polygon fill="white" stroke="black" points="0,-56.5 0,-75.5 155,-75.5 155,-56.5 0,-56.5"/>
<text text-anchor="middle" x="77.5" y="-63.5" font-family="Helvetica,sans-Serif" font-size="10.00">../InvalidArgumentException.hpp</text>
</a>
</g>
</g>
<!-- Node7&#45;&gt;Node8 -->
<g id="edge13" class="edge">
<title>Node7&#45;&gt;Node8</title>
<path fill="none" stroke="midnightblue" d="M373.39,-231.67C304.9,-228.5 162.17,-218.35 124.5,-188 92.87,-162.52 82.48,-112.93 79.1,-85.82"/>
<polygon fill="midnightblue" stroke="midnightblue" points="82.57,-85.29 78.04,-75.71 75.6,-86.02 82.57,-85.29"/>
</g>
<!-- Node11 -->
<g id="node11" class="node">
<title>Node11</title>
<g id="a_node11"><a xlink:href="debug_8hpp.html" target="_top" xlink:title=" ">
<polygon fill="white" stroke="black" points="211.5,-56.5 211.5,-75.5 279.5,-75.5 279.5,-56.5 211.5,-56.5"/>
<text text-anchor="middle" x="245.5" y="-63.5" font-family="Helvetica,sans-Serif" font-size="10.00">../debug.hpp</text>
</a>
</g>
</g>
<!-- Node7&#45;&gt;Node11 -->
<g id="edge17" class="edge">
<title>Node7&#45;&gt;Node11</title>
<path fill="none" stroke="midnightblue" d="M373.32,-227.76C322.93,-218.45 234.74,-193.79 195.5,-132 183.89,-113.72 203.73,-94.21 221.74,-81.39"/>
<polygon fill="midnightblue" stroke="midnightblue" points="223.93,-84.14 230.29,-75.67 220.04,-78.32 223.93,-84.14"/>
</g>
<!-- Node12 -->
<g id="node12" class="node">
<title>Node12</title>
<g id="a_node12"><a xlink:href="Nullable_8hpp.html" target="_top" xlink:title=" ">
<polygon fill="white" stroke="black" points="545,-112.5 545,-131.5 622,-131.5 622,-112.5 545,-112.5"/>
<text text-anchor="middle" x="583.5" y="-119.5" font-family="Helvetica,sans-Serif" font-size="10.00">../Nullable.hpp</text>
</a>
</g>
</g>
<!-- Node7&#45;&gt;Node12 -->
<g id="edge18" class="edge">
<title>Node7&#45;&gt;Node12</title>
<path fill="none" stroke="midnightblue" d="M424.08,-224.37C453.76,-205.49 524.7,-160.38 561.11,-137.24"/>
<polygon fill="midnightblue" stroke="midnightblue" points="563.43,-139.91 569.99,-131.59 559.67,-134 563.43,-139.91"/>
</g>
<!-- Node14 -->
<g id="node14" class="node">
<title>Node14</title>
<g id="a_node14"><a xlink:href="IList_8hpp.html" target="_top" xlink:title=" ">
<polygon fill="white" stroke="black" points="556.5,-168.5 556.5,-187.5 610.5,-187.5 610.5,-168.5 556.5,-168.5"/>
<text text-anchor="middle" x="583.5" y="-175.5" font-family="Helvetica,sans-Serif" font-size="10.00">IList.hpp</text>
</a>
</g>
</g>
<!-- Node7&#45;&gt;Node14 -->
<g id="edge25" class="edge">
<title>Node7&#45;&gt;Node14</title>
<path fill="none" stroke="midnightblue" d="M437.91,-224.44C467.27,-215.28 514.02,-200.69 546.6,-190.52"/>
<polygon fill="midnightblue" stroke="midnightblue" points="547.71,-193.84 556.22,-187.52 545.63,-187.16 547.71,-193.84"/>
</g>
<!-- Node15 -->
<g id="node15" class="node">
<title>Node15</title>
<g id="a_node15"><a xlink:href="Tuple_8hpp.html" target="_top" xlink:title=" ">
<polygon fill="white" stroke="black" points="327,-168.5 327,-187.5 386,-187.5 386,-168.5 327,-168.5"/>
<text text-anchor="middle" x="356.5" y="-175.5" font-family="Helvetica,sans-Serif" font-size="10.00">Tuple.hpp</text>
</a>
</g>
</g>
<!-- Node7&#45;&gt;Node15 -->
<g id="edge28" class="edge">
<title>Node7&#45;&gt;Node15</title>
<path fill="none" stroke="midnightblue" d="M401.58,-224.08C393.72,-216.22 382.07,-204.57 372.58,-195.08"/>
<polygon fill="midnightblue" stroke="midnightblue" points="374.8,-192.35 365.25,-187.75 369.85,-197.3 374.8,-192.35"/>
</g>
<!-- Node8&#45;&gt;Node3 -->
<g id="edge16" class="edge">
<title>Node8&#45;&gt;Node3</title>
<path fill="none" stroke="midnightblue" d="M134.86,-56.44C209.83,-45.26 339.02,-25.99 402.34,-16.54"/>
<polygon fill="midnightblue" stroke="midnightblue" points="402.9,-20 412.28,-15.06 401.87,-13.07 402.9,-20"/>
</g>
<!-- Node9 -->
<g id="node9" class="node">
<title>Node9</title>
<g id="a_node9"><a xlink:title=" ">
<polygon fill="white" stroke="#bfbfbf" points="279.5,-0.5 279.5,-19.5 325.5,-19.5 325.5,-0.5 279.5,-0.5"/>
<text text-anchor="middle" x="302.5" y="-7.5" font-family="Helvetica,sans-Serif" font-size="10.00">cstring</text>
</a>
</g>
</g>
<!-- Node8&#45;&gt;Node9 -->
<g id="edge14" class="edge">
<title>Node8&#45;&gt;Node9</title>
<path fill="none" stroke="midnightblue" d="M113.15,-56.44C156.1,-46.14 227.68,-28.96 269.44,-18.93"/>
<polygon fill="midnightblue" stroke="midnightblue" points="270.47,-22.29 279.38,-16.55 268.84,-15.48 270.47,-22.29"/>
</g>
<!-- Node10 -->
<g id="node10" class="node">
<title>Node10</title>
<g id="a_node10"><a xlink:title=" ">
<polygon fill="white" stroke="#bfbfbf" points="100.5,-0.5 100.5,-19.5 158.5,-19.5 158.5,-0.5 100.5,-0.5"/>
<text text-anchor="middle" x="129.5" y="-7.5" font-family="Helvetica,sans-Serif" font-size="10.00">exception</text>
</a>
</g>
</g>
<!-- Node8&#45;&gt;Node10 -->
<g id="edge15" class="edge">
<title>Node8&#45;&gt;Node10</title>
<path fill="none" stroke="midnightblue" d="M86.09,-56.08C93.66,-48.22 104.88,-36.57 114.01,-27.08"/>
<polygon fill="midnightblue" stroke="midnightblue" points="116.66,-29.38 121.07,-19.75 111.62,-24.53 116.66,-29.38"/>
</g>
<!-- Node12&#45;&gt;Node3 -->
<g id="edge24" class="edge">
<title>Node12&#45;&gt;Node3</title>
<path fill="none" stroke="midnightblue" d="M572.2,-112.37C547.7,-93.65 489.44,-49.15 458.92,-25.83"/>
<polygon fill="midnightblue" stroke="midnightblue" points="460.82,-22.88 450.75,-19.59 456.57,-28.44 460.82,-22.88"/>
</g>
<!-- Node12&#45;&gt;Node11 -->
<g id="edge23" class="edge">
<title>Node12&#45;&gt;Node11</title>
<path fill="none" stroke="midnightblue" d="M544.75,-113.59C541.62,-113.04 538.51,-112.5 535.5,-112 429.28,-94.31 399.46,-95.3 289.88,-76.15"/>
<polygon fill="midnightblue" stroke="midnightblue" points="290.19,-72.65 279.73,-74.36 288.97,-79.55 290.19,-72.65"/>
</g>
<!-- Node13 -->
<g id="node13" class="node">
<title>Node13</title>
<g id="a_node13"><a xlink:href="NoValueException_8hpp.html" target="_top" xlink:title=" ">
<polygon fill="white" stroke="black" points="297.5,-56.5 297.5,-75.5 411.5,-75.5 411.5,-56.5 297.5,-56.5"/>
<text text-anchor="middle" x="354.5" y="-63.5" font-family="Helvetica,sans-Serif" font-size="10.00">NoValueException.hpp</text>
</a>
</g>
</g>
<!-- Node12&#45;&gt;Node13 -->
<g id="edge19" class="edge">
<title>Node12&#45;&gt;Node13</title>
<path fill="none" stroke="midnightblue" d="M547.21,-112.44C507.52,-103.08 443.79,-88.06 400.59,-77.87"/>
<polygon fill="midnightblue" stroke="midnightblue" points="401.15,-74.41 390.62,-75.52 399.55,-81.22 401.15,-74.41"/>
</g>
<!-- Node13&#45;&gt;Node3 -->
<g id="edge22" class="edge">
<title>Node13&#45;&gt;Node3</title>
<path fill="none" stroke="midnightblue" d="M368.16,-56.32C381.42,-47.9 401.77,-34.97 417.35,-25.07"/>
<polygon fill="midnightblue" stroke="midnightblue" points="419.31,-27.97 425.88,-19.65 415.56,-22.06 419.31,-27.97"/>
</g>
<!-- Node13&#45;&gt;Node9 -->
<g id="edge20" class="edge">
<title>Node13&#45;&gt;Node9</title>
<path fill="none" stroke="midnightblue" d="M345.91,-56.08C338.34,-48.22 327.12,-36.57 317.99,-27.08"/>
<polygon fill="midnightblue" stroke="midnightblue" points="320.38,-24.53 310.93,-19.75 315.34,-29.38 320.38,-24.53"/>
</g>
<!-- Node13&#45;&gt;Node10 -->
<g id="edge21" class="edge">
<title>Node13&#45;&gt;Node10</title>
<path fill="none" stroke="midnightblue" d="M318.85,-56.44C277.87,-46.61 210.82,-30.52 168.49,-20.36"/>
<polygon fill="midnightblue" stroke="midnightblue" points="169.09,-16.9 158.55,-17.97 167.45,-23.71 169.09,-16.9"/>
</g>
<!-- Node14&#45;&gt;Node4 -->
<g id="edge27" class="edge">
<title>Node14&#45;&gt;Node4</title>
<path fill="none" stroke="midnightblue" d="M598.44,-168.32C613.09,-159.82 635.63,-146.73 652.74,-136.8"/>
<polygon fill="midnightblue" stroke="midnightblue" points="654.7,-139.7 661.6,-131.65 651.19,-133.65 654.7,-139.7"/>
</g>
<!-- Node14&#45;&gt;Node12 -->
<g id="edge26" class="edge">
<title>Node14&#45;&gt;Node12</title>
<path fill="none" stroke="midnightblue" d="M583.5,-168.08C583.5,-161.01 583.5,-150.86 583.5,-141.99"/>
<polygon fill="midnightblue" stroke="midnightblue" points="587,-141.75 583.5,-131.75 580,-141.75 587,-141.75"/>
</g>
<!-- Node15&#45;&gt;Node3 -->
<g id="edge32" class="edge">
<title>Node15&#45;&gt;Node3</title>
<path fill="none" stroke="midnightblue" d="M376.29,-168.39C390.94,-160.94 410.09,-148.72 420.5,-132 440.28,-100.22 441.84,-54.93 440.89,-29.74"/>
<polygon fill="midnightblue" stroke="midnightblue" points="444.38,-29.49 440.33,-19.7 437.39,-29.88 444.38,-29.49"/>
</g>
<!-- Node15&#45;&gt;Node6 -->
<g id="edge31" class="edge">
<title>Node15&#45;&gt;Node6</title>
<path fill="none" stroke="midnightblue" d="M378.84,-168.44C402.25,-159.48 439.24,-145.31 465.69,-135.18"/>
<polygon fill="midnightblue" stroke="midnightblue" points="467.18,-138.36 475.26,-131.52 464.67,-131.82 467.18,-138.36"/>
</g>
<!-- Node16 -->
<g id="node16" class="node">
<title>Node16</title>
<g id="a_node16"><a xlink:href="ttype_8hpp.html" target="_top" xlink:title=" ">
<polygon fill="white" stroke="black" points="205,-112.5 205,-131.5 268,-131.5 268,-112.5 205,-112.5"/>
<text text-anchor="middle" x="236.5" y="-119.5" font-family="Helvetica,sans-Serif" font-size="10.00">../ttype.hpp</text>
</a>
</g>
</g>
<!-- Node15&#45;&gt;Node16 -->
<g id="edge29" class="edge">
<title>Node15&#45;&gt;Node16</title>
<path fill="none" stroke="midnightblue" d="M337.49,-168.44C317.91,-159.64 287.19,-145.81 264.77,-135.72"/>
<polygon fill="midnightblue" stroke="midnightblue" points="265.98,-132.43 255.43,-131.52 263.11,-138.81 265.98,-132.43"/>
</g>
<!-- Node17 -->
<g id="node17" class="node">
<title>Node17</title>
<g id="a_node17"><a xlink:title=" ">
<polygon fill="white" stroke="#bfbfbf" points="286,-112.5 286,-131.5 331,-131.5 331,-112.5 286,-112.5"/>
<text text-anchor="middle" x="308.5" y="-119.5" font-family="Helvetica,sans-Serif" font-size="10.00">cstdlib</text>
</a>
</g>
</g>
<!-- Node15&#45;&gt;Node17 -->
<g id="edge30" class="edge">
<title>Node15&#45;&gt;Node17</title>
<path fill="none" stroke="midnightblue" d="M348.57,-168.08C341.65,-160.3 331.43,-148.8 323.05,-139.37"/>
<polygon fill="midnightblue" stroke="midnightblue" points="325.54,-136.9 316.28,-131.75 320.31,-141.55 325.54,-136.9"/>
</g>
<!-- Node18 -->
<g id="node18" class="node">
<title>Node18</title>
<g id="a_node18"><a xlink:title=" ">
<polygon fill="white" stroke="#bfbfbf" points="349.5,-112.5 349.5,-131.5 411.5,-131.5 411.5,-112.5 349.5,-112.5"/>
<text text-anchor="middle" x="380.5" y="-119.5" font-family="Helvetica,sans-Serif" font-size="10.00">type_traits</text>
</a>
</g>
</g>
<!-- Node15&#45;&gt;Node18 -->
<g id="edge33" class="edge">
<title>Node15&#45;&gt;Node18</title>
<path fill="none" stroke="midnightblue" d="M360.46,-168.08C363.71,-160.77 368.42,-150.18 372.45,-141.1"/>
<polygon fill="midnightblue" stroke="midnightblue" points="375.75,-142.31 376.61,-131.75 369.35,-139.47 375.75,-142.31"/>
</g>
<!-- Node19&#45;&gt;Node4 -->
<g id="edge35" class="edge">
<title>Node19&#45;&gt;Node4</title>
<path fill="none" stroke="midnightblue" d="M545.55,-280.46C567.52,-264.42 614.58,-227.77 644.5,-188 655.36,-173.57 664.11,-154.87 669.69,-141.24"/>
<polygon fill="midnightblue" stroke="midnightblue" points="673.09,-142.16 673.47,-131.57 666.57,-139.61 673.09,-142.16"/>
</g>
<!-- Node19&#45;&gt;Node7 -->
<g id="edge37" class="edge">
<title>Node19&#45;&gt;Node7</title>
<path fill="none" stroke="midnightblue" d="M514.01,-280.44C493.86,-271.6 462.18,-257.69 439.17,-247.59"/>
<polygon fill="midnightblue" stroke="midnightblue" points="440.46,-244.33 429.9,-243.52 437.65,-250.74 440.46,-244.33"/>
</g>
<!-- Node19&#45;&gt;Node12 -->
<g id="edge36" class="edge">
<title>Node19&#45;&gt;Node12</title>
<path fill="none" stroke="midnightblue" d="M532.91,-280.38C531.85,-259.97 531.06,-207.43 547.5,-168 551.96,-157.31 559.75,-147.08 566.94,-139.09"/>
<polygon fill="midnightblue" stroke="midnightblue" points="569.68,-141.29 574.06,-131.64 564.62,-136.45 569.68,-141.29"/>
</g>
</g>
</svg>
