<?xml version="1.0" encoding="UTF-8" standalone="no"?>
<!DOCTYPE svg PUBLIC "-//W3C//DTD SVG 1.1//EN"
 "http://www.w3.org/Graphics/SVG/1.1/DTD/svg11.dtd">
<!-- Generated by graphviz version 2.44.0 (0)
 -->
<!-- Title: TravellersApp/src/parser/ScannerContext.hpp Pages: 1 -->
<svg width="936pt" height="508pt"
 viewBox="0.00 0.00 936.35 508.00" xmlns="http://www.w3.org/2000/svg" xmlns:xlink="http://www.w3.org/1999/xlink">
<g id="graph0" class="graph" transform="scale(1 1) rotate(0) translate(4 504)">
<title>TravellersApp/src/parser/ScannerContext.hpp</title>
<polygon fill="white" stroke="transparent" points="-4,4 -4,-504 932.35,-504 932.35,4 -4,4"/>
<!-- Node1 -->
<g id="node1" class="node">
<title>Node1</title>
<g id="a_node1"><a xlink:title=" ">
<polygon fill="#bfbfbf" stroke="black" points="549.35,-469.5 549.35,-499.5 672.35,-499.5 672.35,-469.5 549.35,-469.5"/>
<text text-anchor="start" x="557.35" y="-487.5" font-family="Helvetica,sans-Serif" font-size="10.00">TravellersApp/src/parser</text>
<text text-anchor="middle" x="610.85" y="-476.5" font-family="Helvetica,sans-Serif" font-size="10.00">/ScannerContext.hpp</text>
</a>
</g>
</g>
<!-- Node2 -->
<g id="node2" class="node">
<title>Node2</title>
<g id="a_node2"><a xlink:href="CommandList_8hpp.html" target="_top" xlink:title=" ">
<polygon fill="white" stroke="black" points="549.35,-402.5 549.35,-432.5 672.35,-432.5 672.35,-402.5 549.35,-402.5"/>
<text text-anchor="start" x="557.35" y="-420.5" font-family="Helvetica,sans-Serif" font-size="10.00">TravellersApp/src/parser</text>
<text text-anchor="middle" x="610.85" y="-409.5" font-family="Helvetica,sans-Serif" font-size="10.00">/CommandList.hpp</text>
</a>
</g>
</g>
<!-- Node1&#45;&gt;Node2 -->
<g id="edge1" class="edge">
<title>Node1&#45;&gt;Node2</title>
<path fill="none" stroke="midnightblue" d="M610.85,-459.11C610.85,-450.15 610.85,-440.32 610.85,-432.58"/>
<polygon fill="midnightblue" stroke="midnightblue" points="607.35,-459.4 610.85,-469.4 614.35,-459.4 607.35,-459.4"/>
</g>
<!-- Node3 -->
<g id="node3" class="node">
<title>Node3</title>
<g id="a_node3"><a xlink:href="Scanner_8hpp.html" target="_top" xlink:title=" ">
<polygon fill="white" stroke="black" points="184.35,-335.5 184.35,-365.5 307.35,-365.5 307.35,-335.5 184.35,-335.5"/>
<text text-anchor="start" x="192.35" y="-353.5" font-family="Helvetica,sans-Serif" font-size="10.00">TravellersApp/src/parser</text>
<text text-anchor="middle" x="245.85" y="-342.5" font-family="Helvetica,sans-Serif" font-size="10.00">/Scanner.hpp</text>
</a>
</g>
</g>
<!-- Node1&#45;&gt;Node3 -->
<g id="edge31" class="edge">
<title>Node1&#45;&gt;Node3</title>
<path fill="none" stroke="midnightblue" d="M562.69,-466.08C489.55,-439.63 351.9,-389.85 284.72,-365.56"/>
<polygon fill="midnightblue" stroke="midnightblue" points="561.54,-469.39 572.14,-469.5 563.92,-462.81 561.54,-469.39"/>
</g>
<!-- Node20 -->
<g id="node20" class="node">
<title>Node20</title>
<g id="a_node20"><a xlink:href="ScannerContext_8cpp.html" target="_top" xlink:title=" ">
<polygon fill="white" stroke="black" points="690.35,-402.5 690.35,-432.5 813.35,-432.5 813.35,-402.5 690.35,-402.5"/>
<text text-anchor="start" x="698.35" y="-420.5" font-family="Helvetica,sans-Serif" font-size="10.00">TravellersApp/src/parser</text>
<text text-anchor="middle" x="751.85" y="-409.5" font-family="Helvetica,sans-Serif" font-size="10.00">/ScannerContext.cpp</text>
</a>
</g>
</g>
<!-- Node1&#45;&gt;Node20 -->
<g id="edge32" class="edge">
<title>Node1&#45;&gt;Node20</title>
<path fill="none" stroke="midnightblue" d="M650.7,-465.13C673.1,-454.8 700.64,-442.11 721.32,-432.58"/>
<polygon fill="midnightblue" stroke="midnightblue" points="649.06,-462.03 641.45,-469.4 651.99,-468.39 649.06,-462.03"/>
</g>
<!-- Node2&#45;&gt;Node3 -->
<g id="edge2" class="edge">
<title>Node2&#45;&gt;Node3</title>
<path fill="none" stroke="midnightblue" d="M539.22,-403.74C471.73,-391.72 371.67,-373.91 307.61,-362.5"/>
<polygon fill="midnightblue" stroke="midnightblue" points="538.89,-407.24 549.35,-405.55 540.12,-400.35 538.89,-407.24"/>
</g>
<!-- Node8 -->
<g id="node8" class="node">
<title>Node8</title>
<g id="a_node8"><a xlink:href="HTLInterpreter_8hpp.html" target="_top" xlink:title=" ">
<polygon fill="white" stroke="black" points="382.35,-67.5 382.35,-97.5 505.35,-97.5 505.35,-67.5 382.35,-67.5"/>
<text text-anchor="start" x="390.35" y="-85.5" font-family="Helvetica,sans-Serif" font-size="10.00">TravellersApp/src/parser</text>
<text text-anchor="middle" x="443.85" y="-74.5" font-family="Helvetica,sans-Serif" font-size="10.00">/HTLInterpreter.hpp</text>
</a>
</g>
</g>
<!-- Node2&#45;&gt;Node8 -->
<g id="edge22" class="edge">
<title>Node2&#45;&gt;Node8</title>
<path fill="none" stroke="midnightblue" d="M599.7,-392.86C588.49,-366.89 572.85,-323.66 572.85,-284.5 572.85,-284.5 572.85,-284.5 572.85,-215.5 572.85,-174.75 558.94,-163.53 530.85,-134 516.05,-118.43 495.39,-106.17 477.91,-97.63"/>
<polygon fill="midnightblue" stroke="midnightblue" points="596.61,-394.53 603.88,-402.24 603,-391.68 596.61,-394.53"/>
</g>
<!-- Node10 -->
<g id="node10" class="node">
<title>Node10</title>
<g id="a_node10"><a xlink:href="LoginInterpreter_8hpp.html" target="_top" xlink:title=" ">
<polygon fill="white" stroke="black" points="523.35,-67.5 523.35,-97.5 646.35,-97.5 646.35,-67.5 523.35,-67.5"/>
<text text-anchor="start" x="531.35" y="-85.5" font-family="Helvetica,sans-Serif" font-size="10.00">TravellersApp/src/parser</text>
<text text-anchor="middle" x="584.85" y="-74.5" font-family="Helvetica,sans-Serif" font-size="10.00">/LoginInterpreter.hpp</text>
</a>
</g>
</g>
<!-- Node2&#45;&gt;Node10 -->
<g id="edge28" class="edge">
<title>Node2&#45;&gt;Node10</title>
<path fill="none" stroke="midnightblue" d="M610.85,-391.99C610.85,-365.49 610.85,-322 610.85,-284.5 610.85,-284.5 610.85,-284.5 610.85,-215.5 610.85,-171.82 596.98,-121.52 589.5,-97.58"/>
<polygon fill="midnightblue" stroke="midnightblue" points="607.35,-392.24 610.85,-402.24 614.35,-392.24 607.35,-392.24"/>
</g>
<!-- Node12 -->
<g id="node12" class="node">
<title>Node12</title>
<g id="a_node12"><a xlink:href="VisitInterpreter_8hpp.html" target="_top" xlink:title=" ">
<polygon fill="white" stroke="black" points="805.35,-67.5 805.35,-97.5 928.35,-97.5 928.35,-67.5 805.35,-67.5"/>
<text text-anchor="start" x="813.35" y="-85.5" font-family="Helvetica,sans-Serif" font-size="10.00">TravellersApp/src/parser</text>
<text text-anchor="middle" x="866.85" y="-74.5" font-family="Helvetica,sans-Serif" font-size="10.00">/VisitInterpreter.hpp</text>
</a>
</g>
</g>
<!-- Node2&#45;&gt;Node12 -->
<g id="edge30" class="edge">
<title>Node2&#45;&gt;Node12</title>
<path fill="none" stroke="midnightblue" d="M682.59,-401.44C735.42,-389.82 799.74,-374.37 809.85,-366 840.64,-340.51 847.85,-324.47 847.85,-284.5 847.85,-284.5 847.85,-284.5 847.85,-215.5 847.85,-172.2 857.99,-121.73 863.46,-97.66"/>
<polygon fill="midnightblue" stroke="midnightblue" points="681.56,-398.08 672.54,-403.63 683.06,-404.92 681.56,-398.08"/>
</g>
<!-- Node17 -->
<g id="node17" class="node">
<title>Node17</title>
<g id="a_node17"><a xlink:href="Interpreter_8hpp.html" target="_top" xlink:title=" ">
<polygon fill="white" stroke="black" points="639.35,-134.5 639.35,-164.5 762.35,-164.5 762.35,-134.5 639.35,-134.5"/>
<text text-anchor="start" x="647.35" y="-152.5" font-family="Helvetica,sans-Serif" font-size="10.00">TravellersApp/src/parser</text>
<text text-anchor="middle" x="700.85" y="-141.5" font-family="Helvetica,sans-Serif" font-size="10.00">/Interpreter.hpp</text>
</a>
</g>
</g>
<!-- Node2&#45;&gt;Node17 -->
<g id="edge23" class="edge">
<title>Node2&#45;&gt;Node17</title>
<path fill="none" stroke="midnightblue" d="M619,-392.41C637.37,-338.12 681.53,-207.61 696.1,-164.55"/>
<polygon fill="midnightblue" stroke="midnightblue" points="615.58,-391.6 615.69,-402.2 622.21,-393.85 615.58,-391.6"/>
</g>
<!-- Node19 -->
<g id="node19" class="node">
<title>Node19</title>
<g id="a_node19"><a xlink:href="CommandList_8cpp.html" target="_top" xlink:title=" ">
<polygon fill="white" stroke="black" points="677.35,-335.5 677.35,-365.5 800.35,-365.5 800.35,-335.5 677.35,-335.5"/>
<text text-anchor="start" x="685.35" y="-353.5" font-family="Helvetica,sans-Serif" font-size="10.00">TravellersApp/src/parser</text>
<text text-anchor="middle" x="738.85" y="-342.5" font-family="Helvetica,sans-Serif" font-size="10.00">/CommandList.cpp</text>
</a>
</g>
</g>
<!-- Node2&#45;&gt;Node19 -->
<g id="edge29" class="edge">
<title>Node2&#45;&gt;Node19</title>
<path fill="none" stroke="midnightblue" d="M647.57,-397.85C667.81,-387.58 692.53,-375.03 711.13,-365.58"/>
<polygon fill="midnightblue" stroke="midnightblue" points="645.96,-394.75 638.63,-402.4 649.13,-400.99 645.96,-394.75"/>
</g>
<!-- Node4 -->
<g id="node4" class="node">
<title>Node4</title>
<g id="a_node4"><a xlink:href="CSV_8hpp.html" target="_top" xlink:title=" ">
<polygon fill="white" stroke="black" points="229.35,-268.5 229.35,-298.5 352.35,-298.5 352.35,-268.5 229.35,-268.5"/>
<text text-anchor="start" x="237.35" y="-286.5" font-family="Helvetica,sans-Serif" font-size="10.00">TravellersApp/src/parser</text>
<text text-anchor="middle" x="290.85" y="-275.5" font-family="Helvetica,sans-Serif" font-size="10.00">/CSV.hpp</text>
</a>
</g>
</g>
<!-- Node3&#45;&gt;Node4 -->
<g id="edge3" class="edge">
<title>Node3&#45;&gt;Node4</title>
<path fill="none" stroke="midnightblue" d="M261.32,-327.16C267.88,-317.68 275.33,-306.92 281.11,-298.58"/>
<polygon fill="midnightblue" stroke="midnightblue" points="258.43,-325.18 255.62,-335.4 264.19,-329.17 258.43,-325.18"/>
</g>
<!-- Node5 -->
<g id="node5" class="node">
<title>Node5</title>
<g id="a_node5"><a xlink:href="main_8cpp.html" target="_top" xlink:title=" ">
<polygon fill="white" stroke="black" points="168.35,-6 168.35,-25 303.35,-25 303.35,-6 168.35,-6"/>
<text text-anchor="middle" x="235.85" y="-13" font-family="Helvetica,sans-Serif" font-size="10.00">TravellersApp/src/main.cpp</text>
</a>
</g>
</g>
<!-- Node3&#45;&gt;Node5 -->
<g id="edge19" class="edge">
<title>Node3&#45;&gt;Node5</title>
<path fill="none" stroke="midnightblue" d="M174.11,-341.71C116.68,-334.02 42.3,-320.28 20.85,-299 -5.56,-272.81 1.85,-254.69 1.85,-217.5 1.85,-217.5 1.85,-217.5 1.85,-148.5 1.85,-70.61 101.43,-38.17 170.67,-25.03"/>
<polygon fill="midnightblue" stroke="midnightblue" points="173.89,-345.22 184.25,-343.04 174.79,-338.27 173.89,-345.22"/>
</g>
<!-- Node9 -->
<g id="node9" class="node">
<title>Node9</title>
<g id="a_node9"><a xlink:href="HTLInterpreter_8cpp.html" target="_top" xlink:title=" ">
<polygon fill="white" stroke="black" points="382.35,-0.5 382.35,-30.5 505.35,-30.5 505.35,-0.5 382.35,-0.5"/>
<text text-anchor="start" x="390.35" y="-18.5" font-family="Helvetica,sans-Serif" font-size="10.00">TravellersApp/src/parser</text>
<text text-anchor="middle" x="443.85" y="-7.5" font-family="Helvetica,sans-Serif" font-size="10.00">/HTLInterpreter.cpp</text>
</a>
</g>
</g>
<!-- Node3&#45;&gt;Node9 -->
<g id="edge20" class="edge">
<title>Node3&#45;&gt;Node9</title>
<path fill="none" stroke="midnightblue" d="M231.08,-326.47C226.54,-318.15 222.15,-308.47 219.85,-299 195.54,-198.65 164.31,-145.09 231.85,-67 251.31,-44.5 326.86,-30.59 382.24,-23.2"/>
<polygon fill="midnightblue" stroke="midnightblue" points="228.1,-328.32 236.15,-335.21 234.15,-324.8 228.1,-328.32"/>
</g>
<!-- Node16 -->
<g id="node16" class="node">
<title>Node16</title>
<g id="a_node16"><a xlink:href="Scanner_8cpp.html" target="_top" xlink:title=" ">
<polygon fill="white" stroke="black" points="30.35,-268.5 30.35,-298.5 153.35,-298.5 153.35,-268.5 30.35,-268.5"/>
<text text-anchor="start" x="38.35" y="-286.5" font-family="Helvetica,sans-Serif" font-size="10.00">TravellersApp/src/parser</text>
<text text-anchor="middle" x="91.85" y="-275.5" font-family="Helvetica,sans-Serif" font-size="10.00">/Scanner.cpp</text>
</a>
</g>
</g>
<!-- Node3&#45;&gt;Node16 -->
<g id="edge21" class="edge">
<title>Node3&#45;&gt;Node16</title>
<path fill="none" stroke="midnightblue" d="M202.98,-331.41C178.4,-321.03 147.99,-308.2 125.2,-298.58"/>
<polygon fill="midnightblue" stroke="midnightblue" points="201.86,-334.73 212.44,-335.4 204.58,-328.28 201.86,-334.73"/>
</g>
<!-- Node4&#45;&gt;Node5 -->
<g id="edge4" class="edge">
<title>Node4&#45;&gt;Node5</title>
<path fill="none" stroke="midnightblue" d="M250.03,-263.04C238.1,-255.18 226.49,-244.87 219.85,-232 182.7,-159.98 219.63,-56.08 232.08,-25.36"/>
<polygon fill="midnightblue" stroke="midnightblue" points="248.34,-266.12 258.7,-268.34 251.99,-260.14 248.34,-266.12"/>
</g>
<!-- Node6 -->
<g id="node6" class="node">
<title>Node6</title>
<g id="a_node6"><a xlink:href="User_8hpp.html" target="_top" xlink:title=" ">
<polygon fill="white" stroke="black" points="409.35,-207 409.35,-226 544.35,-226 544.35,-207 409.35,-207"/>
<text text-anchor="middle" x="476.85" y="-214" font-family="Helvetica,sans-Serif" font-size="10.00">TravellersApp/src/User.hpp</text>
</a>
</g>
</g>
<!-- Node4&#45;&gt;Node6 -->
<g id="edge5" class="edge">
<title>Node4&#45;&gt;Node6</title>
<path fill="none" stroke="midnightblue" d="M341.08,-264.95C377.21,-252.32 424.34,-235.85 452.51,-226.01"/>
<polygon fill="midnightblue" stroke="midnightblue" points="339.5,-261.79 331.21,-268.4 341.81,-268.4 339.5,-261.79"/>
</g>
<!-- Node7 -->
<g id="node7" class="node">
<title>Node7</title>
<g id="a_node7"><a xlink:href="TravelState_8hpp.html" target="_top" xlink:title=" ">
<polygon fill="white" stroke="black" points="398.35,-134.5 398.35,-164.5 521.35,-164.5 521.35,-134.5 398.35,-134.5"/>
<text text-anchor="start" x="406.35" y="-152.5" font-family="Helvetica,sans-Serif" font-size="10.00">TravellersApp/src/Travel</text>
<text text-anchor="middle" x="459.85" y="-141.5" font-family="Helvetica,sans-Serif" font-size="10.00">State.hpp</text>
</a>
</g>
</g>
<!-- Node4&#45;&gt;Node7 -->
<g id="edge17" class="edge">
<title>Node4&#45;&gt;Node7</title>
<path fill="none" stroke="midnightblue" d="M320.19,-262.38C333.12,-253.32 348.41,-242.34 361.85,-232 391.31,-209.32 424.31,-181.31 443.52,-164.73"/>
<polygon fill="midnightblue" stroke="midnightblue" points="317.86,-259.73 311.66,-268.32 321.86,-265.48 317.86,-259.73"/>
</g>
<!-- Node15 -->
<g id="node15" class="node">
<title>Node15</title>
<g id="a_node15"><a xlink:href="CSV_8cpp.html" target="_top" xlink:title=" ">
<polygon fill="white" stroke="black" points="229.35,-201.5 229.35,-231.5 352.35,-231.5 352.35,-201.5 229.35,-201.5"/>
<text text-anchor="start" x="237.35" y="-219.5" font-family="Helvetica,sans-Serif" font-size="10.00">TravellersApp/src/parser</text>
<text text-anchor="middle" x="290.85" y="-208.5" font-family="Helvetica,sans-Serif" font-size="10.00">/CSV.cpp</text>
</a>
</g>
</g>
<!-- Node4&#45;&gt;Node15 -->
<g id="edge18" class="edge">
<title>Node4&#45;&gt;Node15</title>
<path fill="none" stroke="midnightblue" d="M290.85,-258.11C290.85,-249.15 290.85,-239.32 290.85,-231.58"/>
<polygon fill="midnightblue" stroke="midnightblue" points="287.35,-258.4 290.85,-268.4 294.35,-258.4 287.35,-258.4"/>
</g>
<!-- Node6&#45;&gt;Node7 -->
<g id="edge6" class="edge">
<title>Node6&#45;&gt;Node7</title>
<path fill="none" stroke="midnightblue" d="M471.95,-196.74C469.26,-186.49 466,-174 463.54,-164.59"/>
<polygon fill="midnightblue" stroke="midnightblue" points="468.64,-197.94 474.56,-206.73 475.42,-196.17 468.64,-197.94"/>
</g>
<!-- Node7&#45;&gt;Node8 -->
<g id="edge7" class="edge">
<title>Node7&#45;&gt;Node8</title>
<path fill="none" stroke="midnightblue" d="M453.92,-124.4C451.7,-115.37 449.24,-105.41 447.32,-97.58"/>
<polygon fill="midnightblue" stroke="midnightblue" points="450.59,-125.52 456.38,-134.4 457.39,-123.85 450.59,-125.52"/>
</g>
<!-- Node7&#45;&gt;Node10 -->
<g id="edge10" class="edge">
<title>Node7&#45;&gt;Node10</title>
<path fill="none" stroke="midnightblue" d="M495.98,-129.71C515.69,-119.46 539.69,-106.98 557.78,-97.58"/>
<polygon fill="midnightblue" stroke="midnightblue" points="494.23,-126.68 486.98,-134.4 497.46,-132.89 494.23,-126.68"/>
</g>
<!-- Node7&#45;&gt;Node12 -->
<g id="edge13" class="edge">
<title>Node7&#45;&gt;Node12</title>
<path fill="none" stroke="midnightblue" d="M531.74,-138.91C600.1,-129.5 705.72,-114.25 796.85,-98 799.54,-97.52 802.28,-97.02 805.05,-96.5"/>
<polygon fill="midnightblue" stroke="midnightblue" points="530.95,-135.48 521.51,-140.31 531.9,-142.42 530.95,-135.48"/>
</g>
<!-- Node14 -->
<g id="node14" class="node">
<title>Node14</title>
<g id="a_node14"><a xlink:href="TravelState_8cpp.html" target="_top" xlink:title=" ">
<polygon fill="white" stroke="black" points="241.35,-67.5 241.35,-97.5 364.35,-97.5 364.35,-67.5 241.35,-67.5"/>
<text text-anchor="start" x="249.35" y="-85.5" font-family="Helvetica,sans-Serif" font-size="10.00">TravellersApp/src/Travel</text>
<text text-anchor="middle" x="302.85" y="-74.5" font-family="Helvetica,sans-Serif" font-size="10.00">State.cpp</text>
</a>
</g>
</g>
<!-- Node7&#45;&gt;Node14 -->
<g id="edge16" class="edge">
<title>Node7&#45;&gt;Node14</title>
<path fill="none" stroke="midnightblue" d="M416.48,-130.54C391.36,-120.14 360.19,-107.24 336.85,-97.58"/>
<polygon fill="midnightblue" stroke="midnightblue" points="415.21,-133.8 425.79,-134.4 417.88,-127.34 415.21,-133.8"/>
</g>
<!-- Node8&#45;&gt;Node5 -->
<g id="edge8" class="edge">
<title>Node8&#45;&gt;Node5</title>
<path fill="none" stroke="midnightblue" d="M389.23,-64.43C348.67,-51.75 295.05,-35 263.14,-25.03"/>
<polygon fill="midnightblue" stroke="midnightblue" points="388.39,-67.83 398.98,-67.48 390.47,-61.15 388.39,-67.83"/>
</g>
<!-- Node8&#45;&gt;Node9 -->
<g id="edge9" class="edge">
<title>Node8&#45;&gt;Node9</title>
<path fill="none" stroke="midnightblue" d="M443.85,-57.11C443.85,-48.15 443.85,-38.32 443.85,-30.58"/>
<polygon fill="midnightblue" stroke="midnightblue" points="440.35,-57.4 443.85,-67.4 447.35,-57.4 440.35,-57.4"/>
</g>
<!-- Node10&#45;&gt;Node5 -->
<g id="edge11" class="edge">
<title>Node10&#45;&gt;Node5</title>
<path fill="none" stroke="midnightblue" d="M513.16,-66.69C427.62,-50.19 338.79,-34.41 285.06,-25.02"/>
<polygon fill="midnightblue" stroke="midnightblue" points="512.55,-70.14 523.03,-68.61 513.88,-63.27 512.55,-70.14"/>
</g>
<!-- Node11 -->
<g id="node11" class="node">
<title>Node11</title>
<g id="a_node11"><a xlink:href="LoginInterpreter_8cpp.html" target="_top" xlink:title=" ">
<polygon fill="white" stroke="black" points="523.35,-0.5 523.35,-30.5 646.35,-30.5 646.35,-0.5 523.35,-0.5"/>
<text text-anchor="start" x="531.35" y="-18.5" font-family="Helvetica,sans-Serif" font-size="10.00">TravellersApp/src/parser</text>
<text text-anchor="middle" x="584.85" y="-7.5" font-family="Helvetica,sans-Serif" font-size="10.00">/LoginInterpreter.cpp</text>
</a>
</g>
</g>
<!-- Node10&#45;&gt;Node11 -->
<g id="edge12" class="edge">
<title>Node10&#45;&gt;Node11</title>
<path fill="none" stroke="midnightblue" d="M584.85,-57.11C584.85,-48.15 584.85,-38.32 584.85,-30.58"/>
<polygon fill="midnightblue" stroke="midnightblue" points="581.35,-57.4 584.85,-67.4 588.35,-57.4 581.35,-57.4"/>
</g>
<!-- Node12&#45;&gt;Node9 -->
<g id="edge14" class="edge">
<title>Node12&#45;&gt;Node9</title>
<path fill="none" stroke="midnightblue" d="M795.14,-66.79C670.51,-46.43 636.34,-51.13 514.85,-31 511.75,-30.49 508.58,-29.93 505.37,-29.36"/>
<polygon fill="midnightblue" stroke="midnightblue" points="794.63,-70.25 805.06,-68.43 795.77,-63.35 794.63,-70.25"/>
</g>
<!-- Node13 -->
<g id="node13" class="node">
<title>Node13</title>
<g id="a_node13"><a xlink:href="VisitInterpreter_8cpp.html" target="_top" xlink:title=" ">
<polygon fill="white" stroke="black" points="805.35,-0.5 805.35,-30.5 928.35,-30.5 928.35,-0.5 805.35,-0.5"/>
<text text-anchor="start" x="813.35" y="-18.5" font-family="Helvetica,sans-Serif" font-size="10.00">TravellersApp/src/parser</text>
<text text-anchor="middle" x="866.85" y="-7.5" font-family="Helvetica,sans-Serif" font-size="10.00">/VisitInterpreter.cpp</text>
</a>
</g>
</g>
<!-- Node12&#45;&gt;Node13 -->
<g id="edge15" class="edge">
<title>Node12&#45;&gt;Node13</title>
<path fill="none" stroke="midnightblue" d="M866.85,-57.11C866.85,-48.15 866.85,-38.32 866.85,-30.58"/>
<polygon fill="midnightblue" stroke="midnightblue" points="863.35,-57.4 866.85,-67.4 870.35,-57.4 863.35,-57.4"/>
</g>
<!-- Node17&#45;&gt;Node8 -->
<g id="edge24" class="edge">
<title>Node17&#45;&gt;Node8</title>
<path fill="none" stroke="midnightblue" d="M635.55,-131.98C593.57,-121.37 539.61,-107.72 499.64,-97.61"/>
<polygon fill="midnightblue" stroke="midnightblue" points="634.85,-135.42 645.4,-134.48 636.57,-128.63 634.85,-135.42"/>
</g>
<!-- Node17&#45;&gt;Node10 -->
<g id="edge25" class="edge">
<title>Node17&#45;&gt;Node10</title>
<path fill="none" stroke="midnightblue" d="M666.58,-129.3C648.43,-119.12 626.53,-106.85 609.97,-97.58"/>
<polygon fill="midnightblue" stroke="midnightblue" points="665.25,-132.56 675.68,-134.4 668.67,-126.45 665.25,-132.56"/>
</g>
<!-- Node17&#45;&gt;Node12 -->
<g id="edge26" class="edge">
<title>Node17&#45;&gt;Node12</title>
<path fill="none" stroke="midnightblue" d="M746.36,-130.68C772.98,-120.26 806.12,-107.28 830.9,-97.58"/>
<polygon fill="midnightblue" stroke="midnightblue" points="744.91,-127.49 736.87,-134.4 747.46,-134.01 744.91,-127.49"/>
</g>
<!-- Node18 -->
<g id="node18" class="node">
<title>Node18</title>
<g id="a_node18"><a xlink:href="Interpreter_8cpp.html" target="_top" xlink:title=" ">
<polygon fill="white" stroke="black" points="664.35,-67.5 664.35,-97.5 787.35,-97.5 787.35,-67.5 664.35,-67.5"/>
<text text-anchor="start" x="672.35" y="-85.5" font-family="Helvetica,sans-Serif" font-size="10.00">TravellersApp/src/parser</text>
<text text-anchor="middle" x="725.85" y="-74.5" font-family="Helvetica,sans-Serif" font-size="10.00">/Interpreter.cpp</text>
</a>
</g>
</g>
<!-- Node17&#45;&gt;Node18 -->
<g id="edge27" class="edge">
<title>Node17&#45;&gt;Node18</title>
<path fill="none" stroke="midnightblue" d="M709.89,-124.99C713.43,-115.8 717.36,-105.58 720.44,-97.58"/>
<polygon fill="midnightblue" stroke="midnightblue" points="706.6,-123.81 706.28,-134.4 713.13,-126.32 706.6,-123.81"/>
</g>
</g>
</svg>
