<?xml version="1.0" encoding="UTF-8" standalone="no"?>
<!DOCTYPE svg PUBLIC "-//W3C//DTD SVG 1.1//EN"
 "http://www.w3.org/Graphics/SVG/1.1/DTD/svg11.dtd">
<!-- Generated by graphviz version 2.44.0 (0)
 -->
<!-- Title: TravellersApp/src/parser/Scanner.hpp Pages: 1 -->
<svg width="801pt" height="374pt"
 viewBox="0.00 0.00 800.50 374.00" xmlns="http://www.w3.org/2000/svg" xmlns:xlink="http://www.w3.org/1999/xlink">
<g id="graph0" class="graph" transform="scale(1 1) rotate(0) translate(4 370)">
<title>TravellersApp/src/parser/Scanner.hpp</title>
<polygon fill="white" stroke="transparent" points="-4,4 -4,-370 796.5,-370 796.5,4 -4,4"/>
<!-- Node1 -->
<g id="node1" class="node">
<title>Node1</title>
<g id="a_node1"><a xlink:title=" ">
<polygon fill="#bfbfbf" stroke="black" points="438.5,-335.5 438.5,-365.5 561.5,-365.5 561.5,-335.5 438.5,-335.5"/>
<text text-anchor="start" x="446.5" y="-353.5" font-family="Helvetica,sans-Serif" font-size="10.00">TravellersApp/src/parser</text>
<text text-anchor="middle" x="500" y="-342.5" font-family="Helvetica,sans-Serif" font-size="10.00">/Scanner.hpp</text>
</a>
</g>
</g>
<!-- Node2 -->
<g id="node2" class="node">
<title>Node2</title>
<g id="a_node2"><a xlink:href="CSV_8hpp.html" target="_top" xlink:title=" ">
<polygon fill="white" stroke="black" points="252.5,-268.5 252.5,-298.5 375.5,-298.5 375.5,-268.5 252.5,-268.5"/>
<text text-anchor="start" x="260.5" y="-286.5" font-family="Helvetica,sans-Serif" font-size="10.00">TravellersApp/src/parser</text>
<text text-anchor="middle" x="314" y="-275.5" font-family="Helvetica,sans-Serif" font-size="10.00">/CSV.hpp</text>
</a>
</g>
</g>
<!-- Node1&#45;&gt;Node2 -->
<g id="edge1" class="edge">
<title>Node1&#45;&gt;Node2</title>
<path fill="none" stroke="midnightblue" d="M450.19,-332.09C420.16,-321.6 382.41,-308.41 354.28,-298.58"/>
<polygon fill="midnightblue" stroke="midnightblue" points="449.05,-335.4 459.64,-335.4 451.36,-328.79 449.05,-335.4"/>
</g>
<!-- Node3 -->
<g id="node3" class="node">
<title>Node3</title>
<g id="a_node3"><a xlink:href="main_8cpp.html" target="_top" xlink:title=" ">
<polygon fill="white" stroke="black" points="15.5,-6 15.5,-25 150.5,-25 150.5,-6 15.5,-6"/>
<text text-anchor="middle" x="83" y="-13" font-family="Helvetica,sans-Serif" font-size="10.00">TravellersApp/src/main.cpp</text>
</a>
</g>
</g>
<!-- Node1&#45;&gt;Node3 -->
<g id="edge17" class="edge">
<title>Node1&#45;&gt;Node3</title>
<path fill="none" stroke="midnightblue" d="M428.35,-345.5C290.09,-335.8 0,-305.03 0,-217.5 0,-217.5 0,-217.5 0,-148.5 0,-94.63 50.15,-44.75 72.49,-25.21"/>
<polygon fill="midnightblue" stroke="midnightblue" points="428.22,-349 438.44,-346.19 428.7,-342.01 428.22,-349"/>
</g>
<!-- Node7 -->
<g id="node7" class="node">
<title>Node7</title>
<g id="a_node7"><a xlink:href="HTLInterpreter_8cpp.html" target="_top" xlink:title=" ">
<polygon fill="white" stroke="black" points="489.5,-0.5 489.5,-30.5 612.5,-30.5 612.5,-0.5 489.5,-0.5"/>
<text text-anchor="start" x="497.5" y="-18.5" font-family="Helvetica,sans-Serif" font-size="10.00">TravellersApp/src/parser</text>
<text text-anchor="middle" x="551" y="-7.5" font-family="Helvetica,sans-Serif" font-size="10.00">/HTLInterpreter.cpp</text>
</a>
</g>
</g>
<!-- Node1&#45;&gt;Node7 -->
<g id="edge18" class="edge">
<title>Node1&#45;&gt;Node7</title>
<path fill="none" stroke="midnightblue" d="M543.61,-330.88C585.02,-309.92 641,-271.59 641,-217.5 641,-217.5 641,-217.5 641,-148.5 641,-111.31 642.72,-97.89 622,-67 611.55,-51.42 594.57,-39.09 579.83,-30.51"/>
<polygon fill="midnightblue" stroke="midnightblue" points="541.94,-327.8 534.49,-335.34 545.01,-334.09 541.94,-327.8"/>
</g>
<!-- Node14 -->
<g id="node14" class="node">
<title>Node14</title>
<g id="a_node14"><a xlink:href="Scanner_8cpp.html" target="_top" xlink:title=" ">
<polygon fill="white" stroke="black" points="669.5,-268.5 669.5,-298.5 792.5,-298.5 792.5,-268.5 669.5,-268.5"/>
<text text-anchor="start" x="677.5" y="-286.5" font-family="Helvetica,sans-Serif" font-size="10.00">TravellersApp/src/parser</text>
<text text-anchor="middle" x="731" y="-275.5" font-family="Helvetica,sans-Serif" font-size="10.00">/Scanner.cpp</text>
</a>
</g>
</g>
<!-- Node1&#45;&gt;Node14 -->
<g id="edge19" class="edge">
<title>Node1&#45;&gt;Node14</title>
<path fill="none" stroke="midnightblue" d="M559.65,-332.71C597.24,-322.14 645.23,-308.63 680.85,-298.61"/>
<polygon fill="midnightblue" stroke="midnightblue" points="558.52,-329.4 549.84,-335.48 560.41,-336.14 558.52,-329.4"/>
</g>
<!-- Node2&#45;&gt;Node3 -->
<g id="edge2" class="edge">
<title>Node2&#45;&gt;Node3</title>
<path fill="none" stroke="midnightblue" d="M242.51,-270.5C212.81,-262.99 179.22,-250.98 153,-232 93.65,-189.04 79.41,-167.75 57,-98 48.46,-71.42 66.49,-39.92 76.66,-25.07"/>
<polygon fill="midnightblue" stroke="midnightblue" points="241.88,-273.95 252.42,-272.88 243.51,-267.14 241.88,-273.95"/>
</g>
<!-- Node4 -->
<g id="node4" class="node">
<title>Node4</title>
<g id="a_node4"><a xlink:href="User_8hpp.html" target="_top" xlink:title=" ">
<polygon fill="white" stroke="black" points="342.5,-207 342.5,-226 477.5,-226 477.5,-207 342.5,-207"/>
<text text-anchor="middle" x="410" y="-214" font-family="Helvetica,sans-Serif" font-size="10.00">TravellersApp/src/User.hpp</text>
</a>
</g>
</g>
<!-- Node2&#45;&gt;Node4 -->
<g id="edge3" class="edge">
<title>Node2&#45;&gt;Node4</title>
<path fill="none" stroke="midnightblue" d="M343.33,-262.64C361.45,-250.37 383.77,-235.26 397.44,-226.01"/>
<polygon fill="midnightblue" stroke="midnightblue" points="341.15,-259.89 334.83,-268.4 345.07,-265.69 341.15,-259.89"/>
</g>
<!-- Node5 -->
<g id="node5" class="node">
<title>Node5</title>
<g id="a_node5"><a xlink:href="TravelState_8hpp.html" target="_top" xlink:title=" ">
<polygon fill="white" stroke="black" points="277.5,-134.5 277.5,-164.5 400.5,-164.5 400.5,-134.5 277.5,-134.5"/>
<text text-anchor="start" x="285.5" y="-152.5" font-family="Helvetica,sans-Serif" font-size="10.00">TravellersApp/src/Travel</text>
<text text-anchor="middle" x="339" y="-141.5" font-family="Helvetica,sans-Serif" font-size="10.00">State.hpp</text>
</a>
</g>
</g>
<!-- Node2&#45;&gt;Node5 -->
<g id="edge15" class="edge">
<title>Node2&#45;&gt;Node5</title>
<path fill="none" stroke="midnightblue" d="M318.57,-258.39C323.77,-230.9 332.11,-186.89 336.34,-164.52"/>
<polygon fill="midnightblue" stroke="midnightblue" points="315.1,-257.9 316.68,-268.37 321.98,-259.2 315.1,-257.9"/>
</g>
<!-- Node13 -->
<g id="node13" class="node">
<title>Node13</title>
<g id="a_node13"><a xlink:href="CSV_8cpp.html" target="_top" xlink:title=" ">
<polygon fill="white" stroke="black" points="162.5,-201.5 162.5,-231.5 285.5,-231.5 285.5,-201.5 162.5,-201.5"/>
<text text-anchor="start" x="170.5" y="-219.5" font-family="Helvetica,sans-Serif" font-size="10.00">TravellersApp/src/parser</text>
<text text-anchor="middle" x="224" y="-208.5" font-family="Helvetica,sans-Serif" font-size="10.00">/CSV.cpp</text>
</a>
</g>
</g>
<!-- Node2&#45;&gt;Node13 -->
<g id="edge16" class="edge">
<title>Node2&#45;&gt;Node13</title>
<path fill="none" stroke="midnightblue" d="M286.24,-262.45C272.39,-252.45 255.98,-240.6 243.49,-231.58"/>
<polygon fill="midnightblue" stroke="midnightblue" points="284.32,-265.38 294.47,-268.4 288.41,-259.7 284.32,-265.38"/>
</g>
<!-- Node4&#45;&gt;Node5 -->
<g id="edge4" class="edge">
<title>Node4&#45;&gt;Node5</title>
<path fill="none" stroke="midnightblue" d="M392.99,-199.93C381.25,-189.18 365.76,-175 354.39,-164.59"/>
<polygon fill="midnightblue" stroke="midnightblue" points="390.69,-202.56 400.42,-206.73 395.41,-197.4 390.69,-202.56"/>
</g>
<!-- Node6 -->
<g id="node6" class="node">
<title>Node6</title>
<g id="a_node6"><a xlink:href="HTLInterpreter_8hpp.html" target="_top" xlink:title=" ">
<polygon fill="white" stroke="black" points="66.5,-67.5 66.5,-97.5 189.5,-97.5 189.5,-67.5 66.5,-67.5"/>
<text text-anchor="start" x="74.5" y="-85.5" font-family="Helvetica,sans-Serif" font-size="10.00">TravellersApp/src/parser</text>
<text text-anchor="middle" x="128" y="-74.5" font-family="Helvetica,sans-Serif" font-size="10.00">/HTLInterpreter.hpp</text>
</a>
</g>
</g>
<!-- Node5&#45;&gt;Node6 -->
<g id="edge5" class="edge">
<title>Node5&#45;&gt;Node6</title>
<path fill="none" stroke="midnightblue" d="M283.63,-131.44C249.43,-120.91 206.07,-107.55 173.81,-97.61"/>
<polygon fill="midnightblue" stroke="midnightblue" points="282.89,-134.88 293.48,-134.48 284.95,-128.19 282.89,-134.88"/>
</g>
<!-- Node8 -->
<g id="node8" class="node">
<title>Node8</title>
<g id="a_node8"><a xlink:href="LoginInterpreter_8hpp.html" target="_top" xlink:title=" ">
<polygon fill="white" stroke="black" points="348.5,-67.5 348.5,-97.5 471.5,-97.5 471.5,-67.5 348.5,-67.5"/>
<text text-anchor="start" x="356.5" y="-85.5" font-family="Helvetica,sans-Serif" font-size="10.00">TravellersApp/src/parser</text>
<text text-anchor="middle" x="410" y="-74.5" font-family="Helvetica,sans-Serif" font-size="10.00">/LoginInterpreter.hpp</text>
</a>
</g>
</g>
<!-- Node5&#45;&gt;Node8 -->
<g id="edge8" class="edge">
<title>Node5&#45;&gt;Node8</title>
<path fill="none" stroke="midnightblue" d="M361.83,-127.6C372.55,-117.78 385.05,-106.34 394.62,-97.58"/>
<polygon fill="midnightblue" stroke="midnightblue" points="359.42,-125.06 354.41,-134.4 364.15,-130.22 359.42,-125.06"/>
</g>
<!-- Node10 -->
<g id="node10" class="node">
<title>Node10</title>
<g id="a_node10"><a xlink:href="VisitInterpreter_8hpp.html" target="_top" xlink:title=" ">
<polygon fill="white" stroke="black" points="489.5,-67.5 489.5,-97.5 612.5,-97.5 612.5,-67.5 489.5,-67.5"/>
<text text-anchor="start" x="497.5" y="-85.5" font-family="Helvetica,sans-Serif" font-size="10.00">TravellersApp/src/parser</text>
<text text-anchor="middle" x="551" y="-74.5" font-family="Helvetica,sans-Serif" font-size="10.00">/VisitInterpreter.hpp</text>
</a>
</g>
</g>
<!-- Node5&#45;&gt;Node10 -->
<g id="edge11" class="edge">
<title>Node5&#45;&gt;Node10</title>
<path fill="none" stroke="midnightblue" d="M394.63,-131.44C428.99,-120.91 472.56,-107.55 504.98,-97.61"/>
<polygon fill="midnightblue" stroke="midnightblue" points="393.27,-128.2 384.74,-134.48 395.33,-134.89 393.27,-128.2"/>
</g>
<!-- Node12 -->
<g id="node12" class="node">
<title>Node12</title>
<g id="a_node12"><a xlink:href="TravelState_8cpp.html" target="_top" xlink:title=" ">
<polygon fill="white" stroke="black" points="207.5,-67.5 207.5,-97.5 330.5,-97.5 330.5,-67.5 207.5,-67.5"/>
<text text-anchor="start" x="215.5" y="-85.5" font-family="Helvetica,sans-Serif" font-size="10.00">TravellersApp/src/Travel</text>
<text text-anchor="middle" x="269" y="-74.5" font-family="Helvetica,sans-Serif" font-size="10.00">State.cpp</text>
</a>
</g>
</g>
<!-- Node5&#45;&gt;Node12 -->
<g id="edge14" class="edge">
<title>Node5&#45;&gt;Node12</title>
<path fill="none" stroke="midnightblue" d="M316.18,-127.31C305.68,-117.56 293.51,-106.26 284.16,-97.58"/>
<polygon fill="midnightblue" stroke="midnightblue" points="314.1,-130.16 323.81,-134.4 318.86,-125.03 314.1,-130.16"/>
</g>
<!-- Node6&#45;&gt;Node3 -->
<g id="edge6" class="edge">
<title>Node6&#45;&gt;Node3</title>
<path fill="none" stroke="midnightblue" d="M112.41,-58.97C104.35,-47.33 94.98,-33.8 89.02,-25.19"/>
<polygon fill="midnightblue" stroke="midnightblue" points="109.67,-61.17 118.24,-67.4 115.42,-57.18 109.67,-61.17"/>
</g>
<!-- Node6&#45;&gt;Node7 -->
<g id="edge7" class="edge">
<title>Node6&#45;&gt;Node7</title>
<path fill="none" stroke="midnightblue" d="M199.75,-66.78C324.79,-46.4 359.11,-51.34 481,-31 483.69,-30.55 486.44,-30.07 489.21,-29.57"/>
<polygon fill="midnightblue" stroke="midnightblue" points="199.08,-63.35 189.79,-68.43 200.22,-70.25 199.08,-63.35"/>
</g>
<!-- Node8&#45;&gt;Node3 -->
<g id="edge9" class="edge">
<title>Node8&#45;&gt;Node3</title>
<path fill="none" stroke="midnightblue" d="M337.96,-66.6C258.27,-50.55 176.26,-34.56 127.14,-25.03"/>
<polygon fill="midnightblue" stroke="midnightblue" points="337.68,-70.11 348.17,-68.66 339.06,-63.25 337.68,-70.11"/>
</g>
<!-- Node9 -->
<g id="node9" class="node">
<title>Node9</title>
<g id="a_node9"><a xlink:href="LoginInterpreter_8cpp.html" target="_top" xlink:title=" ">
<polygon fill="white" stroke="black" points="348.5,-0.5 348.5,-30.5 471.5,-30.5 471.5,-0.5 348.5,-0.5"/>
<text text-anchor="start" x="356.5" y="-18.5" font-family="Helvetica,sans-Serif" font-size="10.00">TravellersApp/src/parser</text>
<text text-anchor="middle" x="410" y="-7.5" font-family="Helvetica,sans-Serif" font-size="10.00">/LoginInterpreter.cpp</text>
</a>
</g>
</g>
<!-- Node8&#45;&gt;Node9 -->
<g id="edge10" class="edge">
<title>Node8&#45;&gt;Node9</title>
<path fill="none" stroke="midnightblue" d="M410,-57.11C410,-48.15 410,-38.32 410,-30.58"/>
<polygon fill="midnightblue" stroke="midnightblue" points="406.5,-57.4 410,-67.4 413.5,-57.4 406.5,-57.4"/>
</g>
<!-- Node10&#45;&gt;Node7 -->
<g id="edge12" class="edge">
<title>Node10&#45;&gt;Node7</title>
<path fill="none" stroke="midnightblue" d="M551,-57.11C551,-48.15 551,-38.32 551,-30.58"/>
<polygon fill="midnightblue" stroke="midnightblue" points="547.5,-57.4 551,-67.4 554.5,-57.4 547.5,-57.4"/>
</g>
<!-- Node11 -->
<g id="node11" class="node">
<title>Node11</title>
<g id="a_node11"><a xlink:href="VisitInterpreter_8cpp.html" target="_top" xlink:title=" ">
<polygon fill="white" stroke="black" points="630.5,-0.5 630.5,-30.5 753.5,-30.5 753.5,-0.5 630.5,-0.5"/>
<text text-anchor="start" x="638.5" y="-18.5" font-family="Helvetica,sans-Serif" font-size="10.00">TravellersApp/src/parser</text>
<text text-anchor="middle" x="692" y="-7.5" font-family="Helvetica,sans-Serif" font-size="10.00">/VisitInterpreter.cpp</text>
</a>
</g>
</g>
<!-- Node10&#45;&gt;Node11 -->
<g id="edge13" class="edge">
<title>Node10&#45;&gt;Node11</title>
<path fill="none" stroke="midnightblue" d="M590.85,-63.13C613.25,-52.8 640.78,-40.11 661.46,-30.58"/>
<polygon fill="midnightblue" stroke="midnightblue" points="589.21,-60.03 581.59,-67.4 592.14,-66.39 589.21,-60.03"/>
</g>
</g>
</svg>
