<?xml version="1.0" encoding="UTF-8" standalone="no"?>
<!DOCTYPE svg PUBLIC "-//W3C//DTD SVG 1.1//EN"
 "http://www.w3.org/Graphics/SVG/1.1/DTD/svg11.dtd">
<!-- Generated by graphviz version 2.44.0 (0)
 -->
<!-- Title: TravellersApp/src/parser/Scanner.hpp Pages: 1 -->
<!--zoomable 431 -->
<svg id="main" version="1.1" xmlns="http://www.w3.org/2000/svg" xmlns:xlink="http://www.w3.org/1999/xlink" xml:space="preserve" onload="init(evt)">
<style type="text/css"><![CDATA[
.edge:hover path { stroke: red; }
.edge:hover polygon { stroke: red; fill: red; }
]]></style>
<script type="text/javascript"><![CDATA[
var edges = document.getElementsByTagName('g');
if (edges && edges.length) {
  for (var i=0;i<edges.length;i++) {
    if (edges[i].id.substr(0,4)=='edge') {
      edges[i].setAttribute('class','edge');
    }
  }
}
]]></script>
        <defs>
                <circle id="rim" cx="0" cy="0" r="7"/>
                <circle id="rim2" cx="0" cy="0" r="3.5"/>
                <g id="zoomPlus">
                        <use xlink:href="#rim" fill="#404040">
                                <set attributeName="fill" to="#808080" begin="zoomplus.mouseover" end="zoomplus.mouseout"/>
                        </use>
                        <path d="M-4,0h8M0,-4v8" fill="none" stroke="white" stroke-width="1.5" pointer-events="none"/>
                </g>
                <g id="zoomMin">
                        <use xlink:href="#rim" fill="#404040">
                                <set attributeName="fill" to="#808080" begin="zoomminus.mouseover" end="zoomminus.mouseout"/>
                        </use>
                        <path d="M-4,0h8" fill="none" stroke="white" stroke-width="1.5" pointer-events="none"/>
                </g>
                <g id="dirArrow">
                        <path fill="none" stroke="white" stroke-width="1.5" d="M0,-3.0v7 M-2.5,-0.5L0,-3.0L2.5,-0.5"/>
                </g>
               <g id="resetDef">
                       <use xlink:href="#rim2" fill="#404040">
                               <set attributeName="fill" to="#808080" begin="reset.mouseover" end="reset.mouseout"/>
                       </use>
               </g>
        </defs>

<script type="text/javascript">
var viewWidth = 1058;
var viewHeight = 431;
var sectionId = 'dynsection-0';
</script>
<script xlink:href="svgpan.js"/>
<svg id="graph" class="graph">
<g id="viewport">
<title>TravellersApp/src/parser/Scanner.hpp</title>
<polygon fill="white" stroke="transparent" points="-4,4 -4,-427 1053.5,-427 1053.5,4 -4,4"/>
<!-- Node1 -->
<g id="node1" class="node">
<title>Node1</title>
<g id="a_node1"><a xlink:title=" ">
<polygon fill="#bfbfbf" stroke="black" points="306.5,-392.5 306.5,-422.5 429.5,-422.5 429.5,-392.5 306.5,-392.5"/>
<text text-anchor="start" x="314.5" y="-410.5" font-family="Helvetica,sans-Serif" font-size="10.00">TravellersApp/src/parser</text>
<text text-anchor="middle" x="368" y="-399.5" font-family="Helvetica,sans-Serif" font-size="10.00">/Scanner.hpp</text>
</a>
</g>
</g>
<!-- Node2 -->
<g id="node2" class="node">
<title>Node2</title>
<g id="a_node2"><a xlink:href="ArrayList_8hpp.html" target="_top" xlink:title=" ">
<polygon fill="white" stroke="black" points="591.5,-224.5 591.5,-243.5 716.5,-243.5 716.5,-224.5 591.5,-224.5"/>
<text text-anchor="middle" x="654" y="-231.5" font-family="Helvetica,sans-Serif" font-size="10.00">../collection/ArrayList.hpp</text>
</a>
</g>
</g>
<!-- Node1&#45;&gt;Node2 -->
<g id="edge1" class="edge">
<title>Node1&#45;&gt;Node2</title>
<path fill="none" stroke="midnightblue" d="M400.95,-392.38C443.04,-373.73 517.45,-338.7 576,-300 598.58,-285.08 622.14,-264.67 637.38,-250.72"/>
<polygon fill="midnightblue" stroke="midnightblue" points="639.97,-253.09 644.92,-243.72 635.21,-247.96 639.97,-253.09"/>
</g>
<!-- Node4 -->
<g id="node4" class="node">
<title>Node4</title>
<g id="a_node4"><a xlink:title=" ">
<polygon fill="white" stroke="#bfbfbf" points="378,-0.5 378,-19.5 432,-19.5 432,-0.5 378,-0.5"/>
<text text-anchor="middle" x="405" y="-7.5" font-family="Helvetica,sans-Serif" font-size="10.00">iostream</text>
</a>
</g>
</g>
<!-- Node1&#45;&gt;Node4 -->
<g id="edge50" class="edge">
<title>Node1&#45;&gt;Node4</title>
<path fill="none" stroke="midnightblue" d="M350.19,-392.3C288.19,-342.09 87.63,-172.69 126,-112 177.79,-30.09 304.12,-14.02 367.48,-11.26"/>
<polygon fill="midnightblue" stroke="midnightblue" points="367.94,-14.75 377.81,-10.91 367.7,-7.75 367.94,-14.75"/>
</g>
<!-- Node7 -->
<g id="node7" class="node">
<title>Node7</title>
<g id="a_node7"><a xlink:title=" ">
<polygon fill="white" stroke="#bfbfbf" points="809,-0.5 809,-19.5 855,-19.5 855,-0.5 809,-0.5"/>
<text text-anchor="middle" x="832" y="-7.5" font-family="Helvetica,sans-Serif" font-size="10.00">cstring</text>
</a>
</g>
</g>
<!-- Node1&#45;&gt;Node7 -->
<g id="edge49" class="edge">
<title>Node1&#45;&gt;Node7</title>
<path fill="none" stroke="midnightblue" d="M429.64,-401.23C584.22,-387.2 976,-346.2 976,-291 976,-291 976,-291 976,-121 976,-65.37 907.3,-34.11 864.8,-20.09"/>
<polygon fill="midnightblue" stroke="midnightblue" points="865.73,-16.72 855.14,-17.05 863.62,-23.39 865.73,-16.72"/>
</g>
<!-- Node17 -->
<g id="node17" class="node">
<title>Node17</title>
<g id="a_node17"><a xlink:href="CommandList_8hpp.html" target="_top" xlink:title=" ">
<polygon fill="white" stroke="black" points="320.5,-336.5 320.5,-355.5 415.5,-355.5 415.5,-336.5 320.5,-336.5"/>
<text text-anchor="middle" x="368" y="-343.5" font-family="Helvetica,sans-Serif" font-size="10.00">CommandList.hpp</text>
</a>
</g>
</g>
<!-- Node1&#45;&gt;Node17 -->
<g id="edge26" class="edge">
<title>Node1&#45;&gt;Node17</title>
<path fill="none" stroke="midnightblue" d="M368,-392.4C368,-384.47 368,-374.46 368,-365.86"/>
<polygon fill="midnightblue" stroke="midnightblue" points="371.5,-365.66 368,-355.66 364.5,-365.66 371.5,-365.66"/>
</g>
<!-- Node20 -->
<g id="node20" class="node">
<title>Node20</title>
<g id="a_node20"><a xlink:href="ScannerContext_8hpp.html" target="_top" xlink:title=" ">
<polygon fill="white" stroke="black" points="80,-280.5 80,-299.5 184,-299.5 184,-280.5 80,-280.5"/>
<text text-anchor="middle" x="132" y="-287.5" font-family="Helvetica,sans-Serif" font-size="10.00">ScannerContext.hpp</text>
</a>
</g>
</g>
<!-- Node1&#45;&gt;Node20 -->
<g id="edge46" class="edge">
<title>Node1&#45;&gt;Node20</title>
<path fill="none" stroke="midnightblue" d="M306.45,-395.82C272.78,-388.16 231.27,-375.64 198,-356 176.67,-343.41 157.11,-322.44 144.92,-307.73"/>
<polygon fill="midnightblue" stroke="midnightblue" points="147.31,-305.12 138.33,-299.51 141.85,-309.5 147.31,-305.12"/>
</g>
<!-- Node21 -->
<g id="node21" class="node">
<title>Node21</title>
<g id="a_node21"><a xlink:href="Token_8hpp.html" target="_top" xlink:title=" ">
<polygon fill="white" stroke="black" points="0,-280.5 0,-299.5 62,-299.5 62,-280.5 0,-280.5"/>
<text text-anchor="middle" x="31" y="-287.5" font-family="Helvetica,sans-Serif" font-size="10.00">Token.hpp</text>
</a>
</g>
</g>
<!-- Node1&#45;&gt;Node21 -->
<g id="edge47" class="edge">
<title>Node1&#45;&gt;Node21</title>
<path fill="none" stroke="midnightblue" d="M306.24,-394.18C266.23,-385.41 213.33,-372.3 168,-356 127.4,-341.4 82.64,-318.86 55.68,-304.52"/>
<polygon fill="midnightblue" stroke="midnightblue" points="57.06,-301.29 46.6,-299.64 53.75,-307.46 57.06,-301.29"/>
</g>
<!-- Node22 -->
<g id="node22" class="node">
<title>Node22</title>
<g id="a_node22"><a xlink:title=" ">
<polygon fill="white" stroke="#bfbfbf" points="1004.5,-336.5 1004.5,-355.5 1049.5,-355.5 1049.5,-336.5 1004.5,-336.5"/>
<text text-anchor="middle" x="1027" y="-343.5" font-family="Helvetica,sans-Serif" font-size="10.00">cctype</text>
</a>
</g>
</g>
<!-- Node1&#45;&gt;Node22 -->
<g id="edge48" class="edge">
<title>Node1&#45;&gt;Node22</title>
<path fill="none" stroke="midnightblue" d="M429.74,-404.71C541.95,-400.74 786.51,-388.8 990,-356 991.47,-355.76 992.96,-355.5 994.47,-355.21"/>
<polygon fill="midnightblue" stroke="midnightblue" points="995.37,-358.6 1004.42,-353.09 993.91,-351.75 995.37,-358.6"/>
</g>
<!-- Node3 -->
<g id="node3" class="node">
<title>Node3</title>
<g id="a_node3"><a xlink:title=" ">
<polygon fill="white" stroke="#bfbfbf" points="514.5,-112.5 514.5,-131.5 573.5,-131.5 573.5,-112.5 514.5,-112.5"/>
<text text-anchor="middle" x="544" y="-119.5" font-family="Helvetica,sans-Serif" font-size="10.00">functional</text>
</a>
</g>
</g>
<!-- Node2&#45;&gt;Node3 -->
<g id="edge2" class="edge">
<title>Node2&#45;&gt;Node3</title>
<path fill="none" stroke="midnightblue" d="M645.37,-224.37C626.89,-205.89 583.29,-162.29 559.74,-138.74"/>
<polygon fill="midnightblue" stroke="midnightblue" points="562.14,-136.19 552.59,-131.59 557.19,-141.14 562.14,-136.19"/>
</g>
<!-- Node2&#45;&gt;Node4 -->
<g id="edge3" class="edge">
<title>Node2&#45;&gt;Node4</title>
<path fill="none" stroke="midnightblue" d="M670.63,-224.46C683.49,-216.84 700.34,-204.36 708,-188 722.33,-157.41 728.65,-138.73 708,-112 669.25,-61.84 628.38,-100.69 570,-76 554.2,-69.32 552.54,-63.25 537,-56 505.97,-41.52 468.94,-29.3 442.01,-21.27"/>
<polygon fill="midnightblue" stroke="midnightblue" points="442.79,-17.85 432.21,-18.4 440.82,-24.57 442.79,-17.85"/>
</g>
<!-- Node5 -->
<g id="node5" class="node">
<title>Node5</title>
<g id="a_node5"><a xlink:title=" ">
<polygon fill="white" stroke="#bfbfbf" points="630.5,-112.5 630.5,-131.5 681.5,-131.5 681.5,-112.5 630.5,-112.5"/>
<text text-anchor="middle" x="656" y="-119.5" font-family="Helvetica,sans-Serif" font-size="10.00">memory</text>
</a>
</g>
</g>
<!-- Node2&#45;&gt;Node5 -->
<g id="edge4" class="edge">
<title>Node2&#45;&gt;Node5</title>
<path fill="none" stroke="midnightblue" d="M643.65,-224.15C630.79,-211.99 611.39,-189.24 619,-168 622.94,-157 630.86,-146.77 638.36,-138.85"/>
<polygon fill="midnightblue" stroke="midnightblue" points="640.89,-141.27 645.56,-131.76 635.98,-136.28 640.89,-141.27"/>
</g>
<!-- Node6 -->
<g id="node6" class="node">
<title>Node6</title>
<g id="a_node6"><a xlink:href="InvalidArgumentException_8hpp.html" target="_top" xlink:title=" ">
<polygon fill="white" stroke="black" points="754.5,-56.5 754.5,-75.5 909.5,-75.5 909.5,-56.5 754.5,-56.5"/>
<text text-anchor="middle" x="832" y="-63.5" font-family="Helvetica,sans-Serif" font-size="10.00">../InvalidArgumentException.hpp</text>
</a>
</g>
</g>
<!-- Node2&#45;&gt;Node6 -->
<g id="edge5" class="edge">
<title>Node2&#45;&gt;Node6</title>
<path fill="none" stroke="midnightblue" d="M711.7,-224.45C763.1,-213.27 834.47,-188.02 863,-132 871.36,-115.58 859.82,-96.52 848.52,-83.3"/>
<polygon fill="midnightblue" stroke="midnightblue" points="851.05,-80.88 841.69,-75.9 845.9,-85.63 851.05,-80.88"/>
</g>
<!-- Node9 -->
<g id="node9" class="node">
<title>Node9</title>
<g id="a_node9"><a xlink:href="debug_8hpp.html" target="_top" xlink:title=" ">
<polygon fill="white" stroke="black" points="460,-56.5 460,-75.5 528,-75.5 528,-56.5 460,-56.5"/>
<text text-anchor="middle" x="494" y="-63.5" font-family="Helvetica,sans-Serif" font-size="10.00">../debug.hpp</text>
</a>
</g>
</g>
<!-- Node2&#45;&gt;Node9 -->
<g id="edge9" class="edge">
<title>Node2&#45;&gt;Node9</title>
<path fill="none" stroke="midnightblue" d="M664.44,-224.24C673.42,-215.97 685.75,-202.66 691,-188 696.56,-172.48 704.08,-129.36 690,-112 685.17,-106.05 594.78,-87.09 538.45,-75.77"/>
<polygon fill="midnightblue" stroke="midnightblue" points="538.85,-72.28 528.36,-73.75 537.48,-79.15 538.85,-72.28"/>
</g>
<!-- Node10 -->
<g id="node10" class="node">
<title>Node10</title>
<g id="a_node10"><a xlink:href="Nullable_8hpp.html" target="_top" xlink:title=" ">
<polygon fill="white" stroke="black" points="776.5,-112.5 776.5,-131.5 853.5,-131.5 853.5,-112.5 776.5,-112.5"/>
<text text-anchor="middle" x="815" y="-119.5" font-family="Helvetica,sans-Serif" font-size="10.00">../Nullable.hpp</text>
</a>
</g>
</g>
<!-- Node2&#45;&gt;Node10 -->
<g id="edge10" class="edge">
<title>Node2&#45;&gt;Node10</title>
<path fill="none" stroke="midnightblue" d="M685.42,-224.43C708.18,-217.2 738.88,-205.24 762,-188 779.62,-174.86 794.89,-154.62 804.45,-140.22"/>
<polygon fill="midnightblue" stroke="midnightblue" points="807.44,-142.04 809.88,-131.73 801.54,-138.27 807.44,-142.04"/>
</g>
<!-- Node12 -->
<g id="node12" class="node">
<title>Node12</title>
<g id="a_node12"><a xlink:href="IList_8hpp.html" target="_top" xlink:title=" ">
<polygon fill="white" stroke="black" points="628,-168.5 628,-187.5 682,-187.5 682,-168.5 628,-168.5"/>
<text text-anchor="middle" x="655" y="-175.5" font-family="Helvetica,sans-Serif" font-size="10.00">IList.hpp</text>
</a>
</g>
</g>
<!-- Node2&#45;&gt;Node12 -->
<g id="edge17" class="edge">
<title>Node2&#45;&gt;Node12</title>
<path fill="none" stroke="midnightblue" d="M654.17,-224.08C654.3,-217.01 654.48,-206.86 654.65,-197.99"/>
<polygon fill="midnightblue" stroke="midnightblue" points="658.15,-197.81 654.84,-187.75 651.15,-197.68 658.15,-197.81"/>
</g>
<!-- Node13 -->
<g id="node13" class="node">
<title>Node13</title>
<g id="a_node13"><a xlink:href="Tuple_8hpp.html" target="_top" xlink:title=" ">
<polygon fill="white" stroke="black" points="360.5,-168.5 360.5,-187.5 419.5,-187.5 419.5,-168.5 360.5,-168.5"/>
<text text-anchor="middle" x="390" y="-175.5" font-family="Helvetica,sans-Serif" font-size="10.00">Tuple.hpp</text>
</a>
</g>
</g>
<!-- Node2&#45;&gt;Node13 -->
<g id="edge20" class="edge">
<title>Node2&#45;&gt;Node13</title>
<path fill="none" stroke="midnightblue" d="M612.17,-224.44C562.08,-214.2 478.82,-197.17 429.7,-187.12"/>
<polygon fill="midnightblue" stroke="midnightblue" points="430.25,-183.66 419.76,-185.09 428.85,-190.52 430.25,-183.66"/>
</g>
<!-- Node6&#45;&gt;Node4 -->
<g id="edge8" class="edge">
<title>Node6&#45;&gt;Node4</title>
<path fill="none" stroke="midnightblue" d="M764.34,-56.44C673.12,-44.91 513.85,-24.77 442.01,-15.68"/>
<polygon fill="midnightblue" stroke="midnightblue" points="442.42,-12.2 432.06,-14.42 441.55,-19.15 442.42,-12.2"/>
</g>
<!-- Node6&#45;&gt;Node7 -->
<g id="edge6" class="edge">
<title>Node6&#45;&gt;Node7</title>
<path fill="none" stroke="midnightblue" d="M832,-56.08C832,-49.01 832,-38.86 832,-29.99"/>
<polygon fill="midnightblue" stroke="midnightblue" points="835.5,-29.75 832,-19.75 828.5,-29.75 835.5,-29.75"/>
</g>
<!-- Node8 -->
<g id="node8" class="node">
<title>Node8</title>
<g id="a_node8"><a xlink:title=" ">
<polygon fill="white" stroke="#bfbfbf" points="692,-0.5 692,-19.5 750,-19.5 750,-0.5 692,-0.5"/>
<text text-anchor="middle" x="721" y="-7.5" font-family="Helvetica,sans-Serif" font-size="10.00">exception</text>
</a>
</g>
</g>
<!-- Node6&#45;&gt;Node8 -->
<g id="edge7" class="edge">
<title>Node6&#45;&gt;Node8</title>
<path fill="none" stroke="midnightblue" d="M814.17,-56.32C796.28,-47.62 768.52,-34.12 747.95,-24.11"/>
<polygon fill="midnightblue" stroke="midnightblue" points="749.31,-20.88 738.79,-19.65 746.25,-27.18 749.31,-20.88"/>
</g>
<!-- Node10&#45;&gt;Node4 -->
<g id="edge16" class="edge">
<title>Node10&#45;&gt;Node4</title>
<path fill="none" stroke="midnightblue" d="M776.5,-113.46C726.71,-103.52 642.85,-86.13 613,-76 593.04,-69.22 589.79,-63.24 570,-56 526.92,-40.23 475.73,-27.11 441.92,-19.18"/>
<polygon fill="midnightblue" stroke="midnightblue" points="442.54,-15.73 432.01,-16.88 440.97,-22.55 442.54,-15.73"/>
</g>
<!-- Node10&#45;&gt;Node9 -->
<g id="edge15" class="edge">
<title>Node10&#45;&gt;Node9</title>
<path fill="none" stroke="midnightblue" d="M776.28,-114.49C716.41,-104.42 601.71,-85.12 538.51,-74.49"/>
<polygon fill="midnightblue" stroke="midnightblue" points="538.9,-71 528.45,-72.8 537.73,-77.91 538.9,-71"/>
</g>
<!-- Node11 -->
<g id="node11" class="node">
<title>Node11</title>
<g id="a_node11"><a xlink:href="NoValueException_8hpp.html" target="_top" xlink:title=" ">
<polygon fill="white" stroke="black" points="622,-56.5 622,-75.5 736,-75.5 736,-56.5 622,-56.5"/>
<text text-anchor="middle" x="679" y="-63.5" font-family="Helvetica,sans-Serif" font-size="10.00">NoValueException.hpp</text>
</a>
</g>
</g>
<!-- Node10&#45;&gt;Node11 -->
<g id="edge11" class="edge">
<title>Node10&#45;&gt;Node11</title>
<path fill="none" stroke="midnightblue" d="M793.45,-112.44C770.97,-103.52 735.51,-89.44 710.02,-79.32"/>
<polygon fill="midnightblue" stroke="midnightblue" points="711.03,-75.95 700.45,-75.52 708.45,-82.46 711.03,-75.95"/>
</g>
<!-- Node11&#45;&gt;Node4 -->
<g id="edge14" class="edge">
<title>Node11&#45;&gt;Node4</title>
<path fill="none" stroke="midnightblue" d="M635.58,-56.44C582.19,-45.92 492.47,-28.24 442.13,-18.32"/>
<polygon fill="midnightblue" stroke="midnightblue" points="442.51,-14.82 432.02,-16.32 441.15,-21.69 442.51,-14.82"/>
</g>
<!-- Node11&#45;&gt;Node7 -->
<g id="edge12" class="edge">
<title>Node11&#45;&gt;Node7</title>
<path fill="none" stroke="midnightblue" d="M703.24,-56.44C729.17,-47.29 770.44,-32.73 799.25,-22.56"/>
<polygon fill="midnightblue" stroke="midnightblue" points="800.61,-25.79 808.87,-19.16 798.28,-19.19 800.61,-25.79"/>
</g>
<!-- Node11&#45;&gt;Node8 -->
<g id="edge13" class="edge">
<title>Node11&#45;&gt;Node8</title>
<path fill="none" stroke="midnightblue" d="M685.94,-56.08C691.93,-48.38 700.75,-37.03 708.05,-27.65"/>
<polygon fill="midnightblue" stroke="midnightblue" points="710.82,-29.79 714.19,-19.75 705.29,-25.5 710.82,-29.79"/>
</g>
<!-- Node12&#45;&gt;Node5 -->
<g id="edge19" class="edge">
<title>Node12&#45;&gt;Node5</title>
<path fill="none" stroke="midnightblue" d="M655.17,-168.08C655.3,-161.01 655.48,-150.86 655.65,-141.99"/>
<polygon fill="midnightblue" stroke="midnightblue" points="659.15,-141.81 655.84,-131.75 652.15,-141.68 659.15,-141.81"/>
</g>
<!-- Node12&#45;&gt;Node10 -->
<g id="edge18" class="edge">
<title>Node12&#45;&gt;Node10</title>
<path fill="none" stroke="midnightblue" d="M680.35,-168.44C707.27,-159.36 750,-144.94 780.09,-134.78"/>
<polygon fill="midnightblue" stroke="midnightblue" points="781.41,-138.03 789.77,-131.52 779.17,-131.4 781.41,-138.03"/>
</g>
<!-- Node13&#45;&gt;Node3 -->
<g id="edge23" class="edge">
<title>Node13&#45;&gt;Node3</title>
<path fill="none" stroke="midnightblue" d="M414.4,-168.44C440.2,-159.4 481.08,-145.06 510.02,-134.92"/>
<polygon fill="midnightblue" stroke="midnightblue" points="511.43,-138.13 519.71,-131.52 509.12,-131.52 511.43,-138.13"/>
</g>
<!-- Node13&#45;&gt;Node4 -->
<g id="edge24" class="edge">
<title>Node13&#45;&gt;Node4</title>
<path fill="none" stroke="midnightblue" d="M390.81,-168.08C393.17,-141.95 400.1,-65.21 403.32,-29.58"/>
<polygon fill="midnightblue" stroke="midnightblue" points="406.81,-29.84 404.23,-19.57 399.84,-29.21 406.81,-29.84"/>
</g>
<!-- Node14 -->
<g id="node14" class="node">
<title>Node14</title>
<g id="a_node14"><a xlink:href="ttype_8hpp.html" target="_top" xlink:title=" ">
<polygon fill="white" stroke="black" points="433.5,-112.5 433.5,-131.5 496.5,-131.5 496.5,-112.5 433.5,-112.5"/>
<text text-anchor="middle" x="465" y="-119.5" font-family="Helvetica,sans-Serif" font-size="10.00">../ttype.hpp</text>
</a>
</g>
</g>
<!-- Node13&#45;&gt;Node14 -->
<g id="edge21" class="edge">
<title>Node13&#45;&gt;Node14</title>
<path fill="none" stroke="midnightblue" d="M402.05,-168.32C413.46,-160.11 430.83,-147.6 444.43,-137.81"/>
<polygon fill="midnightblue" stroke="midnightblue" points="446.66,-140.52 452.73,-131.83 442.57,-134.84 446.66,-140.52"/>
</g>
<!-- Node15 -->
<g id="node15" class="node">
<title>Node15</title>
<g id="a_node15"><a xlink:title=" ">
<polygon fill="white" stroke="#bfbfbf" points="251.5,-112.5 251.5,-131.5 296.5,-131.5 296.5,-112.5 251.5,-112.5"/>
<text text-anchor="middle" x="274" y="-119.5" font-family="Helvetica,sans-Serif" font-size="10.00">cstdlib</text>
</a>
</g>
</g>
<!-- Node13&#45;&gt;Node15 -->
<g id="edge22" class="edge">
<title>Node13&#45;&gt;Node15</title>
<path fill="none" stroke="midnightblue" d="M371.62,-168.44C352.78,-159.68 323.27,-145.94 301.62,-135.86"/>
<polygon fill="midnightblue" stroke="midnightblue" points="302.84,-132.56 292.29,-131.52 299.88,-138.91 302.84,-132.56"/>
</g>
<!-- Node16 -->
<g id="node16" class="node">
<title>Node16</title>
<g id="a_node16"><a xlink:title=" ">
<polygon fill="white" stroke="#bfbfbf" points="315,-112.5 315,-131.5 377,-131.5 377,-112.5 315,-112.5"/>
<text text-anchor="middle" x="346" y="-119.5" font-family="Helvetica,sans-Serif" font-size="10.00">type_traits</text>
</a>
</g>
</g>
<!-- Node13&#45;&gt;Node16 -->
<g id="edge25" class="edge">
<title>Node13&#45;&gt;Node16</title>
<path fill="none" stroke="midnightblue" d="M382.73,-168.08C376.46,-160.38 367.21,-149.03 359.57,-139.65"/>
<polygon fill="midnightblue" stroke="midnightblue" points="362.16,-137.29 353.13,-131.75 356.73,-141.71 362.16,-137.29"/>
</g>
<!-- Node17&#45;&gt;Node5 -->
<g id="edge45" class="edge">
<title>Node17&#45;&gt;Node5</title>
<path fill="none" stroke="midnightblue" d="M415.75,-339.31C447.9,-333.59 489.94,-322.25 521,-300 579.34,-258.21 568.74,-223.7 614,-168 622.17,-157.94 632.02,-147.32 640.13,-138.92"/>
<polygon fill="midnightblue" stroke="midnightblue" points="642.76,-141.23 647.26,-131.64 637.76,-136.34 642.76,-141.23"/>
</g>
<!-- Node17&#45;&gt;Node10 -->
<g id="edge31" class="edge">
<title>Node17&#45;&gt;Node10</title>
<path fill="none" stroke="midnightblue" d="M415.67,-341.38C492.16,-333.73 644.77,-310.69 754,-244 782.73,-226.46 790.49,-218.38 805,-188 811.92,-173.51 814.26,-155.33 814.95,-141.88"/>
<polygon fill="midnightblue" stroke="midnightblue" points="818.45,-141.97 815.22,-131.88 811.46,-141.78 818.45,-141.97"/>
</g>
<!-- Node18 -->
<g id="node18" class="node">
<title>Node18</title>
<g id="a_node18"><a xlink:href="SimpleString_8hpp.html" target="_top" xlink:title=" ">
<polygon fill="white" stroke="black" points="135,-112.5 135,-131.5 233,-131.5 233,-112.5 135,-112.5"/>
<text text-anchor="middle" x="184" y="-119.5" font-family="Helvetica,sans-Serif" font-size="10.00">../SimpleString.hpp</text>
</a>
</g>
</g>
<!-- Node17&#45;&gt;Node18 -->
<g id="edge27" class="edge">
<title>Node17&#45;&gt;Node18</title>
<path fill="none" stroke="midnightblue" d="M360.79,-336.3C333.25,-303.08 234.49,-183.92 197.83,-139.68"/>
<polygon fill="midnightblue" stroke="midnightblue" points="200.44,-137.35 191.36,-131.88 195.05,-141.82 200.44,-137.35"/>
</g>
<!-- Node19 -->
<g id="node19" class="node">
<title>Node19</title>
<g id="a_node19"><a xlink:href="HashMap_8hpp.html" target="_top" xlink:title=" ">
<polygon fill="white" stroke="black" points="384,-280.5 384,-299.5 512,-299.5 512,-280.5 384,-280.5"/>
<text text-anchor="middle" x="448" y="-287.5" font-family="Helvetica,sans-Serif" font-size="10.00">../collection/HashMap.hpp</text>
</a>
</g>
</g>
<!-- Node17&#45;&gt;Node19 -->
<g id="edge32" class="edge">
<title>Node17&#45;&gt;Node19</title>
<path fill="none" stroke="midnightblue" d="M380.85,-336.32C393.22,-327.98 412.13,-315.21 426.74,-305.35"/>
<polygon fill="midnightblue" stroke="midnightblue" points="428.85,-308.15 435.18,-299.65 424.93,-302.35 428.85,-308.15"/>
</g>
<!-- Node17&#45;&gt;Node20 -->
<g id="edge41" class="edge">
<title>Node17&#45;&gt;Node20</title>
<path fill="none" stroke="midnightblue" d="M330.61,-336.44C289.61,-327.06 223.75,-311.99 179.22,-301.8"/>
<polygon fill="midnightblue" stroke="midnightblue" points="179.75,-298.34 169.22,-299.52 178.19,-305.16 179.75,-298.34"/>
</g>
<!-- Node17&#45;&gt;Node21 -->
<g id="edge43" class="edge">
<title>Node17&#45;&gt;Node21</title>
<path fill="none" stroke="midnightblue" d="M320.24,-338.83C263.43,-331.25 165.5,-317.44 72.28,-300.14"/>
<polygon fill="midnightblue" stroke="midnightblue" points="72.87,-296.69 62.4,-298.29 71.58,-303.57 72.87,-296.69"/>
</g>
<!-- Node18&#45;&gt;Node4 -->
<g id="edge30" class="edge">
<title>Node18&#45;&gt;Node4</title>
<path fill="none" stroke="midnightblue" d="M194.81,-112.47C212.18,-99.07 247.73,-72.87 281,-56 309.01,-41.8 342.58,-29.9 367.73,-21.91"/>
<polygon fill="midnightblue" stroke="midnightblue" points="369.1,-25.15 377.61,-18.84 367.02,-18.47 369.1,-25.15"/>
</g>
<!-- Node18&#45;&gt;Node7 -->
<g id="edge29" class="edge">
<title>Node18&#45;&gt;Node7</title>
<path fill="none" stroke="midnightblue" d="M213.78,-112.48C262.83,-98.74 363.89,-71.63 451,-56 586.65,-31.65 622.16,-36.43 759,-20 772.07,-18.43 786.46,-16.66 798.98,-15.12"/>
<polygon fill="midnightblue" stroke="midnightblue" points="799.5,-18.58 808.99,-13.87 798.64,-11.63 799.5,-18.58"/>
</g>
<!-- Node18&#45;&gt;Node9 -->
<g id="edge28" class="edge">
<title>Node18&#45;&gt;Node9</title>
<path fill="none" stroke="midnightblue" d="M233.12,-112.44C292.75,-102.06 392.42,-84.69 449.76,-74.71"/>
<polygon fill="midnightblue" stroke="midnightblue" points="450.7,-78.1 459.95,-72.93 449.5,-71.2 450.7,-78.1"/>
</g>
<!-- Node19&#45;&gt;Node2 -->
<g id="edge38" class="edge">
<title>Node19&#45;&gt;Node2</title>
<path fill="none" stroke="midnightblue" d="M480.64,-280.44C516.05,-271.16 572.71,-256.31 611.55,-246.13"/>
<polygon fill="midnightblue" stroke="midnightblue" points="612.73,-249.44 621.51,-243.52 610.95,-242.67 612.73,-249.44"/>
</g>
<!-- Node19&#45;&gt;Node5 -->
<g id="edge35" class="edge">
<title>Node19&#45;&gt;Node5</title>
<path fill="none" stroke="midnightblue" d="M452.98,-280.47C465.99,-258.84 503.1,-201.25 548,-168 569.8,-151.86 598.25,-140.31 620.47,-132.96"/>
<polygon fill="midnightblue" stroke="midnightblue" points="621.72,-136.23 630.2,-129.87 619.61,-129.56 621.72,-136.23"/>
</g>
<!-- Node19&#45;&gt;Node7 -->
<g id="edge34" class="edge">
<title>Node19&#45;&gt;Node7</title>
<path fill="none" stroke="midnightblue" d="M512.29,-288C575.77,-285.08 674.57,-275.31 754,-244 851.37,-205.62 886.48,-175.47 919,-76 921.76,-67.55 923.62,-63.59 919,-56 907.26,-36.7 884.27,-25.32 864.88,-18.83"/>
<polygon fill="midnightblue" stroke="midnightblue" points="865.73,-15.43 855.14,-15.86 863.69,-22.12 865.73,-15.43"/>
</g>
<!-- Node19&#45;&gt;Node9 -->
<g id="edge37" class="edge">
<title>Node19&#45;&gt;Node9</title>
<path fill="none" stroke="midnightblue" d="M450.73,-280.2C454.93,-267.33 463.68,-242.86 475,-224 491.58,-196.39 496.53,-188.95 521,-168 544.91,-147.52 566.39,-159.34 582,-132 595.92,-107.62 564.44,-89.73 535.34,-78.96"/>
<polygon fill="midnightblue" stroke="midnightblue" points="536.22,-75.56 525.63,-75.58 533.92,-82.17 536.22,-75.56"/>
</g>
<!-- Node19&#45;&gt;Node10 -->
<g id="edge40" class="edge">
<title>Node19&#45;&gt;Node10</title>
<path fill="none" stroke="midnightblue" d="M512.17,-288.89C570.41,-286.45 657.28,-276.87 725,-244 758.11,-227.93 764.5,-217.87 786,-188 796.37,-173.6 804.23,-154.9 809.13,-141.26"/>
<polygon fill="midnightblue" stroke="midnightblue" points="812.52,-142.17 812.42,-131.58 805.89,-139.92 812.52,-142.17"/>
</g>
<!-- Node19&#45;&gt;Node13 -->
<g id="edge39" class="edge">
<title>Node19&#45;&gt;Node13</title>
<path fill="none" stroke="midnightblue" d="M443.45,-280.37C433.96,-262.38 411.91,-220.55 399.29,-196.63"/>
<polygon fill="midnightblue" stroke="midnightblue" points="402.29,-194.8 394.53,-187.59 396.1,-198.07 402.29,-194.8"/>
</g>
<!-- Node19&#45;&gt;Node15 -->
<g id="edge33" class="edge">
<title>Node19&#45;&gt;Node15</title>
<path fill="none" stroke="midnightblue" d="M429.02,-280.37C412.62,-272.36 388.82,-259.38 371,-244 334.29,-212.32 301.23,-165.33 284.84,-140.25"/>
<polygon fill="midnightblue" stroke="midnightblue" points="287.58,-138.03 279.23,-131.51 281.69,-141.81 287.58,-138.03"/>
</g>
<!-- Node19&#45;&gt;Node16 -->
<g id="edge36" class="edge">
<title>Node19&#45;&gt;Node16</title>
<path fill="none" stroke="midnightblue" d="M435.4,-280.48C413.7,-265 369.78,-229.94 351,-188 344.5,-173.47 343.63,-155.29 344.17,-141.86"/>
<polygon fill="midnightblue" stroke="midnightblue" points="347.66,-142.09 344.86,-131.87 340.68,-141.6 347.66,-142.09"/>
</g>
<!-- Node20&#45;&gt;Node4 -->
<g id="edge42" class="edge">
<title>Node20&#45;&gt;Node4</title>
<path fill="none" stroke="midnightblue" d="M122.7,-280.28C105.18,-262.85 69,-221.69 69,-179 69,-179 69,-179 69,-121 69,-90.2 69.06,-75.37 93,-56 134.57,-22.37 294.44,-13.86 367.81,-11.72"/>
<polygon fill="midnightblue" stroke="midnightblue" points="368.08,-15.21 377.98,-11.45 367.89,-8.21 368.08,-15.21"/>
</g>
<!-- Node21&#45;&gt;Node4 -->
<g id="edge44" class="edge">
<title>Node21&#45;&gt;Node4</title>
<path fill="none" stroke="midnightblue" d="M31,-280.44C31,-261.94 31,-216.81 31,-179 31,-179 31,-179 31,-121 31,-86.84 43.27,-74.47 72,-56 120.34,-24.94 291.45,-15.03 367.78,-12.12"/>
<polygon fill="midnightblue" stroke="midnightblue" points="368.03,-15.61 377.89,-11.75 367.77,-8.62 368.03,-15.61"/>
</g>
</g>
</svg>
        <g id="navigator" transform="translate(0 0)" fill="#404254">
                <rect fill="#f2f5e9" fill-opacity="0.5" stroke="#606060" stroke-width=".5" x="0" y="0" width="60" height="60"/>
                <use id="zoomplus" xlink:href="#zoomPlus" x="17" y="9" onmousedown="handleZoom(evt,'in')"/>
                <use id="zoomminus" xlink:href="#zoomMin" x="42" y="9" onmousedown="handleZoom(evt,'out')"/>
                <use id="reset" xlink:href="#resetDef" x="30" y="36" onmousedown="handleReset()"/>
                <g id="arrowUp" xlink:href="#dirArrow" transform="translate(30 24)" onmousedown="handlePan(0,-1)">
                  <use xlink:href="#rim" fill="#404040">
                        <set attributeName="fill" to="#808080" begin="arrowUp.mouseover" end="arrowUp.mouseout"/>
                  </use>
                  <path fill="none" stroke="white" stroke-width="1.5" d="M0,-3.0v7 M-2.5,-0.5L0,-3.0L2.5,-0.5"/>
                </g>
                <g id="arrowRight" xlink:href="#dirArrow" transform="rotate(90) translate(36 -43)" onmousedown="handlePan(1,0)">
                  <use xlink:href="#rim" fill="#404040">
                        <set attributeName="fill" to="#808080" begin="arrowRight.mouseover" end="arrowRight.mouseout"/>
                  </use>
                  <path fill="none" stroke="white" stroke-width="1.5" d="M0,-3.0v7 M-2.5,-0.5L0,-3.0L2.5,-0.5"/>
                </g>
                <g id="arrowDown" xlink:href="#dirArrow" transform="rotate(180) translate(-30 -48)" onmousedown="handlePan(0,1)">
                  <use xlink:href="#rim" fill="#404040">
                        <set attributeName="fill" to="#808080" begin="arrowDown.mouseover" end="arrowDown.mouseout"/>
                  </use>
                  <path fill="none" stroke="white" stroke-width="1.5" d="M0,-3.0v7 M-2.5,-0.5L0,-3.0L2.5,-0.5"/>
                </g>
                <g id="arrowLeft" xlink:href="#dirArrow" transform="rotate(270) translate(-36 17)" onmousedown="handlePan(-1,0)">
                  <use xlink:href="#rim" fill="#404040">
                        <set attributeName="fill" to="#808080" begin="arrowLeft.mouseover" end="arrowLeft.mouseout"/>
                  </use>
                  <path fill="none" stroke="white" stroke-width="1.5" d="M0,-3.0v7 M-2.5,-0.5L0,-3.0L2.5,-0.5"/>
                </g>
        </g>
        <svg viewBox="0 0 15 15" width="100%" height="30px" preserveAspectRatio="xMaxYMin meet">
         <g id="arrow_out" transform="scale(0.3 0.3)">
          <a xlink:href="Scanner_8hpp__incl_org.svg" target="_base">
           <rect id="button" ry="5" rx="5" y="6" x="6" height="38" width="38"
                fill="#f2f5e9" fill-opacity="0.5" stroke="#606060" stroke-width="1.0"/>
           <path id="arrow"
             d="M 11.500037,31.436501 C 11.940474,20.09759 22.043105,11.32322 32.158766,21.979434 L 37.068811,17.246167 C 37.068811,17.246167 37.088388,32 37.088388,32 L 22.160133,31.978069 C 22.160133,31.978069 26.997745,27.140456 26.997745,27.140456 C 18.528582,18.264221 13.291696,25.230495 11.500037,31.436501 z"
             style="fill:#404040;"/>
          </a>
         </g>
        </svg>
</svg>
