<?xml version="1.0" encoding="UTF-8" standalone="no"?>
<!DOCTYPE svg PUBLIC "-//W3C//DTD SVG 1.1//EN"
 "http://www.w3.org/Graphics/SVG/1.1/DTD/svg11.dtd">
<!-- Generated by graphviz version 2.44.0 (0)
 -->
<!-- Title: TravellersApp/src/parser/Scanner.cpp Pages: 1 -->
<!--zoomable 487 -->
<svg id="main" version="1.1" xmlns="http://www.w3.org/2000/svg" xmlns:xlink="http://www.w3.org/1999/xlink" xml:space="preserve" onload="init(evt)">
<style type="text/css"><![CDATA[
.edge:hover path { stroke: red; }
.edge:hover polygon { stroke: red; fill: red; }
]]></style>
<script type="text/javascript"><![CDATA[
var edges = document.getElementsByTagName('g');
if (edges && edges.length) {
  for (var i=0;i<edges.length;i++) {
    if (edges[i].id.substr(0,4)=='edge') {
      edges[i].setAttribute('class','edge');
    }
  }
}
]]></script>
        <defs>
                <circle id="rim" cx="0" cy="0" r="7"/>
                <circle id="rim2" cx="0" cy="0" r="3.5"/>
                <g id="zoomPlus">
                        <use xlink:href="#rim" fill="#404040">
                                <set attributeName="fill" to="#808080" begin="zoomplus.mouseover" end="zoomplus.mouseout"/>
                        </use>
                        <path d="M-4,0h8M0,-4v8" fill="none" stroke="white" stroke-width="1.5" pointer-events="none"/>
                </g>
                <g id="zoomMin">
                        <use xlink:href="#rim" fill="#404040">
                                <set attributeName="fill" to="#808080" begin="zoomminus.mouseover" end="zoomminus.mouseout"/>
                        </use>
                        <path d="M-4,0h8" fill="none" stroke="white" stroke-width="1.5" pointer-events="none"/>
                </g>
                <g id="dirArrow">
                        <path fill="none" stroke="white" stroke-width="1.5" d="M0,-3.0v7 M-2.5,-0.5L0,-3.0L2.5,-0.5"/>
                </g>
               <g id="resetDef">
                       <use xlink:href="#rim2" fill="#404040">
                               <set attributeName="fill" to="#808080" begin="reset.mouseover" end="reset.mouseout"/>
                       </use>
               </g>
        </defs>

<script type="text/javascript">
var viewWidth = 1001;
var viewHeight = 487;
var sectionId = 'dynsection-0';
</script>
<script xlink:href="svgpan.js"/>
<svg id="graph" class="graph">
<g id="viewport">
<title>TravellersApp/src/parser/Scanner.cpp</title>
<polygon fill="white" stroke="transparent" points="-4,4 -4,-483 997,-483 997,4 -4,4"/>
<!-- Node1 -->
<g id="node1" class="node">
<title>Node1</title>
<g id="a_node1"><a xlink:title=" ">
<polygon fill="#bfbfbf" stroke="black" points="665.5,-448.5 665.5,-478.5 788.5,-478.5 788.5,-448.5 665.5,-448.5"/>
<text text-anchor="start" x="673.5" y="-466.5" font-family="Helvetica,sans-Serif" font-size="10.00">TravellersApp/src/parser</text>
<text text-anchor="middle" x="727" y="-455.5" font-family="Helvetica,sans-Serif" font-size="10.00">/Scanner.cpp</text>
</a>
</g>
</g>
<!-- Node2 -->
<g id="node2" class="node">
<title>Node2</title>
<g id="a_node2"><a xlink:href="Scanner_8hpp.html" target="_top" xlink:title=" ">
<polygon fill="white" stroke="black" points="621.5,-392.5 621.5,-411.5 692.5,-411.5 692.5,-392.5 621.5,-392.5"/>
<text text-anchor="middle" x="657" y="-399.5" font-family="Helvetica,sans-Serif" font-size="10.00">Scanner.hpp</text>
</a>
</g>
</g>
<!-- Node1&#45;&gt;Node2 -->
<g id="edge1" class="edge">
<title>Node1&#45;&gt;Node2</title>
<path fill="none" stroke="midnightblue" d="M710.41,-448.4C699.71,-439.31 685.81,-427.49 674.87,-418.19"/>
<polygon fill="midnightblue" stroke="midnightblue" points="677.07,-415.47 667.19,-411.66 672.54,-420.8 677.07,-415.47"/>
</g>
<!-- Node10 -->
<g id="node10" class="node">
<title>Node10</title>
<g id="a_node10"><a xlink:href="debug_8hpp.html" target="_top" xlink:title=" ">
<polygon fill="white" stroke="black" points="775,-56.5 775,-75.5 843,-75.5 843,-56.5 775,-56.5"/>
<text text-anchor="middle" x="809" y="-63.5" font-family="Helvetica,sans-Serif" font-size="10.00">../debug.hpp</text>
</a>
</g>
</g>
<!-- Node1&#45;&gt;Node10 -->
<g id="edge52" class="edge">
<title>Node1&#45;&gt;Node10</title>
<path fill="none" stroke="midnightblue" d="M769.03,-448.44C811.05,-432.35 874.75,-402.11 913,-356 949.34,-312.19 955,-291.93 955,-235 955,-235 955,-235 955,-177 955,-124.44 893.91,-93.85 850.76,-78.8"/>
<polygon fill="midnightblue" stroke="midnightblue" points="851.63,-75.4 841.04,-75.56 849.42,-82.05 851.63,-75.4"/>
</g>
<!-- Node3 -->
<g id="node3" class="node">
<title>Node3</title>
<g id="a_node3"><a xlink:href="ArrayList_8hpp.html" target="_top" xlink:title=" ">
<polygon fill="white" stroke="black" points="498.5,-224.5 498.5,-243.5 623.5,-243.5 623.5,-224.5 498.5,-224.5"/>
<text text-anchor="middle" x="561" y="-231.5" font-family="Helvetica,sans-Serif" font-size="10.00">../collection/ArrayList.hpp</text>
</a>
</g>
</g>
<!-- Node2&#45;&gt;Node3 -->
<g id="edge2" class="edge">
<title>Node2&#45;&gt;Node3</title>
<path fill="none" stroke="midnightblue" d="M651.84,-392.08C636.6,-365.72 591.58,-287.88 571.21,-252.66"/>
<polygon fill="midnightblue" stroke="midnightblue" points="573.99,-250.47 565.96,-243.57 567.93,-253.98 573.99,-250.47"/>
</g>
<!-- Node5 -->
<g id="node5" class="node">
<title>Node5</title>
<g id="a_node5"><a xlink:title=" ">
<polygon fill="white" stroke="#bfbfbf" points="338,-0.5 338,-19.5 392,-19.5 392,-0.5 338,-0.5"/>
<text text-anchor="middle" x="365" y="-7.5" font-family="Helvetica,sans-Serif" font-size="10.00">iostream</text>
</a>
</g>
</g>
<!-- Node2&#45;&gt;Node5 -->
<g id="edge51" class="edge">
<title>Node2&#45;&gt;Node5</title>
<path fill="none" stroke="midnightblue" d="M621.21,-398.83C484.11,-390.05 0,-354.54 0,-291 0,-291 0,-291 0,-121 0,-79.83 29.17,-74.41 66,-56 111.33,-33.34 258.38,-19.26 327.92,-13.71"/>
<polygon fill="midnightblue" stroke="midnightblue" points="328.29,-17.19 337.99,-12.92 327.75,-10.21 328.29,-17.19"/>
</g>
<!-- Node8 -->
<g id="node8" class="node">
<title>Node8</title>
<g id="a_node8"><a xlink:title=" ">
<polygon fill="white" stroke="#bfbfbf" points="848,-0.5 848,-19.5 894,-19.5 894,-0.5 848,-0.5"/>
<text text-anchor="middle" x="871" y="-7.5" font-family="Helvetica,sans-Serif" font-size="10.00">cstring</text>
</a>
</g>
</g>
<!-- Node2&#45;&gt;Node8 -->
<g id="edge50" class="edge">
<title>Node2&#45;&gt;Node8</title>
<path fill="none" stroke="midnightblue" d="M692.61,-398.21C754.15,-392.84 877.24,-379.44 913,-356 966.91,-320.65 993,-299.47 993,-235 993,-235 993,-235 993,-121 993,-72.57 939.31,-39.99 903.17,-23.54"/>
<polygon fill="midnightblue" stroke="midnightblue" points="904.51,-20.31 893.95,-19.52 901.71,-26.72 904.51,-20.31"/>
</g>
<!-- Node18 -->
<g id="node18" class="node">
<title>Node18</title>
<g id="a_node18"><a xlink:href="CommandList_8hpp.html" target="_top" xlink:title=" ">
<polygon fill="white" stroke="black" points="466.5,-336.5 466.5,-355.5 561.5,-355.5 561.5,-336.5 466.5,-336.5"/>
<text text-anchor="middle" x="514" y="-343.5" font-family="Helvetica,sans-Serif" font-size="10.00">CommandList.hpp</text>
</a>
</g>
</g>
<!-- Node2&#45;&gt;Node18 -->
<g id="edge27" class="edge">
<title>Node2&#45;&gt;Node18</title>
<path fill="none" stroke="midnightblue" d="M634.34,-392.44C610.6,-383.48 573.09,-369.31 546.26,-359.18"/>
<polygon fill="midnightblue" stroke="midnightblue" points="547.14,-355.77 536.55,-355.52 544.67,-362.32 547.14,-355.77"/>
</g>
<!-- Node21 -->
<g id="node21" class="node">
<title>Node21</title>
<g id="a_node21"><a xlink:href="ScannerContext_8hpp.html" target="_top" xlink:title=" ">
<polygon fill="white" stroke="black" points="223,-280.5 223,-299.5 327,-299.5 327,-280.5 223,-280.5"/>
<text text-anchor="middle" x="275" y="-287.5" font-family="Helvetica,sans-Serif" font-size="10.00">ScannerContext.hpp</text>
</a>
</g>
</g>
<!-- Node2&#45;&gt;Node21 -->
<g id="edge47" class="edge">
<title>Node2&#45;&gt;Node21</title>
<path fill="none" stroke="midnightblue" d="M621.26,-394.32C580.99,-386.49 513.74,-372.45 457,-356 402.95,-340.33 341.6,-317.29 305.71,-303.27"/>
<polygon fill="midnightblue" stroke="midnightblue" points="306.88,-299.96 296.3,-299.56 304.32,-306.48 306.88,-299.96"/>
</g>
<!-- Node22 -->
<g id="node22" class="node">
<title>Node22</title>
<g id="a_node22"><a xlink:href="Token_8hpp.html" target="_top" xlink:title=" ">
<polygon fill="white" stroke="black" points="143,-280.5 143,-299.5 205,-299.5 205,-280.5 143,-280.5"/>
<text text-anchor="middle" x="174" y="-287.5" font-family="Helvetica,sans-Serif" font-size="10.00">Token.hpp</text>
</a>
</g>
</g>
<!-- Node2&#45;&gt;Node22 -->
<g id="edge48" class="edge">
<title>Node2&#45;&gt;Node22</title>
<path fill="none" stroke="midnightblue" d="M621.29,-396.3C570.29,-389.27 473.83,-374.81 393,-356 327.2,-340.69 252,-316.97 209.05,-302.82"/>
<polygon fill="midnightblue" stroke="midnightblue" points="209.95,-299.43 199.36,-299.61 207.75,-306.08 209.95,-299.43"/>
</g>
<!-- Node23 -->
<g id="node23" class="node">
<title>Node23</title>
<g id="a_node23"><a xlink:title=" ">
<polygon fill="white" stroke="#bfbfbf" points="858.5,-336.5 858.5,-355.5 903.5,-355.5 903.5,-336.5 858.5,-336.5"/>
<text text-anchor="middle" x="881" y="-343.5" font-family="Helvetica,sans-Serif" font-size="10.00">cctype</text>
</a>
</g>
</g>
<!-- Node2&#45;&gt;Node23 -->
<g id="edge49" class="edge">
<title>Node2&#45;&gt;Node23</title>
<path fill="none" stroke="midnightblue" d="M692.51,-392.48C730.13,-383.45 791.26,-368.76 844,-356 845.45,-355.65 846.92,-355.29 848.42,-354.93"/>
<polygon fill="midnightblue" stroke="midnightblue" points="849.41,-358.29 858.3,-352.53 847.76,-351.49 849.41,-358.29"/>
</g>
<!-- Node4 -->
<g id="node4" class="node">
<title>Node4</title>
<g id="a_node4"><a xlink:title=" ">
<polygon fill="white" stroke="#bfbfbf" points="367.5,-112.5 367.5,-131.5 426.5,-131.5 426.5,-112.5 367.5,-112.5"/>
<text text-anchor="middle" x="397" y="-119.5" font-family="Helvetica,sans-Serif" font-size="10.00">functional</text>
</a>
</g>
</g>
<!-- Node3&#45;&gt;Node4 -->
<g id="edge3" class="edge">
<title>Node3&#45;&gt;Node4</title>
<path fill="none" stroke="midnightblue" d="M498.14,-226.66C470.01,-220.79 438.44,-209.53 417,-188 404.91,-175.85 400.1,-156.58 398.2,-142.16"/>
<polygon fill="midnightblue" stroke="midnightblue" points="401.65,-141.5 397.22,-131.88 394.68,-142.17 401.65,-141.5"/>
</g>
<!-- Node3&#45;&gt;Node5 -->
<g id="edge4" class="edge">
<title>Node3&#45;&gt;Node5</title>
<path fill="none" stroke="midnightblue" d="M551.88,-224.35C519.86,-193.93 413.78,-92.8 401,-76 389.8,-61.27 379.85,-42.64 373.26,-29.11"/>
<polygon fill="midnightblue" stroke="midnightblue" points="376.35,-27.45 368.92,-19.9 370.02,-30.44 376.35,-27.45"/>
</g>
<!-- Node6 -->
<g id="node6" class="node">
<title>Node6</title>
<g id="a_node6"><a xlink:title=" ">
<polygon fill="white" stroke="#bfbfbf" points="683.5,-112.5 683.5,-131.5 734.5,-131.5 734.5,-112.5 683.5,-112.5"/>
<text text-anchor="middle" x="709" y="-119.5" font-family="Helvetica,sans-Serif" font-size="10.00">memory</text>
</a>
</g>
</g>
<!-- Node3&#45;&gt;Node6 -->
<g id="edge5" class="edge">
<title>Node3&#45;&gt;Node6</title>
<path fill="none" stroke="midnightblue" d="M596.1,-224.43C618.83,-217.52 648,-205.94 669,-188 683.92,-175.26 694.96,-155.51 701.62,-141.13"/>
<polygon fill="midnightblue" stroke="midnightblue" points="704.91,-142.34 705.69,-131.77 698.49,-139.55 704.91,-142.34"/>
</g>
<!-- Node7 -->
<g id="node7" class="node">
<title>Node7</title>
<g id="a_node7"><a xlink:href="InvalidArgumentException_8hpp.html" target="_top" xlink:title=" ">
<polygon fill="white" stroke="black" points="601.5,-56.5 601.5,-75.5 756.5,-75.5 756.5,-56.5 601.5,-56.5"/>
<text text-anchor="middle" x="679" y="-63.5" font-family="Helvetica,sans-Serif" font-size="10.00">../InvalidArgumentException.hpp</text>
</a>
</g>
</g>
<!-- Node3&#45;&gt;Node7 -->
<g id="edge6" class="edge">
<title>Node3&#45;&gt;Node7</title>
<path fill="none" stroke="midnightblue" d="M568.84,-224.39C576.68,-215.58 588.84,-201.34 598,-188 619.96,-156 618.83,-143.85 641,-112 648.01,-101.93 656.8,-91.41 664.16,-83.08"/>
<polygon fill="midnightblue" stroke="midnightblue" points="666.83,-85.35 670.92,-75.57 661.63,-80.66 666.83,-85.35"/>
</g>
<!-- Node3&#45;&gt;Node10 -->
<g id="edge10" class="edge">
<title>Node3&#45;&gt;Node10</title>
<path fill="none" stroke="midnightblue" d="M573.29,-224.47C585.13,-215.94 603.24,-202.11 617,-188 646.67,-157.58 640.45,-136.74 675,-112 689.92,-101.32 733.13,-87.76 766.49,-78.33"/>
<polygon fill="midnightblue" stroke="midnightblue" points="767.79,-81.6 776.48,-75.55 765.91,-74.86 767.79,-81.6"/>
</g>
<!-- Node11 -->
<g id="node11" class="node">
<title>Node11</title>
<g id="a_node11"><a xlink:href="Nullable_8hpp.html" target="_top" xlink:title=" ">
<polygon fill="white" stroke="black" points="483.5,-112.5 483.5,-131.5 560.5,-131.5 560.5,-112.5 483.5,-112.5"/>
<text text-anchor="middle" x="522" y="-119.5" font-family="Helvetica,sans-Serif" font-size="10.00">../Nullable.hpp</text>
</a>
</g>
</g>
<!-- Node3&#45;&gt;Node11 -->
<g id="edge11" class="edge">
<title>Node3&#45;&gt;Node11</title>
<path fill="none" stroke="midnightblue" d="M551.65,-224.38C543.26,-215.99 531.46,-202.44 526,-188 520.44,-173.28 519.74,-155.34 520.26,-142.05"/>
<polygon fill="midnightblue" stroke="midnightblue" points="523.78,-141.96 520.95,-131.75 516.79,-141.5 523.78,-141.96"/>
</g>
<!-- Node13 -->
<g id="node13" class="node">
<title>Node13</title>
<g id="a_node13"><a xlink:href="IList_8hpp.html" target="_top" xlink:title=" ">
<polygon fill="white" stroke="black" points="535,-168.5 535,-187.5 589,-187.5 589,-168.5 535,-168.5"/>
<text text-anchor="middle" x="562" y="-175.5" font-family="Helvetica,sans-Serif" font-size="10.00">IList.hpp</text>
</a>
</g>
</g>
<!-- Node3&#45;&gt;Node13 -->
<g id="edge18" class="edge">
<title>Node3&#45;&gt;Node13</title>
<path fill="none" stroke="midnightblue" d="M561.17,-224.08C561.3,-217.01 561.48,-206.86 561.65,-197.99"/>
<polygon fill="midnightblue" stroke="midnightblue" points="565.15,-197.81 561.84,-187.75 558.15,-197.68 565.15,-197.81"/>
</g>
<!-- Node14 -->
<g id="node14" class="node">
<title>Node14</title>
<g id="a_node14"><a xlink:href="Tuple_8hpp.html" target="_top" xlink:title=" ">
<polygon fill="white" stroke="black" points="267.5,-168.5 267.5,-187.5 326.5,-187.5 326.5,-168.5 267.5,-168.5"/>
<text text-anchor="middle" x="297" y="-175.5" font-family="Helvetica,sans-Serif" font-size="10.00">Tuple.hpp</text>
</a>
</g>
</g>
<!-- Node3&#45;&gt;Node14 -->
<g id="edge21" class="edge">
<title>Node3&#45;&gt;Node14</title>
<path fill="none" stroke="midnightblue" d="M519.17,-224.44C469.08,-214.2 385.82,-197.17 336.7,-187.12"/>
<polygon fill="midnightblue" stroke="midnightblue" points="337.25,-183.66 326.76,-185.09 335.85,-190.52 337.25,-183.66"/>
</g>
<!-- Node7&#45;&gt;Node5 -->
<g id="edge9" class="edge">
<title>Node7&#45;&gt;Node5</title>
<path fill="none" stroke="midnightblue" d="M629.25,-56.44C566.08,-45.58 458.55,-27.09 402.11,-17.38"/>
<polygon fill="midnightblue" stroke="midnightblue" points="402.63,-13.92 392.18,-15.67 401.45,-20.82 402.63,-13.92"/>
</g>
<!-- Node7&#45;&gt;Node8 -->
<g id="edge7" class="edge">
<title>Node7&#45;&gt;Node8</title>
<path fill="none" stroke="midnightblue" d="M709.42,-56.44C744.45,-46.59 801.8,-30.46 837.92,-20.3"/>
<polygon fill="midnightblue" stroke="midnightblue" points="839.27,-23.56 847.95,-17.48 837.38,-16.82 839.27,-23.56"/>
</g>
<!-- Node9 -->
<g id="node9" class="node">
<title>Node9</title>
<g id="a_node9"><a xlink:title=" ">
<polygon fill="white" stroke="#bfbfbf" points="573,-0.5 573,-19.5 631,-19.5 631,-0.5 573,-0.5"/>
<text text-anchor="middle" x="602" y="-7.5" font-family="Helvetica,sans-Serif" font-size="10.00">exception</text>
</a>
</g>
</g>
<!-- Node7&#45;&gt;Node9 -->
<g id="edge8" class="edge">
<title>Node7&#45;&gt;Node9</title>
<path fill="none" stroke="midnightblue" d="M666.63,-56.32C654.84,-48.06 636.87,-35.45 622.86,-25.63"/>
<polygon fill="midnightblue" stroke="midnightblue" points="624.54,-22.53 614.34,-19.65 620.52,-28.26 624.54,-22.53"/>
</g>
<!-- Node11&#45;&gt;Node5 -->
<g id="edge17" class="edge">
<title>Node11&#45;&gt;Node5</title>
<path fill="none" stroke="midnightblue" d="M498.04,-112.49C477.99,-104.73 449.19,-92.03 427,-76 407.74,-62.08 389.44,-41.7 377.78,-27.49"/>
<polygon fill="midnightblue" stroke="midnightblue" points="380.41,-25.17 371.43,-19.54 374.94,-29.54 380.41,-25.17"/>
</g>
<!-- Node11&#45;&gt;Node10 -->
<g id="edge16" class="edge">
<title>Node11&#45;&gt;Node10</title>
<path fill="none" stroke="midnightblue" d="M560.51,-114.19C606.67,-105.97 686.62,-91.51 764.74,-76.21"/>
<polygon fill="midnightblue" stroke="midnightblue" points="765.61,-79.61 774.75,-74.25 764.26,-72.74 765.61,-79.61"/>
</g>
<!-- Node12 -->
<g id="node12" class="node">
<title>Node12</title>
<g id="a_node12"><a xlink:href="NoValueException_8hpp.html" target="_top" xlink:title=" ">
<polygon fill="white" stroke="black" points="469,-56.5 469,-75.5 583,-75.5 583,-56.5 469,-56.5"/>
<text text-anchor="middle" x="526" y="-63.5" font-family="Helvetica,sans-Serif" font-size="10.00">NoValueException.hpp</text>
</a>
</g>
</g>
<!-- Node11&#45;&gt;Node12 -->
<g id="edge12" class="edge">
<title>Node11&#45;&gt;Node12</title>
<path fill="none" stroke="midnightblue" d="M522.66,-112.08C523.18,-105.01 523.94,-94.86 524.59,-85.99"/>
<polygon fill="midnightblue" stroke="midnightblue" points="528.1,-85.98 525.35,-75.75 521.12,-85.47 528.1,-85.98"/>
</g>
<!-- Node12&#45;&gt;Node5 -->
<g id="edge15" class="edge">
<title>Node12&#45;&gt;Node5</title>
<path fill="none" stroke="midnightblue" d="M500.49,-56.44C473.4,-47.36 430.41,-32.94 400.13,-22.78"/>
<polygon fill="midnightblue" stroke="midnightblue" points="400.99,-19.38 390.39,-19.52 398.76,-26.01 400.99,-19.38"/>
</g>
<!-- Node12&#45;&gt;Node8 -->
<g id="edge13" class="edge">
<title>Node12&#45;&gt;Node8</title>
<path fill="none" stroke="midnightblue" d="M580.67,-56.44C653.08,-45.11 778.56,-25.47 837.98,-16.17"/>
<polygon fill="midnightblue" stroke="midnightblue" points="838.6,-19.61 847.94,-14.61 837.52,-12.7 838.6,-19.61"/>
</g>
<!-- Node12&#45;&gt;Node9 -->
<g id="edge14" class="edge">
<title>Node12&#45;&gt;Node9</title>
<path fill="none" stroke="midnightblue" d="M538.21,-56.32C549.78,-48.11 567.38,-35.6 581.16,-25.81"/>
<polygon fill="midnightblue" stroke="midnightblue" points="583.44,-28.48 589.57,-19.83 579.39,-22.77 583.44,-28.48"/>
</g>
<!-- Node13&#45;&gt;Node6 -->
<g id="edge20" class="edge">
<title>Node13&#45;&gt;Node6</title>
<path fill="none" stroke="midnightblue" d="M585.29,-168.44C609.81,-159.44 648.6,-145.19 676.2,-135.05"/>
<polygon fill="midnightblue" stroke="midnightblue" points="677.64,-138.25 685.82,-131.52 675.22,-131.68 677.64,-138.25"/>
</g>
<!-- Node13&#45;&gt;Node11 -->
<g id="edge19" class="edge">
<title>Node13&#45;&gt;Node11</title>
<path fill="none" stroke="midnightblue" d="M555.39,-168.08C549.74,-160.46 541.46,-149.26 534.55,-139.94"/>
<polygon fill="midnightblue" stroke="midnightblue" points="537.25,-137.7 528.48,-131.75 531.62,-141.87 537.25,-137.7"/>
</g>
<!-- Node14&#45;&gt;Node4 -->
<g id="edge24" class="edge">
<title>Node14&#45;&gt;Node4</title>
<path fill="none" stroke="midnightblue" d="M313.07,-168.32C328.96,-159.74 353.51,-146.49 371.96,-136.52"/>
<polygon fill="midnightblue" stroke="midnightblue" points="373.84,-139.49 380.97,-131.65 370.51,-133.33 373.84,-139.49"/>
</g>
<!-- Node14&#45;&gt;Node5 -->
<g id="edge25" class="edge">
<title>Node14&#45;&gt;Node5</title>
<path fill="none" stroke="midnightblue" d="M290.79,-168.48C282.46,-155.95 269.55,-131.9 277,-112 290.61,-75.66 323.86,-43.79 345.37,-25.99"/>
<polygon fill="midnightblue" stroke="midnightblue" points="347.63,-28.66 353.24,-19.67 343.25,-23.21 347.63,-28.66"/>
</g>
<!-- Node15 -->
<g id="node15" class="node">
<title>Node15</title>
<g id="a_node15"><a xlink:href="ttype_8hpp.html" target="_top" xlink:title=" ">
<polygon fill="white" stroke="black" points="286.5,-112.5 286.5,-131.5 349.5,-131.5 349.5,-112.5 286.5,-112.5"/>
<text text-anchor="middle" x="318" y="-119.5" font-family="Helvetica,sans-Serif" font-size="10.00">../ttype.hpp</text>
</a>
</g>
</g>
<!-- Node14&#45;&gt;Node15 -->
<g id="edge22" class="edge">
<title>Node14&#45;&gt;Node15</title>
<path fill="none" stroke="midnightblue" d="M300.47,-168.08C303.31,-160.77 307.43,-150.18 310.96,-141.1"/>
<polygon fill="midnightblue" stroke="midnightblue" points="314.23,-142.34 314.6,-131.75 307.71,-139.8 314.23,-142.34"/>
</g>
<!-- Node16 -->
<g id="node16" class="node">
<title>Node16</title>
<g id="a_node16"><a xlink:title=" ">
<polygon fill="white" stroke="#bfbfbf" points="104.5,-112.5 104.5,-131.5 149.5,-131.5 149.5,-112.5 104.5,-112.5"/>
<text text-anchor="middle" x="127" y="-119.5" font-family="Helvetica,sans-Serif" font-size="10.00">cstdlib</text>
</a>
</g>
</g>
<!-- Node14&#45;&gt;Node16 -->
<g id="edge23" class="edge">
<title>Node14&#45;&gt;Node16</title>
<path fill="none" stroke="midnightblue" d="M270.06,-168.44C240.07,-158.92 191.61,-143.52 159.53,-133.33"/>
<polygon fill="midnightblue" stroke="midnightblue" points="160.32,-129.91 149.73,-130.22 158.2,-136.58 160.32,-129.91"/>
</g>
<!-- Node17 -->
<g id="node17" class="node">
<title>Node17</title>
<g id="a_node17"><a xlink:title=" ">
<polygon fill="white" stroke="#bfbfbf" points="168,-112.5 168,-131.5 230,-131.5 230,-112.5 168,-112.5"/>
<text text-anchor="middle" x="199" y="-119.5" font-family="Helvetica,sans-Serif" font-size="10.00">type_traits</text>
</a>
</g>
</g>
<!-- Node14&#45;&gt;Node17 -->
<g id="edge26" class="edge">
<title>Node14&#45;&gt;Node17</title>
<path fill="none" stroke="midnightblue" d="M281.25,-168.32C265.68,-159.74 241.62,-146.49 223.54,-136.52"/>
<polygon fill="midnightblue" stroke="midnightblue" points="225.15,-133.42 214.71,-131.65 221.78,-139.55 225.15,-133.42"/>
</g>
<!-- Node18&#45;&gt;Node6 -->
<g id="edge46" class="edge">
<title>Node18&#45;&gt;Node6</title>
<path fill="none" stroke="midnightblue" d="M535.9,-336.48C580.34,-317.73 679.37,-268.1 709,-188 714.51,-173.12 713.96,-154.97 712.35,-141.64"/>
<polygon fill="midnightblue" stroke="midnightblue" points="715.82,-141.11 710.86,-131.75 708.89,-142.16 715.82,-141.11"/>
</g>
<!-- Node18&#45;&gt;Node11 -->
<g id="edge32" class="edge">
<title>Node18&#45;&gt;Node11</title>
<path fill="none" stroke="midnightblue" d="M487.79,-336.41C471.15,-329.44 450.94,-317.81 441,-300 436.67,-292.24 439.21,-288.71 441,-280 451.89,-226.95 462.15,-215.03 489,-168 494.64,-158.11 502.06,-147.82 508.43,-139.58"/>
<polygon fill="midnightblue" stroke="midnightblue" points="511.32,-141.57 514.8,-131.56 505.84,-137.21 511.32,-141.57"/>
</g>
<!-- Node19 -->
<g id="node19" class="node">
<title>Node19</title>
<g id="a_node19"><a xlink:href="SimpleString_8hpp.html" target="_top" xlink:title=" ">
<polygon fill="white" stroke="black" points="791,-112.5 791,-131.5 889,-131.5 889,-112.5 791,-112.5"/>
<text text-anchor="middle" x="840" y="-119.5" font-family="Helvetica,sans-Serif" font-size="10.00">../SimpleString.hpp</text>
</a>
</g>
</g>
<!-- Node18&#45;&gt;Node19 -->
<g id="edge28" class="edge">
<title>Node18&#45;&gt;Node19</title>
<path fill="none" stroke="midnightblue" d="M545.69,-336.45C570.7,-328.94 605.95,-316.6 634,-300 714.06,-252.63 793.06,-173.15 825.09,-139.19"/>
<polygon fill="midnightblue" stroke="midnightblue" points="827.93,-141.28 832.2,-131.58 822.81,-136.5 827.93,-141.28"/>
</g>
<!-- Node20 -->
<g id="node20" class="node">
<title>Node20</title>
<g id="a_node20"><a xlink:href="HashMap_8hpp.html" target="_top" xlink:title=" ">
<polygon fill="white" stroke="black" points="450,-280.5 450,-299.5 578,-299.5 578,-280.5 450,-280.5"/>
<text text-anchor="middle" x="514" y="-287.5" font-family="Helvetica,sans-Serif" font-size="10.00">../collection/HashMap.hpp</text>
</a>
</g>
</g>
<!-- Node18&#45;&gt;Node20 -->
<g id="edge33" class="edge">
<title>Node18&#45;&gt;Node20</title>
<path fill="none" stroke="midnightblue" d="M514,-336.08C514,-329.01 514,-318.86 514,-309.99"/>
<polygon fill="midnightblue" stroke="midnightblue" points="517.5,-309.75 514,-299.75 510.5,-309.75 517.5,-309.75"/>
</g>
<!-- Node18&#45;&gt;Node21 -->
<g id="edge42" class="edge">
<title>Node18&#45;&gt;Node21</title>
<path fill="none" stroke="midnightblue" d="M476.13,-336.44C434.52,-327.04 367.63,-311.93 322.53,-301.74"/>
<polygon fill="midnightblue" stroke="midnightblue" points="323.22,-298.31 312.69,-299.52 321.68,-305.13 323.22,-298.31"/>
</g>
<!-- Node18&#45;&gt;Node22 -->
<g id="edge44" class="edge">
<title>Node18&#45;&gt;Node22</title>
<path fill="none" stroke="midnightblue" d="M466.28,-338.93C408.97,-331.39 309.73,-317.58 215.39,-300.15"/>
<polygon fill="midnightblue" stroke="midnightblue" points="215.87,-296.68 205.4,-298.29 214.59,-303.56 215.87,-296.68"/>
</g>
<!-- Node19&#45;&gt;Node5 -->
<g id="edge31" class="edge">
<title>Node19&#45;&gt;Node5</title>
<path fill="none" stroke="midnightblue" d="M790.81,-115.81C691.54,-105.24 475.3,-81.74 460,-76 451.84,-72.94 410.69,-43.87 385.3,-25.66"/>
<polygon fill="midnightblue" stroke="midnightblue" points="387.22,-22.73 377.06,-19.73 383.13,-28.41 387.22,-22.73"/>
</g>
<!-- Node19&#45;&gt;Node8 -->
<g id="edge30" class="edge">
<title>Node19&#45;&gt;Node8</title>
<path fill="none" stroke="midnightblue" d="M842.43,-112.37C847.46,-94.54 859.08,-53.3 865.85,-29.27"/>
<polygon fill="midnightblue" stroke="midnightblue" points="869.23,-30.17 868.58,-19.59 862.5,-28.27 869.23,-30.17"/>
</g>
<!-- Node19&#45;&gt;Node10 -->
<g id="edge29" class="edge">
<title>Node19&#45;&gt;Node10</title>
<path fill="none" stroke="midnightblue" d="M834.88,-112.08C830.59,-104.61 824.34,-93.72 819.06,-84.52"/>
<polygon fill="midnightblue" stroke="midnightblue" points="822.04,-82.68 814.02,-75.75 815.97,-86.17 822.04,-82.68"/>
</g>
<!-- Node20&#45;&gt;Node3 -->
<g id="edge39" class="edge">
<title>Node20&#45;&gt;Node3</title>
<path fill="none" stroke="midnightblue" d="M521.76,-280.08C528.54,-272.3 538.54,-260.8 546.76,-251.37"/>
<polygon fill="midnightblue" stroke="midnightblue" points="549.46,-253.59 553.38,-243.75 544.18,-249 549.46,-253.59"/>
</g>
<!-- Node20&#45;&gt;Node6 -->
<g id="edge36" class="edge">
<title>Node20&#45;&gt;Node6</title>
<path fill="none" stroke="midnightblue" d="M546.97,-280.47C571.84,-273.13 606.13,-261.02 633,-244 663.27,-224.82 672.68,-218.8 691,-188 699.51,-173.69 704.12,-155.22 706.54,-141.63"/>
<polygon fill="midnightblue" stroke="midnightblue" points="710.02,-141.98 708.09,-131.56 703.11,-140.91 710.02,-141.98"/>
</g>
<!-- Node20&#45;&gt;Node8 -->
<g id="edge35" class="edge">
<title>Node20&#45;&gt;Node8</title>
<path fill="none" stroke="midnightblue" d="M578.09,-285.01C668.81,-275.42 831.07,-242.82 898,-132 917.94,-98.98 896.73,-52.9 882.21,-28.22"/>
<polygon fill="midnightblue" stroke="midnightblue" points="885.13,-26.27 876.9,-19.6 879.17,-29.95 885.13,-26.27"/>
</g>
<!-- Node20&#45;&gt;Node10 -->
<g id="edge38" class="edge">
<title>Node20&#45;&gt;Node10</title>
<path fill="none" stroke="midnightblue" d="M566.41,-280.46C595.95,-273.87 632.53,-262.64 661,-244 695.05,-221.71 768.27,-123.31 797.04,-83.65"/>
<polygon fill="midnightblue" stroke="midnightblue" points="799.9,-85.67 802.92,-75.52 794.23,-81.58 799.9,-85.67"/>
</g>
<!-- Node20&#45;&gt;Node11 -->
<g id="edge41" class="edge">
<title>Node20&#45;&gt;Node11</title>
<path fill="none" stroke="midnightblue" d="M507.63,-280.23C501.74,-271.53 493.39,-257.57 490,-244 480.78,-207.11 499.12,-164.11 511.65,-140.6"/>
<polygon fill="midnightblue" stroke="midnightblue" points="514.75,-142.22 516.56,-131.78 508.63,-138.81 514.75,-142.22"/>
</g>
<!-- Node20&#45;&gt;Node14 -->
<g id="edge40" class="edge">
<title>Node20&#45;&gt;Node14</title>
<path fill="none" stroke="midnightblue" d="M496.97,-280.37C459.18,-261.21 368.09,-215.04 323.07,-192.22"/>
<polygon fill="midnightblue" stroke="midnightblue" points="324.45,-188.99 313.95,-187.59 321.29,-195.23 324.45,-188.99"/>
</g>
<!-- Node20&#45;&gt;Node16 -->
<g id="edge34" class="edge">
<title>Node20&#45;&gt;Node16</title>
<path fill="none" stroke="midnightblue" d="M453.51,-280.43C414.16,-273.56 362.3,-262.03 319,-244 250.55,-215.5 178.99,-163.52 145.87,-137.97"/>
<polygon fill="midnightblue" stroke="midnightblue" points="147.99,-135.18 137.95,-131.8 143.68,-140.7 147.99,-135.18"/>
</g>
<!-- Node20&#45;&gt;Node17 -->
<g id="edge37" class="edge">
<title>Node20&#45;&gt;Node17</title>
<path fill="none" stroke="midnightblue" d="M476.36,-280.49C423.72,-267.26 326.85,-237.93 258,-188 239.38,-174.49 222.21,-154.32 211.25,-140.03"/>
<polygon fill="midnightblue" stroke="midnightblue" points="213.77,-137.56 204.99,-131.63 208.15,-141.74 213.77,-137.56"/>
</g>
<!-- Node21&#45;&gt;Node5 -->
<g id="edge43" class="edge">
<title>Node21&#45;&gt;Node5</title>
<path fill="none" stroke="midnightblue" d="M248.57,-280.5C194.44,-262.29 76,-217.98 76,-179 76,-179 76,-179 76,-121 76,-67.69 249.9,-30.9 327.91,-17.07"/>
<polygon fill="midnightblue" stroke="midnightblue" points="328.56,-20.51 337.81,-15.35 327.36,-13.62 328.56,-20.51"/>
</g>
<!-- Node22&#45;&gt;Node5 -->
<g id="edge45" class="edge">
<title>Node22&#45;&gt;Node5</title>
<path fill="none" stroke="midnightblue" d="M146.15,-280.48C106.36,-266.37 38,-234.12 38,-179 38,-179 38,-179 38,-121 38,-74.15 78.28,-75.25 121,-56 189.6,-25.09 278.19,-15.41 327.55,-12.38"/>
<polygon fill="midnightblue" stroke="midnightblue" points="327.96,-15.86 337.76,-11.81 327.58,-8.87 327.96,-15.86"/>
</g>
</g>
</svg>
        <g id="navigator" transform="translate(0 0)" fill="#404254">
                <rect fill="#f2f5e9" fill-opacity="0.5" stroke="#606060" stroke-width=".5" x="0" y="0" width="60" height="60"/>
                <use id="zoomplus" xlink:href="#zoomPlus" x="17" y="9" onmousedown="handleZoom(evt,'in')"/>
                <use id="zoomminus" xlink:href="#zoomMin" x="42" y="9" onmousedown="handleZoom(evt,'out')"/>
                <use id="reset" xlink:href="#resetDef" x="30" y="36" onmousedown="handleReset()"/>
                <g id="arrowUp" xlink:href="#dirArrow" transform="translate(30 24)" onmousedown="handlePan(0,-1)">
                  <use xlink:href="#rim" fill="#404040">
                        <set attributeName="fill" to="#808080" begin="arrowUp.mouseover" end="arrowUp.mouseout"/>
                  </use>
                  <path fill="none" stroke="white" stroke-width="1.5" d="M0,-3.0v7 M-2.5,-0.5L0,-3.0L2.5,-0.5"/>
                </g>
                <g id="arrowRight" xlink:href="#dirArrow" transform="rotate(90) translate(36 -43)" onmousedown="handlePan(1,0)">
                  <use xlink:href="#rim" fill="#404040">
                        <set attributeName="fill" to="#808080" begin="arrowRight.mouseover" end="arrowRight.mouseout"/>
                  </use>
                  <path fill="none" stroke="white" stroke-width="1.5" d="M0,-3.0v7 M-2.5,-0.5L0,-3.0L2.5,-0.5"/>
                </g>
                <g id="arrowDown" xlink:href="#dirArrow" transform="rotate(180) translate(-30 -48)" onmousedown="handlePan(0,1)">
                  <use xlink:href="#rim" fill="#404040">
                        <set attributeName="fill" to="#808080" begin="arrowDown.mouseover" end="arrowDown.mouseout"/>
                  </use>
                  <path fill="none" stroke="white" stroke-width="1.5" d="M0,-3.0v7 M-2.5,-0.5L0,-3.0L2.5,-0.5"/>
                </g>
                <g id="arrowLeft" xlink:href="#dirArrow" transform="rotate(270) translate(-36 17)" onmousedown="handlePan(-1,0)">
                  <use xlink:href="#rim" fill="#404040">
                        <set attributeName="fill" to="#808080" begin="arrowLeft.mouseover" end="arrowLeft.mouseout"/>
                  </use>
                  <path fill="none" stroke="white" stroke-width="1.5" d="M0,-3.0v7 M-2.5,-0.5L0,-3.0L2.5,-0.5"/>
                </g>
        </g>
        <svg viewBox="0 0 15 15" width="100%" height="30px" preserveAspectRatio="xMaxYMin meet">
         <g id="arrow_out" transform="scale(0.3 0.3)">
          <a xlink:href="Scanner_8cpp__incl_org.svg" target="_base">
           <rect id="button" ry="5" rx="5" y="6" x="6" height="38" width="38"
                fill="#f2f5e9" fill-opacity="0.5" stroke="#606060" stroke-width="1.0"/>
           <path id="arrow"
             d="M 11.500037,31.436501 C 11.940474,20.09759 22.043105,11.32322 32.158766,21.979434 L 37.068811,17.246167 C 37.068811,17.246167 37.088388,32 37.088388,32 L 22.160133,31.978069 C 22.160133,31.978069 26.997745,27.140456 26.997745,27.140456 C 18.528582,18.264221 13.291696,25.230495 11.500037,31.436501 z"
             style="fill:#404040;"/>
          </a>
         </g>
        </svg>
</svg>
