<?xml version="1.0" encoding="UTF-8" standalone="no"?>
<!DOCTYPE svg PUBLIC "-//W3C//DTD SVG 1.1//EN"
 "http://www.w3.org/Graphics/SVG/1.1/DTD/svg11.dtd">
<!-- Generated by graphviz version 2.44.0 (0)
 -->
<!-- Title: TravellersApp/src/SimpleString.hpp Pages: 1 -->
<svg width="861pt" height="508pt"
 viewBox="0.00 0.00 861.00 508.00" xmlns="http://www.w3.org/2000/svg" xmlns:xlink="http://www.w3.org/1999/xlink">
<g id="graph0" class="graph" transform="scale(1 1) rotate(0) translate(4 504)">
<title>TravellersApp/src/SimpleString.hpp</title>
<polygon fill="white" stroke="transparent" points="-4,4 -4,-504 857,-504 857,4 -4,4"/>
<!-- Node1 -->
<g id="node1" class="node">
<title>Node1</title>
<g id="a_node1"><a xlink:title=" ">
<polygon fill="#bfbfbf" stroke="black" points="44.5,-469.5 44.5,-499.5 170.5,-499.5 170.5,-469.5 44.5,-469.5"/>
<text text-anchor="start" x="52.5" y="-487.5" font-family="Helvetica,sans-Serif" font-size="10.00">TravellersApp/src/Simple</text>
<text text-anchor="middle" x="107.5" y="-476.5" font-family="Helvetica,sans-Serif" font-size="10.00">String.hpp</text>
</a>
</g>
</g>
<!-- Node2 -->
<g id="node2" class="node">
<title>Node2</title>
<g id="a_node2"><a xlink:href="CSV_8hpp.html" target="_top" xlink:title=" ">
<polygon fill="white" stroke="black" points="282,-268.5 282,-298.5 405,-298.5 405,-268.5 282,-268.5"/>
<text text-anchor="start" x="290" y="-286.5" font-family="Helvetica,sans-Serif" font-size="10.00">TravellersApp/src/parser</text>
<text text-anchor="middle" x="343.5" y="-275.5" font-family="Helvetica,sans-Serif" font-size="10.00">/CSV.hpp</text>
</a>
</g>
</g>
<!-- Node1&#45;&gt;Node2 -->
<g id="edge1" class="edge">
<title>Node1&#45;&gt;Node2</title>
<path fill="none" stroke="midnightblue" d="M132.24,-462.64C180.41,-422.02 285.68,-333.26 326.68,-298.68"/>
<polygon fill="midnightblue" stroke="midnightblue" points="129.86,-460.07 124.47,-469.19 134.37,-465.42 129.86,-460.07"/>
</g>
<!-- Node14 -->
<g id="node14" class="node">
<title>Node14</title>
<g id="a_node14"><a xlink:href="CommandList_8hpp.html" target="_top" xlink:title=" ">
<polygon fill="white" stroke="black" points="461,-402.5 461,-432.5 584,-432.5 584,-402.5 461,-402.5"/>
<text text-anchor="start" x="469" y="-420.5" font-family="Helvetica,sans-Serif" font-size="10.00">TravellersApp/src/parser</text>
<text text-anchor="middle" x="522.5" y="-409.5" font-family="Helvetica,sans-Serif" font-size="10.00">/CommandList.hpp</text>
</a>
</g>
</g>
<!-- Node1&#45;&gt;Node14 -->
<g id="edge17" class="edge">
<title>Node1&#45;&gt;Node14</title>
<path fill="none" stroke="midnightblue" d="M180.48,-472.07C260.08,-459.6 386.11,-439.86 460.91,-428.15"/>
<polygon fill="midnightblue" stroke="midnightblue" points="179.87,-468.62 170.53,-473.63 180.95,-475.54 179.87,-468.62"/>
</g>
<!-- Node20 -->
<g id="node20" class="node">
<title>Node20</title>
<g id="a_node20"><a xlink:href="VisitBuilder_8hpp.html" target="_top" xlink:title=" ">
<polygon fill="white" stroke="black" points="99.5,-274 99.5,-293 263.5,-293 263.5,-274 99.5,-274"/>
<text text-anchor="middle" x="181.5" y="-281" font-family="Helvetica,sans-Serif" font-size="10.00">TravellersApp/src/VisitBuilder.hpp</text>
</a>
</g>
</g>
<!-- Node1&#45;&gt;Node20 -->
<g id="edge32" class="edge">
<title>Node1&#45;&gt;Node20</title>
<path fill="none" stroke="midnightblue" d="M97.22,-459.71C85.55,-428.77 70.88,-374.06 93.5,-335 105.86,-313.66 131.02,-300.56 151.28,-293.06"/>
<polygon fill="midnightblue" stroke="midnightblue" points="94.06,-461.24 101,-469.24 100.57,-458.65 94.06,-461.24"/>
</g>
<!-- Node3 -->
<g id="node3" class="node">
<title>Node3</title>
<g id="a_node3"><a xlink:href="main_8cpp.html" target="_top" xlink:title=" ">
<polygon fill="white" stroke="black" points="455,-6 455,-25 590,-25 590,-6 455,-6"/>
<text text-anchor="middle" x="522.5" y="-13" font-family="Helvetica,sans-Serif" font-size="10.00">TravellersApp/src/main.cpp</text>
</a>
</g>
</g>
<!-- Node2&#45;&gt;Node3 -->
<g id="edge2" class="edge">
<title>Node2&#45;&gt;Node3</title>
<path fill="none" stroke="midnightblue" d="M408.12,-265.75C449.69,-254.36 497.11,-239.96 503.5,-232 554.76,-168.15 532.5,-56.77 524.76,-25.11"/>
<polygon fill="midnightblue" stroke="midnightblue" points="407,-262.43 398.26,-268.43 408.83,-269.18 407,-262.43"/>
</g>
<!-- Node4 -->
<g id="node4" class="node">
<title>Node4</title>
<g id="a_node4"><a xlink:href="User_8hpp.html" target="_top" xlink:title=" ">
<polygon fill="white" stroke="black" points="179,-207 179,-226 314,-226 314,-207 179,-207"/>
<text text-anchor="middle" x="246.5" y="-214" font-family="Helvetica,sans-Serif" font-size="10.00">TravellersApp/src/User.hpp</text>
</a>
</g>
</g>
<!-- Node2&#45;&gt;Node4 -->
<g id="edge3" class="edge">
<title>Node2&#45;&gt;Node4</title>
<path fill="none" stroke="midnightblue" d="M313.86,-262.64C295.56,-250.37 273.01,-235.26 259.2,-226.01"/>
<polygon fill="midnightblue" stroke="midnightblue" points="312.2,-265.74 322.45,-268.4 316.09,-259.92 312.2,-265.74"/>
</g>
<!-- Node5 -->
<g id="node5" class="node">
<title>Node5</title>
<g id="a_node5"><a xlink:href="TravelState_8hpp.html" target="_top" xlink:title=" ">
<polygon fill="white" stroke="black" points="224,-134.5 224,-164.5 347,-164.5 347,-134.5 224,-134.5"/>
<text text-anchor="start" x="232" y="-152.5" font-family="Helvetica,sans-Serif" font-size="10.00">TravellersApp/src/Travel</text>
<text text-anchor="middle" x="285.5" y="-141.5" font-family="Helvetica,sans-Serif" font-size="10.00">State.hpp</text>
</a>
</g>
</g>
<!-- Node2&#45;&gt;Node5 -->
<g id="edge15" class="edge">
<title>Node2&#45;&gt;Node5</title>
<path fill="none" stroke="midnightblue" d="M340.2,-258.32C337.3,-241.63 332.16,-219.25 323.5,-201 317.2,-187.72 307.08,-174.5 298.87,-164.92"/>
<polygon fill="midnightblue" stroke="midnightblue" points="336.77,-259.04 341.8,-268.37 343.68,-257.94 336.77,-259.04"/>
</g>
<!-- Node13 -->
<g id="node13" class="node">
<title>Node13</title>
<g id="a_node13"><a xlink:href="CSV_8cpp.html" target="_top" xlink:title=" ">
<polygon fill="white" stroke="black" points="371,-201.5 371,-231.5 494,-231.5 494,-201.5 371,-201.5"/>
<text text-anchor="start" x="379" y="-219.5" font-family="Helvetica,sans-Serif" font-size="10.00">TravellersApp/src/parser</text>
<text text-anchor="middle" x="432.5" y="-208.5" font-family="Helvetica,sans-Serif" font-size="10.00">/CSV.cpp</text>
</a>
</g>
</g>
<!-- Node2&#45;&gt;Node13 -->
<g id="edge16" class="edge">
<title>Node2&#45;&gt;Node13</title>
<path fill="none" stroke="midnightblue" d="M370.95,-262.45C384.64,-252.45 400.87,-240.6 413.23,-231.58"/>
<polygon fill="midnightblue" stroke="midnightblue" points="368.82,-259.67 362.81,-268.4 372.95,-265.32 368.82,-259.67"/>
</g>
<!-- Node4&#45;&gt;Node5 -->
<g id="edge4" class="edge">
<title>Node4&#45;&gt;Node5</title>
<path fill="none" stroke="midnightblue" d="M256.98,-198.03C263.27,-187.56 271.16,-174.4 277.05,-164.59"/>
<polygon fill="midnightblue" stroke="midnightblue" points="253.9,-196.36 251.76,-206.73 259.91,-199.96 253.9,-196.36"/>
</g>
<!-- Node6 -->
<g id="node6" class="node">
<title>Node6</title>
<g id="a_node6"><a xlink:href="HTLInterpreter_8hpp.html" target="_top" xlink:title=" ">
<polygon fill="white" stroke="black" points="371,-67.5 371,-97.5 494,-97.5 494,-67.5 371,-67.5"/>
<text text-anchor="start" x="379" y="-85.5" font-family="Helvetica,sans-Serif" font-size="10.00">TravellersApp/src/parser</text>
<text text-anchor="middle" x="432.5" y="-74.5" font-family="Helvetica,sans-Serif" font-size="10.00">/HTLInterpreter.hpp</text>
</a>
</g>
</g>
<!-- Node5&#45;&gt;Node6 -->
<g id="edge5" class="edge">
<title>Node5&#45;&gt;Node6</title>
<path fill="none" stroke="midnightblue" d="M326.73,-130.27C350.14,-119.92 379.01,-107.15 400.67,-97.58"/>
<polygon fill="midnightblue" stroke="midnightblue" points="325.13,-127.15 317.4,-134.4 327.96,-133.55 325.13,-127.15"/>
</g>
<!-- Node8 -->
<g id="node8" class="node">
<title>Node8</title>
<g id="a_node8"><a xlink:href="LoginInterpreter_8hpp.html" target="_top" xlink:title=" ">
<polygon fill="white" stroke="black" points="589,-67.5 589,-97.5 712,-97.5 712,-67.5 589,-67.5"/>
<text text-anchor="start" x="597" y="-85.5" font-family="Helvetica,sans-Serif" font-size="10.00">TravellersApp/src/parser</text>
<text text-anchor="middle" x="650.5" y="-74.5" font-family="Helvetica,sans-Serif" font-size="10.00">/LoginInterpreter.hpp</text>
</a>
</g>
</g>
<!-- Node5&#45;&gt;Node8 -->
<g id="edge8" class="edge">
<title>Node5&#45;&gt;Node8</title>
<path fill="none" stroke="midnightblue" d="M357.13,-135.74C424.62,-123.72 524.68,-105.91 588.74,-94.5"/>
<polygon fill="midnightblue" stroke="midnightblue" points="356.24,-132.35 347,-137.55 357.46,-139.24 356.24,-132.35"/>
</g>
<!-- Node10 -->
<g id="node10" class="node">
<title>Node10</title>
<g id="a_node10"><a xlink:href="VisitInterpreter_8hpp.html" target="_top" xlink:title=" ">
<polygon fill="white" stroke="black" points="71,-67.5 71,-97.5 194,-97.5 194,-67.5 71,-67.5"/>
<text text-anchor="start" x="79" y="-85.5" font-family="Helvetica,sans-Serif" font-size="10.00">TravellersApp/src/parser</text>
<text text-anchor="middle" x="132.5" y="-74.5" font-family="Helvetica,sans-Serif" font-size="10.00">/VisitInterpreter.hpp</text>
</a>
</g>
</g>
<!-- Node5&#45;&gt;Node10 -->
<g id="edge11" class="edge">
<title>Node5&#45;&gt;Node10</title>
<path fill="none" stroke="midnightblue" d="M242.91,-130.41C218.48,-120.03 188.28,-107.2 165.63,-97.58"/>
<polygon fill="midnightblue" stroke="midnightblue" points="241.73,-133.71 252.3,-134.4 244.47,-127.26 241.73,-133.71"/>
</g>
<!-- Node12 -->
<g id="node12" class="node">
<title>Node12</title>
<g id="a_node12"><a xlink:href="TravelState_8cpp.html" target="_top" xlink:title=" ">
<polygon fill="white" stroke="black" points="224,-67.5 224,-97.5 347,-97.5 347,-67.5 224,-67.5"/>
<text text-anchor="start" x="232" y="-85.5" font-family="Helvetica,sans-Serif" font-size="10.00">TravellersApp/src/Travel</text>
<text text-anchor="middle" x="285.5" y="-74.5" font-family="Helvetica,sans-Serif" font-size="10.00">State.cpp</text>
</a>
</g>
</g>
<!-- Node5&#45;&gt;Node12 -->
<g id="edge14" class="edge">
<title>Node5&#45;&gt;Node12</title>
<path fill="none" stroke="midnightblue" d="M285.5,-124.11C285.5,-115.15 285.5,-105.32 285.5,-97.58"/>
<polygon fill="midnightblue" stroke="midnightblue" points="282,-124.4 285.5,-134.4 289,-124.4 282,-124.4"/>
</g>
<!-- Node6&#45;&gt;Node3 -->
<g id="edge6" class="edge">
<title>Node6&#45;&gt;Node3</title>
<path fill="none" stroke="midnightblue" d="M460.46,-61.31C477.36,-49.1 498.02,-34.18 510.72,-25.01"/>
<polygon fill="midnightblue" stroke="midnightblue" points="458.09,-58.7 452.03,-67.4 462.18,-64.38 458.09,-58.7"/>
</g>
<!-- Node7 -->
<g id="node7" class="node">
<title>Node7</title>
<g id="a_node7"><a xlink:href="HTLInterpreter_8cpp.html" target="_top" xlink:title=" ">
<polygon fill="white" stroke="black" points="141,-0.5 141,-30.5 264,-30.5 264,-0.5 141,-0.5"/>
<text text-anchor="start" x="149" y="-18.5" font-family="Helvetica,sans-Serif" font-size="10.00">TravellersApp/src/parser</text>
<text text-anchor="middle" x="202.5" y="-7.5" font-family="Helvetica,sans-Serif" font-size="10.00">/HTLInterpreter.cpp</text>
</a>
</g>
</g>
<!-- Node6&#45;&gt;Node7 -->
<g id="edge7" class="edge">
<title>Node6&#45;&gt;Node7</title>
<path fill="none" stroke="midnightblue" d="M373.11,-64.71C335.68,-54.14 287.9,-40.63 252.43,-30.61"/>
<polygon fill="midnightblue" stroke="midnightblue" points="372.3,-68.12 382.88,-67.48 374.21,-61.39 372.3,-68.12"/>
</g>
<!-- Node8&#45;&gt;Node3 -->
<g id="edge9" class="edge">
<title>Node8&#45;&gt;Node3</title>
<path fill="none" stroke="midnightblue" d="M613.68,-62.8C589.14,-50.34 558.06,-34.56 539.25,-25.01"/>
<polygon fill="midnightblue" stroke="midnightblue" points="612.22,-65.99 622.73,-67.4 615.39,-59.75 612.22,-65.99"/>
</g>
<!-- Node9 -->
<g id="node9" class="node">
<title>Node9</title>
<g id="a_node9"><a xlink:href="LoginInterpreter_8cpp.html" target="_top" xlink:title=" ">
<polygon fill="white" stroke="black" points="608,-0.5 608,-30.5 731,-30.5 731,-0.5 608,-0.5"/>
<text text-anchor="start" x="616" y="-18.5" font-family="Helvetica,sans-Serif" font-size="10.00">TravellersApp/src/parser</text>
<text text-anchor="middle" x="669.5" y="-7.5" font-family="Helvetica,sans-Serif" font-size="10.00">/LoginInterpreter.cpp</text>
</a>
</g>
</g>
<!-- Node8&#45;&gt;Node9 -->
<g id="edge10" class="edge">
<title>Node8&#45;&gt;Node9</title>
<path fill="none" stroke="midnightblue" d="M657.46,-57.7C660.12,-48.59 663.07,-38.49 665.39,-30.58"/>
<polygon fill="midnightblue" stroke="midnightblue" points="654.07,-56.82 654.62,-67.4 660.79,-58.78 654.07,-56.82"/>
</g>
<!-- Node10&#45;&gt;Node7 -->
<g id="edge12" class="edge">
<title>Node10&#45;&gt;Node7</title>
<path fill="none" stroke="midnightblue" d="M155.32,-60.31C165.82,-50.56 177.99,-39.26 187.34,-30.58"/>
<polygon fill="midnightblue" stroke="midnightblue" points="152.64,-58.03 147.69,-67.4 157.4,-63.16 152.64,-58.03"/>
</g>
<!-- Node11 -->
<g id="node11" class="node">
<title>Node11</title>
<g id="a_node11"><a xlink:href="VisitInterpreter_8cpp.html" target="_top" xlink:title=" ">
<polygon fill="white" stroke="black" points="0,-0.5 0,-30.5 123,-30.5 123,-0.5 0,-0.5"/>
<text text-anchor="start" x="8" y="-18.5" font-family="Helvetica,sans-Serif" font-size="10.00">TravellersApp/src/parser</text>
<text text-anchor="middle" x="61.5" y="-7.5" font-family="Helvetica,sans-Serif" font-size="10.00">/VisitInterpreter.cpp</text>
</a>
</g>
</g>
<!-- Node10&#45;&gt;Node11 -->
<g id="edge13" class="edge">
<title>Node10&#45;&gt;Node11</title>
<path fill="none" stroke="midnightblue" d="M109.67,-60.6C98.95,-50.78 86.45,-39.34 76.88,-30.58"/>
<polygon fill="midnightblue" stroke="midnightblue" points="107.35,-63.22 117.09,-67.4 112.08,-58.06 107.35,-63.22"/>
</g>
<!-- Node14&#45;&gt;Node6 -->
<g id="edge23" class="edge">
<title>Node14&#45;&gt;Node6</title>
<path fill="none" stroke="midnightblue" d="M563.32,-397.04C575.25,-389.18 586.86,-378.87 593.5,-366 599.82,-353.76 597.01,-348.32 593.5,-335 566.52,-232.74 480.3,-133.75 446.39,-97.76"/>
<polygon fill="midnightblue" stroke="midnightblue" points="561.36,-394.14 554.65,-402.34 565.01,-400.12 561.36,-394.14"/>
</g>
<!-- Node14&#45;&gt;Node8 -->
<g id="edge29" class="edge">
<title>Node14&#45;&gt;Node8</title>
<path fill="none" stroke="midnightblue" d="M594.11,-403.95C657.66,-388.22 740.5,-354.32 740.5,-284.5 740.5,-284.5 740.5,-284.5 740.5,-215.5 740.5,-178.31 742.22,-164.89 721.5,-134 711.05,-118.42 694.07,-106.09 679.33,-97.51"/>
<polygon fill="midnightblue" stroke="midnightblue" points="593.02,-400.62 584.1,-406.33 594.63,-407.43 593.02,-400.62"/>
</g>
<!-- Node14&#45;&gt;Node10 -->
<g id="edge31" class="edge">
<title>Node14&#45;&gt;Node10</title>
<path fill="none" stroke="midnightblue" d="M450.65,-407.66C339.27,-392.29 133.27,-356.66 90.5,-299 43.72,-235.93 99.42,-134.82 122.97,-97.73"/>
<polygon fill="midnightblue" stroke="midnightblue" points="450.41,-411.16 460.79,-409.04 451.36,-404.22 450.41,-411.16"/>
</g>
<!-- Node15 -->
<g id="node15" class="node">
<title>Node15</title>
<g id="a_node15"><a xlink:href="Scanner_8hpp.html" target="_top" xlink:title=" ">
<polygon fill="white" stroke="black" points="320,-335.5 320,-365.5 443,-365.5 443,-335.5 320,-335.5"/>
<text text-anchor="start" x="328" y="-353.5" font-family="Helvetica,sans-Serif" font-size="10.00">TravellersApp/src/parser</text>
<text text-anchor="middle" x="381.5" y="-342.5" font-family="Helvetica,sans-Serif" font-size="10.00">/Scanner.hpp</text>
</a>
</g>
</g>
<!-- Node14&#45;&gt;Node15 -->
<g id="edge18" class="edge">
<title>Node14&#45;&gt;Node15</title>
<path fill="none" stroke="midnightblue" d="M482.65,-398.13C460.25,-387.8 432.72,-375.11 412.04,-365.58"/>
<polygon fill="midnightblue" stroke="midnightblue" points="481.36,-401.39 491.91,-402.4 484.29,-395.03 481.36,-401.39"/>
</g>
<!-- Node17 -->
<g id="node17" class="node">
<title>Node17</title>
<g id="a_node17"><a xlink:href="Interpreter_8hpp.html" target="_top" xlink:title=" ">
<polygon fill="white" stroke="black" points="589,-134.5 589,-164.5 712,-164.5 712,-134.5 589,-134.5"/>
<text text-anchor="start" x="597" y="-152.5" font-family="Helvetica,sans-Serif" font-size="10.00">TravellersApp/src/parser</text>
<text text-anchor="middle" x="650.5" y="-141.5" font-family="Helvetica,sans-Serif" font-size="10.00">/Interpreter.hpp</text>
</a>
</g>
</g>
<!-- Node14&#45;&gt;Node17 -->
<g id="edge24" class="edge">
<title>Node14&#45;&gt;Node17</title>
<path fill="none" stroke="midnightblue" d="M585.04,-398.38C600.92,-390.85 616.34,-380.39 626.5,-366 671.23,-302.65 659.51,-201.71 653.23,-164.7"/>
<polygon fill="midnightblue" stroke="midnightblue" points="583.43,-395.27 575.68,-402.49 586.24,-401.68 583.43,-395.27"/>
</g>
<!-- Node19 -->
<g id="node19" class="node">
<title>Node19</title>
<g id="a_node19"><a xlink:href="CommandList_8cpp.html" target="_top" xlink:title=" ">
<polygon fill="white" stroke="black" points="461,-335.5 461,-365.5 584,-365.5 584,-335.5 461,-335.5"/>
<text text-anchor="start" x="469" y="-353.5" font-family="Helvetica,sans-Serif" font-size="10.00">TravellersApp/src/parser</text>
<text text-anchor="middle" x="522.5" y="-342.5" font-family="Helvetica,sans-Serif" font-size="10.00">/CommandList.cpp</text>
</a>
</g>
</g>
<!-- Node14&#45;&gt;Node19 -->
<g id="edge30" class="edge">
<title>Node14&#45;&gt;Node19</title>
<path fill="none" stroke="midnightblue" d="M522.5,-392.11C522.5,-383.15 522.5,-373.32 522.5,-365.58"/>
<polygon fill="midnightblue" stroke="midnightblue" points="519,-392.4 522.5,-402.4 526,-392.4 519,-392.4"/>
</g>
<!-- Node15&#45;&gt;Node2 -->
<g id="edge19" class="edge">
<title>Node15&#45;&gt;Node2</title>
<path fill="none" stroke="midnightblue" d="M368.1,-326.58C362.64,-317.24 356.51,-306.75 351.73,-298.58"/>
<polygon fill="midnightblue" stroke="midnightblue" points="365.19,-328.53 373.25,-335.4 371.23,-325 365.19,-328.53"/>
</g>
<!-- Node15&#45;&gt;Node3 -->
<g id="edge20" class="edge">
<title>Node15&#45;&gt;Node3</title>
<path fill="none" stroke="midnightblue" d="M452.93,-333.04C498,-321.93 548.92,-307.76 555.5,-299 621.48,-211.15 547.84,-62.61 527.44,-25.23"/>
<polygon fill="midnightblue" stroke="midnightblue" points="452.01,-329.66 443.12,-335.43 453.67,-336.46 452.01,-329.66"/>
</g>
<!-- Node15&#45;&gt;Node7 -->
<g id="edge21" class="edge">
<title>Node15&#45;&gt;Node7</title>
<path fill="none" stroke="midnightblue" d="M309.95,-346.48C233.77,-341.7 120.17,-329.53 90.5,-299 18.08,-224.48 1.68,-151.97 61.5,-67 71.42,-52.91 108.84,-39.88 142.64,-30.58"/>
<polygon fill="midnightblue" stroke="midnightblue" points="309.78,-349.98 319.97,-347.08 310.2,-342.99 309.78,-349.98"/>
</g>
<!-- Node16 -->
<g id="node16" class="node">
<title>Node16</title>
<g id="a_node16"><a xlink:href="Scanner_8cpp.html" target="_top" xlink:title=" ">
<polygon fill="white" stroke="black" points="423,-268.5 423,-298.5 546,-298.5 546,-268.5 423,-268.5"/>
<text text-anchor="start" x="431" y="-286.5" font-family="Helvetica,sans-Serif" font-size="10.00">TravellersApp/src/parser</text>
<text text-anchor="middle" x="484.5" y="-275.5" font-family="Helvetica,sans-Serif" font-size="10.00">/Scanner.cpp</text>
</a>
</g>
</g>
<!-- Node15&#45;&gt;Node16 -->
<g id="edge22" class="edge">
<title>Node15&#45;&gt;Node16</title>
<path fill="none" stroke="midnightblue" d="M412.38,-330.02C428.4,-319.9 447.63,-307.77 462.19,-298.58"/>
<polygon fill="midnightblue" stroke="midnightblue" points="410.44,-327.1 403.85,-335.4 414.17,-333.02 410.44,-327.1"/>
</g>
<!-- Node17&#45;&gt;Node6 -->
<g id="edge25" class="edge">
<title>Node17&#45;&gt;Node6</title>
<path fill="none" stroke="midnightblue" d="M593.75,-131.58C558.34,-121.02 513.3,-107.59 479.83,-97.61"/>
<polygon fill="midnightblue" stroke="midnightblue" points="592.88,-134.97 603.47,-134.48 594.88,-128.26 592.88,-134.97"/>
</g>
<!-- Node17&#45;&gt;Node8 -->
<g id="edge26" class="edge">
<title>Node17&#45;&gt;Node8</title>
<path fill="none" stroke="midnightblue" d="M650.5,-124.11C650.5,-115.15 650.5,-105.32 650.5,-97.58"/>
<polygon fill="midnightblue" stroke="midnightblue" points="647,-124.4 650.5,-134.4 654,-124.4 647,-124.4"/>
</g>
<!-- Node17&#45;&gt;Node10 -->
<g id="edge27" class="edge">
<title>Node17&#45;&gt;Node10</title>
<path fill="none" stroke="midnightblue" d="M579,-141.54C492.49,-132.82 342.51,-116.71 214.5,-98 207.92,-97.04 201.06,-95.95 194.22,-94.82"/>
<polygon fill="midnightblue" stroke="midnightblue" points="578.68,-145.03 588.98,-142.54 579.37,-138.06 578.68,-145.03"/>
</g>
<!-- Node18 -->
<g id="node18" class="node">
<title>Node18</title>
<g id="a_node18"><a xlink:href="Interpreter_8cpp.html" target="_top" xlink:title=" ">
<polygon fill="white" stroke="black" points="730,-67.5 730,-97.5 853,-97.5 853,-67.5 730,-67.5"/>
<text text-anchor="start" x="738" y="-85.5" font-family="Helvetica,sans-Serif" font-size="10.00">TravellersApp/src/parser</text>
<text text-anchor="middle" x="791.5" y="-74.5" font-family="Helvetica,sans-Serif" font-size="10.00">/Interpreter.cpp</text>
</a>
</g>
</g>
<!-- Node17&#45;&gt;Node18 -->
<g id="edge28" class="edge">
<title>Node17&#45;&gt;Node18</title>
<path fill="none" stroke="midnightblue" d="M690.35,-130.13C712.75,-119.8 740.28,-107.11 760.96,-97.58"/>
<polygon fill="midnightblue" stroke="midnightblue" points="688.71,-127.03 681.09,-134.4 691.64,-133.39 688.71,-127.03"/>
</g>
<!-- Node20&#45;&gt;Node4 -->
<g id="edge33" class="edge">
<title>Node20&#45;&gt;Node4</title>
<path fill="none" stroke="midnightblue" d="M197.5,-266.5C210.25,-253.75 227.61,-236.39 237.87,-226.13"/>
<polygon fill="midnightblue" stroke="midnightblue" points="194.86,-264.19 190.27,-273.73 199.81,-269.14 194.86,-264.19"/>
</g>
<!-- Node20&#45;&gt;Node5 -->
<g id="edge34" class="edge">
<title>Node20&#45;&gt;Node5</title>
<path fill="none" stroke="midnightblue" d="M172.36,-264.68C164.75,-247.08 156.98,-220.1 169.5,-201 181.84,-182.17 202.89,-170.32 223.71,-162.88"/>
<polygon fill="midnightblue" stroke="midnightblue" points="169.25,-266.27 176.68,-273.82 175.58,-263.29 169.25,-266.27"/>
</g>
<!-- Node20&#45;&gt;Node10 -->
<g id="edge35" class="edge">
<title>Node20&#45;&gt;Node10</title>
<path fill="none" stroke="midnightblue" d="M172.51,-264.63C168.04,-255.14 162.89,-243.15 159.5,-232 144.86,-183.87 136.99,-124.4 133.97,-97.68"/>
<polygon fill="midnightblue" stroke="midnightblue" points="169.45,-266.33 176.97,-273.8 175.74,-263.27 169.45,-266.33"/>
</g>
</g>
</svg>
