<?xml version="1.0" encoding="UTF-8" standalone="no"?>
<!DOCTYPE svg PUBLIC "-//W3C//DTD SVG 1.1//EN"
 "http://www.w3.org/Graphics/SVG/1.1/DTD/svg11.dtd">
<!-- Generated by graphviz version 2.44.0 (0)
 -->
<!-- Title: TravellersApp/src/collection/SortedArrayList.hpp Pages: 1 -->
<!--zoomable 319 -->
<svg id="main" version="1.1" xmlns="http://www.w3.org/2000/svg" xmlns:xlink="http://www.w3.org/1999/xlink" xml:space="preserve" onload="init(evt)">
<style type="text/css"><![CDATA[
.edge:hover path { stroke: red; }
.edge:hover polygon { stroke: red; fill: red; }
]]></style>
<script type="text/javascript"><![CDATA[
var edges = document.getElementsByTagName('g');
if (edges && edges.length) {
  for (var i=0;i<edges.length;i++) {
    if (edges[i].id.substr(0,4)=='edge') {
      edges[i].setAttribute('class','edge');
    }
  }
}
]]></script>
        <defs>
                <circle id="rim" cx="0" cy="0" r="7"/>
                <circle id="rim2" cx="0" cy="0" r="3.5"/>
                <g id="zoomPlus">
                        <use xlink:href="#rim" fill="#404040">
                                <set attributeName="fill" to="#808080" begin="zoomplus.mouseover" end="zoomplus.mouseout"/>
                        </use>
                        <path d="M-4,0h8M0,-4v8" fill="none" stroke="white" stroke-width="1.5" pointer-events="none"/>
                </g>
                <g id="zoomMin">
                        <use xlink:href="#rim" fill="#404040">
                                <set attributeName="fill" to="#808080" begin="zoomminus.mouseover" end="zoomminus.mouseout"/>
                        </use>
                        <path d="M-4,0h8" fill="none" stroke="white" stroke-width="1.5" pointer-events="none"/>
                </g>
                <g id="dirArrow">
                        <path fill="none" stroke="white" stroke-width="1.5" d="M0,-3.0v7 M-2.5,-0.5L0,-3.0L2.5,-0.5"/>
                </g>
               <g id="resetDef">
                       <use xlink:href="#rim2" fill="#404040">
                               <set attributeName="fill" to="#808080" begin="reset.mouseover" end="reset.mouseout"/>
                       </use>
               </g>
        </defs>

<script type="text/javascript">
var viewWidth = 799;
var viewHeight = 319;
var sectionId = 'dynsection-0';
</script>
<script xlink:href="svgpan.js"/>
<svg id="graph" class="graph">
<g id="viewport">
<title>TravellersApp/src/collection/SortedArrayList.hpp</title>
<polygon fill="white" stroke="transparent" points="-4,4 -4,-315 794.5,-315 794.5,4 -4,4"/>
<!-- Node1 -->
<g id="node1" class="node">
<title>Node1</title>
<g id="a_node1"><a xlink:title=" ">
<polygon fill="#bfbfbf" stroke="black" points="513,-280.5 513,-310.5 650,-310.5 650,-280.5 513,-280.5"/>
<text text-anchor="start" x="521" y="-298.5" font-family="Helvetica,sans-Serif" font-size="10.00">TravellersApp/src/collection</text>
<text text-anchor="middle" x="581.5" y="-287.5" font-family="Helvetica,sans-Serif" font-size="10.00">/SortedArrayList.hpp</text>
</a>
</g>
</g>
<!-- Node2 -->
<g id="node2" class="node">
<title>Node2</title>
<g id="a_node2"><a xlink:href="ArrayList_8hpp.html" target="_top" xlink:title=" ">
<polygon fill="white" stroke="black" points="335.5,-224.5 335.5,-243.5 409.5,-243.5 409.5,-224.5 335.5,-224.5"/>
<text text-anchor="middle" x="372.5" y="-231.5" font-family="Helvetica,sans-Serif" font-size="10.00">ArrayList.hpp</text>
</a>
</g>
</g>
<!-- Node1&#45;&gt;Node2 -->
<g id="edge1" class="edge">
<title>Node1&#45;&gt;Node2</title>
<path fill="none" stroke="midnightblue" d="M532.23,-280.47C495.55,-270.03 446.12,-255.96 412.01,-246.25"/>
<polygon fill="midnightblue" stroke="midnightblue" points="412.96,-242.88 402.38,-243.51 411.04,-249.61 412.96,-242.88"/>
</g>
<!-- Node4 -->
<g id="node4" class="node">
<title>Node4</title>
<g id="a_node4"><a xlink:title=" ">
<polygon fill="white" stroke="#bfbfbf" points="393.5,-0.5 393.5,-19.5 447.5,-19.5 447.5,-0.5 393.5,-0.5"/>
<text text-anchor="middle" x="420.5" y="-7.5" font-family="Helvetica,sans-Serif" font-size="10.00">iostream</text>
</a>
</g>
</g>
<!-- Node1&#45;&gt;Node4 -->
<g id="edge26" class="edge">
<title>Node1&#45;&gt;Node4</title>
<path fill="none" stroke="midnightblue" d="M650.22,-285.42C711.14,-273.06 790.5,-244.4 790.5,-179 790.5,-179 790.5,-179 790.5,-121 790.5,-52.12 551.9,-22.93 457.91,-14.1"/>
<polygon fill="midnightblue" stroke="midnightblue" points="457.98,-10.6 447.71,-13.17 457.35,-17.57 457.98,-10.6"/>
</g>
<!-- Node3 -->
<g id="node3" class="node">
<title>Node3</title>
<g id="a_node3"><a xlink:title=" ">
<polygon fill="white" stroke="#bfbfbf" points="703,-112.5 703,-131.5 762,-131.5 762,-112.5 703,-112.5"/>
<text text-anchor="middle" x="732.5" y="-119.5" font-family="Helvetica,sans-Serif" font-size="10.00">functional</text>
</a>
</g>
</g>
<!-- Node2&#45;&gt;Node3 -->
<g id="edge2" class="edge">
<title>Node2&#45;&gt;Node3</title>
<path fill="none" stroke="midnightblue" d="M409.59,-229.27C456.64,-223.77 539.81,-211.52 607.5,-188 645.44,-174.82 686.14,-151.81 710.44,-137"/>
<polygon fill="midnightblue" stroke="midnightblue" points="712.55,-139.81 719.21,-131.57 708.87,-133.86 712.55,-139.81"/>
</g>
<!-- Node2&#45;&gt;Node4 -->
<g id="edge3" class="edge">
<title>Node2&#45;&gt;Node4</title>
<path fill="none" stroke="midnightblue" d="M374.38,-224.3C381.46,-191.56 406.58,-75.38 416.46,-29.67"/>
<polygon fill="midnightblue" stroke="midnightblue" points="419.89,-30.4 418.58,-19.88 413.04,-28.92 419.89,-30.4"/>
</g>
<!-- Node5 -->
<g id="node5" class="node">
<title>Node5</title>
<g id="a_node5"><a xlink:title=" ">
<polygon fill="white" stroke="#bfbfbf" points="236,-112.5 236,-131.5 287,-131.5 287,-112.5 236,-112.5"/>
<text text-anchor="middle" x="261.5" y="-119.5" font-family="Helvetica,sans-Serif" font-size="10.00">memory</text>
</a>
</g>
</g>
<!-- Node2&#45;&gt;Node5 -->
<g id="edge4" class="edge">
<title>Node2&#45;&gt;Node5</title>
<path fill="none" stroke="midnightblue" d="M341.06,-224.49C321.38,-217.64 296.92,-206.12 281.5,-188 270.39,-174.94 265.45,-155.79 263.25,-141.65"/>
<polygon fill="midnightblue" stroke="midnightblue" points="266.71,-141.1 262.02,-131.61 259.76,-141.96 266.71,-141.1"/>
</g>
<!-- Node6 -->
<g id="node6" class="node">
<title>Node6</title>
<g id="a_node6"><a xlink:href="InvalidArgumentException_8hpp.html" target="_top" xlink:title=" ">
<polygon fill="white" stroke="black" points="0,-56.5 0,-75.5 155,-75.5 155,-56.5 0,-56.5"/>
<text text-anchor="middle" x="77.5" y="-63.5" font-family="Helvetica,sans-Serif" font-size="10.00">../InvalidArgumentException.hpp</text>
</a>
</g>
</g>
<!-- Node2&#45;&gt;Node6 -->
<g id="edge5" class="edge">
<title>Node2&#45;&gt;Node6</title>
<path fill="none" stroke="midnightblue" d="M339.6,-224.43C312.85,-216.79 274.59,-204.3 243.5,-188 184.85,-157.26 123.95,-107.46 94.92,-82.42"/>
<polygon fill="midnightblue" stroke="midnightblue" points="97.13,-79.7 87.29,-75.77 92.53,-84.98 97.13,-79.7"/>
</g>
<!-- Node9 -->
<g id="node9" class="node">
<title>Node9</title>
<g id="a_node9"><a xlink:href="debug_8hpp.html" target="_top" xlink:title=" ">
<polygon fill="white" stroke="black" points="173.5,-56.5 173.5,-75.5 241.5,-75.5 241.5,-56.5 173.5,-56.5"/>
<text text-anchor="middle" x="207.5" y="-63.5" font-family="Helvetica,sans-Serif" font-size="10.00">../debug.hpp</text>
</a>
</g>
</g>
<!-- Node2&#45;&gt;Node9 -->
<g id="edge9" class="edge">
<title>Node2&#45;&gt;Node9</title>
<path fill="none" stroke="midnightblue" d="M338.97,-224.36C316.43,-217.32 287.01,-205.62 265.5,-188 233.02,-161.39 217.52,-112.27 211.2,-85.52"/>
<polygon fill="midnightblue" stroke="midnightblue" points="214.58,-84.59 209.02,-75.56 207.74,-86.08 214.58,-84.59"/>
</g>
<!-- Node10 -->
<g id="node10" class="node">
<title>Node10</title>
<g id="a_node10"><a xlink:href="Nullable_8hpp.html" target="_top" xlink:title=" ">
<polygon fill="white" stroke="black" points="305,-112.5 305,-131.5 382,-131.5 382,-112.5 305,-112.5"/>
<text text-anchor="middle" x="343.5" y="-119.5" font-family="Helvetica,sans-Serif" font-size="10.00">../Nullable.hpp</text>
</a>
</g>
</g>
<!-- Node2&#45;&gt;Node10 -->
<g id="edge10" class="edge">
<title>Node2&#45;&gt;Node10</title>
<path fill="none" stroke="midnightblue" d="M370.22,-224.37C365.52,-206.54 354.65,-165.3 348.32,-141.27"/>
<polygon fill="midnightblue" stroke="midnightblue" points="351.7,-140.37 345.77,-131.59 344.93,-142.15 351.7,-140.37"/>
</g>
<!-- Node12 -->
<g id="node12" class="node">
<title>Node12</title>
<g id="a_node12"><a xlink:href="IList_8hpp.html" target="_top" xlink:title=" ">
<polygon fill="white" stroke="black" points="290.5,-168.5 290.5,-187.5 344.5,-187.5 344.5,-168.5 290.5,-168.5"/>
<text text-anchor="middle" x="317.5" y="-175.5" font-family="Helvetica,sans-Serif" font-size="10.00">IList.hpp</text>
</a>
</g>
</g>
<!-- Node2&#45;&gt;Node12 -->
<g id="edge17" class="edge">
<title>Node2&#45;&gt;Node12</title>
<path fill="none" stroke="midnightblue" d="M363.42,-224.08C355.33,-216.14 343.3,-204.34 333.59,-194.8"/>
<polygon fill="midnightblue" stroke="midnightblue" points="336,-192.26 326.41,-187.75 331.1,-197.25 336,-192.26"/>
</g>
<!-- Node13 -->
<g id="node13" class="node">
<title>Node13</title>
<g id="a_node13"><a xlink:href="Tuple_8hpp.html" target="_top" xlink:title=" ">
<polygon fill="white" stroke="black" points="539,-168.5 539,-187.5 598,-187.5 598,-168.5 539,-168.5"/>
<text text-anchor="middle" x="568.5" y="-175.5" font-family="Helvetica,sans-Serif" font-size="10.00">Tuple.hpp</text>
</a>
</g>
</g>
<!-- Node2&#45;&gt;Node13 -->
<g id="edge20" class="edge">
<title>Node2&#45;&gt;Node13</title>
<path fill="none" stroke="midnightblue" d="M403.56,-224.44C437.5,-215.09 491.96,-200.09 528.94,-189.9"/>
<polygon fill="midnightblue" stroke="midnightblue" points="530.16,-193.19 538.87,-187.16 528.3,-186.44 530.16,-193.19"/>
</g>
<!-- Node6&#45;&gt;Node4 -->
<g id="edge8" class="edge">
<title>Node6&#45;&gt;Node4</title>
<path fill="none" stroke="midnightblue" d="M131.85,-56.44C202.21,-45.37 322.95,-26.36 383.54,-16.82"/>
<polygon fill="midnightblue" stroke="midnightblue" points="384.1,-20.27 393.43,-15.26 383.01,-13.36 384.1,-20.27"/>
</g>
<!-- Node7 -->
<g id="node7" class="node">
<title>Node7</title>
<g id="a_node7"><a xlink:title=" ">
<polygon fill="white" stroke="#bfbfbf" points="97.5,-0.5 97.5,-19.5 143.5,-19.5 143.5,-0.5 97.5,-0.5"/>
<text text-anchor="middle" x="120.5" y="-7.5" font-family="Helvetica,sans-Serif" font-size="10.00">cstring</text>
</a>
</g>
</g>
<!-- Node6&#45;&gt;Node7 -->
<g id="edge6" class="edge">
<title>Node6&#45;&gt;Node7</title>
<path fill="none" stroke="midnightblue" d="M84.6,-56.08C90.74,-48.38 99.77,-37.03 107.24,-27.65"/>
<polygon fill="midnightblue" stroke="midnightblue" points="110.04,-29.75 113.53,-19.75 104.56,-25.39 110.04,-29.75"/>
</g>
<!-- Node8 -->
<g id="node8" class="node">
<title>Node8</title>
<g id="a_node8"><a xlink:title=" ">
<polygon fill="white" stroke="#bfbfbf" points="245.5,-0.5 245.5,-19.5 303.5,-19.5 303.5,-0.5 245.5,-0.5"/>
<text text-anchor="middle" x="274.5" y="-7.5" font-family="Helvetica,sans-Serif" font-size="10.00">exception</text>
</a>
</g>
</g>
<!-- Node6&#45;&gt;Node8 -->
<g id="edge7" class="edge">
<title>Node6&#45;&gt;Node8</title>
<path fill="none" stroke="midnightblue" d="M108.72,-56.44C143.03,-47.04 198.21,-31.91 235.38,-21.72"/>
<polygon fill="midnightblue" stroke="midnightblue" points="236.64,-25.01 245.36,-18.99 234.79,-18.26 236.64,-25.01"/>
</g>
<!-- Node10&#45;&gt;Node4 -->
<g id="edge16" class="edge">
<title>Node10&#45;&gt;Node4</title>
<path fill="none" stroke="midnightblue" d="M351.78,-112.43C360.04,-103.66 372.87,-89.45 382.5,-76 393.42,-60.76 404.03,-42.19 411.25,-28.81"/>
<polygon fill="midnightblue" stroke="midnightblue" points="414.48,-30.2 416.06,-19.73 408.29,-26.93 414.48,-30.2"/>
</g>
<!-- Node10&#45;&gt;Node9 -->
<g id="edge15" class="edge">
<title>Node10&#45;&gt;Node9</title>
<path fill="none" stroke="midnightblue" d="M321.95,-112.44C299.47,-103.52 264.01,-89.44 238.52,-79.32"/>
<polygon fill="midnightblue" stroke="midnightblue" points="239.53,-75.95 228.95,-75.52 236.95,-82.46 239.53,-75.95"/>
</g>
<!-- Node11 -->
<g id="node11" class="node">
<title>Node11</title>
<g id="a_node11"><a xlink:href="NoValueException_8hpp.html" target="_top" xlink:title=" ">
<polygon fill="white" stroke="black" points="259.5,-56.5 259.5,-75.5 373.5,-75.5 373.5,-56.5 259.5,-56.5"/>
<text text-anchor="middle" x="316.5" y="-63.5" font-family="Helvetica,sans-Serif" font-size="10.00">NoValueException.hpp</text>
</a>
</g>
</g>
<!-- Node10&#45;&gt;Node11 -->
<g id="edge11" class="edge">
<title>Node10&#45;&gt;Node11</title>
<path fill="none" stroke="midnightblue" d="M339.04,-112.08C335.35,-104.69 329.98,-93.95 325.41,-84.81"/>
<polygon fill="midnightblue" stroke="midnightblue" points="328.48,-83.13 320.88,-75.75 322.22,-86.26 328.48,-83.13"/>
</g>
<!-- Node11&#45;&gt;Node4 -->
<g id="edge14" class="edge">
<title>Node11&#45;&gt;Node4</title>
<path fill="none" stroke="midnightblue" d="M333.21,-56.32C349.81,-47.7 375.5,-34.36 394.72,-24.39"/>
<polygon fill="midnightblue" stroke="midnightblue" points="396.57,-27.37 403.83,-19.65 393.34,-21.16 396.57,-27.37"/>
</g>
<!-- Node11&#45;&gt;Node7 -->
<g id="edge12" class="edge">
<title>Node11&#45;&gt;Node7</title>
<path fill="none" stroke="midnightblue" d="M285.44,-56.44C249.43,-46.52 190.31,-30.23 153.49,-20.09"/>
<polygon fill="midnightblue" stroke="midnightblue" points="154.31,-16.68 143.74,-17.4 152.45,-23.43 154.31,-16.68"/>
</g>
<!-- Node11&#45;&gt;Node8 -->
<g id="edge13" class="edge">
<title>Node11&#45;&gt;Node8</title>
<path fill="none" stroke="midnightblue" d="M309.56,-56.08C303.57,-48.38 294.75,-37.03 287.45,-27.65"/>
<polygon fill="midnightblue" stroke="midnightblue" points="290.21,-25.5 281.31,-19.75 284.68,-29.79 290.21,-25.5"/>
</g>
<!-- Node12&#45;&gt;Node5 -->
<g id="edge19" class="edge">
<title>Node12&#45;&gt;Node5</title>
<path fill="none" stroke="midnightblue" d="M308.5,-168.32C300.31,-160.42 287.99,-148.55 278.03,-138.94"/>
<polygon fill="midnightblue" stroke="midnightblue" points="280.29,-136.26 270.66,-131.83 275.43,-141.29 280.29,-136.26"/>
</g>
<!-- Node12&#45;&gt;Node10 -->
<g id="edge18" class="edge">
<title>Node12&#45;&gt;Node10</title>
<path fill="none" stroke="midnightblue" d="M321.79,-168.08C325.35,-160.69 330.52,-149.95 334.92,-140.81"/>
<polygon fill="midnightblue" stroke="midnightblue" points="338.1,-142.28 339.29,-131.75 331.79,-139.24 338.1,-142.28"/>
</g>
<!-- Node13&#45;&gt;Node3 -->
<g id="edge23" class="edge">
<title>Node13&#45;&gt;Node3</title>
<path fill="none" stroke="midnightblue" d="M594.49,-168.44C622.2,-159.32 666.25,-144.81 697.12,-134.65"/>
<polygon fill="midnightblue" stroke="midnightblue" points="698.23,-137.97 706.64,-131.52 696.04,-131.32 698.23,-137.97"/>
</g>
<!-- Node13&#45;&gt;Node4 -->
<g id="edge24" class="edge">
<title>Node13&#45;&gt;Node4</title>
<path fill="none" stroke="midnightblue" d="M598.17,-168.71C629.75,-158.3 672.98,-138.53 655.5,-112 611.3,-44.9 512.19,-22.2 457.86,-14.65"/>
<polygon fill="midnightblue" stroke="midnightblue" points="457.99,-11.14 447.63,-13.34 457.1,-18.08 457.99,-11.14"/>
</g>
<!-- Node14 -->
<g id="node14" class="node">
<title>Node14</title>
<g id="a_node14"><a xlink:href="ttype_8hpp.html" target="_top" xlink:title=" ">
<polygon fill="white" stroke="black" points="583,-112.5 583,-131.5 646,-131.5 646,-112.5 583,-112.5"/>
<text text-anchor="middle" x="614.5" y="-119.5" font-family="Helvetica,sans-Serif" font-size="10.00">../ttype.hpp</text>
</a>
</g>
</g>
<!-- Node13&#45;&gt;Node14 -->
<g id="edge21" class="edge">
<title>Node13&#45;&gt;Node14</title>
<path fill="none" stroke="midnightblue" d="M576.1,-168.08C582.73,-160.3 592.52,-148.8 600.56,-139.37"/>
<polygon fill="midnightblue" stroke="midnightblue" points="603.23,-141.63 607.05,-131.75 597.9,-137.09 603.23,-141.63"/>
</g>
<!-- Node15 -->
<g id="node15" class="node">
<title>Node15</title>
<g id="a_node15"><a xlink:title=" ">
<polygon fill="white" stroke="#bfbfbf" points="439,-112.5 439,-131.5 484,-131.5 484,-112.5 439,-112.5"/>
<text text-anchor="middle" x="461.5" y="-119.5" font-family="Helvetica,sans-Serif" font-size="10.00">cstdlib</text>
</a>
</g>
</g>
<!-- Node13&#45;&gt;Node15 -->
<g id="edge22" class="edge">
<title>Node13&#45;&gt;Node15</title>
<path fill="none" stroke="midnightblue" d="M551.31,-168.32C534.15,-159.66 507.55,-146.24 487.75,-136.25"/>
<polygon fill="midnightblue" stroke="midnightblue" points="489.15,-133.04 478.65,-131.65 486,-139.28 489.15,-133.04"/>
</g>
<!-- Node16 -->
<g id="node16" class="node">
<title>Node16</title>
<g id="a_node16"><a xlink:title=" ">
<polygon fill="white" stroke="#bfbfbf" points="502.5,-112.5 502.5,-131.5 564.5,-131.5 564.5,-112.5 502.5,-112.5"/>
<text text-anchor="middle" x="533.5" y="-119.5" font-family="Helvetica,sans-Serif" font-size="10.00">type_traits</text>
</a>
</g>
</g>
<!-- Node13&#45;&gt;Node16 -->
<g id="edge25" class="edge">
<title>Node13&#45;&gt;Node16</title>
<path fill="none" stroke="midnightblue" d="M562.72,-168.08C557.83,-160.53 550.67,-149.49 544.67,-140.23"/>
<polygon fill="midnightblue" stroke="midnightblue" points="547.55,-138.24 539.17,-131.75 541.67,-142.05 547.55,-138.24"/>
</g>
</g>
</svg>
        <g id="navigator" transform="translate(0 0)" fill="#404254">
                <rect fill="#f2f5e9" fill-opacity="0.5" stroke="#606060" stroke-width=".5" x="0" y="0" width="60" height="60"/>
                <use id="zoomplus" xlink:href="#zoomPlus" x="17" y="9" onmousedown="handleZoom(evt,'in')"/>
                <use id="zoomminus" xlink:href="#zoomMin" x="42" y="9" onmousedown="handleZoom(evt,'out')"/>
                <use id="reset" xlink:href="#resetDef" x="30" y="36" onmousedown="handleReset()"/>
                <g id="arrowUp" xlink:href="#dirArrow" transform="translate(30 24)" onmousedown="handlePan(0,-1)">
                  <use xlink:href="#rim" fill="#404040">
                        <set attributeName="fill" to="#808080" begin="arrowUp.mouseover" end="arrowUp.mouseout"/>
                  </use>
                  <path fill="none" stroke="white" stroke-width="1.5" d="M0,-3.0v7 M-2.5,-0.5L0,-3.0L2.5,-0.5"/>
                </g>
                <g id="arrowRight" xlink:href="#dirArrow" transform="rotate(90) translate(36 -43)" onmousedown="handlePan(1,0)">
                  <use xlink:href="#rim" fill="#404040">
                        <set attributeName="fill" to="#808080" begin="arrowRight.mouseover" end="arrowRight.mouseout"/>
                  </use>
                  <path fill="none" stroke="white" stroke-width="1.5" d="M0,-3.0v7 M-2.5,-0.5L0,-3.0L2.5,-0.5"/>
                </g>
                <g id="arrowDown" xlink:href="#dirArrow" transform="rotate(180) translate(-30 -48)" onmousedown="handlePan(0,1)">
                  <use xlink:href="#rim" fill="#404040">
                        <set attributeName="fill" to="#808080" begin="arrowDown.mouseover" end="arrowDown.mouseout"/>
                  </use>
                  <path fill="none" stroke="white" stroke-width="1.5" d="M0,-3.0v7 M-2.5,-0.5L0,-3.0L2.5,-0.5"/>
                </g>
                <g id="arrowLeft" xlink:href="#dirArrow" transform="rotate(270) translate(-36 17)" onmousedown="handlePan(-1,0)">
                  <use xlink:href="#rim" fill="#404040">
                        <set attributeName="fill" to="#808080" begin="arrowLeft.mouseover" end="arrowLeft.mouseout"/>
                  </use>
                  <path fill="none" stroke="white" stroke-width="1.5" d="M0,-3.0v7 M-2.5,-0.5L0,-3.0L2.5,-0.5"/>
                </g>
        </g>
        <svg viewBox="0 0 15 15" width="100%" height="30px" preserveAspectRatio="xMaxYMin meet">
         <g id="arrow_out" transform="scale(0.3 0.3)">
          <a xlink:href="SortedArrayList_8hpp__incl_org.svg" target="_base">
           <rect id="button" ry="5" rx="5" y="6" x="6" height="38" width="38"
                fill="#f2f5e9" fill-opacity="0.5" stroke="#606060" stroke-width="1.0"/>
           <path id="arrow"
             d="M 11.500037,31.436501 C 11.940474,20.09759 22.043105,11.32322 32.158766,21.979434 L 37.068811,17.246167 C 37.068811,17.246167 37.088388,32 37.088388,32 L 22.160133,31.978069 C 22.160133,31.978069 26.997745,27.140456 26.997745,27.140456 C 18.528582,18.264221 13.291696,25.230495 11.500037,31.436501 z"
             style="fill:#404040;"/>
          </a>
         </g>
        </svg>
</svg>
