<?xml version="1.0" encoding="UTF-8" standalone="no"?>
<!DOCTYPE svg PUBLIC "-//W3C//DTD SVG 1.1//EN"
 "http://www.w3.org/Graphics/SVG/1.1/DTD/svg11.dtd">
<!-- Generated by graphviz version 2.44.0 (0)
 -->
<!-- Title: TravellersApp/src/collection/Stack.hpp Pages: 1 -->
<svg width="727pt" height="319pt"
 viewBox="0.00 0.00 726.60 319.00" xmlns="http://www.w3.org/2000/svg" xmlns:xlink="http://www.w3.org/1999/xlink">
<g id="graph0" class="graph" transform="scale(1 1) rotate(0) translate(4 315)">
<title>TravellersApp/src/collection/Stack.hpp</title>
<polygon fill="white" stroke="transparent" points="-4,4 -4,-315 722.6,-315 722.6,4 -4,4"/>
<!-- Node1 -->
<g id="node1" class="node">
<title>Node1</title>
<g id="a_node1"><a xlink:title=" ">
<polygon fill="#bfbfbf" stroke="black" points="171.5,-280.5 171.5,-310.5 308.5,-310.5 308.5,-280.5 171.5,-280.5"/>
<text text-anchor="start" x="179.5" y="-298.5" font-family="Helvetica,sans-Serif" font-size="10.00">TravellersApp/src/collection</text>
<text text-anchor="middle" x="240" y="-287.5" font-family="Helvetica,sans-Serif" font-size="10.00">/Stack.hpp</text>
</a>
</g>
</g>
<!-- Node2 -->
<g id="node2" class="node">
<title>Node2</title>
<g id="a_node2"><a xlink:title=" ">
<polygon fill="white" stroke="#bfbfbf" points="104.5,-112.5 104.5,-131.5 155.5,-131.5 155.5,-112.5 104.5,-112.5"/>
<text text-anchor="middle" x="130" y="-119.5" font-family="Helvetica,sans-Serif" font-size="10.00">memory</text>
</a>
</g>
</g>
<!-- Node1&#45;&gt;Node2 -->
<g id="edge1" class="edge">
<title>Node1&#45;&gt;Node2</title>
<path fill="none" stroke="midnightblue" d="M217.69,-280.41C191.66,-262.53 149.91,-229.03 132,-188 125.65,-173.45 125.67,-155.27 126.98,-141.84"/>
<polygon fill="midnightblue" stroke="midnightblue" points="130.46,-142.23 128.27,-131.86 123.52,-141.33 130.46,-142.23"/>
</g>
<!-- Node3 -->
<g id="node3" class="node">
<title>Node3</title>
<g id="a_node3"><a xlink:href="Nullable_8hpp.html" target="_top" xlink:title=" ">
<polygon fill="white" stroke="black" points="205.5,-112.5 205.5,-131.5 282.5,-131.5 282.5,-112.5 205.5,-112.5"/>
<text text-anchor="middle" x="244" y="-119.5" font-family="Helvetica,sans-Serif" font-size="10.00">../Nullable.hpp</text>
</a>
</g>
</g>
<!-- Node1&#45;&gt;Node3 -->
<g id="edge2" class="edge">
<title>Node1&#45;&gt;Node3</title>
<path fill="none" stroke="midnightblue" d="M240.33,-280.47C241.04,-249.7 242.76,-176.33 243.56,-141.7"/>
<polygon fill="midnightblue" stroke="midnightblue" points="247.07,-141.64 243.8,-131.56 240.07,-141.48 247.07,-141.64"/>
</g>
<!-- Node9 -->
<g id="node9" class="node">
<title>Node9</title>
<g id="a_node9"><a xlink:href="ArrayList_8hpp.html" target="_top" xlink:title=" ">
<polygon fill="white" stroke="black" points="279,-224.5 279,-243.5 353,-243.5 353,-224.5 279,-224.5"/>
<text text-anchor="middle" x="316" y="-231.5" font-family="Helvetica,sans-Serif" font-size="10.00">ArrayList.hpp</text>
</a>
</g>
</g>
<!-- Node1&#45;&gt;Node9 -->
<g id="edge9" class="edge">
<title>Node1&#45;&gt;Node9</title>
<path fill="none" stroke="midnightblue" d="M258.01,-280.4C269.74,-271.22 285.02,-259.26 296.94,-249.92"/>
<polygon fill="midnightblue" stroke="midnightblue" points="299.22,-252.58 304.94,-243.66 294.91,-247.07 299.22,-252.58"/>
</g>
<!-- Node4 -->
<g id="node4" class="node">
<title>Node4</title>
<g id="a_node4"><a xlink:href="NoValueException_8hpp.html" target="_top" xlink:title=" ">
<polygon fill="white" stroke="black" points="0,-56.5 0,-75.5 114,-75.5 114,-56.5 0,-56.5"/>
<text text-anchor="middle" x="57" y="-63.5" font-family="Helvetica,sans-Serif" font-size="10.00">NoValueException.hpp</text>
</a>
</g>
</g>
<!-- Node3&#45;&gt;Node4 -->
<g id="edge3" class="edge">
<title>Node3&#45;&gt;Node4</title>
<path fill="none" stroke="midnightblue" d="M214.37,-112.44C182.5,-103.24 131.67,-88.56 96.44,-78.39"/>
<polygon fill="midnightblue" stroke="midnightblue" points="97.07,-74.93 86.49,-75.52 95.13,-81.65 97.07,-74.93"/>
</g>
<!-- Node7 -->
<g id="node7" class="node">
<title>Node7</title>
<g id="a_node7"><a xlink:title=" ">
<polygon fill="white" stroke="#bfbfbf" points="289,-0.5 289,-19.5 343,-19.5 343,-0.5 289,-0.5"/>
<text text-anchor="middle" x="316" y="-7.5" font-family="Helvetica,sans-Serif" font-size="10.00">iostream</text>
</a>
</g>
</g>
<!-- Node3&#45;&gt;Node7 -->
<g id="edge8" class="edge">
<title>Node3&#45;&gt;Node7</title>
<path fill="none" stroke="midnightblue" d="M258.19,-112.37C270.2,-104.37 287.01,-91.39 297,-76 306.1,-61.98 310.95,-43.48 313.47,-29.8"/>
<polygon fill="midnightblue" stroke="midnightblue" points="316.97,-30.08 315.07,-19.65 310.05,-28.98 316.97,-30.08"/>
</g>
<!-- Node8 -->
<g id="node8" class="node">
<title>Node8</title>
<g id="a_node8"><a xlink:href="debug_8hpp.html" target="_top" xlink:title=" ">
<polygon fill="white" stroke="black" points="600.5,-56.5 600.5,-75.5 661.5,-75.5 661.5,-56.5 600.5,-56.5"/>
<text text-anchor="middle" x="631" y="-63.5" font-family="Helvetica,sans-Serif" font-size="10.00">debug.hpp</text>
</a>
</g>
</g>
<!-- Node3&#45;&gt;Node8 -->
<g id="edge7" class="edge">
<title>Node3&#45;&gt;Node8</title>
<path fill="none" stroke="midnightblue" d="M282.52,-115.62C355.93,-105.38 515.2,-83.16 590.28,-72.68"/>
<polygon fill="midnightblue" stroke="midnightblue" points="590.88,-76.13 600.3,-71.28 589.91,-69.2 590.88,-76.13"/>
</g>
<!-- Node5 -->
<g id="node5" class="node">
<title>Node5</title>
<g id="a_node5"><a xlink:title=" ">
<polygon fill="white" stroke="#bfbfbf" points="55,-0.5 55,-19.5 101,-19.5 101,-0.5 55,-0.5"/>
<text text-anchor="middle" x="78" y="-7.5" font-family="Helvetica,sans-Serif" font-size="10.00">cstring</text>
</a>
</g>
</g>
<!-- Node4&#45;&gt;Node5 -->
<g id="edge4" class="edge">
<title>Node4&#45;&gt;Node5</title>
<path fill="none" stroke="midnightblue" d="M60.47,-56.08C63.31,-48.77 67.43,-38.18 70.96,-29.1"/>
<polygon fill="midnightblue" stroke="midnightblue" points="74.23,-30.34 74.6,-19.75 67.71,-27.8 74.23,-30.34"/>
</g>
<!-- Node6 -->
<g id="node6" class="node">
<title>Node6</title>
<g id="a_node6"><a xlink:title=" ">
<polygon fill="white" stroke="#bfbfbf" points="160,-0.5 160,-19.5 218,-19.5 218,-0.5 160,-0.5"/>
<text text-anchor="middle" x="189" y="-7.5" font-family="Helvetica,sans-Serif" font-size="10.00">exception</text>
</a>
</g>
</g>
<!-- Node4&#45;&gt;Node6 -->
<g id="edge5" class="edge">
<title>Node4&#45;&gt;Node6</title>
<path fill="none" stroke="midnightblue" d="M77.92,-56.44C99.74,-47.52 134.15,-33.44 158.89,-23.32"/>
<polygon fill="midnightblue" stroke="midnightblue" points="160.25,-26.54 168.18,-19.52 157.6,-20.06 160.25,-26.54"/>
</g>
<!-- Node4&#45;&gt;Node7 -->
<g id="edge6" class="edge">
<title>Node4&#45;&gt;Node7</title>
<path fill="none" stroke="midnightblue" d="M98.04,-56.44C147.74,-46.08 230.74,-28.78 278.7,-18.78"/>
<polygon fill="midnightblue" stroke="midnightblue" points="279.58,-22.17 288.66,-16.7 278.16,-15.32 279.58,-22.17"/>
</g>
<!-- Node9&#45;&gt;Node2 -->
<g id="edge12" class="edge">
<title>Node9&#45;&gt;Node2</title>
<path fill="none" stroke="midnightblue" d="M278.7,-233C241.05,-230.96 183.65,-221.93 149,-188 136.8,-176.06 132.33,-156.75 130.74,-142.28"/>
<polygon fill="midnightblue" stroke="midnightblue" points="134.21,-141.66 130,-131.94 127.22,-142.17 134.21,-141.66"/>
</g>
<!-- Node9&#45;&gt;Node3 -->
<g id="edge18" class="edge">
<title>Node9&#45;&gt;Node3</title>
<path fill="none" stroke="midnightblue" d="M310.35,-224.37C298.47,-206.22 270.71,-163.8 255.12,-139.99"/>
<polygon fill="midnightblue" stroke="midnightblue" points="258.03,-138.04 249.62,-131.59 252.17,-141.88 258.03,-138.04"/>
</g>
<!-- Node9&#45;&gt;Node7 -->
<g id="edge11" class="edge">
<title>Node9&#45;&gt;Node7</title>
<path fill="none" stroke="midnightblue" d="M319.09,-224.17C322.05,-215.2 326.32,-200.83 328,-188 335.52,-130.61 325.53,-62.1 319.69,-29.72"/>
<polygon fill="midnightblue" stroke="midnightblue" points="323.06,-28.69 317.76,-19.51 316.18,-29.99 323.06,-28.69"/>
</g>
<!-- Node9&#45;&gt;Node8 -->
<g id="edge17" class="edge">
<title>Node9&#45;&gt;Node8</title>
<path fill="none" stroke="midnightblue" d="M353.29,-229.46C443.85,-220 671.13,-190.73 714,-132 730.48,-109.42 697.75,-90.65 668.67,-79.18"/>
<polygon fill="midnightblue" stroke="midnightblue" points="669.61,-75.79 659.02,-75.57 667.16,-82.35 669.61,-75.79"/>
</g>
<!-- Node10 -->
<g id="node10" class="node">
<title>Node10</title>
<g id="a_node10"><a xlink:title=" ">
<polygon fill="white" stroke="#bfbfbf" points="382.5,-112.5 382.5,-131.5 441.5,-131.5 441.5,-112.5 382.5,-112.5"/>
<text text-anchor="middle" x="412" y="-119.5" font-family="Helvetica,sans-Serif" font-size="10.00">functional</text>
</a>
</g>
</g>
<!-- Node9&#45;&gt;Node10 -->
<g id="edge10" class="edge">
<title>Node9&#45;&gt;Node10</title>
<path fill="none" stroke="midnightblue" d="M327.52,-224.47C338.6,-215.94 355.47,-202.1 368,-188 381.25,-173.08 393.74,-153.96 402,-140.32"/>
<polygon fill="midnightblue" stroke="midnightblue" points="405.14,-141.89 407.22,-131.51 399.12,-138.33 405.14,-141.89"/>
</g>
<!-- Node11 -->
<g id="node11" class="node">
<title>Node11</title>
<g id="a_node11"><a xlink:href="InvalidArgumentException_8hpp.html" target="_top" xlink:title=" ">
<polygon fill="white" stroke="black" points="132.5,-56.5 132.5,-75.5 287.5,-75.5 287.5,-56.5 132.5,-56.5"/>
<text text-anchor="middle" x="210" y="-63.5" font-family="Helvetica,sans-Serif" font-size="10.00">../InvalidArgumentException.hpp</text>
</a>
</g>
</g>
<!-- Node9&#45;&gt;Node11 -->
<g id="edge13" class="edge">
<title>Node9&#45;&gt;Node11</title>
<path fill="none" stroke="midnightblue" d="M316.63,-224.41C317.73,-203.15 317.82,-147.24 292,-112 281.19,-97.25 264.02,-86.77 248.18,-79.65"/>
<polygon fill="midnightblue" stroke="midnightblue" points="249.13,-76.26 238.56,-75.65 246.45,-82.72 249.13,-76.26"/>
</g>
<!-- Node12 -->
<g id="node12" class="node">
<title>Node12</title>
<g id="a_node12"><a xlink:href="IList_8hpp.html" target="_top" xlink:title=" ">
<polygon fill="white" stroke="black" points="158,-168.5 158,-187.5 212,-187.5 212,-168.5 158,-168.5"/>
<text text-anchor="middle" x="185" y="-175.5" font-family="Helvetica,sans-Serif" font-size="10.00">IList.hpp</text>
</a>
</g>
</g>
<!-- Node9&#45;&gt;Node12 -->
<g id="edge19" class="edge">
<title>Node9&#45;&gt;Node12</title>
<path fill="none" stroke="midnightblue" d="M295.24,-224.44C273.68,-215.56 239.74,-201.56 215.21,-191.45"/>
<polygon fill="midnightblue" stroke="midnightblue" points="216.24,-188.09 205.66,-187.52 213.57,-194.56 216.24,-188.09"/>
</g>
<!-- Node13 -->
<g id="node13" class="node">
<title>Node13</title>
<g id="a_node13"><a xlink:href="Tuple_8hpp.html" target="_top" xlink:title=" ">
<polygon fill="white" stroke="black" points="470.5,-168.5 470.5,-187.5 529.5,-187.5 529.5,-168.5 470.5,-168.5"/>
<text text-anchor="middle" x="500" y="-175.5" font-family="Helvetica,sans-Serif" font-size="10.00">Tuple.hpp</text>
</a>
</g>
</g>
<!-- Node9&#45;&gt;Node13 -->
<g id="edge22" class="edge">
<title>Node9&#45;&gt;Node13</title>
<path fill="none" stroke="midnightblue" d="M345.16,-224.44C376.51,-215.24 426.53,-200.56 461.2,-190.39"/>
<polygon fill="midnightblue" stroke="midnightblue" points="462.37,-193.69 470.98,-187.52 460.4,-186.97 462.37,-193.69"/>
</g>
<!-- Node11&#45;&gt;Node5 -->
<g id="edge14" class="edge">
<title>Node11&#45;&gt;Node5</title>
<path fill="none" stroke="midnightblue" d="M189.08,-56.44C167.26,-47.52 132.85,-33.44 108.11,-23.32"/>
<polygon fill="midnightblue" stroke="midnightblue" points="109.4,-20.06 98.82,-19.52 106.75,-26.54 109.4,-20.06"/>
</g>
<!-- Node11&#45;&gt;Node6 -->
<g id="edge15" class="edge">
<title>Node11&#45;&gt;Node6</title>
<path fill="none" stroke="midnightblue" d="M206.53,-56.08C203.69,-48.77 199.57,-38.18 196.04,-29.1"/>
<polygon fill="midnightblue" stroke="midnightblue" points="199.29,-27.8 192.4,-19.75 192.77,-30.34 199.29,-27.8"/>
</g>
<!-- Node11&#45;&gt;Node7 -->
<g id="edge16" class="edge">
<title>Node11&#45;&gt;Node7</title>
<path fill="none" stroke="midnightblue" d="M227.03,-56.32C244.03,-47.66 270.38,-34.24 289.99,-24.25"/>
<polygon fill="midnightblue" stroke="midnightblue" points="291.69,-27.31 299.01,-19.65 288.51,-21.08 291.69,-27.31"/>
</g>
<!-- Node12&#45;&gt;Node2 -->
<g id="edge21" class="edge">
<title>Node12&#45;&gt;Node2</title>
<path fill="none" stroke="midnightblue" d="M175.92,-168.08C167.83,-160.14 155.8,-148.34 146.09,-138.8"/>
<polygon fill="midnightblue" stroke="midnightblue" points="148.5,-136.26 138.91,-131.75 143.6,-141.25 148.5,-136.26"/>
</g>
<!-- Node12&#45;&gt;Node3 -->
<g id="edge20" class="edge">
<title>Node12&#45;&gt;Node3</title>
<path fill="none" stroke="midnightblue" d="M194.48,-168.32C203.2,-160.34 216.34,-148.31 226.9,-138.65"/>
<polygon fill="midnightblue" stroke="midnightblue" points="229.33,-141.17 234.35,-131.83 224.61,-136 229.33,-141.17"/>
</g>
<!-- Node13&#45;&gt;Node7 -->
<g id="edge26" class="edge">
<title>Node13&#45;&gt;Node7</title>
<path fill="none" stroke="midnightblue" d="M494.65,-168.4C486.3,-155.35 469.22,-130.15 451,-112 415.42,-76.55 366.88,-43.24 338.74,-25.13"/>
<polygon fill="midnightblue" stroke="midnightblue" points="340.35,-22.01 330.03,-19.6 336.59,-27.91 340.35,-22.01"/>
</g>
<!-- Node13&#45;&gt;Node10 -->
<g id="edge25" class="edge">
<title>Node13&#45;&gt;Node10</title>
<path fill="none" stroke="midnightblue" d="M485.86,-168.32C472.13,-159.9 451.06,-146.97 434.94,-137.07"/>
<polygon fill="midnightblue" stroke="midnightblue" points="436.46,-133.9 426.1,-131.65 432.8,-139.87 436.46,-133.9"/>
</g>
<!-- Node14 -->
<g id="node14" class="node">
<title>Node14</title>
<g id="a_node14"><a xlink:href="ttype_8hpp.html" target="_top" xlink:title=" ">
<polygon fill="white" stroke="black" points="498.5,-112.5 498.5,-131.5 561.5,-131.5 561.5,-112.5 498.5,-112.5"/>
<text text-anchor="middle" x="530" y="-119.5" font-family="Helvetica,sans-Serif" font-size="10.00">../ttype.hpp</text>
</a>
</g>
</g>
<!-- Node13&#45;&gt;Node14 -->
<g id="edge23" class="edge">
<title>Node13&#45;&gt;Node14</title>
<path fill="none" stroke="midnightblue" d="M504.95,-168.08C509.1,-160.61 515.15,-149.72 520.27,-140.52"/>
<polygon fill="midnightblue" stroke="midnightblue" points="523.34,-142.19 525.14,-131.75 517.22,-138.79 523.34,-142.19"/>
</g>
<!-- Node15 -->
<g id="node15" class="node">
<title>Node15</title>
<g id="a_node15"><a xlink:title=" ">
<polygon fill="white" stroke="#bfbfbf" points="579.5,-112.5 579.5,-131.5 624.5,-131.5 624.5,-112.5 579.5,-112.5"/>
<text text-anchor="middle" x="602" y="-119.5" font-family="Helvetica,sans-Serif" font-size="10.00">cstdlib</text>
</a>
</g>
</g>
<!-- Node13&#45;&gt;Node15 -->
<g id="edge24" class="edge">
<title>Node13&#45;&gt;Node15</title>
<path fill="none" stroke="midnightblue" d="M516.39,-168.32C532.67,-159.7 557.87,-146.36 576.72,-136.39"/>
<polygon fill="midnightblue" stroke="midnightblue" points="578.45,-139.43 585.65,-131.65 575.18,-133.24 578.45,-139.43"/>
</g>
<!-- Node16 -->
<g id="node16" class="node">
<title>Node16</title>
<g id="a_node16"><a xlink:title=" ">
<polygon fill="white" stroke="#bfbfbf" points="643,-112.5 643,-131.5 705,-131.5 705,-112.5 643,-112.5"/>
<text text-anchor="middle" x="674" y="-119.5" font-family="Helvetica,sans-Serif" font-size="10.00">type_traits</text>
</a>
</g>
</g>
<!-- Node13&#45;&gt;Node16 -->
<g id="edge27" class="edge">
<title>Node13&#45;&gt;Node16</title>
<path fill="none" stroke="midnightblue" d="M527.57,-168.44C557.1,-159.28 604.12,-144.69 636.88,-134.52"/>
<polygon fill="midnightblue" stroke="midnightblue" points="638.04,-137.82 646.56,-131.52 635.97,-131.14 638.04,-137.82"/>
</g>
</g>
</svg>
