<?xml version="1.0" encoding="UTF-8" standalone="no"?>
<!DOCTYPE svg PUBLIC "-//W3C//DTD SVG 1.1//EN"
 "http://www.w3.org/Graphics/SVG/1.1/DTD/svg11.dtd">
<!-- Generated by graphviz version 2.44.0 (0)
 -->
<!-- Title: TravellersApp/src/parser/Token.hpp Pages: 1 -->
<svg width="1030pt" height="508pt"
 viewBox="0.00 0.00 1029.50 508.00" xmlns="http://www.w3.org/2000/svg" xmlns:xlink="http://www.w3.org/1999/xlink">
<g id="graph0" class="graph" transform="scale(1 1) rotate(0) translate(4 504)">
<title>TravellersApp/src/parser/Token.hpp</title>
<polygon fill="white" stroke="transparent" points="-4,4 -4,-504 1025.5,-504 1025.5,4 -4,4"/>
<!-- Node1 -->
<g id="node1" class="node">
<title>Node1</title>
<g id="a_node1"><a xlink:title=" ">
<polygon fill="#bfbfbf" stroke="black" points="609.5,-469.5 609.5,-499.5 732.5,-499.5 732.5,-469.5 609.5,-469.5"/>
<text text-anchor="start" x="617.5" y="-487.5" font-family="Helvetica,sans-Serif" font-size="10.00">TravellersApp/src/parser</text>
<text text-anchor="middle" x="671" y="-476.5" font-family="Helvetica,sans-Serif" font-size="10.00">/Token.hpp</text>
</a>
</g>
</g>
<!-- Node2 -->
<g id="node2" class="node">
<title>Node2</title>
<g id="a_node2"><a xlink:href="CommandList_8hpp.html" target="_top" xlink:title=" ">
<polygon fill="white" stroke="black" points="552.5,-402.5 552.5,-432.5 675.5,-432.5 675.5,-402.5 552.5,-402.5"/>
<text text-anchor="start" x="560.5" y="-420.5" font-family="Helvetica,sans-Serif" font-size="10.00">TravellersApp/src/parser</text>
<text text-anchor="middle" x="614" y="-409.5" font-family="Helvetica,sans-Serif" font-size="10.00">/CommandList.hpp</text>
</a>
</g>
</g>
<!-- Node1&#45;&gt;Node2 -->
<g id="edge1" class="edge">
<title>Node1&#45;&gt;Node2</title>
<path fill="none" stroke="midnightblue" d="M651.91,-461.74C643.48,-452.12 633.81,-441.09 626.34,-432.58"/>
<polygon fill="midnightblue" stroke="midnightblue" points="649.41,-464.18 658.63,-469.4 654.67,-459.57 649.41,-464.18"/>
</g>
<!-- Node3 -->
<g id="node3" class="node">
<title>Node3</title>
<g id="a_node3"><a xlink:href="Scanner_8hpp.html" target="_top" xlink:title=" ">
<polygon fill="white" stroke="black" points="264.5,-335.5 264.5,-365.5 387.5,-365.5 387.5,-335.5 264.5,-335.5"/>
<text text-anchor="start" x="272.5" y="-353.5" font-family="Helvetica,sans-Serif" font-size="10.00">TravellersApp/src/parser</text>
<text text-anchor="middle" x="326" y="-342.5" font-family="Helvetica,sans-Serif" font-size="10.00">/Scanner.hpp</text>
</a>
</g>
</g>
<!-- Node1&#45;&gt;Node3 -->
<g id="edge31" class="edge">
<title>Node1&#45;&gt;Node3</title>
<path fill="none" stroke="midnightblue" d="M625.05,-465.92C555.81,-439.43 426.11,-389.8 362.74,-365.56"/>
<polygon fill="midnightblue" stroke="midnightblue" points="623.82,-469.19 634.41,-469.5 626.32,-462.66 623.82,-469.19"/>
</g>
<!-- Node5 -->
<g id="node5" class="node">
<title>Node5</title>
<g id="a_node5"><a xlink:href="main_8cpp.html" target="_top" xlink:title=" ">
<polygon fill="white" stroke="black" points="46.5,-6 46.5,-25 181.5,-25 181.5,-6 46.5,-6"/>
<text text-anchor="middle" x="114" y="-13" font-family="Helvetica,sans-Serif" font-size="10.00">TravellersApp/src/main.cpp</text>
</a>
</g>
</g>
<!-- Node1&#45;&gt;Node5 -->
<g id="edge35" class="edge">
<title>Node1&#45;&gt;Node5</title>
<path fill="none" stroke="midnightblue" d="M599.34,-484.36C426.34,-484.53 0,-472.64 0,-351.5 0,-351.5 0,-351.5 0,-148.5 0,-89.15 66.82,-43.3 98.15,-25.07"/>
<polygon fill="midnightblue" stroke="midnightblue" points="599.38,-487.86 609.38,-484.34 599.37,-480.86 599.38,-487.86"/>
</g>
<!-- Node8 -->
<g id="node8" class="node">
<title>Node8</title>
<g id="a_node8"><a xlink:href="HTLInterpreter_8hpp.html" target="_top" xlink:title=" ">
<polygon fill="white" stroke="black" points="552.5,-67.5 552.5,-97.5 675.5,-97.5 675.5,-67.5 552.5,-67.5"/>
<text text-anchor="start" x="560.5" y="-85.5" font-family="Helvetica,sans-Serif" font-size="10.00">TravellersApp/src/parser</text>
<text text-anchor="middle" x="614" y="-74.5" font-family="Helvetica,sans-Serif" font-size="10.00">/HTLInterpreter.hpp</text>
</a>
</g>
</g>
<!-- Node1&#45;&gt;Node8 -->
<g id="edge33" class="edge">
<title>Node1&#45;&gt;Node8</title>
<path fill="none" stroke="midnightblue" d="M679.11,-459.38C681.51,-451.12 683.81,-441.75 685,-433 686.86,-419.35 686.44,-415.7 685,-402 672.41,-282.27 631.8,-141.86 618.36,-97.59"/>
<polygon fill="midnightblue" stroke="midnightblue" points="675.71,-458.54 676.1,-469.13 682.4,-460.61 675.71,-458.54"/>
</g>
<!-- Node10 -->
<g id="node10" class="node">
<title>Node10</title>
<g id="a_node10"><a xlink:href="LoginInterpreter_8hpp.html" target="_top" xlink:title=" ">
<polygon fill="white" stroke="black" points="231.5,-67.5 231.5,-97.5 354.5,-97.5 354.5,-67.5 231.5,-67.5"/>
<text text-anchor="start" x="239.5" y="-85.5" font-family="Helvetica,sans-Serif" font-size="10.00">TravellersApp/src/parser</text>
<text text-anchor="middle" x="293" y="-74.5" font-family="Helvetica,sans-Serif" font-size="10.00">/LoginInterpreter.hpp</text>
</a>
</g>
</g>
<!-- Node1&#45;&gt;Node10 -->
<g id="edge34" class="edge">
<title>Node1&#45;&gt;Node10</title>
<path fill="none" stroke="midnightblue" d="M599.17,-482.53C440.88,-478.46 76,-457.56 76,-351.5 76,-351.5 76,-351.5 76,-282.5 76,-186.15 193.65,-123.79 255.7,-97.61"/>
<polygon fill="midnightblue" stroke="midnightblue" points="599.21,-486.03 609.29,-482.78 599.37,-479.04 599.21,-486.03"/>
</g>
<!-- Node12 -->
<g id="node12" class="node">
<title>Node12</title>
<g id="a_node12"><a xlink:href="VisitInterpreter_8hpp.html" target="_top" xlink:title=" ">
<polygon fill="white" stroke="black" points="834.5,-67.5 834.5,-97.5 957.5,-97.5 957.5,-67.5 834.5,-67.5"/>
<text text-anchor="start" x="842.5" y="-85.5" font-family="Helvetica,sans-Serif" font-size="10.00">TravellersApp/src/parser</text>
<text text-anchor="middle" x="896" y="-74.5" font-family="Helvetica,sans-Serif" font-size="10.00">/VisitInterpreter.hpp</text>
</a>
</g>
</g>
<!-- Node1&#45;&gt;Node12 -->
<g id="edge36" class="edge">
<title>Node1&#45;&gt;Node12</title>
<path fill="none" stroke="midnightblue" d="M742.36,-467.2C799.45,-449.43 870,-414.7 870,-351.5 870,-351.5 870,-351.5 870,-215.5 870,-171.82 883.87,-121.52 891.35,-97.58"/>
<polygon fill="midnightblue" stroke="midnightblue" points="741.18,-463.9 732.6,-470.11 743.19,-470.6 741.18,-463.9"/>
</g>
<!-- Node17 -->
<g id="node17" class="node">
<title>Node17</title>
<g id="a_node17"><a xlink:href="Interpreter_8hpp.html" target="_top" xlink:title=" ">
<polygon fill="white" stroke="black" points="680.5,-134.5 680.5,-164.5 803.5,-164.5 803.5,-134.5 680.5,-134.5"/>
<text text-anchor="start" x="688.5" y="-152.5" font-family="Helvetica,sans-Serif" font-size="10.00">TravellersApp/src/parser</text>
<text text-anchor="middle" x="742" y="-141.5" font-family="Helvetica,sans-Serif" font-size="10.00">/Interpreter.hpp</text>
</a>
</g>
</g>
<!-- Node1&#45;&gt;Node17 -->
<g id="edge32" class="edge">
<title>Node1&#45;&gt;Node17</title>
<path fill="none" stroke="midnightblue" d="M707.96,-463.96C720.31,-455.84 733.17,-445.39 742,-433 763.92,-402.26 766,-389.26 766,-351.5 766,-351.5 766,-351.5 766,-282.5 766,-238.94 753.19,-188.59 746.29,-164.61"/>
<polygon fill="midnightblue" stroke="midnightblue" points="705.77,-461.2 699.12,-469.46 709.46,-467.15 705.77,-461.2"/>
</g>
<!-- Node20 -->
<g id="node20" class="node">
<title>Node20</title>
<g id="a_node20"><a xlink:href="Token_8cpp.html" target="_top" xlink:title=" ">
<polygon fill="white" stroke="black" points="898.5,-402.5 898.5,-432.5 1021.5,-432.5 1021.5,-402.5 898.5,-402.5"/>
<text text-anchor="start" x="906.5" y="-420.5" font-family="Helvetica,sans-Serif" font-size="10.00">TravellersApp/src/parser</text>
<text text-anchor="middle" x="960" y="-409.5" font-family="Helvetica,sans-Serif" font-size="10.00">/Token.cpp</text>
</a>
</g>
</g>
<!-- Node1&#45;&gt;Node20 -->
<g id="edge37" class="edge">
<title>Node1&#45;&gt;Node20</title>
<path fill="none" stroke="midnightblue" d="M742.63,-467.39C790.5,-456.62 852.82,-442.61 898.45,-432.34"/>
<polygon fill="midnightblue" stroke="midnightblue" points="741.63,-464.03 732.64,-469.64 743.17,-470.86 741.63,-464.03"/>
</g>
<!-- Node2&#45;&gt;Node3 -->
<g id="edge2" class="edge">
<title>Node2&#45;&gt;Node3</title>
<path fill="none" stroke="midnightblue" d="M542.3,-400.32C494.76,-389.59 433.02,-375.65 387.68,-365.42"/>
<polygon fill="midnightblue" stroke="midnightblue" points="541.69,-403.77 552.22,-402.56 543.23,-396.94 541.69,-403.77"/>
</g>
<!-- Node2&#45;&gt;Node8 -->
<g id="edge22" class="edge">
<title>Node2&#45;&gt;Node8</title>
<path fill="none" stroke="midnightblue" d="M614,-391.99C614,-365.49 614,-322 614,-284.5 614,-284.5 614,-284.5 614,-215.5 614,-172.65 614,-121.97 614,-97.76"/>
<polygon fill="midnightblue" stroke="midnightblue" points="610.5,-392.24 614,-402.24 617.5,-392.24 610.5,-392.24"/>
</g>
<!-- Node2&#45;&gt;Node10 -->
<g id="edge28" class="edge">
<title>Node2&#45;&gt;Node10</title>
<path fill="none" stroke="midnightblue" d="M542.49,-403.92C512.94,-396.32 479.47,-384.41 453,-366 407.75,-334.54 418.74,-304 377,-268 352.29,-246.68 331.32,-259.01 313,-232 284.52,-190.02 287.82,-125.83 291.01,-97.63"/>
<polygon fill="midnightblue" stroke="midnightblue" points="541.81,-407.36 552.35,-406.34 543.47,-400.56 541.81,-407.36"/>
</g>
<!-- Node2&#45;&gt;Node12 -->
<g id="edge30" class="edge">
<title>Node2&#45;&gt;Node12</title>
<path fill="none" stroke="midnightblue" d="M634.69,-394.8C642.98,-385.97 652.55,-375.6 661,-366 749.72,-265.19 851.43,-139.16 884.78,-97.55"/>
<polygon fill="midnightblue" stroke="midnightblue" points="632.11,-392.44 627.79,-402.11 637.2,-397.24 632.11,-392.44"/>
</g>
<!-- Node2&#45;&gt;Node17 -->
<g id="edge23" class="edge">
<title>Node2&#45;&gt;Node17</title>
<path fill="none" stroke="midnightblue" d="M625.27,-393.08C651.19,-339.2 714.43,-207.79 735.24,-164.55"/>
<polygon fill="midnightblue" stroke="midnightblue" points="622.06,-391.67 620.88,-402.2 628.37,-394.71 622.06,-391.67"/>
</g>
<!-- Node19 -->
<g id="node19" class="node">
<title>Node19</title>
<g id="a_node19"><a xlink:href="CommandList_8cpp.html" target="_top" xlink:title=" ">
<polygon fill="white" stroke="black" points="462.5,-335.5 462.5,-365.5 585.5,-365.5 585.5,-335.5 462.5,-335.5"/>
<text text-anchor="start" x="470.5" y="-353.5" font-family="Helvetica,sans-Serif" font-size="10.00">TravellersApp/src/parser</text>
<text text-anchor="middle" x="524" y="-342.5" font-family="Helvetica,sans-Serif" font-size="10.00">/CommandList.cpp</text>
</a>
</g>
</g>
<!-- Node2&#45;&gt;Node19 -->
<g id="edge29" class="edge">
<title>Node2&#45;&gt;Node19</title>
<path fill="none" stroke="midnightblue" d="M586.24,-396.45C572.39,-386.45 555.98,-374.6 543.49,-365.58"/>
<polygon fill="midnightblue" stroke="midnightblue" points="584.32,-399.38 594.47,-402.4 588.41,-393.7 584.32,-399.38"/>
</g>
<!-- Node4 -->
<g id="node4" class="node">
<title>Node4</title>
<g id="a_node4"><a xlink:href="CSV_8hpp.html" target="_top" xlink:title=" ">
<polygon fill="white" stroke="black" points="245.5,-268.5 245.5,-298.5 368.5,-298.5 368.5,-268.5 245.5,-268.5"/>
<text text-anchor="start" x="253.5" y="-286.5" font-family="Helvetica,sans-Serif" font-size="10.00">TravellersApp/src/parser</text>
<text text-anchor="middle" x="307" y="-275.5" font-family="Helvetica,sans-Serif" font-size="10.00">/CSV.hpp</text>
</a>
</g>
</g>
<!-- Node3&#45;&gt;Node4 -->
<g id="edge3" class="edge">
<title>Node3&#45;&gt;Node4</title>
<path fill="none" stroke="midnightblue" d="M319.04,-325.7C316.38,-316.59 313.43,-306.49 311.11,-298.58"/>
<polygon fill="midnightblue" stroke="midnightblue" points="315.71,-326.78 321.88,-335.4 322.43,-324.82 315.71,-326.78"/>
</g>
<!-- Node3&#45;&gt;Node5 -->
<g id="edge19" class="edge">
<title>Node3&#45;&gt;Node5</title>
<path fill="none" stroke="midnightblue" d="M254.05,-346.81C168.75,-339.32 38,-312.37 38,-217.5 38,-217.5 38,-217.5 38,-148.5 38,-95.61 84.39,-44.8 104.68,-25.09"/>
<polygon fill="midnightblue" stroke="midnightblue" points="253.97,-350.32 264.22,-347.63 254.53,-343.34 253.97,-350.32"/>
</g>
<!-- Node9 -->
<g id="node9" class="node">
<title>Node9</title>
<g id="a_node9"><a xlink:href="HTLInterpreter_8cpp.html" target="_top" xlink:title=" ">
<polygon fill="white" stroke="black" points="552.5,-0.5 552.5,-30.5 675.5,-30.5 675.5,-0.5 552.5,-0.5"/>
<text text-anchor="start" x="560.5" y="-18.5" font-family="Helvetica,sans-Serif" font-size="10.00">TravellersApp/src/parser</text>
<text text-anchor="middle" x="614" y="-7.5" font-family="Helvetica,sans-Serif" font-size="10.00">/HTLInterpreter.cpp</text>
</a>
</g>
</g>
<!-- Node3&#45;&gt;Node9 -->
<g id="edge20" class="edge">
<title>Node3&#45;&gt;Node9</title>
<path fill="none" stroke="midnightblue" d="M362.77,-330.32C398.11,-310.18 450.77,-275.41 483,-232 529.51,-169.34 495.74,-129.09 543,-67 554.54,-51.83 571.92,-39.36 586.6,-30.61"/>
<polygon fill="midnightblue" stroke="midnightblue" points="360.76,-327.44 353.74,-335.37 364.18,-333.55 360.76,-327.44"/>
</g>
<!-- Node16 -->
<g id="node16" class="node">
<title>Node16</title>
<g id="a_node16"><a xlink:href="Scanner_8cpp.html" target="_top" xlink:title=" ">
<polygon fill="white" stroke="black" points="104.5,-268.5 104.5,-298.5 227.5,-298.5 227.5,-268.5 104.5,-268.5"/>
<text text-anchor="start" x="112.5" y="-286.5" font-family="Helvetica,sans-Serif" font-size="10.00">TravellersApp/src/parser</text>
<text text-anchor="middle" x="166" y="-275.5" font-family="Helvetica,sans-Serif" font-size="10.00">/Scanner.cpp</text>
</a>
</g>
</g>
<!-- Node3&#45;&gt;Node16 -->
<g id="edge21" class="edge">
<title>Node3&#45;&gt;Node16</title>
<path fill="none" stroke="midnightblue" d="M281.8,-331.54C256.2,-321.14 224.43,-308.24 200.65,-298.58"/>
<polygon fill="midnightblue" stroke="midnightblue" points="280.7,-334.87 291.28,-335.4 283.34,-328.39 280.7,-334.87"/>
</g>
<!-- Node4&#45;&gt;Node5 -->
<g id="edge4" class="edge">
<title>Node4&#45;&gt;Node5</title>
<path fill="none" stroke="midnightblue" d="M236.71,-266.08C191.53,-254.85 140,-240.52 133,-232 81,-168.76 103.78,-56.95 111.69,-25.15"/>
<polygon fill="midnightblue" stroke="midnightblue" points="235.99,-269.51 246.53,-268.5 237.66,-262.71 235.99,-269.51"/>
</g>
<!-- Node6 -->
<g id="node6" class="node">
<title>Node6</title>
<g id="a_node6"><a xlink:href="User_8hpp.html" target="_top" xlink:title=" ">
<polygon fill="white" stroke="black" points="322.5,-207 322.5,-226 457.5,-226 457.5,-207 322.5,-207"/>
<text text-anchor="middle" x="390" y="-214" font-family="Helvetica,sans-Serif" font-size="10.00">TravellersApp/src/User.hpp</text>
</a>
</g>
</g>
<!-- Node4&#45;&gt;Node6 -->
<g id="edge5" class="edge">
<title>Node4&#45;&gt;Node6</title>
<path fill="none" stroke="midnightblue" d="M333.17,-262.01C348.58,-249.94 367.26,-235.3 378.9,-226.19"/>
<polygon fill="midnightblue" stroke="midnightblue" points="330.72,-259.47 325.01,-268.4 335.04,-264.99 330.72,-259.47"/>
</g>
<!-- Node7 -->
<g id="node7" class="node">
<title>Node7</title>
<g id="a_node7"><a xlink:href="TravelState_8hpp.html" target="_top" xlink:title=" ">
<polygon fill="white" stroke="black" points="372.5,-134.5 372.5,-164.5 495.5,-164.5 495.5,-134.5 372.5,-134.5"/>
<text text-anchor="start" x="380.5" y="-152.5" font-family="Helvetica,sans-Serif" font-size="10.00">TravellersApp/src/Travel</text>
<text text-anchor="middle" x="434" y="-141.5" font-family="Helvetica,sans-Serif" font-size="10.00">State.hpp</text>
</a>
</g>
</g>
<!-- Node4&#45;&gt;Node7 -->
<g id="edge17" class="edge">
<title>Node4&#45;&gt;Node7</title>
<path fill="none" stroke="midnightblue" d="M378.64,-268.39C415.55,-259.51 455.09,-246.91 466,-232 481.35,-211.02 461.91,-181.71 447.32,-164.55"/>
<polygon fill="midnightblue" stroke="midnightblue" points="377.77,-264.99 368.83,-270.68 379.36,-271.81 377.77,-264.99"/>
</g>
<!-- Node15 -->
<g id="node15" class="node">
<title>Node15</title>
<g id="a_node15"><a xlink:href="CSV_8cpp.html" target="_top" xlink:title=" ">
<polygon fill="white" stroke="black" points="142.5,-201.5 142.5,-231.5 265.5,-231.5 265.5,-201.5 142.5,-201.5"/>
<text text-anchor="start" x="150.5" y="-219.5" font-family="Helvetica,sans-Serif" font-size="10.00">TravellersApp/src/parser</text>
<text text-anchor="middle" x="204" y="-208.5" font-family="Helvetica,sans-Serif" font-size="10.00">/CSV.cpp</text>
</a>
</g>
</g>
<!-- Node4&#45;&gt;Node15 -->
<g id="edge18" class="edge">
<title>Node4&#45;&gt;Node15</title>
<path fill="none" stroke="midnightblue" d="M276.12,-263.02C260.1,-252.9 240.87,-240.77 226.31,-231.58"/>
<polygon fill="midnightblue" stroke="midnightblue" points="274.33,-266.02 284.65,-268.4 278.06,-260.1 274.33,-266.02"/>
</g>
<!-- Node6&#45;&gt;Node7 -->
<g id="edge6" class="edge">
<title>Node6&#45;&gt;Node7</title>
<path fill="none" stroke="midnightblue" d="M401.61,-198.35C408.73,-187.82 417.75,-174.5 424.46,-164.59"/>
<polygon fill="midnightblue" stroke="midnightblue" points="398.64,-196.49 395.93,-206.73 404.44,-200.41 398.64,-196.49"/>
</g>
<!-- Node7&#45;&gt;Node8 -->
<g id="edge7" class="edge">
<title>Node7&#45;&gt;Node8</title>
<path fill="none" stroke="midnightblue" d="M482.59,-130.96C511.58,-120.48 547.91,-107.37 575.02,-97.58"/>
<polygon fill="midnightblue" stroke="midnightblue" points="481.27,-127.71 473.06,-134.4 483.65,-134.29 481.27,-127.71"/>
</g>
<!-- Node7&#45;&gt;Node10 -->
<g id="edge10" class="edge">
<title>Node7&#45;&gt;Node10</title>
<path fill="none" stroke="midnightblue" d="M394.15,-130.13C371.75,-119.8 344.22,-107.11 323.54,-97.58"/>
<polygon fill="midnightblue" stroke="midnightblue" points="392.86,-133.39 403.41,-134.4 395.79,-127.03 392.86,-133.39"/>
</g>
<!-- Node7&#45;&gt;Node12 -->
<g id="edge13" class="edge">
<title>Node7&#45;&gt;Node12</title>
<path fill="none" stroke="midnightblue" d="M505.96,-140.89C584.77,-132.18 714.77,-116.66 826,-98 828.69,-97.55 831.44,-97.07 834.21,-96.57"/>
<polygon fill="midnightblue" stroke="midnightblue" points="505.22,-137.45 495.66,-142.03 505.98,-144.41 505.22,-137.45"/>
</g>
<!-- Node14 -->
<g id="node14" class="node">
<title>Node14</title>
<g id="a_node14"><a xlink:href="TravelState_8cpp.html" target="_top" xlink:title=" ">
<polygon fill="white" stroke="black" points="372.5,-67.5 372.5,-97.5 495.5,-97.5 495.5,-67.5 372.5,-67.5"/>
<text text-anchor="start" x="380.5" y="-85.5" font-family="Helvetica,sans-Serif" font-size="10.00">TravellersApp/src/Travel</text>
<text text-anchor="middle" x="434" y="-74.5" font-family="Helvetica,sans-Serif" font-size="10.00">State.cpp</text>
</a>
</g>
</g>
<!-- Node7&#45;&gt;Node14 -->
<g id="edge16" class="edge">
<title>Node7&#45;&gt;Node14</title>
<path fill="none" stroke="midnightblue" d="M434,-124.11C434,-115.15 434,-105.32 434,-97.58"/>
<polygon fill="midnightblue" stroke="midnightblue" points="430.5,-124.4 434,-134.4 437.5,-124.4 430.5,-124.4"/>
</g>
<!-- Node8&#45;&gt;Node5 -->
<g id="edge8" class="edge">
<title>Node8&#45;&gt;Node5</title>
<path fill="none" stroke="midnightblue" d="M542.23,-72C529.5,-70.32 516.36,-68.6 504,-67 378.7,-50.74 347.28,-47.41 222,-31 207.37,-29.08 191.63,-26.99 176.81,-25"/>
<polygon fill="midnightblue" stroke="midnightblue" points="541.97,-75.49 552.34,-73.33 542.88,-68.55 541.97,-75.49"/>
</g>
<!-- Node8&#45;&gt;Node9 -->
<g id="edge9" class="edge">
<title>Node8&#45;&gt;Node9</title>
<path fill="none" stroke="midnightblue" d="M614,-57.11C614,-48.15 614,-38.32 614,-30.58"/>
<polygon fill="midnightblue" stroke="midnightblue" points="610.5,-57.4 614,-67.4 617.5,-57.4 610.5,-57.4"/>
</g>
<!-- Node10&#45;&gt;Node5 -->
<g id="edge11" class="edge">
<title>Node10&#45;&gt;Node5</title>
<path fill="none" stroke="midnightblue" d="M244.66,-63.95C209.89,-51.32 164.53,-34.85 137.43,-25.01"/>
<polygon fill="midnightblue" stroke="midnightblue" points="243.57,-67.27 254.16,-67.4 245.95,-60.69 243.57,-67.27"/>
</g>
<!-- Node11 -->
<g id="node11" class="node">
<title>Node11</title>
<g id="a_node11"><a xlink:href="LoginInterpreter_8cpp.html" target="_top" xlink:title=" ">
<polygon fill="white" stroke="black" points="231.5,-0.5 231.5,-30.5 354.5,-30.5 354.5,-0.5 231.5,-0.5"/>
<text text-anchor="start" x="239.5" y="-18.5" font-family="Helvetica,sans-Serif" font-size="10.00">TravellersApp/src/parser</text>
<text text-anchor="middle" x="293" y="-7.5" font-family="Helvetica,sans-Serif" font-size="10.00">/LoginInterpreter.cpp</text>
</a>
</g>
</g>
<!-- Node10&#45;&gt;Node11 -->
<g id="edge12" class="edge">
<title>Node10&#45;&gt;Node11</title>
<path fill="none" stroke="midnightblue" d="M293,-57.11C293,-48.15 293,-38.32 293,-30.58"/>
<polygon fill="midnightblue" stroke="midnightblue" points="289.5,-57.4 293,-67.4 296.5,-57.4 289.5,-57.4"/>
</g>
<!-- Node12&#45;&gt;Node9 -->
<g id="edge14" class="edge">
<title>Node12&#45;&gt;Node9</title>
<path fill="none" stroke="midnightblue" d="M825.22,-65.19C779.04,-54.54 719.36,-40.78 675.22,-30.61"/>
<polygon fill="midnightblue" stroke="midnightblue" points="824.63,-68.64 835.16,-67.48 826.2,-61.82 824.63,-68.64"/>
</g>
<!-- Node13 -->
<g id="node13" class="node">
<title>Node13</title>
<g id="a_node13"><a xlink:href="VisitInterpreter_8cpp.html" target="_top" xlink:title=" ">
<polygon fill="white" stroke="black" points="834.5,-0.5 834.5,-30.5 957.5,-30.5 957.5,-0.5 834.5,-0.5"/>
<text text-anchor="start" x="842.5" y="-18.5" font-family="Helvetica,sans-Serif" font-size="10.00">TravellersApp/src/parser</text>
<text text-anchor="middle" x="896" y="-7.5" font-family="Helvetica,sans-Serif" font-size="10.00">/VisitInterpreter.cpp</text>
</a>
</g>
</g>
<!-- Node12&#45;&gt;Node13 -->
<g id="edge15" class="edge">
<title>Node12&#45;&gt;Node13</title>
<path fill="none" stroke="midnightblue" d="M896,-57.11C896,-48.15 896,-38.32 896,-30.58"/>
<polygon fill="midnightblue" stroke="midnightblue" points="892.5,-57.4 896,-67.4 899.5,-57.4 892.5,-57.4"/>
</g>
<!-- Node17&#45;&gt;Node8 -->
<g id="edge24" class="edge">
<title>Node17&#45;&gt;Node8</title>
<path fill="none" stroke="midnightblue" d="M705.28,-129.85C685.04,-119.58 660.33,-107.03 641.72,-97.58"/>
<polygon fill="midnightblue" stroke="midnightblue" points="703.72,-132.99 714.23,-134.4 706.89,-126.75 703.72,-132.99"/>
</g>
<!-- Node17&#45;&gt;Node10 -->
<g id="edge25" class="edge">
<title>Node17&#45;&gt;Node10</title>
<path fill="none" stroke="midnightblue" d="M670.43,-140.52C594.05,-131.63 469.63,-116.12 363,-98 360.31,-97.54 357.56,-97.06 354.79,-96.55"/>
<polygon fill="midnightblue" stroke="midnightblue" points="670.08,-144 680.42,-141.67 670.89,-137.05 670.08,-144"/>
</g>
<!-- Node17&#45;&gt;Node12 -->
<g id="edge26" class="edge">
<title>Node17&#45;&gt;Node12</title>
<path fill="none" stroke="midnightblue" d="M784.87,-130.41C809.45,-120.03 839.86,-107.2 862.65,-97.58"/>
<polygon fill="midnightblue" stroke="midnightblue" points="783.27,-127.28 775.42,-134.4 785.99,-133.73 783.27,-127.28"/>
</g>
<!-- Node18 -->
<g id="node18" class="node">
<title>Node18</title>
<g id="a_node18"><a xlink:href="Interpreter_8cpp.html" target="_top" xlink:title=" ">
<polygon fill="white" stroke="black" points="693.5,-67.5 693.5,-97.5 816.5,-97.5 816.5,-67.5 693.5,-67.5"/>
<text text-anchor="start" x="701.5" y="-85.5" font-family="Helvetica,sans-Serif" font-size="10.00">TravellersApp/src/parser</text>
<text text-anchor="middle" x="755" y="-74.5" font-family="Helvetica,sans-Serif" font-size="10.00">/Interpreter.cpp</text>
</a>
</g>
</g>
<!-- Node17&#45;&gt;Node18 -->
<g id="edge27" class="edge">
<title>Node17&#45;&gt;Node18</title>
<path fill="none" stroke="midnightblue" d="M746.82,-124.4C748.63,-115.37 750.62,-105.41 752.18,-97.58"/>
<polygon fill="midnightblue" stroke="midnightblue" points="743.35,-123.9 744.82,-134.4 750.21,-125.28 743.35,-123.9"/>
</g>
</g>
</svg>
