<?xml version="1.0" encoding="UTF-8" standalone="no"?>
<!DOCTYPE svg PUBLIC "-//W3C//DTD SVG 1.1//EN"
 "http://www.w3.org/Graphics/SVG/1.1/DTD/svg11.dtd">
<!-- Generated by graphviz version 2.44.0 (0)
 -->
<!-- Title: TravellersApp/src/parser/Token.cpp Pages: 1 -->
<svg width="258pt" height="151pt"
 viewBox="0.00 0.00 258.00 151.00" xmlns="http://www.w3.org/2000/svg" xmlns:xlink="http://www.w3.org/1999/xlink">
<g id="graph0" class="graph" transform="scale(1 1) rotate(0) translate(4 147)">
<title>TravellersApp/src/parser/Token.cpp</title>
<polygon fill="white" stroke="transparent" points="-4,4 -4,-147 254,-147 254,4 -4,4"/>
<!-- Node1 -->
<g id="node1" class="node">
<title>Node1</title>
<g id="a_node1"><a xlink:title=" ">
<polygon fill="#bfbfbf" stroke="black" points="59.5,-112.5 59.5,-142.5 182.5,-142.5 182.5,-112.5 59.5,-112.5"/>
<text text-anchor="start" x="67.5" y="-130.5" font-family="Helvetica,sans-Serif" font-size="10.00">TravellersApp/src/parser</text>
<text text-anchor="middle" x="121" y="-119.5" font-family="Helvetica,sans-Serif" font-size="10.00">/Token.cpp</text>
</a>
</g>
</g>
<!-- Node2 -->
<g id="node2" class="node">
<title>Node2</title>
<g id="a_node2"><a xlink:href="Token_8hpp.html" target="_top" xlink:title=" ">
<polygon fill="white" stroke="black" points="0,-56.5 0,-75.5 62,-75.5 62,-56.5 0,-56.5"/>
<text text-anchor="middle" x="31" y="-63.5" font-family="Helvetica,sans-Serif" font-size="10.00">Token.hpp</text>
</a>
</g>
</g>
<!-- Node1&#45;&gt;Node2 -->
<g id="edge1" class="edge">
<title>Node1&#45;&gt;Node2</title>
<path fill="none" stroke="midnightblue" d="M99.67,-112.4C85.51,-103.04 66.99,-90.79 52.75,-81.38"/>
<polygon fill="midnightblue" stroke="midnightblue" points="54.37,-78.25 44.1,-75.66 50.51,-84.09 54.37,-78.25"/>
</g>
<!-- Node3 -->
<g id="node3" class="node">
<title>Node3</title>
<g id="a_node3"><a xlink:title=" ">
<polygon fill="white" stroke="#bfbfbf" points="33,-0.5 33,-19.5 87,-19.5 87,-0.5 33,-0.5"/>
<text text-anchor="middle" x="60" y="-7.5" font-family="Helvetica,sans-Serif" font-size="10.00">iostream</text>
</a>
</g>
</g>
<!-- Node1&#45;&gt;Node3 -->
<g id="edge5" class="edge">
<title>Node1&#45;&gt;Node3</title>
<path fill="none" stroke="midnightblue" d="M113.52,-112.34C102.38,-91.24 81.44,-51.6 69.32,-28.65"/>
<polygon fill="midnightblue" stroke="midnightblue" points="72.34,-26.88 64.58,-19.67 66.15,-30.15 72.34,-26.88"/>
</g>
<!-- Node4 -->
<g id="node4" class="node">
<title>Node4</title>
<g id="a_node4"><a xlink:href="debug_8hpp.html" target="_top" xlink:title=" ">
<polygon fill="white" stroke="black" points="118,-56.5 118,-75.5 186,-75.5 186,-56.5 118,-56.5"/>
<text text-anchor="middle" x="152" y="-63.5" font-family="Helvetica,sans-Serif" font-size="10.00">../debug.hpp</text>
</a>
</g>
</g>
<!-- Node1&#45;&gt;Node4 -->
<g id="edge3" class="edge">
<title>Node1&#45;&gt;Node4</title>
<path fill="none" stroke="midnightblue" d="M128.35,-112.4C132.67,-104.11 138.17,-93.55 142.77,-84.71"/>
<polygon fill="midnightblue" stroke="midnightblue" points="145.97,-86.14 147.49,-75.66 139.76,-82.91 145.97,-86.14"/>
</g>
<!-- Node5 -->
<g id="node5" class="node">
<title>Node5</title>
<g id="a_node5"><a xlink:title=" ">
<polygon fill="white" stroke="#bfbfbf" points="204,-56.5 204,-75.5 250,-75.5 250,-56.5 204,-56.5"/>
<text text-anchor="middle" x="227" y="-63.5" font-family="Helvetica,sans-Serif" font-size="10.00">cstring</text>
</a>
</g>
</g>
<!-- Node1&#45;&gt;Node5 -->
<g id="edge4" class="edge">
<title>Node1&#45;&gt;Node5</title>
<path fill="none" stroke="midnightblue" d="M146.12,-112.4C163.27,-102.77 185.86,-90.09 202.81,-80.58"/>
<polygon fill="midnightblue" stroke="midnightblue" points="204.57,-83.6 211.58,-75.66 201.14,-77.5 204.57,-83.6"/>
</g>
<!-- Node2&#45;&gt;Node3 -->
<g id="edge2" class="edge">
<title>Node2&#45;&gt;Node3</title>
<path fill="none" stroke="midnightblue" d="M35.79,-56.08C39.76,-48.69 45.53,-37.95 50.43,-28.81"/>
<polygon fill="midnightblue" stroke="midnightblue" points="53.65,-30.22 55.3,-19.75 47.49,-26.91 53.65,-30.22"/>
</g>
</g>
</svg>
