<?xml version="1.0" encoding="UTF-8" standalone="no"?>
<!DOCTYPE svg PUBLIC "-//W3C//DTD SVG 1.1//EN"
 "http://www.w3.org/Graphics/SVG/1.1/DTD/svg11.dtd">
<!-- Generated by graphviz version 2.44.0 (0)
 -->
<!-- Title: TravellersApp/src/TravelState.hpp Pages: 1 -->
<svg width="1150pt" height="599pt"
 viewBox="0.00 0.00 1150.00 599.00" xmlns="http://www.w3.org/2000/svg" xmlns:xlink="http://www.w3.org/1999/xlink">
<g id="graph0" class="graph" transform="scale(1 1) rotate(0) translate(4 595)">
<title>TravellersApp/src/TravelState.hpp</title>
<polygon fill="white" stroke="transparent" points="-4,4 -4,-595 1146,-595 1146,4 -4,4"/>
<!-- Node1 -->
<g id="node1" class="node">
<title>Node1</title>
<g id="a_node1"><a xlink:title=" ">
<polygon fill="#bfbfbf" stroke="black" points="728.5,-560.5 728.5,-590.5 851.5,-590.5 851.5,-560.5 728.5,-560.5"/>
<text text-anchor="start" x="736.5" y="-578.5" font-family="Helvetica,sans-Serif" font-size="10.00">TravellersApp/src/Travel</text>
<text text-anchor="middle" x="790" y="-567.5" font-family="Helvetica,sans-Serif" font-size="10.00">State.hpp</text>
</a>
</g>
</g>
<!-- Node2 -->
<g id="node2" class="node">
<title>Node2</title>
<g id="a_node2"><a xlink:href="User_8hpp.html" target="_top" xlink:title=" ">
<polygon fill="white" stroke="black" points="762,-504.5 762,-523.5 818,-523.5 818,-504.5 762,-504.5"/>
<text text-anchor="middle" x="790" y="-511.5" font-family="Helvetica,sans-Serif" font-size="10.00">User.hpp</text>
</a>
</g>
</g>
<!-- Node1&#45;&gt;Node2 -->
<g id="edge1" class="edge">
<title>Node1&#45;&gt;Node2</title>
<path fill="none" stroke="midnightblue" d="M790,-560.4C790,-552.47 790,-542.46 790,-533.86"/>
<polygon fill="midnightblue" stroke="midnightblue" points="793.5,-533.66 790,-523.66 786.5,-533.66 793.5,-533.66"/>
</g>
<!-- Node4 -->
<g id="node4" class="node">
<title>Node4</title>
<g id="a_node4"><a xlink:href="VisitBuilder_8hpp.html" target="_top" xlink:title=" ">
<polygon fill="white" stroke="black" points="889,-280.5 889,-299.5 973,-299.5 973,-280.5 889,-280.5"/>
<text text-anchor="middle" x="931" y="-287.5" font-family="Helvetica,sans-Serif" font-size="10.00">VisitBuilder.hpp</text>
</a>
</g>
</g>
<!-- Node1&#45;&gt;Node4 -->
<g id="edge68" class="edge">
<title>Node1&#45;&gt;Node4</title>
<path fill="none" stroke="midnightblue" d="M851.72,-567.12C952.67,-553.32 1142,-519.38 1142,-459 1142,-459 1142,-459 1142,-401 1142,-329.58 1045.78,-304.46 983.29,-295.67"/>
<polygon fill="midnightblue" stroke="midnightblue" points="983.56,-292.18 973.19,-294.35 982.65,-299.12 983.56,-292.18"/>
</g>
<!-- Node22 -->
<g id="node22" class="node">
<title>Node22</title>
<g id="a_node22"><a xlink:href="CSV_8hpp.html" target="_top" xlink:title=" ">
<polygon fill="white" stroke="black" points="561.5,-448.5 561.5,-467.5 646.5,-467.5 646.5,-448.5 561.5,-448.5"/>
<text text-anchor="middle" x="604" y="-455.5" font-family="Helvetica,sans-Serif" font-size="10.00">parser/CSV.hpp</text>
</a>
</g>
</g>
<!-- Node1&#45;&gt;Node22 -->
<g id="edge69" class="edge">
<title>Node1&#45;&gt;Node22</title>
<path fill="none" stroke="midnightblue" d="M767.19,-560.34C731.4,-538.11 662.42,-495.28 626.7,-473.09"/>
<polygon fill="midnightblue" stroke="midnightblue" points="628.3,-469.97 617.96,-467.67 624.61,-475.92 628.3,-469.97"/>
</g>
<!-- Node3 -->
<g id="node3" class="node">
<title>Node3</title>
<g id="a_node3"><a xlink:title=" ">
<polygon fill="white" stroke="#bfbfbf" points="789,-448.5 789,-467.5 849,-467.5 849,-448.5 789,-448.5"/>
<text text-anchor="middle" x="819" y="-455.5" font-family="Helvetica,sans-Serif" font-size="10.00">filesystem</text>
</a>
</g>
</g>
<!-- Node2&#45;&gt;Node3 -->
<g id="edge2" class="edge">
<title>Node2&#45;&gt;Node3</title>
<path fill="none" stroke="midnightblue" d="M794.79,-504.08C798.76,-496.69 804.53,-485.95 809.43,-476.81"/>
<polygon fill="midnightblue" stroke="midnightblue" points="812.65,-478.22 814.3,-467.75 806.49,-474.91 812.65,-478.22"/>
</g>
<!-- Node2&#45;&gt;Node4 -->
<g id="edge3" class="edge">
<title>Node2&#45;&gt;Node4</title>
<path fill="none" stroke="midnightblue" d="M808.99,-504.37C824.04,-496.69 844.68,-484.18 858,-468 898.43,-418.89 919.21,-344.29 927.12,-309.76"/>
<polygon fill="midnightblue" stroke="midnightblue" points="930.61,-310.19 929.32,-299.68 923.77,-308.7 930.61,-310.19"/>
</g>
<!-- Node10 -->
<g id="node10" class="node">
<title>Node10</title>
<g id="a_node10"><a xlink:href="ArrayList_8hpp.html" target="_top" xlink:title=" ">
<polygon fill="white" stroke="black" points="557,-224.5 557,-243.5 675,-243.5 675,-224.5 557,-224.5"/>
<text text-anchor="middle" x="616" y="-231.5" font-family="Helvetica,sans-Serif" font-size="10.00">collection/ArrayList.hpp</text>
</a>
</g>
</g>
<!-- Node2&#45;&gt;Node10 -->
<g id="edge35" class="edge">
<title>Node2&#45;&gt;Node10</title>
<path fill="none" stroke="midnightblue" d="M786.09,-504.36C778.17,-486.07 761,-441.91 761,-403 761,-403 761,-403 761,-345 761,-292.53 699.98,-261.84 657.11,-246.76"/>
<polygon fill="midnightblue" stroke="midnightblue" points="658.06,-243.39 647.46,-243.52 655.83,-250.02 658.06,-243.39"/>
</g>
<!-- Node20 -->
<g id="node20" class="node">
<title>Node20</title>
<g id="a_node20"><a xlink:title=" ">
<polygon fill="white" stroke="#bfbfbf" points="342.5,-112.5 342.5,-131.5 387.5,-131.5 387.5,-112.5 342.5,-112.5"/>
<text text-anchor="middle" x="365" y="-119.5" font-family="Helvetica,sans-Serif" font-size="10.00">cstdlib</text>
</a>
</g>
</g>
<!-- Node2&#45;&gt;Node20 -->
<g id="edge66" class="edge">
<title>Node2&#45;&gt;Node20</title>
<path fill="none" stroke="midnightblue" d="M780.73,-504.49C726.84,-455.04 453.84,-204.52 382.22,-138.8"/>
<polygon fill="midnightblue" stroke="midnightblue" points="384.25,-135.91 374.52,-131.73 379.52,-141.07 384.25,-135.91"/>
</g>
<!-- Node2&#45;&gt;Node22 -->
<g id="edge36" class="edge">
<title>Node2&#45;&gt;Node22</title>
<path fill="none" stroke="midnightblue" d="M761.75,-504.8C730.21,-495.64 678.94,-480.76 643.45,-470.45"/>
<polygon fill="midnightblue" stroke="midnightblue" points="644.02,-466.97 633.44,-467.55 642.07,-473.7 644.02,-466.97"/>
</g>
<!-- Node30 -->
<g id="node30" class="node">
<title>Node30</title>
<g id="a_node30"><a xlink:title=" ">
<polygon fill="white" stroke="#bfbfbf" points="905.5,-448.5 905.5,-467.5 950.5,-467.5 950.5,-448.5 905.5,-448.5"/>
<text text-anchor="middle" x="928" y="-455.5" font-family="Helvetica,sans-Serif" font-size="10.00">stdio.h</text>
</a>
</g>
</g>
<!-- Node2&#45;&gt;Node30 -->
<g id="edge67" class="edge">
<title>Node2&#45;&gt;Node30</title>
<path fill="none" stroke="midnightblue" d="M811.87,-504.44C834.78,-495.48 870.98,-481.31 896.87,-471.18"/>
<polygon fill="midnightblue" stroke="midnightblue" points="898.2,-474.42 906.24,-467.52 895.65,-467.9 898.2,-474.42"/>
</g>
<!-- Node5 -->
<g id="node5" class="node">
<title>Node5</title>
<g id="a_node5"><a xlink:href="Date_8hpp.html" target="_top" xlink:title=" ">
<polygon fill="white" stroke="black" points="1020.5,-168.5 1020.5,-187.5 1075.5,-187.5 1075.5,-168.5 1020.5,-168.5"/>
<text text-anchor="middle" x="1048" y="-175.5" font-family="Helvetica,sans-Serif" font-size="10.00">Date.hpp</text>
</a>
</g>
</g>
<!-- Node4&#45;&gt;Node5 -->
<g id="edge4" class="edge">
<title>Node4&#45;&gt;Node5</title>
<path fill="none" stroke="midnightblue" d="M942.05,-280.36C953.17,-271.54 970.69,-257.28 985,-244 1002.17,-228.07 1020.71,-208.65 1033.2,-195.21"/>
<polygon fill="midnightblue" stroke="midnightblue" points="1035.92,-197.42 1040.12,-187.7 1030.77,-192.68 1035.92,-197.42"/>
</g>
<!-- Node7 -->
<g id="node7" class="node">
<title>Node7</title>
<g id="a_node7"><a xlink:href="SimpleString_8hpp.html" target="_top" xlink:title=" ">
<polygon fill="white" stroke="black" points="886,-224.5 886,-243.5 976,-243.5 976,-224.5 886,-224.5"/>
<text text-anchor="middle" x="931" y="-231.5" font-family="Helvetica,sans-Serif" font-size="10.00">SimpleString.hpp</text>
</a>
</g>
</g>
<!-- Node4&#45;&gt;Node7 -->
<g id="edge6" class="edge">
<title>Node4&#45;&gt;Node7</title>
<path fill="none" stroke="midnightblue" d="M931,-280.08C931,-273.01 931,-262.86 931,-253.99"/>
<polygon fill="midnightblue" stroke="midnightblue" points="934.5,-253.75 931,-243.75 927.5,-253.75 934.5,-253.75"/>
</g>
<!-- Node4&#45;&gt;Node10 -->
<g id="edge10" class="edge">
<title>Node4&#45;&gt;Node10</title>
<path fill="none" stroke="midnightblue" d="M888.84,-281.77C834.06,-272.38 738.05,-255.92 675.76,-245.25"/>
<polygon fill="midnightblue" stroke="midnightblue" points="676.13,-241.76 665.69,-243.52 674.95,-248.66 676.13,-241.76"/>
</g>
<!-- Node6 -->
<g id="node6" class="node">
<title>Node6</title>
<g id="a_node6"><a xlink:title=" ">
<polygon fill="white" stroke="#bfbfbf" points="522,-0.5 522,-19.5 576,-19.5 576,-0.5 522,-0.5"/>
<text text-anchor="middle" x="549" y="-7.5" font-family="Helvetica,sans-Serif" font-size="10.00">iostream</text>
</a>
</g>
</g>
<!-- Node5&#45;&gt;Node6 -->
<g id="edge5" class="edge">
<title>Node5&#45;&gt;Node6</title>
<path fill="none" stroke="midnightblue" d="M1035.92,-168.47C1015.26,-154.33 971.37,-126.19 930,-112 833.37,-78.86 800.7,-105.83 703,-76 682.84,-69.85 679.33,-64.41 660,-56 633.42,-44.44 602.88,-32.13 580.57,-23.31"/>
<polygon fill="midnightblue" stroke="midnightblue" points="581.84,-20.05 571.25,-19.64 579.27,-26.56 581.84,-20.05"/>
</g>
<!-- Node7&#45;&gt;Node6 -->
<g id="edge9" class="edge">
<title>Node7&#45;&gt;Node6</title>
<path fill="none" stroke="midnightblue" d="M926.32,-224.27C918.96,-211.06 903.67,-185.66 886,-168 855.04,-137.06 844.89,-130.01 805,-112 744.48,-84.67 720.31,-103.79 660,-76 646.11,-69.6 644.97,-64.1 632,-56 613.52,-44.45 591.86,-32.77 575.3,-24.2"/>
<polygon fill="midnightblue" stroke="midnightblue" points="576.7,-20.98 566.2,-19.54 573.5,-27.21 576.7,-20.98"/>
</g>
<!-- Node8 -->
<g id="node8" class="node">
<title>Node8</title>
<g id="a_node8"><a xlink:href="debug_8hpp.html" target="_top" xlink:title=" ">
<polygon fill="white" stroke="black" points="518.5,-56.5 518.5,-75.5 579.5,-75.5 579.5,-56.5 518.5,-56.5"/>
<text text-anchor="middle" x="549" y="-63.5" font-family="Helvetica,sans-Serif" font-size="10.00">debug.hpp</text>
</a>
</g>
</g>
<!-- Node7&#45;&gt;Node8 -->
<g id="edge7" class="edge">
<title>Node7&#45;&gt;Node8</title>
<path fill="none" stroke="midnightblue" d="M922.69,-224.32C900.63,-201.84 837.82,-141.4 773,-112 740.85,-97.41 645.09,-81.35 589.73,-72.92"/>
<polygon fill="midnightblue" stroke="midnightblue" points="589.97,-69.42 579.56,-71.39 588.93,-76.34 589.97,-69.42"/>
</g>
<!-- Node9 -->
<g id="node9" class="node">
<title>Node9</title>
<g id="a_node9"><a xlink:title=" ">
<polygon fill="white" stroke="#bfbfbf" points="1005,-0.5 1005,-19.5 1051,-19.5 1051,-0.5 1005,-0.5"/>
<text text-anchor="middle" x="1028" y="-7.5" font-family="Helvetica,sans-Serif" font-size="10.00">cstring</text>
</a>
</g>
</g>
<!-- Node7&#45;&gt;Node9 -->
<g id="edge8" class="edge">
<title>Node7&#45;&gt;Node9</title>
<path fill="none" stroke="midnightblue" d="M940.45,-224.27C963.55,-202.19 1022.4,-141.22 1042,-76 1046.72,-60.3 1041.89,-42.01 1036.66,-28.84"/>
<polygon fill="midnightblue" stroke="midnightblue" points="1039.79,-27.26 1032.55,-19.52 1033.38,-30.09 1039.79,-27.26"/>
</g>
<!-- Node10&#45;&gt;Node6 -->
<g id="edge12" class="edge">
<title>Node10&#45;&gt;Node6</title>
<path fill="none" stroke="midnightblue" d="M611.99,-224.28C602.29,-203.65 576.13,-150.67 546,-112 531.9,-93.9 517.93,-97.14 509,-76 501.42,-58.04 515.76,-39.26 529.33,-26.53"/>
<polygon fill="midnightblue" stroke="midnightblue" points="531.83,-28.99 537.06,-19.78 527.23,-23.72 531.83,-28.99"/>
</g>
<!-- Node10&#45;&gt;Node8 -->
<g id="edge18" class="edge">
<title>Node10&#45;&gt;Node8</title>
<path fill="none" stroke="midnightblue" d="M615.42,-224.3C613.77,-203.71 607.75,-150.82 588,-112 582.51,-101.22 573.9,-90.89 566.16,-82.86"/>
<polygon fill="midnightblue" stroke="midnightblue" points="568.43,-80.19 558.86,-75.66 563.51,-85.17 568.43,-80.19"/>
</g>
<!-- Node11 -->
<g id="node11" class="node">
<title>Node11</title>
<g id="a_node11"><a xlink:title=" ">
<polygon fill="white" stroke="#bfbfbf" points="405.5,-112.5 405.5,-131.5 464.5,-131.5 464.5,-112.5 405.5,-112.5"/>
<text text-anchor="middle" x="435" y="-119.5" font-family="Helvetica,sans-Serif" font-size="10.00">functional</text>
</a>
</g>
</g>
<!-- Node10&#45;&gt;Node11 -->
<g id="edge11" class="edge">
<title>Node10&#45;&gt;Node11</title>
<path fill="none" stroke="midnightblue" d="M601.8,-224.37C570.61,-205.41 495.88,-160 457.94,-136.94"/>
<polygon fill="midnightblue" stroke="midnightblue" points="459.5,-133.79 449.14,-131.59 455.86,-139.78 459.5,-133.79"/>
</g>
<!-- Node12 -->
<g id="node12" class="node">
<title>Node12</title>
<g id="a_node12"><a xlink:title=" ">
<polygon fill="white" stroke="#bfbfbf" points="486.5,-112.5 486.5,-131.5 537.5,-131.5 537.5,-112.5 486.5,-112.5"/>
<text text-anchor="middle" x="512" y="-119.5" font-family="Helvetica,sans-Serif" font-size="10.00">memory</text>
</a>
</g>
</g>
<!-- Node10&#45;&gt;Node12 -->
<g id="edge13" class="edge">
<title>Node10&#45;&gt;Node12</title>
<path fill="none" stroke="midnightblue" d="M604.72,-224.24C593.82,-215.55 577.08,-201.59 564,-188 549.35,-172.77 534.46,-153.73 524.4,-140.2"/>
<polygon fill="midnightblue" stroke="midnightblue" points="527,-137.82 518.26,-131.83 521.35,-141.96 527,-137.82"/>
</g>
<!-- Node13 -->
<g id="node13" class="node">
<title>Node13</title>
<g id="a_node13"><a xlink:href="InvalidArgumentException_8hpp.html" target="_top" xlink:title=" ">
<polygon fill="white" stroke="black" points="844.5,-56.5 844.5,-75.5 999.5,-75.5 999.5,-56.5 844.5,-56.5"/>
<text text-anchor="middle" x="922" y="-63.5" font-family="Helvetica,sans-Serif" font-size="10.00">../InvalidArgumentException.hpp</text>
</a>
</g>
</g>
<!-- Node10&#45;&gt;Node13 -->
<g id="edge14" class="edge">
<title>Node10&#45;&gt;Node13</title>
<path fill="none" stroke="midnightblue" d="M640.34,-224.49C663.19,-216.19 698.08,-202.7 727,-188 793.19,-154.36 866.34,-105.58 901.25,-81.53"/>
<polygon fill="midnightblue" stroke="midnightblue" points="903.43,-84.27 909.66,-75.7 899.44,-78.52 903.43,-84.27"/>
</g>
<!-- Node15 -->
<g id="node15" class="node">
<title>Node15</title>
<g id="a_node15"><a xlink:href="Nullable_8hpp.html" target="_top" xlink:title=" ">
<polygon fill="white" stroke="black" points="687.5,-112.5 687.5,-131.5 764.5,-131.5 764.5,-112.5 687.5,-112.5"/>
<text text-anchor="middle" x="726" y="-119.5" font-family="Helvetica,sans-Serif" font-size="10.00">../Nullable.hpp</text>
</a>
</g>
</g>
<!-- Node10&#45;&gt;Node15 -->
<g id="edge19" class="edge">
<title>Node10&#45;&gt;Node15</title>
<path fill="none" stroke="midnightblue" d="M647.96,-224.41C667.6,-217.58 691.82,-206.09 707,-188 717.97,-174.92 722.61,-155.77 724.57,-141.64"/>
<polygon fill="midnightblue" stroke="midnightblue" points="728.06,-141.91 725.64,-131.6 721.1,-141.17 728.06,-141.91"/>
</g>
<!-- Node17 -->
<g id="node17" class="node">
<title>Node17</title>
<g id="a_node17"><a xlink:href="IList_8hpp.html" target="_top" xlink:title=" ">
<polygon fill="white" stroke="black" points="644,-168.5 644,-187.5 698,-187.5 698,-168.5 644,-168.5"/>
<text text-anchor="middle" x="671" y="-175.5" font-family="Helvetica,sans-Serif" font-size="10.00">IList.hpp</text>
</a>
</g>
</g>
<!-- Node10&#45;&gt;Node17 -->
<g id="edge26" class="edge">
<title>Node10&#45;&gt;Node17</title>
<path fill="none" stroke="midnightblue" d="M625.08,-224.08C633.17,-216.14 645.2,-204.34 654.91,-194.8"/>
<polygon fill="midnightblue" stroke="midnightblue" points="657.4,-197.25 662.09,-187.75 652.5,-192.26 657.4,-197.25"/>
</g>
<!-- Node18 -->
<g id="node18" class="node">
<title>Node18</title>
<g id="a_node18"><a xlink:href="Tuple_8hpp.html" target="_top" xlink:title=" ">
<polygon fill="white" stroke="black" points="224.5,-168.5 224.5,-187.5 283.5,-187.5 283.5,-168.5 224.5,-168.5"/>
<text text-anchor="middle" x="254" y="-175.5" font-family="Helvetica,sans-Serif" font-size="10.00">Tuple.hpp</text>
</a>
</g>
</g>
<!-- Node10&#45;&gt;Node18 -->
<g id="edge29" class="edge">
<title>Node10&#45;&gt;Node18</title>
<path fill="none" stroke="midnightblue" d="M558.64,-224.44C484.8,-213.43 358.37,-194.57 294.08,-184.98"/>
<polygon fill="midnightblue" stroke="midnightblue" points="294.35,-181.48 283.94,-183.47 293.31,-188.4 294.35,-181.48"/>
</g>
<!-- Node13&#45;&gt;Node6 -->
<g id="edge17" class="edge">
<title>Node13&#45;&gt;Node6</title>
<path fill="none" stroke="midnightblue" d="M862.9,-56.44C785.26,-45.2 651.19,-25.79 586.31,-16.4"/>
<polygon fill="midnightblue" stroke="midnightblue" points="586.54,-12.9 576.14,-14.93 585.54,-19.83 586.54,-12.9"/>
</g>
<!-- Node13&#45;&gt;Node9 -->
<g id="edge15" class="edge">
<title>Node13&#45;&gt;Node9</title>
<path fill="none" stroke="midnightblue" d="M939.03,-56.32C956.03,-47.66 982.38,-34.24 1001.99,-24.25"/>
<polygon fill="midnightblue" stroke="midnightblue" points="1003.69,-27.31 1011.01,-19.65 1000.51,-21.08 1003.69,-27.31"/>
</g>
<!-- Node14 -->
<g id="node14" class="node">
<title>Node14</title>
<g id="a_node14"><a xlink:title=" ">
<polygon fill="white" stroke="#bfbfbf" points="817,-0.5 817,-19.5 875,-19.5 875,-0.5 817,-0.5"/>
<text text-anchor="middle" x="846" y="-7.5" font-family="Helvetica,sans-Serif" font-size="10.00">exception</text>
</a>
</g>
</g>
<!-- Node13&#45;&gt;Node14 -->
<g id="edge16" class="edge">
<title>Node13&#45;&gt;Node14</title>
<path fill="none" stroke="midnightblue" d="M909.79,-56.32C898.22,-48.11 880.62,-35.6 866.84,-25.81"/>
<polygon fill="midnightblue" stroke="midnightblue" points="868.61,-22.77 858.43,-19.83 864.56,-28.48 868.61,-22.77"/>
</g>
<!-- Node15&#45;&gt;Node6 -->
<g id="edge25" class="edge">
<title>Node15&#45;&gt;Node6</title>
<path fill="none" stroke="midnightblue" d="M704.78,-112.42C685.26,-104.17 655.83,-90.79 632,-76 607.9,-61.04 582.56,-40.37 566.31,-26.39"/>
<polygon fill="midnightblue" stroke="midnightblue" points="568.54,-23.69 558.7,-19.75 563.94,-28.96 568.54,-23.69"/>
</g>
<!-- Node15&#45;&gt;Node8 -->
<g id="edge24" class="edge">
<title>Node15&#45;&gt;Node8</title>
<path fill="none" stroke="midnightblue" d="M697.95,-112.44C667.92,-103.28 620.09,-88.69 586.76,-78.52"/>
<polygon fill="midnightblue" stroke="midnightblue" points="587.5,-75.09 576.91,-75.52 585.46,-81.78 587.5,-75.09"/>
</g>
<!-- Node16 -->
<g id="node16" class="node">
<title>Node16</title>
<g id="a_node16"><a xlink:href="NoValueException_8hpp.html" target="_top" xlink:title=" ">
<polygon fill="white" stroke="black" points="712,-56.5 712,-75.5 826,-75.5 826,-56.5 712,-56.5"/>
<text text-anchor="middle" x="769" y="-63.5" font-family="Helvetica,sans-Serif" font-size="10.00">NoValueException.hpp</text>
</a>
</g>
</g>
<!-- Node15&#45;&gt;Node16 -->
<g id="edge20" class="edge">
<title>Node15&#45;&gt;Node16</title>
<path fill="none" stroke="midnightblue" d="M733.1,-112.08C739.24,-104.38 748.27,-93.03 755.74,-83.65"/>
<polygon fill="midnightblue" stroke="midnightblue" points="758.54,-85.75 762.03,-75.75 753.06,-81.39 758.54,-85.75"/>
</g>
<!-- Node16&#45;&gt;Node6 -->
<g id="edge23" class="edge">
<title>Node16&#45;&gt;Node6</title>
<path fill="none" stroke="midnightblue" d="M734.14,-56.44C693.71,-46.52 627.33,-30.23 586,-20.08"/>
<polygon fill="midnightblue" stroke="midnightblue" points="586.61,-16.63 576.07,-17.64 584.94,-23.43 586.61,-16.63"/>
</g>
<!-- Node16&#45;&gt;Node9 -->
<g id="edge21" class="edge">
<title>Node16&#45;&gt;Node9</title>
<path fill="none" stroke="midnightblue" d="M810.04,-56.44C861.23,-45.77 947.73,-27.73 994.9,-17.9"/>
<polygon fill="midnightblue" stroke="midnightblue" points="995.82,-21.28 1004.9,-15.82 994.4,-14.43 995.82,-21.28"/>
</g>
<!-- Node16&#45;&gt;Node14 -->
<g id="edge22" class="edge">
<title>Node16&#45;&gt;Node14</title>
<path fill="none" stroke="midnightblue" d="M781.37,-56.32C793.16,-48.06 811.13,-35.45 825.14,-25.63"/>
<polygon fill="midnightblue" stroke="midnightblue" points="827.48,-28.26 833.66,-19.65 823.46,-22.53 827.48,-28.26"/>
</g>
<!-- Node17&#45;&gt;Node12 -->
<g id="edge28" class="edge">
<title>Node17&#45;&gt;Node12</title>
<path fill="none" stroke="midnightblue" d="M645.81,-168.44C619.06,-159.36 576.6,-144.94 546.69,-134.78"/>
<polygon fill="midnightblue" stroke="midnightblue" points="547.67,-131.42 537.08,-131.52 545.42,-138.05 547.67,-131.42"/>
</g>
<!-- Node17&#45;&gt;Node15 -->
<g id="edge27" class="edge">
<title>Node17&#45;&gt;Node15</title>
<path fill="none" stroke="midnightblue" d="M680.08,-168.08C688.17,-160.14 700.2,-148.34 709.91,-138.8"/>
<polygon fill="midnightblue" stroke="midnightblue" points="712.4,-141.25 717.09,-131.75 707.5,-136.26 712.4,-141.25"/>
</g>
<!-- Node18&#45;&gt;Node6 -->
<g id="edge33" class="edge">
<title>Node18&#45;&gt;Node6</title>
<path fill="none" stroke="midnightblue" d="M258.14,-168.22C265.02,-154.47 280.06,-127.8 300,-112 365.13,-60.39 460.17,-31.7 511.97,-19.03"/>
<polygon fill="midnightblue" stroke="midnightblue" points="512.82,-22.42 521.73,-16.7 511.2,-15.61 512.82,-22.42"/>
</g>
<!-- Node18&#45;&gt;Node11 -->
<g id="edge32" class="edge">
<title>Node18&#45;&gt;Node11</title>
<path fill="none" stroke="midnightblue" d="M282.68,-168.44C313.53,-159.24 362.73,-144.56 396.83,-134.39"/>
<polygon fill="midnightblue" stroke="midnightblue" points="397.87,-137.73 406.45,-131.52 395.87,-131.02 397.87,-137.73"/>
</g>
<!-- Node19 -->
<g id="node19" class="node">
<title>Node19</title>
<g id="a_node19"><a xlink:href="ttype_8hpp.html" target="_top" xlink:title=" ">
<polygon fill="white" stroke="black" points="66.5,-112.5 66.5,-131.5 129.5,-131.5 129.5,-112.5 66.5,-112.5"/>
<text text-anchor="middle" x="98" y="-119.5" font-family="Helvetica,sans-Serif" font-size="10.00">../ttype.hpp</text>
</a>
</g>
</g>
<!-- Node18&#45;&gt;Node19 -->
<g id="edge30" class="edge">
<title>Node18&#45;&gt;Node19</title>
<path fill="none" stroke="midnightblue" d="M229.28,-168.44C203.15,-159.4 161.74,-145.06 132.42,-134.92"/>
<polygon fill="midnightblue" stroke="midnightblue" points="133.2,-131.48 122.6,-131.52 130.91,-138.1 133.2,-131.48"/>
</g>
<!-- Node18&#45;&gt;Node20 -->
<g id="edge31" class="edge">
<title>Node18&#45;&gt;Node20</title>
<path fill="none" stroke="midnightblue" d="M271.83,-168.32C289.72,-159.62 317.48,-146.12 338.05,-136.11"/>
<polygon fill="midnightblue" stroke="midnightblue" points="339.75,-139.18 347.21,-131.65 336.69,-132.88 339.75,-139.18"/>
</g>
<!-- Node21 -->
<g id="node21" class="node">
<title>Node21</title>
<g id="a_node21"><a xlink:title=" ">
<polygon fill="white" stroke="#bfbfbf" points="186,-112.5 186,-131.5 248,-131.5 248,-112.5 186,-112.5"/>
<text text-anchor="middle" x="217" y="-119.5" font-family="Helvetica,sans-Serif" font-size="10.00">type_traits</text>
</a>
</g>
</g>
<!-- Node18&#45;&gt;Node21 -->
<g id="edge34" class="edge">
<title>Node18&#45;&gt;Node21</title>
<path fill="none" stroke="midnightblue" d="M247.89,-168.08C242.72,-160.53 235.15,-149.49 228.81,-140.23"/>
<polygon fill="midnightblue" stroke="midnightblue" points="231.54,-138.02 223,-131.75 225.76,-141.98 231.54,-138.02"/>
</g>
<!-- Node22&#45;&gt;Node7 -->
<g id="edge37" class="edge">
<title>Node22&#45;&gt;Node7</title>
<path fill="none" stroke="midnightblue" d="M616.82,-448.3C666.57,-414.52 847.23,-291.87 909.63,-249.51"/>
<polygon fill="midnightblue" stroke="midnightblue" points="911.96,-252.16 918.27,-243.64 908.03,-246.36 911.96,-252.16"/>
</g>
<!-- Node22&#45;&gt;Node10 -->
<g id="edge38" class="edge">
<title>Node22&#45;&gt;Node10</title>
<path fill="none" stroke="midnightblue" d="M610.37,-448.23C616.26,-439.53 624.61,-425.57 628,-412 642.1,-355.6 628.88,-286.15 620.97,-253.55"/>
<polygon fill="midnightblue" stroke="midnightblue" points="624.3,-252.47 618.44,-243.64 617.52,-254.19 624.3,-252.47"/>
</g>
<!-- Node22&#45;&gt;Node18 -->
<g id="edge39" class="edge">
<title>Node22&#45;&gt;Node18</title>
<path fill="none" stroke="midnightblue" d="M561.45,-451.36C502.94,-441.57 397.37,-416.35 331,-356 283.12,-312.47 263.66,-233.9 256.99,-197.92"/>
<polygon fill="midnightblue" stroke="midnightblue" points="260.4,-197.09 255.25,-187.83 253.5,-198.28 260.4,-197.09"/>
</g>
<!-- Node22&#45;&gt;Node19 -->
<g id="edge40" class="edge">
<title>Node22&#45;&gt;Node19</title>
<path fill="none" stroke="midnightblue" d="M561.46,-457.76C429.83,-458.96 38,-453.61 38,-347 38,-347 38,-347 38,-233 38,-195.88 64.65,-159.38 82.43,-139.16"/>
<polygon fill="midnightblue" stroke="midnightblue" points="85.24,-141.28 89.4,-131.53 80.07,-136.55 85.24,-141.28"/>
</g>
<!-- Node23 -->
<g id="node23" class="node">
<title>Node23</title>
<g id="a_node23"><a xlink:href="Scanner_8hpp.html" target="_top" xlink:title=" ">
<polygon fill="white" stroke="black" points="204.5,-392.5 204.5,-411.5 275.5,-411.5 275.5,-392.5 204.5,-392.5"/>
<text text-anchor="middle" x="240" y="-399.5" font-family="Helvetica,sans-Serif" font-size="10.00">Scanner.hpp</text>
</a>
</g>
</g>
<!-- Node22&#45;&gt;Node23 -->
<g id="edge41" class="edge">
<title>Node22&#45;&gt;Node23</title>
<path fill="none" stroke="midnightblue" d="M561.26,-451.37C500.78,-443.29 386.77,-427.64 290,-412 288.56,-411.77 287.09,-411.53 285.61,-411.28"/>
<polygon fill="midnightblue" stroke="midnightblue" points="286.2,-407.83 275.75,-409.6 285.02,-414.73 286.2,-407.83"/>
</g>
<!-- Node29 -->
<g id="node29" class="node">
<title>Node29</title>
<g id="a_node29"><a xlink:title=" ">
<polygon fill="white" stroke="#bfbfbf" points="569,-392.5 569,-411.5 619,-411.5 619,-392.5 569,-392.5"/>
<text text-anchor="middle" x="594" y="-399.5" font-family="Helvetica,sans-Serif" font-size="10.00">fstream</text>
</a>
</g>
</g>
<!-- Node22&#45;&gt;Node29 -->
<g id="edge65" class="edge">
<title>Node22&#45;&gt;Node29</title>
<path fill="none" stroke="midnightblue" d="M602.35,-448.08C601.02,-440.93 599.12,-430.64 597.46,-421.69"/>
<polygon fill="midnightblue" stroke="midnightblue" points="600.88,-420.95 595.62,-411.75 594,-422.22 600.88,-420.95"/>
</g>
<!-- Node23&#45;&gt;Node6 -->
<g id="edge64" class="edge">
<title>Node23&#45;&gt;Node6</title>
<path fill="none" stroke="midnightblue" d="M204.33,-400.4C137.47,-397.2 0,-379.8 0,-291 0,-291 0,-291 0,-121 0,-16.39 388.05,-9.93 511.66,-10.52"/>
<polygon fill="midnightblue" stroke="midnightblue" points="511.75,-14.02 521.78,-10.59 511.8,-7.02 511.75,-14.02"/>
</g>
<!-- Node23&#45;&gt;Node9 -->
<g id="edge63" class="edge">
<title>Node23&#45;&gt;Node9</title>
<path fill="none" stroke="midnightblue" d="M275.75,-400.27C438.8,-396.5 1104,-375.91 1104,-291 1104,-291 1104,-291 1104,-121 1104,-81.28 1070.04,-45.5 1047.52,-26.15"/>
<polygon fill="midnightblue" stroke="midnightblue" points="1049.48,-23.24 1039.54,-19.57 1045.02,-28.63 1049.48,-23.24"/>
</g>
<!-- Node23&#45;&gt;Node10 -->
<g id="edge42" class="edge">
<title>Node23&#45;&gt;Node10</title>
<path fill="none" stroke="midnightblue" d="M275.61,-397.46C317.39,-392.34 388.08,-380.64 444,-356 506.64,-328.39 569.79,-276.32 599.1,-250.43"/>
<polygon fill="midnightblue" stroke="midnightblue" points="601.64,-252.85 606.76,-243.57 596.97,-247.63 601.64,-252.85"/>
</g>
<!-- Node24 -->
<g id="node24" class="node">
<title>Node24</title>
<g id="a_node24"><a xlink:href="CommandList_8hpp.html" target="_top" xlink:title=" ">
<polygon fill="white" stroke="black" points="340.5,-336.5 340.5,-355.5 435.5,-355.5 435.5,-336.5 340.5,-336.5"/>
<text text-anchor="middle" x="388" y="-343.5" font-family="Helvetica,sans-Serif" font-size="10.00">CommandList.hpp</text>
</a>
</g>
</g>
<!-- Node23&#45;&gt;Node24 -->
<g id="edge43" class="edge">
<title>Node23&#45;&gt;Node24</title>
<path fill="none" stroke="midnightblue" d="M263.45,-392.44C288.13,-383.44 327.19,-369.19 354.98,-359.05"/>
<polygon fill="midnightblue" stroke="midnightblue" points="356.46,-362.23 364.66,-355.52 354.06,-355.66 356.46,-362.23"/>
</g>
<!-- Node26 -->
<g id="node26" class="node">
<title>Node26</title>
<g id="a_node26"><a xlink:href="ScannerContext_8hpp.html" target="_top" xlink:title=" ">
<polygon fill="white" stroke="black" points="154,-280.5 154,-299.5 258,-299.5 258,-280.5 154,-280.5"/>
<text text-anchor="middle" x="206" y="-287.5" font-family="Helvetica,sans-Serif" font-size="10.00">ScannerContext.hpp</text>
</a>
</g>
</g>
<!-- Node23&#45;&gt;Node26 -->
<g id="edge60" class="edge">
<title>Node23&#45;&gt;Node26</title>
<path fill="none" stroke="midnightblue" d="M235.75,-392.21C231.56,-383.26 225.18,-368.91 221,-356 216.03,-340.66 212.03,-322.78 209.42,-309.66"/>
<polygon fill="midnightblue" stroke="midnightblue" points="212.8,-308.71 207.48,-299.54 205.92,-310.02 212.8,-308.71"/>
</g>
<!-- Node27 -->
<g id="node27" class="node">
<title>Node27</title>
<g id="a_node27"><a xlink:href="Token_8hpp.html" target="_top" xlink:title=" ">
<polygon fill="white" stroke="black" points="74,-280.5 74,-299.5 136,-299.5 136,-280.5 74,-280.5"/>
<text text-anchor="middle" x="105" y="-287.5" font-family="Helvetica,sans-Serif" font-size="10.00">Token.hpp</text>
</a>
</g>
</g>
<!-- Node23&#45;&gt;Node27 -->
<g id="edge61" class="edge">
<title>Node23&#45;&gt;Node27</title>
<path fill="none" stroke="midnightblue" d="M229.41,-392.37C206.54,-373.73 152.29,-329.53 123.57,-306.13"/>
<polygon fill="midnightblue" stroke="midnightblue" points="125.51,-303.19 115.54,-299.59 121.09,-308.62 125.51,-303.19"/>
</g>
<!-- Node28 -->
<g id="node28" class="node">
<title>Node28</title>
<g id="a_node28"><a xlink:title=" ">
<polygon fill="white" stroke="#bfbfbf" points="230.5,-336.5 230.5,-355.5 275.5,-355.5 275.5,-336.5 230.5,-336.5"/>
<text text-anchor="middle" x="253" y="-343.5" font-family="Helvetica,sans-Serif" font-size="10.00">cctype</text>
</a>
</g>
</g>
<!-- Node23&#45;&gt;Node28 -->
<g id="edge62" class="edge">
<title>Node23&#45;&gt;Node28</title>
<path fill="none" stroke="midnightblue" d="M242.15,-392.08C243.87,-384.93 246.35,-374.64 248.5,-365.69"/>
<polygon fill="midnightblue" stroke="midnightblue" points="251.96,-366.29 250.89,-355.75 245.15,-364.65 251.96,-366.29"/>
</g>
<!-- Node24&#45;&gt;Node7 -->
<g id="edge44" class="edge">
<title>Node24&#45;&gt;Node7</title>
<path fill="none" stroke="midnightblue" d="M430.16,-336.46C528.28,-316.58 771.75,-267.26 878.93,-245.55"/>
<polygon fill="midnightblue" stroke="midnightblue" points="879.76,-248.95 888.87,-243.53 878.37,-242.09 879.76,-248.95"/>
</g>
<!-- Node24&#45;&gt;Node12 -->
<g id="edge59" class="edge">
<title>Node24&#45;&gt;Node12</title>
<path fill="none" stroke="midnightblue" d="M410.59,-336.35C426.86,-329.01 448.12,-316.96 461,-300 498.01,-251.26 508.19,-176.48 510.97,-141.83"/>
<polygon fill="midnightblue" stroke="midnightblue" points="514.47,-141.93 511.65,-131.71 507.48,-141.45 514.47,-141.93"/>
</g>
<!-- Node24&#45;&gt;Node15 -->
<g id="edge45" class="edge">
<title>Node24&#45;&gt;Node15</title>
<path fill="none" stroke="midnightblue" d="M417.39,-336.44C494.79,-313.83 699.14,-253.54 711,-244 739.56,-221.03 749.58,-204.05 743,-168 741.31,-158.76 737.83,-148.95 734.45,-140.85"/>
<polygon fill="midnightblue" stroke="midnightblue" points="737.63,-139.4 730.37,-131.69 731.24,-142.25 737.63,-139.4"/>
</g>
<!-- Node25 -->
<g id="node25" class="node">
<title>Node25</title>
<g id="a_node25"><a xlink:href="HashMap_8hpp.html" target="_top" xlink:title=" ">
<polygon fill="white" stroke="black" points="324,-280.5 324,-299.5 452,-299.5 452,-280.5 324,-280.5"/>
<text text-anchor="middle" x="388" y="-287.5" font-family="Helvetica,sans-Serif" font-size="10.00">../collection/HashMap.hpp</text>
</a>
</g>
</g>
<!-- Node24&#45;&gt;Node25 -->
<g id="edge46" class="edge">
<title>Node24&#45;&gt;Node25</title>
<path fill="none" stroke="midnightblue" d="M388,-336.08C388,-329.01 388,-318.86 388,-309.99"/>
<polygon fill="midnightblue" stroke="midnightblue" points="391.5,-309.75 388,-299.75 384.5,-309.75 391.5,-309.75"/>
</g>
<!-- Node24&#45;&gt;Node26 -->
<g id="edge55" class="edge">
<title>Node24&#45;&gt;Node26</title>
<path fill="none" stroke="midnightblue" d="M359.16,-336.44C328.14,-327.24 278.67,-312.56 244.38,-302.39"/>
<polygon fill="midnightblue" stroke="midnightblue" points="245.29,-299.01 234.7,-299.52 243.29,-305.72 245.29,-299.01"/>
</g>
<!-- Node24&#45;&gt;Node27 -->
<g id="edge57" class="edge">
<title>Node24&#45;&gt;Node27</title>
<path fill="none" stroke="midnightblue" d="M340.4,-336.74C293.44,-328.47 219.37,-315.09 146.26,-300.2"/>
<polygon fill="midnightblue" stroke="midnightblue" points="146.92,-296.76 136.42,-298.19 145.51,-303.62 146.92,-296.76"/>
</g>
<!-- Node25&#45;&gt;Node8 -->
<g id="edge51" class="edge">
<title>Node25&#45;&gt;Node8</title>
<path fill="none" stroke="midnightblue" d="M380.21,-280.2C356.55,-252.4 289.76,-165.18 333,-112 354.67,-85.35 451.98,-73.96 508.32,-69.52"/>
<polygon fill="midnightblue" stroke="midnightblue" points="508.62,-73.01 518.34,-68.77 508.1,-66.03 508.62,-73.01"/>
</g>
<!-- Node25&#45;&gt;Node9 -->
<g id="edge48" class="edge">
<title>Node25&#45;&gt;Node9</title>
<path fill="none" stroke="midnightblue" d="M452.14,-287.12C518.51,-283.57 624.4,-273.34 711,-244 854.64,-195.34 912.96,-194.18 1008,-76 1018.74,-62.64 1023.73,-43.53 1026.04,-29.48"/>
<polygon fill="midnightblue" stroke="midnightblue" points="1029.52,-29.89 1027.37,-19.52 1022.58,-28.96 1029.52,-29.89"/>
</g>
<!-- Node25&#45;&gt;Node10 -->
<g id="edge52" class="edge">
<title>Node25&#45;&gt;Node10</title>
<path fill="none" stroke="midnightblue" d="M424.13,-280.44C463.65,-271.08 527.1,-256.06 570.11,-245.87"/>
<polygon fill="midnightblue" stroke="midnightblue" points="571.12,-249.23 580.04,-243.52 569.5,-242.42 571.12,-249.23"/>
</g>
<!-- Node25&#45;&gt;Node12 -->
<g id="edge49" class="edge">
<title>Node25&#45;&gt;Node12</title>
<path fill="none" stroke="midnightblue" d="M394.67,-280.08C414.52,-253.49 473.5,-174.54 499.48,-139.76"/>
<polygon fill="midnightblue" stroke="midnightblue" points="502.42,-141.67 505.6,-131.57 496.81,-137.49 502.42,-141.67"/>
</g>
<!-- Node25&#45;&gt;Node15 -->
<g id="edge54" class="edge">
<title>Node25&#45;&gt;Node15</title>
<path fill="none" stroke="midnightblue" d="M452.23,-284.83C527.21,-279.01 645.84,-266.53 684,-244 711.02,-228.04 716.91,-217.71 727,-188 732.05,-173.12 731.31,-155.2 729.59,-141.95"/>
<polygon fill="midnightblue" stroke="midnightblue" points="732.98,-141.02 727.94,-131.7 726.07,-142.13 732.98,-141.02"/>
</g>
<!-- Node25&#45;&gt;Node18 -->
<g id="edge53" class="edge">
<title>Node25&#45;&gt;Node18</title>
<path fill="none" stroke="midnightblue" d="M362.66,-280.37C343.39,-272.92 317.05,-260.7 298,-244 282.83,-230.7 270.49,-211.04 262.78,-196.83"/>
<polygon fill="midnightblue" stroke="midnightblue" points="265.71,-194.88 258.01,-187.61 259.5,-198.1 265.71,-194.88"/>
</g>
<!-- Node25&#45;&gt;Node20 -->
<g id="edge47" class="edge">
<title>Node25&#45;&gt;Node20</title>
<path fill="none" stroke="midnightblue" d="M386.8,-280.35C384.38,-262.9 378.74,-222.19 374,-188 371.85,-172.46 369.41,-154.84 367.61,-141.87"/>
<polygon fill="midnightblue" stroke="midnightblue" points="371.06,-141.26 366.22,-131.83 364.13,-142.22 371.06,-141.26"/>
</g>
<!-- Node25&#45;&gt;Node21 -->
<g id="edge50" class="edge">
<title>Node25&#45;&gt;Node21</title>
<path fill="none" stroke="midnightblue" d="M349.52,-280.44C306.21,-268.37 238.79,-241.55 215,-188 208.55,-173.49 209.79,-155.31 212.22,-141.87"/>
<polygon fill="midnightblue" stroke="midnightblue" points="215.69,-142.39 214.39,-131.87 208.85,-140.9 215.69,-142.39"/>
</g>
<!-- Node26&#45;&gt;Node6 -->
<g id="edge56" class="edge">
<title>Node26&#45;&gt;Node6</title>
<path fill="none" stroke="midnightblue" d="M199.33,-280.44C186.14,-262.62 158,-219.84 158,-179 158,-179 158,-179 158,-121 158,-47.94 414.14,-21.09 511.79,-13.5"/>
<polygon fill="midnightblue" stroke="midnightblue" points="512.11,-16.99 521.82,-12.75 511.58,-10.01 512.11,-16.99"/>
</g>
<!-- Node27&#45;&gt;Node6 -->
<g id="edge58" class="edge">
<title>Node27&#45;&gt;Node6</title>
<path fill="none" stroke="midnightblue" d="M98.19,-280.46C77.5,-253.43 19.12,-168.25 57,-112 108.09,-36.13 405.87,-16.78 511.7,-12.27"/>
<polygon fill="midnightblue" stroke="midnightblue" points="512.05,-15.76 521.9,-11.85 511.77,-8.76 512.05,-15.76"/>
</g>
</g>
</svg>
