<?xml version="1.0" encoding="UTF-8" standalone="no"?>
<!DOCTYPE svg PUBLIC "-//W3C//DTD SVG 1.1//EN"
 "http://www.w3.org/Graphics/SVG/1.1/DTD/svg11.dtd">
<!-- Generated by graphviz version 2.44.0 (0)
 -->
<!-- Title: TravellersApp/src/TravelState.cpp Pages: 1 -->
<svg width="1199pt" height="655pt"
 viewBox="0.00 0.00 1199.00 655.00" xmlns="http://www.w3.org/2000/svg" xmlns:xlink="http://www.w3.org/1999/xlink">
<g id="graph0" class="graph" transform="scale(1 1) rotate(0) translate(4 651)">
<title>TravellersApp/src/TravelState.cpp</title>
<polygon fill="white" stroke="transparent" points="-4,4 -4,-651 1195,-651 1195,4 -4,4"/>
<!-- Node1 -->
<g id="node1" class="node">
<title>Node1</title>
<g id="a_node1"><a xlink:title=" ">
<polygon fill="#bfbfbf" stroke="black" points="693.5,-616.5 693.5,-646.5 816.5,-646.5 816.5,-616.5 693.5,-616.5"/>
<text text-anchor="start" x="701.5" y="-634.5" font-family="Helvetica,sans-Serif" font-size="10.00">TravellersApp/src/Travel</text>
<text text-anchor="middle" x="755" y="-623.5" font-family="Helvetica,sans-Serif" font-size="10.00">State.cpp</text>
</a>
</g>
</g>
<!-- Node2 -->
<g id="node2" class="node">
<title>Node2</title>
<g id="a_node2"><a xlink:href="TravelState_8hpp.html" target="_top" xlink:title=" ">
<polygon fill="white" stroke="black" points="712.5,-560.5 712.5,-579.5 797.5,-579.5 797.5,-560.5 712.5,-560.5"/>
<text text-anchor="middle" x="755" y="-567.5" font-family="Helvetica,sans-Serif" font-size="10.00">TravelState.hpp</text>
</a>
</g>
</g>
<!-- Node1&#45;&gt;Node2 -->
<g id="edge1" class="edge">
<title>Node1&#45;&gt;Node2</title>
<path fill="none" stroke="midnightblue" d="M755,-616.4C755,-608.47 755,-598.46 755,-589.86"/>
<polygon fill="midnightblue" stroke="midnightblue" points="758.5,-589.66 755,-579.66 751.5,-589.66 758.5,-589.66"/>
</g>
<!-- Node4 -->
<g id="node4" class="node">
<title>Node4</title>
<g id="a_node4"><a xlink:title=" ">
<polygon fill="white" stroke="#bfbfbf" points="538,-448.5 538,-467.5 598,-467.5 598,-448.5 538,-448.5"/>
<text text-anchor="middle" x="568" y="-455.5" font-family="Helvetica,sans-Serif" font-size="10.00">filesystem</text>
</a>
</g>
</g>
<!-- Node1&#45;&gt;Node4 -->
<g id="edge72" class="edge">
<title>Node1&#45;&gt;Node4</title>
<path fill="none" stroke="midnightblue" d="M739.7,-616.47C705.13,-584.77 621.24,-507.82 585.06,-474.65"/>
<polygon fill="midnightblue" stroke="midnightblue" points="587.07,-471.74 577.33,-467.56 582.34,-476.9 587.07,-471.74"/>
</g>
<!-- Node10 -->
<g id="node10" class="node">
<title>Node10</title>
<g id="a_node10"><a xlink:title=" ">
<polygon fill="white" stroke="#bfbfbf" points="1051,-0.5 1051,-19.5 1097,-19.5 1097,-0.5 1051,-0.5"/>
<text text-anchor="middle" x="1074" y="-7.5" font-family="Helvetica,sans-Serif" font-size="10.00">cstring</text>
</a>
</g>
</g>
<!-- Node1&#45;&gt;Node10 -->
<g id="edge71" class="edge">
<title>Node1&#45;&gt;Node10</title>
<path fill="none" stroke="midnightblue" d="M816.54,-627.02C936.73,-618.54 1191,-591.54 1191,-515 1191,-515 1191,-515 1191,-121 1191,-73.6 1139.4,-40.64 1104.73,-23.85"/>
<polygon fill="midnightblue" stroke="midnightblue" points="1106,-20.58 1095.46,-19.54 1103.05,-26.93 1106,-20.58"/>
</g>
<!-- Node3 -->
<g id="node3" class="node">
<title>Node3</title>
<g id="a_node3"><a xlink:href="User_8hpp.html" target="_top" xlink:title=" ">
<polygon fill="white" stroke="black" points="727,-504.5 727,-523.5 783,-523.5 783,-504.5 727,-504.5"/>
<text text-anchor="middle" x="755" y="-511.5" font-family="Helvetica,sans-Serif" font-size="10.00">User.hpp</text>
</a>
</g>
</g>
<!-- Node2&#45;&gt;Node3 -->
<g id="edge2" class="edge">
<title>Node2&#45;&gt;Node3</title>
<path fill="none" stroke="midnightblue" d="M755,-560.08C755,-553.01 755,-542.86 755,-533.99"/>
<polygon fill="midnightblue" stroke="midnightblue" points="758.5,-533.75 755,-523.75 751.5,-533.75 758.5,-533.75"/>
</g>
<!-- Node5 -->
<g id="node5" class="node">
<title>Node5</title>
<g id="a_node5"><a xlink:href="VisitBuilder_8hpp.html" target="_top" xlink:title=" ">
<polygon fill="white" stroke="black" points="945,-280.5 945,-299.5 1029,-299.5 1029,-280.5 945,-280.5"/>
<text text-anchor="middle" x="987" y="-287.5" font-family="Helvetica,sans-Serif" font-size="10.00">VisitBuilder.hpp</text>
</a>
</g>
</g>
<!-- Node2&#45;&gt;Node5 -->
<g id="edge69" class="edge">
<title>Node2&#45;&gt;Node5</title>
<path fill="none" stroke="midnightblue" d="M797.78,-560.8C873.91,-544.97 1025,-507.46 1025,-459 1025,-459 1025,-459 1025,-401 1025,-366.81 1008.4,-329.76 997.14,-308.57"/>
<polygon fill="midnightblue" stroke="midnightblue" points="1000.18,-306.83 992.28,-299.77 994.05,-310.22 1000.18,-306.83"/>
</g>
<!-- Node23 -->
<g id="node23" class="node">
<title>Node23</title>
<g id="a_node23"><a xlink:href="CSV_8hpp.html" target="_top" xlink:title=" ">
<polygon fill="white" stroke="black" points="616.5,-448.5 616.5,-467.5 701.5,-467.5 701.5,-448.5 616.5,-448.5"/>
<text text-anchor="middle" x="659" y="-455.5" font-family="Helvetica,sans-Serif" font-size="10.00">parser/CSV.hpp</text>
</a>
</g>
</g>
<!-- Node2&#45;&gt;Node23 -->
<g id="edge70" class="edge">
<title>Node2&#45;&gt;Node23</title>
<path fill="none" stroke="midnightblue" d="M747.47,-560.37C731.48,-542.05 693.95,-499.05 673.28,-475.36"/>
<polygon fill="midnightblue" stroke="midnightblue" points="675.71,-472.82 666.5,-467.59 670.44,-477.43 675.71,-472.82"/>
</g>
<!-- Node3&#45;&gt;Node4 -->
<g id="edge3" class="edge">
<title>Node3&#45;&gt;Node4</title>
<path fill="none" stroke="midnightblue" d="M726.6,-504.8C694.75,-495.6 642.9,-480.63 607.21,-470.32"/>
<polygon fill="midnightblue" stroke="midnightblue" points="608.18,-466.96 597.6,-467.55 606.23,-473.68 608.18,-466.96"/>
</g>
<!-- Node3&#45;&gt;Node5 -->
<g id="edge4" class="edge">
<title>Node3&#45;&gt;Node5</title>
<path fill="none" stroke="midnightblue" d="M781.05,-504.46C801.26,-496.99 829.24,-484.7 850,-468 908.98,-420.57 957.52,-342.85 977.36,-308.39"/>
<polygon fill="midnightblue" stroke="midnightblue" points="980.5,-309.95 982.38,-299.52 974.41,-306.5 980.5,-309.95"/>
</g>
<!-- Node11 -->
<g id="node11" class="node">
<title>Node11</title>
<g id="a_node11"><a xlink:href="ArrayList_8hpp.html" target="_top" xlink:title=" ">
<polygon fill="white" stroke="black" points="617,-224.5 617,-243.5 735,-243.5 735,-224.5 617,-224.5"/>
<text text-anchor="middle" x="676" y="-231.5" font-family="Helvetica,sans-Serif" font-size="10.00">collection/ArrayList.hpp</text>
</a>
</g>
</g>
<!-- Node3&#45;&gt;Node11 -->
<g id="edge36" class="edge">
<title>Node3&#45;&gt;Node11</title>
<path fill="none" stroke="midnightblue" d="M756.7,-504.48C760.22,-486.06 768,-441.08 768,-403 768,-403 768,-403 768,-345 768,-302.5 727.09,-267.77 699.83,-249.34"/>
<polygon fill="midnightblue" stroke="midnightblue" points="701.49,-246.24 691.19,-243.73 697.67,-252.11 701.49,-246.24"/>
</g>
<!-- Node21 -->
<g id="node21" class="node">
<title>Node21</title>
<g id="a_node21"><a xlink:title=" ">
<polygon fill="white" stroke="#bfbfbf" points="345.5,-112.5 345.5,-131.5 390.5,-131.5 390.5,-112.5 345.5,-112.5"/>
<text text-anchor="middle" x="368" y="-119.5" font-family="Helvetica,sans-Serif" font-size="10.00">cstdlib</text>
</a>
</g>
</g>
<!-- Node3&#45;&gt;Node21 -->
<g id="edge67" class="edge">
<title>Node3&#45;&gt;Node21</title>
<path fill="none" stroke="midnightblue" d="M751.06,-504.13C744.48,-490.27 729.98,-463.45 710,-448 616.01,-375.31 543.89,-439.13 459,-356 396.34,-294.64 375.91,-185.09 370.08,-141.57"/>
<polygon fill="midnightblue" stroke="midnightblue" points="373.54,-141.06 368.84,-131.56 366.59,-141.91 373.54,-141.06"/>
</g>
<!-- Node3&#45;&gt;Node23 -->
<g id="edge37" class="edge">
<title>Node3&#45;&gt;Node23</title>
<path fill="none" stroke="midnightblue" d="M739.58,-504.32C724.46,-495.82 701.18,-482.73 683.53,-472.8"/>
<polygon fill="midnightblue" stroke="midnightblue" points="684.82,-469.51 674.39,-467.65 681.39,-475.61 684.82,-469.51"/>
</g>
<!-- Node31 -->
<g id="node31" class="node">
<title>Node31</title>
<g id="a_node31"><a xlink:title=" ">
<polygon fill="white" stroke="#bfbfbf" points="796.5,-448.5 796.5,-467.5 841.5,-467.5 841.5,-448.5 796.5,-448.5"/>
<text text-anchor="middle" x="819" y="-455.5" font-family="Helvetica,sans-Serif" font-size="10.00">stdio.h</text>
</a>
</g>
</g>
<!-- Node3&#45;&gt;Node31 -->
<g id="edge68" class="edge">
<title>Node3&#45;&gt;Node31</title>
<path fill="none" stroke="midnightblue" d="M765.28,-504.32C774.84,-496.26 789.28,-484.08 800.78,-474.37"/>
<polygon fill="midnightblue" stroke="midnightblue" points="803.14,-476.96 808.53,-467.83 798.63,-471.61 803.14,-476.96"/>
</g>
<!-- Node6 -->
<g id="node6" class="node">
<title>Node6</title>
<g id="a_node6"><a xlink:href="Date_8hpp.html" target="_top" xlink:title=" ">
<polygon fill="white" stroke="black" points="917.5,-168.5 917.5,-187.5 972.5,-187.5 972.5,-168.5 917.5,-168.5"/>
<text text-anchor="middle" x="945" y="-175.5" font-family="Helvetica,sans-Serif" font-size="10.00">Date.hpp</text>
</a>
</g>
</g>
<!-- Node5&#45;&gt;Node6 -->
<g id="edge5" class="edge">
<title>Node5&#45;&gt;Node6</title>
<path fill="none" stroke="midnightblue" d="M983.7,-280.37C976.87,-262.46 961.01,-220.92 951.85,-196.95"/>
<polygon fill="midnightblue" stroke="midnightblue" points="955.12,-195.69 948.28,-187.59 948.58,-198.18 955.12,-195.69"/>
</g>
<!-- Node8 -->
<g id="node8" class="node">
<title>Node8</title>
<g id="a_node8"><a xlink:href="SimpleString_8hpp.html" target="_top" xlink:title=" ">
<polygon fill="white" stroke="black" points="984,-224.5 984,-243.5 1074,-243.5 1074,-224.5 984,-224.5"/>
<text text-anchor="middle" x="1029" y="-231.5" font-family="Helvetica,sans-Serif" font-size="10.00">SimpleString.hpp</text>
</a>
</g>
</g>
<!-- Node5&#45;&gt;Node8 -->
<g id="edge7" class="edge">
<title>Node5&#45;&gt;Node8</title>
<path fill="none" stroke="midnightblue" d="M993.94,-280.08C999.93,-272.38 1008.75,-261.03 1016.05,-251.65"/>
<polygon fill="midnightblue" stroke="midnightblue" points="1018.82,-253.79 1022.19,-243.75 1013.29,-249.5 1018.82,-253.79"/>
</g>
<!-- Node5&#45;&gt;Node11 -->
<g id="edge11" class="edge">
<title>Node5&#45;&gt;Node11</title>
<path fill="none" stroke="midnightblue" d="M944.73,-281.66C890.54,-272.25 796.26,-255.88 735.01,-245.25"/>
<polygon fill="midnightblue" stroke="midnightblue" points="735.55,-241.79 725.1,-243.52 734.35,-248.68 735.55,-241.79"/>
</g>
<!-- Node7 -->
<g id="node7" class="node">
<title>Node7</title>
<g id="a_node7"><a xlink:title=" ">
<polygon fill="white" stroke="#bfbfbf" points="488,-0.5 488,-19.5 542,-19.5 542,-0.5 488,-0.5"/>
<text text-anchor="middle" x="515" y="-7.5" font-family="Helvetica,sans-Serif" font-size="10.00">iostream</text>
</a>
</g>
</g>
<!-- Node6&#45;&gt;Node7 -->
<g id="edge6" class="edge">
<title>Node6&#45;&gt;Node7</title>
<path fill="none" stroke="midnightblue" d="M933.04,-168.45C912.59,-154.28 869.1,-126.1 828,-112 729.3,-78.14 691.48,-118.08 596,-76 569.87,-64.48 545.06,-42.34 529.95,-27.12"/>
<polygon fill="midnightblue" stroke="midnightblue" points="532.44,-24.66 522.97,-19.89 527.4,-29.52 532.44,-24.66"/>
</g>
<!-- Node8&#45;&gt;Node7 -->
<g id="edge10" class="edge">
<title>Node8&#45;&gt;Node7</title>
<path fill="none" stroke="midnightblue" d="M1024.47,-224.37C1016.99,-210.83 1000.9,-184.44 981,-168 856.35,-65 781.68,-129.25 629,-76 612.08,-70.1 609.56,-64.88 594,-56 575.61,-45.51 554.8,-33.65 539.15,-24.75"/>
<polygon fill="midnightblue" stroke="midnightblue" points="540.57,-21.53 530.15,-19.62 537.11,-27.61 540.57,-21.53"/>
</g>
<!-- Node9 -->
<g id="node9" class="node">
<title>Node9</title>
<g id="a_node9"><a xlink:href="debug_8hpp.html" target="_top" xlink:title=" ">
<polygon fill="white" stroke="black" points="770.5,-56.5 770.5,-75.5 831.5,-75.5 831.5,-56.5 770.5,-56.5"/>
<text text-anchor="middle" x="801" y="-63.5" font-family="Helvetica,sans-Serif" font-size="10.00">debug.hpp</text>
</a>
</g>
</g>
<!-- Node8&#45;&gt;Node9 -->
<g id="edge8" class="edge">
<title>Node8&#45;&gt;Node9</title>
<path fill="none" stroke="midnightblue" d="M1034.85,-224.5C1048.9,-202.95 1081.34,-145.53 1053,-112 1023.77,-77.41 902.03,-84.41 841.77,-75.95"/>
<polygon fill="midnightblue" stroke="midnightblue" points="842.06,-72.45 831.62,-74.25 840.9,-79.35 842.06,-72.45"/>
</g>
<!-- Node8&#45;&gt;Node10 -->
<g id="edge9" class="edge">
<title>Node8&#45;&gt;Node10</title>
<path fill="none" stroke="midnightblue" d="M1041.76,-224.36C1052.36,-216.35 1066.69,-203.36 1073,-188 1095.15,-134.1 1085.03,-62.92 1078.3,-29.65"/>
<polygon fill="midnightblue" stroke="midnightblue" points="1081.65,-28.58 1076.12,-19.55 1074.81,-30.06 1081.65,-28.58"/>
</g>
<!-- Node11&#45;&gt;Node7 -->
<g id="edge13" class="edge">
<title>Node11&#45;&gt;Node7</title>
<path fill="none" stroke="midnightblue" d="M646.89,-224.46C608.67,-211.5 543.11,-182.82 515,-132 497.1,-99.64 503.82,-54.57 509.76,-29.57"/>
<polygon fill="midnightblue" stroke="midnightblue" points="513.22,-30.17 512.35,-19.61 506.45,-28.41 513.22,-30.17"/>
</g>
<!-- Node11&#45;&gt;Node9 -->
<g id="edge19" class="edge">
<title>Node11&#45;&gt;Node9</title>
<path fill="none" stroke="midnightblue" d="M675.18,-224.42C674.32,-211.41 674.25,-186.25 684,-168 705.13,-128.45 748.53,-97.49 776.12,-80.77"/>
<polygon fill="midnightblue" stroke="midnightblue" points="777.97,-83.74 784.81,-75.65 774.42,-77.71 777.97,-83.74"/>
</g>
<!-- Node12 -->
<g id="node12" class="node">
<title>Node12</title>
<g id="a_node12"><a xlink:title=" ">
<polygon fill="white" stroke="#bfbfbf" points="408.5,-112.5 408.5,-131.5 467.5,-131.5 467.5,-112.5 408.5,-112.5"/>
<text text-anchor="middle" x="438" y="-119.5" font-family="Helvetica,sans-Serif" font-size="10.00">functional</text>
</a>
</g>
</g>
<!-- Node11&#45;&gt;Node12 -->
<g id="edge12" class="edge">
<title>Node11&#45;&gt;Node12</title>
<path fill="none" stroke="midnightblue" d="M616.88,-227.14C561.48,-220.52 483.86,-207.99 461,-188 447.64,-176.32 442.04,-156.38 439.7,-141.65"/>
<polygon fill="midnightblue" stroke="midnightblue" points="443.16,-141.13 438.46,-131.63 436.21,-141.99 443.16,-141.13"/>
</g>
<!-- Node13 -->
<g id="node13" class="node">
<title>Node13</title>
<g id="a_node13"><a xlink:title=" ">
<polygon fill="white" stroke="#bfbfbf" points="768.5,-112.5 768.5,-131.5 819.5,-131.5 819.5,-112.5 768.5,-112.5"/>
<text text-anchor="middle" x="794" y="-119.5" font-family="Helvetica,sans-Serif" font-size="10.00">memory</text>
</a>
</g>
</g>
<!-- Node11&#45;&gt;Node13 -->
<g id="edge14" class="edge">
<title>Node11&#45;&gt;Node13</title>
<path fill="none" stroke="midnightblue" d="M698.08,-224.41C715.4,-216.83 739.3,-204.43 756,-188 769.66,-174.56 780.14,-155.19 786.6,-141.1"/>
<polygon fill="midnightblue" stroke="midnightblue" points="789.98,-142.1 790.74,-131.53 783.56,-139.32 789.98,-142.1"/>
</g>
<!-- Node14 -->
<g id="node14" class="node">
<title>Node14</title>
<g id="a_node14"><a xlink:href="InvalidArgumentException_8hpp.html" target="_top" xlink:title=" ">
<polygon fill="white" stroke="black" points="849.5,-56.5 849.5,-75.5 1004.5,-75.5 1004.5,-56.5 849.5,-56.5"/>
<text text-anchor="middle" x="927" y="-63.5" font-family="Helvetica,sans-Serif" font-size="10.00">../InvalidArgumentException.hpp</text>
</a>
</g>
</g>
<!-- Node11&#45;&gt;Node14 -->
<g id="edge15" class="edge">
<title>Node11&#45;&gt;Node14</title>
<path fill="none" stroke="midnightblue" d="M700.4,-224.35C721.65,-216.33 752.9,-203.35 778,-188 830.33,-156 884.44,-107.46 910.72,-82.71"/>
<polygon fill="midnightblue" stroke="midnightblue" points="913.4,-84.99 918.23,-75.56 908.58,-79.92 913.4,-84.99"/>
</g>
<!-- Node16 -->
<g id="node16" class="node">
<title>Node16</title>
<g id="a_node16"><a xlink:href="Nullable_8hpp.html" target="_top" xlink:title=" ">
<polygon fill="white" stroke="black" points="524.5,-112.5 524.5,-131.5 601.5,-131.5 601.5,-112.5 524.5,-112.5"/>
<text text-anchor="middle" x="563" y="-119.5" font-family="Helvetica,sans-Serif" font-size="10.00">../Nullable.hpp</text>
</a>
</g>
</g>
<!-- Node11&#45;&gt;Node16 -->
<g id="edge20" class="edge">
<title>Node11&#45;&gt;Node16</title>
<path fill="none" stroke="midnightblue" d="M667.13,-224.37C648.15,-205.89 603.36,-162.29 579.17,-138.74"/>
<polygon fill="midnightblue" stroke="midnightblue" points="581.43,-136.06 571.83,-131.59 576.55,-141.07 581.43,-136.06"/>
</g>
<!-- Node18 -->
<g id="node18" class="node">
<title>Node18</title>
<g id="a_node18"><a xlink:href="IList_8hpp.html" target="_top" xlink:title=" ">
<polygon fill="white" stroke="black" points="693,-168.5 693,-187.5 747,-187.5 747,-168.5 693,-168.5"/>
<text text-anchor="middle" x="720" y="-175.5" font-family="Helvetica,sans-Serif" font-size="10.00">IList.hpp</text>
</a>
</g>
</g>
<!-- Node11&#45;&gt;Node18 -->
<g id="edge27" class="edge">
<title>Node11&#45;&gt;Node18</title>
<path fill="none" stroke="midnightblue" d="M683.27,-224.08C689.54,-216.38 698.79,-205.03 706.43,-195.65"/>
<polygon fill="midnightblue" stroke="midnightblue" points="709.27,-197.71 712.87,-187.75 703.84,-193.29 709.27,-197.71"/>
</g>
<!-- Node19 -->
<g id="node19" class="node">
<title>Node19</title>
<g id="a_node19"><a xlink:href="Tuple_8hpp.html" target="_top" xlink:title=" ">
<polygon fill="white" stroke="black" points="235.5,-168.5 235.5,-187.5 294.5,-187.5 294.5,-168.5 235.5,-168.5"/>
<text text-anchor="middle" x="265" y="-175.5" font-family="Helvetica,sans-Serif" font-size="10.00">Tuple.hpp</text>
</a>
</g>
</g>
<!-- Node11&#45;&gt;Node19 -->
<g id="edge30" class="edge">
<title>Node11&#45;&gt;Node19</title>
<path fill="none" stroke="midnightblue" d="M616.68,-225.21C531.61,-214.03 377.24,-193.75 304.69,-184.21"/>
<polygon fill="midnightblue" stroke="midnightblue" points="304.97,-180.72 294.6,-182.89 304.06,-187.66 304.97,-180.72"/>
</g>
<!-- Node14&#45;&gt;Node7 -->
<g id="edge18" class="edge">
<title>Node14&#45;&gt;Node7</title>
<path fill="none" stroke="midnightblue" d="M861.72,-56.44C774.31,-44.99 622.16,-25.04 552.17,-15.87"/>
<polygon fill="midnightblue" stroke="midnightblue" points="552.43,-12.38 542.06,-14.55 551.52,-19.32 552.43,-12.38"/>
</g>
<!-- Node14&#45;&gt;Node10 -->
<g id="edge16" class="edge">
<title>Node14&#45;&gt;Node10</title>
<path fill="none" stroke="midnightblue" d="M950.29,-56.44C974.81,-47.44 1013.6,-33.19 1041.2,-23.05"/>
<polygon fill="midnightblue" stroke="midnightblue" points="1042.64,-26.25 1050.82,-19.52 1040.22,-19.68 1042.64,-26.25"/>
</g>
<!-- Node15 -->
<g id="node15" class="node">
<title>Node15</title>
<g id="a_node15"><a xlink:title=" ">
<polygon fill="white" stroke="#bfbfbf" points="782,-0.5 782,-19.5 840,-19.5 840,-0.5 782,-0.5"/>
<text text-anchor="middle" x="811" y="-7.5" font-family="Helvetica,sans-Serif" font-size="10.00">exception</text>
</a>
</g>
</g>
<!-- Node14&#45;&gt;Node15 -->
<g id="edge17" class="edge">
<title>Node14&#45;&gt;Node15</title>
<path fill="none" stroke="midnightblue" d="M908.62,-56.44C889.78,-47.68 860.27,-33.94 838.62,-23.86"/>
<polygon fill="midnightblue" stroke="midnightblue" points="839.84,-20.56 829.29,-19.52 836.88,-26.91 839.84,-20.56"/>
</g>
<!-- Node16&#45;&gt;Node7 -->
<g id="edge26" class="edge">
<title>Node16&#45;&gt;Node7</title>
<path fill="none" stroke="midnightblue" d="M559.23,-112.37C551.42,-94.46 533.29,-52.92 522.83,-28.95"/>
<polygon fill="midnightblue" stroke="midnightblue" points="525.96,-27.36 518.75,-19.59 519.54,-30.16 525.96,-27.36"/>
</g>
<!-- Node16&#45;&gt;Node9 -->
<g id="edge25" class="edge">
<title>Node16&#45;&gt;Node9</title>
<path fill="none" stroke="midnightblue" d="M600.71,-112.44C644.25,-102.57 715.58,-86.38 760.33,-76.23"/>
<polygon fill="midnightblue" stroke="midnightblue" points="761.3,-79.6 770.28,-73.97 759.75,-72.77 761.3,-79.6"/>
</g>
<!-- Node17 -->
<g id="node17" class="node">
<title>Node17</title>
<g id="a_node17"><a xlink:href="NoValueException_8hpp.html" target="_top" xlink:title=" ">
<polygon fill="white" stroke="black" points="638,-56.5 638,-75.5 752,-75.5 752,-56.5 638,-56.5"/>
<text text-anchor="middle" x="695" y="-63.5" font-family="Helvetica,sans-Serif" font-size="10.00">NoValueException.hpp</text>
</a>
</g>
</g>
<!-- Node16&#45;&gt;Node17 -->
<g id="edge21" class="edge">
<title>Node16&#45;&gt;Node17</title>
<path fill="none" stroke="midnightblue" d="M583.92,-112.44C605.74,-103.52 640.15,-89.44 664.89,-79.32"/>
<polygon fill="midnightblue" stroke="midnightblue" points="666.25,-82.54 674.18,-75.52 663.6,-76.06 666.25,-82.54"/>
</g>
<!-- Node17&#45;&gt;Node7 -->
<g id="edge24" class="edge">
<title>Node17&#45;&gt;Node7</title>
<path fill="none" stroke="midnightblue" d="M666.48,-56.44C635.57,-47.17 586.14,-32.34 552.21,-22.16"/>
<polygon fill="midnightblue" stroke="midnightblue" points="552.79,-18.68 542.21,-19.16 550.78,-25.39 552.79,-18.68"/>
</g>
<!-- Node17&#45;&gt;Node10 -->
<g id="edge22" class="edge">
<title>Node17&#45;&gt;Node10</title>
<path fill="none" stroke="midnightblue" d="M752.15,-56.86C832.46,-45.41 976.13,-24.95 1040.82,-15.73"/>
<polygon fill="midnightblue" stroke="midnightblue" points="1041.46,-19.17 1050.86,-14.3 1040.47,-12.24 1041.46,-19.17"/>
</g>
<!-- Node17&#45;&gt;Node15 -->
<g id="edge23" class="edge">
<title>Node17&#45;&gt;Node15</title>
<path fill="none" stroke="midnightblue" d="M713.38,-56.44C732.22,-47.68 761.73,-33.94 783.38,-23.86"/>
<polygon fill="midnightblue" stroke="midnightblue" points="785.12,-26.91 792.71,-19.52 782.16,-20.56 785.12,-26.91"/>
</g>
<!-- Node18&#45;&gt;Node13 -->
<g id="edge29" class="edge">
<title>Node18&#45;&gt;Node13</title>
<path fill="none" stroke="midnightblue" d="M731.89,-168.32C743.15,-160.11 760.29,-147.6 773.71,-137.81"/>
<polygon fill="midnightblue" stroke="midnightblue" points="775.88,-140.56 781.89,-131.83 771.75,-134.9 775.88,-140.56"/>
</g>
<!-- Node18&#45;&gt;Node16 -->
<g id="edge28" class="edge">
<title>Node18&#45;&gt;Node16</title>
<path fill="none" stroke="midnightblue" d="M695.12,-168.44C668.71,-159.36 626.78,-144.94 597.26,-134.78"/>
<polygon fill="midnightblue" stroke="midnightblue" points="598.36,-131.46 587.76,-131.52 596.08,-138.08 598.36,-131.46"/>
</g>
<!-- Node19&#45;&gt;Node7 -->
<g id="edge34" class="edge">
<title>Node19&#45;&gt;Node7</title>
<path fill="none" stroke="midnightblue" d="M260.25,-168.14C253.79,-154.75 244.3,-129.12 256,-112 306.35,-38.32 419.08,-18.39 477.81,-13"/>
<polygon fill="midnightblue" stroke="midnightblue" points="478.1,-16.48 487.78,-12.17 477.53,-9.51 478.1,-16.48"/>
</g>
<!-- Node19&#45;&gt;Node12 -->
<g id="edge33" class="edge">
<title>Node19&#45;&gt;Node12</title>
<path fill="none" stroke="midnightblue" d="M292.41,-168.44C321.77,-159.28 368.52,-144.69 401.1,-134.52"/>
<polygon fill="midnightblue" stroke="midnightblue" points="402.21,-137.84 410.72,-131.52 400.13,-131.16 402.21,-137.84"/>
</g>
<!-- Node20 -->
<g id="node20" class="node">
<title>Node20</title>
<g id="a_node20"><a xlink:href="ttype_8hpp.html" target="_top" xlink:title=" ">
<polygon fill="white" stroke="black" points="24.5,-112.5 24.5,-131.5 87.5,-131.5 87.5,-112.5 24.5,-112.5"/>
<text text-anchor="middle" x="56" y="-119.5" font-family="Helvetica,sans-Serif" font-size="10.00">../ttype.hpp</text>
</a>
</g>
</g>
<!-- Node19&#45;&gt;Node20 -->
<g id="edge31" class="edge">
<title>Node19&#45;&gt;Node20</title>
<path fill="none" stroke="midnightblue" d="M235.5,-169.38C199.5,-160.08 138.42,-144.29 97.65,-133.76"/>
<polygon fill="midnightblue" stroke="midnightblue" points="98.3,-130.32 87.75,-131.2 96.55,-137.09 98.3,-130.32"/>
</g>
<!-- Node19&#45;&gt;Node21 -->
<g id="edge32" class="edge">
<title>Node19&#45;&gt;Node21</title>
<path fill="none" stroke="midnightblue" d="M281.55,-168.32C297.99,-159.7 323.43,-146.36 342.47,-136.39"/>
<polygon fill="midnightblue" stroke="midnightblue" points="344.26,-139.4 351.49,-131.65 341.01,-133.2 344.26,-139.4"/>
</g>
<!-- Node22 -->
<g id="node22" class="node">
<title>Node22</title>
<g id="a_node22"><a xlink:title=" ">
<polygon fill="white" stroke="#bfbfbf" points="265,-112.5 265,-131.5 327,-131.5 327,-112.5 265,-112.5"/>
<text text-anchor="middle" x="296" y="-119.5" font-family="Helvetica,sans-Serif" font-size="10.00">type_traits</text>
</a>
</g>
</g>
<!-- Node19&#45;&gt;Node22 -->
<g id="edge35" class="edge">
<title>Node19&#45;&gt;Node22</title>
<path fill="none" stroke="midnightblue" d="M270.12,-168.08C274.41,-160.61 280.66,-149.72 285.94,-140.52"/>
<polygon fill="midnightblue" stroke="midnightblue" points="289.03,-142.17 290.98,-131.75 282.96,-138.68 289.03,-142.17"/>
</g>
<!-- Node23&#45;&gt;Node8 -->
<g id="edge38" class="edge">
<title>Node23&#45;&gt;Node8</title>
<path fill="none" stroke="midnightblue" d="M671.38,-448.34C709.73,-421.67 830.39,-339.02 936,-280 957.07,-268.23 981.68,-256.4 1000.29,-247.83"/>
<polygon fill="midnightblue" stroke="midnightblue" points="1001.78,-250.99 1009.42,-243.66 998.87,-244.62 1001.78,-250.99"/>
</g>
<!-- Node23&#45;&gt;Node11 -->
<g id="edge39" class="edge">
<title>Node23&#45;&gt;Node11</title>
<path fill="none" stroke="midnightblue" d="M659.67,-448.3C662.17,-415.63 671.03,-299.87 674.55,-253.96"/>
<polygon fill="midnightblue" stroke="midnightblue" points="678.05,-254.12 675.32,-243.88 671.07,-253.59 678.05,-254.12"/>
</g>
<!-- Node23&#45;&gt;Node19 -->
<g id="edge40" class="edge">
<title>Node23&#45;&gt;Node19</title>
<path fill="none" stroke="midnightblue" d="M616.24,-449.54C549.74,-437.92 427.09,-416.37 407,-412 293.55,-387.33 154,-463.1 154,-347 154,-347 154,-347 154,-289 154,-242.82 203.06,-209.43 235.95,-192.23"/>
<polygon fill="midnightblue" stroke="midnightblue" points="237.79,-195.22 245.16,-187.61 234.65,-188.96 237.79,-195.22"/>
</g>
<!-- Node23&#45;&gt;Node20 -->
<g id="edge41" class="edge">
<title>Node23&#45;&gt;Node20</title>
<path fill="none" stroke="midnightblue" d="M616.48,-449.32C613.28,-448.84 610.09,-448.39 607,-448 508.8,-435.55 255.4,-447.51 163,-412 118.61,-394.94 78,-394.56 78,-347 78,-347 78,-347 78,-233 78,-200.33 68.55,-163.24 62.04,-141.55"/>
<polygon fill="midnightblue" stroke="midnightblue" points="65.29,-140.22 58.97,-131.72 58.61,-142.31 65.29,-140.22"/>
</g>
<!-- Node24 -->
<g id="node24" class="node">
<title>Node24</title>
<g id="a_node24"><a xlink:href="Scanner_8hpp.html" target="_top" xlink:title=" ">
<polygon fill="white" stroke="black" points="416.5,-392.5 416.5,-411.5 487.5,-411.5 487.5,-392.5 416.5,-392.5"/>
<text text-anchor="middle" x="452" y="-399.5" font-family="Helvetica,sans-Serif" font-size="10.00">Scanner.hpp</text>
</a>
</g>
</g>
<!-- Node23&#45;&gt;Node24 -->
<g id="edge42" class="edge">
<title>Node23&#45;&gt;Node24</title>
<path fill="none" stroke="midnightblue" d="M626.2,-448.44C590.62,-439.16 533.69,-424.31 494.65,-414.13"/>
<polygon fill="midnightblue" stroke="midnightblue" points="495.21,-410.65 484.65,-411.52 493.44,-417.43 495.21,-410.65"/>
</g>
<!-- Node30 -->
<g id="node30" class="node">
<title>Node30</title>
<g id="a_node30"><a xlink:title=" ">
<polygon fill="white" stroke="#bfbfbf" points="0,-392.5 0,-411.5 50,-411.5 50,-392.5 0,-392.5"/>
<text text-anchor="middle" x="25" y="-399.5" font-family="Helvetica,sans-Serif" font-size="10.00">fstream</text>
</a>
</g>
</g>
<!-- Node23&#45;&gt;Node30 -->
<g id="edge66" class="edge">
<title>Node23&#45;&gt;Node30</title>
<path fill="none" stroke="midnightblue" d="M616.49,-449.27C613.28,-448.8 610.09,-448.37 607,-448 366.84,-419.34 303.27,-447.31 64,-412 62.72,-411.81 61.43,-411.6 60.12,-411.38"/>
<polygon fill="midnightblue" stroke="midnightblue" points="60.55,-407.9 50.06,-409.41 59.2,-414.77 60.55,-407.9"/>
</g>
<!-- Node24&#45;&gt;Node7 -->
<g id="edge65" class="edge">
<title>Node24&#45;&gt;Node7</title>
<path fill="none" stroke="midnightblue" d="M416.36,-397.02C329.89,-386.37 116,-353.68 116,-291 116,-291 116,-291 116,-121 116,-46.38 378.6,-20.44 477.72,-13.3"/>
<polygon fill="midnightblue" stroke="midnightblue" points="478.16,-16.78 487.89,-12.6 477.67,-9.8 478.16,-16.78"/>
</g>
<!-- Node24&#45;&gt;Node10 -->
<g id="edge64" class="edge">
<title>Node24&#45;&gt;Node10</title>
<path fill="none" stroke="midnightblue" d="M487.63,-398.16C599.7,-388.74 943.15,-355.86 1038,-300 1113.93,-255.28 1103.36,-200.09 1101,-112 1100.33,-87.08 1104.69,-80.01 1098,-56 1095.3,-46.31 1090.27,-36.37 1085.52,-28.29"/>
<polygon fill="midnightblue" stroke="midnightblue" points="1088.48,-26.43 1080.21,-19.81 1082.54,-30.14 1088.48,-26.43"/>
</g>
<!-- Node24&#45;&gt;Node11 -->
<g id="edge43" class="edge">
<title>Node24&#45;&gt;Node11</title>
<path fill="none" stroke="midnightblue" d="M487.59,-392.72C512.73,-385.71 546.37,-373.9 572,-356 613.28,-327.16 648.37,-278.27 665.25,-252.34"/>
<polygon fill="midnightblue" stroke="midnightblue" points="668.39,-253.94 670.8,-243.62 662.48,-250.18 668.39,-253.94"/>
</g>
<!-- Node25 -->
<g id="node25" class="node">
<title>Node25</title>
<g id="a_node25"><a xlink:href="CommandList_8hpp.html" target="_top" xlink:title=" ">
<polygon fill="white" stroke="black" points="468.5,-336.5 468.5,-355.5 563.5,-355.5 563.5,-336.5 468.5,-336.5"/>
<text text-anchor="middle" x="516" y="-343.5" font-family="Helvetica,sans-Serif" font-size="10.00">CommandList.hpp</text>
</a>
</g>
</g>
<!-- Node24&#45;&gt;Node25 -->
<g id="edge44" class="edge">
<title>Node24&#45;&gt;Node25</title>
<path fill="none" stroke="midnightblue" d="M462.28,-392.32C471.84,-384.26 486.28,-372.08 497.78,-362.37"/>
<polygon fill="midnightblue" stroke="midnightblue" points="500.14,-364.96 505.53,-355.83 495.63,-359.61 500.14,-364.96"/>
</g>
<!-- Node27 -->
<g id="node27" class="node">
<title>Node27</title>
<g id="a_node27"><a xlink:href="ScannerContext_8hpp.html" target="_top" xlink:title=" ">
<polygon fill="white" stroke="black" points="262,-280.5 262,-299.5 366,-299.5 366,-280.5 262,-280.5"/>
<text text-anchor="middle" x="314" y="-287.5" font-family="Helvetica,sans-Serif" font-size="10.00">ScannerContext.hpp</text>
</a>
</g>
</g>
<!-- Node24&#45;&gt;Node27 -->
<g id="edge61" class="edge">
<title>Node24&#45;&gt;Node27</title>
<path fill="none" stroke="midnightblue" d="M424.34,-392.43C404.05,-385.13 376.72,-373.1 357,-356 341.86,-342.88 329.85,-323.19 322.41,-308.92"/>
<polygon fill="midnightblue" stroke="midnightblue" points="325.4,-307.07 317.83,-299.66 319.13,-310.18 325.4,-307.07"/>
</g>
<!-- Node28 -->
<g id="node28" class="node">
<title>Node28</title>
<g id="a_node28"><a xlink:href="Token_8hpp.html" target="_top" xlink:title=" ">
<polygon fill="white" stroke="black" points="182,-280.5 182,-299.5 244,-299.5 244,-280.5 182,-280.5"/>
<text text-anchor="middle" x="213" y="-287.5" font-family="Helvetica,sans-Serif" font-size="10.00">Token.hpp</text>
</a>
</g>
</g>
<!-- Node24&#45;&gt;Node28 -->
<g id="edge62" class="edge">
<title>Node24&#45;&gt;Node28</title>
<path fill="none" stroke="midnightblue" d="M427.67,-392.49C403.96,-383.99 367.05,-370.17 336,-356 300.7,-339.89 261.26,-318.4 236.78,-304.63"/>
<polygon fill="midnightblue" stroke="midnightblue" points="238.29,-301.46 227.87,-299.58 234.84,-307.55 238.29,-301.46"/>
</g>
<!-- Node29 -->
<g id="node29" class="node">
<title>Node29</title>
<g id="a_node29"><a xlink:title=" ">
<polygon fill="white" stroke="#bfbfbf" points="366.5,-336.5 366.5,-355.5 411.5,-355.5 411.5,-336.5 366.5,-336.5"/>
<text text-anchor="middle" x="389" y="-343.5" font-family="Helvetica,sans-Serif" font-size="10.00">cctype</text>
</a>
</g>
</g>
<!-- Node24&#45;&gt;Node29 -->
<g id="edge63" class="edge">
<title>Node24&#45;&gt;Node29</title>
<path fill="none" stroke="midnightblue" d="M441.88,-392.32C432.47,-384.26 418.26,-372.08 406.93,-362.37"/>
<polygon fill="midnightblue" stroke="midnightblue" points="409.18,-359.68 399.31,-355.83 404.62,-365 409.18,-359.68"/>
</g>
<!-- Node25&#45;&gt;Node8 -->
<g id="edge45" class="edge">
<title>Node25&#45;&gt;Node8</title>
<path fill="none" stroke="midnightblue" d="M555.83,-336.46C648.35,-316.62 877.62,-267.46 979.2,-245.68"/>
<polygon fill="midnightblue" stroke="midnightblue" points="980.15,-249.05 989.2,-243.53 978.69,-242.21 980.15,-249.05"/>
</g>
<!-- Node25&#45;&gt;Node13 -->
<g id="edge60" class="edge">
<title>Node25&#45;&gt;Node13</title>
<path fill="none" stroke="midnightblue" d="M561.87,-336.42C616.51,-324.17 707.93,-297.03 768,-244 795.35,-219.86 801.02,-204.42 799,-168 798.52,-159.36 797.53,-149.83 796.55,-141.77"/>
<polygon fill="midnightblue" stroke="midnightblue" points="799.99,-141.07 795.24,-131.6 793.05,-141.97 799.99,-141.07"/>
</g>
<!-- Node25&#45;&gt;Node16 -->
<g id="edge46" class="edge">
<title>Node25&#45;&gt;Node16</title>
<path fill="none" stroke="midnightblue" d="M494.19,-336.45C479.06,-329.22 460.05,-317.26 451,-300 446.87,-292.13 448.29,-288.47 451,-280 469.87,-221.05 519.9,-165.36 546.24,-138.97"/>
<polygon fill="midnightblue" stroke="midnightblue" points="548.91,-141.25 553.59,-131.75 544,-136.26 548.91,-141.25"/>
</g>
<!-- Node26 -->
<g id="node26" class="node">
<title>Node26</title>
<g id="a_node26"><a xlink:href="HashMap_8hpp.html" target="_top" xlink:title=" ">
<polygon fill="white" stroke="black" points="460,-280.5 460,-299.5 588,-299.5 588,-280.5 460,-280.5"/>
<text text-anchor="middle" x="524" y="-287.5" font-family="Helvetica,sans-Serif" font-size="10.00">../collection/HashMap.hpp</text>
</a>
</g>
</g>
<!-- Node25&#45;&gt;Node26 -->
<g id="edge47" class="edge">
<title>Node25&#45;&gt;Node26</title>
<path fill="none" stroke="midnightblue" d="M517.32,-336.08C518.38,-328.93 519.91,-318.64 521.23,-309.69"/>
<polygon fill="midnightblue" stroke="midnightblue" points="524.7,-310.16 522.7,-299.75 517.78,-309.13 524.7,-310.16"/>
</g>
<!-- Node25&#45;&gt;Node27 -->
<g id="edge56" class="edge">
<title>Node25&#45;&gt;Node27</title>
<path fill="none" stroke="midnightblue" d="M483.99,-336.44C449.27,-327.16 393.71,-312.31 355.62,-302.13"/>
<polygon fill="midnightblue" stroke="midnightblue" points="356.42,-298.72 345.86,-299.52 354.61,-305.48 356.42,-298.72"/>
</g>
<!-- Node25&#45;&gt;Node28 -->
<g id="edge58" class="edge">
<title>Node25&#45;&gt;Node28</title>
<path fill="none" stroke="midnightblue" d="M468.35,-337.61C417.73,-329.59 335.1,-316.01 254.71,-300.26"/>
<polygon fill="midnightblue" stroke="midnightblue" points="254.9,-296.73 244.41,-298.23 253.54,-303.6 254.9,-296.73"/>
</g>
<!-- Node26&#45;&gt;Node9 -->
<g id="edge52" class="edge">
<title>Node26&#45;&gt;Node9</title>
<path fill="none" stroke="midnightblue" d="M531.33,-280.28C554.84,-252.73 631.35,-166.17 709,-112 727.79,-98.89 750.97,-87.58 769.36,-79.58"/>
<polygon fill="midnightblue" stroke="midnightblue" points="770.92,-82.72 778.76,-75.59 768.19,-76.27 770.92,-82.72"/>
</g>
<!-- Node26&#45;&gt;Node10 -->
<g id="edge49" class="edge">
<title>Node26&#45;&gt;Node10</title>
<path fill="none" stroke="midnightblue" d="M588.3,-281.8C699.29,-268.25 920.75,-235.93 981,-188 1033.7,-146.07 1059.93,-66.04 1069.55,-29.74"/>
<polygon fill="midnightblue" stroke="midnightblue" points="1073.06,-30.14 1072.1,-19.59 1066.27,-28.44 1073.06,-30.14"/>
</g>
<!-- Node26&#45;&gt;Node11 -->
<g id="edge53" class="edge">
<title>Node26&#45;&gt;Node11</title>
<path fill="none" stroke="midnightblue" d="M548.08,-280.44C573.54,-271.4 613.89,-257.06 642.46,-246.92"/>
<polygon fill="midnightblue" stroke="midnightblue" points="643.78,-250.16 652.03,-243.52 641.43,-243.57 643.78,-250.16"/>
</g>
<!-- Node26&#45;&gt;Node13 -->
<g id="edge50" class="edge">
<title>Node26&#45;&gt;Node13</title>
<path fill="none" stroke="midnightblue" d="M588.18,-281.64C643.86,-274.22 719.3,-261.39 744,-244 777.66,-220.3 788.72,-169.57 792.31,-141.92"/>
<polygon fill="midnightblue" stroke="midnightblue" points="795.83,-141.95 793.43,-131.62 788.87,-141.19 795.83,-141.95"/>
</g>
<!-- Node26&#45;&gt;Node16 -->
<g id="edge55" class="edge">
<title>Node26&#45;&gt;Node16</title>
<path fill="none" stroke="midnightblue" d="M526.1,-280.08C532.24,-253.95 550.26,-177.21 558.64,-141.58"/>
<polygon fill="midnightblue" stroke="midnightblue" points="562.11,-142.1 560.99,-131.57 555.29,-140.5 562.11,-142.1"/>
</g>
<!-- Node26&#45;&gt;Node19 -->
<g id="edge54" class="edge">
<title>Node26&#45;&gt;Node19</title>
<path fill="none" stroke="midnightblue" d="M503.68,-280.37C458.1,-261.01 347.56,-214.06 294.45,-191.51"/>
<polygon fill="midnightblue" stroke="midnightblue" points="295.8,-188.28 285.23,-187.59 293.06,-194.72 295.8,-188.28"/>
</g>
<!-- Node26&#45;&gt;Node21 -->
<g id="edge48" class="edge">
<title>Node26&#45;&gt;Node21</title>
<path fill="none" stroke="midnightblue" d="M519.81,-280.46C513.23,-267.49 499.59,-242.4 484,-224 479.88,-219.14 417.38,-165.34 385.87,-138.31"/>
<polygon fill="midnightblue" stroke="midnightblue" points="388.1,-135.61 378.23,-131.76 383.54,-140.93 388.1,-135.61"/>
</g>
<!-- Node26&#45;&gt;Node22 -->
<g id="edge51" class="edge">
<title>Node26&#45;&gt;Node22</title>
<path fill="none" stroke="midnightblue" d="M512.06,-280.31C475.13,-253.42 362.41,-171.35 316.14,-137.67"/>
<polygon fill="midnightblue" stroke="midnightblue" points="317.96,-134.66 307.82,-131.61 313.84,-140.32 317.96,-134.66"/>
</g>
<!-- Node27&#45;&gt;Node7 -->
<g id="edge57" class="edge">
<title>Node27&#45;&gt;Node7</title>
<path fill="none" stroke="midnightblue" d="M302.24,-280.33C282.03,-264.6 241.42,-229.16 226,-188 213.71,-155.18 230.16,-142.73 247,-112 261.95,-84.71 262.67,-72.58 289,-56 347.54,-19.14 430.11,-11.54 477.54,-10.5"/>
<polygon fill="midnightblue" stroke="midnightblue" points="477.72,-13.99 487.67,-10.36 477.63,-6.99 477.72,-13.99"/>
</g>
<!-- Node28&#45;&gt;Node7 -->
<g id="edge59" class="edge">
<title>Node28&#45;&gt;Node7</title>
<path fill="none" stroke="midnightblue" d="M211.38,-280.11C205.4,-244.19 188.64,-109.2 263,-56 296.83,-31.8 415.9,-18.93 477.48,-13.76"/>
<polygon fill="midnightblue" stroke="midnightblue" points="477.88,-17.24 487.57,-12.94 477.31,-10.26 477.88,-17.24"/>
</g>
</g>
</svg>
