<?xml version="1.0" encoding="UTF-8" standalone="no"?>
<!DOCTYPE svg PUBLIC "-//W3C//DTD SVG 1.1//EN"
 "http://www.w3.org/Graphics/SVG/1.1/DTD/svg11.dtd">
<!-- Generated by graphviz version 2.44.0 (0)
 -->
<!-- Title: TravellersApp/src/ttype.hpp Pages: 1 -->
<!--zoomable 698 -->
<svg id="main" version="1.1" xmlns="http://www.w3.org/2000/svg" xmlns:xlink="http://www.w3.org/1999/xlink" xml:space="preserve" onload="init(evt)">
<style type="text/css"><![CDATA[
.edge:hover path { stroke: red; }
.edge:hover polygon { stroke: red; fill: red; }
]]></style>
<script type="text/javascript"><![CDATA[
var edges = document.getElementsByTagName('g');
if (edges && edges.length) {
  for (var i=0;i<edges.length;i++) {
    if (edges[i].id.substr(0,4)=='edge') {
      edges[i].setAttribute('class','edge');
    }
  }
}
]]></script>
        <defs>
                <circle id="rim" cx="0" cy="0" r="7"/>
                <circle id="rim2" cx="0" cy="0" r="3.5"/>
                <g id="zoomPlus">
                        <use xlink:href="#rim" fill="#404040">
                                <set attributeName="fill" to="#808080" begin="zoomplus.mouseover" end="zoomplus.mouseout"/>
                        </use>
                        <path d="M-4,0h8M0,-4v8" fill="none" stroke="white" stroke-width="1.5" pointer-events="none"/>
                </g>
                <g id="zoomMin">
                        <use xlink:href="#rim" fill="#404040">
                                <set attributeName="fill" to="#808080" begin="zoomminus.mouseover" end="zoomminus.mouseout"/>
                        </use>
                        <path d="M-4,0h8" fill="none" stroke="white" stroke-width="1.5" pointer-events="none"/>
                </g>
                <g id="dirArrow">
                        <path fill="none" stroke="white" stroke-width="1.5" d="M0,-3.0v7 M-2.5,-0.5L0,-3.0L2.5,-0.5"/>
                </g>
               <g id="resetDef">
                       <use xlink:href="#rim2" fill="#404040">
                               <set attributeName="fill" to="#808080" begin="reset.mouseover" end="reset.mouseout"/>
                       </use>
               </g>
        </defs>

<script type="text/javascript">
var viewWidth = 1236;
var viewHeight = 698;
var sectionId = 'dynsection-0';
</script>
<script xlink:href="svgpan.js"/>
<svg id="graph" class="graph">
<g id="viewport">
<title>TravellersApp/src/ttype.hpp</title>
<polygon fill="white" stroke="transparent" points="-4,4 -4,-694 1231.59,-694 1231.59,4 -4,4"/>
<!-- Node1 -->
<g id="node1" class="node">
<title>Node1</title>
<g id="a_node1"><a xlink:title=" ">
<polygon fill="#bfbfbf" stroke="black" points="276.07,-670.5 276.07,-689.5 411.07,-689.5 411.07,-670.5 276.07,-670.5"/>
<text text-anchor="middle" x="343.57" y="-677.5" font-family="Helvetica,sans-Serif" font-size="10.00">TravellersApp/src/ttype.hpp</text>
</a>
</g>
</g>
<!-- Node2 -->
<g id="node2" class="node">
<title>Node2</title>
<g id="a_node2"><a xlink:href="Tuple_8hpp.html" target="_top" xlink:title=" ">
<polygon fill="white" stroke="black" points="623.07,-603.5 623.07,-633.5 760.07,-633.5 760.07,-603.5 623.07,-603.5"/>
<text text-anchor="start" x="631.07" y="-621.5" font-family="Helvetica,sans-Serif" font-size="10.00">TravellersApp/src/collection</text>
<text text-anchor="middle" x="691.57" y="-610.5" font-family="Helvetica,sans-Serif" font-size="10.00">/Tuple.hpp</text>
</a>
</g>
</g>
<!-- Node1&#45;&gt;Node2 -->
<g id="edge1" class="edge">
<title>Node1&#45;&gt;Node2</title>
<path fill="none" stroke="midnightblue" d="M403.29,-668.79C464.29,-658.36 558.87,-642.19 622.92,-631.24"/>
<polygon fill="midnightblue" stroke="midnightblue" points="402.69,-665.34 393.43,-670.48 403.87,-672.24 402.69,-665.34"/>
</g>
<!-- Node11 -->
<g id="node11" class="node">
<title>Node11</title>
<g id="a_node11"><a xlink:href="CSV_8hpp.html" target="_top" xlink:title=" ">
<polygon fill="white" stroke="black" points="493.07,-268.5 493.07,-298.5 616.07,-298.5 616.07,-268.5 493.07,-268.5"/>
<text text-anchor="start" x="501.07" y="-286.5" font-family="Helvetica,sans-Serif" font-size="10.00">TravellersApp/src/parser</text>
<text text-anchor="middle" x="554.57" y="-275.5" font-family="Helvetica,sans-Serif" font-size="10.00">/CSV.hpp</text>
</a>
</g>
</g>
<!-- Node1&#45;&gt;Node11 -->
<g id="edge51" class="edge">
<title>Node1&#45;&gt;Node11</title>
<path fill="none" stroke="midnightblue" d="M288.81,-668.34C176.66,-644.02 -62.3,-577.96 15.57,-469 72.5,-389.34 363.8,-322.53 492.87,-296.35"/>
<polygon fill="midnightblue" stroke="midnightblue" points="288.42,-671.84 298.93,-670.5 289.88,-664.99 288.42,-671.84"/>
</g>
<!-- Node3 -->
<g id="node3" class="node">
<title>Node3</title>
<g id="a_node3"><a xlink:href="ArrayList_8hpp.html" target="_top" xlink:title=" ">
<polygon fill="white" stroke="black" points="509.07,-536.5 509.07,-566.5 646.07,-566.5 646.07,-536.5 509.07,-536.5"/>
<text text-anchor="start" x="517.07" y="-554.5" font-family="Helvetica,sans-Serif" font-size="10.00">TravellersApp/src/collection</text>
<text text-anchor="middle" x="577.57" y="-543.5" font-family="Helvetica,sans-Serif" font-size="10.00">/ArrayList.hpp</text>
</a>
</g>
</g>
<!-- Node2&#45;&gt;Node3 -->
<g id="edge2" class="edge">
<title>Node2&#45;&gt;Node3</title>
<path fill="none" stroke="midnightblue" d="M657.88,-598.3C640.05,-588.12 618.53,-575.85 602.25,-566.58"/>
<polygon fill="midnightblue" stroke="midnightblue" points="656.41,-601.48 666.83,-603.4 659.88,-595.4 656.41,-601.48"/>
</g>
<!-- Node8 -->
<g id="node8" class="node">
<title>Node8</title>
<g id="a_node8"><a xlink:href="HashMap_8hpp.html" target="_top" xlink:title=" ">
<polygon fill="white" stroke="black" points="758.07,-469.5 758.07,-499.5 895.07,-499.5 895.07,-469.5 758.07,-469.5"/>
<text text-anchor="start" x="766.07" y="-487.5" font-family="Helvetica,sans-Serif" font-size="10.00">TravellersApp/src/collection</text>
<text text-anchor="middle" x="826.57" y="-476.5" font-family="Helvetica,sans-Serif" font-size="10.00">/HashMap.hpp</text>
</a>
</g>
</g>
<!-- Node2&#45;&gt;Node8 -->
<g id="edge48" class="edge">
<title>Node2&#45;&gt;Node8</title>
<path fill="none" stroke="midnightblue" d="M713.3,-596.25C741.12,-569.04 788.54,-522.68 812.22,-499.52"/>
<polygon fill="midnightblue" stroke="midnightblue" points="710.72,-593.88 706.01,-603.37 715.61,-598.89 710.72,-593.88"/>
</g>
<!-- Node2&#45;&gt;Node11 -->
<g id="edge50" class="edge">
<title>Node2&#45;&gt;Node11</title>
<path fill="none" stroke="midnightblue" d="M691.19,-592.98C689.28,-541.05 678.8,-417.92 623.57,-335 613.28,-319.56 596.59,-307.15 582.2,-298.51"/>
<polygon fill="midnightblue" stroke="midnightblue" points="687.7,-593.33 691.48,-603.22 694.69,-593.12 687.7,-593.33"/>
</g>
<!-- Node12 -->
<g id="node12" class="node">
<title>Node12</title>
<g id="a_node12"><a xlink:href="main_8cpp.html" target="_top" xlink:title=" ">
<polygon fill="white" stroke="black" points="837.07,-6 837.07,-25 972.07,-25 972.07,-6 837.07,-6"/>
<text text-anchor="middle" x="904.57" y="-13" font-family="Helvetica,sans-Serif" font-size="10.00">TravellersApp/src/main.cpp</text>
</a>
</g>
</g>
<!-- Node2&#45;&gt;Node12 -->
<g id="edge49" class="edge">
<title>Node2&#45;&gt;Node12</title>
<path fill="none" stroke="midnightblue" d="M770.71,-614.3C919.38,-606.13 1225.57,-578.06 1225.57,-485.5 1225.57,-485.5 1225.57,-485.5 1225.57,-148.5 1225.57,-111.31 1233.68,-92.45 1206.57,-67 1189.68,-51.15 1055.86,-33.48 972.12,-23.81"/>
<polygon fill="midnightblue" stroke="midnightblue" points="770.08,-610.83 760.28,-614.86 770.45,-617.82 770.08,-610.83"/>
</g>
<!-- Node4 -->
<g id="node4" class="node">
<title>Node4</title>
<g id="a_node4"><a xlink:href="ArraySet_8hpp.html" target="_top" xlink:title=" ">
<polygon fill="white" stroke="black" points="25.07,-469.5 25.07,-499.5 162.07,-499.5 162.07,-469.5 25.07,-469.5"/>
<text text-anchor="start" x="33.07" y="-487.5" font-family="Helvetica,sans-Serif" font-size="10.00">TravellersApp/src/collection</text>
<text text-anchor="middle" x="93.57" y="-476.5" font-family="Helvetica,sans-Serif" font-size="10.00">/ArraySet.hpp</text>
</a>
</g>
</g>
<!-- Node3&#45;&gt;Node4 -->
<g id="edge3" class="edge">
<title>Node3&#45;&gt;Node4</title>
<path fill="none" stroke="midnightblue" d="M498.84,-541.71C417.87,-532.4 288.19,-516.77 176.57,-500 171.94,-499.3 167.17,-498.56 162.37,-497.78"/>
<polygon fill="midnightblue" stroke="midnightblue" points="498.62,-545.21 508.96,-542.87 499.42,-538.25 498.62,-545.21"/>
</g>
<!-- Node5 -->
<g id="node5" class="node">
<title>Node5</title>
<g id="a_node5"><a xlink:href="BinaryNode_8hpp.html" target="_top" xlink:title=" ">
<polygon fill="white" stroke="black" points="450.07,-402.5 450.07,-432.5 587.07,-432.5 587.07,-402.5 450.07,-402.5"/>
<text text-anchor="start" x="458.07" y="-420.5" font-family="Helvetica,sans-Serif" font-size="10.00">TravellersApp/src/collection</text>
<text text-anchor="middle" x="518.57" y="-409.5" font-family="Helvetica,sans-Serif" font-size="10.00">/BinaryNode.hpp</text>
</a>
</g>
</g>
<!-- Node3&#45;&gt;Node5 -->
<g id="edge4" class="edge">
<title>Node3&#45;&gt;Node5</title>
<path fill="none" stroke="midnightblue" d="M574.34,-526.29C571.47,-509.58 566.33,-487.19 557.57,-469 551.12,-455.63 540.74,-442.42 532.3,-432.87"/>
<polygon fill="midnightblue" stroke="midnightblue" points="570.91,-527 575.91,-536.34 577.82,-525.92 570.91,-527"/>
</g>
<!-- Node6 -->
<g id="node6" class="node">
<title>Node6</title>
<g id="a_node6"><a xlink:href="RangeBinaryTree_8hpp.html" target="_top" xlink:title=" ">
<polygon fill="white" stroke="black" points="459.07,-335.5 459.07,-365.5 596.07,-365.5 596.07,-335.5 459.07,-335.5"/>
<text text-anchor="start" x="467.07" y="-353.5" font-family="Helvetica,sans-Serif" font-size="10.00">TravellersApp/src/collection</text>
<text text-anchor="middle" x="527.57" y="-342.5" font-family="Helvetica,sans-Serif" font-size="10.00">/RangeBinaryTree.hpp</text>
</a>
</g>
</g>
<!-- Node3&#45;&gt;Node6 -->
<g id="edge39" class="edge">
<title>Node3&#45;&gt;Node6</title>
<path fill="none" stroke="midnightblue" d="M588.3,-526.66C600.36,-496.09 615.8,-442.23 595.57,-402 587.57,-386.1 571.94,-373.95 557.68,-365.56"/>
<polygon fill="midnightblue" stroke="midnightblue" points="584.99,-525.5 584.39,-536.08 591.45,-528.18 584.99,-525.5"/>
</g>
<!-- Node7 -->
<g id="node7" class="node">
<title>Node7</title>
<g id="a_node7"><a xlink:href="Stack_8hpp.html" target="_top" xlink:title=" ">
<polygon fill="white" stroke="black" points="412.07,-469.5 412.07,-499.5 549.07,-499.5 549.07,-469.5 412.07,-469.5"/>
<text text-anchor="start" x="420.07" y="-487.5" font-family="Helvetica,sans-Serif" font-size="10.00">TravellersApp/src/collection</text>
<text text-anchor="middle" x="480.57" y="-476.5" font-family="Helvetica,sans-Serif" font-size="10.00">/Stack.hpp</text>
</a>
</g>
</g>
<!-- Node3&#45;&gt;Node7 -->
<g id="edge6" class="edge">
<title>Node3&#45;&gt;Node7</title>
<path fill="none" stroke="midnightblue" d="M548.07,-530.73C533.06,-520.68 515.16,-508.68 501.57,-499.58"/>
<polygon fill="midnightblue" stroke="midnightblue" points="546.26,-533.74 556.52,-536.4 550.16,-527.92 546.26,-533.74"/>
</g>
<!-- Node3&#45;&gt;Node8 -->
<g id="edge8" class="edge">
<title>Node3&#45;&gt;Node8</title>
<path fill="none" stroke="midnightblue" d="M641.09,-533.92C681.72,-523.31 733.87,-509.7 772.51,-499.61"/>
<polygon fill="midnightblue" stroke="midnightblue" points="640.08,-530.56 631.29,-536.48 641.85,-537.34 640.08,-530.56"/>
</g>
<!-- Node10 -->
<g id="node10" class="node">
<title>Node10</title>
<g id="a_node10"><a xlink:href="Scanner_8hpp.html" target="_top" xlink:title=" ">
<polygon fill="white" stroke="black" points="710.07,-335.5 710.07,-365.5 833.07,-365.5 833.07,-335.5 710.07,-335.5"/>
<text text-anchor="start" x="718.07" y="-353.5" font-family="Helvetica,sans-Serif" font-size="10.00">TravellersApp/src/parser</text>
<text text-anchor="middle" x="771.57" y="-342.5" font-family="Helvetica,sans-Serif" font-size="10.00">/Scanner.hpp</text>
</a>
</g>
</g>
<!-- Node3&#45;&gt;Node10 -->
<g id="edge42" class="edge">
<title>Node3&#45;&gt;Node10</title>
<path fill="none" stroke="midnightblue" d="M619.86,-531.77C635.86,-523.45 653.57,-512.66 667.57,-500 713.07,-458.82 749.59,-394.21 764.42,-365.76"/>
<polygon fill="midnightblue" stroke="midnightblue" points="618.04,-528.77 610.67,-536.38 621.18,-535.02 618.04,-528.77"/>
</g>
<!-- Node3&#45;&gt;Node11 -->
<g id="edge41" class="edge">
<title>Node3&#45;&gt;Node11</title>
<path fill="none" stroke="midnightblue" d="M599.03,-528.44C605.66,-520.19 612.12,-510.3 615.57,-500 617.67,-493.69 617.59,-438.96 614.57,-402 612.11,-371.99 618.05,-361.92 604.57,-335 597.38,-320.66 584.6,-307.86 573.76,-298.74"/>
<polygon fill="midnightblue" stroke="midnightblue" points="596.31,-526.24 592.44,-536.1 601.62,-530.8 596.31,-526.24"/>
</g>
<!-- Node13 -->
<g id="node13" class="node">
<title>Node13</title>
<g id="a_node13"><a xlink:href="User_8hpp.html" target="_top" xlink:title=" ">
<polygon fill="white" stroke="black" points="371.07,-207 371.07,-226 506.07,-226 506.07,-207 371.07,-207"/>
<text text-anchor="middle" x="438.57" y="-214" font-family="Helvetica,sans-Serif" font-size="10.00">TravellersApp/src/User.hpp</text>
</a>
</g>
</g>
<!-- Node3&#45;&gt;Node13 -->
<g id="edge47" class="edge">
<title>Node3&#45;&gt;Node13</title>
<path fill="none" stroke="midnightblue" d="M498.78,-549.8C411.64,-547.15 279.3,-536.96 247.57,-500 162.14,-400.51 367.53,-261.7 424.44,-226.09"/>
<polygon fill="midnightblue" stroke="midnightblue" points="498.82,-553.3 508.91,-550.08 499.01,-546.3 498.82,-553.3"/>
</g>
<!-- Node27 -->
<g id="node27" class="node">
<title>Node27</title>
<g id="a_node27"><a xlink:href="SortedArrayList_8hpp.html" target="_top" xlink:title=" ">
<polygon fill="white" stroke="black" points="257.07,-469.5 257.07,-499.5 394.07,-499.5 394.07,-469.5 257.07,-469.5"/>
<text text-anchor="start" x="265.07" y="-487.5" font-family="Helvetica,sans-Serif" font-size="10.00">TravellersApp/src/collection</text>
<text text-anchor="middle" x="325.57" y="-476.5" font-family="Helvetica,sans-Serif" font-size="10.00">/SortedArrayList.hpp</text>
</a>
</g>
</g>
<!-- Node3&#45;&gt;Node27 -->
<g id="edge40" class="edge">
<title>Node3&#45;&gt;Node27</title>
<path fill="none" stroke="midnightblue" d="M513.27,-533.92C472.15,-523.31 419.38,-509.7 380.27,-499.61"/>
<polygon fill="midnightblue" stroke="midnightblue" points="512.64,-537.37 523.2,-536.48 514.39,-530.59 512.64,-537.37"/>
</g>
<!-- Node28 -->
<g id="node28" class="node">
<title>Node28</title>
<g id="a_node28"><a xlink:href="VisitBuilder_8hpp.html" target="_top" xlink:title=" ">
<polygon fill="white" stroke="black" points="108.57,-274 108.57,-293 272.57,-293 272.57,-274 108.57,-274"/>
<text text-anchor="middle" x="190.57" y="-281" font-family="Helvetica,sans-Serif" font-size="10.00">TravellersApp/src/VisitBuilder.hpp</text>
</a>
</g>
</g>
<!-- Node3&#45;&gt;Node28 -->
<g id="edge43" class="edge">
<title>Node3&#45;&gt;Node28</title>
<path fill="none" stroke="midnightblue" d="M498.66,-550.43C403.87,-548.56 252.78,-539.27 214.57,-500 157.07,-440.91 180.38,-325.21 188.32,-293"/>
<polygon fill="midnightblue" stroke="midnightblue" points="498.73,-553.93 508.79,-550.61 498.85,-546.93 498.73,-553.93"/>
</g>
<!-- Node5&#45;&gt;Node6 -->
<g id="edge5" class="edge">
<title>Node5&#45;&gt;Node6</title>
<path fill="none" stroke="midnightblue" d="M521.9,-392.4C523.15,-383.37 524.53,-373.41 525.62,-365.58"/>
<polygon fill="midnightblue" stroke="midnightblue" points="518.42,-392.01 520.52,-402.4 525.36,-392.97 518.42,-392.01"/>
</g>
<!-- Node7&#45;&gt;Node5 -->
<g id="edge7" class="edge">
<title>Node7&#45;&gt;Node5</title>
<path fill="none" stroke="midnightblue" d="M493.97,-460.58C499.42,-451.24 505.56,-440.75 510.34,-432.58"/>
<polygon fill="midnightblue" stroke="midnightblue" points="490.84,-459 488.81,-469.4 496.88,-462.53 490.84,-459"/>
</g>
<!-- Node9 -->
<g id="node9" class="node">
<title>Node9</title>
<g id="a_node9"><a xlink:href="CommandList_8hpp.html" target="_top" xlink:title=" ">
<polygon fill="white" stroke="black" points="890.07,-402.5 890.07,-432.5 1013.07,-432.5 1013.07,-402.5 890.07,-402.5"/>
<text text-anchor="start" x="898.07" y="-420.5" font-family="Helvetica,sans-Serif" font-size="10.00">TravellersApp/src/parser</text>
<text text-anchor="middle" x="951.57" y="-409.5" font-family="Helvetica,sans-Serif" font-size="10.00">/CommandList.hpp</text>
</a>
</g>
</g>
<!-- Node8&#45;&gt;Node9 -->
<g id="edge9" class="edge">
<title>Node8&#45;&gt;Node9</title>
<path fill="none" stroke="midnightblue" d="M862.69,-464.71C882.41,-454.46 906.41,-441.98 924.49,-432.58"/>
<polygon fill="midnightblue" stroke="midnightblue" points="860.95,-461.68 853.69,-469.4 864.18,-467.89 860.95,-461.68"/>
</g>
<!-- Node9&#45;&gt;Node10 -->
<g id="edge10" class="edge">
<title>Node9&#45;&gt;Node10</title>
<path fill="none" stroke="midnightblue" d="M902.98,-398.96C873.98,-388.48 837.65,-375.37 810.55,-365.58"/>
<polygon fill="midnightblue" stroke="midnightblue" points="901.91,-402.29 912.51,-402.4 904.29,-395.71 901.91,-402.29"/>
</g>
<!-- Node15 -->
<g id="node15" class="node">
<title>Node15</title>
<g id="a_node15"><a xlink:href="HTLInterpreter_8hpp.html" target="_top" xlink:title=" ">
<polygon fill="white" stroke="black" points="715.07,-67.5 715.07,-97.5 838.07,-97.5 838.07,-67.5 715.07,-67.5"/>
<text text-anchor="start" x="723.07" y="-85.5" font-family="Helvetica,sans-Serif" font-size="10.00">TravellersApp/src/parser</text>
<text text-anchor="middle" x="776.57" y="-74.5" font-family="Helvetica,sans-Serif" font-size="10.00">/HTLInterpreter.hpp</text>
</a>
</g>
</g>
<!-- Node9&#45;&gt;Node15 -->
<g id="edge30" class="edge">
<title>Node9&#45;&gt;Node15</title>
<path fill="none" stroke="midnightblue" d="M992.39,-397.04C1004.32,-389.18 1015.92,-378.87 1022.57,-366 1028.88,-353.76 1027.77,-347.76 1022.57,-335 976.21,-221.32 851,-131.11 799.33,-97.6"/>
<polygon fill="midnightblue" stroke="midnightblue" points="990.43,-394.14 983.71,-402.34 994.07,-400.12 990.43,-394.14"/>
</g>
<!-- Node17 -->
<g id="node17" class="node">
<title>Node17</title>
<g id="a_node17"><a xlink:href="LoginInterpreter_8hpp.html" target="_top" xlink:title=" ">
<polygon fill="white" stroke="black" points="1074.07,-67.5 1074.07,-97.5 1197.07,-97.5 1197.07,-67.5 1074.07,-67.5"/>
<text text-anchor="start" x="1082.07" y="-85.5" font-family="Helvetica,sans-Serif" font-size="10.00">TravellersApp/src/parser</text>
<text text-anchor="middle" x="1135.57" y="-74.5" font-family="Helvetica,sans-Serif" font-size="10.00">/LoginInterpreter.hpp</text>
</a>
</g>
</g>
<!-- Node9&#45;&gt;Node17 -->
<g id="edge36" class="edge">
<title>Node9&#45;&gt;Node17</title>
<path fill="none" stroke="midnightblue" d="M1015.78,-398.96C1036.14,-391.2 1057.71,-380.48 1074.57,-366 1106.63,-338.47 1123.57,-326.76 1123.57,-284.5 1123.57,-284.5 1123.57,-284.5 1123.57,-215.5 1123.57,-172.47 1129.97,-121.87 1133.42,-97.72"/>
<polygon fill="midnightblue" stroke="midnightblue" points="1014.44,-395.72 1006.23,-402.42 1016.82,-402.31 1014.44,-395.72"/>
</g>
<!-- Node19 -->
<g id="node19" class="node">
<title>Node19</title>
<g id="a_node19"><a xlink:href="VisitInterpreter_8hpp.html" target="_top" xlink:title=" ">
<polygon fill="white" stroke="black" points="535.07,-67.5 535.07,-97.5 658.07,-97.5 658.07,-67.5 535.07,-67.5"/>
<text text-anchor="start" x="543.07" y="-85.5" font-family="Helvetica,sans-Serif" font-size="10.00">TravellersApp/src/parser</text>
<text text-anchor="middle" x="596.57" y="-74.5" font-family="Helvetica,sans-Serif" font-size="10.00">/VisitInterpreter.hpp</text>
</a>
</g>
</g>
<!-- Node9&#45;&gt;Node19 -->
<g id="edge38" class="edge">
<title>Node9&#45;&gt;Node19</title>
<path fill="none" stroke="midnightblue" d="M921.67,-396.48C908.97,-387.58 894.2,-376.71 881.57,-366 879.73,-364.44 668.67,-155.04 610.99,-97.81"/>
<polygon fill="midnightblue" stroke="midnightblue" points="919.88,-399.49 930.09,-402.3 923.86,-393.73 919.88,-399.49"/>
</g>
<!-- Node24 -->
<g id="node24" class="node">
<title>Node24</title>
<g id="a_node24"><a xlink:href="Interpreter_8hpp.html" target="_top" xlink:title=" ">
<polygon fill="white" stroke="black" points="933.07,-134.5 933.07,-164.5 1056.07,-164.5 1056.07,-134.5 933.07,-134.5"/>
<text text-anchor="start" x="941.07" y="-152.5" font-family="Helvetica,sans-Serif" font-size="10.00">TravellersApp/src/parser</text>
<text text-anchor="middle" x="994.57" y="-141.5" font-family="Helvetica,sans-Serif" font-size="10.00">/Interpreter.hpp</text>
</a>
</g>
</g>
<!-- Node9&#45;&gt;Node24 -->
<g id="edge31" class="edge">
<title>Node9&#45;&gt;Node24</title>
<path fill="none" stroke="midnightblue" d="M1017.18,-398.11C1032.33,-390.65 1046.61,-380.3 1055.57,-366 1097.86,-298.44 1033.3,-200.89 1005.9,-164.71"/>
<polygon fill="midnightblue" stroke="midnightblue" points="1015.35,-395.09 1007.67,-402.39 1018.23,-401.48 1015.35,-395.09"/>
</g>
<!-- Node26 -->
<g id="node26" class="node">
<title>Node26</title>
<g id="a_node26"><a xlink:href="CommandList_8cpp.html" target="_top" xlink:title=" ">
<polygon fill="white" stroke="black" points="890.07,-335.5 890.07,-365.5 1013.07,-365.5 1013.07,-335.5 890.07,-335.5"/>
<text text-anchor="start" x="898.07" y="-353.5" font-family="Helvetica,sans-Serif" font-size="10.00">TravellersApp/src/parser</text>
<text text-anchor="middle" x="951.57" y="-342.5" font-family="Helvetica,sans-Serif" font-size="10.00">/CommandList.cpp</text>
</a>
</g>
</g>
<!-- Node9&#45;&gt;Node26 -->
<g id="edge37" class="edge">
<title>Node9&#45;&gt;Node26</title>
<path fill="none" stroke="midnightblue" d="M951.57,-392.11C951.57,-383.15 951.57,-373.32 951.57,-365.58"/>
<polygon fill="midnightblue" stroke="midnightblue" points="948.07,-392.4 951.57,-402.4 955.07,-392.4 948.07,-392.4"/>
</g>
<!-- Node10&#45;&gt;Node11 -->
<g id="edge11" class="edge">
<title>Node10&#45;&gt;Node11</title>
<path fill="none" stroke="midnightblue" d="M715.08,-332.58C679.83,-322.02 635,-308.59 601.67,-298.61"/>
<polygon fill="midnightblue" stroke="midnightblue" points="714.16,-335.96 724.75,-335.48 716.17,-329.25 714.16,-335.96"/>
</g>
<!-- Node10&#45;&gt;Node12 -->
<g id="edge27" class="edge">
<title>Node10&#45;&gt;Node12</title>
<path fill="none" stroke="midnightblue" d="M781.29,-326.02C799.63,-281.61 840.47,-182.22 873.57,-98 883.97,-71.51 895.81,-39.97 901.37,-25.09"/>
<polygon fill="midnightblue" stroke="midnightblue" points="778.01,-324.78 777.43,-335.36 784.48,-327.46 778.01,-324.78"/>
</g>
<!-- Node16 -->
<g id="node16" class="node">
<title>Node16</title>
<g id="a_node16"><a xlink:href="HTLInterpreter_8cpp.html" target="_top" xlink:title=" ">
<polygon fill="white" stroke="black" points="650.07,-0.5 650.07,-30.5 773.07,-30.5 773.07,-0.5 650.07,-0.5"/>
<text text-anchor="start" x="658.07" y="-18.5" font-family="Helvetica,sans-Serif" font-size="10.00">TravellersApp/src/parser</text>
<text text-anchor="middle" x="711.57" y="-7.5" font-family="Helvetica,sans-Serif" font-size="10.00">/HTLInterpreter.cpp</text>
</a>
</g>
</g>
<!-- Node10&#45;&gt;Node16 -->
<g id="edge28" class="edge">
<title>Node10&#45;&gt;Node16</title>
<path fill="none" stroke="midnightblue" d="M771.46,-325.19C770.98,-308.87 769.53,-286.96 765.57,-268 749.15,-189.58 719.09,-176.97 705.57,-98 701.56,-74.65 705.34,-47.08 708.44,-30.73"/>
<polygon fill="midnightblue" stroke="midnightblue" points="767.96,-325.57 771.66,-335.5 774.96,-325.43 767.96,-325.57"/>
</g>
<!-- Node23 -->
<g id="node23" class="node">
<title>Node23</title>
<g id="a_node23"><a xlink:href="Scanner_8cpp.html" target="_top" xlink:title=" ">
<polygon fill="white" stroke="black" points="634.07,-268.5 634.07,-298.5 757.07,-298.5 757.07,-268.5 634.07,-268.5"/>
<text text-anchor="start" x="642.07" y="-286.5" font-family="Helvetica,sans-Serif" font-size="10.00">TravellersApp/src/parser</text>
<text text-anchor="middle" x="695.57" y="-275.5" font-family="Helvetica,sans-Serif" font-size="10.00">/Scanner.cpp</text>
</a>
</g>
</g>
<!-- Node10&#45;&gt;Node23 -->
<g id="edge29" class="edge">
<title>Node10&#45;&gt;Node23</title>
<path fill="none" stroke="midnightblue" d="M747.46,-328.88C735.91,-319.01 722.37,-307.43 712.02,-298.58"/>
<polygon fill="midnightblue" stroke="midnightblue" points="745.2,-331.56 755.07,-335.4 749.75,-326.24 745.2,-331.56"/>
</g>
<!-- Node11&#45;&gt;Node12 -->
<g id="edge12" class="edge">
<title>Node11&#45;&gt;Node12</title>
<path fill="none" stroke="midnightblue" d="M625.83,-266.17C652.62,-258.23 682.61,-247.06 707.57,-232 802.61,-174.64 879.21,-57.71 899.37,-25.11"/>
<polygon fill="midnightblue" stroke="midnightblue" points="624.77,-262.84 616.12,-268.96 626.7,-269.57 624.77,-262.84"/>
</g>
<!-- Node11&#45;&gt;Node13 -->
<g id="edge13" class="edge">
<title>Node11&#45;&gt;Node13</title>
<path fill="none" stroke="midnightblue" d="M520.61,-263.47C498.46,-251.06 470.64,-235.47 453.75,-226.01"/>
<polygon fill="midnightblue" stroke="midnightblue" points="518.96,-266.56 529.39,-268.4 522.38,-260.45 518.96,-266.56"/>
</g>
<!-- Node14 -->
<g id="node14" class="node">
<title>Node14</title>
<g id="a_node14"><a xlink:href="TravelState_8hpp.html" target="_top" xlink:title=" ">
<polygon fill="white" stroke="black" points="486.07,-134.5 486.07,-164.5 609.07,-164.5 609.07,-134.5 486.07,-134.5"/>
<text text-anchor="start" x="494.07" y="-152.5" font-family="Helvetica,sans-Serif" font-size="10.00">TravellersApp/src/Travel</text>
<text text-anchor="middle" x="547.57" y="-141.5" font-family="Helvetica,sans-Serif" font-size="10.00">State.hpp</text>
</a>
</g>
</g>
<!-- Node11&#45;&gt;Node14 -->
<g id="edge25" class="edge">
<title>Node11&#45;&gt;Node14</title>
<path fill="none" stroke="midnightblue" d="M553.27,-258.02C551.81,-230.51 549.49,-186.79 548.31,-164.52"/>
<polygon fill="midnightblue" stroke="midnightblue" points="549.79,-258.57 553.82,-268.37 556.78,-258.2 549.79,-258.57"/>
</g>
<!-- Node22 -->
<g id="node22" class="node">
<title>Node22</title>
<g id="a_node22"><a xlink:href="CSV_8cpp.html" target="_top" xlink:title=" ">
<polygon fill="white" stroke="black" points="576.07,-201.5 576.07,-231.5 699.07,-231.5 699.07,-201.5 576.07,-201.5"/>
<text text-anchor="start" x="584.07" y="-219.5" font-family="Helvetica,sans-Serif" font-size="10.00">TravellersApp/src/parser</text>
<text text-anchor="middle" x="637.57" y="-208.5" font-family="Helvetica,sans-Serif" font-size="10.00">/CSV.cpp</text>
</a>
</g>
</g>
<!-- Node11&#45;&gt;Node22 -->
<g id="edge26" class="edge">
<title>Node11&#45;&gt;Node22</title>
<path fill="none" stroke="midnightblue" d="M580.53,-262.17C593.22,-252.23 608.18,-240.51 619.59,-231.58"/>
<polygon fill="midnightblue" stroke="midnightblue" points="578.29,-259.47 572.57,-268.4 582.61,-264.99 578.29,-259.47"/>
</g>
<!-- Node13&#45;&gt;Node14 -->
<g id="edge14" class="edge">
<title>Node13&#45;&gt;Node14</title>
<path fill="none" stroke="midnightblue" d="M461.87,-201.6C480.17,-190.69 505.55,-175.55 523.94,-164.59"/>
<polygon fill="midnightblue" stroke="midnightblue" points="460.06,-198.61 453.27,-206.73 463.65,-204.62 460.06,-198.61"/>
</g>
<!-- Node14&#45;&gt;Node15 -->
<g id="edge15" class="edge">
<title>Node14&#45;&gt;Node15</title>
<path fill="none" stroke="midnightblue" d="M606.7,-131.71C643.97,-121.14 691.54,-107.63 726.85,-97.61"/>
<polygon fill="midnightblue" stroke="midnightblue" points="605.64,-128.38 596.97,-134.48 607.55,-135.11 605.64,-128.38"/>
</g>
<!-- Node14&#45;&gt;Node17 -->
<g id="edge18" class="edge">
<title>Node14&#45;&gt;Node17</title>
<path fill="none" stroke="midnightblue" d="M619.24,-143.95C719.49,-137.03 907.08,-122.07 1065.57,-98 1068.26,-97.59 1071.02,-97.14 1073.79,-96.67"/>
<polygon fill="midnightblue" stroke="midnightblue" points="618.97,-140.46 609.23,-144.63 619.44,-147.44 618.97,-140.46"/>
</g>
<!-- Node14&#45;&gt;Node19 -->
<g id="edge21" class="edge">
<title>Node14&#45;&gt;Node19</title>
<path fill="none" stroke="midnightblue" d="M564.41,-126.16C571.55,-116.68 579.66,-105.92 585.95,-97.58"/>
<polygon fill="midnightblue" stroke="midnightblue" points="561.42,-124.3 558.2,-134.4 567.01,-128.52 561.42,-124.3"/>
</g>
<!-- Node21 -->
<g id="node21" class="node">
<title>Node21</title>
<g id="a_node21"><a xlink:href="TravelState_8cpp.html" target="_top" xlink:title=" ">
<polygon fill="white" stroke="black" points="394.07,-67.5 394.07,-97.5 517.07,-97.5 517.07,-67.5 394.07,-67.5"/>
<text text-anchor="start" x="402.07" y="-85.5" font-family="Helvetica,sans-Serif" font-size="10.00">TravellersApp/src/Travel</text>
<text text-anchor="middle" x="455.57" y="-74.5" font-family="Helvetica,sans-Serif" font-size="10.00">State.cpp</text>
</a>
</g>
</g>
<!-- Node14&#45;&gt;Node21 -->
<g id="edge24" class="edge">
<title>Node14&#45;&gt;Node21</title>
<path fill="none" stroke="midnightblue" d="M519.19,-128.45C505.04,-118.45 488.26,-106.6 475.49,-97.58"/>
<polygon fill="midnightblue" stroke="midnightblue" points="517.42,-131.48 527.6,-134.4 521.45,-125.77 517.42,-131.48"/>
</g>
<!-- Node15&#45;&gt;Node12 -->
<g id="edge16" class="edge">
<title>Node15&#45;&gt;Node12</title>
<path fill="none" stroke="midnightblue" d="M813.38,-62.8C837.92,-50.34 869.01,-34.56 887.81,-25.01"/>
<polygon fill="midnightblue" stroke="midnightblue" points="811.67,-59.75 804.34,-67.4 814.84,-65.99 811.67,-59.75"/>
</g>
<!-- Node15&#45;&gt;Node16 -->
<g id="edge17" class="edge">
<title>Node15&#45;&gt;Node16</title>
<path fill="none" stroke="midnightblue" d="M755.38,-60.31C745.63,-50.56 734.32,-39.26 725.64,-30.58"/>
<polygon fill="midnightblue" stroke="midnightblue" points="752.92,-62.8 762.46,-67.4 757.86,-57.85 752.92,-62.8"/>
</g>
<!-- Node17&#45;&gt;Node12 -->
<g id="edge19" class="edge">
<title>Node17&#45;&gt;Node12</title>
<path fill="none" stroke="midnightblue" d="M1076.04,-64.75C1030.86,-52.04 970.61,-35.09 934.87,-25.03"/>
<polygon fill="midnightblue" stroke="midnightblue" points="1075.15,-68.14 1085.73,-67.48 1077.05,-61.4 1075.15,-68.14"/>
</g>
<!-- Node18 -->
<g id="node18" class="node">
<title>Node18</title>
<g id="a_node18"><a xlink:href="LoginInterpreter_8cpp.html" target="_top" xlink:title=" ">
<polygon fill="white" stroke="black" points="1074.07,-0.5 1074.07,-30.5 1197.07,-30.5 1197.07,-0.5 1074.07,-0.5"/>
<text text-anchor="start" x="1082.07" y="-18.5" font-family="Helvetica,sans-Serif" font-size="10.00">TravellersApp/src/parser</text>
<text text-anchor="middle" x="1135.57" y="-7.5" font-family="Helvetica,sans-Serif" font-size="10.00">/LoginInterpreter.cpp</text>
</a>
</g>
</g>
<!-- Node17&#45;&gt;Node18 -->
<g id="edge20" class="edge">
<title>Node17&#45;&gt;Node18</title>
<path fill="none" stroke="midnightblue" d="M1135.57,-57.11C1135.57,-48.15 1135.57,-38.32 1135.57,-30.58"/>
<polygon fill="midnightblue" stroke="midnightblue" points="1132.07,-57.4 1135.57,-67.4 1139.07,-57.4 1132.07,-57.4"/>
</g>
<!-- Node19&#45;&gt;Node16 -->
<g id="edge22" class="edge">
<title>Node19&#45;&gt;Node16</title>
<path fill="none" stroke="midnightblue" d="M630.54,-62.3C648.54,-52.12 670.24,-39.85 686.66,-30.58"/>
<polygon fill="midnightblue" stroke="midnightblue" points="628.5,-59.43 621.52,-67.4 631.95,-65.52 628.5,-59.43"/>
</g>
<!-- Node20 -->
<g id="node20" class="node">
<title>Node20</title>
<g id="a_node20"><a xlink:href="VisitInterpreter_8cpp.html" target="_top" xlink:title=" ">
<polygon fill="white" stroke="black" points="509.07,-0.5 509.07,-30.5 632.07,-30.5 632.07,-0.5 509.07,-0.5"/>
<text text-anchor="start" x="517.07" y="-18.5" font-family="Helvetica,sans-Serif" font-size="10.00">TravellersApp/src/parser</text>
<text text-anchor="middle" x="570.57" y="-7.5" font-family="Helvetica,sans-Serif" font-size="10.00">/VisitInterpreter.cpp</text>
</a>
</g>
</g>
<!-- Node19&#45;&gt;Node20 -->
<g id="edge23" class="edge">
<title>Node19&#45;&gt;Node20</title>
<path fill="none" stroke="midnightblue" d="M587.16,-57.99C583.49,-48.8 579.4,-38.58 576.2,-30.58"/>
<polygon fill="midnightblue" stroke="midnightblue" points="583.96,-59.41 590.92,-67.4 590.46,-56.81 583.96,-59.41"/>
</g>
<!-- Node24&#45;&gt;Node15 -->
<g id="edge32" class="edge">
<title>Node24&#45;&gt;Node15</title>
<path fill="none" stroke="midnightblue" d="M937.82,-131.58C902.41,-121.02 857.37,-107.59 823.89,-97.61"/>
<polygon fill="midnightblue" stroke="midnightblue" points="936.95,-134.97 947.53,-134.48 938.95,-128.26 936.95,-134.97"/>
</g>
<!-- Node24&#45;&gt;Node17 -->
<g id="edge33" class="edge">
<title>Node24&#45;&gt;Node17</title>
<path fill="none" stroke="midnightblue" d="M1034.41,-130.13C1056.82,-119.8 1084.35,-107.11 1105.03,-97.58"/>
<polygon fill="midnightblue" stroke="midnightblue" points="1032.78,-127.03 1025.16,-134.4 1035.71,-133.39 1032.78,-127.03"/>
</g>
<!-- Node24&#45;&gt;Node19 -->
<g id="edge34" class="edge">
<title>Node24&#45;&gt;Node19</title>
<path fill="none" stroke="midnightblue" d="M922.9,-136.8C847.37,-124.46 729.62,-105.23 658.13,-93.56"/>
<polygon fill="midnightblue" stroke="midnightblue" points="922.38,-140.26 932.81,-138.42 923.51,-133.35 922.38,-140.26"/>
</g>
<!-- Node25 -->
<g id="node25" class="node">
<title>Node25</title>
<g id="a_node25"><a xlink:href="Interpreter_8cpp.html" target="_top" xlink:title=" ">
<polygon fill="white" stroke="black" points="933.07,-67.5 933.07,-97.5 1056.07,-97.5 1056.07,-67.5 933.07,-67.5"/>
<text text-anchor="start" x="941.07" y="-85.5" font-family="Helvetica,sans-Serif" font-size="10.00">TravellersApp/src/parser</text>
<text text-anchor="middle" x="994.57" y="-74.5" font-family="Helvetica,sans-Serif" font-size="10.00">/Interpreter.cpp</text>
</a>
</g>
</g>
<!-- Node24&#45;&gt;Node25 -->
<g id="edge35" class="edge">
<title>Node24&#45;&gt;Node25</title>
<path fill="none" stroke="midnightblue" d="M994.57,-124.11C994.57,-115.15 994.57,-105.32 994.57,-97.58"/>
<polygon fill="midnightblue" stroke="midnightblue" points="991.07,-124.4 994.57,-134.4 998.07,-124.4 991.07,-124.4"/>
</g>
<!-- Node28&#45;&gt;Node13 -->
<g id="edge44" class="edge">
<title>Node28&#45;&gt;Node13</title>
<path fill="none" stroke="midnightblue" d="M233.21,-271.32C282.18,-258.49 361.45,-237.71 405.82,-226.08"/>
<polygon fill="midnightblue" stroke="midnightblue" points="232.03,-268.01 223.24,-273.94 233.8,-274.79 232.03,-268.01"/>
</g>
<!-- Node28&#45;&gt;Node14 -->
<g id="edge45" class="edge">
<title>Node28&#45;&gt;Node14</title>
<path fill="none" stroke="midnightblue" d="M215.02,-269.12C247.68,-251.65 307.68,-220.97 361.57,-201 402.2,-185.94 449.32,-173.19 485.96,-164.28"/>
<polygon fill="midnightblue" stroke="midnightblue" points="213.33,-266.06 206.18,-273.88 216.65,-272.22 213.33,-266.06"/>
</g>
<!-- Node28&#45;&gt;Node19 -->
<g id="edge46" class="edge">
<title>Node28&#45;&gt;Node19</title>
<path fill="none" stroke="midnightblue" d="M206.07,-266.36C224.04,-248.41 255.21,-219.5 286.57,-201 370.83,-151.28 479.89,-115.78 543.65,-97.54"/>
<polygon fill="midnightblue" stroke="midnightblue" points="203.3,-264.18 198.79,-273.77 208.29,-269.09 203.3,-264.18"/>
</g>
</g>
</svg>
        <g id="navigator" transform="translate(0 0)" fill="#404254">
                <rect fill="#f2f5e9" fill-opacity="0.5" stroke="#606060" stroke-width=".5" x="0" y="0" width="60" height="60"/>
                <use id="zoomplus" xlink:href="#zoomPlus" x="17" y="9" onmousedown="handleZoom(evt,'in')"/>
                <use id="zoomminus" xlink:href="#zoomMin" x="42" y="9" onmousedown="handleZoom(evt,'out')"/>
                <use id="reset" xlink:href="#resetDef" x="30" y="36" onmousedown="handleReset()"/>
                <g id="arrowUp" xlink:href="#dirArrow" transform="translate(30 24)" onmousedown="handlePan(0,-1)">
                  <use xlink:href="#rim" fill="#404040">
                        <set attributeName="fill" to="#808080" begin="arrowUp.mouseover" end="arrowUp.mouseout"/>
                  </use>
                  <path fill="none" stroke="white" stroke-width="1.5" d="M0,-3.0v7 M-2.5,-0.5L0,-3.0L2.5,-0.5"/>
                </g>
                <g id="arrowRight" xlink:href="#dirArrow" transform="rotate(90) translate(36 -43)" onmousedown="handlePan(1,0)">
                  <use xlink:href="#rim" fill="#404040">
                        <set attributeName="fill" to="#808080" begin="arrowRight.mouseover" end="arrowRight.mouseout"/>
                  </use>
                  <path fill="none" stroke="white" stroke-width="1.5" d="M0,-3.0v7 M-2.5,-0.5L0,-3.0L2.5,-0.5"/>
                </g>
                <g id="arrowDown" xlink:href="#dirArrow" transform="rotate(180) translate(-30 -48)" onmousedown="handlePan(0,1)">
                  <use xlink:href="#rim" fill="#404040">
                        <set attributeName="fill" to="#808080" begin="arrowDown.mouseover" end="arrowDown.mouseout"/>
                  </use>
                  <path fill="none" stroke="white" stroke-width="1.5" d="M0,-3.0v7 M-2.5,-0.5L0,-3.0L2.5,-0.5"/>
                </g>
                <g id="arrowLeft" xlink:href="#dirArrow" transform="rotate(270) translate(-36 17)" onmousedown="handlePan(-1,0)">
                  <use xlink:href="#rim" fill="#404040">
                        <set attributeName="fill" to="#808080" begin="arrowLeft.mouseover" end="arrowLeft.mouseout"/>
                  </use>
                  <path fill="none" stroke="white" stroke-width="1.5" d="M0,-3.0v7 M-2.5,-0.5L0,-3.0L2.5,-0.5"/>
                </g>
        </g>
        <svg viewBox="0 0 15 15" width="100%" height="30px" preserveAspectRatio="xMaxYMin meet">
         <g id="arrow_out" transform="scale(0.3 0.3)">
          <a xlink:href="ttype_8hpp__dep__incl_org.svg" target="_base">
           <rect id="button" ry="5" rx="5" y="6" x="6" height="38" width="38"
                fill="#f2f5e9" fill-opacity="0.5" stroke="#606060" stroke-width="1.0"/>
           <path id="arrow"
             d="M 11.500037,31.436501 C 11.940474,20.09759 22.043105,11.32322 32.158766,21.979434 L 37.068811,17.246167 C 37.068811,17.246167 37.088388,32 37.088388,32 L 22.160133,31.978069 C 22.160133,31.978069 26.997745,27.140456 26.997745,27.140456 C 18.528582,18.264221 13.291696,25.230495 11.500037,31.436501 z"
             style="fill:#404040;"/>
          </a>
         </g>
        </svg>
</svg>
