<?xml version="1.0" encoding="UTF-8" standalone="no"?>
<!DOCTYPE svg PUBLIC "-//W3C//DTD SVG 1.1//EN"
 "http://www.w3.org/Graphics/SVG/1.1/DTD/svg11.dtd">
<!-- Generated by graphviz version 2.44.0 (0)
 -->
<!-- Title: TravellersApp/src/collection/Tuple.hpp Pages: 1 -->
<!--zoomable 642 -->
<svg id="main" version="1.1" xmlns="http://www.w3.org/2000/svg" xmlns:xlink="http://www.w3.org/1999/xlink" xml:space="preserve" onload="init(evt)">
<style type="text/css"><![CDATA[
.edge:hover path { stroke: red; }
.edge:hover polygon { stroke: red; fill: red; }
]]></style>
<script type="text/javascript"><![CDATA[
var edges = document.getElementsByTagName('g');
if (edges && edges.length) {
  for (var i=0;i<edges.length;i++) {
    if (edges[i].id.substr(0,4)=='edge') {
      edges[i].setAttribute('class','edge');
    }
  }
}
]]></script>
        <defs>
                <circle id="rim" cx="0" cy="0" r="7"/>
                <circle id="rim2" cx="0" cy="0" r="3.5"/>
                <g id="zoomPlus">
                        <use xlink:href="#rim" fill="#404040">
                                <set attributeName="fill" to="#808080" begin="zoomplus.mouseover" end="zoomplus.mouseout"/>
                        </use>
                        <path d="M-4,0h8M0,-4v8" fill="none" stroke="white" stroke-width="1.5" pointer-events="none"/>
                </g>
                <g id="zoomMin">
                        <use xlink:href="#rim" fill="#404040">
                                <set attributeName="fill" to="#808080" begin="zoomminus.mouseover" end="zoomminus.mouseout"/>
                        </use>
                        <path d="M-4,0h8" fill="none" stroke="white" stroke-width="1.5" pointer-events="none"/>
                </g>
                <g id="dirArrow">
                        <path fill="none" stroke="white" stroke-width="1.5" d="M0,-3.0v7 M-2.5,-0.5L0,-3.0L2.5,-0.5"/>
                </g>
               <g id="resetDef">
                       <use xlink:href="#rim2" fill="#404040">
                               <set attributeName="fill" to="#808080" begin="reset.mouseover" end="reset.mouseout"/>
                       </use>
               </g>
        </defs>

<script type="text/javascript">
var viewWidth = 1190;
var viewHeight = 642;
var sectionId = 'dynsection-1';
</script>
<script xlink:href="svgpan.js"/>
<svg id="graph" class="graph">
<g id="viewport">
<title>TravellersApp/src/collection/Tuple.hpp</title>
<polygon fill="white" stroke="transparent" points="-4,4 -4,-638 1185.5,-638 1185.5,4 -4,4"/>
<!-- Node1 -->
<g id="node1" class="node">
<title>Node1</title>
<g id="a_node1"><a xlink:title=" ">
<polygon fill="#bfbfbf" stroke="black" points="510.5,-603.5 510.5,-633.5 647.5,-633.5 647.5,-603.5 510.5,-603.5"/>
<text text-anchor="start" x="518.5" y="-621.5" font-family="Helvetica,sans-Serif" font-size="10.00">TravellersApp/src/collection</text>
<text text-anchor="middle" x="579" y="-610.5" font-family="Helvetica,sans-Serif" font-size="10.00">/Tuple.hpp</text>
</a>
</g>
</g>
<!-- Node2 -->
<g id="node2" class="node">
<title>Node2</title>
<g id="a_node2"><a xlink:href="ArrayList_8hpp.html" target="_top" xlink:title=" ">
<polygon fill="white" stroke="black" points="394.5,-536.5 394.5,-566.5 531.5,-566.5 531.5,-536.5 394.5,-536.5"/>
<text text-anchor="start" x="402.5" y="-554.5" font-family="Helvetica,sans-Serif" font-size="10.00">TravellersApp/src/collection</text>
<text text-anchor="middle" x="463" y="-543.5" font-family="Helvetica,sans-Serif" font-size="10.00">/ArrayList.hpp</text>
</a>
</g>
</g>
<!-- Node1&#45;&gt;Node2 -->
<g id="edge1" class="edge">
<title>Node1&#45;&gt;Node2</title>
<path fill="none" stroke="midnightblue" d="M544.73,-598.3C526.58,-588.12 504.68,-575.85 488.12,-566.58"/>
<polygon fill="midnightblue" stroke="midnightblue" points="543.4,-601.56 553.83,-603.4 546.82,-595.45 543.4,-601.56"/>
</g>
<!-- Node7 -->
<g id="node7" class="node">
<title>Node7</title>
<g id="a_node7"><a xlink:href="HashMap_8hpp.html" target="_top" xlink:title=" ">
<polygon fill="white" stroke="black" points="761.5,-469.5 761.5,-499.5 898.5,-499.5 898.5,-469.5 761.5,-469.5"/>
<text text-anchor="start" x="769.5" y="-487.5" font-family="Helvetica,sans-Serif" font-size="10.00">TravellersApp/src/collection</text>
<text text-anchor="middle" x="830" y="-476.5" font-family="Helvetica,sans-Serif" font-size="10.00">/HashMap.hpp</text>
</a>
</g>
</g>
<!-- Node1&#45;&gt;Node7 -->
<g id="edge47" class="edge">
<title>Node1&#45;&gt;Node7</title>
<path fill="none" stroke="midnightblue" d="M631.88,-599.99C655.95,-591.25 684.48,-579.82 709,-567 747.61,-546.82 788.96,-516.97 811.94,-499.55"/>
<polygon fill="midnightblue" stroke="midnightblue" points="630.45,-596.78 622.2,-603.44 632.8,-603.37 630.45,-596.78"/>
</g>
<!-- Node10 -->
<g id="node10" class="node">
<title>Node10</title>
<g id="a_node10"><a xlink:href="CSV_8hpp.html" target="_top" xlink:title=" ">
<polygon fill="white" stroke="black" points="410.5,-268.5 410.5,-298.5 533.5,-298.5 533.5,-268.5 410.5,-268.5"/>
<text text-anchor="start" x="418.5" y="-286.5" font-family="Helvetica,sans-Serif" font-size="10.00">TravellersApp/src/parser</text>
<text text-anchor="middle" x="472" y="-275.5" font-family="Helvetica,sans-Serif" font-size="10.00">/CSV.hpp</text>
</a>
</g>
</g>
<!-- Node1&#45;&gt;Node10 -->
<g id="edge49" class="edge">
<title>Node1&#45;&gt;Node10</title>
<path fill="none" stroke="midnightblue" d="M598.67,-595.34C621.88,-566.38 655.27,-514.03 638,-469 608.29,-391.56 529.4,-326.26 492.09,-298.63"/>
<polygon fill="midnightblue" stroke="midnightblue" points="595.84,-593.28 592.15,-603.21 601.23,-597.74 595.84,-593.28"/>
</g>
<!-- Node11 -->
<g id="node11" class="node">
<title>Node11</title>
<g id="a_node11"><a xlink:href="main_8cpp.html" target="_top" xlink:title=" ">
<polygon fill="white" stroke="black" points="352.5,-6 352.5,-25 487.5,-25 487.5,-6 352.5,-6"/>
<text text-anchor="middle" x="420" y="-13" font-family="Helvetica,sans-Serif" font-size="10.00">TravellersApp/src/main.cpp</text>
</a>
</g>
</g>
<!-- Node1&#45;&gt;Node11 -->
<g id="edge48" class="edge">
<title>Node1&#45;&gt;Node11</title>
<path fill="none" stroke="midnightblue" d="M500.15,-615.85C341.76,-610.4 0,-586.89 0,-485.5 0,-485.5 0,-485.5 0,-148.5 0,-75.6 233.18,-38.05 352.05,-23.65"/>
<polygon fill="midnightblue" stroke="midnightblue" points="500.2,-619.36 510.31,-616.19 500.43,-612.36 500.2,-619.36"/>
</g>
<!-- Node3 -->
<g id="node3" class="node">
<title>Node3</title>
<g id="a_node3"><a xlink:href="ArraySet_8hpp.html" target="_top" xlink:title=" ">
<polygon fill="white" stroke="black" points="259.5,-469.5 259.5,-499.5 396.5,-499.5 396.5,-469.5 259.5,-469.5"/>
<text text-anchor="start" x="267.5" y="-487.5" font-family="Helvetica,sans-Serif" font-size="10.00">TravellersApp/src/collection</text>
<text text-anchor="middle" x="328" y="-476.5" font-family="Helvetica,sans-Serif" font-size="10.00">/ArraySet.hpp</text>
</a>
</g>
</g>
<!-- Node2&#45;&gt;Node3 -->
<g id="edge2" class="edge">
<title>Node2&#45;&gt;Node3</title>
<path fill="none" stroke="midnightblue" d="M424.56,-531.99C403.16,-521.69 376.95,-509.07 357.24,-499.58"/>
<polygon fill="midnightblue" stroke="midnightblue" points="423.18,-535.21 433.71,-536.4 426.22,-528.9 423.18,-535.21"/>
</g>
<!-- Node4 -->
<g id="node4" class="node">
<title>Node4</title>
<g id="a_node4"><a xlink:href="BinaryNode_8hpp.html" target="_top" xlink:title=" ">
<polygon fill="white" stroke="black" points="104.5,-402.5 104.5,-432.5 241.5,-432.5 241.5,-402.5 104.5,-402.5"/>
<text text-anchor="start" x="112.5" y="-420.5" font-family="Helvetica,sans-Serif" font-size="10.00">TravellersApp/src/collection</text>
<text text-anchor="middle" x="173" y="-409.5" font-family="Helvetica,sans-Serif" font-size="10.00">/BinaryNode.hpp</text>
</a>
</g>
</g>
<!-- Node2&#45;&gt;Node4 -->
<g id="edge3" class="edge">
<title>Node2&#45;&gt;Node4</title>
<path fill="none" stroke="midnightblue" d="M452.4,-527.17C442.71,-508.53 426.6,-483.25 405,-469 356.4,-436.93 290.8,-424.88 241.76,-420.51"/>
<polygon fill="midnightblue" stroke="midnightblue" points="449.3,-528.8 456.87,-536.21 455.57,-525.7 449.3,-528.8"/>
</g>
<!-- Node5 -->
<g id="node5" class="node">
<title>Node5</title>
<g id="a_node5"><a xlink:href="RangeBinaryTree_8hpp.html" target="_top" xlink:title=" ">
<polygon fill="white" stroke="black" points="84.5,-335.5 84.5,-365.5 221.5,-365.5 221.5,-335.5 84.5,-335.5"/>
<text text-anchor="start" x="92.5" y="-353.5" font-family="Helvetica,sans-Serif" font-size="10.00">TravellersApp/src/collection</text>
<text text-anchor="middle" x="153" y="-342.5" font-family="Helvetica,sans-Serif" font-size="10.00">/RangeBinaryTree.hpp</text>
</a>
</g>
</g>
<!-- Node2&#45;&gt;Node5 -->
<g id="edge38" class="edge">
<title>Node2&#45;&gt;Node5</title>
<path fill="none" stroke="midnightblue" d="M384.25,-545.8C276.25,-538.53 93.19,-522.98 73,-500 64.58,-490.42 57.34,-431.9 74,-402 83.11,-385.65 99.98,-373.8 115.8,-365.7"/>
<polygon fill="midnightblue" stroke="midnightblue" points="384.24,-549.3 394.45,-546.47 384.71,-542.32 384.24,-549.3"/>
</g>
<!-- Node6 -->
<g id="node6" class="node">
<title>Node6</title>
<g id="a_node6"><a xlink:href="Stack_8hpp.html" target="_top" xlink:title=" ">
<polygon fill="white" stroke="black" points="104.5,-469.5 104.5,-499.5 241.5,-499.5 241.5,-469.5 104.5,-469.5"/>
<text text-anchor="start" x="112.5" y="-487.5" font-family="Helvetica,sans-Serif" font-size="10.00">TravellersApp/src/collection</text>
<text text-anchor="middle" x="173" y="-476.5" font-family="Helvetica,sans-Serif" font-size="10.00">/Stack.hpp</text>
</a>
</g>
</g>
<!-- Node2&#45;&gt;Node6 -->
<g id="edge5" class="edge">
<title>Node2&#45;&gt;Node6</title>
<path fill="none" stroke="midnightblue" d="M390.51,-534.25C342.98,-523.6 281.44,-509.81 235.96,-499.61"/>
<polygon fill="midnightblue" stroke="midnightblue" points="389.91,-537.7 400.43,-536.48 391.44,-530.87 389.91,-537.7"/>
</g>
<!-- Node2&#45;&gt;Node7 -->
<g id="edge7" class="edge">
<title>Node2&#45;&gt;Node7</title>
<path fill="none" stroke="midnightblue" d="M541.85,-536.54C607.18,-524.96 699.11,-508.68 761.43,-497.65"/>
<polygon fill="midnightblue" stroke="midnightblue" points="540.84,-533.16 531.6,-538.35 542.06,-540.05 540.84,-533.16"/>
</g>
<!-- Node9 -->
<g id="node9" class="node">
<title>Node9</title>
<g id="a_node9"><a xlink:href="Scanner_8hpp.html" target="_top" xlink:title=" ">
<polygon fill="white" stroke="black" points="258.5,-335.5 258.5,-365.5 381.5,-365.5 381.5,-335.5 258.5,-335.5"/>
<text text-anchor="start" x="266.5" y="-353.5" font-family="Helvetica,sans-Serif" font-size="10.00">TravellersApp/src/parser</text>
<text text-anchor="middle" x="320" y="-342.5" font-family="Helvetica,sans-Serif" font-size="10.00">/Scanner.hpp</text>
</a>
</g>
</g>
<!-- Node2&#45;&gt;Node9 -->
<g id="edge41" class="edge">
<title>Node2&#45;&gt;Node9</title>
<path fill="none" stroke="midnightblue" d="M384.21,-551.28C287.49,-550.36 131.74,-542.13 95,-500 66.37,-467.17 67.78,-436 95,-402 105.29,-389.15 195.26,-371.96 258.26,-361.32"/>
<polygon fill="midnightblue" stroke="midnightblue" points="384.22,-554.78 394.25,-551.35 384.27,-547.78 384.22,-554.78"/>
</g>
<!-- Node2&#45;&gt;Node10 -->
<g id="edge40" class="edge">
<title>Node2&#45;&gt;Node10</title>
<path fill="none" stroke="midnightblue" d="M463.83,-526.07C465.67,-471.57 470.07,-341.52 471.52,-298.55"/>
<polygon fill="midnightblue" stroke="midnightblue" points="460.32,-526.09 463.48,-536.2 467.32,-526.32 460.32,-526.09"/>
</g>
<!-- Node12 -->
<g id="node12" class="node">
<title>Node12</title>
<g id="a_node12"><a xlink:href="User_8hpp.html" target="_top" xlink:title=" ">
<polygon fill="white" stroke="black" points="627.5,-207 627.5,-226 762.5,-226 762.5,-207 627.5,-207"/>
<text text-anchor="middle" x="695" y="-214" font-family="Helvetica,sans-Serif" font-size="10.00">TravellersApp/src/User.hpp</text>
</a>
</g>
</g>
<!-- Node2&#45;&gt;Node12 -->
<g id="edge46" class="edge">
<title>Node2&#45;&gt;Node12</title>
<path fill="none" stroke="midnightblue" d="M541.81,-546.71C576.34,-540.83 614.31,-527.84 638,-500 705.3,-420.9 633.26,-366.56 666,-268 671.23,-252.26 681.66,-235.97 688.48,-226.28"/>
<polygon fill="midnightblue" stroke="midnightblue" points="541.06,-543.29 531.7,-548.25 542.11,-550.21 541.06,-543.29"/>
</g>
<!-- Node26 -->
<g id="node26" class="node">
<title>Node26</title>
<g id="a_node26"><a xlink:href="SortedArrayList_8hpp.html" target="_top" xlink:title=" ">
<polygon fill="white" stroke="black" points="491.5,-469.5 491.5,-499.5 628.5,-499.5 628.5,-469.5 491.5,-469.5"/>
<text text-anchor="start" x="499.5" y="-487.5" font-family="Helvetica,sans-Serif" font-size="10.00">TravellersApp/src/collection</text>
<text text-anchor="middle" x="560" y="-476.5" font-family="Helvetica,sans-Serif" font-size="10.00">/SortedArrayList.hpp</text>
</a>
</g>
</g>
<!-- Node2&#45;&gt;Node26 -->
<g id="edge39" class="edge">
<title>Node2&#45;&gt;Node26</title>
<path fill="none" stroke="midnightblue" d="M492.5,-530.73C507.51,-520.68 525.4,-508.68 538.99,-499.58"/>
<polygon fill="midnightblue" stroke="midnightblue" points="490.41,-527.92 484.05,-536.4 494.3,-533.74 490.41,-527.92"/>
</g>
<!-- Node27 -->
<g id="node27" class="node">
<title>Node27</title>
<g id="a_node27"><a xlink:href="VisitBuilder_8hpp.html" target="_top" xlink:title=" ">
<polygon fill="white" stroke="black" points="675,-274 675,-293 839,-293 839,-274 675,-274"/>
<text text-anchor="middle" x="757" y="-281" font-family="Helvetica,sans-Serif" font-size="10.00">TravellersApp/src/VisitBuilder.hpp</text>
</a>
</g>
</g>
<!-- Node2&#45;&gt;Node27 -->
<g id="edge42" class="edge">
<title>Node2&#45;&gt;Node27</title>
<path fill="none" stroke="midnightblue" d="M541.7,-548.44C584.4,-543.47 635.53,-530.77 671,-500 737.63,-442.19 753.2,-325.58 756.31,-293.08"/>
<polygon fill="midnightblue" stroke="midnightblue" points="541.19,-544.97 531.61,-549.49 541.92,-551.94 541.19,-544.97"/>
</g>
<!-- Node4&#45;&gt;Node5 -->
<g id="edge4" class="edge">
<title>Node4&#45;&gt;Node5</title>
<path fill="none" stroke="midnightblue" d="M165.68,-392.7C162.87,-383.59 159.77,-373.49 157.33,-365.58"/>
<polygon fill="midnightblue" stroke="midnightblue" points="162.37,-393.87 168.66,-402.4 169.06,-391.81 162.37,-393.87"/>
</g>
<!-- Node6&#45;&gt;Node4 -->
<g id="edge6" class="edge">
<title>Node6&#45;&gt;Node4</title>
<path fill="none" stroke="midnightblue" d="M173,-459.11C173,-450.15 173,-440.32 173,-432.58"/>
<polygon fill="midnightblue" stroke="midnightblue" points="169.5,-459.4 173,-469.4 176.5,-459.4 169.5,-459.4"/>
</g>
<!-- Node8 -->
<g id="node8" class="node">
<title>Node8</title>
<g id="a_node8"><a xlink:href="CommandList_8hpp.html" target="_top" xlink:title=" ">
<polygon fill="white" stroke="black" points="843.5,-402.5 843.5,-432.5 966.5,-432.5 966.5,-402.5 843.5,-402.5"/>
<text text-anchor="start" x="851.5" y="-420.5" font-family="Helvetica,sans-Serif" font-size="10.00">TravellersApp/src/parser</text>
<text text-anchor="middle" x="905" y="-409.5" font-family="Helvetica,sans-Serif" font-size="10.00">/CommandList.hpp</text>
</a>
</g>
</g>
<!-- Node7&#45;&gt;Node8 -->
<g id="edge8" class="edge">
<title>Node7&#45;&gt;Node8</title>
<path fill="none" stroke="midnightblue" d="M854.12,-462.6C865.44,-452.78 878.64,-441.34 888.76,-432.58"/>
<polygon fill="midnightblue" stroke="midnightblue" points="851.54,-460.2 846.27,-469.4 856.12,-465.49 851.54,-460.2"/>
</g>
<!-- Node8&#45;&gt;Node9 -->
<g id="edge9" class="edge">
<title>Node8&#45;&gt;Node9</title>
<path fill="none" stroke="midnightblue" d="M833.04,-408.5C717.13,-395.63 491.08,-370.51 381.92,-358.38"/>
<polygon fill="midnightblue" stroke="midnightblue" points="832.9,-412.01 843.22,-409.64 833.67,-405.05 832.9,-412.01"/>
</g>
<!-- Node14 -->
<g id="node14" class="node">
<title>Node14</title>
<g id="a_node14"><a xlink:href="HTLInterpreter_8hpp.html" target="_top" xlink:title=" ">
<polygon fill="white" stroke="black" points="635.5,-67.5 635.5,-97.5 758.5,-97.5 758.5,-67.5 635.5,-67.5"/>
<text text-anchor="start" x="643.5" y="-85.5" font-family="Helvetica,sans-Serif" font-size="10.00">TravellersApp/src/parser</text>
<text text-anchor="middle" x="697" y="-74.5" font-family="Helvetica,sans-Serif" font-size="10.00">/HTLInterpreter.hpp</text>
</a>
</g>
</g>
<!-- Node8&#45;&gt;Node14 -->
<g id="edge29" class="edge">
<title>Node8&#45;&gt;Node14</title>
<path fill="none" stroke="midnightblue" d="M893.85,-392.86C882.63,-366.89 867,-323.66 867,-284.5 867,-284.5 867,-284.5 867,-215.5 867,-153.1 794.66,-115.94 744.35,-97.64"/>
<polygon fill="midnightblue" stroke="midnightblue" points="890.76,-394.53 898.03,-402.24 897.15,-391.68 890.76,-394.53"/>
</g>
<!-- Node16 -->
<g id="node16" class="node">
<title>Node16</title>
<g id="a_node16"><a xlink:href="LoginInterpreter_8hpp.html" target="_top" xlink:title=" ">
<polygon fill="white" stroke="black" points="1058.5,-67.5 1058.5,-97.5 1181.5,-97.5 1181.5,-67.5 1058.5,-67.5"/>
<text text-anchor="start" x="1066.5" y="-85.5" font-family="Helvetica,sans-Serif" font-size="10.00">TravellersApp/src/parser</text>
<text text-anchor="middle" x="1120" y="-74.5" font-family="Helvetica,sans-Serif" font-size="10.00">/LoginInterpreter.hpp</text>
</a>
</g>
</g>
<!-- Node8&#45;&gt;Node16 -->
<g id="edge35" class="edge">
<title>Node8&#45;&gt;Node16</title>
<path fill="none" stroke="midnightblue" d="M976.58,-410.83C1012.91,-404.68 1055.65,-392 1086,-366 1116.21,-340.12 1123,-324.28 1123,-284.5 1123,-284.5 1123,-284.5 1123,-215.5 1123,-172.63 1121.4,-121.96 1120.54,-97.76"/>
<polygon fill="midnightblue" stroke="midnightblue" points="975.86,-407.4 966.52,-412.4 976.94,-414.32 975.86,-407.4"/>
</g>
<!-- Node18 -->
<g id="node18" class="node">
<title>Node18</title>
<g id="a_node18"><a xlink:href="VisitInterpreter_8hpp.html" target="_top" xlink:title=" ">
<polygon fill="white" stroke="black" points="776.5,-67.5 776.5,-97.5 899.5,-97.5 899.5,-67.5 776.5,-67.5"/>
<text text-anchor="start" x="784.5" y="-85.5" font-family="Helvetica,sans-Serif" font-size="10.00">TravellersApp/src/parser</text>
<text text-anchor="middle" x="838" y="-74.5" font-family="Helvetica,sans-Serif" font-size="10.00">/VisitInterpreter.hpp</text>
</a>
</g>
</g>
<!-- Node8&#45;&gt;Node18 -->
<g id="edge37" class="edge">
<title>Node8&#45;&gt;Node18</title>
<path fill="none" stroke="midnightblue" d="M905,-391.99C905,-365.49 905,-322 905,-284.5 905,-284.5 905,-284.5 905,-215.5 905,-177.74 898.97,-167.21 881,-134 873.66,-120.43 862.22,-107.23 852.99,-97.73"/>
<polygon fill="midnightblue" stroke="midnightblue" points="901.5,-392.24 905,-402.24 908.5,-392.24 901.5,-392.24"/>
</g>
<!-- Node23 -->
<g id="node23" class="node">
<title>Node23</title>
<g id="a_node23"><a xlink:href="Interpreter_8hpp.html" target="_top" xlink:title=" ">
<polygon fill="white" stroke="black" points="933.5,-134.5 933.5,-164.5 1056.5,-164.5 1056.5,-134.5 933.5,-134.5"/>
<text text-anchor="start" x="941.5" y="-152.5" font-family="Helvetica,sans-Serif" font-size="10.00">TravellersApp/src/parser</text>
<text text-anchor="middle" x="995" y="-141.5" font-family="Helvetica,sans-Serif" font-size="10.00">/Interpreter.hpp</text>
</a>
</g>
</g>
<!-- Node8&#45;&gt;Node23 -->
<g id="edge30" class="edge">
<title>Node8&#45;&gt;Node23</title>
<path fill="none" stroke="midnightblue" d="M976.86,-412.62C1009.57,-406.83 1045.49,-393.92 1066,-366 1113.91,-300.75 1039.15,-201.39 1007.79,-164.73"/>
<polygon fill="midnightblue" stroke="midnightblue" points="976.16,-409.19 966.83,-414.21 977.25,-416.11 976.16,-409.19"/>
</g>
<!-- Node25 -->
<g id="node25" class="node">
<title>Node25</title>
<g id="a_node25"><a xlink:href="CommandList_8cpp.html" target="_top" xlink:title=" ">
<polygon fill="white" stroke="black" points="933.5,-335.5 933.5,-365.5 1056.5,-365.5 1056.5,-335.5 933.5,-335.5"/>
<text text-anchor="start" x="941.5" y="-353.5" font-family="Helvetica,sans-Serif" font-size="10.00">TravellersApp/src/parser</text>
<text text-anchor="middle" x="995" y="-342.5" font-family="Helvetica,sans-Serif" font-size="10.00">/CommandList.cpp</text>
</a>
</g>
</g>
<!-- Node8&#45;&gt;Node25 -->
<g id="edge36" class="edge">
<title>Node8&#45;&gt;Node25</title>
<path fill="none" stroke="midnightblue" d="M932.76,-396.45C946.61,-386.45 963.02,-374.6 975.51,-365.58"/>
<polygon fill="midnightblue" stroke="midnightblue" points="930.59,-393.7 924.53,-402.4 934.68,-399.38 930.59,-393.7"/>
</g>
<!-- Node9&#45;&gt;Node10 -->
<g id="edge10" class="edge">
<title>Node9&#45;&gt;Node10</title>
<path fill="none" stroke="midnightblue" d="M362.31,-331.41C386.58,-321.03 416.59,-308.2 439.08,-298.58"/>
<polygon fill="midnightblue" stroke="midnightblue" points="360.8,-328.25 352.98,-335.4 363.55,-334.68 360.8,-328.25"/>
</g>
<!-- Node9&#45;&gt;Node11 -->
<g id="edge26" class="edge">
<title>Node9&#45;&gt;Node11</title>
<path fill="none" stroke="midnightblue" d="M264.05,-331.29C248.08,-323.61 232.03,-313.1 221,-299 198.08,-269.71 202,-254.69 202,-217.5 202,-217.5 202,-217.5 202,-148.5 202,-72.07 301.27,-38.68 365.83,-25.05"/>
<polygon fill="midnightblue" stroke="midnightblue" points="262.84,-334.58 273.4,-335.48 265.71,-328.2 262.84,-334.58"/>
</g>
<!-- Node15 -->
<g id="node15" class="node">
<title>Node15</title>
<g id="a_node15"><a xlink:href="HTLInterpreter_8cpp.html" target="_top" xlink:title=" ">
<polygon fill="white" stroke="black" points="635.5,-0.5 635.5,-30.5 758.5,-30.5 758.5,-0.5 635.5,-0.5"/>
<text text-anchor="start" x="643.5" y="-18.5" font-family="Helvetica,sans-Serif" font-size="10.00">TravellersApp/src/parser</text>
<text text-anchor="middle" x="697" y="-7.5" font-family="Helvetica,sans-Serif" font-size="10.00">/HTLInterpreter.cpp</text>
</a>
</g>
</g>
<!-- Node9&#45;&gt;Node15 -->
<g id="edge27" class="edge">
<title>Node9&#45;&gt;Node15</title>
<path fill="none" stroke="midnightblue" d="M341.72,-327.82C349.1,-319.42 356.78,-309.34 362,-299 378.8,-265.7 382,-254.8 382,-217.5 382,-217.5 382,-217.5 382,-148.5 382,-39.84 543.41,-19.11 635.14,-16.1"/>
<polygon fill="midnightblue" stroke="midnightblue" points="339.02,-325.59 334.84,-335.32 344.18,-330.32 339.02,-325.59"/>
</g>
<!-- Node22 -->
<g id="node22" class="node">
<title>Node22</title>
<g id="a_node22"><a xlink:href="Scanner_8cpp.html" target="_top" xlink:title=" ">
<polygon fill="white" stroke="black" points="230.5,-268.5 230.5,-298.5 353.5,-298.5 353.5,-268.5 230.5,-268.5"/>
<text text-anchor="start" x="238.5" y="-286.5" font-family="Helvetica,sans-Serif" font-size="10.00">TravellersApp/src/parser</text>
<text text-anchor="middle" x="292" y="-275.5" font-family="Helvetica,sans-Serif" font-size="10.00">/Scanner.cpp</text>
</a>
</g>
</g>
<!-- Node9&#45;&gt;Node22 -->
<g id="edge28" class="edge">
<title>Node9&#45;&gt;Node22</title>
<path fill="none" stroke="midnightblue" d="M309.87,-325.99C305.92,-316.8 301.51,-306.58 298.06,-298.58"/>
<polygon fill="midnightblue" stroke="midnightblue" points="306.75,-327.6 313.92,-335.4 313.18,-324.83 306.75,-327.6"/>
</g>
<!-- Node10&#45;&gt;Node11 -->
<g id="edge11" class="edge">
<title>Node10&#45;&gt;Node11</title>
<path fill="none" stroke="midnightblue" d="M467.23,-258.47C465.57,-250.09 463.7,-240.63 462,-232 446.2,-151.59 427.32,-54.24 421.67,-25.12"/>
<polygon fill="midnightblue" stroke="midnightblue" points="463.81,-259.23 469.19,-268.35 470.67,-257.86 463.81,-259.23"/>
</g>
<!-- Node10&#45;&gt;Node12 -->
<g id="edge12" class="edge">
<title>Node10&#45;&gt;Node12</title>
<path fill="none" stroke="midnightblue" d="M529.74,-265.67C573.32,-252.97 631.31,-236.06 665.74,-226.03"/>
<polygon fill="midnightblue" stroke="midnightblue" points="528.73,-262.32 520.11,-268.48 530.69,-269.04 528.73,-262.32"/>
</g>
<!-- Node13 -->
<g id="node13" class="node">
<title>Node13</title>
<g id="a_node13"><a xlink:href="TravelState_8hpp.html" target="_top" xlink:title=" ">
<polygon fill="white" stroke="black" points="635.5,-134.5 635.5,-164.5 758.5,-164.5 758.5,-134.5 635.5,-134.5"/>
<text text-anchor="start" x="643.5" y="-152.5" font-family="Helvetica,sans-Serif" font-size="10.00">TravellersApp/src/Travel</text>
<text text-anchor="middle" x="697" y="-141.5" font-family="Helvetica,sans-Serif" font-size="10.00">State.hpp</text>
</a>
</g>
</g>
<!-- Node10&#45;&gt;Node13 -->
<g id="edge24" class="edge">
<title>Node10&#45;&gt;Node13</title>
<path fill="none" stroke="midnightblue" d="M466.45,-258.27C463.87,-240.39 463.8,-216.56 477,-201 497.21,-177.16 577.64,-163.42 635.4,-156.46"/>
<polygon fill="midnightblue" stroke="midnightblue" points="463.03,-259.02 468.23,-268.25 469.92,-257.79 463.03,-259.02"/>
</g>
<!-- Node21 -->
<g id="node21" class="node">
<title>Node21</title>
<g id="a_node21"><a xlink:href="CSV_8cpp.html" target="_top" xlink:title=" ">
<polygon fill="white" stroke="black" points="486.5,-201.5 486.5,-231.5 609.5,-231.5 609.5,-201.5 486.5,-201.5"/>
<text text-anchor="start" x="494.5" y="-219.5" font-family="Helvetica,sans-Serif" font-size="10.00">TravellersApp/src/parser</text>
<text text-anchor="middle" x="548" y="-208.5" font-family="Helvetica,sans-Serif" font-size="10.00">/CSV.cpp</text>
</a>
</g>
</g>
<!-- Node10&#45;&gt;Node21 -->
<g id="edge25" class="edge">
<title>Node10&#45;&gt;Node21</title>
<path fill="none" stroke="midnightblue" d="M496.11,-261.88C507.66,-252.01 521.19,-240.43 531.54,-231.58"/>
<polygon fill="midnightblue" stroke="midnightblue" points="493.82,-259.24 488.49,-268.4 498.37,-264.56 493.82,-259.24"/>
</g>
<!-- Node12&#45;&gt;Node13 -->
<g id="edge13" class="edge">
<title>Node12&#45;&gt;Node13</title>
<path fill="none" stroke="midnightblue" d="M695.59,-196.41C695.9,-186.22 696.28,-173.9 696.57,-164.59"/>
<polygon fill="midnightblue" stroke="midnightblue" points="692.08,-196.63 695.27,-206.73 699.08,-196.85 692.08,-196.63"/>
</g>
<!-- Node13&#45;&gt;Node14 -->
<g id="edge14" class="edge">
<title>Node13&#45;&gt;Node14</title>
<path fill="none" stroke="midnightblue" d="M697,-124.11C697,-115.15 697,-105.32 697,-97.58"/>
<polygon fill="midnightblue" stroke="midnightblue" points="693.5,-124.4 697,-134.4 700.5,-124.4 693.5,-124.4"/>
</g>
<!-- Node13&#45;&gt;Node16 -->
<g id="edge17" class="edge">
<title>Node13&#45;&gt;Node16</title>
<path fill="none" stroke="midnightblue" d="M768.96,-139.54C840.44,-130.32 953.08,-114.95 1050,-98 1052.69,-97.53 1055.43,-97.03 1058.2,-96.52"/>
<polygon fill="midnightblue" stroke="midnightblue" points="768.19,-136.11 758.72,-140.85 769.08,-143.05 768.19,-136.11"/>
</g>
<!-- Node13&#45;&gt;Node18 -->
<g id="edge20" class="edge">
<title>Node13&#45;&gt;Node18</title>
<path fill="none" stroke="midnightblue" d="M736.85,-130.13C759.25,-119.8 786.78,-107.11 807.46,-97.58"/>
<polygon fill="midnightblue" stroke="midnightblue" points="735.21,-127.03 727.59,-134.4 738.14,-133.39 735.21,-127.03"/>
</g>
<!-- Node20 -->
<g id="node20" class="node">
<title>Node20</title>
<g id="a_node20"><a xlink:href="TravelState_8cpp.html" target="_top" xlink:title=" ">
<polygon fill="white" stroke="black" points="494.5,-67.5 494.5,-97.5 617.5,-97.5 617.5,-67.5 494.5,-67.5"/>
<text text-anchor="start" x="502.5" y="-85.5" font-family="Helvetica,sans-Serif" font-size="10.00">TravellersApp/src/Travel</text>
<text text-anchor="middle" x="556" y="-74.5" font-family="Helvetica,sans-Serif" font-size="10.00">State.cpp</text>
</a>
</g>
</g>
<!-- Node13&#45;&gt;Node20 -->
<g id="edge23" class="edge">
<title>Node13&#45;&gt;Node20</title>
<path fill="none" stroke="midnightblue" d="M657.15,-130.13C634.75,-119.8 607.22,-107.11 586.54,-97.58"/>
<polygon fill="midnightblue" stroke="midnightblue" points="655.86,-133.39 666.41,-134.4 658.79,-127.03 655.86,-133.39"/>
</g>
<!-- Node14&#45;&gt;Node11 -->
<g id="edge15" class="edge">
<title>Node14&#45;&gt;Node11</title>
<path fill="none" stroke="midnightblue" d="M627.32,-65.15C572.96,-52.39 499.65,-35.19 456.35,-25.03"/>
<polygon fill="midnightblue" stroke="midnightblue" points="626.7,-68.6 637.24,-67.48 628.3,-61.78 626.7,-68.6"/>
</g>
<!-- Node14&#45;&gt;Node15 -->
<g id="edge16" class="edge">
<title>Node14&#45;&gt;Node15</title>
<path fill="none" stroke="midnightblue" d="M697,-57.11C697,-48.15 697,-38.32 697,-30.58"/>
<polygon fill="midnightblue" stroke="midnightblue" points="693.5,-57.4 697,-67.4 700.5,-57.4 693.5,-57.4"/>
</g>
<!-- Node16&#45;&gt;Node11 -->
<g id="edge18" class="edge">
<title>Node16&#45;&gt;Node11</title>
<path fill="none" stroke="midnightblue" d="M1048.3,-66.98C964.56,-56.89 632.41,-32.09 487.75,-21.45"/>
<polygon fill="midnightblue" stroke="midnightblue" points="1047.87,-70.45 1058.24,-68.27 1048.77,-63.51 1047.87,-70.45"/>
</g>
<!-- Node17 -->
<g id="node17" class="node">
<title>Node17</title>
<g id="a_node17"><a xlink:href="LoginInterpreter_8cpp.html" target="_top" xlink:title=" ">
<polygon fill="white" stroke="black" points="1058.5,-0.5 1058.5,-30.5 1181.5,-30.5 1181.5,-0.5 1058.5,-0.5"/>
<text text-anchor="start" x="1066.5" y="-18.5" font-family="Helvetica,sans-Serif" font-size="10.00">TravellersApp/src/parser</text>
<text text-anchor="middle" x="1120" y="-7.5" font-family="Helvetica,sans-Serif" font-size="10.00">/LoginInterpreter.cpp</text>
</a>
</g>
</g>
<!-- Node16&#45;&gt;Node17 -->
<g id="edge19" class="edge">
<title>Node16&#45;&gt;Node17</title>
<path fill="none" stroke="midnightblue" d="M1120,-57.11C1120,-48.15 1120,-38.32 1120,-30.58"/>
<polygon fill="midnightblue" stroke="midnightblue" points="1116.5,-57.4 1120,-67.4 1123.5,-57.4 1116.5,-57.4"/>
</g>
<!-- Node18&#45;&gt;Node15 -->
<g id="edge21" class="edge">
<title>Node18&#45;&gt;Node15</title>
<path fill="none" stroke="midnightblue" d="M798.15,-63.13C775.75,-52.8 748.22,-40.11 727.54,-30.58"/>
<polygon fill="midnightblue" stroke="midnightblue" points="796.86,-66.39 807.41,-67.4 799.79,-60.03 796.86,-66.39"/>
</g>
<!-- Node19 -->
<g id="node19" class="node">
<title>Node19</title>
<g id="a_node19"><a xlink:href="VisitInterpreter_8cpp.html" target="_top" xlink:title=" ">
<polygon fill="white" stroke="black" points="776.5,-0.5 776.5,-30.5 899.5,-30.5 899.5,-0.5 776.5,-0.5"/>
<text text-anchor="start" x="784.5" y="-18.5" font-family="Helvetica,sans-Serif" font-size="10.00">TravellersApp/src/parser</text>
<text text-anchor="middle" x="838" y="-7.5" font-family="Helvetica,sans-Serif" font-size="10.00">/VisitInterpreter.cpp</text>
</a>
</g>
</g>
<!-- Node18&#45;&gt;Node19 -->
<g id="edge22" class="edge">
<title>Node18&#45;&gt;Node19</title>
<path fill="none" stroke="midnightblue" d="M838,-57.11C838,-48.15 838,-38.32 838,-30.58"/>
<polygon fill="midnightblue" stroke="midnightblue" points="834.5,-57.4 838,-67.4 841.5,-57.4 834.5,-57.4"/>
</g>
<!-- Node23&#45;&gt;Node14 -->
<g id="edge31" class="edge">
<title>Node23&#45;&gt;Node14</title>
<path fill="none" stroke="midnightblue" d="M923.43,-132.89C873.15,-121.92 806.59,-107.4 758.67,-96.95"/>
<polygon fill="midnightblue" stroke="midnightblue" points="922.74,-136.32 933.25,-135.03 924.23,-129.48 922.74,-136.32"/>
</g>
<!-- Node23&#45;&gt;Node16 -->
<g id="edge32" class="edge">
<title>Node23&#45;&gt;Node16</title>
<path fill="none" stroke="midnightblue" d="M1031.13,-129.71C1050.84,-119.46 1074.84,-106.98 1092.93,-97.58"/>
<polygon fill="midnightblue" stroke="midnightblue" points="1029.38,-126.68 1022.12,-134.4 1032.61,-132.89 1029.38,-126.68"/>
</g>
<!-- Node23&#45;&gt;Node18 -->
<g id="edge33" class="edge">
<title>Node23&#45;&gt;Node18</title>
<path fill="none" stroke="midnightblue" d="M951.63,-130.54C926.51,-120.14 895.34,-107.24 872,-97.58"/>
<polygon fill="midnightblue" stroke="midnightblue" points="950.36,-133.8 960.93,-134.4 953.03,-127.34 950.36,-133.8"/>
</g>
<!-- Node24 -->
<g id="node24" class="node">
<title>Node24</title>
<g id="a_node24"><a xlink:href="Interpreter_8cpp.html" target="_top" xlink:title=" ">
<polygon fill="white" stroke="black" points="917.5,-67.5 917.5,-97.5 1040.5,-97.5 1040.5,-67.5 917.5,-67.5"/>
<text text-anchor="start" x="925.5" y="-85.5" font-family="Helvetica,sans-Serif" font-size="10.00">TravellersApp/src/parser</text>
<text text-anchor="middle" x="979" y="-74.5" font-family="Helvetica,sans-Serif" font-size="10.00">/Interpreter.cpp</text>
</a>
</g>
</g>
<!-- Node23&#45;&gt;Node24 -->
<g id="edge34" class="edge">
<title>Node23&#45;&gt;Node24</title>
<path fill="none" stroke="midnightblue" d="M989.07,-124.4C986.84,-115.37 984.39,-105.41 982.46,-97.58"/>
<polygon fill="midnightblue" stroke="midnightblue" points="985.74,-125.52 991.53,-134.4 992.54,-123.85 985.74,-125.52"/>
</g>
<!-- Node27&#45;&gt;Node12 -->
<g id="edge43" class="edge">
<title>Node27&#45;&gt;Node12</title>
<path fill="none" stroke="midnightblue" d="M741.74,-266.5C729.58,-253.75 713.02,-236.39 703.23,-226.13"/>
<polygon fill="midnightblue" stroke="midnightblue" points="739.2,-268.91 748.64,-273.73 744.27,-264.08 739.2,-268.91"/>
</g>
<!-- Node27&#45;&gt;Node13 -->
<g id="edge44" class="edge">
<title>Node27&#45;&gt;Node13</title>
<path fill="none" stroke="midnightblue" d="M766.7,-264.42C774.53,-247.19 782.64,-220.98 772,-201 763.37,-184.79 746.96,-172.85 731.69,-164.66"/>
<polygon fill="midnightblue" stroke="midnightblue" points="763.34,-263.34 762.04,-273.85 769.61,-266.44 763.34,-263.34"/>
</g>
<!-- Node27&#45;&gt;Node18 -->
<g id="edge45" class="edge">
<title>Node27&#45;&gt;Node18</title>
<path fill="none" stroke="midnightblue" d="M768.84,-265.4C775.09,-255.86 782.57,-243.6 788,-232 810.14,-184.69 827.19,-124.81 834.34,-97.83"/>
<polygon fill="midnightblue" stroke="midnightblue" points="765.8,-263.65 763.12,-273.9 771.6,-267.56 765.8,-263.65"/>
</g>
</g>
</svg>
        <g id="navigator" transform="translate(0 0)" fill="#404254">
                <rect fill="#f2f5e9" fill-opacity="0.5" stroke="#606060" stroke-width=".5" x="0" y="0" width="60" height="60"/>
                <use id="zoomplus" xlink:href="#zoomPlus" x="17" y="9" onmousedown="handleZoom(evt,'in')"/>
                <use id="zoomminus" xlink:href="#zoomMin" x="42" y="9" onmousedown="handleZoom(evt,'out')"/>
                <use id="reset" xlink:href="#resetDef" x="30" y="36" onmousedown="handleReset()"/>
                <g id="arrowUp" xlink:href="#dirArrow" transform="translate(30 24)" onmousedown="handlePan(0,-1)">
                  <use xlink:href="#rim" fill="#404040">
                        <set attributeName="fill" to="#808080" begin="arrowUp.mouseover" end="arrowUp.mouseout"/>
                  </use>
                  <path fill="none" stroke="white" stroke-width="1.5" d="M0,-3.0v7 M-2.5,-0.5L0,-3.0L2.5,-0.5"/>
                </g>
                <g id="arrowRight" xlink:href="#dirArrow" transform="rotate(90) translate(36 -43)" onmousedown="handlePan(1,0)">
                  <use xlink:href="#rim" fill="#404040">
                        <set attributeName="fill" to="#808080" begin="arrowRight.mouseover" end="arrowRight.mouseout"/>
                  </use>
                  <path fill="none" stroke="white" stroke-width="1.5" d="M0,-3.0v7 M-2.5,-0.5L0,-3.0L2.5,-0.5"/>
                </g>
                <g id="arrowDown" xlink:href="#dirArrow" transform="rotate(180) translate(-30 -48)" onmousedown="handlePan(0,1)">
                  <use xlink:href="#rim" fill="#404040">
                        <set attributeName="fill" to="#808080" begin="arrowDown.mouseover" end="arrowDown.mouseout"/>
                  </use>
                  <path fill="none" stroke="white" stroke-width="1.5" d="M0,-3.0v7 M-2.5,-0.5L0,-3.0L2.5,-0.5"/>
                </g>
                <g id="arrowLeft" xlink:href="#dirArrow" transform="rotate(270) translate(-36 17)" onmousedown="handlePan(-1,0)">
                  <use xlink:href="#rim" fill="#404040">
                        <set attributeName="fill" to="#808080" begin="arrowLeft.mouseover" end="arrowLeft.mouseout"/>
                  </use>
                  <path fill="none" stroke="white" stroke-width="1.5" d="M0,-3.0v7 M-2.5,-0.5L0,-3.0L2.5,-0.5"/>
                </g>
        </g>
        <svg viewBox="0 0 15 15" width="100%" height="30px" preserveAspectRatio="xMaxYMin meet">
         <g id="arrow_out" transform="scale(0.3 0.3)">
          <a xlink:href="Tuple_8hpp__dep__incl_org.svg" target="_base">
           <rect id="button" ry="5" rx="5" y="6" x="6" height="38" width="38"
                fill="#f2f5e9" fill-opacity="0.5" stroke="#606060" stroke-width="1.0"/>
           <path id="arrow"
             d="M 11.500037,31.436501 C 11.940474,20.09759 22.043105,11.32322 32.158766,21.979434 L 37.068811,17.246167 C 37.068811,17.246167 37.088388,32 37.088388,32 L 22.160133,31.978069 C 22.160133,31.978069 26.997745,27.140456 26.997745,27.140456 C 18.528582,18.264221 13.291696,25.230495 11.500037,31.436501 z"
             style="fill:#404040;"/>
          </a>
         </g>
        </svg>
</svg>
