<?xml version="1.0" encoding="UTF-8" standalone="no"?>
<!DOCTYPE svg PUBLIC "-//W3C//DTD SVG 1.1//EN"
 "http://www.w3.org/Graphics/SVG/1.1/DTD/svg11.dtd">
<!-- Generated by graphviz version 2.44.0 (0)
 -->
<!-- Title: TravellersApp/src/User.hpp Pages: 1 -->
<svg width="1165pt" height="532pt"
 viewBox="0.00 0.00 1164.50 532.00" xmlns="http://www.w3.org/2000/svg" xmlns:xlink="http://www.w3.org/1999/xlink">
<g id="graph0" class="graph" transform="scale(1 1) rotate(0) translate(4 528)">
<title>TravellersApp/src/User.hpp</title>
<polygon fill="white" stroke="transparent" points="-4,4 -4,-528 1160.5,-528 1160.5,4 -4,4"/>
<!-- Node1 -->
<g id="node1" class="node">
<title>Node1</title>
<g id="a_node1"><a xlink:title=" ">
<polygon fill="#bfbfbf" stroke="black" points="865.5,-504.5 865.5,-523.5 1000.5,-523.5 1000.5,-504.5 865.5,-504.5"/>
<text text-anchor="middle" x="933" y="-511.5" font-family="Helvetica,sans-Serif" font-size="10.00">TravellersApp/src/User.hpp</text>
</a>
</g>
</g>
<!-- Node2 -->
<g id="node2" class="node">
<title>Node2</title>
<g id="a_node2"><a xlink:title=" ">
<polygon fill="white" stroke="#bfbfbf" points="129,-448.5 129,-467.5 189,-467.5 189,-448.5 129,-448.5"/>
<text text-anchor="middle" x="159" y="-455.5" font-family="Helvetica,sans-Serif" font-size="10.00">filesystem</text>
</a>
</g>
</g>
<!-- Node1&#45;&gt;Node2 -->
<g id="edge1" class="edge">
<title>Node1&#45;&gt;Node2</title>
<path fill="none" stroke="midnightblue" d="M865.26,-511.99C735.98,-509.36 445.31,-500.09 203,-468 201.74,-467.83 200.46,-467.65 199.17,-467.46"/>
<polygon fill="midnightblue" stroke="midnightblue" points="199.65,-463.99 189.2,-465.76 198.47,-470.89 199.65,-463.99"/>
</g>
<!-- Node3 -->
<g id="node3" class="node">
<title>Node3</title>
<g id="a_node3"><a xlink:href="VisitBuilder_8hpp.html" target="_top" xlink:title=" ">
<polygon fill="white" stroke="black" points="108,-280.5 108,-299.5 192,-299.5 192,-280.5 108,-280.5"/>
<text text-anchor="middle" x="150" y="-287.5" font-family="Helvetica,sans-Serif" font-size="10.00">VisitBuilder.hpp</text>
</a>
</g>
</g>
<!-- Node1&#45;&gt;Node3 -->
<g id="edge2" class="edge">
<title>Node1&#45;&gt;Node3</title>
<path fill="none" stroke="midnightblue" d="M865.13,-508.54C756.16,-499.73 536.68,-475.14 362,-412 286.31,-384.64 206.26,-331.29 169.96,-305.56"/>
<polygon fill="midnightblue" stroke="midnightblue" points="171.87,-302.63 161.71,-299.65 167.8,-308.32 171.87,-302.63"/>
</g>
<!-- Node9 -->
<g id="node9" class="node">
<title>Node9</title>
<g id="a_node9"><a xlink:href="ArrayList_8hpp.html" target="_top" xlink:title=" ">
<polygon fill="white" stroke="black" points="621,-224.5 621,-243.5 739,-243.5 739,-224.5 621,-224.5"/>
<text text-anchor="middle" x="680" y="-231.5" font-family="Helvetica,sans-Serif" font-size="10.00">collection/ArrayList.hpp</text>
</a>
</g>
</g>
<!-- Node1&#45;&gt;Node9 -->
<g id="edge34" class="edge">
<title>Node1&#45;&gt;Node9</title>
<path fill="none" stroke="midnightblue" d="M932.05,-504.26C929.38,-483.13 920.21,-428.34 894,-392 843.67,-322.22 752.92,-270.71 707.48,-247.94"/>
<polygon fill="midnightblue" stroke="midnightblue" points="709.02,-244.8 698.5,-243.52 705.93,-251.08 709.02,-244.8"/>
</g>
<!-- Node19 -->
<g id="node19" class="node">
<title>Node19</title>
<g id="a_node19"><a xlink:title=" ">
<polygon fill="white" stroke="#bfbfbf" points="1051.5,-112.5 1051.5,-131.5 1096.5,-131.5 1096.5,-112.5 1051.5,-112.5"/>
<text text-anchor="middle" x="1074" y="-119.5" font-family="Helvetica,sans-Serif" font-size="10.00">cstdlib</text>
</a>
</g>
</g>
<!-- Node1&#45;&gt;Node19 -->
<g id="edge65" class="edge">
<title>Node1&#45;&gt;Node19</title>
<path fill="none" stroke="midnightblue" d="M966.66,-504.48C1010.89,-491.04 1083,-460.32 1083,-403 1083,-403 1083,-403 1083,-233 1083,-200.84 1079.13,-163.57 1076.47,-141.71"/>
<polygon fill="midnightblue" stroke="midnightblue" points="1079.91,-141.02 1075.18,-131.54 1072.96,-141.9 1079.91,-141.02"/>
</g>
<!-- Node21 -->
<g id="node21" class="node">
<title>Node21</title>
<g id="a_node21"><a xlink:href="CSV_8hpp.html" target="_top" xlink:title=" ">
<polygon fill="white" stroke="black" points="817.5,-448.5 817.5,-467.5 902.5,-467.5 902.5,-448.5 817.5,-448.5"/>
<text text-anchor="middle" x="860" y="-455.5" font-family="Helvetica,sans-Serif" font-size="10.00">parser/CSV.hpp</text>
</a>
</g>
</g>
<!-- Node1&#45;&gt;Node21 -->
<g id="edge35" class="edge">
<title>Node1&#45;&gt;Node21</title>
<path fill="none" stroke="midnightblue" d="M921.27,-504.32C910.16,-496.11 893.26,-483.6 880.02,-473.81"/>
<polygon fill="midnightblue" stroke="midnightblue" points="882.06,-470.97 871.94,-467.83 877.9,-476.59 882.06,-470.97"/>
</g>
<!-- Node29 -->
<g id="node29" class="node">
<title>Node29</title>
<g id="a_node29"><a xlink:title=" ">
<polygon fill="white" stroke="#bfbfbf" points="1111.5,-448.5 1111.5,-467.5 1156.5,-467.5 1156.5,-448.5 1111.5,-448.5"/>
<text text-anchor="middle" x="1134" y="-455.5" font-family="Helvetica,sans-Serif" font-size="10.00">stdio.h</text>
</a>
</g>
</g>
<!-- Node1&#45;&gt;Node29 -->
<g id="edge66" class="edge">
<title>Node1&#45;&gt;Node29</title>
<path fill="none" stroke="midnightblue" d="M964.85,-504.44C1002.19,-494.41 1063.74,-477.88 1101.4,-467.76"/>
<polygon fill="midnightblue" stroke="midnightblue" points="1102.6,-471.06 1111.34,-465.09 1100.78,-464.3 1102.6,-471.06"/>
</g>
<!-- Node4 -->
<g id="node4" class="node">
<title>Node4</title>
<g id="a_node4"><a xlink:href="Date_8hpp.html" target="_top" xlink:title=" ">
<polygon fill="white" stroke="black" points="106.5,-168.5 106.5,-187.5 161.5,-187.5 161.5,-168.5 106.5,-168.5"/>
<text text-anchor="middle" x="134" y="-175.5" font-family="Helvetica,sans-Serif" font-size="10.00">Date.hpp</text>
</a>
</g>
</g>
<!-- Node3&#45;&gt;Node4 -->
<g id="edge3" class="edge">
<title>Node3&#45;&gt;Node4</title>
<path fill="none" stroke="midnightblue" d="M148.74,-280.37C146.16,-262.62 140.21,-221.67 136.71,-197.6"/>
<polygon fill="midnightblue" stroke="midnightblue" points="140.15,-196.98 135.25,-187.59 133.23,-197.99 140.15,-196.98"/>
</g>
<!-- Node6 -->
<g id="node6" class="node">
<title>Node6</title>
<g id="a_node6"><a xlink:href="SimpleString_8hpp.html" target="_top" xlink:title=" ">
<polygon fill="white" stroke="black" points="218,-224.5 218,-243.5 308,-243.5 308,-224.5 218,-224.5"/>
<text text-anchor="middle" x="263" y="-231.5" font-family="Helvetica,sans-Serif" font-size="10.00">SimpleString.hpp</text>
</a>
</g>
</g>
<!-- Node3&#45;&gt;Node6 -->
<g id="edge5" class="edge">
<title>Node3&#45;&gt;Node6</title>
<path fill="none" stroke="midnightblue" d="M167.91,-280.44C186.25,-271.68 215.01,-257.94 236.09,-247.86"/>
<polygon fill="midnightblue" stroke="midnightblue" points="237.67,-250.99 245.18,-243.52 234.65,-244.67 237.67,-250.99"/>
</g>
<!-- Node3&#45;&gt;Node9 -->
<g id="edge9" class="edge">
<title>Node3&#45;&gt;Node9</title>
<path fill="none" stroke="midnightblue" d="M192.26,-281.27C195.21,-280.81 198.15,-280.38 201,-280 346.21,-260.4 517.33,-246.53 610.67,-239.74"/>
<polygon fill="midnightblue" stroke="midnightblue" points="611.11,-243.22 620.83,-239.01 610.61,-236.24 611.11,-243.22"/>
</g>
<!-- Node5 -->
<g id="node5" class="node">
<title>Node5</title>
<g id="a_node5"><a xlink:title=" ">
<polygon fill="white" stroke="#bfbfbf" points="277,-0.5 277,-19.5 331,-19.5 331,-0.5 277,-0.5"/>
<text text-anchor="middle" x="304" y="-7.5" font-family="Helvetica,sans-Serif" font-size="10.00">iostream</text>
</a>
</g>
</g>
<!-- Node4&#45;&gt;Node5 -->
<g id="edge4" class="edge">
<title>Node4&#45;&gt;Node5</title>
<path fill="none" stroke="midnightblue" d="M134.51,-168.35C136.25,-146.46 143.83,-88.3 176,-56 200.28,-31.62 238.52,-20.41 266.89,-15.28"/>
<polygon fill="midnightblue" stroke="midnightblue" points="267.55,-18.72 276.85,-13.65 266.42,-11.81 267.55,-18.72"/>
</g>
<!-- Node6&#45;&gt;Node5 -->
<g id="edge8" class="edge">
<title>Node6&#45;&gt;Node5</title>
<path fill="none" stroke="midnightblue" d="M261.44,-224.17C257.16,-197.69 246.91,-117 269,-56 272.9,-45.23 280.43,-34.99 287.51,-27.01"/>
<polygon fill="midnightblue" stroke="midnightblue" points="290.21,-29.25 294.56,-19.59 285.14,-24.44 290.21,-29.25"/>
</g>
<!-- Node7 -->
<g id="node7" class="node">
<title>Node7</title>
<g id="a_node7"><a xlink:href="debug_8hpp.html" target="_top" xlink:title=" ">
<polygon fill="white" stroke="black" points="278.5,-56.5 278.5,-75.5 339.5,-75.5 339.5,-56.5 278.5,-56.5"/>
<text text-anchor="middle" x="309" y="-63.5" font-family="Helvetica,sans-Serif" font-size="10.00">debug.hpp</text>
</a>
</g>
</g>
<!-- Node6&#45;&gt;Node7 -->
<g id="edge6" class="edge">
<title>Node6&#45;&gt;Node7</title>
<path fill="none" stroke="midnightblue" d="M264.38,-224.35C267.69,-204.3 276.82,-153.21 290,-112 292.91,-102.91 296.93,-93.12 300.52,-85"/>
<polygon fill="midnightblue" stroke="midnightblue" points="303.76,-86.34 304.73,-75.79 297.39,-83.43 303.76,-86.34"/>
</g>
<!-- Node8 -->
<g id="node8" class="node">
<title>Node8</title>
<g id="a_node8"><a xlink:title=" ">
<polygon fill="white" stroke="#bfbfbf" points="929,-0.5 929,-19.5 975,-19.5 975,-0.5 929,-0.5"/>
<text text-anchor="middle" x="952" y="-7.5" font-family="Helvetica,sans-Serif" font-size="10.00">cstring</text>
</a>
</g>
</g>
<!-- Node6&#45;&gt;Node8 -->
<g id="edge7" class="edge">
<title>Node6&#45;&gt;Node8</title>
<path fill="none" stroke="midnightblue" d="M308.02,-230.42C370.97,-225.97 488.42,-214.65 585,-188 668.71,-164.91 682.19,-138.15 765,-112 837.4,-89.13 876.05,-127.33 932,-76 944.9,-64.17 949.56,-44.25 951.21,-29.57"/>
<polygon fill="midnightblue" stroke="midnightblue" points="954.7,-29.83 951.96,-19.59 947.72,-29.3 954.7,-29.83"/>
</g>
<!-- Node9&#45;&gt;Node5 -->
<g id="edge11" class="edge">
<title>Node9&#45;&gt;Node5</title>
<path fill="none" stroke="midnightblue" d="M677.68,-224.34C673.88,-211.22 665.37,-185.93 652,-168 628.8,-136.89 618.67,-131.3 585,-112 503.5,-65.27 396.57,-34.09 341.06,-19.86"/>
<polygon fill="midnightblue" stroke="midnightblue" points="341.86,-16.45 331.31,-17.4 340.15,-23.24 341.86,-16.45"/>
</g>
<!-- Node9&#45;&gt;Node7 -->
<g id="edge17" class="edge">
<title>Node9&#45;&gt;Node7</title>
<path fill="none" stroke="midnightblue" d="M674.15,-224.49C658.11,-201.86 610.86,-140.09 555,-112 488.55,-78.58 400.87,-69.74 350.13,-67.55"/>
<polygon fill="midnightblue" stroke="midnightblue" points="350.01,-64.04 339.89,-67.17 349.75,-71.03 350.01,-64.04"/>
</g>
<!-- Node10 -->
<g id="node10" class="node">
<title>Node10</title>
<g id="a_node10"><a xlink:title=" ">
<polygon fill="white" stroke="#bfbfbf" points="774.5,-112.5 774.5,-131.5 833.5,-131.5 833.5,-112.5 774.5,-112.5"/>
<text text-anchor="middle" x="804" y="-119.5" font-family="Helvetica,sans-Serif" font-size="10.00">functional</text>
</a>
</g>
</g>
<!-- Node9&#45;&gt;Node10 -->
<g id="edge10" class="edge">
<title>Node9&#45;&gt;Node10</title>
<path fill="none" stroke="midnightblue" d="M707.53,-224.36C726.91,-217.16 752.42,-205.26 770,-188 783.32,-174.92 792.54,-155.5 797.98,-141.29"/>
<polygon fill="midnightblue" stroke="midnightblue" points="801.36,-142.23 801.41,-131.64 794.77,-139.89 801.36,-142.23"/>
</g>
<!-- Node11 -->
<g id="node11" class="node">
<title>Node11</title>
<g id="a_node11"><a xlink:title=" ">
<polygon fill="white" stroke="#bfbfbf" points="495.5,-112.5 495.5,-131.5 546.5,-131.5 546.5,-112.5 495.5,-112.5"/>
<text text-anchor="middle" x="521" y="-119.5" font-family="Helvetica,sans-Serif" font-size="10.00">memory</text>
</a>
</g>
</g>
<!-- Node9&#45;&gt;Node11 -->
<g id="edge12" class="edge">
<title>Node9&#45;&gt;Node11</title>
<path fill="none" stroke="midnightblue" d="M667.52,-224.37C640.36,-205.57 575.59,-160.77 542.01,-137.53"/>
<polygon fill="midnightblue" stroke="midnightblue" points="543.63,-134.4 533.42,-131.59 539.65,-140.16 543.63,-134.4"/>
</g>
<!-- Node12 -->
<g id="node12" class="node">
<title>Node12</title>
<g id="a_node12"><a xlink:href="InvalidArgumentException_8hpp.html" target="_top" xlink:title=" ">
<polygon fill="white" stroke="black" points="768.5,-56.5 768.5,-75.5 923.5,-75.5 923.5,-56.5 768.5,-56.5"/>
<text text-anchor="middle" x="846" y="-63.5" font-family="Helvetica,sans-Serif" font-size="10.00">../InvalidArgumentException.hpp</text>
</a>
</g>
</g>
<!-- Node9&#45;&gt;Node12 -->
<g id="edge13" class="edge">
<title>Node9&#45;&gt;Node12</title>
<path fill="none" stroke="midnightblue" d="M684.28,-224.39C695.21,-203.07 726.07,-147.03 765,-112 779.76,-98.72 799.1,-87.79 815.19,-80.03"/>
<polygon fill="midnightblue" stroke="midnightblue" points="817.12,-82.99 824.72,-75.61 814.17,-76.64 817.12,-82.99"/>
</g>
<!-- Node14 -->
<g id="node14" class="node">
<title>Node14</title>
<g id="a_node14"><a xlink:href="Nullable_8hpp.html" target="_top" xlink:title=" ">
<polygon fill="white" stroke="black" points="341.5,-112.5 341.5,-131.5 418.5,-131.5 418.5,-112.5 341.5,-112.5"/>
<text text-anchor="middle" x="380" y="-119.5" font-family="Helvetica,sans-Serif" font-size="10.00">../Nullable.hpp</text>
</a>
</g>
</g>
<!-- Node9&#45;&gt;Node14 -->
<g id="edge18" class="edge">
<title>Node9&#45;&gt;Node14</title>
<path fill="none" stroke="midnightblue" d="M639.85,-224.46C605.59,-216.64 555.31,-203.87 513,-188 473.57,-173.21 430.12,-150.72 403.95,-136.45"/>
<polygon fill="midnightblue" stroke="midnightblue" points="405.58,-133.35 395.14,-131.59 402.21,-139.48 405.58,-133.35"/>
</g>
<!-- Node16 -->
<g id="node16" class="node">
<title>Node16</title>
<g id="a_node16"><a xlink:href="IList_8hpp.html" target="_top" xlink:title=" ">
<polygon fill="white" stroke="black" points="522,-168.5 522,-187.5 576,-187.5 576,-168.5 522,-168.5"/>
<text text-anchor="middle" x="549" y="-175.5" font-family="Helvetica,sans-Serif" font-size="10.00">IList.hpp</text>
</a>
</g>
</g>
<!-- Node9&#45;&gt;Node16 -->
<g id="edge25" class="edge">
<title>Node9&#45;&gt;Node16</title>
<path fill="none" stroke="midnightblue" d="M659.24,-224.44C637.68,-215.56 603.74,-201.56 579.21,-191.45"/>
<polygon fill="midnightblue" stroke="midnightblue" points="580.24,-188.09 569.66,-187.52 577.57,-194.56 580.24,-188.09"/>
</g>
<!-- Node17 -->
<g id="node17" class="node">
<title>Node17</title>
<g id="a_node17"><a xlink:href="Tuple_8hpp.html" target="_top" xlink:title=" ">
<polygon fill="white" stroke="black" points="881.5,-168.5 881.5,-187.5 940.5,-187.5 940.5,-168.5 881.5,-168.5"/>
<text text-anchor="middle" x="911" y="-175.5" font-family="Helvetica,sans-Serif" font-size="10.00">Tuple.hpp</text>
</a>
</g>
</g>
<!-- Node9&#45;&gt;Node17 -->
<g id="edge28" class="edge">
<title>Node9&#45;&gt;Node17</title>
<path fill="none" stroke="midnightblue" d="M716.6,-224.44C758.77,-214.59 827.8,-198.45 871.25,-188.29"/>
<polygon fill="midnightblue" stroke="midnightblue" points="872.24,-191.66 881.18,-185.97 870.65,-184.84 872.24,-191.66"/>
</g>
<!-- Node12&#45;&gt;Node5 -->
<g id="edge16" class="edge">
<title>Node12&#45;&gt;Node5</title>
<path fill="none" stroke="midnightblue" d="M768.21,-56.94C765.1,-56.62 762.02,-56.31 759,-56 604,-40.32 419.22,-22.23 341.44,-14.65"/>
<polygon fill="midnightblue" stroke="midnightblue" points="341.48,-11.13 331.19,-13.65 340.8,-18.1 341.48,-11.13"/>
</g>
<!-- Node12&#45;&gt;Node8 -->
<g id="edge14" class="edge">
<title>Node12&#45;&gt;Node8</title>
<path fill="none" stroke="midnightblue" d="M863.03,-56.32C880.03,-47.66 906.38,-34.24 925.99,-24.25"/>
<polygon fill="midnightblue" stroke="midnightblue" points="927.69,-27.31 935.01,-19.65 924.51,-21.08 927.69,-27.31"/>
</g>
<!-- Node13 -->
<g id="node13" class="node">
<title>Node13</title>
<g id="a_node13"><a xlink:title=" ">
<polygon fill="white" stroke="#bfbfbf" points="741,-0.5 741,-19.5 799,-19.5 799,-0.5 741,-0.5"/>
<text text-anchor="middle" x="770" y="-7.5" font-family="Helvetica,sans-Serif" font-size="10.00">exception</text>
</a>
</g>
</g>
<!-- Node12&#45;&gt;Node13 -->
<g id="edge15" class="edge">
<title>Node12&#45;&gt;Node13</title>
<path fill="none" stroke="midnightblue" d="M833.79,-56.32C822.22,-48.11 804.62,-35.6 790.84,-25.81"/>
<polygon fill="midnightblue" stroke="midnightblue" points="792.61,-22.77 782.43,-19.83 788.56,-28.48 792.61,-22.77"/>
</g>
<!-- Node14&#45;&gt;Node5 -->
<g id="edge24" class="edge">
<title>Node14&#45;&gt;Node5</title>
<path fill="none" stroke="midnightblue" d="M376.67,-112.1C371.59,-99.11 361.08,-74.48 348,-56 340.37,-45.21 330.12,-34.57 321.44,-26.35"/>
<polygon fill="midnightblue" stroke="midnightblue" points="323.76,-23.72 314.02,-19.54 319.02,-28.88 323.76,-23.72"/>
</g>
<!-- Node14&#45;&gt;Node7 -->
<g id="edge23" class="edge">
<title>Node14&#45;&gt;Node7</title>
<path fill="none" stroke="midnightblue" d="M368.59,-112.32C357.89,-104.18 341.66,-91.84 328.84,-82.09"/>
<polygon fill="midnightblue" stroke="midnightblue" points="330.69,-79.1 320.61,-75.83 326.46,-84.67 330.69,-79.1"/>
</g>
<!-- Node15 -->
<g id="node15" class="node">
<title>Node15</title>
<g id="a_node15"><a xlink:href="NoValueException_8hpp.html" target="_top" xlink:title=" ">
<polygon fill="white" stroke="black" points="636,-56.5 636,-75.5 750,-75.5 750,-56.5 636,-56.5"/>
<text text-anchor="middle" x="693" y="-63.5" font-family="Helvetica,sans-Serif" font-size="10.00">NoValueException.hpp</text>
</a>
</g>
</g>
<!-- Node14&#45;&gt;Node15 -->
<g id="edge19" class="edge">
<title>Node14&#45;&gt;Node15</title>
<path fill="none" stroke="midnightblue" d="M418.69,-114.32C472.46,-105.05 570.25,-88.18 633.37,-77.29"/>
<polygon fill="midnightblue" stroke="midnightblue" points="634.32,-80.68 643.58,-75.53 633.13,-73.78 634.32,-80.68"/>
</g>
<!-- Node15&#45;&gt;Node5 -->
<g id="edge22" class="edge">
<title>Node15&#45;&gt;Node5</title>
<path fill="none" stroke="midnightblue" d="M635.6,-57.03C554.76,-45.81 409.61,-25.66 341.38,-16.19"/>
<polygon fill="midnightblue" stroke="midnightblue" points="341.49,-12.67 331.11,-14.76 340.53,-19.6 341.49,-12.67"/>
</g>
<!-- Node15&#45;&gt;Node8 -->
<g id="edge20" class="edge">
<title>Node15&#45;&gt;Node8</title>
<path fill="none" stroke="midnightblue" d="M734.04,-56.44C785.23,-45.77 871.73,-27.73 918.9,-17.9"/>
<polygon fill="midnightblue" stroke="midnightblue" points="919.82,-21.28 928.9,-15.82 918.4,-14.43 919.82,-21.28"/>
</g>
<!-- Node15&#45;&gt;Node13 -->
<g id="edge21" class="edge">
<title>Node15&#45;&gt;Node13</title>
<path fill="none" stroke="midnightblue" d="M705.37,-56.32C717.16,-48.06 735.13,-35.45 749.14,-25.63"/>
<polygon fill="midnightblue" stroke="midnightblue" points="751.48,-28.26 757.66,-19.65 747.46,-22.53 751.48,-28.26"/>
</g>
<!-- Node16&#45;&gt;Node11 -->
<g id="edge27" class="edge">
<title>Node16&#45;&gt;Node11</title>
<path fill="none" stroke="midnightblue" d="M544.38,-168.08C540.54,-160.69 534.98,-149.95 530.24,-140.81"/>
<polygon fill="midnightblue" stroke="midnightblue" points="533.25,-139.02 525.54,-131.75 527.03,-142.24 533.25,-139.02"/>
</g>
<!-- Node16&#45;&gt;Node14 -->
<g id="edge26" class="edge">
<title>Node16&#45;&gt;Node14</title>
<path fill="none" stroke="midnightblue" d="M522.22,-168.44C493.67,-159.32 448.27,-144.81 416.46,-134.65"/>
<polygon fill="midnightblue" stroke="midnightblue" points="417.24,-131.23 406.65,-131.52 415.11,-137.89 417.24,-131.23"/>
</g>
<!-- Node17&#45;&gt;Node5 -->
<g id="edge32" class="edge">
<title>Node17&#45;&gt;Node5</title>
<path fill="none" stroke="midnightblue" d="M916.64,-168.22C924.68,-154.47 937,-127.81 923,-112 879.06,-62.4 690.71,-94.2 627,-76 606.73,-70.21 604.15,-62.18 584,-56 499.49,-30.1 395.8,-18.4 341.4,-13.71"/>
<polygon fill="midnightblue" stroke="midnightblue" points="341.45,-10.21 331.2,-12.87 340.88,-17.18 341.45,-10.21"/>
</g>
<!-- Node17&#45;&gt;Node10 -->
<g id="edge31" class="edge">
<title>Node17&#45;&gt;Node10</title>
<path fill="none" stroke="midnightblue" d="M893.81,-168.32C876.65,-159.66 850.05,-146.24 830.25,-136.25"/>
<polygon fill="midnightblue" stroke="midnightblue" points="831.65,-133.04 821.15,-131.65 828.5,-139.28 831.65,-133.04"/>
</g>
<!-- Node18 -->
<g id="node18" class="node">
<title>Node18</title>
<g id="a_node18"><a xlink:href="ttype_8hpp.html" target="_top" xlink:title=" ">
<polygon fill="white" stroke="black" points="970.5,-112.5 970.5,-131.5 1033.5,-131.5 1033.5,-112.5 970.5,-112.5"/>
<text text-anchor="middle" x="1002" y="-119.5" font-family="Helvetica,sans-Serif" font-size="10.00">../ttype.hpp</text>
</a>
</g>
</g>
<!-- Node17&#45;&gt;Node18 -->
<g id="edge29" class="edge">
<title>Node17&#45;&gt;Node18</title>
<path fill="none" stroke="midnightblue" d="M925.62,-168.32C939.95,-159.82 962.01,-146.73 978.75,-136.8"/>
<polygon fill="midnightblue" stroke="midnightblue" points="980.6,-139.77 987.42,-131.65 977.03,-133.75 980.6,-139.77"/>
</g>
<!-- Node17&#45;&gt;Node19 -->
<g id="edge30" class="edge">
<title>Node17&#45;&gt;Node19</title>
<path fill="none" stroke="midnightblue" d="M936.83,-168.44C965.22,-159.04 1010.87,-143.91 1041.63,-133.72"/>
<polygon fill="midnightblue" stroke="midnightblue" points="1043.05,-136.94 1051.44,-130.47 1040.85,-130.3 1043.05,-136.94"/>
</g>
<!-- Node20 -->
<g id="node20" class="node">
<title>Node20</title>
<g id="a_node20"><a xlink:title=" ">
<polygon fill="white" stroke="#bfbfbf" points="852,-112.5 852,-131.5 914,-131.5 914,-112.5 852,-112.5"/>
<text text-anchor="middle" x="883" y="-119.5" font-family="Helvetica,sans-Serif" font-size="10.00">type_traits</text>
</a>
</g>
</g>
<!-- Node17&#45;&gt;Node20 -->
<g id="edge33" class="edge">
<title>Node17&#45;&gt;Node20</title>
<path fill="none" stroke="midnightblue" d="M906.38,-168.08C902.54,-160.69 896.98,-149.95 892.24,-140.81"/>
<polygon fill="midnightblue" stroke="midnightblue" points="895.25,-139.02 887.54,-131.75 889.03,-142.24 895.25,-139.02"/>
</g>
<!-- Node21&#45;&gt;Node6 -->
<g id="edge36" class="edge">
<title>Node21&#45;&gt;Node6</title>
<path fill="none" stroke="midnightblue" d="M836.96,-448.43C744.9,-414.2 403.18,-287.13 295.63,-247.13"/>
<polygon fill="midnightblue" stroke="midnightblue" points="296.56,-243.75 285.97,-243.54 294.12,-250.31 296.56,-243.75"/>
</g>
<!-- Node21&#45;&gt;Node9 -->
<g id="edge37" class="edge">
<title>Node21&#45;&gt;Node9</title>
<path fill="none" stroke="midnightblue" d="M852.94,-448.3C826.01,-415.08 729.39,-295.92 693.53,-251.68"/>
<polygon fill="midnightblue" stroke="midnightblue" points="696.22,-249.45 687.2,-243.88 690.78,-253.86 696.22,-249.45"/>
</g>
<!-- Node21&#45;&gt;Node17 -->
<g id="edge38" class="edge">
<title>Node21&#45;&gt;Node17</title>
<path fill="none" stroke="midnightblue" d="M869.05,-448.31C877.17,-439.88 888.62,-426.3 894,-412 922.28,-336.87 916.99,-238.63 913.14,-197.93"/>
<polygon fill="midnightblue" stroke="midnightblue" points="916.6,-197.43 912.09,-187.84 909.64,-198.15 916.6,-197.43"/>
</g>
<!-- Node21&#45;&gt;Node18 -->
<g id="edge39" class="edge">
<title>Node21&#45;&gt;Node18</title>
<path fill="none" stroke="midnightblue" d="M889.11,-448.46C927.33,-435.5 992.89,-406.82 1021,-356 1060.4,-284.78 1026.41,-182.16 1009.84,-141.04"/>
<polygon fill="midnightblue" stroke="midnightblue" points="1013.04,-139.64 1005.96,-131.76 1006.58,-142.34 1013.04,-139.64"/>
</g>
<!-- Node22 -->
<g id="node22" class="node">
<title>Node22</title>
<g id="a_node22"><a xlink:href="Scanner_8hpp.html" target="_top" xlink:title=" ">
<polygon fill="white" stroke="black" points="371.5,-392.5 371.5,-411.5 442.5,-411.5 442.5,-392.5 371.5,-392.5"/>
<text text-anchor="middle" x="407" y="-399.5" font-family="Helvetica,sans-Serif" font-size="10.00">Scanner.hpp</text>
</a>
</g>
</g>
<!-- Node21&#45;&gt;Node22 -->
<g id="edge40" class="edge">
<title>Node21&#45;&gt;Node22</title>
<path fill="none" stroke="midnightblue" d="M817.38,-451.92C731.98,-441.74 540.57,-418.92 452.69,-408.45"/>
<polygon fill="midnightblue" stroke="midnightblue" points="452.85,-404.94 442.5,-407.23 452.02,-411.89 452.85,-404.94"/>
</g>
<!-- Node28 -->
<g id="node28" class="node">
<title>Node28</title>
<g id="a_node28"><a xlink:title=" ">
<polygon fill="white" stroke="#bfbfbf" points="835,-392.5 835,-411.5 885,-411.5 885,-392.5 835,-392.5"/>
<text text-anchor="middle" x="860" y="-399.5" font-family="Helvetica,sans-Serif" font-size="10.00">fstream</text>
</a>
</g>
</g>
<!-- Node21&#45;&gt;Node28 -->
<g id="edge64" class="edge">
<title>Node21&#45;&gt;Node28</title>
<path fill="none" stroke="midnightblue" d="M860,-448.08C860,-441.01 860,-430.86 860,-421.99"/>
<polygon fill="midnightblue" stroke="midnightblue" points="863.5,-421.75 860,-411.75 856.5,-421.75 863.5,-421.75"/>
</g>
<!-- Node22&#45;&gt;Node5 -->
<g id="edge63" class="edge">
<title>Node22&#45;&gt;Node5</title>
<path fill="none" stroke="midnightblue" d="M371.24,-399C271.92,-392.46 0,-367.58 0,-291 0,-291 0,-291 0,-121 0,-74.49 39.83,-75.6 82,-56 142.87,-27.7 221.27,-17.13 266.76,-13.23"/>
<polygon fill="midnightblue" stroke="midnightblue" points="267.08,-16.72 276.77,-12.44 266.52,-9.74 267.08,-16.72"/>
</g>
<!-- Node22&#45;&gt;Node8 -->
<g id="edge62" class="edge">
<title>Node22&#45;&gt;Node8</title>
<path fill="none" stroke="midnightblue" d="M442.59,-395.88C487.83,-388.93 568.09,-375.16 635,-356 864.43,-290.31 1015.37,-345 1123,-132 1136.38,-105.51 1099.91,-58.54 1097,-56 1065.54,-28.49 1017.42,-17.79 985.35,-13.64"/>
<polygon fill="midnightblue" stroke="midnightblue" points="985.47,-10.13 975.13,-12.46 984.67,-17.08 985.47,-10.13"/>
</g>
<!-- Node22&#45;&gt;Node9 -->
<g id="edge41" class="edge">
<title>Node22&#45;&gt;Node9</title>
<path fill="none" stroke="midnightblue" d="M442.72,-398.83C501.25,-393.19 616.69,-372.91 673,-300 683.07,-286.96 683.97,-267.8 682.86,-253.66"/>
<polygon fill="midnightblue" stroke="midnightblue" points="686.32,-253.13 681.68,-243.61 679.37,-253.95 686.32,-253.13"/>
</g>
<!-- Node23 -->
<g id="node23" class="node">
<title>Node23</title>
<g id="a_node23"><a xlink:href="CommandList_8hpp.html" target="_top" xlink:title=" ">
<polygon fill="white" stroke="black" points="321.5,-336.5 321.5,-355.5 416.5,-355.5 416.5,-336.5 321.5,-336.5"/>
<text text-anchor="middle" x="369" y="-343.5" font-family="Helvetica,sans-Serif" font-size="10.00">CommandList.hpp</text>
</a>
</g>
</g>
<!-- Node22&#45;&gt;Node23 -->
<g id="edge42" class="edge">
<title>Node22&#45;&gt;Node23</title>
<path fill="none" stroke="midnightblue" d="M400.73,-392.08C395.36,-384.46 387.48,-373.26 380.92,-363.94"/>
<polygon fill="midnightblue" stroke="midnightblue" points="383.78,-361.91 375.16,-355.75 378.05,-365.94 383.78,-361.91"/>
</g>
<!-- Node25 -->
<g id="node25" class="node">
<title>Node25</title>
<g id="a_node25"><a xlink:href="ScannerContext_8hpp.html" target="_top" xlink:title=" ">
<polygon fill="white" stroke="black" points="210,-280.5 210,-299.5 314,-299.5 314,-280.5 210,-280.5"/>
<text text-anchor="middle" x="262" y="-287.5" font-family="Helvetica,sans-Serif" font-size="10.00">ScannerContext.hpp</text>
</a>
</g>
</g>
<!-- Node22&#45;&gt;Node25 -->
<g id="edge59" class="edge">
<title>Node22&#45;&gt;Node25</title>
<path fill="none" stroke="midnightblue" d="M380.94,-392.48C360.72,-385.01 332.74,-372.73 312,-356 295.43,-342.64 281.16,-322.71 272.16,-308.45"/>
<polygon fill="midnightblue" stroke="midnightblue" points="274.98,-306.36 266.8,-299.63 269,-309.99 274.98,-306.36"/>
</g>
<!-- Node26 -->
<g id="node26" class="node">
<title>Node26</title>
<g id="a_node26"><a xlink:href="Token_8hpp.html" target="_top" xlink:title=" ">
<polygon fill="white" stroke="black" points="28,-280.5 28,-299.5 90,-299.5 90,-280.5 28,-280.5"/>
<text text-anchor="middle" x="59" y="-287.5" font-family="Helvetica,sans-Serif" font-size="10.00">Token.hpp</text>
</a>
</g>
</g>
<!-- Node22&#45;&gt;Node26 -->
<g id="edge60" class="edge">
<title>Node22&#45;&gt;Node26</title>
<path fill="none" stroke="midnightblue" d="M379.98,-392.46C318.19,-372.93 166.45,-324.96 96.02,-302.7"/>
<polygon fill="midnightblue" stroke="midnightblue" points="96.83,-299.29 86.24,-299.61 94.72,-305.96 96.83,-299.29"/>
</g>
<!-- Node27 -->
<g id="node27" class="node">
<title>Node27</title>
<g id="a_node27"><a xlink:title=" ">
<polygon fill="white" stroke="#bfbfbf" points="434.5,-336.5 434.5,-355.5 479.5,-355.5 479.5,-336.5 434.5,-336.5"/>
<text text-anchor="middle" x="457" y="-343.5" font-family="Helvetica,sans-Serif" font-size="10.00">cctype</text>
</a>
</g>
</g>
<!-- Node22&#45;&gt;Node27 -->
<g id="edge61" class="edge">
<title>Node22&#45;&gt;Node27</title>
<path fill="none" stroke="midnightblue" d="M415.26,-392.08C422.46,-384.3 433.11,-372.8 441.85,-363.37"/>
<polygon fill="midnightblue" stroke="midnightblue" points="444.67,-365.47 448.9,-355.75 439.53,-360.71 444.67,-365.47"/>
</g>
<!-- Node23&#45;&gt;Node6 -->
<g id="edge43" class="edge">
<title>Node23&#45;&gt;Node6</title>
<path fill="none" stroke="midnightblue" d="M364.09,-336.37C356.39,-323.28 340.54,-298.04 323,-280 311.71,-268.4 297.24,-257.45 285.34,-249.26"/>
<polygon fill="midnightblue" stroke="midnightblue" points="287.09,-246.22 276.83,-243.57 283.19,-252.04 287.09,-246.22"/>
</g>
<!-- Node23&#45;&gt;Node11 -->
<g id="edge58" class="edge">
<title>Node23&#45;&gt;Node11</title>
<path fill="none" stroke="midnightblue" d="M374.96,-336.3C397.61,-303.22 478.61,-184.91 509.2,-140.24"/>
<polygon fill="midnightblue" stroke="midnightblue" points="512.16,-142.11 514.92,-131.88 506.38,-138.16 512.16,-142.11"/>
</g>
<!-- Node23&#45;&gt;Node14 -->
<g id="edge44" class="edge">
<title>Node23&#45;&gt;Node14</title>
<path fill="none" stroke="midnightblue" d="M369.43,-336.3C371.05,-303.63 376.79,-187.87 379.06,-141.96"/>
<polygon fill="midnightblue" stroke="midnightblue" points="382.56,-142.04 379.56,-131.88 375.57,-141.7 382.56,-142.04"/>
</g>
<!-- Node24 -->
<g id="node24" class="node">
<title>Node24</title>
<g id="a_node24"><a xlink:href="HashMap_8hpp.html" target="_top" xlink:title=" ">
<polygon fill="white" stroke="black" points="536,-280.5 536,-299.5 664,-299.5 664,-280.5 536,-280.5"/>
<text text-anchor="middle" x="600" y="-287.5" font-family="Helvetica,sans-Serif" font-size="10.00">../collection/HashMap.hpp</text>
</a>
</g>
</g>
<!-- Node23&#45;&gt;Node24 -->
<g id="edge45" class="edge">
<title>Node23&#45;&gt;Node24</title>
<path fill="none" stroke="midnightblue" d="M405.6,-336.44C445.73,-327.06 510.2,-311.99 553.78,-301.8"/>
<polygon fill="midnightblue" stroke="midnightblue" points="554.63,-305.2 563.57,-299.52 553.03,-298.38 554.63,-305.2"/>
</g>
<!-- Node23&#45;&gt;Node25 -->
<g id="edge54" class="edge">
<title>Node23&#45;&gt;Node25</title>
<path fill="none" stroke="midnightblue" d="M351.81,-336.32C334.65,-327.66 308.05,-314.24 288.25,-304.25"/>
<polygon fill="midnightblue" stroke="midnightblue" points="289.65,-301.04 279.15,-299.65 286.5,-307.28 289.65,-301.04"/>
</g>
<!-- Node23&#45;&gt;Node26 -->
<g id="edge56" class="edge">
<title>Node23&#45;&gt;Node26</title>
<path fill="none" stroke="midnightblue" d="M321.06,-337.84C269.02,-329.89 183.26,-316.24 100.25,-300.16"/>
<polygon fill="midnightblue" stroke="midnightblue" points="100.89,-296.72 90.41,-298.24 99.55,-303.59 100.89,-296.72"/>
</g>
<!-- Node24&#45;&gt;Node7 -->
<g id="edge50" class="edge">
<title>Node24&#45;&gt;Node7</title>
<path fill="none" stroke="midnightblue" d="M572.2,-280.48C517.71,-262.35 396.54,-214.67 332,-132 321.42,-118.45 315.47,-99.65 312.29,-85.75"/>
<polygon fill="midnightblue" stroke="midnightblue" points="315.7,-84.96 310.29,-75.85 308.84,-86.34 315.7,-84.96"/>
</g>
<!-- Node24&#45;&gt;Node8 -->
<g id="edge47" class="edge">
<title>Node24&#45;&gt;Node8</title>
<path fill="none" stroke="midnightblue" d="M664.18,-285.4C725.49,-280.56 819.87,-269.38 898,-244 949.42,-227.29 958.46,-213.76 1006,-188 1050.45,-163.92 1079.53,-175.67 1105,-132 1137.14,-76.9 1039.15,-37.38 985.13,-20.34"/>
<polygon fill="midnightblue" stroke="midnightblue" points="985.87,-16.9 975.28,-17.33 983.82,-23.6 985.87,-16.9"/>
</g>
<!-- Node24&#45;&gt;Node9 -->
<g id="edge51" class="edge">
<title>Node24&#45;&gt;Node9</title>
<path fill="none" stroke="midnightblue" d="M612.85,-280.32C625.22,-271.98 644.13,-259.21 658.74,-249.35"/>
<polygon fill="midnightblue" stroke="midnightblue" points="660.85,-252.15 667.18,-243.65 656.93,-246.35 660.85,-252.15"/>
</g>
<!-- Node24&#45;&gt;Node11 -->
<g id="edge48" class="edge">
<title>Node24&#45;&gt;Node11</title>
<path fill="none" stroke="midnightblue" d="M588.37,-280.29C568.39,-264.51 528.23,-229 513,-188 507.43,-173.01 510.4,-154.88 514.2,-141.57"/>
<polygon fill="midnightblue" stroke="midnightblue" points="517.64,-142.3 517.42,-131.71 510.99,-140.13 517.64,-142.3"/>
</g>
<!-- Node24&#45;&gt;Node14 -->
<g id="edge53" class="edge">
<title>Node24&#45;&gt;Node14</title>
<path fill="none" stroke="midnightblue" d="M585.26,-280.35C570.66,-271.63 547.84,-257.55 529,-244 479.69,-208.54 425.06,-162.23 397.69,-138.5"/>
<polygon fill="midnightblue" stroke="midnightblue" points="399.64,-135.56 389.8,-131.63 395.04,-140.84 399.64,-135.56"/>
</g>
<!-- Node24&#45;&gt;Node17 -->
<g id="edge52" class="edge">
<title>Node24&#45;&gt;Node17</title>
<path fill="none" stroke="midnightblue" d="M664.1,-284.93C711.97,-279.93 777.98,-268.79 831,-244 856.44,-232.1 880.75,-210.37 895.76,-195.32"/>
<polygon fill="midnightblue" stroke="midnightblue" points="898.65,-197.38 903.09,-187.76 893.62,-192.51 898.65,-197.38"/>
</g>
<!-- Node24&#45;&gt;Node19 -->
<g id="edge46" class="edge">
<title>Node24&#45;&gt;Node19</title>
<path fill="none" stroke="midnightblue" d="M664.06,-284.17C717.88,-278.66 796.17,-267.2 861,-244 937.04,-216.79 1017.48,-163.36 1053.94,-137.59"/>
<polygon fill="midnightblue" stroke="midnightblue" points="1056.13,-140.33 1062.24,-131.67 1052.07,-134.63 1056.13,-140.33"/>
</g>
<!-- Node24&#45;&gt;Node20 -->
<g id="edge49" class="edge">
<title>Node24&#45;&gt;Node20</title>
<path fill="none" stroke="midnightblue" d="M645.76,-280.5C676.1,-273.59 716.06,-261.99 748,-244 798.51,-215.55 846.22,-165.41 869.01,-139.51"/>
<polygon fill="midnightblue" stroke="midnightblue" points="871.85,-141.57 875.75,-131.72 866.56,-136.99 871.85,-141.57"/>
</g>
<!-- Node25&#45;&gt;Node5 -->
<g id="edge55" class="edge">
<title>Node25&#45;&gt;Node5</title>
<path fill="none" stroke="midnightblue" d="M247.81,-280.37C235.8,-272.37 218.99,-259.39 209,-244 192.62,-218.75 190,-209.1 190,-179 190,-179 190,-179 190,-121 190,-74.11 240.55,-40.89 274.33,-23.93"/>
<polygon fill="midnightblue" stroke="midnightblue" points="275.87,-27.07 283.36,-19.58 272.83,-20.77 275.87,-27.07"/>
</g>
<!-- Node26&#45;&gt;Node5 -->
<g id="edge57" class="edge">
<title>Node26&#45;&gt;Node5</title>
<path fill="none" stroke="midnightblue" d="M60.31,-280.47C63.02,-262.01 69,-216.97 69,-179 69,-179 69,-179 69,-121 69,-34.84 200.18,-16.02 266.52,-12.02"/>
<polygon fill="midnightblue" stroke="midnightblue" points="266.78,-15.51 276.58,-11.49 266.41,-8.52 266.78,-15.51"/>
</g>
</g>
</svg>
