<?xml version="1.0" encoding="UTF-8" standalone="no"?>
<!DOCTYPE svg PUBLIC "-//W3C//DTD SVG 1.1//EN"
 "http://www.w3.org/Graphics/SVG/1.1/DTD/svg11.dtd">
<!-- Generated by graphviz version 2.44.0 (0)
 -->
<!-- Title: TravellersApp/src/VisitBuilder.hpp Pages: 1 -->
<!--zoomable 308 -->
<svg id="main" version="1.1" xmlns="http://www.w3.org/2000/svg" xmlns:xlink="http://www.w3.org/1999/xlink" xml:space="preserve" onload="init(evt)">
<style type="text/css"><![CDATA[
.edge:hover path { stroke: red; }
.edge:hover polygon { stroke: red; fill: red; }
]]></style>
<script type="text/javascript"><![CDATA[
var edges = document.getElementsByTagName('g');
if (edges && edges.length) {
  for (var i=0;i<edges.length;i++) {
    if (edges[i].id.substr(0,4)=='edge') {
      edges[i].setAttribute('class','edge');
    }
  }
}
]]></script>
        <defs>
                <circle id="rim" cx="0" cy="0" r="7"/>
                <circle id="rim2" cx="0" cy="0" r="3.5"/>
                <g id="zoomPlus">
                        <use xlink:href="#rim" fill="#404040">
                                <set attributeName="fill" to="#808080" begin="zoomplus.mouseover" end="zoomplus.mouseout"/>
                        </use>
                        <path d="M-4,0h8M0,-4v8" fill="none" stroke="white" stroke-width="1.5" pointer-events="none"/>
                </g>
                <g id="zoomMin">
                        <use xlink:href="#rim" fill="#404040">
                                <set attributeName="fill" to="#808080" begin="zoomminus.mouseover" end="zoomminus.mouseout"/>
                        </use>
                        <path d="M-4,0h8" fill="none" stroke="white" stroke-width="1.5" pointer-events="none"/>
                </g>
                <g id="dirArrow">
                        <path fill="none" stroke="white" stroke-width="1.5" d="M0,-3.0v7 M-2.5,-0.5L0,-3.0L2.5,-0.5"/>
                </g>
               <g id="resetDef">
                       <use xlink:href="#rim2" fill="#404040">
                               <set attributeName="fill" to="#808080" begin="reset.mouseover" end="reset.mouseout"/>
                       </use>
               </g>
        </defs>

<script type="text/javascript">
var viewWidth = 839;
var viewHeight = 308;
var sectionId = 'dynsection-0';
</script>
<script xlink:href="svgpan.js"/>
<svg id="graph" class="graph">
<g id="viewport">
<title>TravellersApp/src/VisitBuilder.hpp</title>
<polygon fill="white" stroke="transparent" points="-4,4 -4,-304 835.11,-304 835.11,4 -4,4"/>
<!-- Node1 -->
<g id="node1" class="node">
<title>Node1</title>
<g id="a_node1"><a xlink:title=" ">
<polygon fill="#bfbfbf" stroke="black" points="338.24,-280.5 338.24,-299.5 502.24,-299.5 502.24,-280.5 338.24,-280.5"/>
<text text-anchor="middle" x="420.24" y="-287.5" font-family="Helvetica,sans-Serif" font-size="10.00">TravellersApp/src/VisitBuilder.hpp</text>
</a>
</g>
</g>
<!-- Node2 -->
<g id="node2" class="node">
<title>Node2</title>
<g id="a_node2"><a xlink:href="Date_8hpp.html" target="_top" xlink:title=" ">
<polygon fill="white" stroke="black" points="680.74,-224.5 680.74,-243.5 735.74,-243.5 735.74,-224.5 680.74,-224.5"/>
<text text-anchor="middle" x="708.24" y="-231.5" font-family="Helvetica,sans-Serif" font-size="10.00">Date.hpp</text>
</a>
</g>
</g>
<!-- Node1&#45;&gt;Node2 -->
<g id="edge1" class="edge">
<title>Node1&#45;&gt;Node2</title>
<path fill="none" stroke="midnightblue" d="M465.87,-280.44C522.52,-269.82 618.09,-251.9 670.7,-242.04"/>
<polygon fill="midnightblue" stroke="midnightblue" points="671.44,-245.46 680.62,-240.18 670.15,-238.58 671.44,-245.46"/>
</g>
<!-- Node4 -->
<g id="node4" class="node">
<title>Node4</title>
<g id="a_node4"><a xlink:href="SimpleString_8hpp.html" target="_top" xlink:title=" ">
<polygon fill="white" stroke="black" points="165.24,-112.5 165.24,-131.5 255.24,-131.5 255.24,-112.5 165.24,-112.5"/>
<text text-anchor="middle" x="210.24" y="-119.5" font-family="Helvetica,sans-Serif" font-size="10.00">SimpleString.hpp</text>
</a>
</g>
</g>
<!-- Node1&#45;&gt;Node4 -->
<g id="edge3" class="edge">
<title>Node1&#45;&gt;Node4</title>
<path fill="none" stroke="midnightblue" d="M406.09,-280.34C392.1,-271.62 370.22,-257.54 352.24,-244 305.06,-208.5 253.08,-162.21 227.05,-138.49"/>
<polygon fill="midnightblue" stroke="midnightblue" points="229.29,-135.8 219.55,-131.63 224.56,-140.96 229.29,-135.8"/>
</g>
<!-- Node7 -->
<g id="node7" class="node">
<title>Node7</title>
<g id="a_node7"><a xlink:href="ArrayList_8hpp.html" target="_top" xlink:title=" ">
<polygon fill="white" stroke="black" points="361.24,-224.5 361.24,-243.5 479.24,-243.5 479.24,-224.5 361.24,-224.5"/>
<text text-anchor="middle" x="420.24" y="-231.5" font-family="Helvetica,sans-Serif" font-size="10.00">collection/ArrayList.hpp</text>
</a>
</g>
</g>
<!-- Node1&#45;&gt;Node7 -->
<g id="edge7" class="edge">
<title>Node1&#45;&gt;Node7</title>
<path fill="none" stroke="midnightblue" d="M420.24,-280.08C420.24,-273.01 420.24,-262.86 420.24,-253.99"/>
<polygon fill="midnightblue" stroke="midnightblue" points="423.74,-253.75 420.24,-243.75 416.74,-253.75 423.74,-253.75"/>
</g>
<!-- Node3 -->
<g id="node3" class="node">
<title>Node3</title>
<g id="a_node3"><a xlink:title=" ">
<polygon fill="white" stroke="#bfbfbf" points="421.24,-0.5 421.24,-19.5 475.24,-19.5 475.24,-0.5 421.24,-0.5"/>
<text text-anchor="middle" x="448.24" y="-7.5" font-family="Helvetica,sans-Serif" font-size="10.00">iostream</text>
</a>
</g>
</g>
<!-- Node2&#45;&gt;Node3 -->
<g id="edge2" class="edge">
<title>Node2&#45;&gt;Node3</title>
<path fill="none" stroke="midnightblue" d="M729.11,-224.41C769.75,-206.36 853.17,-162 825.24,-112 802.07,-70.54 778.78,-72.46 734.24,-56 648.97,-24.5 541.45,-15.05 485.66,-12.21"/>
<polygon fill="midnightblue" stroke="midnightblue" points="485.69,-8.71 475.54,-11.74 485.37,-15.7 485.69,-8.71"/>
</g>
<!-- Node4&#45;&gt;Node3 -->
<g id="edge6" class="edge">
<title>Node4&#45;&gt;Node3</title>
<path fill="none" stroke="midnightblue" d="M230.51,-112.36C251,-103.53 283.53,-89.26 311.24,-76 328.81,-67.59 332.71,-64.51 350.24,-56 373.43,-44.73 400.03,-32.57 419.66,-23.73"/>
<polygon fill="midnightblue" stroke="midnightblue" points="421.28,-26.84 428.97,-19.55 418.41,-20.45 421.28,-26.84"/>
</g>
<!-- Node5 -->
<g id="node5" class="node">
<title>Node5</title>
<g id="a_node5"><a xlink:href="debug_8hpp.html" target="_top" xlink:title=" ">
<polygon fill="white" stroke="black" points="358.74,-56.5 358.74,-75.5 419.74,-75.5 419.74,-56.5 358.74,-56.5"/>
<text text-anchor="middle" x="389.24" y="-63.5" font-family="Helvetica,sans-Serif" font-size="10.00">debug.hpp</text>
</a>
</g>
</g>
<!-- Node4&#45;&gt;Node5 -->
<g id="edge4" class="edge">
<title>Node4&#45;&gt;Node5</title>
<path fill="none" stroke="midnightblue" d="M238.6,-112.44C268.97,-103.28 317.35,-88.69 351.05,-78.52"/>
<polygon fill="midnightblue" stroke="midnightblue" points="352.44,-81.76 361,-75.52 350.42,-75.05 352.44,-81.76"/>
</g>
<!-- Node6 -->
<g id="node6" class="node">
<title>Node6</title>
<g id="a_node6"><a xlink:title=" ">
<polygon fill="white" stroke="#bfbfbf" points="69.24,-0.5 69.24,-19.5 115.24,-19.5 115.24,-0.5 69.24,-0.5"/>
<text text-anchor="middle" x="92.24" y="-7.5" font-family="Helvetica,sans-Serif" font-size="10.00">cstring</text>
</a>
</g>
</g>
<!-- Node4&#45;&gt;Node6 -->
<g id="edge5" class="edge">
<title>Node4&#45;&gt;Node6</title>
<path fill="none" stroke="midnightblue" d="M164.85,-117.53C110.66,-112.34 24.87,-100.42 5.24,-76 -14.2,-51.83 27.25,-31.89 59.38,-20.72"/>
<polygon fill="midnightblue" stroke="midnightblue" points="60.58,-24.01 68.97,-17.54 58.38,-17.36 60.58,-24.01"/>
</g>
<!-- Node7&#45;&gt;Node3 -->
<g id="edge9" class="edge">
<title>Node7&#45;&gt;Node3</title>
<path fill="none" stroke="midnightblue" d="M426.01,-224.3C436.83,-207.4 459.73,-168.56 467.24,-132 474.69,-95.69 463.18,-52.73 455.08,-29.01"/>
<polygon fill="midnightblue" stroke="midnightblue" points="458.36,-27.78 451.68,-19.56 451.77,-30.15 458.36,-27.78"/>
</g>
<!-- Node7&#45;&gt;Node5 -->
<g id="edge15" class="edge">
<title>Node7&#45;&gt;Node5</title>
<path fill="none" stroke="midnightblue" d="M400.91,-224.41C371.88,-210.18 318.76,-178.59 303.24,-132 300.42,-123.57 298.63,-119.6 303.24,-112 313.32,-95.34 331.83,-84.55 349.11,-77.72"/>
<polygon fill="midnightblue" stroke="midnightblue" points="350.29,-81.02 358.51,-74.33 347.92,-74.43 350.29,-81.02"/>
</g>
<!-- Node8 -->
<g id="node8" class="node">
<title>Node8</title>
<g id="a_node8"><a xlink:title=" ">
<polygon fill="white" stroke="#bfbfbf" points="514.74,-112.5 514.74,-131.5 573.74,-131.5 573.74,-112.5 514.74,-112.5"/>
<text text-anchor="middle" x="544.24" y="-119.5" font-family="Helvetica,sans-Serif" font-size="10.00">functional</text>
</a>
</g>
</g>
<!-- Node7&#45;&gt;Node8 -->
<g id="edge8" class="edge">
<title>Node7&#45;&gt;Node8</title>
<path fill="none" stroke="midnightblue" d="M441.32,-224.42C458.53,-216.69 482.77,-204.08 500.24,-188 515.08,-174.33 527.47,-154.73 535.28,-140.63"/>
<polygon fill="midnightblue" stroke="midnightblue" points="538.53,-141.98 540.13,-131.5 532.35,-138.69 538.53,-141.98"/>
</g>
<!-- Node9 -->
<g id="node9" class="node">
<title>Node9</title>
<g id="a_node9"><a xlink:title=" ">
<polygon fill="white" stroke="#bfbfbf" points="406.74,-112.5 406.74,-131.5 457.74,-131.5 457.74,-112.5 406.74,-112.5"/>
<text text-anchor="middle" x="432.24" y="-119.5" font-family="Helvetica,sans-Serif" font-size="10.00">memory</text>
</a>
</g>
</g>
<!-- Node7&#45;&gt;Node9 -->
<g id="edge10" class="edge">
<title>Node7&#45;&gt;Node9</title>
<path fill="none" stroke="midnightblue" d="M422.35,-224.44C424.48,-215.43 427.67,-200.81 429.24,-188 431.12,-172.56 431.85,-154.93 432.12,-141.93"/>
<polygon fill="midnightblue" stroke="midnightblue" points="435.62,-141.91 432.25,-131.87 428.62,-141.82 435.62,-141.91"/>
</g>
<!-- Node10 -->
<g id="node10" class="node">
<title>Node10</title>
<g id="a_node10"><a xlink:href="InvalidArgumentException_8hpp.html" target="_top" xlink:title=" ">
<polygon fill="white" stroke="black" points="14.74,-56.5 14.74,-75.5 169.74,-75.5 169.74,-56.5 14.74,-56.5"/>
<text text-anchor="middle" x="92.24" y="-63.5" font-family="Helvetica,sans-Serif" font-size="10.00">../InvalidArgumentException.hpp</text>
</a>
</g>
</g>
<!-- Node7&#45;&gt;Node10 -->
<g id="edge11" class="edge">
<title>Node7&#45;&gt;Node10</title>
<path fill="none" stroke="midnightblue" d="M384.23,-224.48C331.2,-210.81 230.36,-180.49 156.24,-132 136.04,-118.79 117.21,-98.28 105.28,-83.84"/>
<polygon fill="midnightblue" stroke="midnightblue" points="107.78,-81.36 98.79,-75.75 102.32,-85.74 107.78,-81.36"/>
</g>
<!-- Node12 -->
<g id="node12" class="node">
<title>Node12</title>
<g id="a_node12"><a xlink:href="Nullable_8hpp.html" target="_top" xlink:title=" ">
<polygon fill="white" stroke="black" points="311.74,-112.5 311.74,-131.5 388.74,-131.5 388.74,-112.5 311.74,-112.5"/>
<text text-anchor="middle" x="350.24" y="-119.5" font-family="Helvetica,sans-Serif" font-size="10.00">../Nullable.hpp</text>
</a>
</g>
</g>
<!-- Node7&#45;&gt;Node12 -->
<g id="edge16" class="edge">
<title>Node7&#45;&gt;Node12</title>
<path fill="none" stroke="midnightblue" d="M400.52,-224.45C385.97,-217.03 367.07,-204.83 357.24,-188 349.09,-174.07 347.84,-155.56 348.33,-141.86"/>
<polygon fill="midnightblue" stroke="midnightblue" points="351.83,-141.9 349.04,-131.68 344.85,-141.41 351.83,-141.9"/>
</g>
<!-- Node14 -->
<g id="node14" class="node">
<title>Node14</title>
<g id="a_node14"><a xlink:href="IList_8hpp.html" target="_top" xlink:title=" ">
<polygon fill="white" stroke="black" points="366.24,-168.5 366.24,-187.5 420.24,-187.5 420.24,-168.5 366.24,-168.5"/>
<text text-anchor="middle" x="393.24" y="-175.5" font-family="Helvetica,sans-Serif" font-size="10.00">IList.hpp</text>
</a>
</g>
</g>
<!-- Node7&#45;&gt;Node14 -->
<g id="edge23" class="edge">
<title>Node7&#45;&gt;Node14</title>
<path fill="none" stroke="midnightblue" d="M415.78,-224.08C412.08,-216.69 406.71,-205.95 402.14,-196.81"/>
<polygon fill="midnightblue" stroke="midnightblue" points="405.21,-195.13 397.61,-187.75 398.95,-198.26 405.21,-195.13"/>
</g>
<!-- Node15 -->
<g id="node15" class="node">
<title>Node15</title>
<g id="a_node15"><a xlink:href="Tuple_8hpp.html" target="_top" xlink:title=" ">
<polygon fill="white" stroke="black" points="620.74,-168.5 620.74,-187.5 679.74,-187.5 679.74,-168.5 620.74,-168.5"/>
<text text-anchor="middle" x="650.24" y="-175.5" font-family="Helvetica,sans-Serif" font-size="10.00">Tuple.hpp</text>
</a>
</g>
</g>
<!-- Node7&#45;&gt;Node15 -->
<g id="edge26" class="edge">
<title>Node7&#45;&gt;Node15</title>
<path fill="none" stroke="midnightblue" d="M456.68,-224.44C498.66,-214.59 567.4,-198.45 610.66,-188.29"/>
<polygon fill="midnightblue" stroke="midnightblue" points="611.61,-191.66 620.54,-185.97 610.01,-184.85 611.61,-191.66"/>
</g>
<!-- Node10&#45;&gt;Node3 -->
<g id="edge14" class="edge">
<title>Node10&#45;&gt;Node3</title>
<path fill="none" stroke="midnightblue" d="M148.64,-56.44C222.04,-45.31 348.26,-26.16 410.83,-16.67"/>
<polygon fill="midnightblue" stroke="midnightblue" points="411.66,-20.09 421.02,-15.13 410.61,-13.17 411.66,-20.09"/>
</g>
<!-- Node10&#45;&gt;Node6 -->
<g id="edge12" class="edge">
<title>Node10&#45;&gt;Node6</title>
<path fill="none" stroke="midnightblue" d="M92.24,-56.08C92.24,-49.01 92.24,-38.86 92.24,-29.99"/>
<polygon fill="midnightblue" stroke="midnightblue" points="95.74,-29.75 92.24,-19.75 88.74,-29.75 95.74,-29.75"/>
</g>
<!-- Node11 -->
<g id="node11" class="node">
<title>Node11</title>
<g id="a_node11"><a xlink:title=" ">
<polygon fill="white" stroke="#bfbfbf" points="175.24,-0.5 175.24,-19.5 233.24,-19.5 233.24,-0.5 175.24,-0.5"/>
<text text-anchor="middle" x="204.24" y="-7.5" font-family="Helvetica,sans-Serif" font-size="10.00">exception</text>
</a>
</g>
</g>
<!-- Node10&#45;&gt;Node11 -->
<g id="edge13" class="edge">
<title>Node10&#45;&gt;Node11</title>
<path fill="none" stroke="midnightblue" d="M110.23,-56.32C128.27,-47.62 156.28,-34.12 177.04,-24.11"/>
<polygon fill="midnightblue" stroke="midnightblue" points="178.8,-27.15 186.29,-19.65 175.76,-20.84 178.8,-27.15"/>
</g>
<!-- Node12&#45;&gt;Node3 -->
<g id="edge22" class="edge">
<title>Node12&#45;&gt;Node3</title>
<path fill="none" stroke="midnightblue" d="M375.39,-112.49C392.87,-105.34 415.44,-93.46 429.24,-76 439.82,-62.61 444.51,-43.5 446.59,-29.46"/>
<polygon fill="midnightblue" stroke="midnightblue" points="450.07,-29.84 447.75,-19.5 443.11,-29.03 450.07,-29.84"/>
</g>
<!-- Node12&#45;&gt;Node5 -->
<g id="edge21" class="edge">
<title>Node12&#45;&gt;Node5</title>
<path fill="none" stroke="midnightblue" d="M356.68,-112.08C362.18,-104.46 370.27,-93.26 377,-83.94"/>
<polygon fill="midnightblue" stroke="midnightblue" points="379.9,-85.91 382.92,-75.75 374.22,-81.81 379.9,-85.91"/>
</g>
<!-- Node13 -->
<g id="node13" class="node">
<title>Node13</title>
<g id="a_node13"><a xlink:href="NoValueException_8hpp.html" target="_top" xlink:title=" ">
<polygon fill="white" stroke="black" points="188.24,-56.5 188.24,-75.5 302.24,-75.5 302.24,-56.5 188.24,-56.5"/>
<text text-anchor="middle" x="245.24" y="-63.5" font-family="Helvetica,sans-Serif" font-size="10.00">NoValueException.hpp</text>
</a>
</g>
</g>
<!-- Node12&#45;&gt;Node13 -->
<g id="edge17" class="edge">
<title>Node12&#45;&gt;Node13</title>
<path fill="none" stroke="midnightblue" d="M333.37,-112.32C316.53,-103.66 290.43,-90.24 271,-80.25"/>
<polygon fill="midnightblue" stroke="midnightblue" points="272.56,-77.12 262.06,-75.65 269.36,-83.34 272.56,-77.12"/>
</g>
<!-- Node13&#45;&gt;Node3 -->
<g id="edge20" class="edge">
<title>Node13&#45;&gt;Node3</title>
<path fill="none" stroke="midnightblue" d="M277.4,-56.44C313.83,-46.75 373.1,-30.99 411.37,-20.81"/>
<polygon fill="midnightblue" stroke="midnightblue" points="412.33,-24.17 421.09,-18.22 410.53,-17.41 412.33,-24.17"/>
</g>
<!-- Node13&#45;&gt;Node6 -->
<g id="edge18" class="edge">
<title>Node13&#45;&gt;Node6</title>
<path fill="none" stroke="midnightblue" d="M220.99,-56.44C195.06,-47.29 153.79,-32.73 124.99,-22.56"/>
<polygon fill="midnightblue" stroke="midnightblue" points="125.96,-19.19 115.36,-19.16 123.63,-25.79 125.96,-19.19"/>
</g>
<!-- Node13&#45;&gt;Node11 -->
<g id="edge19" class="edge">
<title>Node13&#45;&gt;Node11</title>
<path fill="none" stroke="midnightblue" d="M238.46,-56.08C232.67,-48.46 224.18,-37.26 217.1,-27.94"/>
<polygon fill="midnightblue" stroke="midnightblue" points="219.71,-25.6 210.88,-19.75 214.14,-29.83 219.71,-25.6"/>
</g>
<!-- Node14&#45;&gt;Node9 -->
<g id="edge25" class="edge">
<title>Node14&#45;&gt;Node9</title>
<path fill="none" stroke="midnightblue" d="M399.68,-168.08C405.18,-160.46 413.27,-149.26 420,-139.94"/>
<polygon fill="midnightblue" stroke="midnightblue" points="422.9,-141.91 425.92,-131.75 417.22,-137.81 422.9,-141.91"/>
</g>
<!-- Node14&#45;&gt;Node12 -->
<g id="edge24" class="edge">
<title>Node14&#45;&gt;Node12</title>
<path fill="none" stroke="midnightblue" d="M386.13,-168.08C380,-160.38 370.97,-149.03 363.5,-139.65"/>
<polygon fill="midnightblue" stroke="midnightblue" points="366.17,-137.39 357.2,-131.75 360.7,-141.75 366.17,-137.39"/>
</g>
<!-- Node15&#45;&gt;Node3 -->
<g id="edge30" class="edge">
<title>Node15&#45;&gt;Node3</title>
<path fill="none" stroke="midnightblue" d="M680.09,-175.45C734.9,-171.47 842.91,-157.74 808.24,-112 768.84,-60.04 569.56,-27.43 485.6,-15.8"/>
<polygon fill="midnightblue" stroke="midnightblue" points="485.87,-12.3 475.49,-14.42 484.92,-19.24 485.87,-12.3"/>
</g>
<!-- Node15&#45;&gt;Node8 -->
<g id="edge29" class="edge">
<title>Node15&#45;&gt;Node8</title>
<path fill="none" stroke="midnightblue" d="M633.2,-168.32C616.21,-159.66 589.86,-146.24 570.24,-136.25"/>
<polygon fill="midnightblue" stroke="midnightblue" points="571.72,-133.08 561.22,-131.65 568.55,-139.31 571.72,-133.08"/>
</g>
<!-- Node16 -->
<g id="node16" class="node">
<title>Node16</title>
<g id="a_node16"><a xlink:href="ttype_8hpp.html" target="_top" xlink:title=" ">
<polygon fill="white" stroke="black" points="735.74,-112.5 735.74,-131.5 798.74,-131.5 798.74,-112.5 735.74,-112.5"/>
<text text-anchor="middle" x="767.24" y="-119.5" font-family="Helvetica,sans-Serif" font-size="10.00">../ttype.hpp</text>
</a>
</g>
</g>
<!-- Node15&#45;&gt;Node16 -->
<g id="edge27" class="edge">
<title>Node15&#45;&gt;Node16</title>
<path fill="none" stroke="midnightblue" d="M668.77,-168.44C687.86,-159.64 717.81,-145.81 739.67,-135.72"/>
<polygon fill="midnightblue" stroke="midnightblue" points="741.17,-138.88 748.78,-131.52 738.24,-132.53 741.17,-138.88"/>
</g>
<!-- Node17 -->
<g id="node17" class="node">
<title>Node17</title>
<g id="a_node17"><a xlink:title=" ">
<polygon fill="white" stroke="#bfbfbf" points="591.74,-112.5 591.74,-131.5 636.74,-131.5 636.74,-112.5 591.74,-112.5"/>
<text text-anchor="middle" x="614.24" y="-119.5" font-family="Helvetica,sans-Serif" font-size="10.00">cstdlib</text>
</a>
</g>
</g>
<!-- Node15&#45;&gt;Node17 -->
<g id="edge28" class="edge">
<title>Node15&#45;&gt;Node17</title>
<path fill="none" stroke="midnightblue" d="M644.29,-168.08C639.26,-160.53 631.9,-149.49 625.72,-140.23"/>
<polygon fill="midnightblue" stroke="midnightblue" points="628.53,-138.13 620.07,-131.75 622.7,-142.01 628.53,-138.13"/>
</g>
<!-- Node18 -->
<g id="node18" class="node">
<title>Node18</title>
<g id="a_node18"><a xlink:title=" ">
<polygon fill="white" stroke="#bfbfbf" points="655.24,-112.5 655.24,-131.5 717.24,-131.5 717.24,-112.5 655.24,-112.5"/>
<text text-anchor="middle" x="686.24" y="-119.5" font-family="Helvetica,sans-Serif" font-size="10.00">type_traits</text>
</a>
</g>
</g>
<!-- Node15&#45;&gt;Node18 -->
<g id="edge31" class="edge">
<title>Node15&#45;&gt;Node18</title>
<path fill="none" stroke="midnightblue" d="M656.18,-168.08C661.21,-160.53 668.57,-149.49 674.75,-140.23"/>
<polygon fill="midnightblue" stroke="midnightblue" points="677.77,-142.01 680.4,-131.75 671.94,-138.13 677.77,-142.01"/>
</g>
</g>
</svg>
        <g id="navigator" transform="translate(0 0)" fill="#404254">
                <rect fill="#f2f5e9" fill-opacity="0.5" stroke="#606060" stroke-width=".5" x="0" y="0" width="60" height="60"/>
                <use id="zoomplus" xlink:href="#zoomPlus" x="17" y="9" onmousedown="handleZoom(evt,'in')"/>
                <use id="zoomminus" xlink:href="#zoomMin" x="42" y="9" onmousedown="handleZoom(evt,'out')"/>
                <use id="reset" xlink:href="#resetDef" x="30" y="36" onmousedown="handleReset()"/>
                <g id="arrowUp" xlink:href="#dirArrow" transform="translate(30 24)" onmousedown="handlePan(0,-1)">
                  <use xlink:href="#rim" fill="#404040">
                        <set attributeName="fill" to="#808080" begin="arrowUp.mouseover" end="arrowUp.mouseout"/>
                  </use>
                  <path fill="none" stroke="white" stroke-width="1.5" d="M0,-3.0v7 M-2.5,-0.5L0,-3.0L2.5,-0.5"/>
                </g>
                <g id="arrowRight" xlink:href="#dirArrow" transform="rotate(90) translate(36 -43)" onmousedown="handlePan(1,0)">
                  <use xlink:href="#rim" fill="#404040">
                        <set attributeName="fill" to="#808080" begin="arrowRight.mouseover" end="arrowRight.mouseout"/>
                  </use>
                  <path fill="none" stroke="white" stroke-width="1.5" d="M0,-3.0v7 M-2.5,-0.5L0,-3.0L2.5,-0.5"/>
                </g>
                <g id="arrowDown" xlink:href="#dirArrow" transform="rotate(180) translate(-30 -48)" onmousedown="handlePan(0,1)">
                  <use xlink:href="#rim" fill="#404040">
                        <set attributeName="fill" to="#808080" begin="arrowDown.mouseover" end="arrowDown.mouseout"/>
                  </use>
                  <path fill="none" stroke="white" stroke-width="1.5" d="M0,-3.0v7 M-2.5,-0.5L0,-3.0L2.5,-0.5"/>
                </g>
                <g id="arrowLeft" xlink:href="#dirArrow" transform="rotate(270) translate(-36 17)" onmousedown="handlePan(-1,0)">
                  <use xlink:href="#rim" fill="#404040">
                        <set attributeName="fill" to="#808080" begin="arrowLeft.mouseover" end="arrowLeft.mouseout"/>
                  </use>
                  <path fill="none" stroke="white" stroke-width="1.5" d="M0,-3.0v7 M-2.5,-0.5L0,-3.0L2.5,-0.5"/>
                </g>
        </g>
        <svg viewBox="0 0 15 15" width="100%" height="30px" preserveAspectRatio="xMaxYMin meet">
         <g id="arrow_out" transform="scale(0.3 0.3)">
          <a xlink:href="VisitBuilder_8hpp__incl_org.svg" target="_base">
           <rect id="button" ry="5" rx="5" y="6" x="6" height="38" width="38"
                fill="#f2f5e9" fill-opacity="0.5" stroke="#606060" stroke-width="1.0"/>
           <path id="arrow"
             d="M 11.500037,31.436501 C 11.940474,20.09759 22.043105,11.32322 32.158766,21.979434 L 37.068811,17.246167 C 37.068811,17.246167 37.088388,32 37.088388,32 L 22.160133,31.978069 C 22.160133,31.978069 26.997745,27.140456 26.997745,27.140456 C 18.528582,18.264221 13.291696,25.230495 11.500037,31.436501 z"
             style="fill:#404040;"/>
          </a>
         </g>
        </svg>
</svg>
