<?xml version="1.0" encoding="UTF-8" standalone="no"?>
<!DOCTYPE svg PUBLIC "-//W3C//DTD SVG 1.1//EN"
 "http://www.w3.org/Graphics/SVG/1.1/DTD/svg11.dtd">
<!-- Generated by graphviz version 2.44.0 (0)
 -->
<!-- Title: TravellersApp/src/WrongTokenTypeException.hpp Pages: 1 -->
<svg width="566pt" height="240pt"
 viewBox="0.00 0.00 566.00 240.00" xmlns="http://www.w3.org/2000/svg" xmlns:xlink="http://www.w3.org/1999/xlink">
<g id="graph0" class="graph" transform="scale(1 1) rotate(0) translate(4 236)">
<title>TravellersApp/src/WrongTokenTypeException.hpp</title>
<polygon fill="white" stroke="transparent" points="-4,4 -4,-236 562,-236 562,4 -4,4"/>
<!-- Node1 -->
<g id="node1" class="node">
<title>Node1</title>
<g id="a_node1"><a xlink:title=" ">
<polygon fill="#bfbfbf" stroke="black" points="181,-201.5 181,-231.5 332,-231.5 332,-201.5 181,-201.5"/>
<text text-anchor="start" x="189" y="-219.5" font-family="Helvetica,sans-Serif" font-size="10.00">TravellersApp/src/WrongToken</text>
<text text-anchor="middle" x="256.5" y="-208.5" font-family="Helvetica,sans-Serif" font-size="10.00">TypeException.hpp</text>
</a>
</g>
</g>
<!-- Node2 -->
<g id="node2" class="node">
<title>Node2</title>
<g id="a_node2"><a xlink:href="HTLInterpreter_8hpp.html" target="_top" xlink:title=" ">
<polygon fill="white" stroke="black" points="150,-67.5 150,-97.5 273,-97.5 273,-67.5 150,-67.5"/>
<text text-anchor="start" x="158" y="-85.5" font-family="Helvetica,sans-Serif" font-size="10.00">TravellersApp/src/parser</text>
<text text-anchor="middle" x="211.5" y="-74.5" font-family="Helvetica,sans-Serif" font-size="10.00">/HTLInterpreter.hpp</text>
</a>
</g>
</g>
<!-- Node1&#45;&gt;Node2 -->
<g id="edge1" class="edge">
<title>Node1&#45;&gt;Node2</title>
<path fill="none" stroke="midnightblue" d="M243.13,-192.47C238.64,-184.04 233.91,-174.28 230.5,-165 222.08,-142.09 216.53,-114.15 213.71,-97.65"/>
<polygon fill="midnightblue" stroke="midnightblue" points="240.12,-194.27 248.01,-201.34 246.25,-190.9 240.12,-194.27"/>
</g>
<!-- Node5 -->
<g id="node5" class="node">
<title>Node5</title>
<g id="a_node5"><a xlink:href="Interpreter_8hpp.html" target="_top" xlink:title=" ">
<polygon fill="white" stroke="black" points="240,-134.5 240,-164.5 363,-164.5 363,-134.5 240,-134.5"/>
<text text-anchor="start" x="248" y="-152.5" font-family="Helvetica,sans-Serif" font-size="10.00">TravellersApp/src/parser</text>
<text text-anchor="middle" x="301.5" y="-141.5" font-family="Helvetica,sans-Serif" font-size="10.00">/Interpreter.hpp</text>
</a>
</g>
</g>
<!-- Node1&#45;&gt;Node5 -->
<g id="edge4" class="edge">
<title>Node1&#45;&gt;Node5</title>
<path fill="none" stroke="midnightblue" d="M271.97,-193.16C278.53,-183.68 285.98,-172.92 291.75,-164.58"/>
<polygon fill="midnightblue" stroke="midnightblue" points="269.08,-191.18 266.26,-201.4 274.83,-195.17 269.08,-191.18"/>
</g>
<!-- Node6 -->
<g id="node6" class="node">
<title>Node6</title>
<g id="a_node6"><a xlink:href="LoginInterpreter_8hpp.html" target="_top" xlink:title=" ">
<polygon fill="white" stroke="black" points="9,-67.5 9,-97.5 132,-97.5 132,-67.5 9,-67.5"/>
<text text-anchor="start" x="17" y="-85.5" font-family="Helvetica,sans-Serif" font-size="10.00">TravellersApp/src/parser</text>
<text text-anchor="middle" x="70.5" y="-74.5" font-family="Helvetica,sans-Serif" font-size="10.00">/LoginInterpreter.hpp</text>
</a>
</g>
</g>
<!-- Node1&#45;&gt;Node6 -->
<g id="edge13" class="edge">
<title>Node1&#45;&gt;Node6</title>
<path fill="none" stroke="midnightblue" d="M228.01,-195.28C189.9,-168.24 123.31,-120.98 90.26,-97.52"/>
<polygon fill="midnightblue" stroke="midnightblue" points="226.41,-198.44 236.59,-201.37 230.47,-192.73 226.41,-198.44"/>
</g>
<!-- Node8 -->
<g id="node8" class="node">
<title>Node8</title>
<g id="a_node8"><a xlink:href="VisitInterpreter_8hpp.html" target="_top" xlink:title=" ">
<polygon fill="white" stroke="black" points="432,-67.5 432,-97.5 555,-97.5 555,-67.5 432,-67.5"/>
<text text-anchor="start" x="440" y="-85.5" font-family="Helvetica,sans-Serif" font-size="10.00">TravellersApp/src/parser</text>
<text text-anchor="middle" x="493.5" y="-74.5" font-family="Helvetica,sans-Serif" font-size="10.00">/VisitInterpreter.hpp</text>
</a>
</g>
</g>
<!-- Node1&#45;&gt;Node8 -->
<g id="edge14" class="edge">
<title>Node1&#45;&gt;Node8</title>
<path fill="none" stroke="midnightblue" d="M302.29,-197.56C323.73,-188.62 349.36,-177.13 371.5,-165 409.7,-144.07 451.3,-114.73 474.71,-97.56"/>
<polygon fill="midnightblue" stroke="midnightblue" points="300.67,-194.44 292.76,-201.49 303.34,-200.92 300.67,-194.44"/>
</g>
<!-- Node3 -->
<g id="node3" class="node">
<title>Node3</title>
<g id="a_node3"><a xlink:href="main_8cpp.html" target="_top" xlink:title=" ">
<polygon fill="white" stroke="black" points="141,-6 141,-25 276,-25 276,-6 141,-6"/>
<text text-anchor="middle" x="208.5" y="-13" font-family="Helvetica,sans-Serif" font-size="10.00">TravellersApp/src/main.cpp</text>
</a>
</g>
</g>
<!-- Node2&#45;&gt;Node3 -->
<g id="edge2" class="edge">
<title>Node2&#45;&gt;Node3</title>
<path fill="none" stroke="midnightblue" d="M210.38,-57.25C209.86,-46.02 209.28,-33.38 208.9,-25.19"/>
<polygon fill="midnightblue" stroke="midnightblue" points="206.89,-57.57 210.85,-67.4 213.88,-57.25 206.89,-57.57"/>
</g>
<!-- Node4 -->
<g id="node4" class="node">
<title>Node4</title>
<g id="a_node4"><a xlink:href="HTLInterpreter_8cpp.html" target="_top" xlink:title=" ">
<polygon fill="white" stroke="black" points="294,-0.5 294,-30.5 417,-30.5 417,-0.5 294,-0.5"/>
<text text-anchor="start" x="302" y="-18.5" font-family="Helvetica,sans-Serif" font-size="10.00">TravellersApp/src/parser</text>
<text text-anchor="middle" x="355.5" y="-7.5" font-family="Helvetica,sans-Serif" font-size="10.00">/HTLInterpreter.cpp</text>
</a>
</g>
</g>
<!-- Node2&#45;&gt;Node4 -->
<g id="edge3" class="edge">
<title>Node2&#45;&gt;Node4</title>
<path fill="none" stroke="midnightblue" d="M251.89,-63.27C274.82,-52.92 303.1,-40.15 324.32,-30.58"/>
<polygon fill="midnightblue" stroke="midnightblue" points="250.42,-60.09 242.75,-67.4 253.3,-66.47 250.42,-60.09"/>
</g>
<!-- Node5&#45;&gt;Node2 -->
<g id="edge5" class="edge">
<title>Node5&#45;&gt;Node2</title>
<path fill="none" stroke="midnightblue" d="M273.74,-128.45C259.89,-118.45 243.48,-106.6 230.99,-97.58"/>
<polygon fill="midnightblue" stroke="midnightblue" points="271.82,-131.38 281.97,-134.4 275.91,-125.7 271.82,-131.38"/>
</g>
<!-- Node5&#45;&gt;Node6 -->
<g id="edge6" class="edge">
<title>Node5&#45;&gt;Node6</title>
<path fill="none" stroke="midnightblue" d="M241.85,-131.71C204.26,-121.14 156.27,-107.63 120.65,-97.61"/>
<polygon fill="midnightblue" stroke="midnightblue" points="241.09,-135.14 251.66,-134.48 242.98,-128.4 241.09,-135.14"/>
</g>
<!-- Node5&#45;&gt;Node8 -->
<g id="edge9" class="edge">
<title>Node5&#45;&gt;Node8</title>
<path fill="none" stroke="midnightblue" d="M352.92,-131.09C383.92,-120.6 422.88,-107.41 451.92,-97.58"/>
<polygon fill="midnightblue" stroke="midnightblue" points="351.51,-127.87 343.16,-134.4 353.76,-134.5 351.51,-127.87"/>
</g>
<!-- Node10 -->
<g id="node10" class="node">
<title>Node10</title>
<g id="a_node10"><a xlink:href="Interpreter_8cpp.html" target="_top" xlink:title=" ">
<polygon fill="white" stroke="black" points="291,-67.5 291,-97.5 414,-97.5 414,-67.5 291,-67.5"/>
<text text-anchor="start" x="299" y="-85.5" font-family="Helvetica,sans-Serif" font-size="10.00">TravellersApp/src/parser</text>
<text text-anchor="middle" x="352.5" y="-74.5" font-family="Helvetica,sans-Serif" font-size="10.00">/Interpreter.cpp</text>
</a>
</g>
</g>
<!-- Node5&#45;&gt;Node10 -->
<g id="edge12" class="edge">
<title>Node5&#45;&gt;Node10</title>
<path fill="none" stroke="midnightblue" d="M318.8,-126.45C326.29,-116.9 334.84,-106 341.46,-97.58"/>
<polygon fill="midnightblue" stroke="midnightblue" points="315.99,-124.37 312.57,-134.4 321.49,-128.69 315.99,-124.37"/>
</g>
<!-- Node6&#45;&gt;Node3 -->
<g id="edge7" class="edge">
<title>Node6&#45;&gt;Node3</title>
<path fill="none" stroke="midnightblue" d="M109.5,-63.13C136.06,-50.62 169.99,-34.64 190.44,-25.01"/>
<polygon fill="midnightblue" stroke="midnightblue" points="108,-59.97 100.44,-67.4 110.98,-66.3 108,-59.97"/>
</g>
<!-- Node7 -->
<g id="node7" class="node">
<title>Node7</title>
<g id="a_node7"><a xlink:href="LoginInterpreter_8cpp.html" target="_top" xlink:title=" ">
<polygon fill="white" stroke="black" points="0,-0.5 0,-30.5 123,-30.5 123,-0.5 0,-0.5"/>
<text text-anchor="start" x="8" y="-18.5" font-family="Helvetica,sans-Serif" font-size="10.00">TravellersApp/src/parser</text>
<text text-anchor="middle" x="61.5" y="-7.5" font-family="Helvetica,sans-Serif" font-size="10.00">/LoginInterpreter.cpp</text>
</a>
</g>
</g>
<!-- Node6&#45;&gt;Node7 -->
<g id="edge8" class="edge">
<title>Node6&#45;&gt;Node7</title>
<path fill="none" stroke="midnightblue" d="M67.16,-57.4C65.91,-48.37 64.53,-38.41 63.45,-30.58"/>
<polygon fill="midnightblue" stroke="midnightblue" points="63.71,-57.97 68.55,-67.4 70.64,-57.01 63.71,-57.97"/>
</g>
<!-- Node8&#45;&gt;Node4 -->
<g id="edge10" class="edge">
<title>Node8&#45;&gt;Node4</title>
<path fill="none" stroke="midnightblue" d="M454.5,-63.13C432.57,-52.8 405.63,-40.11 385.39,-30.58"/>
<polygon fill="midnightblue" stroke="midnightblue" points="453.02,-66.3 463.56,-67.4 456,-59.97 453.02,-66.3"/>
</g>
<!-- Node9 -->
<g id="node9" class="node">
<title>Node9</title>
<g id="a_node9"><a xlink:href="VisitInterpreter_8cpp.html" target="_top" xlink:title=" ">
<polygon fill="white" stroke="black" points="435,-0.5 435,-30.5 558,-30.5 558,-0.5 435,-0.5"/>
<text text-anchor="start" x="443" y="-18.5" font-family="Helvetica,sans-Serif" font-size="10.00">TravellersApp/src/parser</text>
<text text-anchor="middle" x="496.5" y="-7.5" font-family="Helvetica,sans-Serif" font-size="10.00">/VisitInterpreter.cpp</text>
</a>
</g>
</g>
<!-- Node8&#45;&gt;Node9 -->
<g id="edge11" class="edge">
<title>Node8&#45;&gt;Node9</title>
<path fill="none" stroke="midnightblue" d="M494.61,-57.4C495.03,-48.37 495.49,-38.41 495.85,-30.58"/>
<polygon fill="midnightblue" stroke="midnightblue" points="491.12,-57.25 494.15,-67.4 498.11,-57.57 491.12,-57.25"/>
</g>
</g>
</svg>
